%TF.GenerationSoftware,KiCad,Pcbnew,7.0.1*%
%TF.CreationDate,2023-05-11T20:00:56+01:00*%
%TF.ProjectId,MoonPad,4d6f6f6e-5061-4642-9e6b-696361645f70,rev?*%
%TF.SameCoordinates,Original*%
%TF.FileFunction,Legend,Top*%
%TF.FilePolarity,Positive*%
%FSLAX46Y46*%
G04 Gerber Fmt 4.6, Leading zero omitted, Abs format (unit mm)*
G04 Created by KiCad (PCBNEW 7.0.1) date 2023-05-11 20:00:56*
%MOMM*%
%LPD*%
G01*
G04 APERTURE LIST*
%ADD10C,0.125000*%
%ADD11C,0.120000*%
%ADD12C,0.100000*%
G04 APERTURE END LIST*
D10*
%TO.C,C8*%
X179507690Y-95079333D02*
X179531500Y-95103142D01*
X179531500Y-95103142D02*
X179555309Y-95174571D01*
X179555309Y-95174571D02*
X179555309Y-95222190D01*
X179555309Y-95222190D02*
X179531500Y-95293618D01*
X179531500Y-95293618D02*
X179483880Y-95341237D01*
X179483880Y-95341237D02*
X179436261Y-95365047D01*
X179436261Y-95365047D02*
X179341023Y-95388856D01*
X179341023Y-95388856D02*
X179269595Y-95388856D01*
X179269595Y-95388856D02*
X179174357Y-95365047D01*
X179174357Y-95365047D02*
X179126738Y-95341237D01*
X179126738Y-95341237D02*
X179079119Y-95293618D01*
X179079119Y-95293618D02*
X179055309Y-95222190D01*
X179055309Y-95222190D02*
X179055309Y-95174571D01*
X179055309Y-95174571D02*
X179079119Y-95103142D01*
X179079119Y-95103142D02*
X179102928Y-95079333D01*
X179269595Y-94793618D02*
X179245785Y-94841237D01*
X179245785Y-94841237D02*
X179221976Y-94865047D01*
X179221976Y-94865047D02*
X179174357Y-94888856D01*
X179174357Y-94888856D02*
X179150547Y-94888856D01*
X179150547Y-94888856D02*
X179102928Y-94865047D01*
X179102928Y-94865047D02*
X179079119Y-94841237D01*
X179079119Y-94841237D02*
X179055309Y-94793618D01*
X179055309Y-94793618D02*
X179055309Y-94698380D01*
X179055309Y-94698380D02*
X179079119Y-94650761D01*
X179079119Y-94650761D02*
X179102928Y-94626952D01*
X179102928Y-94626952D02*
X179150547Y-94603142D01*
X179150547Y-94603142D02*
X179174357Y-94603142D01*
X179174357Y-94603142D02*
X179221976Y-94626952D01*
X179221976Y-94626952D02*
X179245785Y-94650761D01*
X179245785Y-94650761D02*
X179269595Y-94698380D01*
X179269595Y-94698380D02*
X179269595Y-94793618D01*
X179269595Y-94793618D02*
X179293404Y-94841237D01*
X179293404Y-94841237D02*
X179317214Y-94865047D01*
X179317214Y-94865047D02*
X179364833Y-94888856D01*
X179364833Y-94888856D02*
X179460071Y-94888856D01*
X179460071Y-94888856D02*
X179507690Y-94865047D01*
X179507690Y-94865047D02*
X179531500Y-94841237D01*
X179531500Y-94841237D02*
X179555309Y-94793618D01*
X179555309Y-94793618D02*
X179555309Y-94698380D01*
X179555309Y-94698380D02*
X179531500Y-94650761D01*
X179531500Y-94650761D02*
X179507690Y-94626952D01*
X179507690Y-94626952D02*
X179460071Y-94603142D01*
X179460071Y-94603142D02*
X179364833Y-94603142D01*
X179364833Y-94603142D02*
X179317214Y-94626952D01*
X179317214Y-94626952D02*
X179293404Y-94650761D01*
X179293404Y-94650761D02*
X179269595Y-94698380D01*
%TO.C,C23*%
X170239571Y-82987690D02*
X170215762Y-83011500D01*
X170215762Y-83011500D02*
X170144333Y-83035309D01*
X170144333Y-83035309D02*
X170096714Y-83035309D01*
X170096714Y-83035309D02*
X170025286Y-83011500D01*
X170025286Y-83011500D02*
X169977667Y-82963880D01*
X169977667Y-82963880D02*
X169953857Y-82916261D01*
X169953857Y-82916261D02*
X169930048Y-82821023D01*
X169930048Y-82821023D02*
X169930048Y-82749595D01*
X169930048Y-82749595D02*
X169953857Y-82654357D01*
X169953857Y-82654357D02*
X169977667Y-82606738D01*
X169977667Y-82606738D02*
X170025286Y-82559119D01*
X170025286Y-82559119D02*
X170096714Y-82535309D01*
X170096714Y-82535309D02*
X170144333Y-82535309D01*
X170144333Y-82535309D02*
X170215762Y-82559119D01*
X170215762Y-82559119D02*
X170239571Y-82582928D01*
X170430048Y-82582928D02*
X170453857Y-82559119D01*
X170453857Y-82559119D02*
X170501476Y-82535309D01*
X170501476Y-82535309D02*
X170620524Y-82535309D01*
X170620524Y-82535309D02*
X170668143Y-82559119D01*
X170668143Y-82559119D02*
X170691952Y-82582928D01*
X170691952Y-82582928D02*
X170715762Y-82630547D01*
X170715762Y-82630547D02*
X170715762Y-82678166D01*
X170715762Y-82678166D02*
X170691952Y-82749595D01*
X170691952Y-82749595D02*
X170406238Y-83035309D01*
X170406238Y-83035309D02*
X170715762Y-83035309D01*
X170882428Y-82535309D02*
X171191952Y-82535309D01*
X171191952Y-82535309D02*
X171025285Y-82725785D01*
X171025285Y-82725785D02*
X171096714Y-82725785D01*
X171096714Y-82725785D02*
X171144333Y-82749595D01*
X171144333Y-82749595D02*
X171168142Y-82773404D01*
X171168142Y-82773404D02*
X171191952Y-82821023D01*
X171191952Y-82821023D02*
X171191952Y-82940071D01*
X171191952Y-82940071D02*
X171168142Y-82987690D01*
X171168142Y-82987690D02*
X171144333Y-83011500D01*
X171144333Y-83011500D02*
X171096714Y-83035309D01*
X171096714Y-83035309D02*
X170953857Y-83035309D01*
X170953857Y-83035309D02*
X170906238Y-83011500D01*
X170906238Y-83011500D02*
X170882428Y-82987690D01*
%TO.C,C9*%
X172395690Y-102191333D02*
X172419500Y-102215142D01*
X172419500Y-102215142D02*
X172443309Y-102286571D01*
X172443309Y-102286571D02*
X172443309Y-102334190D01*
X172443309Y-102334190D02*
X172419500Y-102405618D01*
X172419500Y-102405618D02*
X172371880Y-102453237D01*
X172371880Y-102453237D02*
X172324261Y-102477047D01*
X172324261Y-102477047D02*
X172229023Y-102500856D01*
X172229023Y-102500856D02*
X172157595Y-102500856D01*
X172157595Y-102500856D02*
X172062357Y-102477047D01*
X172062357Y-102477047D02*
X172014738Y-102453237D01*
X172014738Y-102453237D02*
X171967119Y-102405618D01*
X171967119Y-102405618D02*
X171943309Y-102334190D01*
X171943309Y-102334190D02*
X171943309Y-102286571D01*
X171943309Y-102286571D02*
X171967119Y-102215142D01*
X171967119Y-102215142D02*
X171990928Y-102191333D01*
X172443309Y-101953237D02*
X172443309Y-101857999D01*
X172443309Y-101857999D02*
X172419500Y-101810380D01*
X172419500Y-101810380D02*
X172395690Y-101786571D01*
X172395690Y-101786571D02*
X172324261Y-101738952D01*
X172324261Y-101738952D02*
X172229023Y-101715142D01*
X172229023Y-101715142D02*
X172038547Y-101715142D01*
X172038547Y-101715142D02*
X171990928Y-101738952D01*
X171990928Y-101738952D02*
X171967119Y-101762761D01*
X171967119Y-101762761D02*
X171943309Y-101810380D01*
X171943309Y-101810380D02*
X171943309Y-101905618D01*
X171943309Y-101905618D02*
X171967119Y-101953237D01*
X171967119Y-101953237D02*
X171990928Y-101977047D01*
X171990928Y-101977047D02*
X172038547Y-102000856D01*
X172038547Y-102000856D02*
X172157595Y-102000856D01*
X172157595Y-102000856D02*
X172205214Y-101977047D01*
X172205214Y-101977047D02*
X172229023Y-101953237D01*
X172229023Y-101953237D02*
X172252833Y-101905618D01*
X172252833Y-101905618D02*
X172252833Y-101810380D01*
X172252833Y-101810380D02*
X172229023Y-101762761D01*
X172229023Y-101762761D02*
X172205214Y-101738952D01*
X172205214Y-101738952D02*
X172157595Y-101715142D01*
%TO.C,C26*%
X184985690Y-112053428D02*
X185009500Y-112077237D01*
X185009500Y-112077237D02*
X185033309Y-112148666D01*
X185033309Y-112148666D02*
X185033309Y-112196285D01*
X185033309Y-112196285D02*
X185009500Y-112267713D01*
X185009500Y-112267713D02*
X184961880Y-112315332D01*
X184961880Y-112315332D02*
X184914261Y-112339142D01*
X184914261Y-112339142D02*
X184819023Y-112362951D01*
X184819023Y-112362951D02*
X184747595Y-112362951D01*
X184747595Y-112362951D02*
X184652357Y-112339142D01*
X184652357Y-112339142D02*
X184604738Y-112315332D01*
X184604738Y-112315332D02*
X184557119Y-112267713D01*
X184557119Y-112267713D02*
X184533309Y-112196285D01*
X184533309Y-112196285D02*
X184533309Y-112148666D01*
X184533309Y-112148666D02*
X184557119Y-112077237D01*
X184557119Y-112077237D02*
X184580928Y-112053428D01*
X184580928Y-111862951D02*
X184557119Y-111839142D01*
X184557119Y-111839142D02*
X184533309Y-111791523D01*
X184533309Y-111791523D02*
X184533309Y-111672475D01*
X184533309Y-111672475D02*
X184557119Y-111624856D01*
X184557119Y-111624856D02*
X184580928Y-111601047D01*
X184580928Y-111601047D02*
X184628547Y-111577237D01*
X184628547Y-111577237D02*
X184676166Y-111577237D01*
X184676166Y-111577237D02*
X184747595Y-111601047D01*
X184747595Y-111601047D02*
X185033309Y-111886761D01*
X185033309Y-111886761D02*
X185033309Y-111577237D01*
X184533309Y-111148666D02*
X184533309Y-111243904D01*
X184533309Y-111243904D02*
X184557119Y-111291523D01*
X184557119Y-111291523D02*
X184580928Y-111315333D01*
X184580928Y-111315333D02*
X184652357Y-111362952D01*
X184652357Y-111362952D02*
X184747595Y-111386761D01*
X184747595Y-111386761D02*
X184938071Y-111386761D01*
X184938071Y-111386761D02*
X184985690Y-111362952D01*
X184985690Y-111362952D02*
X185009500Y-111339142D01*
X185009500Y-111339142D02*
X185033309Y-111291523D01*
X185033309Y-111291523D02*
X185033309Y-111196285D01*
X185033309Y-111196285D02*
X185009500Y-111148666D01*
X185009500Y-111148666D02*
X184985690Y-111124857D01*
X184985690Y-111124857D02*
X184938071Y-111101047D01*
X184938071Y-111101047D02*
X184819023Y-111101047D01*
X184819023Y-111101047D02*
X184771404Y-111124857D01*
X184771404Y-111124857D02*
X184747595Y-111148666D01*
X184747595Y-111148666D02*
X184723785Y-111196285D01*
X184723785Y-111196285D02*
X184723785Y-111291523D01*
X184723785Y-111291523D02*
X184747595Y-111339142D01*
X184747595Y-111339142D02*
X184771404Y-111362952D01*
X184771404Y-111362952D02*
X184819023Y-111386761D01*
%TO.C,Y1*%
X177561905Y-111245214D02*
X177561905Y-111483309D01*
X177395239Y-110983309D02*
X177561905Y-111245214D01*
X177561905Y-111245214D02*
X177728572Y-110983309D01*
X178157143Y-111483309D02*
X177871429Y-111483309D01*
X178014286Y-111483309D02*
X178014286Y-110983309D01*
X178014286Y-110983309D02*
X177966667Y-111054738D01*
X177966667Y-111054738D02*
X177919048Y-111102357D01*
X177919048Y-111102357D02*
X177871429Y-111126166D01*
%TO.C,C25*%
X184587690Y-101413428D02*
X184611500Y-101437237D01*
X184611500Y-101437237D02*
X184635309Y-101508666D01*
X184635309Y-101508666D02*
X184635309Y-101556285D01*
X184635309Y-101556285D02*
X184611500Y-101627713D01*
X184611500Y-101627713D02*
X184563880Y-101675332D01*
X184563880Y-101675332D02*
X184516261Y-101699142D01*
X184516261Y-101699142D02*
X184421023Y-101722951D01*
X184421023Y-101722951D02*
X184349595Y-101722951D01*
X184349595Y-101722951D02*
X184254357Y-101699142D01*
X184254357Y-101699142D02*
X184206738Y-101675332D01*
X184206738Y-101675332D02*
X184159119Y-101627713D01*
X184159119Y-101627713D02*
X184135309Y-101556285D01*
X184135309Y-101556285D02*
X184135309Y-101508666D01*
X184135309Y-101508666D02*
X184159119Y-101437237D01*
X184159119Y-101437237D02*
X184182928Y-101413428D01*
X184182928Y-101222951D02*
X184159119Y-101199142D01*
X184159119Y-101199142D02*
X184135309Y-101151523D01*
X184135309Y-101151523D02*
X184135309Y-101032475D01*
X184135309Y-101032475D02*
X184159119Y-100984856D01*
X184159119Y-100984856D02*
X184182928Y-100961047D01*
X184182928Y-100961047D02*
X184230547Y-100937237D01*
X184230547Y-100937237D02*
X184278166Y-100937237D01*
X184278166Y-100937237D02*
X184349595Y-100961047D01*
X184349595Y-100961047D02*
X184635309Y-101246761D01*
X184635309Y-101246761D02*
X184635309Y-100937237D01*
X184135309Y-100484857D02*
X184135309Y-100722952D01*
X184135309Y-100722952D02*
X184373404Y-100746761D01*
X184373404Y-100746761D02*
X184349595Y-100722952D01*
X184349595Y-100722952D02*
X184325785Y-100675333D01*
X184325785Y-100675333D02*
X184325785Y-100556285D01*
X184325785Y-100556285D02*
X184349595Y-100508666D01*
X184349595Y-100508666D02*
X184373404Y-100484857D01*
X184373404Y-100484857D02*
X184421023Y-100461047D01*
X184421023Y-100461047D02*
X184540071Y-100461047D01*
X184540071Y-100461047D02*
X184587690Y-100484857D01*
X184587690Y-100484857D02*
X184611500Y-100508666D01*
X184611500Y-100508666D02*
X184635309Y-100556285D01*
X184635309Y-100556285D02*
X184635309Y-100675333D01*
X184635309Y-100675333D02*
X184611500Y-100722952D01*
X184611500Y-100722952D02*
X184587690Y-100746761D01*
%TO.C,C14*%
X177602690Y-95190428D02*
X177626500Y-95214237D01*
X177626500Y-95214237D02*
X177650309Y-95285666D01*
X177650309Y-95285666D02*
X177650309Y-95333285D01*
X177650309Y-95333285D02*
X177626500Y-95404713D01*
X177626500Y-95404713D02*
X177578880Y-95452332D01*
X177578880Y-95452332D02*
X177531261Y-95476142D01*
X177531261Y-95476142D02*
X177436023Y-95499951D01*
X177436023Y-95499951D02*
X177364595Y-95499951D01*
X177364595Y-95499951D02*
X177269357Y-95476142D01*
X177269357Y-95476142D02*
X177221738Y-95452332D01*
X177221738Y-95452332D02*
X177174119Y-95404713D01*
X177174119Y-95404713D02*
X177150309Y-95333285D01*
X177150309Y-95333285D02*
X177150309Y-95285666D01*
X177150309Y-95285666D02*
X177174119Y-95214237D01*
X177174119Y-95214237D02*
X177197928Y-95190428D01*
X177650309Y-94714237D02*
X177650309Y-94999951D01*
X177650309Y-94857094D02*
X177150309Y-94857094D01*
X177150309Y-94857094D02*
X177221738Y-94904713D01*
X177221738Y-94904713D02*
X177269357Y-94952332D01*
X177269357Y-94952332D02*
X177293166Y-94999951D01*
X177316976Y-94285666D02*
X177650309Y-94285666D01*
X177126500Y-94404714D02*
X177483642Y-94523761D01*
X177483642Y-94523761D02*
X177483642Y-94214238D01*
%TO.C,C6*%
X180383666Y-107371690D02*
X180359857Y-107395500D01*
X180359857Y-107395500D02*
X180288428Y-107419309D01*
X180288428Y-107419309D02*
X180240809Y-107419309D01*
X180240809Y-107419309D02*
X180169381Y-107395500D01*
X180169381Y-107395500D02*
X180121762Y-107347880D01*
X180121762Y-107347880D02*
X180097952Y-107300261D01*
X180097952Y-107300261D02*
X180074143Y-107205023D01*
X180074143Y-107205023D02*
X180074143Y-107133595D01*
X180074143Y-107133595D02*
X180097952Y-107038357D01*
X180097952Y-107038357D02*
X180121762Y-106990738D01*
X180121762Y-106990738D02*
X180169381Y-106943119D01*
X180169381Y-106943119D02*
X180240809Y-106919309D01*
X180240809Y-106919309D02*
X180288428Y-106919309D01*
X180288428Y-106919309D02*
X180359857Y-106943119D01*
X180359857Y-106943119D02*
X180383666Y-106966928D01*
X180812238Y-106919309D02*
X180717000Y-106919309D01*
X180717000Y-106919309D02*
X180669381Y-106943119D01*
X180669381Y-106943119D02*
X180645571Y-106966928D01*
X180645571Y-106966928D02*
X180597952Y-107038357D01*
X180597952Y-107038357D02*
X180574143Y-107133595D01*
X180574143Y-107133595D02*
X180574143Y-107324071D01*
X180574143Y-107324071D02*
X180597952Y-107371690D01*
X180597952Y-107371690D02*
X180621762Y-107395500D01*
X180621762Y-107395500D02*
X180669381Y-107419309D01*
X180669381Y-107419309D02*
X180764619Y-107419309D01*
X180764619Y-107419309D02*
X180812238Y-107395500D01*
X180812238Y-107395500D02*
X180836047Y-107371690D01*
X180836047Y-107371690D02*
X180859857Y-107324071D01*
X180859857Y-107324071D02*
X180859857Y-107205023D01*
X180859857Y-107205023D02*
X180836047Y-107157404D01*
X180836047Y-107157404D02*
X180812238Y-107133595D01*
X180812238Y-107133595D02*
X180764619Y-107109785D01*
X180764619Y-107109785D02*
X180669381Y-107109785D01*
X180669381Y-107109785D02*
X180621762Y-107133595D01*
X180621762Y-107133595D02*
X180597952Y-107157404D01*
X180597952Y-107157404D02*
X180574143Y-107205023D01*
%TO.C,R6*%
X174922666Y-87099309D02*
X174756000Y-86861214D01*
X174636952Y-87099309D02*
X174636952Y-86599309D01*
X174636952Y-86599309D02*
X174827428Y-86599309D01*
X174827428Y-86599309D02*
X174875047Y-86623119D01*
X174875047Y-86623119D02*
X174898857Y-86646928D01*
X174898857Y-86646928D02*
X174922666Y-86694547D01*
X174922666Y-86694547D02*
X174922666Y-86765976D01*
X174922666Y-86765976D02*
X174898857Y-86813595D01*
X174898857Y-86813595D02*
X174875047Y-86837404D01*
X174875047Y-86837404D02*
X174827428Y-86861214D01*
X174827428Y-86861214D02*
X174636952Y-86861214D01*
X175351238Y-86599309D02*
X175256000Y-86599309D01*
X175256000Y-86599309D02*
X175208381Y-86623119D01*
X175208381Y-86623119D02*
X175184571Y-86646928D01*
X175184571Y-86646928D02*
X175136952Y-86718357D01*
X175136952Y-86718357D02*
X175113143Y-86813595D01*
X175113143Y-86813595D02*
X175113143Y-87004071D01*
X175113143Y-87004071D02*
X175136952Y-87051690D01*
X175136952Y-87051690D02*
X175160762Y-87075500D01*
X175160762Y-87075500D02*
X175208381Y-87099309D01*
X175208381Y-87099309D02*
X175303619Y-87099309D01*
X175303619Y-87099309D02*
X175351238Y-87075500D01*
X175351238Y-87075500D02*
X175375047Y-87051690D01*
X175375047Y-87051690D02*
X175398857Y-87004071D01*
X175398857Y-87004071D02*
X175398857Y-86885023D01*
X175398857Y-86885023D02*
X175375047Y-86837404D01*
X175375047Y-86837404D02*
X175351238Y-86813595D01*
X175351238Y-86813595D02*
X175303619Y-86789785D01*
X175303619Y-86789785D02*
X175208381Y-86789785D01*
X175208381Y-86789785D02*
X175160762Y-86813595D01*
X175160762Y-86813595D02*
X175136952Y-86837404D01*
X175136952Y-86837404D02*
X175113143Y-86885023D01*
%TO.C,J3*%
X177633333Y-80428309D02*
X177633333Y-80785452D01*
X177633333Y-80785452D02*
X177609524Y-80856880D01*
X177609524Y-80856880D02*
X177561905Y-80904500D01*
X177561905Y-80904500D02*
X177490476Y-80928309D01*
X177490476Y-80928309D02*
X177442857Y-80928309D01*
X177823809Y-80428309D02*
X178133333Y-80428309D01*
X178133333Y-80428309D02*
X177966666Y-80618785D01*
X177966666Y-80618785D02*
X178038095Y-80618785D01*
X178038095Y-80618785D02*
X178085714Y-80642595D01*
X178085714Y-80642595D02*
X178109523Y-80666404D01*
X178109523Y-80666404D02*
X178133333Y-80714023D01*
X178133333Y-80714023D02*
X178133333Y-80833071D01*
X178133333Y-80833071D02*
X178109523Y-80880690D01*
X178109523Y-80880690D02*
X178085714Y-80904500D01*
X178085714Y-80904500D02*
X178038095Y-80928309D01*
X178038095Y-80928309D02*
X177895238Y-80928309D01*
X177895238Y-80928309D02*
X177847619Y-80904500D01*
X177847619Y-80904500D02*
X177823809Y-80880690D01*
%TO.C,H2*%
X196469047Y-93551309D02*
X196469047Y-93051309D01*
X196469047Y-93289404D02*
X196754761Y-93289404D01*
X196754761Y-93551309D02*
X196754761Y-93051309D01*
X196969048Y-93098928D02*
X196992857Y-93075119D01*
X196992857Y-93075119D02*
X197040476Y-93051309D01*
X197040476Y-93051309D02*
X197159524Y-93051309D01*
X197159524Y-93051309D02*
X197207143Y-93075119D01*
X197207143Y-93075119D02*
X197230952Y-93098928D01*
X197230952Y-93098928D02*
X197254762Y-93146547D01*
X197254762Y-93146547D02*
X197254762Y-93194166D01*
X197254762Y-93194166D02*
X197230952Y-93265595D01*
X197230952Y-93265595D02*
X196945238Y-93551309D01*
X196945238Y-93551309D02*
X197254762Y-93551309D01*
%TO.C,U5*%
X187579047Y-107300309D02*
X187579047Y-107705071D01*
X187579047Y-107705071D02*
X187602857Y-107752690D01*
X187602857Y-107752690D02*
X187626666Y-107776500D01*
X187626666Y-107776500D02*
X187674285Y-107800309D01*
X187674285Y-107800309D02*
X187769523Y-107800309D01*
X187769523Y-107800309D02*
X187817142Y-107776500D01*
X187817142Y-107776500D02*
X187840952Y-107752690D01*
X187840952Y-107752690D02*
X187864761Y-107705071D01*
X187864761Y-107705071D02*
X187864761Y-107300309D01*
X188340952Y-107300309D02*
X188102857Y-107300309D01*
X188102857Y-107300309D02*
X188079048Y-107538404D01*
X188079048Y-107538404D02*
X188102857Y-107514595D01*
X188102857Y-107514595D02*
X188150476Y-107490785D01*
X188150476Y-107490785D02*
X188269524Y-107490785D01*
X188269524Y-107490785D02*
X188317143Y-107514595D01*
X188317143Y-107514595D02*
X188340952Y-107538404D01*
X188340952Y-107538404D02*
X188364762Y-107586023D01*
X188364762Y-107586023D02*
X188364762Y-107705071D01*
X188364762Y-107705071D02*
X188340952Y-107752690D01*
X188340952Y-107752690D02*
X188317143Y-107776500D01*
X188317143Y-107776500D02*
X188269524Y-107800309D01*
X188269524Y-107800309D02*
X188150476Y-107800309D01*
X188150476Y-107800309D02*
X188102857Y-107776500D01*
X188102857Y-107776500D02*
X188079048Y-107752690D01*
%TO.C,C10*%
X180523690Y-95063428D02*
X180547500Y-95087237D01*
X180547500Y-95087237D02*
X180571309Y-95158666D01*
X180571309Y-95158666D02*
X180571309Y-95206285D01*
X180571309Y-95206285D02*
X180547500Y-95277713D01*
X180547500Y-95277713D02*
X180499880Y-95325332D01*
X180499880Y-95325332D02*
X180452261Y-95349142D01*
X180452261Y-95349142D02*
X180357023Y-95372951D01*
X180357023Y-95372951D02*
X180285595Y-95372951D01*
X180285595Y-95372951D02*
X180190357Y-95349142D01*
X180190357Y-95349142D02*
X180142738Y-95325332D01*
X180142738Y-95325332D02*
X180095119Y-95277713D01*
X180095119Y-95277713D02*
X180071309Y-95206285D01*
X180071309Y-95206285D02*
X180071309Y-95158666D01*
X180071309Y-95158666D02*
X180095119Y-95087237D01*
X180095119Y-95087237D02*
X180118928Y-95063428D01*
X180571309Y-94587237D02*
X180571309Y-94872951D01*
X180571309Y-94730094D02*
X180071309Y-94730094D01*
X180071309Y-94730094D02*
X180142738Y-94777713D01*
X180142738Y-94777713D02*
X180190357Y-94825332D01*
X180190357Y-94825332D02*
X180214166Y-94872951D01*
X180071309Y-94277714D02*
X180071309Y-94230095D01*
X180071309Y-94230095D02*
X180095119Y-94182476D01*
X180095119Y-94182476D02*
X180118928Y-94158666D01*
X180118928Y-94158666D02*
X180166547Y-94134857D01*
X180166547Y-94134857D02*
X180261785Y-94111047D01*
X180261785Y-94111047D02*
X180380833Y-94111047D01*
X180380833Y-94111047D02*
X180476071Y-94134857D01*
X180476071Y-94134857D02*
X180523690Y-94158666D01*
X180523690Y-94158666D02*
X180547500Y-94182476D01*
X180547500Y-94182476D02*
X180571309Y-94230095D01*
X180571309Y-94230095D02*
X180571309Y-94277714D01*
X180571309Y-94277714D02*
X180547500Y-94325333D01*
X180547500Y-94325333D02*
X180523690Y-94349142D01*
X180523690Y-94349142D02*
X180476071Y-94372952D01*
X180476071Y-94372952D02*
X180380833Y-94396761D01*
X180380833Y-94396761D02*
X180261785Y-94396761D01*
X180261785Y-94396761D02*
X180166547Y-94372952D01*
X180166547Y-94372952D02*
X180118928Y-94349142D01*
X180118928Y-94349142D02*
X180095119Y-94325333D01*
X180095119Y-94325333D02*
X180071309Y-94277714D01*
%TO.C,C11*%
X181539690Y-95063428D02*
X181563500Y-95087237D01*
X181563500Y-95087237D02*
X181587309Y-95158666D01*
X181587309Y-95158666D02*
X181587309Y-95206285D01*
X181587309Y-95206285D02*
X181563500Y-95277713D01*
X181563500Y-95277713D02*
X181515880Y-95325332D01*
X181515880Y-95325332D02*
X181468261Y-95349142D01*
X181468261Y-95349142D02*
X181373023Y-95372951D01*
X181373023Y-95372951D02*
X181301595Y-95372951D01*
X181301595Y-95372951D02*
X181206357Y-95349142D01*
X181206357Y-95349142D02*
X181158738Y-95325332D01*
X181158738Y-95325332D02*
X181111119Y-95277713D01*
X181111119Y-95277713D02*
X181087309Y-95206285D01*
X181087309Y-95206285D02*
X181087309Y-95158666D01*
X181087309Y-95158666D02*
X181111119Y-95087237D01*
X181111119Y-95087237D02*
X181134928Y-95063428D01*
X181587309Y-94587237D02*
X181587309Y-94872951D01*
X181587309Y-94730094D02*
X181087309Y-94730094D01*
X181087309Y-94730094D02*
X181158738Y-94777713D01*
X181158738Y-94777713D02*
X181206357Y-94825332D01*
X181206357Y-94825332D02*
X181230166Y-94872951D01*
X181587309Y-94111047D02*
X181587309Y-94396761D01*
X181587309Y-94253904D02*
X181087309Y-94253904D01*
X181087309Y-94253904D02*
X181158738Y-94301523D01*
X181158738Y-94301523D02*
X181206357Y-94349142D01*
X181206357Y-94349142D02*
X181230166Y-94396761D01*
%TO.C,D3*%
X167270952Y-82019309D02*
X167270952Y-81519309D01*
X167270952Y-81519309D02*
X167390000Y-81519309D01*
X167390000Y-81519309D02*
X167461428Y-81543119D01*
X167461428Y-81543119D02*
X167509047Y-81590738D01*
X167509047Y-81590738D02*
X167532857Y-81638357D01*
X167532857Y-81638357D02*
X167556666Y-81733595D01*
X167556666Y-81733595D02*
X167556666Y-81805023D01*
X167556666Y-81805023D02*
X167532857Y-81900261D01*
X167532857Y-81900261D02*
X167509047Y-81947880D01*
X167509047Y-81947880D02*
X167461428Y-81995500D01*
X167461428Y-81995500D02*
X167390000Y-82019309D01*
X167390000Y-82019309D02*
X167270952Y-82019309D01*
X167723333Y-81519309D02*
X168032857Y-81519309D01*
X168032857Y-81519309D02*
X167866190Y-81709785D01*
X167866190Y-81709785D02*
X167937619Y-81709785D01*
X167937619Y-81709785D02*
X167985238Y-81733595D01*
X167985238Y-81733595D02*
X168009047Y-81757404D01*
X168009047Y-81757404D02*
X168032857Y-81805023D01*
X168032857Y-81805023D02*
X168032857Y-81924071D01*
X168032857Y-81924071D02*
X168009047Y-81971690D01*
X168009047Y-81971690D02*
X167985238Y-81995500D01*
X167985238Y-81995500D02*
X167937619Y-82019309D01*
X167937619Y-82019309D02*
X167794762Y-82019309D01*
X167794762Y-82019309D02*
X167747143Y-81995500D01*
X167747143Y-81995500D02*
X167723333Y-81971690D01*
%TO.C,C17*%
X184107971Y-104857090D02*
X184084162Y-104880900D01*
X184084162Y-104880900D02*
X184012733Y-104904709D01*
X184012733Y-104904709D02*
X183965114Y-104904709D01*
X183965114Y-104904709D02*
X183893686Y-104880900D01*
X183893686Y-104880900D02*
X183846067Y-104833280D01*
X183846067Y-104833280D02*
X183822257Y-104785661D01*
X183822257Y-104785661D02*
X183798448Y-104690423D01*
X183798448Y-104690423D02*
X183798448Y-104618995D01*
X183798448Y-104618995D02*
X183822257Y-104523757D01*
X183822257Y-104523757D02*
X183846067Y-104476138D01*
X183846067Y-104476138D02*
X183893686Y-104428519D01*
X183893686Y-104428519D02*
X183965114Y-104404709D01*
X183965114Y-104404709D02*
X184012733Y-104404709D01*
X184012733Y-104404709D02*
X184084162Y-104428519D01*
X184084162Y-104428519D02*
X184107971Y-104452328D01*
X184584162Y-104904709D02*
X184298448Y-104904709D01*
X184441305Y-104904709D02*
X184441305Y-104404709D01*
X184441305Y-104404709D02*
X184393686Y-104476138D01*
X184393686Y-104476138D02*
X184346067Y-104523757D01*
X184346067Y-104523757D02*
X184298448Y-104547566D01*
X184750828Y-104404709D02*
X185084161Y-104404709D01*
X185084161Y-104404709D02*
X184869876Y-104904709D01*
%TO.C,C2*%
X175303666Y-107117690D02*
X175279857Y-107141500D01*
X175279857Y-107141500D02*
X175208428Y-107165309D01*
X175208428Y-107165309D02*
X175160809Y-107165309D01*
X175160809Y-107165309D02*
X175089381Y-107141500D01*
X175089381Y-107141500D02*
X175041762Y-107093880D01*
X175041762Y-107093880D02*
X175017952Y-107046261D01*
X175017952Y-107046261D02*
X174994143Y-106951023D01*
X174994143Y-106951023D02*
X174994143Y-106879595D01*
X174994143Y-106879595D02*
X175017952Y-106784357D01*
X175017952Y-106784357D02*
X175041762Y-106736738D01*
X175041762Y-106736738D02*
X175089381Y-106689119D01*
X175089381Y-106689119D02*
X175160809Y-106665309D01*
X175160809Y-106665309D02*
X175208428Y-106665309D01*
X175208428Y-106665309D02*
X175279857Y-106689119D01*
X175279857Y-106689119D02*
X175303666Y-106712928D01*
X175494143Y-106712928D02*
X175517952Y-106689119D01*
X175517952Y-106689119D02*
X175565571Y-106665309D01*
X175565571Y-106665309D02*
X175684619Y-106665309D01*
X175684619Y-106665309D02*
X175732238Y-106689119D01*
X175732238Y-106689119D02*
X175756047Y-106712928D01*
X175756047Y-106712928D02*
X175779857Y-106760547D01*
X175779857Y-106760547D02*
X175779857Y-106808166D01*
X175779857Y-106808166D02*
X175756047Y-106879595D01*
X175756047Y-106879595D02*
X175470333Y-107165309D01*
X175470333Y-107165309D02*
X175779857Y-107165309D01*
%TO.C,C19*%
X162746571Y-112324690D02*
X162722762Y-112348500D01*
X162722762Y-112348500D02*
X162651333Y-112372309D01*
X162651333Y-112372309D02*
X162603714Y-112372309D01*
X162603714Y-112372309D02*
X162532286Y-112348500D01*
X162532286Y-112348500D02*
X162484667Y-112300880D01*
X162484667Y-112300880D02*
X162460857Y-112253261D01*
X162460857Y-112253261D02*
X162437048Y-112158023D01*
X162437048Y-112158023D02*
X162437048Y-112086595D01*
X162437048Y-112086595D02*
X162460857Y-111991357D01*
X162460857Y-111991357D02*
X162484667Y-111943738D01*
X162484667Y-111943738D02*
X162532286Y-111896119D01*
X162532286Y-111896119D02*
X162603714Y-111872309D01*
X162603714Y-111872309D02*
X162651333Y-111872309D01*
X162651333Y-111872309D02*
X162722762Y-111896119D01*
X162722762Y-111896119D02*
X162746571Y-111919928D01*
X163222762Y-112372309D02*
X162937048Y-112372309D01*
X163079905Y-112372309D02*
X163079905Y-111872309D01*
X163079905Y-111872309D02*
X163032286Y-111943738D01*
X163032286Y-111943738D02*
X162984667Y-111991357D01*
X162984667Y-111991357D02*
X162937048Y-112015166D01*
X163460857Y-112372309D02*
X163556095Y-112372309D01*
X163556095Y-112372309D02*
X163603714Y-112348500D01*
X163603714Y-112348500D02*
X163627523Y-112324690D01*
X163627523Y-112324690D02*
X163675142Y-112253261D01*
X163675142Y-112253261D02*
X163698952Y-112158023D01*
X163698952Y-112158023D02*
X163698952Y-111967547D01*
X163698952Y-111967547D02*
X163675142Y-111919928D01*
X163675142Y-111919928D02*
X163651333Y-111896119D01*
X163651333Y-111896119D02*
X163603714Y-111872309D01*
X163603714Y-111872309D02*
X163508476Y-111872309D01*
X163508476Y-111872309D02*
X163460857Y-111896119D01*
X163460857Y-111896119D02*
X163437047Y-111919928D01*
X163437047Y-111919928D02*
X163413238Y-111967547D01*
X163413238Y-111967547D02*
X163413238Y-112086595D01*
X163413238Y-112086595D02*
X163437047Y-112134214D01*
X163437047Y-112134214D02*
X163460857Y-112158023D01*
X163460857Y-112158023D02*
X163508476Y-112181833D01*
X163508476Y-112181833D02*
X163603714Y-112181833D01*
X163603714Y-112181833D02*
X163651333Y-112158023D01*
X163651333Y-112158023D02*
X163675142Y-112134214D01*
X163675142Y-112134214D02*
X163698952Y-112086595D01*
%TO.C,IC1*%
X173120905Y-97351755D02*
X173120905Y-96851755D01*
X173644714Y-97304136D02*
X173620905Y-97327946D01*
X173620905Y-97327946D02*
X173549476Y-97351755D01*
X173549476Y-97351755D02*
X173501857Y-97351755D01*
X173501857Y-97351755D02*
X173430429Y-97327946D01*
X173430429Y-97327946D02*
X173382810Y-97280326D01*
X173382810Y-97280326D02*
X173359000Y-97232707D01*
X173359000Y-97232707D02*
X173335191Y-97137469D01*
X173335191Y-97137469D02*
X173335191Y-97066041D01*
X173335191Y-97066041D02*
X173359000Y-96970803D01*
X173359000Y-96970803D02*
X173382810Y-96923184D01*
X173382810Y-96923184D02*
X173430429Y-96875565D01*
X173430429Y-96875565D02*
X173501857Y-96851755D01*
X173501857Y-96851755D02*
X173549476Y-96851755D01*
X173549476Y-96851755D02*
X173620905Y-96875565D01*
X173620905Y-96875565D02*
X173644714Y-96899374D01*
X174120905Y-97351755D02*
X173835191Y-97351755D01*
X173978048Y-97351755D02*
X173978048Y-96851755D01*
X173978048Y-96851755D02*
X173930429Y-96923184D01*
X173930429Y-96923184D02*
X173882810Y-96970803D01*
X173882810Y-96970803D02*
X173835191Y-96994612D01*
%TO.C,R1*%
X172382666Y-91925309D02*
X172216000Y-91687214D01*
X172096952Y-91925309D02*
X172096952Y-91425309D01*
X172096952Y-91425309D02*
X172287428Y-91425309D01*
X172287428Y-91425309D02*
X172335047Y-91449119D01*
X172335047Y-91449119D02*
X172358857Y-91472928D01*
X172358857Y-91472928D02*
X172382666Y-91520547D01*
X172382666Y-91520547D02*
X172382666Y-91591976D01*
X172382666Y-91591976D02*
X172358857Y-91639595D01*
X172358857Y-91639595D02*
X172335047Y-91663404D01*
X172335047Y-91663404D02*
X172287428Y-91687214D01*
X172287428Y-91687214D02*
X172096952Y-91687214D01*
X172858857Y-91925309D02*
X172573143Y-91925309D01*
X172716000Y-91925309D02*
X172716000Y-91425309D01*
X172716000Y-91425309D02*
X172668381Y-91496738D01*
X172668381Y-91496738D02*
X172620762Y-91544357D01*
X172620762Y-91544357D02*
X172573143Y-91568166D01*
%TO.C,H4*%
X196469047Y-111331309D02*
X196469047Y-110831309D01*
X196469047Y-111069404D02*
X196754761Y-111069404D01*
X196754761Y-111331309D02*
X196754761Y-110831309D01*
X197207143Y-110997976D02*
X197207143Y-111331309D01*
X197088095Y-110807500D02*
X196969048Y-111164642D01*
X196969048Y-111164642D02*
X197278571Y-111164642D01*
%TO.C,C12*%
X182558571Y-98354690D02*
X182534762Y-98378500D01*
X182534762Y-98378500D02*
X182463333Y-98402309D01*
X182463333Y-98402309D02*
X182415714Y-98402309D01*
X182415714Y-98402309D02*
X182344286Y-98378500D01*
X182344286Y-98378500D02*
X182296667Y-98330880D01*
X182296667Y-98330880D02*
X182272857Y-98283261D01*
X182272857Y-98283261D02*
X182249048Y-98188023D01*
X182249048Y-98188023D02*
X182249048Y-98116595D01*
X182249048Y-98116595D02*
X182272857Y-98021357D01*
X182272857Y-98021357D02*
X182296667Y-97973738D01*
X182296667Y-97973738D02*
X182344286Y-97926119D01*
X182344286Y-97926119D02*
X182415714Y-97902309D01*
X182415714Y-97902309D02*
X182463333Y-97902309D01*
X182463333Y-97902309D02*
X182534762Y-97926119D01*
X182534762Y-97926119D02*
X182558571Y-97949928D01*
X183034762Y-98402309D02*
X182749048Y-98402309D01*
X182891905Y-98402309D02*
X182891905Y-97902309D01*
X182891905Y-97902309D02*
X182844286Y-97973738D01*
X182844286Y-97973738D02*
X182796667Y-98021357D01*
X182796667Y-98021357D02*
X182749048Y-98045166D01*
X183225238Y-97949928D02*
X183249047Y-97926119D01*
X183249047Y-97926119D02*
X183296666Y-97902309D01*
X183296666Y-97902309D02*
X183415714Y-97902309D01*
X183415714Y-97902309D02*
X183463333Y-97926119D01*
X183463333Y-97926119D02*
X183487142Y-97949928D01*
X183487142Y-97949928D02*
X183510952Y-97997547D01*
X183510952Y-97997547D02*
X183510952Y-98045166D01*
X183510952Y-98045166D02*
X183487142Y-98116595D01*
X183487142Y-98116595D02*
X183201428Y-98402309D01*
X183201428Y-98402309D02*
X183510952Y-98402309D01*
%TO.C,C15*%
X176586690Y-95190428D02*
X176610500Y-95214237D01*
X176610500Y-95214237D02*
X176634309Y-95285666D01*
X176634309Y-95285666D02*
X176634309Y-95333285D01*
X176634309Y-95333285D02*
X176610500Y-95404713D01*
X176610500Y-95404713D02*
X176562880Y-95452332D01*
X176562880Y-95452332D02*
X176515261Y-95476142D01*
X176515261Y-95476142D02*
X176420023Y-95499951D01*
X176420023Y-95499951D02*
X176348595Y-95499951D01*
X176348595Y-95499951D02*
X176253357Y-95476142D01*
X176253357Y-95476142D02*
X176205738Y-95452332D01*
X176205738Y-95452332D02*
X176158119Y-95404713D01*
X176158119Y-95404713D02*
X176134309Y-95333285D01*
X176134309Y-95333285D02*
X176134309Y-95285666D01*
X176134309Y-95285666D02*
X176158119Y-95214237D01*
X176158119Y-95214237D02*
X176181928Y-95190428D01*
X176634309Y-94714237D02*
X176634309Y-94999951D01*
X176634309Y-94857094D02*
X176134309Y-94857094D01*
X176134309Y-94857094D02*
X176205738Y-94904713D01*
X176205738Y-94904713D02*
X176253357Y-94952332D01*
X176253357Y-94952332D02*
X176277166Y-94999951D01*
X176134309Y-94261857D02*
X176134309Y-94499952D01*
X176134309Y-94499952D02*
X176372404Y-94523761D01*
X176372404Y-94523761D02*
X176348595Y-94499952D01*
X176348595Y-94499952D02*
X176324785Y-94452333D01*
X176324785Y-94452333D02*
X176324785Y-94333285D01*
X176324785Y-94333285D02*
X176348595Y-94285666D01*
X176348595Y-94285666D02*
X176372404Y-94261857D01*
X176372404Y-94261857D02*
X176420023Y-94238047D01*
X176420023Y-94238047D02*
X176539071Y-94238047D01*
X176539071Y-94238047D02*
X176586690Y-94261857D01*
X176586690Y-94261857D02*
X176610500Y-94285666D01*
X176610500Y-94285666D02*
X176634309Y-94333285D01*
X176634309Y-94333285D02*
X176634309Y-94452333D01*
X176634309Y-94452333D02*
X176610500Y-94499952D01*
X176610500Y-94499952D02*
X176586690Y-94523761D01*
%TO.C,C20*%
X171379690Y-98111428D02*
X171403500Y-98135237D01*
X171403500Y-98135237D02*
X171427309Y-98206666D01*
X171427309Y-98206666D02*
X171427309Y-98254285D01*
X171427309Y-98254285D02*
X171403500Y-98325713D01*
X171403500Y-98325713D02*
X171355880Y-98373332D01*
X171355880Y-98373332D02*
X171308261Y-98397142D01*
X171308261Y-98397142D02*
X171213023Y-98420951D01*
X171213023Y-98420951D02*
X171141595Y-98420951D01*
X171141595Y-98420951D02*
X171046357Y-98397142D01*
X171046357Y-98397142D02*
X170998738Y-98373332D01*
X170998738Y-98373332D02*
X170951119Y-98325713D01*
X170951119Y-98325713D02*
X170927309Y-98254285D01*
X170927309Y-98254285D02*
X170927309Y-98206666D01*
X170927309Y-98206666D02*
X170951119Y-98135237D01*
X170951119Y-98135237D02*
X170974928Y-98111428D01*
X170974928Y-97920951D02*
X170951119Y-97897142D01*
X170951119Y-97897142D02*
X170927309Y-97849523D01*
X170927309Y-97849523D02*
X170927309Y-97730475D01*
X170927309Y-97730475D02*
X170951119Y-97682856D01*
X170951119Y-97682856D02*
X170974928Y-97659047D01*
X170974928Y-97659047D02*
X171022547Y-97635237D01*
X171022547Y-97635237D02*
X171070166Y-97635237D01*
X171070166Y-97635237D02*
X171141595Y-97659047D01*
X171141595Y-97659047D02*
X171427309Y-97944761D01*
X171427309Y-97944761D02*
X171427309Y-97635237D01*
X170927309Y-97325714D02*
X170927309Y-97278095D01*
X170927309Y-97278095D02*
X170951119Y-97230476D01*
X170951119Y-97230476D02*
X170974928Y-97206666D01*
X170974928Y-97206666D02*
X171022547Y-97182857D01*
X171022547Y-97182857D02*
X171117785Y-97159047D01*
X171117785Y-97159047D02*
X171236833Y-97159047D01*
X171236833Y-97159047D02*
X171332071Y-97182857D01*
X171332071Y-97182857D02*
X171379690Y-97206666D01*
X171379690Y-97206666D02*
X171403500Y-97230476D01*
X171403500Y-97230476D02*
X171427309Y-97278095D01*
X171427309Y-97278095D02*
X171427309Y-97325714D01*
X171427309Y-97325714D02*
X171403500Y-97373333D01*
X171403500Y-97373333D02*
X171379690Y-97397142D01*
X171379690Y-97397142D02*
X171332071Y-97420952D01*
X171332071Y-97420952D02*
X171236833Y-97444761D01*
X171236833Y-97444761D02*
X171117785Y-97444761D01*
X171117785Y-97444761D02*
X171022547Y-97420952D01*
X171022547Y-97420952D02*
X170974928Y-97397142D01*
X170974928Y-97397142D02*
X170951119Y-97373333D01*
X170951119Y-97373333D02*
X170927309Y-97325714D01*
%TO.C,C16*%
X172378571Y-98583690D02*
X172354762Y-98607500D01*
X172354762Y-98607500D02*
X172283333Y-98631309D01*
X172283333Y-98631309D02*
X172235714Y-98631309D01*
X172235714Y-98631309D02*
X172164286Y-98607500D01*
X172164286Y-98607500D02*
X172116667Y-98559880D01*
X172116667Y-98559880D02*
X172092857Y-98512261D01*
X172092857Y-98512261D02*
X172069048Y-98417023D01*
X172069048Y-98417023D02*
X172069048Y-98345595D01*
X172069048Y-98345595D02*
X172092857Y-98250357D01*
X172092857Y-98250357D02*
X172116667Y-98202738D01*
X172116667Y-98202738D02*
X172164286Y-98155119D01*
X172164286Y-98155119D02*
X172235714Y-98131309D01*
X172235714Y-98131309D02*
X172283333Y-98131309D01*
X172283333Y-98131309D02*
X172354762Y-98155119D01*
X172354762Y-98155119D02*
X172378571Y-98178928D01*
X172854762Y-98631309D02*
X172569048Y-98631309D01*
X172711905Y-98631309D02*
X172711905Y-98131309D01*
X172711905Y-98131309D02*
X172664286Y-98202738D01*
X172664286Y-98202738D02*
X172616667Y-98250357D01*
X172616667Y-98250357D02*
X172569048Y-98274166D01*
X173283333Y-98131309D02*
X173188095Y-98131309D01*
X173188095Y-98131309D02*
X173140476Y-98155119D01*
X173140476Y-98155119D02*
X173116666Y-98178928D01*
X173116666Y-98178928D02*
X173069047Y-98250357D01*
X173069047Y-98250357D02*
X173045238Y-98345595D01*
X173045238Y-98345595D02*
X173045238Y-98536071D01*
X173045238Y-98536071D02*
X173069047Y-98583690D01*
X173069047Y-98583690D02*
X173092857Y-98607500D01*
X173092857Y-98607500D02*
X173140476Y-98631309D01*
X173140476Y-98631309D02*
X173235714Y-98631309D01*
X173235714Y-98631309D02*
X173283333Y-98607500D01*
X173283333Y-98607500D02*
X173307142Y-98583690D01*
X173307142Y-98583690D02*
X173330952Y-98536071D01*
X173330952Y-98536071D02*
X173330952Y-98417023D01*
X173330952Y-98417023D02*
X173307142Y-98369404D01*
X173307142Y-98369404D02*
X173283333Y-98345595D01*
X173283333Y-98345595D02*
X173235714Y-98321785D01*
X173235714Y-98321785D02*
X173140476Y-98321785D01*
X173140476Y-98321785D02*
X173092857Y-98345595D01*
X173092857Y-98345595D02*
X173069047Y-98369404D01*
X173069047Y-98369404D02*
X173045238Y-98417023D01*
%TO.C,C22*%
X187257571Y-102545690D02*
X187233762Y-102569500D01*
X187233762Y-102569500D02*
X187162333Y-102593309D01*
X187162333Y-102593309D02*
X187114714Y-102593309D01*
X187114714Y-102593309D02*
X187043286Y-102569500D01*
X187043286Y-102569500D02*
X186995667Y-102521880D01*
X186995667Y-102521880D02*
X186971857Y-102474261D01*
X186971857Y-102474261D02*
X186948048Y-102379023D01*
X186948048Y-102379023D02*
X186948048Y-102307595D01*
X186948048Y-102307595D02*
X186971857Y-102212357D01*
X186971857Y-102212357D02*
X186995667Y-102164738D01*
X186995667Y-102164738D02*
X187043286Y-102117119D01*
X187043286Y-102117119D02*
X187114714Y-102093309D01*
X187114714Y-102093309D02*
X187162333Y-102093309D01*
X187162333Y-102093309D02*
X187233762Y-102117119D01*
X187233762Y-102117119D02*
X187257571Y-102140928D01*
X187448048Y-102140928D02*
X187471857Y-102117119D01*
X187471857Y-102117119D02*
X187519476Y-102093309D01*
X187519476Y-102093309D02*
X187638524Y-102093309D01*
X187638524Y-102093309D02*
X187686143Y-102117119D01*
X187686143Y-102117119D02*
X187709952Y-102140928D01*
X187709952Y-102140928D02*
X187733762Y-102188547D01*
X187733762Y-102188547D02*
X187733762Y-102236166D01*
X187733762Y-102236166D02*
X187709952Y-102307595D01*
X187709952Y-102307595D02*
X187424238Y-102593309D01*
X187424238Y-102593309D02*
X187733762Y-102593309D01*
X187924238Y-102140928D02*
X187948047Y-102117119D01*
X187948047Y-102117119D02*
X187995666Y-102093309D01*
X187995666Y-102093309D02*
X188114714Y-102093309D01*
X188114714Y-102093309D02*
X188162333Y-102117119D01*
X188162333Y-102117119D02*
X188186142Y-102140928D01*
X188186142Y-102140928D02*
X188209952Y-102188547D01*
X188209952Y-102188547D02*
X188209952Y-102236166D01*
X188209952Y-102236166D02*
X188186142Y-102307595D01*
X188186142Y-102307595D02*
X187900428Y-102593309D01*
X187900428Y-102593309D02*
X188209952Y-102593309D01*
%TO.C,RLED1*%
X173078309Y-111505904D02*
X172840214Y-111672570D01*
X173078309Y-111791618D02*
X172578309Y-111791618D01*
X172578309Y-111791618D02*
X172578309Y-111601142D01*
X172578309Y-111601142D02*
X172602119Y-111553523D01*
X172602119Y-111553523D02*
X172625928Y-111529713D01*
X172625928Y-111529713D02*
X172673547Y-111505904D01*
X172673547Y-111505904D02*
X172744976Y-111505904D01*
X172744976Y-111505904D02*
X172792595Y-111529713D01*
X172792595Y-111529713D02*
X172816404Y-111553523D01*
X172816404Y-111553523D02*
X172840214Y-111601142D01*
X172840214Y-111601142D02*
X172840214Y-111791618D01*
X173078309Y-111053523D02*
X173078309Y-111291618D01*
X173078309Y-111291618D02*
X172578309Y-111291618D01*
X172816404Y-110886856D02*
X172816404Y-110720189D01*
X173078309Y-110648761D02*
X173078309Y-110886856D01*
X173078309Y-110886856D02*
X172578309Y-110886856D01*
X172578309Y-110886856D02*
X172578309Y-110648761D01*
X173078309Y-110434475D02*
X172578309Y-110434475D01*
X172578309Y-110434475D02*
X172578309Y-110315427D01*
X172578309Y-110315427D02*
X172602119Y-110243999D01*
X172602119Y-110243999D02*
X172649738Y-110196380D01*
X172649738Y-110196380D02*
X172697357Y-110172570D01*
X172697357Y-110172570D02*
X172792595Y-110148761D01*
X172792595Y-110148761D02*
X172864023Y-110148761D01*
X172864023Y-110148761D02*
X172959261Y-110172570D01*
X172959261Y-110172570D02*
X173006880Y-110196380D01*
X173006880Y-110196380D02*
X173054500Y-110243999D01*
X173054500Y-110243999D02*
X173078309Y-110315427D01*
X173078309Y-110315427D02*
X173078309Y-110434475D01*
X173078309Y-109672570D02*
X173078309Y-109958284D01*
X173078309Y-109815427D02*
X172578309Y-109815427D01*
X172578309Y-109815427D02*
X172649738Y-109863046D01*
X172649738Y-109863046D02*
X172697357Y-109910665D01*
X172697357Y-109910665D02*
X172721166Y-109958284D01*
%TO.C,C3*%
X181412690Y-109049333D02*
X181436500Y-109073142D01*
X181436500Y-109073142D02*
X181460309Y-109144571D01*
X181460309Y-109144571D02*
X181460309Y-109192190D01*
X181460309Y-109192190D02*
X181436500Y-109263618D01*
X181436500Y-109263618D02*
X181388880Y-109311237D01*
X181388880Y-109311237D02*
X181341261Y-109335047D01*
X181341261Y-109335047D02*
X181246023Y-109358856D01*
X181246023Y-109358856D02*
X181174595Y-109358856D01*
X181174595Y-109358856D02*
X181079357Y-109335047D01*
X181079357Y-109335047D02*
X181031738Y-109311237D01*
X181031738Y-109311237D02*
X180984119Y-109263618D01*
X180984119Y-109263618D02*
X180960309Y-109192190D01*
X180960309Y-109192190D02*
X180960309Y-109144571D01*
X180960309Y-109144571D02*
X180984119Y-109073142D01*
X180984119Y-109073142D02*
X181007928Y-109049333D01*
X180960309Y-108882666D02*
X180960309Y-108573142D01*
X180960309Y-108573142D02*
X181150785Y-108739809D01*
X181150785Y-108739809D02*
X181150785Y-108668380D01*
X181150785Y-108668380D02*
X181174595Y-108620761D01*
X181174595Y-108620761D02*
X181198404Y-108596952D01*
X181198404Y-108596952D02*
X181246023Y-108573142D01*
X181246023Y-108573142D02*
X181365071Y-108573142D01*
X181365071Y-108573142D02*
X181412690Y-108596952D01*
X181412690Y-108596952D02*
X181436500Y-108620761D01*
X181436500Y-108620761D02*
X181460309Y-108668380D01*
X181460309Y-108668380D02*
X181460309Y-108811237D01*
X181460309Y-108811237D02*
X181436500Y-108858856D01*
X181436500Y-108858856D02*
X181412690Y-108882666D01*
%TO.C,R8*%
X169080666Y-103482309D02*
X168914000Y-103244214D01*
X168794952Y-103482309D02*
X168794952Y-102982309D01*
X168794952Y-102982309D02*
X168985428Y-102982309D01*
X168985428Y-102982309D02*
X169033047Y-103006119D01*
X169033047Y-103006119D02*
X169056857Y-103029928D01*
X169056857Y-103029928D02*
X169080666Y-103077547D01*
X169080666Y-103077547D02*
X169080666Y-103148976D01*
X169080666Y-103148976D02*
X169056857Y-103196595D01*
X169056857Y-103196595D02*
X169033047Y-103220404D01*
X169033047Y-103220404D02*
X168985428Y-103244214D01*
X168985428Y-103244214D02*
X168794952Y-103244214D01*
X169366381Y-103196595D02*
X169318762Y-103172785D01*
X169318762Y-103172785D02*
X169294952Y-103148976D01*
X169294952Y-103148976D02*
X169271143Y-103101357D01*
X169271143Y-103101357D02*
X169271143Y-103077547D01*
X169271143Y-103077547D02*
X169294952Y-103029928D01*
X169294952Y-103029928D02*
X169318762Y-103006119D01*
X169318762Y-103006119D02*
X169366381Y-102982309D01*
X169366381Y-102982309D02*
X169461619Y-102982309D01*
X169461619Y-102982309D02*
X169509238Y-103006119D01*
X169509238Y-103006119D02*
X169533047Y-103029928D01*
X169533047Y-103029928D02*
X169556857Y-103077547D01*
X169556857Y-103077547D02*
X169556857Y-103101357D01*
X169556857Y-103101357D02*
X169533047Y-103148976D01*
X169533047Y-103148976D02*
X169509238Y-103172785D01*
X169509238Y-103172785D02*
X169461619Y-103196595D01*
X169461619Y-103196595D02*
X169366381Y-103196595D01*
X169366381Y-103196595D02*
X169318762Y-103220404D01*
X169318762Y-103220404D02*
X169294952Y-103244214D01*
X169294952Y-103244214D02*
X169271143Y-103291833D01*
X169271143Y-103291833D02*
X169271143Y-103387071D01*
X169271143Y-103387071D02*
X169294952Y-103434690D01*
X169294952Y-103434690D02*
X169318762Y-103458500D01*
X169318762Y-103458500D02*
X169366381Y-103482309D01*
X169366381Y-103482309D02*
X169461619Y-103482309D01*
X169461619Y-103482309D02*
X169509238Y-103458500D01*
X169509238Y-103458500D02*
X169533047Y-103434690D01*
X169533047Y-103434690D02*
X169556857Y-103387071D01*
X169556857Y-103387071D02*
X169556857Y-103291833D01*
X169556857Y-103291833D02*
X169533047Y-103244214D01*
X169533047Y-103244214D02*
X169509238Y-103220404D01*
X169509238Y-103220404D02*
X169461619Y-103196595D01*
%TO.C,C4*%
X183698690Y-94063333D02*
X183722500Y-94087142D01*
X183722500Y-94087142D02*
X183746309Y-94158571D01*
X183746309Y-94158571D02*
X183746309Y-94206190D01*
X183746309Y-94206190D02*
X183722500Y-94277618D01*
X183722500Y-94277618D02*
X183674880Y-94325237D01*
X183674880Y-94325237D02*
X183627261Y-94349047D01*
X183627261Y-94349047D02*
X183532023Y-94372856D01*
X183532023Y-94372856D02*
X183460595Y-94372856D01*
X183460595Y-94372856D02*
X183365357Y-94349047D01*
X183365357Y-94349047D02*
X183317738Y-94325237D01*
X183317738Y-94325237D02*
X183270119Y-94277618D01*
X183270119Y-94277618D02*
X183246309Y-94206190D01*
X183246309Y-94206190D02*
X183246309Y-94158571D01*
X183246309Y-94158571D02*
X183270119Y-94087142D01*
X183270119Y-94087142D02*
X183293928Y-94063333D01*
X183412976Y-93634761D02*
X183746309Y-93634761D01*
X183222500Y-93753809D02*
X183579642Y-93872856D01*
X183579642Y-93872856D02*
X183579642Y-93563333D01*
%TO.C,C1*%
X187822267Y-89972690D02*
X187798458Y-89996500D01*
X187798458Y-89996500D02*
X187727029Y-90020309D01*
X187727029Y-90020309D02*
X187679410Y-90020309D01*
X187679410Y-90020309D02*
X187607982Y-89996500D01*
X187607982Y-89996500D02*
X187560363Y-89948880D01*
X187560363Y-89948880D02*
X187536553Y-89901261D01*
X187536553Y-89901261D02*
X187512744Y-89806023D01*
X187512744Y-89806023D02*
X187512744Y-89734595D01*
X187512744Y-89734595D02*
X187536553Y-89639357D01*
X187536553Y-89639357D02*
X187560363Y-89591738D01*
X187560363Y-89591738D02*
X187607982Y-89544119D01*
X187607982Y-89544119D02*
X187679410Y-89520309D01*
X187679410Y-89520309D02*
X187727029Y-89520309D01*
X187727029Y-89520309D02*
X187798458Y-89544119D01*
X187798458Y-89544119D02*
X187822267Y-89567928D01*
X188298458Y-90020309D02*
X188012744Y-90020309D01*
X188155601Y-90020309D02*
X188155601Y-89520309D01*
X188155601Y-89520309D02*
X188107982Y-89591738D01*
X188107982Y-89591738D02*
X188060363Y-89639357D01*
X188060363Y-89639357D02*
X188012744Y-89663166D01*
%TO.C,C21*%
X169858571Y-107498690D02*
X169834762Y-107522500D01*
X169834762Y-107522500D02*
X169763333Y-107546309D01*
X169763333Y-107546309D02*
X169715714Y-107546309D01*
X169715714Y-107546309D02*
X169644286Y-107522500D01*
X169644286Y-107522500D02*
X169596667Y-107474880D01*
X169596667Y-107474880D02*
X169572857Y-107427261D01*
X169572857Y-107427261D02*
X169549048Y-107332023D01*
X169549048Y-107332023D02*
X169549048Y-107260595D01*
X169549048Y-107260595D02*
X169572857Y-107165357D01*
X169572857Y-107165357D02*
X169596667Y-107117738D01*
X169596667Y-107117738D02*
X169644286Y-107070119D01*
X169644286Y-107070119D02*
X169715714Y-107046309D01*
X169715714Y-107046309D02*
X169763333Y-107046309D01*
X169763333Y-107046309D02*
X169834762Y-107070119D01*
X169834762Y-107070119D02*
X169858571Y-107093928D01*
X170049048Y-107093928D02*
X170072857Y-107070119D01*
X170072857Y-107070119D02*
X170120476Y-107046309D01*
X170120476Y-107046309D02*
X170239524Y-107046309D01*
X170239524Y-107046309D02*
X170287143Y-107070119D01*
X170287143Y-107070119D02*
X170310952Y-107093928D01*
X170310952Y-107093928D02*
X170334762Y-107141547D01*
X170334762Y-107141547D02*
X170334762Y-107189166D01*
X170334762Y-107189166D02*
X170310952Y-107260595D01*
X170310952Y-107260595D02*
X170025238Y-107546309D01*
X170025238Y-107546309D02*
X170334762Y-107546309D01*
X170810952Y-107546309D02*
X170525238Y-107546309D01*
X170668095Y-107546309D02*
X170668095Y-107046309D01*
X170668095Y-107046309D02*
X170620476Y-107117738D01*
X170620476Y-107117738D02*
X170572857Y-107165357D01*
X170572857Y-107165357D02*
X170525238Y-107189166D01*
%TO.C,C24*%
X184717571Y-83749690D02*
X184693762Y-83773500D01*
X184693762Y-83773500D02*
X184622333Y-83797309D01*
X184622333Y-83797309D02*
X184574714Y-83797309D01*
X184574714Y-83797309D02*
X184503286Y-83773500D01*
X184503286Y-83773500D02*
X184455667Y-83725880D01*
X184455667Y-83725880D02*
X184431857Y-83678261D01*
X184431857Y-83678261D02*
X184408048Y-83583023D01*
X184408048Y-83583023D02*
X184408048Y-83511595D01*
X184408048Y-83511595D02*
X184431857Y-83416357D01*
X184431857Y-83416357D02*
X184455667Y-83368738D01*
X184455667Y-83368738D02*
X184503286Y-83321119D01*
X184503286Y-83321119D02*
X184574714Y-83297309D01*
X184574714Y-83297309D02*
X184622333Y-83297309D01*
X184622333Y-83297309D02*
X184693762Y-83321119D01*
X184693762Y-83321119D02*
X184717571Y-83344928D01*
X184908048Y-83344928D02*
X184931857Y-83321119D01*
X184931857Y-83321119D02*
X184979476Y-83297309D01*
X184979476Y-83297309D02*
X185098524Y-83297309D01*
X185098524Y-83297309D02*
X185146143Y-83321119D01*
X185146143Y-83321119D02*
X185169952Y-83344928D01*
X185169952Y-83344928D02*
X185193762Y-83392547D01*
X185193762Y-83392547D02*
X185193762Y-83440166D01*
X185193762Y-83440166D02*
X185169952Y-83511595D01*
X185169952Y-83511595D02*
X184884238Y-83797309D01*
X184884238Y-83797309D02*
X185193762Y-83797309D01*
X185622333Y-83463976D02*
X185622333Y-83797309D01*
X185503285Y-83273500D02*
X185384238Y-83630642D01*
X185384238Y-83630642D02*
X185693761Y-83630642D01*
%TO.C,D2*%
X167270952Y-97259309D02*
X167270952Y-96759309D01*
X167270952Y-96759309D02*
X167390000Y-96759309D01*
X167390000Y-96759309D02*
X167461428Y-96783119D01*
X167461428Y-96783119D02*
X167509047Y-96830738D01*
X167509047Y-96830738D02*
X167532857Y-96878357D01*
X167532857Y-96878357D02*
X167556666Y-96973595D01*
X167556666Y-96973595D02*
X167556666Y-97045023D01*
X167556666Y-97045023D02*
X167532857Y-97140261D01*
X167532857Y-97140261D02*
X167509047Y-97187880D01*
X167509047Y-97187880D02*
X167461428Y-97235500D01*
X167461428Y-97235500D02*
X167390000Y-97259309D01*
X167390000Y-97259309D02*
X167270952Y-97259309D01*
X167747143Y-96806928D02*
X167770952Y-96783119D01*
X167770952Y-96783119D02*
X167818571Y-96759309D01*
X167818571Y-96759309D02*
X167937619Y-96759309D01*
X167937619Y-96759309D02*
X167985238Y-96783119D01*
X167985238Y-96783119D02*
X168009047Y-96806928D01*
X168009047Y-96806928D02*
X168032857Y-96854547D01*
X168032857Y-96854547D02*
X168032857Y-96902166D01*
X168032857Y-96902166D02*
X168009047Y-96973595D01*
X168009047Y-96973595D02*
X167723333Y-97259309D01*
X167723333Y-97259309D02*
X168032857Y-97259309D01*
%TO.C,C5*%
X174287666Y-91496690D02*
X174263857Y-91520500D01*
X174263857Y-91520500D02*
X174192428Y-91544309D01*
X174192428Y-91544309D02*
X174144809Y-91544309D01*
X174144809Y-91544309D02*
X174073381Y-91520500D01*
X174073381Y-91520500D02*
X174025762Y-91472880D01*
X174025762Y-91472880D02*
X174001952Y-91425261D01*
X174001952Y-91425261D02*
X173978143Y-91330023D01*
X173978143Y-91330023D02*
X173978143Y-91258595D01*
X173978143Y-91258595D02*
X174001952Y-91163357D01*
X174001952Y-91163357D02*
X174025762Y-91115738D01*
X174025762Y-91115738D02*
X174073381Y-91068119D01*
X174073381Y-91068119D02*
X174144809Y-91044309D01*
X174144809Y-91044309D02*
X174192428Y-91044309D01*
X174192428Y-91044309D02*
X174263857Y-91068119D01*
X174263857Y-91068119D02*
X174287666Y-91091928D01*
X174740047Y-91044309D02*
X174501952Y-91044309D01*
X174501952Y-91044309D02*
X174478143Y-91282404D01*
X174478143Y-91282404D02*
X174501952Y-91258595D01*
X174501952Y-91258595D02*
X174549571Y-91234785D01*
X174549571Y-91234785D02*
X174668619Y-91234785D01*
X174668619Y-91234785D02*
X174716238Y-91258595D01*
X174716238Y-91258595D02*
X174740047Y-91282404D01*
X174740047Y-91282404D02*
X174763857Y-91330023D01*
X174763857Y-91330023D02*
X174763857Y-91449071D01*
X174763857Y-91449071D02*
X174740047Y-91496690D01*
X174740047Y-91496690D02*
X174716238Y-91520500D01*
X174716238Y-91520500D02*
X174668619Y-91544309D01*
X174668619Y-91544309D02*
X174549571Y-91544309D01*
X174549571Y-91544309D02*
X174501952Y-91520500D01*
X174501952Y-91520500D02*
X174478143Y-91496690D01*
%TO.C,R4*%
X179809309Y-91904333D02*
X179571214Y-92070999D01*
X179809309Y-92190047D02*
X179309309Y-92190047D01*
X179309309Y-92190047D02*
X179309309Y-91999571D01*
X179309309Y-91999571D02*
X179333119Y-91951952D01*
X179333119Y-91951952D02*
X179356928Y-91928142D01*
X179356928Y-91928142D02*
X179404547Y-91904333D01*
X179404547Y-91904333D02*
X179475976Y-91904333D01*
X179475976Y-91904333D02*
X179523595Y-91928142D01*
X179523595Y-91928142D02*
X179547404Y-91951952D01*
X179547404Y-91951952D02*
X179571214Y-91999571D01*
X179571214Y-91999571D02*
X179571214Y-92190047D01*
X179475976Y-91475761D02*
X179809309Y-91475761D01*
X179285500Y-91594809D02*
X179642642Y-91713856D01*
X179642642Y-91713856D02*
X179642642Y-91404333D01*
%TO.C,H3*%
X158369047Y-111331309D02*
X158369047Y-110831309D01*
X158369047Y-111069404D02*
X158654761Y-111069404D01*
X158654761Y-111331309D02*
X158654761Y-110831309D01*
X158845238Y-110831309D02*
X159154762Y-110831309D01*
X159154762Y-110831309D02*
X158988095Y-111021785D01*
X158988095Y-111021785D02*
X159059524Y-111021785D01*
X159059524Y-111021785D02*
X159107143Y-111045595D01*
X159107143Y-111045595D02*
X159130952Y-111069404D01*
X159130952Y-111069404D02*
X159154762Y-111117023D01*
X159154762Y-111117023D02*
X159154762Y-111236071D01*
X159154762Y-111236071D02*
X159130952Y-111283690D01*
X159130952Y-111283690D02*
X159107143Y-111307500D01*
X159107143Y-111307500D02*
X159059524Y-111331309D01*
X159059524Y-111331309D02*
X158916667Y-111331309D01*
X158916667Y-111331309D02*
X158869048Y-111307500D01*
X158869048Y-111307500D02*
X158845238Y-111283690D01*
%TO.C,D6*%
X187590952Y-97259309D02*
X187590952Y-96759309D01*
X187590952Y-96759309D02*
X187710000Y-96759309D01*
X187710000Y-96759309D02*
X187781428Y-96783119D01*
X187781428Y-96783119D02*
X187829047Y-96830738D01*
X187829047Y-96830738D02*
X187852857Y-96878357D01*
X187852857Y-96878357D02*
X187876666Y-96973595D01*
X187876666Y-96973595D02*
X187876666Y-97045023D01*
X187876666Y-97045023D02*
X187852857Y-97140261D01*
X187852857Y-97140261D02*
X187829047Y-97187880D01*
X187829047Y-97187880D02*
X187781428Y-97235500D01*
X187781428Y-97235500D02*
X187710000Y-97259309D01*
X187710000Y-97259309D02*
X187590952Y-97259309D01*
X188305238Y-96759309D02*
X188210000Y-96759309D01*
X188210000Y-96759309D02*
X188162381Y-96783119D01*
X188162381Y-96783119D02*
X188138571Y-96806928D01*
X188138571Y-96806928D02*
X188090952Y-96878357D01*
X188090952Y-96878357D02*
X188067143Y-96973595D01*
X188067143Y-96973595D02*
X188067143Y-97164071D01*
X188067143Y-97164071D02*
X188090952Y-97211690D01*
X188090952Y-97211690D02*
X188114762Y-97235500D01*
X188114762Y-97235500D02*
X188162381Y-97259309D01*
X188162381Y-97259309D02*
X188257619Y-97259309D01*
X188257619Y-97259309D02*
X188305238Y-97235500D01*
X188305238Y-97235500D02*
X188329047Y-97211690D01*
X188329047Y-97211690D02*
X188352857Y-97164071D01*
X188352857Y-97164071D02*
X188352857Y-97045023D01*
X188352857Y-97045023D02*
X188329047Y-96997404D01*
X188329047Y-96997404D02*
X188305238Y-96973595D01*
X188305238Y-96973595D02*
X188257619Y-96949785D01*
X188257619Y-96949785D02*
X188162381Y-96949785D01*
X188162381Y-96949785D02*
X188114762Y-96973595D01*
X188114762Y-96973595D02*
X188090952Y-96997404D01*
X188090952Y-96997404D02*
X188067143Y-97045023D01*
%TO.C,U3*%
X177419047Y-96511309D02*
X177419047Y-96916071D01*
X177419047Y-96916071D02*
X177442857Y-96963690D01*
X177442857Y-96963690D02*
X177466666Y-96987500D01*
X177466666Y-96987500D02*
X177514285Y-97011309D01*
X177514285Y-97011309D02*
X177609523Y-97011309D01*
X177609523Y-97011309D02*
X177657142Y-96987500D01*
X177657142Y-96987500D02*
X177680952Y-96963690D01*
X177680952Y-96963690D02*
X177704761Y-96916071D01*
X177704761Y-96916071D02*
X177704761Y-96511309D01*
X177895238Y-96511309D02*
X178204762Y-96511309D01*
X178204762Y-96511309D02*
X178038095Y-96701785D01*
X178038095Y-96701785D02*
X178109524Y-96701785D01*
X178109524Y-96701785D02*
X178157143Y-96725595D01*
X178157143Y-96725595D02*
X178180952Y-96749404D01*
X178180952Y-96749404D02*
X178204762Y-96797023D01*
X178204762Y-96797023D02*
X178204762Y-96916071D01*
X178204762Y-96916071D02*
X178180952Y-96963690D01*
X178180952Y-96963690D02*
X178157143Y-96987500D01*
X178157143Y-96987500D02*
X178109524Y-97011309D01*
X178109524Y-97011309D02*
X177966667Y-97011309D01*
X177966667Y-97011309D02*
X177919048Y-96987500D01*
X177919048Y-96987500D02*
X177895238Y-96963690D01*
%TO.C,U6*%
X187579047Y-95870309D02*
X187579047Y-96275071D01*
X187579047Y-96275071D02*
X187602857Y-96322690D01*
X187602857Y-96322690D02*
X187626666Y-96346500D01*
X187626666Y-96346500D02*
X187674285Y-96370309D01*
X187674285Y-96370309D02*
X187769523Y-96370309D01*
X187769523Y-96370309D02*
X187817142Y-96346500D01*
X187817142Y-96346500D02*
X187840952Y-96322690D01*
X187840952Y-96322690D02*
X187864761Y-96275071D01*
X187864761Y-96275071D02*
X187864761Y-95870309D01*
X188317143Y-95870309D02*
X188221905Y-95870309D01*
X188221905Y-95870309D02*
X188174286Y-95894119D01*
X188174286Y-95894119D02*
X188150476Y-95917928D01*
X188150476Y-95917928D02*
X188102857Y-95989357D01*
X188102857Y-95989357D02*
X188079048Y-96084595D01*
X188079048Y-96084595D02*
X188079048Y-96275071D01*
X188079048Y-96275071D02*
X188102857Y-96322690D01*
X188102857Y-96322690D02*
X188126667Y-96346500D01*
X188126667Y-96346500D02*
X188174286Y-96370309D01*
X188174286Y-96370309D02*
X188269524Y-96370309D01*
X188269524Y-96370309D02*
X188317143Y-96346500D01*
X188317143Y-96346500D02*
X188340952Y-96322690D01*
X188340952Y-96322690D02*
X188364762Y-96275071D01*
X188364762Y-96275071D02*
X188364762Y-96156023D01*
X188364762Y-96156023D02*
X188340952Y-96108404D01*
X188340952Y-96108404D02*
X188317143Y-96084595D01*
X188317143Y-96084595D02*
X188269524Y-96060785D01*
X188269524Y-96060785D02*
X188174286Y-96060785D01*
X188174286Y-96060785D02*
X188126667Y-96084595D01*
X188126667Y-96084595D02*
X188102857Y-96108404D01*
X188102857Y-96108404D02*
X188079048Y-96156023D01*
%TO.C,H1*%
X158369047Y-93551309D02*
X158369047Y-93051309D01*
X158369047Y-93289404D02*
X158654761Y-93289404D01*
X158654761Y-93551309D02*
X158654761Y-93051309D01*
X159154762Y-93551309D02*
X158869048Y-93551309D01*
X159011905Y-93551309D02*
X159011905Y-93051309D01*
X159011905Y-93051309D02*
X158964286Y-93122738D01*
X158964286Y-93122738D02*
X158916667Y-93170357D01*
X158916667Y-93170357D02*
X158869048Y-93194166D01*
%TO.C,D5*%
X187590952Y-82019309D02*
X187590952Y-81519309D01*
X187590952Y-81519309D02*
X187710000Y-81519309D01*
X187710000Y-81519309D02*
X187781428Y-81543119D01*
X187781428Y-81543119D02*
X187829047Y-81590738D01*
X187829047Y-81590738D02*
X187852857Y-81638357D01*
X187852857Y-81638357D02*
X187876666Y-81733595D01*
X187876666Y-81733595D02*
X187876666Y-81805023D01*
X187876666Y-81805023D02*
X187852857Y-81900261D01*
X187852857Y-81900261D02*
X187829047Y-81947880D01*
X187829047Y-81947880D02*
X187781428Y-81995500D01*
X187781428Y-81995500D02*
X187710000Y-82019309D01*
X187710000Y-82019309D02*
X187590952Y-82019309D01*
X188329047Y-81519309D02*
X188090952Y-81519309D01*
X188090952Y-81519309D02*
X188067143Y-81757404D01*
X188067143Y-81757404D02*
X188090952Y-81733595D01*
X188090952Y-81733595D02*
X188138571Y-81709785D01*
X188138571Y-81709785D02*
X188257619Y-81709785D01*
X188257619Y-81709785D02*
X188305238Y-81733595D01*
X188305238Y-81733595D02*
X188329047Y-81757404D01*
X188329047Y-81757404D02*
X188352857Y-81805023D01*
X188352857Y-81805023D02*
X188352857Y-81924071D01*
X188352857Y-81924071D02*
X188329047Y-81971690D01*
X188329047Y-81971690D02*
X188305238Y-81995500D01*
X188305238Y-81995500D02*
X188257619Y-82019309D01*
X188257619Y-82019309D02*
X188138571Y-82019309D01*
X188138571Y-82019309D02*
X188090952Y-81995500D01*
X188090952Y-81995500D02*
X188067143Y-81971690D01*
%TO.C,C7*%
X175570690Y-94952333D02*
X175594500Y-94976142D01*
X175594500Y-94976142D02*
X175618309Y-95047571D01*
X175618309Y-95047571D02*
X175618309Y-95095190D01*
X175618309Y-95095190D02*
X175594500Y-95166618D01*
X175594500Y-95166618D02*
X175546880Y-95214237D01*
X175546880Y-95214237D02*
X175499261Y-95238047D01*
X175499261Y-95238047D02*
X175404023Y-95261856D01*
X175404023Y-95261856D02*
X175332595Y-95261856D01*
X175332595Y-95261856D02*
X175237357Y-95238047D01*
X175237357Y-95238047D02*
X175189738Y-95214237D01*
X175189738Y-95214237D02*
X175142119Y-95166618D01*
X175142119Y-95166618D02*
X175118309Y-95095190D01*
X175118309Y-95095190D02*
X175118309Y-95047571D01*
X175118309Y-95047571D02*
X175142119Y-94976142D01*
X175142119Y-94976142D02*
X175165928Y-94952333D01*
X175118309Y-94785666D02*
X175118309Y-94452333D01*
X175118309Y-94452333D02*
X175618309Y-94666618D01*
%TO.C,SW1*%
X164097500Y-92716665D02*
X164121309Y-92645237D01*
X164121309Y-92645237D02*
X164121309Y-92526189D01*
X164121309Y-92526189D02*
X164097500Y-92478570D01*
X164097500Y-92478570D02*
X164073690Y-92454761D01*
X164073690Y-92454761D02*
X164026071Y-92430951D01*
X164026071Y-92430951D02*
X163978452Y-92430951D01*
X163978452Y-92430951D02*
X163930833Y-92454761D01*
X163930833Y-92454761D02*
X163907023Y-92478570D01*
X163907023Y-92478570D02*
X163883214Y-92526189D01*
X163883214Y-92526189D02*
X163859404Y-92621427D01*
X163859404Y-92621427D02*
X163835595Y-92669046D01*
X163835595Y-92669046D02*
X163811785Y-92692856D01*
X163811785Y-92692856D02*
X163764166Y-92716665D01*
X163764166Y-92716665D02*
X163716547Y-92716665D01*
X163716547Y-92716665D02*
X163668928Y-92692856D01*
X163668928Y-92692856D02*
X163645119Y-92669046D01*
X163645119Y-92669046D02*
X163621309Y-92621427D01*
X163621309Y-92621427D02*
X163621309Y-92502380D01*
X163621309Y-92502380D02*
X163645119Y-92430951D01*
X163621309Y-92264285D02*
X164121309Y-92145237D01*
X164121309Y-92145237D02*
X163764166Y-92049999D01*
X163764166Y-92049999D02*
X164121309Y-91954761D01*
X164121309Y-91954761D02*
X163621309Y-91835714D01*
X164121309Y-91383332D02*
X164121309Y-91669046D01*
X164121309Y-91526189D02*
X163621309Y-91526189D01*
X163621309Y-91526189D02*
X163692738Y-91573808D01*
X163692738Y-91573808D02*
X163740357Y-91621427D01*
X163740357Y-91621427D02*
X163764166Y-91669046D01*
%TO.C,R3*%
X178666309Y-91904333D02*
X178428214Y-92070999D01*
X178666309Y-92190047D02*
X178166309Y-92190047D01*
X178166309Y-92190047D02*
X178166309Y-91999571D01*
X178166309Y-91999571D02*
X178190119Y-91951952D01*
X178190119Y-91951952D02*
X178213928Y-91928142D01*
X178213928Y-91928142D02*
X178261547Y-91904333D01*
X178261547Y-91904333D02*
X178332976Y-91904333D01*
X178332976Y-91904333D02*
X178380595Y-91928142D01*
X178380595Y-91928142D02*
X178404404Y-91951952D01*
X178404404Y-91951952D02*
X178428214Y-91999571D01*
X178428214Y-91999571D02*
X178428214Y-92190047D01*
X178166309Y-91737666D02*
X178166309Y-91428142D01*
X178166309Y-91428142D02*
X178356785Y-91594809D01*
X178356785Y-91594809D02*
X178356785Y-91523380D01*
X178356785Y-91523380D02*
X178380595Y-91475761D01*
X178380595Y-91475761D02*
X178404404Y-91451952D01*
X178404404Y-91451952D02*
X178452023Y-91428142D01*
X178452023Y-91428142D02*
X178571071Y-91428142D01*
X178571071Y-91428142D02*
X178618690Y-91451952D01*
X178618690Y-91451952D02*
X178642500Y-91475761D01*
X178642500Y-91475761D02*
X178666309Y-91523380D01*
X178666309Y-91523380D02*
X178666309Y-91666237D01*
X178666309Y-91666237D02*
X178642500Y-91713856D01*
X178642500Y-91713856D02*
X178618690Y-91737666D01*
%TO.C,RLED2*%
X182984309Y-109981904D02*
X182746214Y-110148570D01*
X182984309Y-110267618D02*
X182484309Y-110267618D01*
X182484309Y-110267618D02*
X182484309Y-110077142D01*
X182484309Y-110077142D02*
X182508119Y-110029523D01*
X182508119Y-110029523D02*
X182531928Y-110005713D01*
X182531928Y-110005713D02*
X182579547Y-109981904D01*
X182579547Y-109981904D02*
X182650976Y-109981904D01*
X182650976Y-109981904D02*
X182698595Y-110005713D01*
X182698595Y-110005713D02*
X182722404Y-110029523D01*
X182722404Y-110029523D02*
X182746214Y-110077142D01*
X182746214Y-110077142D02*
X182746214Y-110267618D01*
X182984309Y-109529523D02*
X182984309Y-109767618D01*
X182984309Y-109767618D02*
X182484309Y-109767618D01*
X182722404Y-109362856D02*
X182722404Y-109196189D01*
X182984309Y-109124761D02*
X182984309Y-109362856D01*
X182984309Y-109362856D02*
X182484309Y-109362856D01*
X182484309Y-109362856D02*
X182484309Y-109124761D01*
X182984309Y-108910475D02*
X182484309Y-108910475D01*
X182484309Y-108910475D02*
X182484309Y-108791427D01*
X182484309Y-108791427D02*
X182508119Y-108719999D01*
X182508119Y-108719999D02*
X182555738Y-108672380D01*
X182555738Y-108672380D02*
X182603357Y-108648570D01*
X182603357Y-108648570D02*
X182698595Y-108624761D01*
X182698595Y-108624761D02*
X182770023Y-108624761D01*
X182770023Y-108624761D02*
X182865261Y-108648570D01*
X182865261Y-108648570D02*
X182912880Y-108672380D01*
X182912880Y-108672380D02*
X182960500Y-108719999D01*
X182960500Y-108719999D02*
X182984309Y-108791427D01*
X182984309Y-108791427D02*
X182984309Y-108910475D01*
X182531928Y-108434284D02*
X182508119Y-108410475D01*
X182508119Y-108410475D02*
X182484309Y-108362856D01*
X182484309Y-108362856D02*
X182484309Y-108243808D01*
X182484309Y-108243808D02*
X182508119Y-108196189D01*
X182508119Y-108196189D02*
X182531928Y-108172380D01*
X182531928Y-108172380D02*
X182579547Y-108148570D01*
X182579547Y-108148570D02*
X182627166Y-108148570D01*
X182627166Y-108148570D02*
X182698595Y-108172380D01*
X182698595Y-108172380D02*
X182984309Y-108458094D01*
X182984309Y-108458094D02*
X182984309Y-108148570D01*
%TO.C,C13*%
X183698690Y-102921428D02*
X183722500Y-102945237D01*
X183722500Y-102945237D02*
X183746309Y-103016666D01*
X183746309Y-103016666D02*
X183746309Y-103064285D01*
X183746309Y-103064285D02*
X183722500Y-103135713D01*
X183722500Y-103135713D02*
X183674880Y-103183332D01*
X183674880Y-103183332D02*
X183627261Y-103207142D01*
X183627261Y-103207142D02*
X183532023Y-103230951D01*
X183532023Y-103230951D02*
X183460595Y-103230951D01*
X183460595Y-103230951D02*
X183365357Y-103207142D01*
X183365357Y-103207142D02*
X183317738Y-103183332D01*
X183317738Y-103183332D02*
X183270119Y-103135713D01*
X183270119Y-103135713D02*
X183246309Y-103064285D01*
X183246309Y-103064285D02*
X183246309Y-103016666D01*
X183246309Y-103016666D02*
X183270119Y-102945237D01*
X183270119Y-102945237D02*
X183293928Y-102921428D01*
X183746309Y-102445237D02*
X183746309Y-102730951D01*
X183746309Y-102588094D02*
X183246309Y-102588094D01*
X183246309Y-102588094D02*
X183317738Y-102635713D01*
X183317738Y-102635713D02*
X183365357Y-102683332D01*
X183365357Y-102683332D02*
X183389166Y-102730951D01*
X183246309Y-102278571D02*
X183246309Y-101969047D01*
X183246309Y-101969047D02*
X183436785Y-102135714D01*
X183436785Y-102135714D02*
X183436785Y-102064285D01*
X183436785Y-102064285D02*
X183460595Y-102016666D01*
X183460595Y-102016666D02*
X183484404Y-101992857D01*
X183484404Y-101992857D02*
X183532023Y-101969047D01*
X183532023Y-101969047D02*
X183651071Y-101969047D01*
X183651071Y-101969047D02*
X183698690Y-101992857D01*
X183698690Y-101992857D02*
X183722500Y-102016666D01*
X183722500Y-102016666D02*
X183746309Y-102064285D01*
X183746309Y-102064285D02*
X183746309Y-102207142D01*
X183746309Y-102207142D02*
X183722500Y-102254761D01*
X183722500Y-102254761D02*
X183698690Y-102278571D01*
%TO.C,R7*%
X185336666Y-107442709D02*
X185170000Y-107204614D01*
X185050952Y-107442709D02*
X185050952Y-106942709D01*
X185050952Y-106942709D02*
X185241428Y-106942709D01*
X185241428Y-106942709D02*
X185289047Y-106966519D01*
X185289047Y-106966519D02*
X185312857Y-106990328D01*
X185312857Y-106990328D02*
X185336666Y-107037947D01*
X185336666Y-107037947D02*
X185336666Y-107109376D01*
X185336666Y-107109376D02*
X185312857Y-107156995D01*
X185312857Y-107156995D02*
X185289047Y-107180804D01*
X185289047Y-107180804D02*
X185241428Y-107204614D01*
X185241428Y-107204614D02*
X185050952Y-107204614D01*
X185503333Y-106942709D02*
X185836666Y-106942709D01*
X185836666Y-106942709D02*
X185622381Y-107442709D01*
%TO.C,R5*%
X178732666Y-106403309D02*
X178566000Y-106165214D01*
X178446952Y-106403309D02*
X178446952Y-105903309D01*
X178446952Y-105903309D02*
X178637428Y-105903309D01*
X178637428Y-105903309D02*
X178685047Y-105927119D01*
X178685047Y-105927119D02*
X178708857Y-105950928D01*
X178708857Y-105950928D02*
X178732666Y-105998547D01*
X178732666Y-105998547D02*
X178732666Y-106069976D01*
X178732666Y-106069976D02*
X178708857Y-106117595D01*
X178708857Y-106117595D02*
X178685047Y-106141404D01*
X178685047Y-106141404D02*
X178637428Y-106165214D01*
X178637428Y-106165214D02*
X178446952Y-106165214D01*
X179185047Y-105903309D02*
X178946952Y-105903309D01*
X178946952Y-105903309D02*
X178923143Y-106141404D01*
X178923143Y-106141404D02*
X178946952Y-106117595D01*
X178946952Y-106117595D02*
X178994571Y-106093785D01*
X178994571Y-106093785D02*
X179113619Y-106093785D01*
X179113619Y-106093785D02*
X179161238Y-106117595D01*
X179161238Y-106117595D02*
X179185047Y-106141404D01*
X179185047Y-106141404D02*
X179208857Y-106189023D01*
X179208857Y-106189023D02*
X179208857Y-106308071D01*
X179208857Y-106308071D02*
X179185047Y-106355690D01*
X179185047Y-106355690D02*
X179161238Y-106379500D01*
X179161238Y-106379500D02*
X179113619Y-106403309D01*
X179113619Y-106403309D02*
X178994571Y-106403309D01*
X178994571Y-106403309D02*
X178946952Y-106379500D01*
X178946952Y-106379500D02*
X178923143Y-106355690D01*
%TO.C,R2*%
X180002666Y-86972309D02*
X179836000Y-86734214D01*
X179716952Y-86972309D02*
X179716952Y-86472309D01*
X179716952Y-86472309D02*
X179907428Y-86472309D01*
X179907428Y-86472309D02*
X179955047Y-86496119D01*
X179955047Y-86496119D02*
X179978857Y-86519928D01*
X179978857Y-86519928D02*
X180002666Y-86567547D01*
X180002666Y-86567547D02*
X180002666Y-86638976D01*
X180002666Y-86638976D02*
X179978857Y-86686595D01*
X179978857Y-86686595D02*
X179955047Y-86710404D01*
X179955047Y-86710404D02*
X179907428Y-86734214D01*
X179907428Y-86734214D02*
X179716952Y-86734214D01*
X180193143Y-86519928D02*
X180216952Y-86496119D01*
X180216952Y-86496119D02*
X180264571Y-86472309D01*
X180264571Y-86472309D02*
X180383619Y-86472309D01*
X180383619Y-86472309D02*
X180431238Y-86496119D01*
X180431238Y-86496119D02*
X180455047Y-86519928D01*
X180455047Y-86519928D02*
X180478857Y-86567547D01*
X180478857Y-86567547D02*
X180478857Y-86615166D01*
X180478857Y-86615166D02*
X180455047Y-86686595D01*
X180455047Y-86686595D02*
X180169333Y-86972309D01*
X180169333Y-86972309D02*
X180478857Y-86972309D01*
%TO.C,C18*%
X170874571Y-102926690D02*
X170850762Y-102950500D01*
X170850762Y-102950500D02*
X170779333Y-102974309D01*
X170779333Y-102974309D02*
X170731714Y-102974309D01*
X170731714Y-102974309D02*
X170660286Y-102950500D01*
X170660286Y-102950500D02*
X170612667Y-102902880D01*
X170612667Y-102902880D02*
X170588857Y-102855261D01*
X170588857Y-102855261D02*
X170565048Y-102760023D01*
X170565048Y-102760023D02*
X170565048Y-102688595D01*
X170565048Y-102688595D02*
X170588857Y-102593357D01*
X170588857Y-102593357D02*
X170612667Y-102545738D01*
X170612667Y-102545738D02*
X170660286Y-102498119D01*
X170660286Y-102498119D02*
X170731714Y-102474309D01*
X170731714Y-102474309D02*
X170779333Y-102474309D01*
X170779333Y-102474309D02*
X170850762Y-102498119D01*
X170850762Y-102498119D02*
X170874571Y-102521928D01*
X171350762Y-102974309D02*
X171065048Y-102974309D01*
X171207905Y-102974309D02*
X171207905Y-102474309D01*
X171207905Y-102474309D02*
X171160286Y-102545738D01*
X171160286Y-102545738D02*
X171112667Y-102593357D01*
X171112667Y-102593357D02*
X171065048Y-102617166D01*
X171636476Y-102688595D02*
X171588857Y-102664785D01*
X171588857Y-102664785D02*
X171565047Y-102640976D01*
X171565047Y-102640976D02*
X171541238Y-102593357D01*
X171541238Y-102593357D02*
X171541238Y-102569547D01*
X171541238Y-102569547D02*
X171565047Y-102521928D01*
X171565047Y-102521928D02*
X171588857Y-102498119D01*
X171588857Y-102498119D02*
X171636476Y-102474309D01*
X171636476Y-102474309D02*
X171731714Y-102474309D01*
X171731714Y-102474309D02*
X171779333Y-102498119D01*
X171779333Y-102498119D02*
X171803142Y-102521928D01*
X171803142Y-102521928D02*
X171826952Y-102569547D01*
X171826952Y-102569547D02*
X171826952Y-102593357D01*
X171826952Y-102593357D02*
X171803142Y-102640976D01*
X171803142Y-102640976D02*
X171779333Y-102664785D01*
X171779333Y-102664785D02*
X171731714Y-102688595D01*
X171731714Y-102688595D02*
X171636476Y-102688595D01*
X171636476Y-102688595D02*
X171588857Y-102712404D01*
X171588857Y-102712404D02*
X171565047Y-102736214D01*
X171565047Y-102736214D02*
X171541238Y-102783833D01*
X171541238Y-102783833D02*
X171541238Y-102879071D01*
X171541238Y-102879071D02*
X171565047Y-102926690D01*
X171565047Y-102926690D02*
X171588857Y-102950500D01*
X171588857Y-102950500D02*
X171636476Y-102974309D01*
X171636476Y-102974309D02*
X171731714Y-102974309D01*
X171731714Y-102974309D02*
X171779333Y-102950500D01*
X171779333Y-102950500D02*
X171803142Y-102926690D01*
X171803142Y-102926690D02*
X171826952Y-102879071D01*
X171826952Y-102879071D02*
X171826952Y-102783833D01*
X171826952Y-102783833D02*
X171803142Y-102736214D01*
X171803142Y-102736214D02*
X171779333Y-102712404D01*
X171779333Y-102712404D02*
X171731714Y-102688595D01*
%TO.C,U4*%
X167259047Y-107300309D02*
X167259047Y-107705071D01*
X167259047Y-107705071D02*
X167282857Y-107752690D01*
X167282857Y-107752690D02*
X167306666Y-107776500D01*
X167306666Y-107776500D02*
X167354285Y-107800309D01*
X167354285Y-107800309D02*
X167449523Y-107800309D01*
X167449523Y-107800309D02*
X167497142Y-107776500D01*
X167497142Y-107776500D02*
X167520952Y-107752690D01*
X167520952Y-107752690D02*
X167544761Y-107705071D01*
X167544761Y-107705071D02*
X167544761Y-107300309D01*
X167997143Y-107466976D02*
X167997143Y-107800309D01*
X167878095Y-107276500D02*
X167759048Y-107633642D01*
X167759048Y-107633642D02*
X168068571Y-107633642D01*
D11*
%TO.C,C8*%
X179472000Y-96500836D02*
X179472000Y-96285164D01*
X180192000Y-96500836D02*
X180192000Y-96285164D01*
%TO.C,C23*%
X170667000Y-83938164D02*
X170667000Y-84153836D01*
X169947000Y-83938164D02*
X169947000Y-84153836D01*
%TO.C,C9*%
X172741000Y-102215836D02*
X172741000Y-102000164D01*
X173461000Y-102215836D02*
X173461000Y-102000164D01*
%TO.C,C26*%
X184002000Y-111624164D02*
X184002000Y-111839836D01*
X183282000Y-111624164D02*
X183282000Y-111839836D01*
%TO.C,Y1*%
X179800000Y-110870000D02*
X179800000Y-107570000D01*
X179800000Y-107570000D02*
X175800000Y-107570000D01*
%TO.C,C25*%
X185653000Y-100956164D02*
X185653000Y-101171836D01*
X184933000Y-100956164D02*
X184933000Y-101171836D01*
%TO.C,C14*%
X177059000Y-93325836D02*
X177059000Y-93110164D01*
X177779000Y-93325836D02*
X177779000Y-93110164D01*
%TO.C,C6*%
X180740164Y-105939000D02*
X180955836Y-105939000D01*
X180740164Y-106659000D02*
X180955836Y-106659000D01*
%TO.C,R6*%
X175642000Y-87073641D02*
X175642000Y-86766359D01*
X176402000Y-87073641D02*
X176402000Y-86766359D01*
%TO.C,J3*%
X182500000Y-82545000D02*
X182500000Y-80545000D01*
X182500000Y-78645000D02*
X182500000Y-76745000D01*
X182500000Y-76745000D02*
X173100000Y-76745000D01*
X173100000Y-82545000D02*
X173100000Y-80545000D01*
X173100000Y-78645000D02*
X173100000Y-76745000D01*
%TO.C,U5*%
X187960000Y-103850000D02*
X186285000Y-103850000D01*
X187960000Y-103850000D02*
X188610000Y-103850000D01*
X187960000Y-106970000D02*
X187310000Y-106970000D01*
X187960000Y-106970000D02*
X188610000Y-106970000D01*
%TO.C,C10*%
X180488000Y-96500836D02*
X180488000Y-96285164D01*
X181208000Y-96500836D02*
X181208000Y-96285164D01*
%TO.C,C11*%
X181504000Y-96500836D02*
X181504000Y-96285164D01*
X182224000Y-96500836D02*
X182224000Y-96285164D01*
%TO.C,D3*%
X165640000Y-82505000D02*
X169640000Y-82505000D01*
X165640000Y-86405000D02*
X169640000Y-86392500D01*
X169640000Y-86392500D02*
X169640000Y-85317500D01*
%TO.C,C17*%
X184764000Y-105810164D02*
X184764000Y-106025836D01*
X184044000Y-105810164D02*
X184044000Y-106025836D01*
%TO.C,C2*%
X176891836Y-107294000D02*
X176676164Y-107294000D01*
X176891836Y-106574000D02*
X176676164Y-106574000D01*
%TO.C,C19*%
X162962000Y-110879836D02*
X162962000Y-110664164D01*
X163682000Y-110879836D02*
X163682000Y-110664164D01*
%TO.C,R1*%
X172619641Y-92963000D02*
X172312359Y-92963000D01*
X172619641Y-92203000D02*
X172312359Y-92203000D01*
%TO.C,C12*%
X182772164Y-98700000D02*
X182987836Y-98700000D01*
X182772164Y-99420000D02*
X182987836Y-99420000D01*
%TO.C,C15*%
X176043000Y-93325836D02*
X176043000Y-93110164D01*
X176763000Y-93325836D02*
X176763000Y-93110164D01*
%TO.C,C20*%
X169947000Y-98433836D02*
X169947000Y-98218164D01*
X170667000Y-98433836D02*
X170667000Y-98218164D01*
%TO.C,C16*%
X172827836Y-99547000D02*
X172612164Y-99547000D01*
X172827836Y-98827000D02*
X172612164Y-98827000D01*
%TO.C,C22*%
X187394964Y-102814800D02*
X187610636Y-102814800D01*
X187394964Y-103534800D02*
X187610636Y-103534800D01*
%TO.C,RLED1*%
X171578000Y-110895641D02*
X171578000Y-110588359D01*
X172338000Y-110895641D02*
X172338000Y-110588359D01*
%TO.C,C3*%
X180827000Y-108858164D02*
X180827000Y-109073836D01*
X180107000Y-108858164D02*
X180107000Y-109073836D01*
%TO.C,R8*%
X169800000Y-104164641D02*
X169800000Y-103857359D01*
X170560000Y-104164641D02*
X170560000Y-103857359D01*
%TO.C,C4*%
X184122602Y-94241249D02*
X184122602Y-93718745D01*
X185592602Y-94241249D02*
X185592602Y-93718745D01*
%TO.C,C1*%
X188166853Y-91920999D02*
X187644349Y-91920999D01*
X188166853Y-90450999D02*
X187644349Y-90450999D01*
%TO.C,C21*%
X170453164Y-106066000D02*
X170668836Y-106066000D01*
X170453164Y-106786000D02*
X170668836Y-106786000D01*
%TO.C,C24*%
X184933000Y-84971836D02*
X184933000Y-84756164D01*
X185653000Y-84971836D02*
X185653000Y-84756164D01*
%TO.C,R9*%
X172358164Y-93239000D02*
X172573836Y-93239000D01*
X172358164Y-93959000D02*
X172573836Y-93959000D01*
%TO.C,D2*%
X165640000Y-97745000D02*
X169640000Y-97745000D01*
X165640000Y-101645000D02*
X169640000Y-101632500D01*
X169640000Y-101632500D02*
X169640000Y-100557500D01*
%TO.C,C5*%
X174011000Y-93325836D02*
X174011000Y-93110164D01*
X174731000Y-93325836D02*
X174731000Y-93110164D01*
%TO.C,R4*%
X179958000Y-93064359D02*
X179958000Y-93371641D01*
X179198000Y-93064359D02*
X179198000Y-93371641D01*
%TO.C,D6*%
X189960000Y-101645000D02*
X185960000Y-101645000D01*
X189960000Y-97745000D02*
X185960000Y-97757500D01*
X185960000Y-97757500D02*
X185960000Y-98832500D01*
%TO.C,U3*%
X174190000Y-105210000D02*
X174190000Y-104560000D01*
X174840000Y-97990000D02*
X174190000Y-97990000D01*
X174840000Y-105210000D02*
X174190000Y-105210000D01*
X180760000Y-97990000D02*
X181410000Y-97990000D01*
X180760000Y-105210000D02*
X181410000Y-105210000D01*
X181410000Y-97990000D02*
X181410000Y-98640000D01*
X181410000Y-105210000D02*
X181410000Y-104560000D01*
%TO.C,U6*%
X187960000Y-95540000D02*
X189760000Y-95540000D01*
X187960000Y-95540000D02*
X187160000Y-95540000D01*
X187960000Y-92420000D02*
X188760000Y-92420000D01*
X187960000Y-92420000D02*
X187160000Y-92420000D01*
%TO.C,D5*%
X189960000Y-86405000D02*
X185960000Y-86405000D01*
X189960000Y-82505000D02*
X185960000Y-82517500D01*
X185960000Y-82517500D02*
X185960000Y-83592500D01*
%TO.C,C7*%
X175027000Y-93325836D02*
X175027000Y-93110164D01*
X175747000Y-93325836D02*
X175747000Y-93110164D01*
%TO.C,SW1*%
X166640000Y-94800000D02*
X168640000Y-94800000D01*
X165340000Y-93750000D02*
X164890000Y-93300000D01*
X169940000Y-93750000D02*
X170390000Y-93300000D01*
X164890000Y-93300000D02*
X164890000Y-90800000D01*
X170390000Y-93300000D02*
X170390000Y-90800000D01*
X165340000Y-90350000D02*
X164890000Y-90800000D01*
X169940000Y-90350000D02*
X170390000Y-90800000D01*
X166640000Y-89300000D02*
X168640000Y-89300000D01*
%TO.C,R3*%
X178815000Y-93064359D02*
X178815000Y-93371641D01*
X178055000Y-93064359D02*
X178055000Y-93371641D01*
%TO.C,RLED2*%
X184022000Y-109066359D02*
X184022000Y-109373641D01*
X183262000Y-109066359D02*
X183262000Y-109373641D01*
%TO.C,C13*%
X182139000Y-102215836D02*
X182139000Y-102000164D01*
X182859000Y-102215836D02*
X182859000Y-102000164D01*
%TO.C,R7*%
X185040000Y-106069641D02*
X185040000Y-105762359D01*
X185800000Y-106069641D02*
X185800000Y-105762359D01*
%TO.C,R5*%
X178662359Y-106554000D02*
X178969641Y-106554000D01*
X178662359Y-107314000D02*
X178969641Y-107314000D01*
%TO.C,R2*%
X178690000Y-87073641D02*
X178690000Y-86766359D01*
X179450000Y-87073641D02*
X179450000Y-86766359D01*
%TO.C,C18*%
X171556000Y-103905164D02*
X171556000Y-104120836D01*
X170836000Y-103905164D02*
X170836000Y-104120836D01*
%TO.C,U4*%
X167640000Y-106970000D02*
X169315000Y-106970000D01*
X167640000Y-106970000D02*
X166990000Y-106970000D01*
X167640000Y-103850000D02*
X168290000Y-103850000D01*
X167640000Y-103850000D02*
X166990000Y-103850000D01*
%TO.C,D4*%
D12*
X192160000Y-109490000D02*
X191260000Y-108590000D01*
X192160000Y-108590000D01*
X192160000Y-109490000D01*
G36*
X192160000Y-109490000D02*
G01*
X191260000Y-108590000D01*
X192160000Y-108590000D01*
X192160000Y-109490000D01*
G37*
%TO.C,D1*%
X171840000Y-109490000D02*
X170940000Y-108590000D01*
X171840000Y-108590000D01*
X171840000Y-109490000D01*
G36*
X171840000Y-109490000D02*
G01*
X170940000Y-108590000D01*
X171840000Y-108590000D01*
X171840000Y-109490000D01*
G37*
%TD*%
M02*
