%TF.GenerationSoftware,KiCad,Pcbnew,7.0.1*%
%TF.CreationDate,2023-05-11T20:00:56+01:00*%
%TF.ProjectId,MoonPad,4d6f6f6e-5061-4642-9e6b-696361645f70,rev?*%
%TF.SameCoordinates,Original*%
%TF.FileFunction,Legend,Bot*%
%TF.FilePolarity,Positive*%
%FSLAX46Y46*%
G04 Gerber Fmt 4.6, Leading zero omitted, Abs format (unit mm)*
G04 Created by KiCad (PCBNEW 7.0.1) date 2023-05-11 20:00:56*
%MOMM*%
%LPD*%
G01*
G04 APERTURE LIST*
%ADD10C,0.150000*%
%ADD11C,0.125000*%
%ADD12C,0.120000*%
G04 APERTURE END LIST*
D10*
X157480000Y-95250000D02*
X198120000Y-95250000D01*
X198120000Y-115570000D01*
X157480000Y-115570000D01*
X157480000Y-95250000D01*
D11*
%TO.C,X*%
X167806666Y-105141309D02*
X167473333Y-105641309D01*
X167473333Y-105141309D02*
X167806666Y-105641309D01*
%TO.C,Z*%
X188126666Y-105141309D02*
X187793333Y-105141309D01*
X187793333Y-105141309D02*
X188126666Y-105641309D01*
X188126666Y-105641309D02*
X187793333Y-105641309D01*
%TO.C,OLED*%
X160346190Y-91675309D02*
X160250952Y-91675309D01*
X160250952Y-91675309D02*
X160203333Y-91699119D01*
X160203333Y-91699119D02*
X160155714Y-91746738D01*
X160155714Y-91746738D02*
X160131904Y-91841976D01*
X160131904Y-91841976D02*
X160131904Y-92008642D01*
X160131904Y-92008642D02*
X160155714Y-92103880D01*
X160155714Y-92103880D02*
X160203333Y-92151500D01*
X160203333Y-92151500D02*
X160250952Y-92175309D01*
X160250952Y-92175309D02*
X160346190Y-92175309D01*
X160346190Y-92175309D02*
X160393809Y-92151500D01*
X160393809Y-92151500D02*
X160441428Y-92103880D01*
X160441428Y-92103880D02*
X160465237Y-92008642D01*
X160465237Y-92008642D02*
X160465237Y-91841976D01*
X160465237Y-91841976D02*
X160441428Y-91746738D01*
X160441428Y-91746738D02*
X160393809Y-91699119D01*
X160393809Y-91699119D02*
X160346190Y-91675309D01*
X159679523Y-92175309D02*
X159917618Y-92175309D01*
X159917618Y-92175309D02*
X159917618Y-91675309D01*
X159512856Y-91913404D02*
X159346189Y-91913404D01*
X159274761Y-92175309D02*
X159512856Y-92175309D01*
X159512856Y-92175309D02*
X159512856Y-91675309D01*
X159512856Y-91675309D02*
X159274761Y-91675309D01*
X159060475Y-92175309D02*
X159060475Y-91675309D01*
X159060475Y-91675309D02*
X158941427Y-91675309D01*
X158941427Y-91675309D02*
X158869999Y-91699119D01*
X158869999Y-91699119D02*
X158822380Y-91746738D01*
X158822380Y-91746738D02*
X158798570Y-91794357D01*
X158798570Y-91794357D02*
X158774761Y-91889595D01*
X158774761Y-91889595D02*
X158774761Y-91961023D01*
X158774761Y-91961023D02*
X158798570Y-92056261D01*
X158798570Y-92056261D02*
X158822380Y-92103880D01*
X158822380Y-92103880D02*
X158869999Y-92151500D01*
X158869999Y-92151500D02*
X158941427Y-92175309D01*
X158941427Y-92175309D02*
X159060475Y-92175309D01*
%TO.C,J1*%
X195238666Y-91679309D02*
X195238666Y-92036452D01*
X195238666Y-92036452D02*
X195262475Y-92107880D01*
X195262475Y-92107880D02*
X195310094Y-92155500D01*
X195310094Y-92155500D02*
X195381523Y-92179309D01*
X195381523Y-92179309D02*
X195429142Y-92179309D01*
X194738666Y-92179309D02*
X195024380Y-92179309D01*
X194881523Y-92179309D02*
X194881523Y-91679309D01*
X194881523Y-91679309D02*
X194929142Y-91750738D01*
X194929142Y-91750738D02*
X194976761Y-91798357D01*
X194976761Y-91798357D02*
X195024380Y-91822166D01*
D12*
%TO.C,X*%
X174625000Y-112395000D02*
X174625000Y-98425000D01*
X174625000Y-98425000D02*
X160655000Y-98425000D01*
X160655000Y-112395000D02*
X174625000Y-112395000D01*
X160655000Y-98425000D02*
X160655000Y-112395000D01*
%TO.C,Z*%
X194945000Y-112395000D02*
X194945000Y-98425000D01*
X194945000Y-98425000D02*
X180975000Y-98425000D01*
X180975000Y-112395000D02*
X194945000Y-112395000D01*
X180975000Y-98425000D02*
X180975000Y-112395000D01*
D10*
%TO.C,OLED*%
X158750000Y-79502000D02*
X196850000Y-79502000D01*
X158750000Y-91440000D02*
X158750000Y-79502000D01*
X193250000Y-79502000D02*
X193250000Y-91440000D01*
X196850000Y-91440000D02*
X158750000Y-91440000D01*
X196850000Y-91440000D02*
X196850000Y-79502000D01*
D12*
%TO.C,J1*%
X193742000Y-80321000D02*
X196402000Y-80321000D01*
X193742000Y-88001000D02*
X193742000Y-80321000D01*
X193742000Y-88001000D02*
X196402000Y-88001000D01*
X193742000Y-89271000D02*
X193742000Y-90601000D01*
X193742000Y-90601000D02*
X195072000Y-90601000D01*
X196402000Y-88001000D02*
X196402000Y-80321000D01*
%TD*%
M02*
