%TF.GenerationSoftware,KiCad,Pcbnew,7.0.1*%
%TF.CreationDate,2023-05-11T20:00:56+01:00*%
%TF.ProjectId,MoonPad,4d6f6f6e-5061-4642-9e6b-696361645f70,rev?*%
%TF.SameCoordinates,Original*%
%TF.FileFunction,Copper,L4,Bot*%
%TF.FilePolarity,Positive*%
%FSLAX46Y46*%
G04 Gerber Fmt 4.6, Leading zero omitted, Abs format (unit mm)*
G04 Created by KiCad (PCBNEW 7.0.1) date 2023-05-11 20:00:56*
%MOMM*%
%LPD*%
G01*
G04 APERTURE LIST*
%TA.AperFunction,ComponentPad*%
%ADD10O,1.000000X2.100000*%
%TD*%
%TA.AperFunction,ComponentPad*%
%ADD11O,1.000000X1.600000*%
%TD*%
%TA.AperFunction,ComponentPad*%
%ADD12C,0.600000*%
%TD*%
%TA.AperFunction,ComponentPad*%
%ADD13R,1.700000X1.700000*%
%TD*%
%TA.AperFunction,ComponentPad*%
%ADD14O,1.700000X1.700000*%
%TD*%
%TA.AperFunction,ViaPad*%
%ADD15C,0.700000*%
%TD*%
%TA.AperFunction,ViaPad*%
%ADD16C,0.500000*%
%TD*%
%TA.AperFunction,ViaPad*%
%ADD17C,0.450000*%
%TD*%
%TA.AperFunction,Conductor*%
%ADD18C,0.200000*%
%TD*%
G04 APERTURE END LIST*
D10*
%TO.P,J3,S1,SHIELD*%
%TO.N,GND*%
X182120000Y-83775000D03*
D11*
X182120000Y-79595000D03*
D10*
X173480000Y-83775000D03*
D11*
X173480000Y-79595000D03*
%TD*%
D12*
%TO.P,U3,57,GND*%
%TO.N,GND*%
X176525000Y-100325000D03*
X176525000Y-101600000D03*
X176525000Y-102875000D03*
X177800000Y-100325000D03*
X177800000Y-101600000D03*
X177800000Y-102875000D03*
X179075000Y-100325000D03*
X179075000Y-101600000D03*
X179075000Y-102875000D03*
%TD*%
D13*
%TO.P,J1,1,Pin_1*%
%TO.N,GND*%
X195072000Y-89271000D03*
D14*
%TO.P,J1,2,Pin_2*%
%TO.N,+3V3*%
X195072000Y-86731000D03*
%TO.P,J1,3,Pin_3*%
%TO.N,/OLED_SCL*%
X195072000Y-84191000D03*
%TO.P,J1,4,Pin_4*%
%TO.N,/OLED_SDA*%
X195072000Y-81651000D03*
%TD*%
D15*
%TO.N,VBUS*%
X171069000Y-83566000D03*
X175310800Y-85775800D03*
X175895000Y-83312000D03*
X188722000Y-92329000D03*
X182880000Y-111252000D03*
X190246000Y-94995996D03*
X185293001Y-99822001D03*
X171069000Y-98806000D03*
X180263800Y-85775800D03*
X190246000Y-92328997D03*
X184531000Y-85344000D03*
X162560000Y-111252000D03*
X179705000Y-83312000D03*
X190246001Y-90804999D03*
%TO.N,GND*%
X181864000Y-95123000D03*
X184658001Y-91820999D03*
X190246002Y-93979996D03*
X172466000Y-101600000D03*
X183642000Y-107950000D03*
X165481000Y-105410000D03*
X183134000Y-101628000D03*
X176022000Y-88315000D03*
X179070000Y-88315000D03*
X165368000Y-85330000D03*
X190232000Y-83580000D03*
X171196000Y-105283000D03*
X165771102Y-90272001D03*
X162560000Y-110363000D03*
X182245000Y-106807000D03*
X184657999Y-90804999D03*
X180213000Y-110363000D03*
X185674001Y-90804999D03*
X165368000Y-100570000D03*
X176437289Y-106070887D03*
X176403000Y-91948000D03*
X185673999Y-91820999D03*
X165771102Y-93827998D03*
X180848000Y-95123000D03*
X177419000Y-91948000D03*
X174371000Y-91948000D03*
X189260000Y-97947000D03*
X171069000Y-84455000D03*
X172212000Y-96870700D03*
X185293002Y-102362000D03*
X170240000Y-108894135D03*
X188671200Y-103174800D03*
X172240000Y-99921000D03*
X183360000Y-99794000D03*
X170213100Y-97075125D03*
X190560000Y-108894135D03*
X184404000Y-107188000D03*
X179832000Y-95123000D03*
X184531000Y-84455000D03*
X182880000Y-112103903D03*
X175387000Y-91948000D03*
X190119000Y-105410000D03*
X171069000Y-107188000D03*
%TO.N,+1V1*%
X177600000Y-95885000D03*
D16*
X179003371Y-98977451D03*
D15*
%TO.N,ADC_X*%
X182176900Y-99998100D03*
X171958000Y-103505000D03*
D17*
%TO.N,/OLED_SCL*%
X182245000Y-103505000D03*
%TO.N,/OLED_SDA*%
X182753000Y-104002018D03*
%TD*%
D18*
%TO.N,+1V1*%
X177971451Y-98977451D02*
X179003371Y-98977451D01*
X177600000Y-95885000D02*
X177600000Y-98606000D01*
X177600000Y-98606000D02*
X177971451Y-98977451D01*
%TO.N,ADC_X*%
X182176900Y-101795100D02*
X182176900Y-99998100D01*
X180467000Y-103505000D02*
X182176900Y-101795100D01*
X171958000Y-103505000D02*
X180467000Y-103505000D01*
%TO.N,/OLED_SCL*%
X182372000Y-103378000D02*
X185166000Y-103378000D01*
X196215000Y-92329000D02*
X196215000Y-85334000D01*
X182245000Y-103505000D02*
X182372000Y-103378000D01*
X196215000Y-85334000D02*
X195072000Y-84191000D01*
X185166000Y-103378000D02*
X196215000Y-92329000D01*
%TO.N,/OLED_SDA*%
X196596000Y-83175000D02*
X195072000Y-81651000D01*
X182753000Y-104002018D02*
X182996018Y-103759000D01*
X182996018Y-103759000D02*
X185293000Y-103759000D01*
X196596000Y-92456000D02*
X196596000Y-83175000D01*
X185293000Y-103759000D02*
X196596000Y-92456000D01*
%TD*%
%TA.AperFunction,Conductor*%
%TO.N,VBUS*%
G36*
X196852777Y-76700655D02*
G01*
X197143902Y-76717005D01*
X197154925Y-76718247D01*
X197439661Y-76766625D01*
X197450455Y-76769088D01*
X197727994Y-76849046D01*
X197738465Y-76852710D01*
X197861584Y-76903708D01*
X198005287Y-76963232D01*
X198015289Y-76968049D01*
X198268053Y-77107746D01*
X198277453Y-77113652D01*
X198512992Y-77280777D01*
X198521661Y-77287690D01*
X198737019Y-77480145D01*
X198744854Y-77487980D01*
X198937305Y-77703333D01*
X198944226Y-77712012D01*
X199111346Y-77947545D01*
X199117253Y-77956946D01*
X199256950Y-78209710D01*
X199261767Y-78219712D01*
X199372287Y-78486530D01*
X199375954Y-78497009D01*
X199455907Y-78774529D01*
X199458377Y-78785353D01*
X199506751Y-79070069D01*
X199507994Y-79081101D01*
X199524344Y-79372222D01*
X199524500Y-79377773D01*
X199524500Y-114297227D01*
X199524344Y-114302778D01*
X199507994Y-114593898D01*
X199506751Y-114604930D01*
X199458377Y-114889646D01*
X199455907Y-114900470D01*
X199375954Y-115177990D01*
X199372287Y-115188469D01*
X199261767Y-115455287D01*
X199256950Y-115465289D01*
X199117253Y-115718053D01*
X199111346Y-115727454D01*
X198944226Y-115962987D01*
X198937305Y-115971666D01*
X198744862Y-116187011D01*
X198737011Y-116194862D01*
X198521666Y-116387305D01*
X198512987Y-116394226D01*
X198277454Y-116561346D01*
X198268053Y-116567253D01*
X198015289Y-116706950D01*
X198005287Y-116711767D01*
X197738469Y-116822287D01*
X197727990Y-116825954D01*
X197450470Y-116905907D01*
X197439646Y-116908377D01*
X197154930Y-116956751D01*
X197143898Y-116957994D01*
X196852778Y-116974344D01*
X196847227Y-116974500D01*
X158752773Y-116974500D01*
X158747222Y-116974344D01*
X158456101Y-116957994D01*
X158445069Y-116956751D01*
X158160353Y-116908377D01*
X158149531Y-116905907D01*
X158079936Y-116885857D01*
X157872009Y-116825954D01*
X157861530Y-116822287D01*
X157594712Y-116711767D01*
X157584710Y-116706950D01*
X157331946Y-116567253D01*
X157322545Y-116561346D01*
X157087012Y-116394226D01*
X157078333Y-116387305D01*
X156862980Y-116194854D01*
X156855145Y-116187019D01*
X156662690Y-115971661D01*
X156655777Y-115962992D01*
X156488652Y-115727453D01*
X156482746Y-115718053D01*
X156343049Y-115465289D01*
X156338232Y-115455287D01*
X156227712Y-115188469D01*
X156224045Y-115177990D01*
X156222146Y-115171397D01*
X156144088Y-114900455D01*
X156141625Y-114889661D01*
X156093247Y-114604925D01*
X156092005Y-114593898D01*
X156085640Y-114480566D01*
X156075655Y-114302777D01*
X156075577Y-114300000D01*
X157394340Y-114300000D01*
X157414936Y-114535405D01*
X157476098Y-114763667D01*
X157575963Y-114977826D01*
X157575964Y-114977827D01*
X157575965Y-114977829D01*
X157711505Y-115171401D01*
X157878599Y-115338495D01*
X158072171Y-115474035D01*
X158072172Y-115474035D01*
X158072173Y-115474036D01*
X158286332Y-115573901D01*
X158286333Y-115573901D01*
X158286337Y-115573903D01*
X158514592Y-115635063D01*
X158585168Y-115641237D01*
X158691031Y-115650500D01*
X158691034Y-115650500D01*
X158808966Y-115650500D01*
X158808969Y-115650500D01*
X158897186Y-115642781D01*
X158985408Y-115635063D01*
X159213663Y-115573903D01*
X159427829Y-115474035D01*
X159621401Y-115338495D01*
X159788495Y-115171401D01*
X159924035Y-114977830D01*
X160023903Y-114763663D01*
X160085063Y-114535408D01*
X160105659Y-114300000D01*
X195494340Y-114300000D01*
X195514936Y-114535405D01*
X195576098Y-114763667D01*
X195675963Y-114977826D01*
X195675964Y-114977827D01*
X195675965Y-114977829D01*
X195811505Y-115171401D01*
X195978599Y-115338495D01*
X196172171Y-115474035D01*
X196172172Y-115474035D01*
X196172173Y-115474036D01*
X196386332Y-115573901D01*
X196386333Y-115573901D01*
X196386337Y-115573903D01*
X196614592Y-115635063D01*
X196685168Y-115641237D01*
X196791031Y-115650500D01*
X196791034Y-115650500D01*
X196908966Y-115650500D01*
X196908969Y-115650500D01*
X196997186Y-115642781D01*
X197085408Y-115635063D01*
X197313663Y-115573903D01*
X197527829Y-115474035D01*
X197721401Y-115338495D01*
X197888495Y-115171401D01*
X198024035Y-114977830D01*
X198123903Y-114763663D01*
X198185063Y-114535408D01*
X198205659Y-114300000D01*
X198185063Y-114064592D01*
X198123903Y-113836337D01*
X198024035Y-113622171D01*
X197888495Y-113428599D01*
X197721401Y-113261505D01*
X197527829Y-113125965D01*
X197527828Y-113125964D01*
X197527826Y-113125963D01*
X197313667Y-113026098D01*
X197085405Y-112964936D01*
X196908969Y-112949500D01*
X196908966Y-112949500D01*
X196791034Y-112949500D01*
X196791031Y-112949500D01*
X196614594Y-112964936D01*
X196386332Y-113026098D01*
X196172173Y-113125963D01*
X195978602Y-113261502D01*
X195811502Y-113428602D01*
X195675963Y-113622172D01*
X195576098Y-113836332D01*
X195514936Y-114064594D01*
X195494340Y-114300000D01*
X160105659Y-114300000D01*
X160085063Y-114064592D01*
X160023903Y-113836337D01*
X159924035Y-113622171D01*
X159788495Y-113428599D01*
X159621401Y-113261505D01*
X159427829Y-113125965D01*
X159427828Y-113125964D01*
X159427826Y-113125963D01*
X159213667Y-113026098D01*
X158985405Y-112964936D01*
X158808969Y-112949500D01*
X158808966Y-112949500D01*
X158691034Y-112949500D01*
X158691031Y-112949500D01*
X158514594Y-112964936D01*
X158286332Y-113026098D01*
X158072173Y-113125963D01*
X157878602Y-113261502D01*
X157711502Y-113428602D01*
X157575963Y-113622172D01*
X157476098Y-113836332D01*
X157414936Y-114064594D01*
X157394340Y-114300000D01*
X156075577Y-114300000D01*
X156075500Y-114297227D01*
X156075500Y-111633006D01*
X165336463Y-111633006D01*
X165354219Y-111814742D01*
X165404579Y-111990263D01*
X165485883Y-112153771D01*
X165595438Y-112299856D01*
X165729626Y-112423693D01*
X165729628Y-112423694D01*
X165729630Y-112423696D01*
X165884023Y-112521198D01*
X166053515Y-112589142D01*
X166232506Y-112625281D01*
X166354223Y-112627374D01*
X166415081Y-112628422D01*
X166415081Y-112628421D01*
X166415082Y-112628422D01*
X166595210Y-112598460D01*
X166766938Y-112536386D01*
X166774771Y-112531820D01*
X166777289Y-112530354D01*
X166777921Y-112530089D01*
X166822535Y-112504023D01*
X166872486Y-112490502D01*
X166911392Y-112490506D01*
X166911395Y-112490504D01*
X166924449Y-112490506D01*
X166924511Y-112490499D01*
X168355329Y-112490499D01*
X168355381Y-112490505D01*
X168368604Y-112490503D01*
X168368608Y-112490505D01*
X168407512Y-112490501D01*
X168457459Y-112504019D01*
X168491130Y-112523691D01*
X168491132Y-112523691D01*
X168501944Y-112530008D01*
X168502842Y-112530384D01*
X168513079Y-112536350D01*
X168684799Y-112598420D01*
X168864921Y-112628381D01*
X169047489Y-112625240D01*
X169226473Y-112589103D01*
X169395958Y-112521162D01*
X169550345Y-112423664D01*
X169684531Y-112299828D01*
X169794083Y-112153748D01*
X169818868Y-112103903D01*
X182324750Y-112103903D01*
X182343669Y-112247612D01*
X182382892Y-112342304D01*
X182399139Y-112381528D01*
X182431469Y-112423661D01*
X182487378Y-112496524D01*
X182531467Y-112530354D01*
X182602375Y-112584764D01*
X182697067Y-112623986D01*
X182736290Y-112640233D01*
X182753008Y-112642434D01*
X182880000Y-112659153D01*
X183023709Y-112640233D01*
X183157625Y-112584764D01*
X183272621Y-112496524D01*
X183360861Y-112381528D01*
X183416330Y-112247612D01*
X183435250Y-112103903D01*
X183416330Y-111960194D01*
X183360861Y-111826278D01*
X183310932Y-111761209D01*
X183272621Y-111711281D01*
X183207552Y-111661353D01*
X183170610Y-111633006D01*
X185656463Y-111633006D01*
X185674219Y-111814742D01*
X185724579Y-111990263D01*
X185805883Y-112153771D01*
X185915438Y-112299856D01*
X186049626Y-112423693D01*
X186049628Y-112423694D01*
X186049630Y-112423696D01*
X186204023Y-112521198D01*
X186373515Y-112589142D01*
X186552506Y-112625281D01*
X186674223Y-112627374D01*
X186735081Y-112628422D01*
X186735081Y-112628421D01*
X186735082Y-112628422D01*
X186915210Y-112598460D01*
X187086938Y-112536386D01*
X187094771Y-112531820D01*
X187097289Y-112530354D01*
X187097921Y-112530089D01*
X187142535Y-112504023D01*
X187192486Y-112490502D01*
X187231392Y-112490506D01*
X187231395Y-112490504D01*
X187244449Y-112490506D01*
X187244511Y-112490499D01*
X188675329Y-112490499D01*
X188675381Y-112490505D01*
X188688604Y-112490503D01*
X188688608Y-112490505D01*
X188727512Y-112490501D01*
X188777459Y-112504019D01*
X188811130Y-112523691D01*
X188811132Y-112523691D01*
X188821944Y-112530008D01*
X188822842Y-112530384D01*
X188833079Y-112536350D01*
X189004799Y-112598420D01*
X189184921Y-112628381D01*
X189367489Y-112625240D01*
X189546473Y-112589103D01*
X189715958Y-112521162D01*
X189870345Y-112423664D01*
X190004531Y-112299828D01*
X190114083Y-112153748D01*
X190195382Y-111990250D01*
X190245741Y-111814736D01*
X190263496Y-111633006D01*
X190248060Y-111451064D01*
X190199944Y-111274922D01*
X190194733Y-111264065D01*
X190194493Y-111263330D01*
X190170300Y-111213083D01*
X190160499Y-111170134D01*
X190160499Y-109809890D01*
X190170244Y-109767059D01*
X190174106Y-109759011D01*
X190174143Y-109759029D01*
X190174163Y-109758890D01*
X190189019Y-109728040D01*
X190189019Y-109728037D01*
X190194556Y-109716540D01*
X190194704Y-109716089D01*
X190196519Y-109712307D01*
X190199981Y-109705094D01*
X190248100Y-109528945D01*
X190250435Y-109501412D01*
X190274062Y-109445182D01*
X190326166Y-109413471D01*
X190386964Y-109418317D01*
X190416291Y-109430465D01*
X190560000Y-109449385D01*
X190703709Y-109430465D01*
X190837625Y-109374996D01*
X190952621Y-109286756D01*
X191040861Y-109171760D01*
X191096330Y-109037844D01*
X191115250Y-108894135D01*
X191096330Y-108750426D01*
X191040861Y-108616510D01*
X190955488Y-108505250D01*
X190952621Y-108501513D01*
X190877214Y-108443652D01*
X190837625Y-108413274D01*
X190798401Y-108397027D01*
X190703709Y-108357804D01*
X190560000Y-108338885D01*
X190416290Y-108357804D01*
X190282375Y-108413274D01*
X190167378Y-108501513D01*
X190085640Y-108608037D01*
X190042198Y-108640339D01*
X189988261Y-108644961D01*
X189939957Y-108620523D01*
X189870370Y-108556304D01*
X189715982Y-108458804D01*
X189715979Y-108458803D01*
X189715978Y-108458802D01*
X189602405Y-108413274D01*
X189546484Y-108390857D01*
X189367492Y-108354718D01*
X189184919Y-108351577D01*
X189004789Y-108381539D01*
X188833061Y-108443613D01*
X188822514Y-108449759D01*
X188821887Y-108450023D01*
X188777461Y-108475978D01*
X188727514Y-108489496D01*
X188688967Y-108489493D01*
X188688607Y-108489493D01*
X188675550Y-108489492D01*
X188675489Y-108489500D01*
X187192493Y-108489500D01*
X187142538Y-108475972D01*
X187098286Y-108450108D01*
X187097272Y-108449683D01*
X187086920Y-108443650D01*
X186915201Y-108381579D01*
X186735079Y-108351618D01*
X186552514Y-108354759D01*
X186373528Y-108390896D01*
X186204038Y-108458838D01*
X186049659Y-108556333D01*
X185915467Y-108680172D01*
X185805918Y-108826249D01*
X185724617Y-108989749D01*
X185683439Y-109133267D01*
X185674259Y-109165264D01*
X185656504Y-109346994D01*
X185657325Y-109356675D01*
X185671940Y-109528937D01*
X185681509Y-109563965D01*
X185720056Y-109705078D01*
X185725340Y-109716089D01*
X185725357Y-109716123D01*
X185725649Y-109717013D01*
X185743430Y-109753918D01*
X185745824Y-109758887D01*
X185749681Y-109766891D01*
X185759493Y-109809892D01*
X185759476Y-109865874D01*
X185759501Y-109866064D01*
X185759501Y-111170109D01*
X185749753Y-111212946D01*
X185746029Y-111220705D01*
X185745977Y-111220814D01*
X185725590Y-111263157D01*
X185725443Y-111263600D01*
X185720018Y-111274904D01*
X185671900Y-111451054D01*
X185656463Y-111633006D01*
X183170610Y-111633006D01*
X183157625Y-111623042D01*
X183118401Y-111606795D01*
X183023709Y-111567572D01*
X182880000Y-111548653D01*
X182736290Y-111567572D01*
X182602375Y-111623042D01*
X182487378Y-111711281D01*
X182399139Y-111826278D01*
X182343669Y-111960193D01*
X182324750Y-112103903D01*
X169818868Y-112103903D01*
X169875382Y-111990250D01*
X169925741Y-111814736D01*
X169943496Y-111633006D01*
X169928060Y-111451064D01*
X169879944Y-111274922D01*
X169874733Y-111264065D01*
X169874493Y-111263330D01*
X169850300Y-111213083D01*
X169840499Y-111170134D01*
X169840499Y-110362999D01*
X179657750Y-110362999D01*
X179676669Y-110506709D01*
X179715892Y-110601401D01*
X179732139Y-110640625D01*
X179770450Y-110690552D01*
X179820378Y-110755621D01*
X179870306Y-110793932D01*
X179935375Y-110843861D01*
X180030067Y-110883083D01*
X180069290Y-110899330D01*
X180086008Y-110901531D01*
X180213000Y-110918250D01*
X180356709Y-110899330D01*
X180490625Y-110843861D01*
X180605621Y-110755621D01*
X180693861Y-110640625D01*
X180749330Y-110506709D01*
X180768250Y-110363000D01*
X180749330Y-110219291D01*
X180693861Y-110085375D01*
X180643932Y-110020306D01*
X180605621Y-109970378D01*
X180540552Y-109920450D01*
X180490625Y-109882139D01*
X180420296Y-109853008D01*
X180356709Y-109826669D01*
X180213000Y-109807750D01*
X180069290Y-109826669D01*
X179935375Y-109882139D01*
X179820378Y-109970378D01*
X179732139Y-110085375D01*
X179676669Y-110219290D01*
X179657750Y-110362999D01*
X169840499Y-110362999D01*
X169840499Y-109809890D01*
X169850244Y-109767059D01*
X169854106Y-109759011D01*
X169854143Y-109759029D01*
X169854163Y-109758890D01*
X169869019Y-109728040D01*
X169869019Y-109728037D01*
X169874556Y-109716540D01*
X169874704Y-109716089D01*
X169876519Y-109712307D01*
X169879981Y-109705094D01*
X169928100Y-109528945D01*
X169930435Y-109501412D01*
X169954062Y-109445182D01*
X170006166Y-109413471D01*
X170066964Y-109418317D01*
X170096291Y-109430465D01*
X170240000Y-109449385D01*
X170383709Y-109430465D01*
X170517625Y-109374996D01*
X170632621Y-109286756D01*
X170720861Y-109171760D01*
X170776330Y-109037844D01*
X170795250Y-108894135D01*
X170776330Y-108750426D01*
X170720861Y-108616510D01*
X170635488Y-108505250D01*
X170632621Y-108501513D01*
X170557214Y-108443652D01*
X170517625Y-108413274D01*
X170478401Y-108397027D01*
X170383709Y-108357804D01*
X170240000Y-108338885D01*
X170096290Y-108357804D01*
X169962375Y-108413274D01*
X169847378Y-108501513D01*
X169765640Y-108608037D01*
X169722198Y-108640339D01*
X169668261Y-108644961D01*
X169619957Y-108620523D01*
X169550370Y-108556304D01*
X169395982Y-108458804D01*
X169395979Y-108458803D01*
X169395978Y-108458802D01*
X169282405Y-108413274D01*
X169226484Y-108390857D01*
X169047492Y-108354718D01*
X168864919Y-108351577D01*
X168684789Y-108381539D01*
X168513061Y-108443613D01*
X168502514Y-108449759D01*
X168501887Y-108450023D01*
X168457461Y-108475978D01*
X168407514Y-108489496D01*
X168368967Y-108489493D01*
X168368607Y-108489493D01*
X168355550Y-108489492D01*
X168355489Y-108489500D01*
X166872493Y-108489500D01*
X166822538Y-108475972D01*
X166778286Y-108450108D01*
X166777272Y-108449683D01*
X166766920Y-108443650D01*
X166595201Y-108381579D01*
X166415079Y-108351618D01*
X166232514Y-108354759D01*
X166053528Y-108390896D01*
X165884038Y-108458838D01*
X165729659Y-108556333D01*
X165595467Y-108680172D01*
X165485918Y-108826249D01*
X165404617Y-108989749D01*
X165363439Y-109133267D01*
X165354259Y-109165264D01*
X165336504Y-109346994D01*
X165337325Y-109356675D01*
X165351940Y-109528937D01*
X165361509Y-109563965D01*
X165400056Y-109705078D01*
X165405340Y-109716089D01*
X165405357Y-109716123D01*
X165405649Y-109717013D01*
X165423430Y-109753918D01*
X165425824Y-109758887D01*
X165429681Y-109766891D01*
X165439493Y-109809892D01*
X165439476Y-109865874D01*
X165439501Y-109866064D01*
X165439501Y-111170109D01*
X165429753Y-111212946D01*
X165426029Y-111220705D01*
X165425977Y-111220814D01*
X165405590Y-111263157D01*
X165405443Y-111263600D01*
X165400018Y-111274904D01*
X165351900Y-111451054D01*
X165336463Y-111633006D01*
X156075500Y-111633006D01*
X156075500Y-110362999D01*
X162004750Y-110362999D01*
X162023669Y-110506709D01*
X162062892Y-110601401D01*
X162079139Y-110640625D01*
X162117450Y-110690552D01*
X162167378Y-110755621D01*
X162217306Y-110793932D01*
X162282375Y-110843861D01*
X162377067Y-110883083D01*
X162416290Y-110899330D01*
X162433008Y-110901531D01*
X162560000Y-110918250D01*
X162703709Y-110899330D01*
X162837625Y-110843861D01*
X162952621Y-110755621D01*
X163040861Y-110640625D01*
X163096330Y-110506709D01*
X163115250Y-110363000D01*
X163096330Y-110219291D01*
X163040861Y-110085375D01*
X162990932Y-110020306D01*
X162952621Y-109970378D01*
X162887552Y-109920450D01*
X162837625Y-109882139D01*
X162767296Y-109853008D01*
X162703709Y-109826669D01*
X162560000Y-109807750D01*
X162416290Y-109826669D01*
X162282375Y-109882139D01*
X162167378Y-109970378D01*
X162079139Y-110085375D01*
X162023669Y-110219290D01*
X162004750Y-110362999D01*
X156075500Y-110362999D01*
X156075500Y-107949999D01*
X183086750Y-107949999D01*
X183105669Y-108093709D01*
X183144892Y-108188401D01*
X183161139Y-108227625D01*
X183199450Y-108277552D01*
X183249378Y-108342621D01*
X183299306Y-108380932D01*
X183364375Y-108430861D01*
X183459067Y-108470083D01*
X183498290Y-108486330D01*
X183515008Y-108488531D01*
X183642000Y-108505250D01*
X183785709Y-108486330D01*
X183919625Y-108430861D01*
X184034621Y-108342621D01*
X184122861Y-108227625D01*
X184178330Y-108093709D01*
X184197250Y-107950000D01*
X184182744Y-107839818D01*
X184193083Y-107781184D01*
X184235184Y-107739083D01*
X184293818Y-107728744D01*
X184404000Y-107743250D01*
X184547709Y-107724330D01*
X184681625Y-107668861D01*
X184796621Y-107580621D01*
X184884861Y-107465625D01*
X184940330Y-107331709D01*
X184959250Y-107188000D01*
X184940330Y-107044291D01*
X184884861Y-106910375D01*
X184834932Y-106845306D01*
X184796621Y-106795378D01*
X184731552Y-106745450D01*
X184681625Y-106707139D01*
X184616105Y-106680000D01*
X185928000Y-106680000D01*
X186436000Y-107188000D01*
X189483999Y-107188000D01*
X189484000Y-107188000D01*
X189992000Y-106680000D01*
X189992000Y-106061418D01*
X190007504Y-106008226D01*
X190049160Y-105971694D01*
X190103921Y-105963265D01*
X190106786Y-105963642D01*
X190119000Y-105965250D01*
X190262709Y-105946330D01*
X190396625Y-105890861D01*
X190511621Y-105802621D01*
X190599861Y-105687625D01*
X190655330Y-105553709D01*
X190674250Y-105410000D01*
X190667324Y-105357395D01*
X191935745Y-105357395D01*
X191945746Y-105567332D01*
X191995294Y-105771574D01*
X192082604Y-105962754D01*
X192204510Y-106133948D01*
X192204513Y-106133951D01*
X192204514Y-106133952D01*
X192284367Y-106210091D01*
X192356622Y-106278986D01*
X192533431Y-106392615D01*
X192728539Y-106470724D01*
X192728541Y-106470724D01*
X192728543Y-106470725D01*
X192934915Y-106510500D01*
X193092422Y-106510500D01*
X193092425Y-106510500D01*
X193249218Y-106495528D01*
X193450875Y-106436316D01*
X193637682Y-106340011D01*
X193802886Y-106210092D01*
X193940519Y-106051256D01*
X194045604Y-105869244D01*
X194114344Y-105670633D01*
X194144254Y-105462602D01*
X194134254Y-105252670D01*
X194109193Y-105149367D01*
X194084705Y-105048425D01*
X193997395Y-104857245D01*
X193875489Y-104686051D01*
X193723377Y-104541013D01*
X193546568Y-104427384D01*
X193351460Y-104349275D01*
X193196678Y-104319443D01*
X193145085Y-104309500D01*
X192987575Y-104309500D01*
X192893499Y-104318483D01*
X192830780Y-104324472D01*
X192629124Y-104383683D01*
X192442317Y-104479989D01*
X192277112Y-104609908D01*
X192139483Y-104768740D01*
X192034395Y-104950758D01*
X191965655Y-105149369D01*
X191935745Y-105357395D01*
X190667324Y-105357395D01*
X190655330Y-105266291D01*
X190599861Y-105132375D01*
X190521213Y-105029879D01*
X190511621Y-105017378D01*
X190424799Y-104950758D01*
X190396625Y-104929139D01*
X190357401Y-104912892D01*
X190262709Y-104873669D01*
X190134077Y-104856735D01*
X190119000Y-104854750D01*
X190118999Y-104854750D01*
X190103921Y-104856735D01*
X190049160Y-104848306D01*
X190007504Y-104811774D01*
X189992000Y-104758582D01*
X189992000Y-104140001D01*
X189992000Y-104140000D01*
X189484000Y-103632000D01*
X189483999Y-103632000D01*
X189215020Y-103632000D01*
X189162741Y-103617071D01*
X189126230Y-103576787D01*
X189116497Y-103523296D01*
X189136478Y-103472733D01*
X189152061Y-103452425D01*
X189207530Y-103318509D01*
X189226450Y-103174800D01*
X189207530Y-103031091D01*
X189204650Y-103024139D01*
X189167601Y-102934693D01*
X189152061Y-102897175D01*
X189102132Y-102832106D01*
X189063821Y-102782178D01*
X188998752Y-102732250D01*
X188948825Y-102693939D01*
X188909601Y-102677692D01*
X188814909Y-102638469D01*
X188671200Y-102619550D01*
X188527490Y-102638469D01*
X188393575Y-102693939D01*
X188278578Y-102782178D01*
X188190339Y-102897175D01*
X188134869Y-103031090D01*
X188115950Y-103174800D01*
X188134869Y-103318509D01*
X188190338Y-103452424D01*
X188205922Y-103472733D01*
X188225903Y-103523296D01*
X188216170Y-103576787D01*
X188179659Y-103617071D01*
X188127380Y-103632000D01*
X186436000Y-103632000D01*
X185928000Y-104140000D01*
X185928000Y-106680000D01*
X184616105Y-106680000D01*
X184547709Y-106651669D01*
X184404000Y-106632750D01*
X184260290Y-106651669D01*
X184126375Y-106707139D01*
X184011378Y-106795378D01*
X183923139Y-106910375D01*
X183867669Y-107044290D01*
X183848750Y-107188000D01*
X183863255Y-107298180D01*
X183852916Y-107356815D01*
X183810815Y-107398916D01*
X183752180Y-107409255D01*
X183642000Y-107394750D01*
X183498290Y-107413669D01*
X183364375Y-107469139D01*
X183249378Y-107557378D01*
X183161139Y-107672375D01*
X183105669Y-107806290D01*
X183086750Y-107949999D01*
X156075500Y-107949999D01*
X156075500Y-105357395D01*
X161455745Y-105357395D01*
X161465746Y-105567332D01*
X161515294Y-105771574D01*
X161602604Y-105962754D01*
X161724510Y-106133948D01*
X161724513Y-106133951D01*
X161724514Y-106133952D01*
X161804367Y-106210091D01*
X161876622Y-106278986D01*
X162053431Y-106392615D01*
X162248539Y-106470724D01*
X162248541Y-106470724D01*
X162248543Y-106470725D01*
X162454915Y-106510500D01*
X162612422Y-106510500D01*
X162612425Y-106510500D01*
X162769218Y-106495528D01*
X162970875Y-106436316D01*
X163157682Y-106340011D01*
X163322886Y-106210092D01*
X163460519Y-106051256D01*
X163565604Y-105869244D01*
X163634344Y-105670633D01*
X163664254Y-105462602D01*
X163661748Y-105409999D01*
X164925750Y-105409999D01*
X164944669Y-105553709D01*
X164983892Y-105648401D01*
X165000139Y-105687625D01*
X165014753Y-105706670D01*
X165088378Y-105802621D01*
X165110154Y-105819330D01*
X165203375Y-105890861D01*
X165291051Y-105927177D01*
X165337290Y-105946330D01*
X165354001Y-105948530D01*
X165481000Y-105965250D01*
X165493526Y-105963600D01*
X165496079Y-105963265D01*
X165550840Y-105971694D01*
X165592496Y-106008226D01*
X165608000Y-106061418D01*
X165608000Y-106680000D01*
X166116000Y-107188000D01*
X169163999Y-107188000D01*
X169164000Y-107188000D01*
X169164001Y-107187999D01*
X170513750Y-107187999D01*
X170532669Y-107331709D01*
X170564790Y-107409255D01*
X170588139Y-107465625D01*
X170626450Y-107515552D01*
X170676378Y-107580621D01*
X170726306Y-107618932D01*
X170791375Y-107668861D01*
X170886067Y-107708083D01*
X170925290Y-107724330D01*
X170942008Y-107726531D01*
X171069000Y-107743250D01*
X171212709Y-107724330D01*
X171346625Y-107668861D01*
X171461621Y-107580621D01*
X171549861Y-107465625D01*
X171605330Y-107331709D01*
X171624250Y-107188000D01*
X171605330Y-107044291D01*
X171549861Y-106910375D01*
X171499932Y-106845306D01*
X171470539Y-106807000D01*
X181689750Y-106807000D01*
X181708669Y-106950709D01*
X181747432Y-107044290D01*
X181764139Y-107084625D01*
X181802450Y-107134552D01*
X181852378Y-107199621D01*
X181902306Y-107237932D01*
X181967375Y-107287861D01*
X182062067Y-107327083D01*
X182101290Y-107343330D01*
X182118008Y-107345531D01*
X182245000Y-107362250D01*
X182388709Y-107343330D01*
X182522625Y-107287861D01*
X182637621Y-107199621D01*
X182725861Y-107084625D01*
X182781330Y-106950709D01*
X182800250Y-106807000D01*
X182781330Y-106663291D01*
X182774741Y-106647385D01*
X182767683Y-106599796D01*
X182783891Y-106554499D01*
X182819538Y-106522190D01*
X182866206Y-106510500D01*
X182932422Y-106510500D01*
X182932425Y-106510500D01*
X183089218Y-106495528D01*
X183290875Y-106436316D01*
X183477682Y-106340011D01*
X183642886Y-106210092D01*
X183780519Y-106051256D01*
X183885604Y-105869244D01*
X183954344Y-105670633D01*
X183984254Y-105462602D01*
X183974254Y-105252670D01*
X183949193Y-105149367D01*
X183924705Y-105048425D01*
X183837395Y-104857245D01*
X183715489Y-104686051D01*
X183563377Y-104541013D01*
X183386569Y-104427385D01*
X183182681Y-104345761D01*
X183183525Y-104343650D01*
X183142345Y-104321201D01*
X183115944Y-104267171D01*
X183125683Y-104207831D01*
X183169838Y-104121173D01*
X183170400Y-104121459D01*
X183179163Y-104100306D01*
X183214311Y-104070290D01*
X183259254Y-104059500D01*
X185227835Y-104059500D01*
X185243755Y-104062097D01*
X185250764Y-104061772D01*
X185250765Y-104061773D01*
X185297641Y-104059606D01*
X185302214Y-104059500D01*
X185320844Y-104059500D01*
X185320951Y-104059480D01*
X185334571Y-104057898D01*
X185362992Y-104056585D01*
X185371982Y-104052615D01*
X185393772Y-104045866D01*
X185403433Y-104044061D01*
X185427623Y-104029082D01*
X185439722Y-104022704D01*
X185465765Y-104011206D01*
X185472710Y-104004259D01*
X185490597Y-103990091D01*
X185498952Y-103984919D01*
X185516095Y-103962216D01*
X185525082Y-103951887D01*
X192956970Y-96519999D01*
X195494340Y-96519999D01*
X195514936Y-96755405D01*
X195576098Y-96983667D01*
X195675963Y-97197826D01*
X195675964Y-97197827D01*
X195675965Y-97197829D01*
X195811505Y-97391401D01*
X195978599Y-97558495D01*
X196172171Y-97694035D01*
X196172172Y-97694035D01*
X196172173Y-97694036D01*
X196386332Y-97793901D01*
X196386333Y-97793901D01*
X196386337Y-97793903D01*
X196614592Y-97855063D01*
X196685168Y-97861237D01*
X196791031Y-97870500D01*
X196791034Y-97870500D01*
X196908966Y-97870500D01*
X196908969Y-97870500D01*
X196997186Y-97862781D01*
X197085408Y-97855063D01*
X197313663Y-97793903D01*
X197527829Y-97694035D01*
X197721401Y-97558495D01*
X197888495Y-97391401D01*
X198024035Y-97197830D01*
X198123903Y-96983663D01*
X198185063Y-96755408D01*
X198205659Y-96520000D01*
X198185063Y-96284592D01*
X198123903Y-96056337D01*
X198024035Y-95842171D01*
X197888495Y-95648599D01*
X197721401Y-95481505D01*
X197605890Y-95400624D01*
X197527826Y-95345963D01*
X197313667Y-95246098D01*
X197085405Y-95184936D01*
X196908969Y-95169500D01*
X196908966Y-95169500D01*
X196791034Y-95169500D01*
X196791031Y-95169500D01*
X196614594Y-95184936D01*
X196386332Y-95246098D01*
X196172173Y-95345963D01*
X195978602Y-95481502D01*
X195811502Y-95648602D01*
X195675963Y-95842172D01*
X195576098Y-96056332D01*
X195514936Y-96284594D01*
X195494340Y-96519999D01*
X192956970Y-96519999D01*
X196762405Y-92714564D01*
X196775496Y-92705147D01*
X196780225Y-92699959D01*
X196780228Y-92699958D01*
X196811877Y-92665239D01*
X196814994Y-92661975D01*
X196828174Y-92648797D01*
X196828238Y-92648702D01*
X196836745Y-92637961D01*
X196855916Y-92616933D01*
X196859464Y-92607771D01*
X196870103Y-92587587D01*
X196875657Y-92579481D01*
X196882171Y-92551782D01*
X196886220Y-92538705D01*
X196896500Y-92512173D01*
X196896500Y-92502347D01*
X196899130Y-92479681D01*
X196901379Y-92470119D01*
X196897448Y-92441946D01*
X196896500Y-92428270D01*
X196896500Y-83240165D01*
X196899097Y-83224244D01*
X196896606Y-83170358D01*
X196896500Y-83165786D01*
X196896500Y-83147157D01*
X196896480Y-83147050D01*
X196894898Y-83133430D01*
X196893585Y-83105008D01*
X196889613Y-83096013D01*
X196882866Y-83074224D01*
X196881061Y-83064567D01*
X196875836Y-83056129D01*
X196866091Y-83040389D01*
X196859698Y-83028261D01*
X196848206Y-83002234D01*
X196841255Y-82995283D01*
X196827086Y-82977393D01*
X196821919Y-82969048D01*
X196799226Y-82951911D01*
X196788883Y-82942911D01*
X196048187Y-82202215D01*
X196025536Y-82167083D01*
X196019403Y-82125734D01*
X196030880Y-82085544D01*
X196047232Y-82054954D01*
X196107300Y-81856934D01*
X196127583Y-81651000D01*
X196107300Y-81445066D01*
X196047232Y-81247046D01*
X195949685Y-81064550D01*
X195818410Y-80904590D01*
X195658450Y-80773315D01*
X195475954Y-80675768D01*
X195475953Y-80675767D01*
X195475952Y-80675767D01*
X195277933Y-80615699D01*
X195071999Y-80595416D01*
X194866066Y-80615699D01*
X194668047Y-80675767D01*
X194485549Y-80773315D01*
X194325590Y-80904590D01*
X194194315Y-81064549D01*
X194096767Y-81247047D01*
X194036699Y-81445066D01*
X194016416Y-81650999D01*
X194036699Y-81856933D01*
X194096767Y-82054952D01*
X194096768Y-82054954D01*
X194194315Y-82237450D01*
X194325590Y-82397410D01*
X194485550Y-82528685D01*
X194668046Y-82626232D01*
X194866066Y-82686300D01*
X195072000Y-82706583D01*
X195277934Y-82686300D01*
X195475954Y-82626232D01*
X195506542Y-82609881D01*
X195546736Y-82598403D01*
X195588084Y-82604536D01*
X195623216Y-82627187D01*
X196266504Y-83270475D01*
X196287964Y-83302593D01*
X196295500Y-83340479D01*
X196295500Y-83938073D01*
X196279879Y-83991448D01*
X196237947Y-84027979D01*
X196182936Y-84036139D01*
X196132204Y-84013353D01*
X196101763Y-83966811D01*
X196057380Y-83820500D01*
X196047232Y-83787046D01*
X195949685Y-83604550D01*
X195818410Y-83444590D01*
X195658450Y-83313315D01*
X195475954Y-83215768D01*
X195475953Y-83215767D01*
X195475952Y-83215767D01*
X195277933Y-83155699D01*
X195072000Y-83135416D01*
X194866066Y-83155699D01*
X194668047Y-83215767D01*
X194485549Y-83313315D01*
X194325590Y-83444590D01*
X194194315Y-83604549D01*
X194096767Y-83787047D01*
X194036699Y-83985066D01*
X194016416Y-84191000D01*
X194036699Y-84396933D01*
X194066105Y-84493872D01*
X194096768Y-84594954D01*
X194194315Y-84777450D01*
X194325590Y-84937410D01*
X194485550Y-85068685D01*
X194668046Y-85166232D01*
X194866066Y-85226300D01*
X195072000Y-85246583D01*
X195277934Y-85226300D01*
X195475954Y-85166232D01*
X195506542Y-85149881D01*
X195546736Y-85138403D01*
X195588084Y-85144536D01*
X195623216Y-85167187D01*
X195885504Y-85429475D01*
X195906964Y-85461593D01*
X195914500Y-85499479D01*
X195914500Y-85854132D01*
X195899140Y-85907097D01*
X195857828Y-85943627D01*
X195803381Y-85952387D01*
X195752696Y-85930660D01*
X195658450Y-85853315D01*
X195475954Y-85755768D01*
X195475953Y-85755767D01*
X195475952Y-85755767D01*
X195277933Y-85695699D01*
X195072000Y-85675416D01*
X194866066Y-85695699D01*
X194668047Y-85755767D01*
X194485549Y-85853315D01*
X194325590Y-85984590D01*
X194194315Y-86144549D01*
X194096767Y-86327047D01*
X194036699Y-86525066D01*
X194016416Y-86730999D01*
X194036699Y-86936933D01*
X194096767Y-87134952D01*
X194096768Y-87134954D01*
X194194315Y-87317450D01*
X194325590Y-87477410D01*
X194485550Y-87608685D01*
X194668046Y-87706232D01*
X194866066Y-87766300D01*
X195072000Y-87786583D01*
X195277934Y-87766300D01*
X195475954Y-87706232D01*
X195658450Y-87608685D01*
X195752696Y-87531339D01*
X195803381Y-87509613D01*
X195857828Y-87518373D01*
X195899140Y-87554903D01*
X195914500Y-87607868D01*
X195914500Y-88121500D01*
X195901237Y-88171000D01*
X195865000Y-88207237D01*
X195815500Y-88220500D01*
X194202252Y-88220500D01*
X194173010Y-88226316D01*
X194143768Y-88232133D01*
X194077447Y-88276447D01*
X194033133Y-88342768D01*
X194021500Y-88401253D01*
X194021500Y-90140747D01*
X194033133Y-90199231D01*
X194077447Y-90265552D01*
X194087099Y-90272001D01*
X194143769Y-90309867D01*
X194202252Y-90321500D01*
X195815500Y-90321500D01*
X195865000Y-90334763D01*
X195901237Y-90371000D01*
X195914500Y-90420500D01*
X195914500Y-92163521D01*
X195906964Y-92201407D01*
X195885504Y-92233525D01*
X189967382Y-98151646D01*
X189913505Y-98179320D01*
X189853591Y-98170432D01*
X189810068Y-98128310D01*
X189799225Y-98068720D01*
X189799765Y-98064615D01*
X189815250Y-97947000D01*
X189796330Y-97803291D01*
X189792441Y-97793903D01*
X189780083Y-97764067D01*
X189740861Y-97669375D01*
X189690932Y-97604306D01*
X189652621Y-97554378D01*
X189587552Y-97504450D01*
X189537625Y-97466139D01*
X189498401Y-97449892D01*
X189403709Y-97410669D01*
X189260000Y-97391750D01*
X189116290Y-97410669D01*
X188982375Y-97466139D01*
X188867378Y-97554378D01*
X188779139Y-97669375D01*
X188723669Y-97803290D01*
X188704750Y-97947000D01*
X188723669Y-98090709D01*
X188756692Y-98170432D01*
X188779139Y-98224625D01*
X188817450Y-98274552D01*
X188867378Y-98339621D01*
X188917306Y-98377932D01*
X188982375Y-98427861D01*
X189077067Y-98467083D01*
X189116290Y-98483330D01*
X189135210Y-98485820D01*
X189260000Y-98502250D01*
X189381720Y-98486225D01*
X189441310Y-98497068D01*
X189483432Y-98540591D01*
X189492320Y-98600505D01*
X189464646Y-98654382D01*
X185955014Y-102164013D01*
X185913748Y-102188746D01*
X185865696Y-102191107D01*
X185822205Y-102170537D01*
X185793546Y-102131895D01*
X185780542Y-102100500D01*
X185773863Y-102084375D01*
X185724943Y-102020621D01*
X185685623Y-101969378D01*
X185603751Y-101906556D01*
X185570627Y-101881139D01*
X185526507Y-101862864D01*
X185436711Y-101825669D01*
X185293002Y-101806750D01*
X185149292Y-101825669D01*
X185015377Y-101881139D01*
X184900380Y-101969378D01*
X184812141Y-102084375D01*
X184756671Y-102218290D01*
X184737752Y-102361999D01*
X184756671Y-102505709D01*
X184795894Y-102600401D01*
X184812141Y-102639625D01*
X184850452Y-102689552D01*
X184900380Y-102754621D01*
X185015373Y-102842858D01*
X185015377Y-102842861D01*
X185062902Y-102862546D01*
X185101540Y-102891202D01*
X185122110Y-102934693D01*
X185119751Y-102982744D01*
X185095018Y-103024010D01*
X185070527Y-103048502D01*
X185038409Y-103069964D01*
X185000522Y-103077500D01*
X182437165Y-103077500D01*
X182421244Y-103074902D01*
X182367358Y-103077394D01*
X182362786Y-103077500D01*
X182344154Y-103077500D01*
X182344031Y-103077523D01*
X182330419Y-103079101D01*
X182298359Y-103080583D01*
X182278301Y-103079470D01*
X182245000Y-103074195D01*
X182111875Y-103095280D01*
X181991781Y-103156471D01*
X181896471Y-103251781D01*
X181835280Y-103371875D01*
X181814195Y-103504999D01*
X181835280Y-103638124D01*
X181835280Y-103638125D01*
X181835281Y-103638126D01*
X181896472Y-103758220D01*
X181991780Y-103853528D01*
X182111874Y-103914719D01*
X182242385Y-103935389D01*
X182280815Y-103950141D01*
X182309924Y-103979251D01*
X182324677Y-104017683D01*
X182343280Y-104135142D01*
X182343280Y-104135143D01*
X182343281Y-104135144D01*
X182404472Y-104255238D01*
X182415348Y-104266114D01*
X182443099Y-104320474D01*
X182433695Y-104380781D01*
X182390707Y-104424111D01*
X182282317Y-104479989D01*
X182117112Y-104609908D01*
X181979483Y-104768740D01*
X181874395Y-104950758D01*
X181805655Y-105149369D01*
X181775745Y-105357395D01*
X181785746Y-105567332D01*
X181835294Y-105771574D01*
X181922603Y-105962751D01*
X181922604Y-105962753D01*
X182044514Y-106133952D01*
X182051625Y-106140732D01*
X182077517Y-106181957D01*
X182080629Y-106230538D01*
X182060209Y-106274730D01*
X182021195Y-106303846D01*
X181967373Y-106326140D01*
X181852378Y-106414378D01*
X181764139Y-106529375D01*
X181708669Y-106663290D01*
X181689750Y-106807000D01*
X171470539Y-106807000D01*
X171461621Y-106795378D01*
X171396552Y-106745450D01*
X171346625Y-106707139D01*
X171281105Y-106680000D01*
X171212709Y-106651669D01*
X171069000Y-106632750D01*
X170925290Y-106651669D01*
X170791375Y-106707139D01*
X170676378Y-106795378D01*
X170588139Y-106910375D01*
X170532669Y-107044290D01*
X170513750Y-107187999D01*
X169164001Y-107187999D01*
X169672000Y-106680000D01*
X169672000Y-105282999D01*
X170640750Y-105282999D01*
X170659669Y-105426709D01*
X170696505Y-105515637D01*
X170715139Y-105560625D01*
X170753450Y-105610552D01*
X170803378Y-105675621D01*
X170853306Y-105713932D01*
X170918375Y-105763861D01*
X171011951Y-105802621D01*
X171052290Y-105819330D01*
X171069008Y-105821531D01*
X171196000Y-105838250D01*
X171339709Y-105819330D01*
X171473625Y-105763861D01*
X171521695Y-105726975D01*
X171576465Y-105706670D01*
X171633151Y-105720779D01*
X171672014Y-105764391D01*
X171762603Y-105962752D01*
X171884510Y-106133948D01*
X171884513Y-106133951D01*
X171884514Y-106133952D01*
X171964367Y-106210091D01*
X172036622Y-106278986D01*
X172213431Y-106392615D01*
X172408539Y-106470724D01*
X172408541Y-106470724D01*
X172408543Y-106470725D01*
X172614915Y-106510500D01*
X172772422Y-106510500D01*
X172772425Y-106510500D01*
X172929218Y-106495528D01*
X173130875Y-106436316D01*
X173317682Y-106340011D01*
X173482886Y-106210092D01*
X173603509Y-106070886D01*
X175882039Y-106070886D01*
X175900958Y-106214596D01*
X175937927Y-106303846D01*
X175956428Y-106348512D01*
X175990268Y-106392613D01*
X176044667Y-106463508D01*
X176054073Y-106470725D01*
X176159664Y-106551748D01*
X176254356Y-106590970D01*
X176293579Y-106607217D01*
X176310297Y-106609418D01*
X176437289Y-106626137D01*
X176580998Y-106607217D01*
X176714914Y-106551748D01*
X176829910Y-106463508D01*
X176918150Y-106348512D01*
X176973619Y-106214596D01*
X176992539Y-106070887D01*
X176973619Y-105927178D01*
X176918150Y-105793262D01*
X176862532Y-105720779D01*
X176829910Y-105678265D01*
X176744656Y-105612848D01*
X176714914Y-105590026D01*
X176660125Y-105567332D01*
X176580998Y-105534556D01*
X176437289Y-105515637D01*
X176293579Y-105534556D01*
X176159664Y-105590026D01*
X176044667Y-105678265D01*
X175956428Y-105793262D01*
X175900958Y-105927177D01*
X175882039Y-106070886D01*
X173603509Y-106070886D01*
X173620519Y-106051256D01*
X173725604Y-105869244D01*
X173794344Y-105670633D01*
X173824254Y-105462602D01*
X173814254Y-105252670D01*
X173789193Y-105149367D01*
X173764705Y-105048425D01*
X173677395Y-104857245D01*
X173555489Y-104686051D01*
X173403377Y-104541013D01*
X173226568Y-104427384D01*
X173031460Y-104349275D01*
X172876678Y-104319443D01*
X172825085Y-104309500D01*
X172667575Y-104309500D01*
X172573499Y-104318483D01*
X172510780Y-104324472D01*
X172309124Y-104383683D01*
X172122317Y-104479989D01*
X171957112Y-104609908D01*
X171819481Y-104768742D01*
X171754366Y-104881524D01*
X171720908Y-104916095D01*
X171675104Y-104930811D01*
X171627771Y-104922198D01*
X171590087Y-104892289D01*
X171588620Y-104890377D01*
X171517743Y-104835992D01*
X171473625Y-104802139D01*
X171434401Y-104785892D01*
X171339709Y-104746669D01*
X171196000Y-104727750D01*
X171052290Y-104746669D01*
X170918375Y-104802139D01*
X170803378Y-104890378D01*
X170715139Y-105005375D01*
X170659669Y-105139290D01*
X170640750Y-105282999D01*
X169672000Y-105282999D01*
X169672000Y-104140000D01*
X169164000Y-103632000D01*
X166116000Y-103632000D01*
X165608000Y-104140000D01*
X165608000Y-104140001D01*
X165608000Y-104758582D01*
X165592496Y-104811774D01*
X165550840Y-104848306D01*
X165496079Y-104856735D01*
X165481000Y-104854750D01*
X165337290Y-104873669D01*
X165203375Y-104929139D01*
X165088378Y-105017378D01*
X165000139Y-105132375D01*
X164944669Y-105266290D01*
X164925750Y-105409999D01*
X163661748Y-105409999D01*
X163654254Y-105252670D01*
X163629193Y-105149367D01*
X163604705Y-105048425D01*
X163517395Y-104857245D01*
X163395489Y-104686051D01*
X163243377Y-104541013D01*
X163066568Y-104427384D01*
X162871460Y-104349275D01*
X162716678Y-104319443D01*
X162665085Y-104309500D01*
X162507575Y-104309500D01*
X162413499Y-104318483D01*
X162350780Y-104324472D01*
X162149124Y-104383683D01*
X161962317Y-104479989D01*
X161797112Y-104609908D01*
X161659483Y-104768740D01*
X161554395Y-104950758D01*
X161485655Y-105149369D01*
X161455745Y-105357395D01*
X156075500Y-105357395D01*
X156075500Y-103505000D01*
X171402750Y-103505000D01*
X171421669Y-103648709D01*
X171455722Y-103730919D01*
X171477139Y-103782625D01*
X171502526Y-103815710D01*
X171565378Y-103897621D01*
X171587661Y-103914719D01*
X171680375Y-103985861D01*
X171769304Y-104022696D01*
X171814290Y-104041330D01*
X171831008Y-104043531D01*
X171958000Y-104060250D01*
X172101709Y-104041330D01*
X172235625Y-103985861D01*
X172350621Y-103897621D01*
X172391588Y-103844230D01*
X172426342Y-103815710D01*
X172470129Y-103805500D01*
X180401835Y-103805500D01*
X180417755Y-103808097D01*
X180424764Y-103807772D01*
X180424765Y-103807773D01*
X180471641Y-103805606D01*
X180476214Y-103805500D01*
X180494844Y-103805500D01*
X180494951Y-103805480D01*
X180508571Y-103803898D01*
X180536992Y-103802585D01*
X180545982Y-103798615D01*
X180567772Y-103791866D01*
X180577433Y-103790061D01*
X180601623Y-103775082D01*
X180613722Y-103768704D01*
X180639765Y-103757206D01*
X180646710Y-103750259D01*
X180664597Y-103736091D01*
X180672952Y-103730919D01*
X180690095Y-103708216D01*
X180699082Y-103697887D01*
X182343305Y-102053664D01*
X182356396Y-102044247D01*
X182361125Y-102039059D01*
X182361128Y-102039058D01*
X182392777Y-102004339D01*
X182395894Y-102001075D01*
X182409074Y-101987897D01*
X182409138Y-101987802D01*
X182417645Y-101977061D01*
X182436816Y-101956033D01*
X182440366Y-101946866D01*
X182451009Y-101926678D01*
X182456557Y-101918580D01*
X182459385Y-101906552D01*
X182482284Y-101862864D01*
X182523425Y-101835647D01*
X182572593Y-101831661D01*
X182617581Y-101851898D01*
X182647218Y-101891332D01*
X182653138Y-101905623D01*
X182653139Y-101905625D01*
X182663080Y-101918580D01*
X182741378Y-102020621D01*
X182784445Y-102053667D01*
X182856375Y-102108861D01*
X182951067Y-102148083D01*
X182990290Y-102164330D01*
X183007008Y-102166531D01*
X183134000Y-102183250D01*
X183277709Y-102164330D01*
X183411625Y-102108861D01*
X183526621Y-102020621D01*
X183614861Y-101905625D01*
X183670330Y-101771709D01*
X183689250Y-101628000D01*
X183670330Y-101484291D01*
X183614861Y-101350375D01*
X183564932Y-101285306D01*
X183526621Y-101235378D01*
X183461552Y-101185450D01*
X183411625Y-101147139D01*
X183372401Y-101130892D01*
X183277709Y-101091669D01*
X183134000Y-101072750D01*
X182990290Y-101091669D01*
X182856375Y-101147139D01*
X182741378Y-101235378D01*
X182654942Y-101348025D01*
X182605138Y-101382495D01*
X182544578Y-101381504D01*
X182495928Y-101345423D01*
X182477400Y-101287758D01*
X182477400Y-100510229D01*
X182487610Y-100466442D01*
X182516130Y-100431688D01*
X182569521Y-100390721D01*
X182657761Y-100275725D01*
X182713230Y-100141809D01*
X182714216Y-100134313D01*
X182737937Y-100081959D01*
X182786747Y-100051607D01*
X182844193Y-100053488D01*
X182890910Y-100086966D01*
X182919801Y-100124617D01*
X182967378Y-100186621D01*
X183017306Y-100224932D01*
X183082375Y-100274861D01*
X183175951Y-100313621D01*
X183216290Y-100330330D01*
X183233008Y-100332531D01*
X183360000Y-100349250D01*
X183503709Y-100330330D01*
X183637625Y-100274861D01*
X183752621Y-100186621D01*
X183840861Y-100071625D01*
X183896330Y-99937709D01*
X183915250Y-99794000D01*
X183896330Y-99650291D01*
X183893465Y-99643375D01*
X183880083Y-99611067D01*
X183840861Y-99516375D01*
X183773011Y-99427951D01*
X183752621Y-99401378D01*
X183687552Y-99351450D01*
X183637625Y-99313139D01*
X183598401Y-99296892D01*
X183503709Y-99257669D01*
X183360000Y-99238750D01*
X183216290Y-99257669D01*
X183082375Y-99313139D01*
X182967378Y-99401378D01*
X182879139Y-99516375D01*
X182823668Y-99650293D01*
X182822681Y-99657791D01*
X182798959Y-99710143D01*
X182750150Y-99740492D01*
X182692705Y-99738611D01*
X182645988Y-99705133D01*
X182598600Y-99643375D01*
X182569521Y-99605478D01*
X182504452Y-99555550D01*
X182454525Y-99517239D01*
X182415301Y-99500992D01*
X182320609Y-99461769D01*
X182176900Y-99442850D01*
X182033190Y-99461769D01*
X181899275Y-99517239D01*
X181784278Y-99605478D01*
X181696039Y-99720475D01*
X181640569Y-99854390D01*
X181621650Y-99998100D01*
X181640569Y-100141809D01*
X181679792Y-100236501D01*
X181696039Y-100275725D01*
X181725118Y-100313621D01*
X181784276Y-100390718D01*
X181784277Y-100390719D01*
X181784279Y-100390721D01*
X181837669Y-100431688D01*
X181866190Y-100466442D01*
X181876400Y-100510229D01*
X181876400Y-101629621D01*
X181868864Y-101667507D01*
X181847404Y-101699625D01*
X180371525Y-103175504D01*
X180339407Y-103196964D01*
X180301521Y-103204500D01*
X179628792Y-103204500D01*
X179581346Y-103192390D01*
X179545508Y-103159023D01*
X179530044Y-103112562D01*
X179538739Y-103064373D01*
X179553938Y-103031091D01*
X179560165Y-103017457D01*
X179580647Y-102875000D01*
X179560165Y-102732543D01*
X179500377Y-102601627D01*
X179406128Y-102492857D01*
X179406127Y-102492856D01*
X179406125Y-102492854D01*
X179285054Y-102415047D01*
X179146961Y-102374500D01*
X179003039Y-102374500D01*
X178864945Y-102415047D01*
X178743874Y-102492854D01*
X178649622Y-102601628D01*
X178589834Y-102732544D01*
X178569352Y-102875000D01*
X178589834Y-103017455D01*
X178611261Y-103064373D01*
X178619956Y-103112562D01*
X178604492Y-103159023D01*
X178568654Y-103192390D01*
X178521208Y-103204500D01*
X178353792Y-103204500D01*
X178306346Y-103192390D01*
X178270508Y-103159023D01*
X178255044Y-103112562D01*
X178263739Y-103064373D01*
X178278938Y-103031091D01*
X178285165Y-103017457D01*
X178305647Y-102875000D01*
X178285165Y-102732543D01*
X178225377Y-102601627D01*
X178131128Y-102492857D01*
X178131127Y-102492856D01*
X178131125Y-102492854D01*
X178010054Y-102415047D01*
X177871961Y-102374500D01*
X177728039Y-102374500D01*
X177589945Y-102415047D01*
X177468874Y-102492854D01*
X177374622Y-102601628D01*
X177314834Y-102732544D01*
X177294352Y-102875000D01*
X177314834Y-103017455D01*
X177336261Y-103064373D01*
X177344956Y-103112562D01*
X177329492Y-103159023D01*
X177293654Y-103192390D01*
X177246208Y-103204500D01*
X177078792Y-103204500D01*
X177031346Y-103192390D01*
X176995508Y-103159023D01*
X176980044Y-103112562D01*
X176988739Y-103064373D01*
X177003938Y-103031091D01*
X177010165Y-103017457D01*
X177030647Y-102875000D01*
X177010165Y-102732543D01*
X176950377Y-102601627D01*
X176856128Y-102492857D01*
X176856127Y-102492856D01*
X176856125Y-102492854D01*
X176735054Y-102415047D01*
X176596961Y-102374500D01*
X176453039Y-102374500D01*
X176314945Y-102415047D01*
X176193874Y-102492854D01*
X176099622Y-102601628D01*
X176039834Y-102732544D01*
X176019352Y-102875000D01*
X176039834Y-103017455D01*
X176061261Y-103064373D01*
X176069956Y-103112562D01*
X176054492Y-103159023D01*
X176018654Y-103192390D01*
X175971208Y-103204500D01*
X172470129Y-103204500D01*
X172426342Y-103194290D01*
X172391588Y-103165769D01*
X172350621Y-103112379D01*
X172350619Y-103112377D01*
X172350618Y-103112376D01*
X172267375Y-103048502D01*
X172235625Y-103024139D01*
X172196401Y-103007892D01*
X172101709Y-102968669D01*
X171958000Y-102949750D01*
X171814290Y-102968669D01*
X171680375Y-103024139D01*
X171565378Y-103112378D01*
X171477139Y-103227375D01*
X171421669Y-103361290D01*
X171402750Y-103505000D01*
X156075500Y-103505000D01*
X156075500Y-101599999D01*
X171910750Y-101599999D01*
X171929669Y-101743709D01*
X171963618Y-101825669D01*
X171985139Y-101877625D01*
X172007339Y-101906556D01*
X172073378Y-101992621D01*
X172088681Y-102004363D01*
X172188375Y-102080861D01*
X172283067Y-102120083D01*
X172322290Y-102136330D01*
X172339008Y-102138531D01*
X172466000Y-102155250D01*
X172609709Y-102136330D01*
X172743625Y-102080861D01*
X172858621Y-101992621D01*
X172946861Y-101877625D01*
X173002330Y-101743709D01*
X173021250Y-101600000D01*
X176019352Y-101600000D01*
X176039834Y-101742455D01*
X176080573Y-101831661D01*
X176099623Y-101873373D01*
X176193872Y-101982143D01*
X176193874Y-101982145D01*
X176314945Y-102059952D01*
X176314947Y-102059953D01*
X176453039Y-102100500D01*
X176596961Y-102100500D01*
X176735053Y-102059953D01*
X176856128Y-101982143D01*
X176950377Y-101873373D01*
X177010165Y-101742457D01*
X177030647Y-101600000D01*
X177294352Y-101600000D01*
X177314834Y-101742455D01*
X177355573Y-101831661D01*
X177374623Y-101873373D01*
X177468872Y-101982143D01*
X177468874Y-101982145D01*
X177589945Y-102059952D01*
X177589947Y-102059953D01*
X177728039Y-102100500D01*
X177871961Y-102100500D01*
X178010053Y-102059953D01*
X178131128Y-101982143D01*
X178225377Y-101873373D01*
X178285165Y-101742457D01*
X178305647Y-101600000D01*
X178569352Y-101600000D01*
X178589834Y-101742455D01*
X178630573Y-101831661D01*
X178649623Y-101873373D01*
X178743872Y-101982143D01*
X178743874Y-101982145D01*
X178864945Y-102059952D01*
X178864947Y-102059953D01*
X179003039Y-102100500D01*
X179146961Y-102100500D01*
X179285053Y-102059953D01*
X179406128Y-101982143D01*
X179500377Y-101873373D01*
X179560165Y-101742457D01*
X179580647Y-101600000D01*
X179560165Y-101457543D01*
X179500377Y-101326627D01*
X179406128Y-101217857D01*
X179406127Y-101217856D01*
X179406125Y-101217854D01*
X179285054Y-101140047D01*
X179146961Y-101099500D01*
X179003039Y-101099500D01*
X178864945Y-101140047D01*
X178743874Y-101217854D01*
X178649622Y-101326628D01*
X178589834Y-101457544D01*
X178569352Y-101600000D01*
X178305647Y-101600000D01*
X178285165Y-101457543D01*
X178225377Y-101326627D01*
X178131128Y-101217857D01*
X178131127Y-101217856D01*
X178131125Y-101217854D01*
X178010054Y-101140047D01*
X177871961Y-101099500D01*
X177728039Y-101099500D01*
X177589945Y-101140047D01*
X177468874Y-101217854D01*
X177374622Y-101326628D01*
X177314834Y-101457544D01*
X177294352Y-101600000D01*
X177030647Y-101600000D01*
X177010165Y-101457543D01*
X176950377Y-101326627D01*
X176856128Y-101217857D01*
X176856127Y-101217856D01*
X176856125Y-101217854D01*
X176735054Y-101140047D01*
X176596961Y-101099500D01*
X176453039Y-101099500D01*
X176314945Y-101140047D01*
X176193874Y-101217854D01*
X176099622Y-101326628D01*
X176039834Y-101457544D01*
X176019352Y-101600000D01*
X173021250Y-101600000D01*
X173002330Y-101456291D01*
X172946861Y-101322375D01*
X172896932Y-101257306D01*
X172858621Y-101207378D01*
X172780115Y-101147139D01*
X172743625Y-101119139D01*
X172696212Y-101099500D01*
X172609709Y-101063669D01*
X172466000Y-101044750D01*
X172322290Y-101063669D01*
X172188375Y-101119139D01*
X172073378Y-101207378D01*
X171985139Y-101322375D01*
X171929669Y-101456290D01*
X171910750Y-101599999D01*
X156075500Y-101599999D01*
X156075500Y-100569999D01*
X164812750Y-100569999D01*
X164831669Y-100713709D01*
X164861179Y-100784952D01*
X164887139Y-100847625D01*
X164925450Y-100897552D01*
X164975378Y-100962621D01*
X165025306Y-101000932D01*
X165090375Y-101050861D01*
X165185067Y-101090083D01*
X165224290Y-101106330D01*
X165241008Y-101108531D01*
X165368000Y-101125250D01*
X165511709Y-101106330D01*
X165645625Y-101050861D01*
X165760621Y-100962621D01*
X165848861Y-100847625D01*
X165904330Y-100713709D01*
X165923250Y-100570000D01*
X165904330Y-100426291D01*
X165894210Y-100401860D01*
X165872419Y-100349250D01*
X165848861Y-100292375D01*
X165767713Y-100186621D01*
X165760621Y-100177378D01*
X165695552Y-100127450D01*
X165645625Y-100089139D01*
X165586645Y-100064709D01*
X165511709Y-100033669D01*
X165368000Y-100014750D01*
X165224290Y-100033669D01*
X165090375Y-100089139D01*
X164975378Y-100177378D01*
X164887139Y-100292375D01*
X164831669Y-100426290D01*
X164812750Y-100569999D01*
X156075500Y-100569999D01*
X156075500Y-99920999D01*
X171684750Y-99920999D01*
X171703669Y-100064709D01*
X171732500Y-100134313D01*
X171759139Y-100198625D01*
X171797450Y-100248552D01*
X171847378Y-100313621D01*
X171862208Y-100325000D01*
X171962375Y-100401861D01*
X172057067Y-100441083D01*
X172096290Y-100457330D01*
X172113008Y-100459531D01*
X172240000Y-100476250D01*
X172383709Y-100457330D01*
X172517625Y-100401861D01*
X172617792Y-100325000D01*
X176019352Y-100325000D01*
X176039834Y-100467455D01*
X176059368Y-100510229D01*
X176099623Y-100598373D01*
X176193872Y-100707143D01*
X176193874Y-100707145D01*
X176314945Y-100784952D01*
X176314947Y-100784953D01*
X176453039Y-100825500D01*
X176596961Y-100825500D01*
X176735053Y-100784953D01*
X176856128Y-100707143D01*
X176950377Y-100598373D01*
X177010165Y-100467457D01*
X177030647Y-100325000D01*
X177294352Y-100325000D01*
X177314834Y-100467455D01*
X177334368Y-100510229D01*
X177374623Y-100598373D01*
X177468872Y-100707143D01*
X177468874Y-100707145D01*
X177589945Y-100784952D01*
X177589947Y-100784953D01*
X177728039Y-100825500D01*
X177871961Y-100825500D01*
X178010053Y-100784953D01*
X178131128Y-100707143D01*
X178225377Y-100598373D01*
X178285165Y-100467457D01*
X178305647Y-100325000D01*
X178569352Y-100325000D01*
X178589834Y-100467455D01*
X178609368Y-100510229D01*
X178649623Y-100598373D01*
X178743872Y-100707143D01*
X178743874Y-100707145D01*
X178864945Y-100784952D01*
X178864947Y-100784953D01*
X179003039Y-100825500D01*
X179146961Y-100825500D01*
X179285053Y-100784953D01*
X179406128Y-100707143D01*
X179500377Y-100598373D01*
X179560165Y-100467457D01*
X179580647Y-100325000D01*
X179560165Y-100182543D01*
X179500377Y-100051627D01*
X179406128Y-99942857D01*
X179406127Y-99942856D01*
X179406125Y-99942854D01*
X179285054Y-99865047D01*
X179146961Y-99824500D01*
X179003039Y-99824500D01*
X178864945Y-99865047D01*
X178743874Y-99942854D01*
X178649622Y-100051628D01*
X178589834Y-100182544D01*
X178569352Y-100325000D01*
X178305647Y-100325000D01*
X178285165Y-100182543D01*
X178225377Y-100051627D01*
X178131128Y-99942857D01*
X178131127Y-99942856D01*
X178131125Y-99942854D01*
X178010054Y-99865047D01*
X177871961Y-99824500D01*
X177728039Y-99824500D01*
X177589945Y-99865047D01*
X177468874Y-99942854D01*
X177374622Y-100051628D01*
X177314834Y-100182544D01*
X177294352Y-100325000D01*
X177030647Y-100325000D01*
X177010165Y-100182543D01*
X176950377Y-100051627D01*
X176856128Y-99942857D01*
X176856127Y-99942856D01*
X176856125Y-99942854D01*
X176735054Y-99865047D01*
X176596961Y-99824500D01*
X176453039Y-99824500D01*
X176314945Y-99865047D01*
X176193874Y-99942854D01*
X176099622Y-100051628D01*
X176039834Y-100182544D01*
X176019352Y-100325000D01*
X172617792Y-100325000D01*
X172632621Y-100313621D01*
X172720861Y-100198625D01*
X172776330Y-100064709D01*
X172795250Y-99921000D01*
X172776330Y-99777291D01*
X172720861Y-99643375D01*
X172670932Y-99578306D01*
X172632621Y-99528378D01*
X172567552Y-99478450D01*
X172517625Y-99440139D01*
X172478401Y-99423892D01*
X172383709Y-99384669D01*
X172240000Y-99365750D01*
X172096290Y-99384669D01*
X171962375Y-99440139D01*
X171847378Y-99528378D01*
X171759139Y-99643375D01*
X171703669Y-99777290D01*
X171684750Y-99920999D01*
X156075500Y-99920999D01*
X156075500Y-96519999D01*
X157394340Y-96519999D01*
X157414936Y-96755405D01*
X157476098Y-96983667D01*
X157575963Y-97197826D01*
X157575964Y-97197827D01*
X157575965Y-97197829D01*
X157711505Y-97391401D01*
X157878599Y-97558495D01*
X158072171Y-97694035D01*
X158072172Y-97694035D01*
X158072173Y-97694036D01*
X158286332Y-97793901D01*
X158286333Y-97793901D01*
X158286337Y-97793903D01*
X158514592Y-97855063D01*
X158585168Y-97861237D01*
X158691031Y-97870500D01*
X158691034Y-97870500D01*
X158808966Y-97870500D01*
X158808969Y-97870500D01*
X158897186Y-97862781D01*
X158985408Y-97855063D01*
X159213663Y-97793903D01*
X159427829Y-97694035D01*
X159621401Y-97558495D01*
X159788495Y-97391401D01*
X159924035Y-97197830D01*
X159981253Y-97075125D01*
X169657850Y-97075125D01*
X169676769Y-97218834D01*
X169715992Y-97313526D01*
X169732239Y-97352750D01*
X169761894Y-97391397D01*
X169820478Y-97467746D01*
X169870406Y-97506057D01*
X169935475Y-97555986D01*
X170030167Y-97595208D01*
X170069390Y-97611455D01*
X170086108Y-97613656D01*
X170213100Y-97630375D01*
X170356809Y-97611455D01*
X170490725Y-97555986D01*
X170605721Y-97467746D01*
X170693961Y-97352750D01*
X170749430Y-97218834D01*
X170768350Y-97075125D01*
X170749430Y-96931416D01*
X170724281Y-96870700D01*
X171656750Y-96870700D01*
X171675669Y-97014409D01*
X171700819Y-97075125D01*
X171731139Y-97148325D01*
X171769123Y-97197826D01*
X171819378Y-97263321D01*
X171869306Y-97301632D01*
X171934375Y-97351561D01*
X172029067Y-97390783D01*
X172068290Y-97407030D01*
X172085008Y-97409231D01*
X172212000Y-97425950D01*
X172355709Y-97407030D01*
X172489625Y-97351561D01*
X172604621Y-97263321D01*
X172692861Y-97148325D01*
X172748330Y-97014409D01*
X172767250Y-96870700D01*
X172748330Y-96726991D01*
X172692861Y-96593075D01*
X172636692Y-96519875D01*
X172604621Y-96478078D01*
X172499125Y-96397129D01*
X172489625Y-96389839D01*
X172450401Y-96373592D01*
X172355709Y-96334369D01*
X172212000Y-96315450D01*
X172068290Y-96334369D01*
X171934375Y-96389839D01*
X171819378Y-96478078D01*
X171731139Y-96593075D01*
X171675669Y-96726990D01*
X171656750Y-96870700D01*
X170724281Y-96870700D01*
X170693961Y-96797500D01*
X170639857Y-96726991D01*
X170605721Y-96682503D01*
X170540652Y-96632575D01*
X170490725Y-96594264D01*
X170451501Y-96578017D01*
X170356809Y-96538794D01*
X170213100Y-96519875D01*
X170069390Y-96538794D01*
X169935475Y-96594264D01*
X169820478Y-96682503D01*
X169732239Y-96797500D01*
X169676769Y-96931415D01*
X169657850Y-97075125D01*
X159981253Y-97075125D01*
X160023903Y-96983663D01*
X160085063Y-96755408D01*
X160105659Y-96520000D01*
X160085063Y-96284592D01*
X160023903Y-96056337D01*
X159944007Y-95885000D01*
X177044750Y-95885000D01*
X177063669Y-96028709D01*
X177102892Y-96123401D01*
X177119139Y-96162625D01*
X177165344Y-96222841D01*
X177207376Y-96277618D01*
X177207377Y-96277619D01*
X177207379Y-96277621D01*
X177260769Y-96318588D01*
X177289290Y-96353342D01*
X177299500Y-96397129D01*
X177299500Y-98540835D01*
X177296902Y-98556755D01*
X177299394Y-98610642D01*
X177299500Y-98615214D01*
X177299500Y-98633846D01*
X177299521Y-98633958D01*
X177301101Y-98647578D01*
X177302414Y-98675991D01*
X177306384Y-98684982D01*
X177313132Y-98706773D01*
X177314938Y-98716432D01*
X177329911Y-98740616D01*
X177336300Y-98752736D01*
X177347794Y-98778765D01*
X177347795Y-98778766D01*
X177354743Y-98785715D01*
X177368910Y-98803600D01*
X177374081Y-98811953D01*
X177396772Y-98829087D01*
X177407117Y-98838088D01*
X177712887Y-99143858D01*
X177722308Y-99156952D01*
X177762177Y-99193298D01*
X177765482Y-99196454D01*
X177778652Y-99209624D01*
X177778746Y-99209688D01*
X177789490Y-99218197D01*
X177810518Y-99237367D01*
X177819681Y-99240916D01*
X177839864Y-99251554D01*
X177847970Y-99257107D01*
X177875662Y-99263620D01*
X177888749Y-99267673D01*
X177915278Y-99277951D01*
X177925103Y-99277951D01*
X177947768Y-99280580D01*
X177957332Y-99282830D01*
X177985504Y-99278899D01*
X177999182Y-99277951D01*
X178622445Y-99277951D01*
X178663571Y-99286897D01*
X178697264Y-99312119D01*
X178705323Y-99321419D01*
X178803744Y-99384670D01*
X178814302Y-99391455D01*
X178938599Y-99427951D01*
X179068143Y-99427951D01*
X179192440Y-99391455D01*
X179301420Y-99321418D01*
X179373182Y-99238597D01*
X179386254Y-99223513D01*
X179440068Y-99105678D01*
X179458504Y-98977450D01*
X179440068Y-98849223D01*
X179386254Y-98731388D01*
X179301421Y-98633485D01*
X179301420Y-98633484D01*
X179192935Y-98563765D01*
X179192439Y-98563446D01*
X179068143Y-98526951D01*
X178938599Y-98526951D01*
X178814300Y-98563447D01*
X178705323Y-98633482D01*
X178697264Y-98642783D01*
X178663571Y-98668005D01*
X178622445Y-98676951D01*
X178136930Y-98676951D01*
X178099044Y-98669415D01*
X178066926Y-98647955D01*
X177929496Y-98510525D01*
X177908036Y-98478407D01*
X177900500Y-98440521D01*
X177900500Y-96397129D01*
X177910710Y-96353342D01*
X177939230Y-96318588D01*
X177992621Y-96277621D01*
X178080861Y-96162625D01*
X178136330Y-96028709D01*
X178155250Y-95885000D01*
X178136330Y-95741291D01*
X178080861Y-95607375D01*
X178030932Y-95542306D01*
X177992621Y-95492378D01*
X177915842Y-95433464D01*
X177877625Y-95404139D01*
X177838401Y-95387892D01*
X177743709Y-95348669D01*
X177600000Y-95329750D01*
X177456290Y-95348669D01*
X177322375Y-95404139D01*
X177207378Y-95492378D01*
X177119139Y-95607375D01*
X177063669Y-95741290D01*
X177044750Y-95885000D01*
X159944007Y-95885000D01*
X159924035Y-95842171D01*
X159788495Y-95648599D01*
X159621401Y-95481505D01*
X159505890Y-95400624D01*
X159427826Y-95345963D01*
X159213667Y-95246098D01*
X158985405Y-95184936D01*
X158808969Y-95169500D01*
X158808966Y-95169500D01*
X158691034Y-95169500D01*
X158691031Y-95169500D01*
X158514594Y-95184936D01*
X158286332Y-95246098D01*
X158072173Y-95345963D01*
X157878602Y-95481502D01*
X157711502Y-95648602D01*
X157575963Y-95842172D01*
X157476098Y-96056332D01*
X157414936Y-96284594D01*
X157394340Y-96519999D01*
X156075500Y-96519999D01*
X156075500Y-95123000D01*
X179276750Y-95123000D01*
X179295669Y-95266709D01*
X179328498Y-95345965D01*
X179351139Y-95400625D01*
X179389450Y-95450552D01*
X179439378Y-95515621D01*
X179489306Y-95553932D01*
X179554375Y-95603861D01*
X179649067Y-95643083D01*
X179688290Y-95659330D01*
X179705008Y-95661531D01*
X179832000Y-95678250D01*
X179975709Y-95659330D01*
X180109625Y-95603861D01*
X180224621Y-95515621D01*
X180224620Y-95515621D01*
X180261458Y-95467615D01*
X180310230Y-95433464D01*
X180369770Y-95433464D01*
X180418542Y-95467615D01*
X180455378Y-95515621D01*
X180505306Y-95553932D01*
X180570375Y-95603861D01*
X180665067Y-95643083D01*
X180704290Y-95659330D01*
X180721008Y-95661531D01*
X180848000Y-95678250D01*
X180991709Y-95659330D01*
X181125625Y-95603861D01*
X181240621Y-95515621D01*
X181240620Y-95515621D01*
X181277458Y-95467615D01*
X181326230Y-95433464D01*
X181385770Y-95433464D01*
X181434542Y-95467615D01*
X181471378Y-95515621D01*
X181521306Y-95553932D01*
X181586375Y-95603861D01*
X181681067Y-95643083D01*
X181720290Y-95659330D01*
X181737008Y-95661531D01*
X181864000Y-95678250D01*
X182007709Y-95659330D01*
X182141625Y-95603861D01*
X182256621Y-95515621D01*
X182344861Y-95400625D01*
X182400330Y-95266709D01*
X182419250Y-95123000D01*
X182400330Y-94979291D01*
X182344861Y-94845375D01*
X182294932Y-94780306D01*
X182256621Y-94730378D01*
X182191552Y-94680450D01*
X182141625Y-94642139D01*
X182102401Y-94625892D01*
X182007709Y-94586669D01*
X181864000Y-94567750D01*
X181720290Y-94586669D01*
X181586375Y-94642139D01*
X181471378Y-94730378D01*
X181434542Y-94778385D01*
X181385770Y-94812536D01*
X181326230Y-94812536D01*
X181277458Y-94778385D01*
X181240621Y-94730378D01*
X181175552Y-94680450D01*
X181125625Y-94642139D01*
X181086401Y-94625892D01*
X180991709Y-94586669D01*
X180848000Y-94567750D01*
X180704290Y-94586669D01*
X180570375Y-94642139D01*
X180455378Y-94730378D01*
X180418542Y-94778385D01*
X180369770Y-94812536D01*
X180310230Y-94812536D01*
X180261458Y-94778385D01*
X180224621Y-94730378D01*
X180159552Y-94680450D01*
X180109625Y-94642139D01*
X180070401Y-94625892D01*
X179975709Y-94586669D01*
X179832000Y-94567750D01*
X179688290Y-94586669D01*
X179554375Y-94642139D01*
X179439378Y-94730378D01*
X179351139Y-94845375D01*
X179295669Y-94979290D01*
X179276750Y-95123000D01*
X156075500Y-95123000D01*
X156075500Y-93827998D01*
X165215852Y-93827998D01*
X165234771Y-93971707D01*
X165273994Y-94066399D01*
X165290241Y-94105623D01*
X165304116Y-94123705D01*
X165378480Y-94220619D01*
X165426701Y-94257620D01*
X165493477Y-94308859D01*
X165588169Y-94348081D01*
X165627392Y-94364328D01*
X165644110Y-94366529D01*
X165771102Y-94383248D01*
X165914811Y-94364328D01*
X166048727Y-94308859D01*
X166163723Y-94220619D01*
X166251963Y-94105623D01*
X166303999Y-93979996D01*
X189690752Y-93979996D01*
X189709671Y-94123705D01*
X189748894Y-94218397D01*
X189765141Y-94257621D01*
X189803452Y-94307548D01*
X189853380Y-94372617D01*
X189903308Y-94410928D01*
X189968377Y-94460857D01*
X190063069Y-94500079D01*
X190102292Y-94516326D01*
X190119010Y-94518527D01*
X190246002Y-94535246D01*
X190389711Y-94516326D01*
X190523627Y-94460857D01*
X190638623Y-94372617D01*
X190726863Y-94257621D01*
X190782332Y-94123705D01*
X190801252Y-93979996D01*
X190782332Y-93836287D01*
X190726863Y-93702371D01*
X190676934Y-93637302D01*
X190638623Y-93587374D01*
X190573554Y-93537446D01*
X190523627Y-93499135D01*
X190484403Y-93482888D01*
X190389711Y-93443665D01*
X190246002Y-93424746D01*
X190102292Y-93443665D01*
X189968377Y-93499135D01*
X189853380Y-93587374D01*
X189765141Y-93702371D01*
X189709671Y-93836286D01*
X189690752Y-93979996D01*
X166303999Y-93979996D01*
X166307432Y-93971707D01*
X166326352Y-93827998D01*
X166307432Y-93684289D01*
X166251963Y-93550373D01*
X166202034Y-93485304D01*
X166163723Y-93435376D01*
X166098654Y-93385448D01*
X166048727Y-93347137D01*
X166009503Y-93330890D01*
X165914811Y-93291667D01*
X165771102Y-93272748D01*
X165627392Y-93291667D01*
X165493477Y-93347137D01*
X165378480Y-93435376D01*
X165290241Y-93550373D01*
X165234771Y-93684288D01*
X165215852Y-93827998D01*
X156075500Y-93827998D01*
X156075500Y-91948000D01*
X173815750Y-91948000D01*
X173834669Y-92091709D01*
X173864415Y-92163521D01*
X173890139Y-92225625D01*
X173928450Y-92275552D01*
X173978378Y-92340621D01*
X174000153Y-92357329D01*
X174093375Y-92428861D01*
X174188067Y-92468083D01*
X174227290Y-92484330D01*
X174244008Y-92486531D01*
X174371000Y-92503250D01*
X174514709Y-92484330D01*
X174648625Y-92428861D01*
X174763621Y-92340621D01*
X174793364Y-92301860D01*
X174800458Y-92292615D01*
X174849230Y-92258464D01*
X174908770Y-92258464D01*
X174957542Y-92292615D01*
X174994378Y-92340621D01*
X175016153Y-92357329D01*
X175109375Y-92428861D01*
X175204067Y-92468083D01*
X175243290Y-92484330D01*
X175260008Y-92486531D01*
X175387000Y-92503250D01*
X175530709Y-92484330D01*
X175664625Y-92428861D01*
X175779621Y-92340621D01*
X175809364Y-92301860D01*
X175816458Y-92292615D01*
X175865230Y-92258464D01*
X175924770Y-92258464D01*
X175973542Y-92292615D01*
X176010378Y-92340621D01*
X176032153Y-92357329D01*
X176125375Y-92428861D01*
X176220067Y-92468083D01*
X176259290Y-92484330D01*
X176276008Y-92486531D01*
X176403000Y-92503250D01*
X176546709Y-92484330D01*
X176680625Y-92428861D01*
X176795621Y-92340621D01*
X176825364Y-92301860D01*
X176832458Y-92292615D01*
X176881230Y-92258464D01*
X176940770Y-92258464D01*
X176989542Y-92292615D01*
X177026378Y-92340621D01*
X177048153Y-92357329D01*
X177141375Y-92428861D01*
X177236067Y-92468083D01*
X177275290Y-92484330D01*
X177292008Y-92486531D01*
X177419000Y-92503250D01*
X177562709Y-92484330D01*
X177696625Y-92428861D01*
X177811621Y-92340621D01*
X177899861Y-92225625D01*
X177955330Y-92091709D01*
X177974250Y-91948000D01*
X177955330Y-91804291D01*
X177899861Y-91670375D01*
X177849932Y-91605306D01*
X177811621Y-91555378D01*
X177746552Y-91505450D01*
X177696625Y-91467139D01*
X177657401Y-91450892D01*
X177562709Y-91411669D01*
X177419000Y-91392750D01*
X177275290Y-91411669D01*
X177141375Y-91467139D01*
X177026378Y-91555378D01*
X176989542Y-91603385D01*
X176940770Y-91637536D01*
X176881230Y-91637536D01*
X176832458Y-91603385D01*
X176795621Y-91555378D01*
X176730552Y-91505450D01*
X176680625Y-91467139D01*
X176641401Y-91450892D01*
X176546709Y-91411669D01*
X176403000Y-91392750D01*
X176259290Y-91411669D01*
X176125375Y-91467139D01*
X176010378Y-91555378D01*
X175973542Y-91603385D01*
X175924770Y-91637536D01*
X175865230Y-91637536D01*
X175816458Y-91603385D01*
X175779621Y-91555378D01*
X175714552Y-91505450D01*
X175664625Y-91467139D01*
X175625401Y-91450892D01*
X175530709Y-91411669D01*
X175387000Y-91392750D01*
X175243290Y-91411669D01*
X175109375Y-91467139D01*
X174994378Y-91555378D01*
X174957542Y-91603385D01*
X174908770Y-91637536D01*
X174849230Y-91637536D01*
X174800458Y-91603385D01*
X174763621Y-91555378D01*
X174698552Y-91505450D01*
X174648625Y-91467139D01*
X174609401Y-91450892D01*
X174514709Y-91411669D01*
X174371000Y-91392750D01*
X174227290Y-91411669D01*
X174093375Y-91467139D01*
X173978378Y-91555378D01*
X173890139Y-91670375D01*
X173834669Y-91804290D01*
X173815750Y-91948000D01*
X156075500Y-91948000D01*
X156075500Y-90272001D01*
X165215852Y-90272001D01*
X165234771Y-90415710D01*
X165267422Y-90494536D01*
X165290241Y-90549626D01*
X165328552Y-90599553D01*
X165378480Y-90664622D01*
X165428408Y-90702933D01*
X165493477Y-90752862D01*
X165588169Y-90792084D01*
X165627392Y-90808331D01*
X165644110Y-90810532D01*
X165771102Y-90827251D01*
X165914811Y-90808331D01*
X165922858Y-90804998D01*
X184102749Y-90804998D01*
X184121668Y-90948708D01*
X184149998Y-91017101D01*
X184177138Y-91082624D01*
X184202335Y-91115461D01*
X184265377Y-91197620D01*
X184313384Y-91234457D01*
X184347535Y-91283229D01*
X184347535Y-91342768D01*
X184313385Y-91391540D01*
X184265380Y-91428376D01*
X184177140Y-91543374D01*
X184121670Y-91677289D01*
X184102751Y-91820999D01*
X184121670Y-91964708D01*
X184150002Y-92033106D01*
X184177140Y-92098624D01*
X184202339Y-92131464D01*
X184265379Y-92213620D01*
X184315307Y-92251931D01*
X184380376Y-92301860D01*
X184473955Y-92340621D01*
X184514291Y-92357329D01*
X184531009Y-92359530D01*
X184658001Y-92376249D01*
X184801710Y-92357329D01*
X184935626Y-92301860D01*
X185050622Y-92213620D01*
X185087457Y-92165615D01*
X185136230Y-92131464D01*
X185195770Y-92131464D01*
X185244542Y-92165615D01*
X185281377Y-92213620D01*
X185331305Y-92251931D01*
X185396374Y-92301860D01*
X185489953Y-92340621D01*
X185530289Y-92357329D01*
X185547007Y-92359530D01*
X185673999Y-92376249D01*
X185817708Y-92357329D01*
X185951624Y-92301860D01*
X186066620Y-92213620D01*
X186154860Y-92098624D01*
X186210329Y-91964708D01*
X186229249Y-91820999D01*
X186210329Y-91677290D01*
X186154860Y-91543374D01*
X186066620Y-91428378D01*
X186044845Y-91411669D01*
X186018614Y-91391541D01*
X185984464Y-91342768D01*
X185984464Y-91283228D01*
X186018613Y-91234458D01*
X186066622Y-91197620D01*
X186154862Y-91082624D01*
X186210331Y-90948708D01*
X186229251Y-90804999D01*
X186210331Y-90661290D01*
X186154862Y-90527374D01*
X186103459Y-90460385D01*
X186066622Y-90412377D01*
X186001553Y-90362449D01*
X185951626Y-90324138D01*
X185912402Y-90307891D01*
X185817710Y-90268668D01*
X185674001Y-90249749D01*
X185530291Y-90268668D01*
X185396376Y-90324138D01*
X185281379Y-90412377D01*
X185244542Y-90460385D01*
X185195770Y-90494536D01*
X185136230Y-90494536D01*
X185087458Y-90460385D01*
X185050620Y-90412377D01*
X184985551Y-90362449D01*
X184935624Y-90324138D01*
X184896400Y-90307891D01*
X184801708Y-90268668D01*
X184657999Y-90249749D01*
X184514289Y-90268668D01*
X184380374Y-90324138D01*
X184265377Y-90412377D01*
X184177138Y-90527374D01*
X184121668Y-90661289D01*
X184102749Y-90804998D01*
X165922858Y-90804998D01*
X166048727Y-90752862D01*
X166163723Y-90664622D01*
X166251963Y-90549626D01*
X166307432Y-90415710D01*
X166326352Y-90272001D01*
X166307432Y-90128292D01*
X166251963Y-89994376D01*
X166202034Y-89929307D01*
X166163723Y-89879379D01*
X166098654Y-89829451D01*
X166048727Y-89791140D01*
X166009503Y-89774893D01*
X165914811Y-89735670D01*
X165771102Y-89716751D01*
X165627392Y-89735670D01*
X165493477Y-89791140D01*
X165378480Y-89879379D01*
X165290241Y-89994376D01*
X165234771Y-90128291D01*
X165215852Y-90272001D01*
X156075500Y-90272001D01*
X156075500Y-88315000D01*
X175466750Y-88315000D01*
X175485669Y-88458709D01*
X175524892Y-88553401D01*
X175541139Y-88592625D01*
X175579450Y-88642552D01*
X175629378Y-88707621D01*
X175679306Y-88745932D01*
X175744375Y-88795861D01*
X175839067Y-88835083D01*
X175878290Y-88851330D01*
X175895008Y-88853531D01*
X176022000Y-88870250D01*
X176165709Y-88851330D01*
X176299625Y-88795861D01*
X176414621Y-88707621D01*
X176502861Y-88592625D01*
X176558330Y-88458709D01*
X176577250Y-88315000D01*
X178514750Y-88315000D01*
X178533669Y-88458709D01*
X178572892Y-88553401D01*
X178589139Y-88592625D01*
X178627450Y-88642552D01*
X178677378Y-88707621D01*
X178727306Y-88745932D01*
X178792375Y-88795861D01*
X178887067Y-88835083D01*
X178926290Y-88851330D01*
X178943008Y-88853531D01*
X179070000Y-88870250D01*
X179213709Y-88851330D01*
X179347625Y-88795861D01*
X179462621Y-88707621D01*
X179550861Y-88592625D01*
X179606330Y-88458709D01*
X179625250Y-88315000D01*
X179606330Y-88171291D01*
X179606209Y-88171000D01*
X179585706Y-88121500D01*
X179550861Y-88037375D01*
X179500932Y-87972306D01*
X179462621Y-87922378D01*
X179397552Y-87872450D01*
X179347625Y-87834139D01*
X179308401Y-87817892D01*
X179213709Y-87778669D01*
X179070000Y-87759750D01*
X178926290Y-87778669D01*
X178792375Y-87834139D01*
X178677378Y-87922378D01*
X178589139Y-88037375D01*
X178533669Y-88171290D01*
X178514750Y-88315000D01*
X176577250Y-88315000D01*
X176558330Y-88171291D01*
X176558209Y-88171000D01*
X176537706Y-88121500D01*
X176502861Y-88037375D01*
X176452932Y-87972306D01*
X176414621Y-87922378D01*
X176349552Y-87872450D01*
X176299625Y-87834139D01*
X176260401Y-87817892D01*
X176165709Y-87778669D01*
X176022000Y-87759750D01*
X175878290Y-87778669D01*
X175744375Y-87834139D01*
X175629378Y-87922378D01*
X175541139Y-88037375D01*
X175485669Y-88171290D01*
X175466750Y-88315000D01*
X156075500Y-88315000D01*
X156075500Y-85330000D01*
X164812750Y-85330000D01*
X164831669Y-85473709D01*
X164870892Y-85568401D01*
X164887139Y-85607625D01*
X164925450Y-85657552D01*
X164975378Y-85722621D01*
X165018575Y-85755767D01*
X165090375Y-85810861D01*
X165185067Y-85850083D01*
X165224290Y-85866330D01*
X165241008Y-85868531D01*
X165368000Y-85885250D01*
X165511709Y-85866330D01*
X165645625Y-85810861D01*
X165760621Y-85722621D01*
X165848861Y-85607625D01*
X165904330Y-85473709D01*
X165923250Y-85330000D01*
X165904330Y-85186291D01*
X165896021Y-85166232D01*
X165874912Y-85115269D01*
X165848861Y-85052375D01*
X165797001Y-84984790D01*
X165760621Y-84937378D01*
X165695552Y-84887450D01*
X165645625Y-84849139D01*
X165576544Y-84820525D01*
X165511709Y-84793669D01*
X165368000Y-84774750D01*
X165224290Y-84793669D01*
X165090375Y-84849139D01*
X164975378Y-84937378D01*
X164887139Y-85052375D01*
X164831669Y-85186290D01*
X164812750Y-85330000D01*
X156075500Y-85330000D01*
X156075500Y-84455000D01*
X170513750Y-84455000D01*
X170532669Y-84598709D01*
X170560433Y-84665736D01*
X170588139Y-84732625D01*
X170620463Y-84774750D01*
X170676378Y-84847621D01*
X170726306Y-84885932D01*
X170791375Y-84935861D01*
X170886067Y-84975083D01*
X170925290Y-84991330D01*
X170942008Y-84993531D01*
X171069000Y-85010250D01*
X171212709Y-84991330D01*
X171346625Y-84935861D01*
X171461621Y-84847621D01*
X171549861Y-84732625D01*
X171605330Y-84598709D01*
X171624250Y-84455000D01*
X171612713Y-84367373D01*
X172779500Y-84367373D01*
X172794859Y-84493870D01*
X172794860Y-84493872D01*
X172855182Y-84652930D01*
X172922545Y-84750521D01*
X172951818Y-84792930D01*
X173079145Y-84905733D01*
X173139440Y-84937378D01*
X173229775Y-84984790D01*
X173312359Y-85005145D01*
X173394943Y-85025500D01*
X173394944Y-85025500D01*
X173565056Y-85025500D01*
X173565057Y-85025500D01*
X173626928Y-85010250D01*
X173730225Y-84984790D01*
X173880852Y-84905734D01*
X173880851Y-84905734D01*
X173880854Y-84905733D01*
X173946448Y-84847621D01*
X174008183Y-84792929D01*
X174104818Y-84652930D01*
X174165140Y-84493872D01*
X174175380Y-84409538D01*
X174180500Y-84367373D01*
X174180500Y-83485391D01*
X174195089Y-83433664D01*
X174234555Y-83397181D01*
X174287267Y-83386696D01*
X174337691Y-83405298D01*
X174370964Y-83447505D01*
X174407302Y-83535233D01*
X174499548Y-83655451D01*
X174588504Y-83723709D01*
X174619767Y-83747698D01*
X174759763Y-83805686D01*
X174759764Y-83805687D01*
X174872279Y-83820500D01*
X174872280Y-83820500D01*
X174947720Y-83820500D01*
X174947721Y-83820500D01*
X175003977Y-83813093D01*
X175060236Y-83805687D01*
X175200233Y-83747698D01*
X175320451Y-83655451D01*
X175412698Y-83535233D01*
X175470687Y-83395236D01*
X175490466Y-83245000D01*
X180109534Y-83245000D01*
X180129312Y-83395235D01*
X180187302Y-83535233D01*
X180279548Y-83655451D01*
X180368504Y-83723709D01*
X180399767Y-83747698D01*
X180539763Y-83805686D01*
X180539764Y-83805687D01*
X180652279Y-83820500D01*
X180652280Y-83820500D01*
X180727720Y-83820500D01*
X180727721Y-83820500D01*
X180783977Y-83813093D01*
X180840236Y-83805687D01*
X180980233Y-83747698D01*
X181100451Y-83655451D01*
X181192698Y-83535233D01*
X181229036Y-83447504D01*
X181262309Y-83405298D01*
X181312733Y-83386696D01*
X181365445Y-83397181D01*
X181404911Y-83433664D01*
X181419500Y-83485391D01*
X181419500Y-84367373D01*
X181434859Y-84493870D01*
X181434860Y-84493872D01*
X181495182Y-84652930D01*
X181562545Y-84750521D01*
X181591818Y-84792930D01*
X181719145Y-84905733D01*
X181779440Y-84937378D01*
X181869775Y-84984790D01*
X181952359Y-85005145D01*
X182034943Y-85025500D01*
X182034944Y-85025500D01*
X182205056Y-85025500D01*
X182205057Y-85025500D01*
X182266928Y-85010250D01*
X182370225Y-84984790D01*
X182520852Y-84905734D01*
X182520851Y-84905734D01*
X182520854Y-84905733D01*
X182586448Y-84847621D01*
X182648183Y-84792929D01*
X182744818Y-84652930D01*
X182805140Y-84493872D01*
X182809860Y-84455000D01*
X183975750Y-84455000D01*
X183994669Y-84598709D01*
X184022433Y-84665736D01*
X184050139Y-84732625D01*
X184082463Y-84774750D01*
X184138378Y-84847621D01*
X184188306Y-84885932D01*
X184253375Y-84935861D01*
X184348067Y-84975083D01*
X184387290Y-84991330D01*
X184404008Y-84993531D01*
X184531000Y-85010250D01*
X184674709Y-84991330D01*
X184808625Y-84935861D01*
X184923621Y-84847621D01*
X185011861Y-84732625D01*
X185067330Y-84598709D01*
X185086250Y-84455000D01*
X185067330Y-84311291D01*
X185011861Y-84177375D01*
X184961932Y-84112306D01*
X184923621Y-84062378D01*
X184822865Y-83985066D01*
X184808625Y-83974139D01*
X184769401Y-83957892D01*
X184674709Y-83918669D01*
X184531000Y-83899750D01*
X184387290Y-83918669D01*
X184253375Y-83974139D01*
X184138378Y-84062378D01*
X184050139Y-84177375D01*
X183994669Y-84311290D01*
X183975750Y-84455000D01*
X182809860Y-84455000D01*
X182815380Y-84409538D01*
X182820500Y-84367373D01*
X182820500Y-83580000D01*
X189676750Y-83580000D01*
X189695669Y-83723709D01*
X189721905Y-83787047D01*
X189751139Y-83857625D01*
X189783463Y-83899750D01*
X189839378Y-83972621D01*
X189889306Y-84010932D01*
X189954375Y-84060861D01*
X190049067Y-84100083D01*
X190088290Y-84116330D01*
X190105008Y-84118531D01*
X190232000Y-84135250D01*
X190375709Y-84116330D01*
X190509625Y-84060861D01*
X190624621Y-83972621D01*
X190712861Y-83857625D01*
X190768330Y-83723709D01*
X190787250Y-83580000D01*
X190768330Y-83436291D01*
X190755492Y-83405298D01*
X190747787Y-83386696D01*
X190712861Y-83302375D01*
X190652909Y-83224244D01*
X190624621Y-83187378D01*
X190556902Y-83135416D01*
X190509625Y-83099139D01*
X190467021Y-83081492D01*
X190375709Y-83043669D01*
X190232000Y-83024750D01*
X190088290Y-83043669D01*
X189954375Y-83099139D01*
X189839378Y-83187378D01*
X189751139Y-83302375D01*
X189695669Y-83436290D01*
X189676750Y-83580000D01*
X182820500Y-83580000D01*
X182820500Y-83182627D01*
X182810860Y-83103236D01*
X182805140Y-83056128D01*
X182744818Y-82897070D01*
X182648183Y-82757071D01*
X182648181Y-82757069D01*
X182520854Y-82644266D01*
X182370223Y-82565209D01*
X182205057Y-82524500D01*
X182205056Y-82524500D01*
X182034944Y-82524500D01*
X182034943Y-82524500D01*
X181869776Y-82565209D01*
X181719145Y-82644266D01*
X181591818Y-82757069D01*
X181591816Y-82757071D01*
X181591817Y-82757071D01*
X181495182Y-82897070D01*
X181445429Y-83028261D01*
X181430598Y-83067367D01*
X181430216Y-83067222D01*
X181415675Y-83103242D01*
X181375088Y-83134841D01*
X181324124Y-83141810D01*
X181276543Y-83122269D01*
X181245190Y-83081493D01*
X181192698Y-82954767D01*
X181171234Y-82926795D01*
X181100451Y-82834548D01*
X180980233Y-82742302D01*
X180840235Y-82684312D01*
X180727721Y-82669500D01*
X180727720Y-82669500D01*
X180652280Y-82669500D01*
X180652279Y-82669500D01*
X180539764Y-82684312D01*
X180399766Y-82742302D01*
X180279548Y-82834548D01*
X180187302Y-82954766D01*
X180129312Y-83094764D01*
X180109534Y-83245000D01*
X175490466Y-83245000D01*
X175470687Y-83094764D01*
X175412698Y-82954767D01*
X175391234Y-82926795D01*
X175320451Y-82834548D01*
X175200233Y-82742302D01*
X175060235Y-82684312D01*
X174947721Y-82669500D01*
X174947720Y-82669500D01*
X174872280Y-82669500D01*
X174872279Y-82669500D01*
X174759764Y-82684312D01*
X174619766Y-82742302D01*
X174499548Y-82834548D01*
X174407302Y-82954766D01*
X174354810Y-83081492D01*
X174323454Y-83122270D01*
X174275871Y-83141811D01*
X174224906Y-83134839D01*
X174184319Y-83103236D01*
X174169783Y-83067222D01*
X174169402Y-83067367D01*
X174156955Y-83034546D01*
X174104818Y-82897070D01*
X174008183Y-82757071D01*
X174008181Y-82757069D01*
X173880854Y-82644266D01*
X173730223Y-82565209D01*
X173565057Y-82524500D01*
X173565056Y-82524500D01*
X173394944Y-82524500D01*
X173394943Y-82524500D01*
X173229776Y-82565209D01*
X173079145Y-82644266D01*
X172951818Y-82757069D01*
X172855182Y-82897070D01*
X172794859Y-83056129D01*
X172779500Y-83182627D01*
X172779500Y-84367373D01*
X171612713Y-84367373D01*
X171605330Y-84311291D01*
X171549861Y-84177375D01*
X171499932Y-84112306D01*
X171461621Y-84062378D01*
X171360865Y-83985066D01*
X171346625Y-83974139D01*
X171307401Y-83957892D01*
X171212709Y-83918669D01*
X171069000Y-83899750D01*
X170925290Y-83918669D01*
X170791375Y-83974139D01*
X170676378Y-84062378D01*
X170588139Y-84177375D01*
X170532669Y-84311290D01*
X170513750Y-84455000D01*
X156075500Y-84455000D01*
X156075500Y-79937373D01*
X172779500Y-79937373D01*
X172794859Y-80063870D01*
X172794860Y-80063872D01*
X172855182Y-80222930D01*
X172951817Y-80362929D01*
X172951818Y-80362930D01*
X173079145Y-80475733D01*
X173157864Y-80517048D01*
X173229775Y-80554790D01*
X173312359Y-80575144D01*
X173394943Y-80595500D01*
X173394944Y-80595500D01*
X173565056Y-80595500D01*
X173565057Y-80595500D01*
X173620112Y-80581929D01*
X173730225Y-80554790D01*
X173880852Y-80475734D01*
X173880851Y-80475734D01*
X173880854Y-80475733D01*
X173944517Y-80419331D01*
X174008183Y-80362929D01*
X174104818Y-80222930D01*
X174165140Y-80063872D01*
X174180500Y-79937373D01*
X181419500Y-79937373D01*
X181434859Y-80063870D01*
X181434860Y-80063872D01*
X181495182Y-80222930D01*
X181591817Y-80362929D01*
X181591818Y-80362930D01*
X181719145Y-80475733D01*
X181797864Y-80517048D01*
X181869775Y-80554790D01*
X181952359Y-80575144D01*
X182034943Y-80595500D01*
X182034944Y-80595500D01*
X182205056Y-80595500D01*
X182205057Y-80595500D01*
X182260112Y-80581929D01*
X182370225Y-80554790D01*
X182520852Y-80475734D01*
X182520851Y-80475734D01*
X182520854Y-80475733D01*
X182584517Y-80419331D01*
X182648183Y-80362929D01*
X182744818Y-80222930D01*
X182805140Y-80063872D01*
X182820500Y-79937372D01*
X182820500Y-79252628D01*
X182805140Y-79126128D01*
X182744818Y-78967070D01*
X182648183Y-78827071D01*
X182648181Y-78827069D01*
X182520854Y-78714266D01*
X182370223Y-78635209D01*
X182205057Y-78594500D01*
X182205056Y-78594500D01*
X182034944Y-78594500D01*
X182034943Y-78594500D01*
X181869776Y-78635209D01*
X181719145Y-78714266D01*
X181591818Y-78827069D01*
X181495182Y-78967070D01*
X181434859Y-79126129D01*
X181419500Y-79252627D01*
X181419500Y-79937373D01*
X174180500Y-79937373D01*
X174180500Y-79937372D01*
X174180500Y-79252628D01*
X174165140Y-79126128D01*
X174104818Y-78967070D01*
X174008183Y-78827071D01*
X174008181Y-78827069D01*
X173880854Y-78714266D01*
X173730223Y-78635209D01*
X173565057Y-78594500D01*
X173565056Y-78594500D01*
X173394944Y-78594500D01*
X173394943Y-78594500D01*
X173229776Y-78635209D01*
X173079145Y-78714266D01*
X172951818Y-78827069D01*
X172855182Y-78967070D01*
X172794859Y-79126129D01*
X172779500Y-79252627D01*
X172779500Y-79937373D01*
X156075500Y-79937373D01*
X156075500Y-79377773D01*
X156075656Y-79372222D01*
X156082372Y-79252627D01*
X156092005Y-79081095D01*
X156093248Y-79070069D01*
X156110748Y-78967070D01*
X156141626Y-78785334D01*
X156144087Y-78774548D01*
X156224048Y-78496999D01*
X156227708Y-78486540D01*
X156338235Y-78219705D01*
X156343049Y-78209710D01*
X156482751Y-77956937D01*
X156488647Y-77947554D01*
X156655784Y-77711998D01*
X156662683Y-77703346D01*
X156855154Y-77487970D01*
X156862970Y-77480154D01*
X157078346Y-77287683D01*
X157086998Y-77280784D01*
X157322554Y-77113647D01*
X157331937Y-77107751D01*
X157584716Y-76968046D01*
X157594705Y-76963235D01*
X157861540Y-76852708D01*
X157871999Y-76849048D01*
X158149548Y-76769087D01*
X158160334Y-76766626D01*
X158445076Y-76718247D01*
X158456095Y-76717005D01*
X158747222Y-76700655D01*
X158752773Y-76700500D01*
X158815892Y-76700500D01*
X196784108Y-76700500D01*
X196847227Y-76700500D01*
X196852777Y-76700655D01*
G37*
%TD.AperFunction*%
%TD*%
M02*
