%TF.GenerationSoftware,KiCad,Pcbnew,7.0.1*%
%TF.CreationDate,2023-05-11T20:00:59+01:00*%
%TF.ProjectId,MoonPad,4d6f6f6e-5061-4642-9e6b-696361645f70,rev?*%
%TF.SameCoordinates,Original*%
%TF.FileFunction,Plated,1,4,PTH,Mixed*%
%TF.FilePolarity,Positive*%
%FSLAX46Y46*%
G04 Gerber Fmt 4.6, Leading zero omitted, Abs format (unit mm)*
G04 Created by KiCad (PCBNEW 7.0.1) date 2023-05-11 20:00:59*
%MOMM*%
%LPD*%
G01*
G04 APERTURE LIST*
%TA.AperFunction,ViaDrill*%
%ADD10C,0.300000*%
%TD*%
%TA.AperFunction,ComponentDrill*%
%ADD11C,0.350000*%
%TD*%
G04 aperture for slot hole*
%TA.AperFunction,ComponentDrill*%
%ADD12O,0.600000X1.200000*%
%TD*%
G04 aperture for slot hole*
%TA.AperFunction,ComponentDrill*%
%ADD13O,0.600000X1.700000*%
%TD*%
%TA.AperFunction,ComponentDrill*%
%ADD14C,1.000000*%
%TD*%
G04 APERTURE END LIST*
D10*
X162560000Y-110363000D03*
X162560000Y-111252000D03*
X165368000Y-85330000D03*
X165368000Y-100570000D03*
X165481000Y-105410000D03*
X165771102Y-90272001D03*
X165771102Y-93827998D03*
X170213100Y-97075125D03*
X170240000Y-108894135D03*
X171069000Y-83566000D03*
X171069000Y-84455000D03*
X171069000Y-98806000D03*
X171069000Y-107188000D03*
X171196000Y-105283000D03*
X171958000Y-103505000D03*
X172212000Y-96870700D03*
X172240000Y-99921000D03*
X172466000Y-101600000D03*
X174371000Y-91948000D03*
X175310800Y-85775800D03*
X175387000Y-91948000D03*
X175895000Y-83312000D03*
X176022000Y-88315000D03*
X176403000Y-91948000D03*
X176437289Y-106070887D03*
X177419000Y-91948000D03*
X177600000Y-95885000D03*
X179003371Y-98977451D03*
X179070000Y-88315000D03*
X179705000Y-83312000D03*
X179832000Y-95123000D03*
X180213000Y-110363000D03*
X180263800Y-85775800D03*
X180848000Y-95123000D03*
X181864000Y-95123000D03*
X182176900Y-99998100D03*
X182245000Y-103505000D03*
X182245000Y-106807000D03*
X182753000Y-104002018D03*
X182880000Y-111252000D03*
X182880000Y-112103903D03*
X183134000Y-101628000D03*
X183360000Y-99794000D03*
X183642000Y-107950000D03*
X184404000Y-107188000D03*
X184531000Y-84455000D03*
X184531000Y-85344000D03*
X184657999Y-90804999D03*
X184658001Y-91820999D03*
X185293001Y-99822001D03*
X185293002Y-102362000D03*
X185673999Y-91820999D03*
X185674001Y-90804999D03*
X188671200Y-103174800D03*
X188722000Y-92329000D03*
X189260000Y-97947000D03*
X190119000Y-105410000D03*
X190232000Y-83580000D03*
X190246000Y-92328997D03*
X190246000Y-94995996D03*
X190246001Y-90804999D03*
X190246002Y-93979996D03*
X190560000Y-108894135D03*
D11*
%TO.C,U3*%
X176525000Y-100325000D03*
X176525000Y-101600000D03*
X176525000Y-102875000D03*
X177800000Y-100325000D03*
X177800000Y-101600000D03*
X177800000Y-102875000D03*
X179075000Y-100325000D03*
X179075000Y-101600000D03*
X179075000Y-102875000D03*
D12*
%TO.C,J3*%
X173480000Y-79595000D03*
D13*
X173480000Y-83775000D03*
D12*
X182120000Y-79595000D03*
D13*
X182120000Y-83775000D03*
D14*
%TO.C,J1*%
X195072000Y-81651000D03*
X195072000Y-84191000D03*
X195072000Y-86731000D03*
X195072000Y-89271000D03*
M02*
