%TF.GenerationSoftware,KiCad,Pcbnew,7.0.1*%
%TF.CreationDate,2023-05-12T00:47:34+01:00*%
%TF.ProjectId,MoonPad,4d6f6f6e-5061-4642-9e6b-696361645f70,rev?*%
%TF.SameCoordinates,Original*%
%TF.FileFunction,Copper,L2,Inr*%
%TF.FilePolarity,Positive*%
%FSLAX46Y46*%
G04 Gerber Fmt 4.6, Leading zero omitted, Abs format (unit mm)*
G04 Created by KiCad (PCBNEW 7.0.1) date 2023-05-12 00:47:34*
%MOMM*%
%LPD*%
G01*
G04 APERTURE LIST*
%TA.AperFunction,ComponentPad*%
%ADD10O,1.000000X2.100000*%
%TD*%
%TA.AperFunction,ComponentPad*%
%ADD11O,1.000000X1.600000*%
%TD*%
%TA.AperFunction,ComponentPad*%
%ADD12C,0.600000*%
%TD*%
%TA.AperFunction,ComponentPad*%
%ADD13R,1.700000X1.700000*%
%TD*%
%TA.AperFunction,ComponentPad*%
%ADD14O,1.700000X1.700000*%
%TD*%
%TA.AperFunction,ViaPad*%
%ADD15C,0.700000*%
%TD*%
%TA.AperFunction,ViaPad*%
%ADD16C,0.500000*%
%TD*%
%TA.AperFunction,ViaPad*%
%ADD17C,0.450000*%
%TD*%
G04 APERTURE END LIST*
D10*
%TO.N,GND*%
%TO.C,J3*%
X182120000Y-83775000D03*
D11*
X182120000Y-79595000D03*
D10*
X173480000Y-83775000D03*
D11*
X173480000Y-79595000D03*
%TD*%
D12*
%TO.N,GND*%
%TO.C,U3*%
X176525000Y-100325000D03*
X176525000Y-101600000D03*
X176525000Y-102875000D03*
X177800000Y-100325000D03*
X177800000Y-101600000D03*
X177800000Y-102875000D03*
X179075000Y-100325000D03*
X179075000Y-101600000D03*
X179075000Y-102875000D03*
%TD*%
D13*
%TO.N,GND*%
%TO.C,J1*%
X195072000Y-89906000D03*
D14*
%TO.N,+3V3*%
X195072000Y-87366000D03*
%TO.N,/OLED_SCL*%
X195072000Y-84826000D03*
%TO.N,/OLED_SDA*%
X195072000Y-82286000D03*
%TD*%
D15*
%TO.N,VBUS*%
X171069000Y-83566000D03*
X175310800Y-85775800D03*
X175895000Y-83312000D03*
X188722000Y-92329000D03*
X182880000Y-111252000D03*
X190246000Y-94995996D03*
X185293001Y-99822001D03*
X171069000Y-98806000D03*
X180263800Y-85775800D03*
X190246000Y-92328997D03*
X184531000Y-85344000D03*
X162560000Y-111252000D03*
X179705000Y-83312000D03*
X190246001Y-90804999D03*
%TO.N,GND*%
X181864000Y-95123000D03*
X184658001Y-91820999D03*
X190246002Y-93979996D03*
X172466000Y-101600000D03*
X183642000Y-107950000D03*
X165481000Y-105410000D03*
X183134000Y-101628000D03*
X176022000Y-88315000D03*
X179070000Y-88315000D03*
X165368000Y-85330000D03*
X190232000Y-83580000D03*
X171196000Y-105283000D03*
X165771102Y-90272001D03*
X162560000Y-110363000D03*
X182245000Y-106807000D03*
X184657999Y-90804999D03*
X180213000Y-110363000D03*
X185674001Y-90804999D03*
X165368000Y-100570000D03*
X176437289Y-106070887D03*
X176403000Y-91948000D03*
X185673999Y-91820999D03*
X165771102Y-93827998D03*
X180848000Y-95123000D03*
X177419000Y-91948000D03*
X174371000Y-91948000D03*
X189260000Y-97947000D03*
X171069000Y-84455000D03*
X172212000Y-96870700D03*
X185293002Y-102362000D03*
X170240000Y-108894135D03*
X188671200Y-103174800D03*
X172240000Y-99921000D03*
X183360000Y-99794000D03*
X170213100Y-97075125D03*
X190560000Y-108894135D03*
X184404000Y-107188000D03*
X179832000Y-95123000D03*
X184531000Y-84455000D03*
X182880000Y-112103903D03*
X175387000Y-91948000D03*
X190119000Y-105410000D03*
X171069000Y-107188000D03*
%TO.N,+1V1*%
X177600000Y-95885000D03*
D16*
X179003371Y-98977451D03*
D15*
%TO.N,ADC_X*%
X182176900Y-99998100D03*
X171958000Y-103505000D03*
D17*
%TO.N,/OLED_SCL*%
X182245000Y-103505000D03*
%TO.N,/OLED_SDA*%
X182753000Y-104002018D03*
%TD*%
%TA.AperFunction,Conductor*%
%TO.N,GND*%
G36*
X196852777Y-77335655D02*
G01*
X197143902Y-77352005D01*
X197154925Y-77353247D01*
X197439661Y-77401625D01*
X197450455Y-77404088D01*
X197727994Y-77484046D01*
X197738465Y-77487710D01*
X197861584Y-77538708D01*
X198005287Y-77598232D01*
X198015289Y-77603049D01*
X198268053Y-77742746D01*
X198277453Y-77748652D01*
X198512992Y-77915777D01*
X198521661Y-77922690D01*
X198737019Y-78115145D01*
X198744854Y-78122980D01*
X198937305Y-78338333D01*
X198944226Y-78347012D01*
X199111346Y-78582545D01*
X199117253Y-78591946D01*
X199256950Y-78844710D01*
X199261767Y-78854712D01*
X199372287Y-79121530D01*
X199375954Y-79132009D01*
X199455907Y-79409529D01*
X199458377Y-79420353D01*
X199506751Y-79705069D01*
X199507994Y-79716101D01*
X199524344Y-80007222D01*
X199524500Y-80012773D01*
X199524500Y-114297227D01*
X199524344Y-114302778D01*
X199507994Y-114593898D01*
X199506751Y-114604930D01*
X199458377Y-114889646D01*
X199455907Y-114900470D01*
X199375954Y-115177990D01*
X199372287Y-115188469D01*
X199261767Y-115455287D01*
X199256950Y-115465289D01*
X199117253Y-115718053D01*
X199111346Y-115727454D01*
X198944226Y-115962987D01*
X198937305Y-115971666D01*
X198744862Y-116187011D01*
X198737011Y-116194862D01*
X198521666Y-116387305D01*
X198512987Y-116394226D01*
X198277454Y-116561346D01*
X198268053Y-116567253D01*
X198015289Y-116706950D01*
X198005287Y-116711767D01*
X197738469Y-116822287D01*
X197727990Y-116825954D01*
X197450470Y-116905907D01*
X197439646Y-116908377D01*
X197154930Y-116956751D01*
X197143898Y-116957994D01*
X196852778Y-116974344D01*
X196847227Y-116974500D01*
X158752773Y-116974500D01*
X158747222Y-116974344D01*
X158456101Y-116957994D01*
X158445069Y-116956751D01*
X158160353Y-116908377D01*
X158149531Y-116905907D01*
X158079936Y-116885857D01*
X157872009Y-116825954D01*
X157861530Y-116822287D01*
X157594712Y-116711767D01*
X157584710Y-116706950D01*
X157331946Y-116567253D01*
X157322545Y-116561346D01*
X157087012Y-116394226D01*
X157078333Y-116387305D01*
X156862980Y-116194854D01*
X156855145Y-116187019D01*
X156662690Y-115971661D01*
X156655777Y-115962992D01*
X156488652Y-115727453D01*
X156482746Y-115718053D01*
X156343049Y-115465289D01*
X156338232Y-115455287D01*
X156227712Y-115188469D01*
X156224045Y-115177990D01*
X156222146Y-115171397D01*
X156144088Y-114900455D01*
X156141625Y-114889661D01*
X156093247Y-114604925D01*
X156092005Y-114593898D01*
X156085640Y-114480566D01*
X156075655Y-114302777D01*
X156075577Y-114300000D01*
X157394340Y-114300000D01*
X157414936Y-114535405D01*
X157476098Y-114763667D01*
X157575963Y-114977826D01*
X157575964Y-114977827D01*
X157575965Y-114977829D01*
X157711505Y-115171401D01*
X157878599Y-115338495D01*
X158072171Y-115474035D01*
X158072172Y-115474035D01*
X158072173Y-115474036D01*
X158286332Y-115573901D01*
X158286333Y-115573901D01*
X158286337Y-115573903D01*
X158514592Y-115635063D01*
X158585168Y-115641237D01*
X158691031Y-115650500D01*
X158691034Y-115650500D01*
X158808966Y-115650500D01*
X158808969Y-115650500D01*
X158897186Y-115642781D01*
X158985408Y-115635063D01*
X159213663Y-115573903D01*
X159427829Y-115474035D01*
X159621401Y-115338495D01*
X159788495Y-115171401D01*
X159924035Y-114977830D01*
X160023903Y-114763663D01*
X160085063Y-114535408D01*
X160105659Y-114300000D01*
X195494340Y-114300000D01*
X195514936Y-114535405D01*
X195576098Y-114763667D01*
X195675963Y-114977826D01*
X195675964Y-114977827D01*
X195675965Y-114977829D01*
X195811505Y-115171401D01*
X195978599Y-115338495D01*
X196172171Y-115474035D01*
X196172172Y-115474035D01*
X196172173Y-115474036D01*
X196386332Y-115573901D01*
X196386333Y-115573901D01*
X196386337Y-115573903D01*
X196614592Y-115635063D01*
X196685168Y-115641237D01*
X196791031Y-115650500D01*
X196791034Y-115650500D01*
X196908966Y-115650500D01*
X196908969Y-115650500D01*
X196997186Y-115642781D01*
X197085408Y-115635063D01*
X197313663Y-115573903D01*
X197527829Y-115474035D01*
X197721401Y-115338495D01*
X197888495Y-115171401D01*
X198024035Y-114977830D01*
X198123903Y-114763663D01*
X198185063Y-114535408D01*
X198205659Y-114300000D01*
X198185063Y-114064592D01*
X198123903Y-113836337D01*
X198024035Y-113622171D01*
X197888495Y-113428599D01*
X197721401Y-113261505D01*
X197527829Y-113125965D01*
X197527828Y-113125964D01*
X197527826Y-113125963D01*
X197313667Y-113026098D01*
X197085405Y-112964936D01*
X196908969Y-112949500D01*
X196908966Y-112949500D01*
X196791034Y-112949500D01*
X196791031Y-112949500D01*
X196614594Y-112964936D01*
X196386332Y-113026098D01*
X196172173Y-113125963D01*
X195978602Y-113261502D01*
X195811502Y-113428602D01*
X195675963Y-113622172D01*
X195576098Y-113836332D01*
X195514936Y-114064594D01*
X195494340Y-114300000D01*
X160105659Y-114300000D01*
X160085063Y-114064592D01*
X160023903Y-113836337D01*
X159924035Y-113622171D01*
X159788495Y-113428599D01*
X159621401Y-113261505D01*
X159427829Y-113125965D01*
X159427828Y-113125964D01*
X159427826Y-113125963D01*
X159213667Y-113026098D01*
X158985405Y-112964936D01*
X158808969Y-112949500D01*
X158808966Y-112949500D01*
X158691034Y-112949500D01*
X158691031Y-112949500D01*
X158514594Y-112964936D01*
X158286332Y-113026098D01*
X158072173Y-113125963D01*
X157878602Y-113261502D01*
X157711502Y-113428602D01*
X157575963Y-113622172D01*
X157476098Y-113836332D01*
X157414936Y-114064594D01*
X157394340Y-114300000D01*
X156075577Y-114300000D01*
X156075500Y-114297227D01*
X156075500Y-111251999D01*
X162004750Y-111251999D01*
X162023669Y-111395709D01*
X162046598Y-111451064D01*
X162079139Y-111529625D01*
X162101922Y-111559316D01*
X162167378Y-111644621D01*
X162217306Y-111682932D01*
X162282375Y-111732861D01*
X162377067Y-111772083D01*
X162416290Y-111788330D01*
X162433008Y-111790531D01*
X162560000Y-111807250D01*
X162703709Y-111788330D01*
X162837625Y-111732861D01*
X162952621Y-111644621D01*
X162961534Y-111633006D01*
X165336463Y-111633006D01*
X165354219Y-111814742D01*
X165404579Y-111990263D01*
X165485883Y-112153771D01*
X165595438Y-112299856D01*
X165729626Y-112423693D01*
X165729628Y-112423694D01*
X165729630Y-112423696D01*
X165884023Y-112521198D01*
X166053515Y-112589142D01*
X166232506Y-112625281D01*
X166354223Y-112627374D01*
X166415081Y-112628422D01*
X166415081Y-112628421D01*
X166415082Y-112628422D01*
X166595210Y-112598460D01*
X166766938Y-112536386D01*
X166774771Y-112531820D01*
X166777289Y-112530354D01*
X166777921Y-112530089D01*
X166822535Y-112504023D01*
X166872486Y-112490502D01*
X166911392Y-112490506D01*
X166911395Y-112490504D01*
X166924449Y-112490506D01*
X166924511Y-112490499D01*
X168355329Y-112490499D01*
X168355381Y-112490505D01*
X168368604Y-112490503D01*
X168368608Y-112490505D01*
X168407512Y-112490501D01*
X168457459Y-112504019D01*
X168491130Y-112523691D01*
X168491132Y-112523691D01*
X168501944Y-112530008D01*
X168502842Y-112530384D01*
X168513079Y-112536350D01*
X168684799Y-112598420D01*
X168864921Y-112628381D01*
X169047489Y-112625240D01*
X169226473Y-112589103D01*
X169395958Y-112521162D01*
X169550345Y-112423664D01*
X169684531Y-112299828D01*
X169794083Y-112153748D01*
X169875382Y-111990250D01*
X169925741Y-111814736D01*
X169943496Y-111633006D01*
X169928060Y-111451064D01*
X169879944Y-111274922D01*
X169874733Y-111264065D01*
X169874493Y-111263330D01*
X169869037Y-111251999D01*
X182324750Y-111251999D01*
X182343669Y-111395709D01*
X182366598Y-111451064D01*
X182399139Y-111529625D01*
X182421922Y-111559316D01*
X182487378Y-111644621D01*
X182537306Y-111682932D01*
X182602375Y-111732861D01*
X182697067Y-111772083D01*
X182736290Y-111788330D01*
X182753008Y-111790531D01*
X182880000Y-111807250D01*
X183023709Y-111788330D01*
X183157625Y-111732861D01*
X183272621Y-111644621D01*
X183281534Y-111633006D01*
X185656463Y-111633006D01*
X185674219Y-111814742D01*
X185724579Y-111990263D01*
X185805883Y-112153771D01*
X185915438Y-112299856D01*
X186049626Y-112423693D01*
X186049628Y-112423694D01*
X186049630Y-112423696D01*
X186204023Y-112521198D01*
X186373515Y-112589142D01*
X186552506Y-112625281D01*
X186674223Y-112627374D01*
X186735081Y-112628422D01*
X186735081Y-112628421D01*
X186735082Y-112628422D01*
X186915210Y-112598460D01*
X187086938Y-112536386D01*
X187094771Y-112531820D01*
X187097289Y-112530354D01*
X187097921Y-112530089D01*
X187142535Y-112504023D01*
X187192486Y-112490502D01*
X187231392Y-112490506D01*
X187231395Y-112490504D01*
X187244449Y-112490506D01*
X187244511Y-112490499D01*
X188675329Y-112490499D01*
X188675381Y-112490505D01*
X188688604Y-112490503D01*
X188688608Y-112490505D01*
X188727512Y-112490501D01*
X188777459Y-112504019D01*
X188811130Y-112523691D01*
X188811132Y-112523691D01*
X188821944Y-112530008D01*
X188822842Y-112530384D01*
X188833079Y-112536350D01*
X189004799Y-112598420D01*
X189184921Y-112628381D01*
X189367489Y-112625240D01*
X189546473Y-112589103D01*
X189715958Y-112521162D01*
X189870345Y-112423664D01*
X190004531Y-112299828D01*
X190114083Y-112153748D01*
X190195382Y-111990250D01*
X190245741Y-111814736D01*
X190263496Y-111633006D01*
X190248060Y-111451064D01*
X190199944Y-111274922D01*
X190194733Y-111264065D01*
X190194493Y-111263330D01*
X190170300Y-111213083D01*
X190160499Y-111170134D01*
X190160499Y-109809890D01*
X190170244Y-109767059D01*
X190174106Y-109759011D01*
X190174143Y-109759029D01*
X190174163Y-109758890D01*
X190189019Y-109728040D01*
X190189019Y-109728037D01*
X190194556Y-109716540D01*
X190194704Y-109716089D01*
X190196519Y-109712307D01*
X190199981Y-109705094D01*
X190248100Y-109528945D01*
X190263537Y-109346996D01*
X190245781Y-109165258D01*
X190195421Y-108989737D01*
X190114119Y-108826232D01*
X190114117Y-108826229D01*
X190004561Y-108680143D01*
X189870370Y-108556304D01*
X189715982Y-108458804D01*
X189715979Y-108458803D01*
X189715978Y-108458802D01*
X189602983Y-108413506D01*
X189546484Y-108390857D01*
X189367492Y-108354718D01*
X189184919Y-108351577D01*
X189004789Y-108381539D01*
X188833061Y-108443613D01*
X188822514Y-108449759D01*
X188821887Y-108450023D01*
X188777461Y-108475978D01*
X188727514Y-108489496D01*
X188688967Y-108489493D01*
X188688607Y-108489493D01*
X188675550Y-108489492D01*
X188675489Y-108489500D01*
X187192493Y-108489500D01*
X187142538Y-108475972D01*
X187098286Y-108450108D01*
X187097272Y-108449683D01*
X187086920Y-108443650D01*
X186915201Y-108381579D01*
X186735079Y-108351618D01*
X186552514Y-108354759D01*
X186373528Y-108390896D01*
X186204038Y-108458838D01*
X186049659Y-108556333D01*
X185915467Y-108680172D01*
X185805918Y-108826249D01*
X185724617Y-108989749D01*
X185683439Y-109133267D01*
X185674259Y-109165264D01*
X185656504Y-109346994D01*
X185657325Y-109356675D01*
X185671940Y-109528937D01*
X185681509Y-109563965D01*
X185720056Y-109705078D01*
X185725340Y-109716089D01*
X185725357Y-109716123D01*
X185725649Y-109717013D01*
X185743430Y-109753918D01*
X185745824Y-109758887D01*
X185749681Y-109766891D01*
X185759493Y-109809892D01*
X185759476Y-109865874D01*
X185759501Y-109866064D01*
X185759501Y-111170109D01*
X185749753Y-111212946D01*
X185746029Y-111220705D01*
X185745977Y-111220814D01*
X185725590Y-111263157D01*
X185725443Y-111263600D01*
X185720018Y-111274904D01*
X185671900Y-111451054D01*
X185656463Y-111633006D01*
X183281534Y-111633006D01*
X183360861Y-111529625D01*
X183416330Y-111395709D01*
X183435250Y-111252000D01*
X183416330Y-111108291D01*
X183360861Y-110974375D01*
X183310932Y-110909306D01*
X183272621Y-110859378D01*
X183207552Y-110809450D01*
X183157625Y-110771139D01*
X183118401Y-110754892D01*
X183023709Y-110715669D01*
X182880000Y-110696750D01*
X182736290Y-110715669D01*
X182602375Y-110771139D01*
X182487378Y-110859378D01*
X182399139Y-110974375D01*
X182343669Y-111108290D01*
X182324750Y-111251999D01*
X169869037Y-111251999D01*
X169850300Y-111213083D01*
X169840499Y-111170134D01*
X169840499Y-109809890D01*
X169850244Y-109767059D01*
X169854106Y-109759011D01*
X169854143Y-109759029D01*
X169854163Y-109758890D01*
X169869019Y-109728040D01*
X169869019Y-109728037D01*
X169874556Y-109716540D01*
X169874704Y-109716089D01*
X169876519Y-109712307D01*
X169879981Y-109705094D01*
X169928100Y-109528945D01*
X169943537Y-109346996D01*
X169925781Y-109165258D01*
X169875421Y-108989737D01*
X169794119Y-108826232D01*
X169794117Y-108826229D01*
X169684561Y-108680143D01*
X169550370Y-108556304D01*
X169395982Y-108458804D01*
X169395979Y-108458803D01*
X169395978Y-108458802D01*
X169282983Y-108413506D01*
X169226484Y-108390857D01*
X169047492Y-108354718D01*
X168864919Y-108351577D01*
X168684789Y-108381539D01*
X168513061Y-108443613D01*
X168502514Y-108449759D01*
X168501887Y-108450023D01*
X168457461Y-108475978D01*
X168407514Y-108489496D01*
X168368967Y-108489493D01*
X168368607Y-108489493D01*
X168355550Y-108489492D01*
X168355489Y-108489500D01*
X166872493Y-108489500D01*
X166822538Y-108475972D01*
X166778286Y-108450108D01*
X166777272Y-108449683D01*
X166766920Y-108443650D01*
X166595201Y-108381579D01*
X166415079Y-108351618D01*
X166232514Y-108354759D01*
X166053528Y-108390896D01*
X165884038Y-108458838D01*
X165729659Y-108556333D01*
X165595467Y-108680172D01*
X165485918Y-108826249D01*
X165404617Y-108989749D01*
X165363439Y-109133267D01*
X165354259Y-109165264D01*
X165336504Y-109346994D01*
X165337325Y-109356675D01*
X165351940Y-109528937D01*
X165361509Y-109563965D01*
X165400056Y-109705078D01*
X165405340Y-109716089D01*
X165405357Y-109716123D01*
X165405649Y-109717013D01*
X165423430Y-109753918D01*
X165425824Y-109758887D01*
X165429681Y-109766891D01*
X165439493Y-109809892D01*
X165439476Y-109865874D01*
X165439501Y-109866064D01*
X165439501Y-111170109D01*
X165429753Y-111212946D01*
X165426029Y-111220705D01*
X165425977Y-111220814D01*
X165405590Y-111263157D01*
X165405443Y-111263600D01*
X165400018Y-111274904D01*
X165351900Y-111451054D01*
X165336463Y-111633006D01*
X162961534Y-111633006D01*
X163040861Y-111529625D01*
X163096330Y-111395709D01*
X163115250Y-111252000D01*
X163096330Y-111108291D01*
X163040861Y-110974375D01*
X162990932Y-110909306D01*
X162952621Y-110859378D01*
X162887552Y-110809450D01*
X162837625Y-110771139D01*
X162798401Y-110754892D01*
X162703709Y-110715669D01*
X162560000Y-110696750D01*
X162416290Y-110715669D01*
X162282375Y-110771139D01*
X162167378Y-110859378D01*
X162079139Y-110974375D01*
X162023669Y-111108290D01*
X162004750Y-111251999D01*
X156075500Y-111251999D01*
X156075500Y-106680000D01*
X165608000Y-106680000D01*
X166116000Y-107188000D01*
X169163999Y-107188000D01*
X169164000Y-107188000D01*
X169672000Y-106680000D01*
X185928000Y-106680000D01*
X186436000Y-107188000D01*
X189483999Y-107188000D01*
X189484000Y-107188000D01*
X189992000Y-106680000D01*
X189992000Y-105357395D01*
X191935745Y-105357395D01*
X191945746Y-105567332D01*
X191995294Y-105771574D01*
X192082604Y-105962754D01*
X192204510Y-106133948D01*
X192356622Y-106278986D01*
X192533431Y-106392615D01*
X192728539Y-106470724D01*
X192728541Y-106470724D01*
X192728543Y-106470725D01*
X192934915Y-106510500D01*
X193092422Y-106510500D01*
X193092425Y-106510500D01*
X193249218Y-106495528D01*
X193450875Y-106436316D01*
X193637682Y-106340011D01*
X193802886Y-106210092D01*
X193940519Y-106051256D01*
X194045604Y-105869244D01*
X194114344Y-105670633D01*
X194144254Y-105462602D01*
X194134254Y-105252670D01*
X194109193Y-105149367D01*
X194084705Y-105048425D01*
X193997395Y-104857245D01*
X193875489Y-104686051D01*
X193723377Y-104541013D01*
X193546568Y-104427384D01*
X193351460Y-104349275D01*
X193196678Y-104319443D01*
X193145085Y-104309500D01*
X192987575Y-104309500D01*
X192893499Y-104318483D01*
X192830780Y-104324472D01*
X192629124Y-104383683D01*
X192442317Y-104479989D01*
X192277112Y-104609908D01*
X192139483Y-104768740D01*
X192034395Y-104950758D01*
X191965655Y-105149369D01*
X191935745Y-105357395D01*
X189992000Y-105357395D01*
X189992000Y-104140000D01*
X189484000Y-103632000D01*
X186436000Y-103632000D01*
X185928000Y-104140000D01*
X185928000Y-106680000D01*
X169672000Y-106680000D01*
X169672000Y-105357395D01*
X171615745Y-105357395D01*
X171625746Y-105567332D01*
X171675294Y-105771574D01*
X171762604Y-105962754D01*
X171884510Y-106133948D01*
X172036622Y-106278986D01*
X172213431Y-106392615D01*
X172408539Y-106470724D01*
X172408541Y-106470724D01*
X172408543Y-106470725D01*
X172614915Y-106510500D01*
X172772422Y-106510500D01*
X172772425Y-106510500D01*
X172929218Y-106495528D01*
X173130875Y-106436316D01*
X173317682Y-106340011D01*
X173482886Y-106210092D01*
X173620519Y-106051256D01*
X173725604Y-105869244D01*
X173794344Y-105670633D01*
X173824254Y-105462602D01*
X173819243Y-105357395D01*
X181775745Y-105357395D01*
X181785746Y-105567332D01*
X181835294Y-105771574D01*
X181922604Y-105962754D01*
X182044510Y-106133948D01*
X182196622Y-106278986D01*
X182373431Y-106392615D01*
X182568539Y-106470724D01*
X182568541Y-106470724D01*
X182568543Y-106470725D01*
X182774915Y-106510500D01*
X182932422Y-106510500D01*
X182932425Y-106510500D01*
X183089218Y-106495528D01*
X183290875Y-106436316D01*
X183477682Y-106340011D01*
X183642886Y-106210092D01*
X183780519Y-106051256D01*
X183885604Y-105869244D01*
X183954344Y-105670633D01*
X183984254Y-105462602D01*
X183974254Y-105252670D01*
X183949193Y-105149367D01*
X183924705Y-105048425D01*
X183837395Y-104857245D01*
X183715489Y-104686051D01*
X183563377Y-104541013D01*
X183386569Y-104427385D01*
X183182681Y-104345761D01*
X183183525Y-104343650D01*
X183142345Y-104321201D01*
X183115944Y-104267171D01*
X183125683Y-104207831D01*
X183160244Y-104140001D01*
X183162719Y-104135144D01*
X183183804Y-104002018D01*
X183162719Y-103868892D01*
X183101528Y-103748798D01*
X183006220Y-103653490D01*
X182886126Y-103592299D01*
X182886125Y-103592298D01*
X182886124Y-103592298D01*
X182755616Y-103571628D01*
X182717183Y-103556875D01*
X182688074Y-103527766D01*
X182673323Y-103489335D01*
X182654719Y-103371874D01*
X182593528Y-103251780D01*
X182498220Y-103156472D01*
X182378126Y-103095281D01*
X182378125Y-103095280D01*
X182378124Y-103095280D01*
X182245000Y-103074195D01*
X182111875Y-103095280D01*
X181991781Y-103156471D01*
X181896471Y-103251781D01*
X181835280Y-103371875D01*
X181814195Y-103504999D01*
X181835280Y-103638124D01*
X181835280Y-103638125D01*
X181835281Y-103638126D01*
X181896472Y-103758220D01*
X181991780Y-103853528D01*
X182111874Y-103914719D01*
X182242385Y-103935389D01*
X182280815Y-103950141D01*
X182309924Y-103979251D01*
X182324677Y-104017683D01*
X182343280Y-104135142D01*
X182343280Y-104135143D01*
X182343281Y-104135144D01*
X182404472Y-104255238D01*
X182415348Y-104266114D01*
X182443099Y-104320474D01*
X182433695Y-104380781D01*
X182390707Y-104424111D01*
X182282317Y-104479989D01*
X182117112Y-104609908D01*
X181979483Y-104768740D01*
X181874395Y-104950758D01*
X181805655Y-105149369D01*
X181775745Y-105357395D01*
X173819243Y-105357395D01*
X173814254Y-105252670D01*
X173789193Y-105149367D01*
X173764705Y-105048425D01*
X173677395Y-104857245D01*
X173555489Y-104686051D01*
X173403377Y-104541013D01*
X173226568Y-104427384D01*
X173031460Y-104349275D01*
X172876678Y-104319443D01*
X172825085Y-104309500D01*
X172667575Y-104309500D01*
X172573499Y-104318483D01*
X172510780Y-104324472D01*
X172309124Y-104383683D01*
X172122317Y-104479989D01*
X171957112Y-104609908D01*
X171819483Y-104768740D01*
X171714395Y-104950758D01*
X171645655Y-105149369D01*
X171615745Y-105357395D01*
X169672000Y-105357395D01*
X169672000Y-104140000D01*
X169164000Y-103632000D01*
X166116000Y-103632000D01*
X165608000Y-104140000D01*
X165608000Y-106680000D01*
X156075500Y-106680000D01*
X156075500Y-105357395D01*
X161455745Y-105357395D01*
X161465746Y-105567332D01*
X161515294Y-105771574D01*
X161602604Y-105962754D01*
X161724510Y-106133948D01*
X161876622Y-106278986D01*
X162053431Y-106392615D01*
X162248539Y-106470724D01*
X162248541Y-106470724D01*
X162248543Y-106470725D01*
X162454915Y-106510500D01*
X162612422Y-106510500D01*
X162612425Y-106510500D01*
X162769218Y-106495528D01*
X162970875Y-106436316D01*
X163157682Y-106340011D01*
X163322886Y-106210092D01*
X163460519Y-106051256D01*
X163565604Y-105869244D01*
X163634344Y-105670633D01*
X163664254Y-105462602D01*
X163654254Y-105252670D01*
X163629193Y-105149367D01*
X163604705Y-105048425D01*
X163517395Y-104857245D01*
X163395489Y-104686051D01*
X163243377Y-104541013D01*
X163066568Y-104427384D01*
X162871460Y-104349275D01*
X162716678Y-104319443D01*
X162665085Y-104309500D01*
X162507575Y-104309500D01*
X162413499Y-104318483D01*
X162350780Y-104324472D01*
X162149124Y-104383683D01*
X161962317Y-104479989D01*
X161797112Y-104609908D01*
X161659483Y-104768740D01*
X161554395Y-104950758D01*
X161485655Y-105149369D01*
X161455745Y-105357395D01*
X156075500Y-105357395D01*
X156075500Y-103505000D01*
X171402750Y-103505000D01*
X171421669Y-103648709D01*
X171460892Y-103743401D01*
X171477139Y-103782625D01*
X171515450Y-103832552D01*
X171565378Y-103897621D01*
X171587661Y-103914719D01*
X171680375Y-103985861D01*
X171775067Y-104025083D01*
X171814290Y-104041330D01*
X171831008Y-104043531D01*
X171958000Y-104060250D01*
X172101709Y-104041330D01*
X172235625Y-103985861D01*
X172350621Y-103897621D01*
X172438861Y-103782625D01*
X172494330Y-103648709D01*
X172513250Y-103505000D01*
X172498772Y-103395027D01*
X176217103Y-103395027D01*
X176217104Y-103395028D01*
X176222409Y-103399098D01*
X176368367Y-103459556D01*
X176525000Y-103480176D01*
X176681632Y-103459556D01*
X176827589Y-103399099D01*
X176832894Y-103395027D01*
X177492103Y-103395027D01*
X177492104Y-103395028D01*
X177497409Y-103399098D01*
X177643367Y-103459556D01*
X177800000Y-103480176D01*
X177956632Y-103459556D01*
X178102589Y-103399099D01*
X178107894Y-103395027D01*
X178767103Y-103395027D01*
X178767104Y-103395028D01*
X178772409Y-103399098D01*
X178918367Y-103459556D01*
X179075000Y-103480176D01*
X179231632Y-103459556D01*
X179377589Y-103399099D01*
X179382894Y-103395027D01*
X179074999Y-103087132D01*
X178767103Y-103395027D01*
X178107894Y-103395027D01*
X177799999Y-103087132D01*
X177492103Y-103395027D01*
X176832894Y-103395027D01*
X176524999Y-103087132D01*
X176217103Y-103395027D01*
X172498772Y-103395027D01*
X172494330Y-103361291D01*
X172438861Y-103227375D01*
X172384454Y-103156471D01*
X172350621Y-103112378D01*
X172285552Y-103062450D01*
X172235625Y-103024139D01*
X172196401Y-103007892D01*
X172101709Y-102968669D01*
X171958000Y-102949750D01*
X171814290Y-102968669D01*
X171680375Y-103024139D01*
X171565378Y-103112378D01*
X171477139Y-103227375D01*
X171421669Y-103361290D01*
X171402750Y-103505000D01*
X156075500Y-103505000D01*
X156075500Y-102874999D01*
X175919823Y-102874999D01*
X175940443Y-103031632D01*
X176000901Y-103177589D01*
X176004971Y-103182895D01*
X176004972Y-103182895D01*
X176312867Y-102875000D01*
X176312866Y-102874999D01*
X176737132Y-102874999D01*
X177045027Y-103182894D01*
X177049099Y-103177589D01*
X177071036Y-103124628D01*
X177107498Y-103080198D01*
X177162500Y-103063513D01*
X177217502Y-103080198D01*
X177253964Y-103124628D01*
X177275901Y-103177589D01*
X177279971Y-103182895D01*
X177279972Y-103182895D01*
X177587867Y-102875000D01*
X177587866Y-102874999D01*
X178012132Y-102874999D01*
X178320027Y-103182894D01*
X178324099Y-103177589D01*
X178346036Y-103124628D01*
X178382498Y-103080198D01*
X178437500Y-103063513D01*
X178492502Y-103080198D01*
X178528964Y-103124628D01*
X178550901Y-103177589D01*
X178554971Y-103182895D01*
X178554972Y-103182895D01*
X178862867Y-102875000D01*
X178862866Y-102874999D01*
X179287132Y-102874999D01*
X179595027Y-103182894D01*
X179599099Y-103177589D01*
X179659556Y-103031632D01*
X179680176Y-102874999D01*
X179659556Y-102718367D01*
X179599099Y-102572412D01*
X179595025Y-102567105D01*
X179287132Y-102874999D01*
X178862866Y-102874999D01*
X178554972Y-102567105D01*
X178554971Y-102567105D01*
X178550901Y-102572409D01*
X178528964Y-102625372D01*
X178492501Y-102669802D01*
X178437500Y-102686486D01*
X178382499Y-102669801D01*
X178346036Y-102625372D01*
X178324099Y-102572411D01*
X178320025Y-102567105D01*
X178012132Y-102874999D01*
X177587866Y-102874999D01*
X177279972Y-102567105D01*
X177279971Y-102567105D01*
X177275901Y-102572409D01*
X177253964Y-102625372D01*
X177217501Y-102669802D01*
X177162500Y-102686486D01*
X177107499Y-102669801D01*
X177071036Y-102625372D01*
X177049099Y-102572411D01*
X177045025Y-102567105D01*
X176737132Y-102874999D01*
X176312866Y-102874999D01*
X176004972Y-102567105D01*
X176004971Y-102567105D01*
X176000901Y-102572410D01*
X175940443Y-102718367D01*
X175919823Y-102874999D01*
X156075500Y-102874999D01*
X156075500Y-102120027D01*
X176217103Y-102120027D01*
X176217104Y-102120028D01*
X176222409Y-102124098D01*
X176275371Y-102146036D01*
X176319801Y-102182498D01*
X176336486Y-102237500D01*
X176319802Y-102292501D01*
X176275372Y-102328964D01*
X176222409Y-102350901D01*
X176217105Y-102354971D01*
X176217105Y-102354972D01*
X176525000Y-102662867D01*
X176832895Y-102354972D01*
X176832895Y-102354971D01*
X176827589Y-102350901D01*
X176774628Y-102328964D01*
X176730198Y-102292502D01*
X176713513Y-102237500D01*
X176730198Y-102182498D01*
X176774628Y-102146036D01*
X176827589Y-102124099D01*
X176832894Y-102120027D01*
X177492103Y-102120027D01*
X177492104Y-102120028D01*
X177497409Y-102124098D01*
X177550371Y-102146036D01*
X177594801Y-102182498D01*
X177611486Y-102237500D01*
X177594802Y-102292501D01*
X177550372Y-102328964D01*
X177497409Y-102350901D01*
X177492105Y-102354971D01*
X177492105Y-102354972D01*
X177800000Y-102662867D01*
X178107895Y-102354972D01*
X178107895Y-102354971D01*
X178102589Y-102350901D01*
X178049628Y-102328964D01*
X178005198Y-102292502D01*
X177988513Y-102237500D01*
X178005198Y-102182498D01*
X178049628Y-102146036D01*
X178102589Y-102124099D01*
X178107894Y-102120027D01*
X178767103Y-102120027D01*
X178767104Y-102120028D01*
X178772409Y-102124098D01*
X178825371Y-102146036D01*
X178869801Y-102182498D01*
X178886486Y-102237500D01*
X178869802Y-102292501D01*
X178825372Y-102328964D01*
X178772409Y-102350901D01*
X178767105Y-102354971D01*
X178767105Y-102354972D01*
X179075000Y-102662867D01*
X179382895Y-102354972D01*
X179382895Y-102354971D01*
X179377589Y-102350901D01*
X179324628Y-102328964D01*
X179280198Y-102292502D01*
X179263513Y-102237500D01*
X179280198Y-102182498D01*
X179324628Y-102146036D01*
X179377589Y-102124099D01*
X179382894Y-102120027D01*
X179074999Y-101812132D01*
X178767103Y-102120027D01*
X178107894Y-102120027D01*
X177799999Y-101812132D01*
X177492103Y-102120027D01*
X176832894Y-102120027D01*
X176524999Y-101812132D01*
X176217103Y-102120027D01*
X156075500Y-102120027D01*
X156075500Y-101600000D01*
X175919823Y-101600000D01*
X175940443Y-101756632D01*
X176000901Y-101902589D01*
X176004971Y-101907895D01*
X176312867Y-101600000D01*
X176312866Y-101599999D01*
X176737132Y-101599999D01*
X177045027Y-101907894D01*
X177049099Y-101902589D01*
X177071036Y-101849628D01*
X177107498Y-101805198D01*
X177162500Y-101788513D01*
X177217502Y-101805198D01*
X177253964Y-101849628D01*
X177275901Y-101902589D01*
X177279971Y-101907895D01*
X177587867Y-101600000D01*
X177587866Y-101599999D01*
X178012132Y-101599999D01*
X178320027Y-101907894D01*
X178324099Y-101902589D01*
X178346036Y-101849628D01*
X178382498Y-101805198D01*
X178437500Y-101788513D01*
X178492502Y-101805198D01*
X178528964Y-101849628D01*
X178550901Y-101902589D01*
X178554971Y-101907895D01*
X178862867Y-101600000D01*
X178862866Y-101599999D01*
X179287132Y-101599999D01*
X179595027Y-101907894D01*
X179599099Y-101902589D01*
X179659556Y-101756632D01*
X179680176Y-101600000D01*
X179659556Y-101443367D01*
X179599099Y-101297412D01*
X179595025Y-101292105D01*
X179287132Y-101599999D01*
X178862866Y-101599999D01*
X178554972Y-101292105D01*
X178554971Y-101292105D01*
X178550901Y-101297409D01*
X178528964Y-101350372D01*
X178492501Y-101394802D01*
X178437500Y-101411486D01*
X178382499Y-101394801D01*
X178346036Y-101350372D01*
X178324099Y-101297411D01*
X178320025Y-101292105D01*
X178012132Y-101599999D01*
X177587866Y-101599999D01*
X177279972Y-101292105D01*
X177279971Y-101292105D01*
X177275901Y-101297409D01*
X177253964Y-101350372D01*
X177217501Y-101394802D01*
X177162500Y-101411486D01*
X177107499Y-101394801D01*
X177071036Y-101350372D01*
X177049099Y-101297411D01*
X177045025Y-101292105D01*
X176737132Y-101599999D01*
X176312866Y-101599999D01*
X176004972Y-101292105D01*
X176004971Y-101292105D01*
X176000901Y-101297410D01*
X175940443Y-101443367D01*
X175919823Y-101600000D01*
X156075500Y-101600000D01*
X156075500Y-100845027D01*
X176217103Y-100845027D01*
X176217104Y-100845028D01*
X176222409Y-100849098D01*
X176275371Y-100871036D01*
X176319801Y-100907498D01*
X176336486Y-100962500D01*
X176319802Y-101017501D01*
X176275372Y-101053964D01*
X176222409Y-101075901D01*
X176217105Y-101079971D01*
X176525000Y-101387867D01*
X176832895Y-101079972D01*
X176832895Y-101079971D01*
X176827589Y-101075901D01*
X176774628Y-101053964D01*
X176730198Y-101017502D01*
X176713513Y-100962500D01*
X176730198Y-100907498D01*
X176774628Y-100871036D01*
X176827589Y-100849099D01*
X176832894Y-100845027D01*
X177492103Y-100845027D01*
X177492104Y-100845028D01*
X177497409Y-100849098D01*
X177550371Y-100871036D01*
X177594801Y-100907498D01*
X177611486Y-100962500D01*
X177594802Y-101017501D01*
X177550372Y-101053964D01*
X177497409Y-101075901D01*
X177492105Y-101079971D01*
X177800000Y-101387867D01*
X178107895Y-101079972D01*
X178107895Y-101079971D01*
X178102589Y-101075901D01*
X178049628Y-101053964D01*
X178005198Y-101017502D01*
X177988513Y-100962500D01*
X178005198Y-100907498D01*
X178049628Y-100871036D01*
X178102589Y-100849099D01*
X178107894Y-100845027D01*
X178767103Y-100845027D01*
X178767104Y-100845028D01*
X178772409Y-100849098D01*
X178825371Y-100871036D01*
X178869801Y-100907498D01*
X178886486Y-100962500D01*
X178869802Y-101017501D01*
X178825372Y-101053964D01*
X178772409Y-101075901D01*
X178767105Y-101079971D01*
X179075000Y-101387867D01*
X179382895Y-101079972D01*
X179382895Y-101079971D01*
X179377589Y-101075901D01*
X179324628Y-101053964D01*
X179280198Y-101017502D01*
X179263513Y-100962500D01*
X179280198Y-100907498D01*
X179324628Y-100871036D01*
X179377589Y-100849099D01*
X179382894Y-100845027D01*
X179074999Y-100537132D01*
X178767103Y-100845027D01*
X178107894Y-100845027D01*
X177799999Y-100537132D01*
X177492103Y-100845027D01*
X176832894Y-100845027D01*
X176524999Y-100537132D01*
X176217103Y-100845027D01*
X156075500Y-100845027D01*
X156075500Y-100325000D01*
X175919823Y-100325000D01*
X175940443Y-100481632D01*
X176000901Y-100627589D01*
X176004971Y-100632895D01*
X176312867Y-100325000D01*
X176312866Y-100324999D01*
X176737132Y-100324999D01*
X177045027Y-100632894D01*
X177049099Y-100627589D01*
X177071036Y-100574628D01*
X177107498Y-100530198D01*
X177162500Y-100513513D01*
X177217502Y-100530198D01*
X177253964Y-100574628D01*
X177275901Y-100627589D01*
X177279971Y-100632895D01*
X177587867Y-100325000D01*
X177587866Y-100324999D01*
X178012132Y-100324999D01*
X178320027Y-100632894D01*
X178324099Y-100627589D01*
X178346036Y-100574628D01*
X178382498Y-100530198D01*
X178437500Y-100513513D01*
X178492502Y-100530198D01*
X178528964Y-100574628D01*
X178550901Y-100627589D01*
X178554971Y-100632895D01*
X178862867Y-100325000D01*
X178862866Y-100324999D01*
X179287132Y-100324999D01*
X179595027Y-100632894D01*
X179599099Y-100627589D01*
X179659556Y-100481632D01*
X179680176Y-100325000D01*
X179659556Y-100168367D01*
X179599099Y-100022412D01*
X179595025Y-100017105D01*
X179287132Y-100324999D01*
X178862866Y-100324999D01*
X178554972Y-100017105D01*
X178554971Y-100017105D01*
X178550901Y-100022409D01*
X178528964Y-100075372D01*
X178492501Y-100119802D01*
X178437500Y-100136486D01*
X178382499Y-100119801D01*
X178346036Y-100075372D01*
X178324099Y-100022411D01*
X178320025Y-100017105D01*
X178012132Y-100324999D01*
X177587866Y-100324999D01*
X177279972Y-100017105D01*
X177279971Y-100017105D01*
X177275901Y-100022409D01*
X177253964Y-100075372D01*
X177217501Y-100119802D01*
X177162500Y-100136486D01*
X177107499Y-100119801D01*
X177071036Y-100075372D01*
X177049099Y-100022411D01*
X177045025Y-100017105D01*
X176737132Y-100324999D01*
X176312866Y-100324999D01*
X176004972Y-100017105D01*
X176004971Y-100017105D01*
X176000901Y-100022410D01*
X175940443Y-100168367D01*
X175919823Y-100325000D01*
X156075500Y-100325000D01*
X156075500Y-99804972D01*
X176217105Y-99804972D01*
X176525000Y-100112867D01*
X176832895Y-99804972D01*
X177492105Y-99804972D01*
X177800000Y-100112867D01*
X178107895Y-99804972D01*
X178767105Y-99804972D01*
X179075000Y-100112867D01*
X179189767Y-99998100D01*
X181621650Y-99998100D01*
X181640569Y-100141809D01*
X181679792Y-100236501D01*
X181696039Y-100275725D01*
X181716862Y-100302862D01*
X181784278Y-100390721D01*
X181834206Y-100429032D01*
X181899275Y-100478961D01*
X181982692Y-100513513D01*
X182033190Y-100534430D01*
X182049908Y-100536631D01*
X182176900Y-100553350D01*
X182320609Y-100534430D01*
X182454525Y-100478961D01*
X182569521Y-100390721D01*
X182657761Y-100275725D01*
X182713230Y-100141809D01*
X182732150Y-99998100D01*
X182713230Y-99854391D01*
X182699813Y-99822000D01*
X184737751Y-99822000D01*
X184756670Y-99965710D01*
X184780157Y-100022411D01*
X184812140Y-100099626D01*
X184827621Y-100119801D01*
X184900379Y-100214622D01*
X184950307Y-100252933D01*
X185015376Y-100302862D01*
X185110068Y-100342084D01*
X185149291Y-100358331D01*
X185166009Y-100360532D01*
X185293001Y-100377251D01*
X185436710Y-100358331D01*
X185570626Y-100302862D01*
X185685622Y-100214622D01*
X185773862Y-100099626D01*
X185829331Y-99965710D01*
X185848251Y-99822001D01*
X185829331Y-99678292D01*
X185773862Y-99544376D01*
X185710475Y-99461769D01*
X185685622Y-99429379D01*
X185620553Y-99379451D01*
X185570626Y-99341140D01*
X185523012Y-99321418D01*
X185436710Y-99285670D01*
X185293001Y-99266751D01*
X185149291Y-99285670D01*
X185015376Y-99341140D01*
X184900379Y-99429379D01*
X184812140Y-99544376D01*
X184756670Y-99678291D01*
X184737751Y-99822000D01*
X182699813Y-99822000D01*
X182657761Y-99720475D01*
X182607832Y-99655406D01*
X182569521Y-99605478D01*
X182489890Y-99544376D01*
X182454525Y-99517239D01*
X182415301Y-99500992D01*
X182320609Y-99461769D01*
X182176900Y-99442850D01*
X182033190Y-99461769D01*
X181899275Y-99517239D01*
X181784278Y-99605478D01*
X181696039Y-99720475D01*
X181640569Y-99854390D01*
X181621650Y-99998100D01*
X179189767Y-99998100D01*
X179382895Y-99804972D01*
X179382895Y-99804971D01*
X179377589Y-99800901D01*
X179231632Y-99740443D01*
X179075000Y-99719823D01*
X178918367Y-99740443D01*
X178772410Y-99800901D01*
X178767105Y-99804971D01*
X178767105Y-99804972D01*
X178107895Y-99804972D01*
X178107895Y-99804971D01*
X178102589Y-99800901D01*
X177956632Y-99740443D01*
X177800000Y-99719823D01*
X177643367Y-99740443D01*
X177497410Y-99800901D01*
X177492105Y-99804971D01*
X177492105Y-99804972D01*
X176832895Y-99804972D01*
X176832895Y-99804971D01*
X176827589Y-99800901D01*
X176681632Y-99740443D01*
X176525000Y-99719823D01*
X176368367Y-99740443D01*
X176222410Y-99800901D01*
X176217105Y-99804971D01*
X176217105Y-99804972D01*
X156075500Y-99804972D01*
X156075500Y-98806000D01*
X170513750Y-98806000D01*
X170532669Y-98949709D01*
X170571892Y-99044401D01*
X170588139Y-99083625D01*
X170605061Y-99105678D01*
X170676378Y-99198621D01*
X170708820Y-99223514D01*
X170791375Y-99286861D01*
X170886067Y-99326083D01*
X170925290Y-99342330D01*
X170942008Y-99344531D01*
X171069000Y-99361250D01*
X171212709Y-99342330D01*
X171346625Y-99286861D01*
X171461621Y-99198621D01*
X171549861Y-99083625D01*
X171593839Y-98977450D01*
X178548237Y-98977450D01*
X178566673Y-99105678D01*
X178620487Y-99223513D01*
X178705320Y-99321416D01*
X178705322Y-99321418D01*
X178814302Y-99391455D01*
X178938599Y-99427951D01*
X179068143Y-99427951D01*
X179192440Y-99391455D01*
X179301420Y-99321418D01*
X179386253Y-99223514D01*
X179386252Y-99223514D01*
X179386254Y-99223513D01*
X179440068Y-99105678D01*
X179458504Y-98977450D01*
X179440068Y-98849223D01*
X179386254Y-98731388D01*
X179301421Y-98633485D01*
X179301420Y-98633484D01*
X179246930Y-98598465D01*
X179192439Y-98563446D01*
X179068143Y-98526951D01*
X178938599Y-98526951D01*
X178814302Y-98563446D01*
X178705320Y-98633485D01*
X178620487Y-98731388D01*
X178566673Y-98849223D01*
X178548237Y-98977450D01*
X171593839Y-98977450D01*
X171605330Y-98949709D01*
X171624250Y-98806000D01*
X171605330Y-98662291D01*
X171549861Y-98528375D01*
X171499932Y-98463306D01*
X171461621Y-98413378D01*
X171396552Y-98363450D01*
X171346625Y-98325139D01*
X171307401Y-98308892D01*
X171212709Y-98269669D01*
X171069000Y-98250750D01*
X170925290Y-98269669D01*
X170791375Y-98325139D01*
X170676378Y-98413378D01*
X170588139Y-98528375D01*
X170532669Y-98662290D01*
X170513750Y-98806000D01*
X156075500Y-98806000D01*
X156075500Y-96519999D01*
X157394340Y-96519999D01*
X157414936Y-96755405D01*
X157476098Y-96983667D01*
X157575963Y-97197826D01*
X157575964Y-97197827D01*
X157575965Y-97197829D01*
X157711505Y-97391401D01*
X157878599Y-97558495D01*
X158072171Y-97694035D01*
X158072172Y-97694035D01*
X158072173Y-97694036D01*
X158286332Y-97793901D01*
X158286333Y-97793901D01*
X158286337Y-97793903D01*
X158514592Y-97855063D01*
X158585168Y-97861237D01*
X158691031Y-97870500D01*
X158691034Y-97870500D01*
X158808966Y-97870500D01*
X158808969Y-97870500D01*
X158897186Y-97862781D01*
X158985408Y-97855063D01*
X159213663Y-97793903D01*
X159427829Y-97694035D01*
X159621401Y-97558495D01*
X159788495Y-97391401D01*
X159924035Y-97197830D01*
X160023903Y-96983663D01*
X160085063Y-96755408D01*
X160105659Y-96520000D01*
X160105659Y-96519999D01*
X195494340Y-96519999D01*
X195514936Y-96755405D01*
X195576098Y-96983667D01*
X195675963Y-97197826D01*
X195675964Y-97197827D01*
X195675965Y-97197829D01*
X195811505Y-97391401D01*
X195978599Y-97558495D01*
X196172171Y-97694035D01*
X196172172Y-97694035D01*
X196172173Y-97694036D01*
X196386332Y-97793901D01*
X196386333Y-97793901D01*
X196386337Y-97793903D01*
X196614592Y-97855063D01*
X196685168Y-97861237D01*
X196791031Y-97870500D01*
X196791034Y-97870500D01*
X196908966Y-97870500D01*
X196908969Y-97870500D01*
X196997186Y-97862781D01*
X197085408Y-97855063D01*
X197313663Y-97793903D01*
X197527829Y-97694035D01*
X197721401Y-97558495D01*
X197888495Y-97391401D01*
X198024035Y-97197830D01*
X198123903Y-96983663D01*
X198185063Y-96755408D01*
X198205659Y-96520000D01*
X198185063Y-96284592D01*
X198123903Y-96056337D01*
X198024035Y-95842171D01*
X197888495Y-95648599D01*
X197721401Y-95481505D01*
X197527829Y-95345965D01*
X197527828Y-95345964D01*
X197527826Y-95345963D01*
X197313667Y-95246098D01*
X197085405Y-95184936D01*
X196908969Y-95169500D01*
X196908966Y-95169500D01*
X196791034Y-95169500D01*
X196791031Y-95169500D01*
X196614594Y-95184936D01*
X196386332Y-95246098D01*
X196172173Y-95345963D01*
X195978602Y-95481502D01*
X195811502Y-95648602D01*
X195675963Y-95842172D01*
X195576098Y-96056332D01*
X195514936Y-96284594D01*
X195494340Y-96519999D01*
X160105659Y-96519999D01*
X160085063Y-96284592D01*
X160023903Y-96056337D01*
X159944007Y-95885000D01*
X177044750Y-95885000D01*
X177063669Y-96028709D01*
X177102892Y-96123401D01*
X177119139Y-96162625D01*
X177157450Y-96212552D01*
X177207378Y-96277621D01*
X177216466Y-96284594D01*
X177322375Y-96365861D01*
X177417067Y-96405083D01*
X177456290Y-96421330D01*
X177473008Y-96423531D01*
X177600000Y-96440250D01*
X177743709Y-96421330D01*
X177877625Y-96365861D01*
X177992621Y-96277621D01*
X178080861Y-96162625D01*
X178136330Y-96028709D01*
X178155250Y-95885000D01*
X178136330Y-95741291D01*
X178080861Y-95607375D01*
X178023274Y-95532326D01*
X177992621Y-95492378D01*
X177927552Y-95442450D01*
X177877625Y-95404139D01*
X177838401Y-95387892D01*
X177743709Y-95348669D01*
X177600000Y-95329750D01*
X177456290Y-95348669D01*
X177322375Y-95404139D01*
X177207378Y-95492378D01*
X177119139Y-95607375D01*
X177063669Y-95741290D01*
X177044750Y-95885000D01*
X159944007Y-95885000D01*
X159924035Y-95842171D01*
X159788495Y-95648599D01*
X159621401Y-95481505D01*
X159427829Y-95345965D01*
X159427828Y-95345964D01*
X159427826Y-95345963D01*
X159213667Y-95246098D01*
X158985405Y-95184936D01*
X158808969Y-95169500D01*
X158808966Y-95169500D01*
X158691034Y-95169500D01*
X158691031Y-95169500D01*
X158514594Y-95184936D01*
X158286332Y-95246098D01*
X158072173Y-95345963D01*
X157878602Y-95481502D01*
X157711502Y-95648602D01*
X157575963Y-95842172D01*
X157476098Y-96056332D01*
X157414936Y-96284594D01*
X157394340Y-96519999D01*
X156075500Y-96519999D01*
X156075500Y-94995995D01*
X189690750Y-94995995D01*
X189709669Y-95139705D01*
X189728405Y-95184937D01*
X189765139Y-95273621D01*
X189803450Y-95323548D01*
X189853378Y-95388617D01*
X189903306Y-95426928D01*
X189968375Y-95476857D01*
X190063067Y-95516079D01*
X190102290Y-95532326D01*
X190119008Y-95534527D01*
X190246000Y-95551246D01*
X190389709Y-95532326D01*
X190523625Y-95476857D01*
X190638621Y-95388617D01*
X190726861Y-95273621D01*
X190782330Y-95139705D01*
X190801250Y-94995996D01*
X190782330Y-94852287D01*
X190726861Y-94718371D01*
X190676932Y-94653302D01*
X190638621Y-94603374D01*
X190573552Y-94553446D01*
X190523625Y-94515135D01*
X190484401Y-94498888D01*
X190389709Y-94459665D01*
X190246000Y-94440746D01*
X190102290Y-94459665D01*
X189968375Y-94515135D01*
X189853378Y-94603374D01*
X189765139Y-94718371D01*
X189709669Y-94852286D01*
X189690750Y-94995995D01*
X156075500Y-94995995D01*
X156075500Y-92328999D01*
X188166750Y-92328999D01*
X188185669Y-92472709D01*
X188224892Y-92567401D01*
X188241139Y-92606625D01*
X188279450Y-92656552D01*
X188329378Y-92721621D01*
X188379306Y-92759932D01*
X188444375Y-92809861D01*
X188539067Y-92849083D01*
X188578290Y-92865330D01*
X188595008Y-92867531D01*
X188722000Y-92884250D01*
X188865709Y-92865330D01*
X188999625Y-92809861D01*
X189114621Y-92721621D01*
X189202861Y-92606625D01*
X189258330Y-92472709D01*
X189277250Y-92329000D01*
X189277250Y-92328997D01*
X189690750Y-92328997D01*
X189709669Y-92472706D01*
X189748892Y-92567398D01*
X189765139Y-92606622D01*
X189803450Y-92656549D01*
X189853378Y-92721618D01*
X189903306Y-92759929D01*
X189968375Y-92809858D01*
X190063067Y-92849080D01*
X190102290Y-92865327D01*
X190119008Y-92867528D01*
X190246000Y-92884247D01*
X190389709Y-92865327D01*
X190523625Y-92809858D01*
X190638621Y-92721618D01*
X190726861Y-92606622D01*
X190782330Y-92472706D01*
X190801250Y-92328997D01*
X190784531Y-92202005D01*
X190782330Y-92185287D01*
X190766083Y-92146064D01*
X190726861Y-92051372D01*
X190676932Y-91986303D01*
X190638621Y-91936375D01*
X190573552Y-91886447D01*
X190523625Y-91848136D01*
X190484401Y-91831889D01*
X190389709Y-91792666D01*
X190246000Y-91773747D01*
X190102290Y-91792666D01*
X189968375Y-91848136D01*
X189853378Y-91936375D01*
X189765139Y-92051372D01*
X189709669Y-92185287D01*
X189690750Y-92328997D01*
X189277250Y-92328997D01*
X189258330Y-92185291D01*
X189258328Y-92185287D01*
X189242083Y-92146067D01*
X189202861Y-92051375D01*
X189152932Y-91986306D01*
X189114621Y-91936378D01*
X189049552Y-91886450D01*
X188999625Y-91848139D01*
X188960401Y-91831892D01*
X188865709Y-91792669D01*
X188722000Y-91773750D01*
X188578290Y-91792669D01*
X188444375Y-91848139D01*
X188329378Y-91936378D01*
X188241139Y-92051375D01*
X188185669Y-92185290D01*
X188166750Y-92328999D01*
X156075500Y-92328999D01*
X156075500Y-90804998D01*
X189690751Y-90804998D01*
X189709670Y-90948708D01*
X189734142Y-91007787D01*
X189765140Y-91082624D01*
X189803451Y-91132551D01*
X189853379Y-91197620D01*
X189903307Y-91235931D01*
X189968376Y-91285860D01*
X190063068Y-91325082D01*
X190102291Y-91341329D01*
X190119009Y-91343530D01*
X190246001Y-91360249D01*
X190389710Y-91341329D01*
X190523626Y-91285860D01*
X190638622Y-91197620D01*
X190726862Y-91082624D01*
X190782331Y-90948708D01*
X190801251Y-90804999D01*
X190800697Y-90800790D01*
X193922001Y-90800790D01*
X193924910Y-90825874D01*
X193970212Y-90928476D01*
X194049523Y-91007787D01*
X194152126Y-91053090D01*
X194177205Y-91056000D01*
X194921999Y-91056000D01*
X194922000Y-91055999D01*
X194922000Y-91055998D01*
X195222000Y-91055998D01*
X195222001Y-91055999D01*
X195966790Y-91055999D01*
X195991874Y-91053089D01*
X196094476Y-91007787D01*
X196173787Y-90928476D01*
X196219090Y-90825873D01*
X196222000Y-90800795D01*
X196222000Y-90056001D01*
X196221999Y-90056000D01*
X195222001Y-90056000D01*
X195222000Y-90056001D01*
X195222000Y-91055998D01*
X194922000Y-91055998D01*
X194922000Y-90056001D01*
X194921999Y-90056000D01*
X193922002Y-90056000D01*
X193922001Y-90056001D01*
X193922001Y-90800790D01*
X190800697Y-90800790D01*
X190782331Y-90661290D01*
X190726862Y-90527374D01*
X190676933Y-90462305D01*
X190638622Y-90412377D01*
X190573553Y-90362449D01*
X190523626Y-90324138D01*
X190484402Y-90307891D01*
X190389710Y-90268668D01*
X190246001Y-90249749D01*
X190102291Y-90268668D01*
X189968376Y-90324138D01*
X189853379Y-90412377D01*
X189765140Y-90527374D01*
X189709670Y-90661289D01*
X189690751Y-90804998D01*
X156075500Y-90804998D01*
X156075500Y-89755999D01*
X193922000Y-89755999D01*
X193922001Y-89756000D01*
X194921999Y-89756000D01*
X194922000Y-89755999D01*
X195222000Y-89755999D01*
X195222001Y-89756000D01*
X196221998Y-89756000D01*
X196221999Y-89755999D01*
X196221999Y-89011210D01*
X196219089Y-88986125D01*
X196173787Y-88883523D01*
X196094476Y-88804212D01*
X195991873Y-88758909D01*
X195966795Y-88756000D01*
X195222001Y-88756000D01*
X195222000Y-88756001D01*
X195222000Y-89755999D01*
X194922000Y-89755999D01*
X194922000Y-88756002D01*
X194921999Y-88756001D01*
X194177210Y-88756001D01*
X194152125Y-88758910D01*
X194049523Y-88804212D01*
X193970212Y-88883523D01*
X193924909Y-88986126D01*
X193922000Y-89011205D01*
X193922000Y-89755999D01*
X156075500Y-89755999D01*
X156075500Y-87366000D01*
X194016416Y-87366000D01*
X194036699Y-87571933D01*
X194096767Y-87769952D01*
X194096768Y-87769954D01*
X194194315Y-87952450D01*
X194325590Y-88112410D01*
X194485550Y-88243685D01*
X194668046Y-88341232D01*
X194866066Y-88401300D01*
X195072000Y-88421583D01*
X195277934Y-88401300D01*
X195475954Y-88341232D01*
X195658450Y-88243685D01*
X195818410Y-88112410D01*
X195949685Y-87952450D01*
X196047232Y-87769954D01*
X196107300Y-87571934D01*
X196127583Y-87366000D01*
X196107300Y-87160066D01*
X196047232Y-86962046D01*
X195949685Y-86779550D01*
X195818410Y-86619590D01*
X195658450Y-86488315D01*
X195475954Y-86390768D01*
X195475953Y-86390767D01*
X195475952Y-86390767D01*
X195277933Y-86330699D01*
X195072000Y-86310416D01*
X194866066Y-86330699D01*
X194668047Y-86390767D01*
X194485549Y-86488315D01*
X194325590Y-86619590D01*
X194194315Y-86779549D01*
X194096767Y-86962047D01*
X194036699Y-87160066D01*
X194016416Y-87366000D01*
X156075500Y-87366000D01*
X156075500Y-85775800D01*
X174755550Y-85775800D01*
X174774469Y-85919509D01*
X174813692Y-86014201D01*
X174829939Y-86053425D01*
X174868250Y-86103352D01*
X174918178Y-86168421D01*
X174968106Y-86206732D01*
X175033175Y-86256661D01*
X175127867Y-86295883D01*
X175167090Y-86312130D01*
X175183808Y-86314331D01*
X175310800Y-86331050D01*
X175454509Y-86312130D01*
X175588425Y-86256661D01*
X175703421Y-86168421D01*
X175791661Y-86053425D01*
X175847130Y-85919509D01*
X175866050Y-85775800D01*
X179708550Y-85775800D01*
X179727469Y-85919509D01*
X179766692Y-86014201D01*
X179782939Y-86053425D01*
X179821250Y-86103352D01*
X179871178Y-86168421D01*
X179921106Y-86206732D01*
X179986175Y-86256661D01*
X180080867Y-86295883D01*
X180120090Y-86312130D01*
X180136808Y-86314331D01*
X180263800Y-86331050D01*
X180407509Y-86312130D01*
X180541425Y-86256661D01*
X180656421Y-86168421D01*
X180744661Y-86053425D01*
X180800130Y-85919509D01*
X180819050Y-85775800D01*
X180800130Y-85632091D01*
X180795794Y-85621624D01*
X180783883Y-85592867D01*
X180744661Y-85498175D01*
X180678882Y-85412450D01*
X180656421Y-85383178D01*
X180605361Y-85343999D01*
X183975750Y-85343999D01*
X183994669Y-85487709D01*
X184029753Y-85572409D01*
X184050139Y-85621625D01*
X184058170Y-85632091D01*
X184138378Y-85736621D01*
X184188306Y-85774932D01*
X184253375Y-85824861D01*
X184341348Y-85861300D01*
X184387290Y-85880330D01*
X184396808Y-85881583D01*
X184531000Y-85899250D01*
X184674709Y-85880330D01*
X184808625Y-85824861D01*
X184923621Y-85736621D01*
X185011861Y-85621625D01*
X185067330Y-85487709D01*
X185086250Y-85344000D01*
X185067330Y-85200291D01*
X185011861Y-85066375D01*
X184925957Y-84954423D01*
X184923621Y-84951378D01*
X184858552Y-84901450D01*
X184808625Y-84863139D01*
X184769401Y-84846892D01*
X184718961Y-84825999D01*
X194016416Y-84825999D01*
X194036699Y-85031933D01*
X194093915Y-85220550D01*
X194096768Y-85229954D01*
X194194315Y-85412450D01*
X194325590Y-85572410D01*
X194485550Y-85703685D01*
X194668046Y-85801232D01*
X194866066Y-85861300D01*
X195072000Y-85881583D01*
X195277934Y-85861300D01*
X195475954Y-85801232D01*
X195658450Y-85703685D01*
X195818410Y-85572410D01*
X195949685Y-85412450D01*
X196047232Y-85229954D01*
X196107300Y-85031934D01*
X196127583Y-84826000D01*
X196107300Y-84620066D01*
X196047232Y-84422046D01*
X195949685Y-84239550D01*
X195818410Y-84079590D01*
X195658450Y-83948315D01*
X195475954Y-83850768D01*
X195475953Y-83850767D01*
X195475952Y-83850767D01*
X195277933Y-83790699D01*
X195072000Y-83770416D01*
X194866066Y-83790699D01*
X194668047Y-83850767D01*
X194485549Y-83948315D01*
X194325590Y-84079590D01*
X194194315Y-84239549D01*
X194096767Y-84422047D01*
X194036699Y-84620066D01*
X194016416Y-84825999D01*
X184718961Y-84825999D01*
X184674709Y-84807669D01*
X184531000Y-84788750D01*
X184387290Y-84807669D01*
X184253375Y-84863139D01*
X184138378Y-84951378D01*
X184050139Y-85066375D01*
X183994669Y-85200290D01*
X183975750Y-85343999D01*
X180605361Y-85343999D01*
X180591352Y-85333250D01*
X180541425Y-85294939D01*
X180502201Y-85278692D01*
X180407509Y-85239469D01*
X180263800Y-85220550D01*
X180120090Y-85239469D01*
X179986175Y-85294939D01*
X179871178Y-85383178D01*
X179782939Y-85498175D01*
X179727469Y-85632090D01*
X179708550Y-85775800D01*
X175866050Y-85775800D01*
X175847130Y-85632091D01*
X175842794Y-85621624D01*
X175830883Y-85592867D01*
X175791661Y-85498175D01*
X175725882Y-85412450D01*
X175703421Y-85383178D01*
X175638352Y-85333250D01*
X175588425Y-85294939D01*
X175549201Y-85278692D01*
X175454509Y-85239469D01*
X175310800Y-85220550D01*
X175167090Y-85239469D01*
X175033175Y-85294939D01*
X174918178Y-85383178D01*
X174829939Y-85498175D01*
X174774469Y-85632090D01*
X174755550Y-85775800D01*
X156075500Y-85775800D01*
X156075500Y-84369922D01*
X172680000Y-84369922D01*
X172695123Y-84504146D01*
X172754663Y-84674300D01*
X172850576Y-84826946D01*
X172978053Y-84954423D01*
X173130696Y-85050335D01*
X173300860Y-85109877D01*
X173329999Y-85113161D01*
X173330000Y-85113161D01*
X173630000Y-85113161D01*
X173659139Y-85109877D01*
X173829303Y-85050335D01*
X173981946Y-84954423D01*
X174109423Y-84826946D01*
X174205336Y-84674300D01*
X174264876Y-84504146D01*
X174280000Y-84369922D01*
X181320000Y-84369922D01*
X181335123Y-84504146D01*
X181394663Y-84674300D01*
X181490576Y-84826946D01*
X181618053Y-84954423D01*
X181770696Y-85050335D01*
X181940860Y-85109877D01*
X181969999Y-85113161D01*
X181970000Y-85113161D01*
X182270000Y-85113161D01*
X182299139Y-85109877D01*
X182469303Y-85050335D01*
X182621946Y-84954423D01*
X182749423Y-84826946D01*
X182845336Y-84674300D01*
X182904876Y-84504146D01*
X182920000Y-84369922D01*
X182920000Y-83925001D01*
X182919999Y-83925000D01*
X182270001Y-83925000D01*
X182270000Y-83925001D01*
X182270000Y-85113161D01*
X181970000Y-85113161D01*
X181970000Y-83925001D01*
X181969999Y-83925000D01*
X181320001Y-83925000D01*
X181320000Y-83925001D01*
X181320000Y-84369922D01*
X174280000Y-84369922D01*
X174280000Y-83925001D01*
X174279999Y-83925000D01*
X173630001Y-83925000D01*
X173630000Y-83925001D01*
X173630000Y-85113161D01*
X173330000Y-85113161D01*
X173330000Y-83925001D01*
X173329999Y-83925000D01*
X172680001Y-83925000D01*
X172680000Y-83925001D01*
X172680000Y-84369922D01*
X156075500Y-84369922D01*
X156075500Y-83566000D01*
X170513750Y-83566000D01*
X170532669Y-83709709D01*
X170566217Y-83790699D01*
X170588139Y-83843625D01*
X170626450Y-83893552D01*
X170676378Y-83958621D01*
X170726306Y-83996932D01*
X170791375Y-84046861D01*
X170870391Y-84079590D01*
X170925290Y-84102330D01*
X170942008Y-84104531D01*
X171069000Y-84121250D01*
X171212709Y-84102330D01*
X171346625Y-84046861D01*
X171461621Y-83958621D01*
X171549861Y-83843625D01*
X171605330Y-83709709D01*
X171616482Y-83624999D01*
X172680000Y-83624999D01*
X172680001Y-83625000D01*
X173329999Y-83625000D01*
X173330000Y-83624999D01*
X173330000Y-82436839D01*
X173329999Y-82436838D01*
X173630000Y-82436838D01*
X173630000Y-83624999D01*
X173630001Y-83625000D01*
X174279999Y-83625000D01*
X174297031Y-83607967D01*
X174298528Y-83603309D01*
X174347178Y-83567228D01*
X174407739Y-83566237D01*
X174457542Y-83600707D01*
X174499548Y-83655451D01*
X174570259Y-83709709D01*
X174619767Y-83747698D01*
X174759763Y-83805686D01*
X174759764Y-83805687D01*
X174872279Y-83820500D01*
X174872280Y-83820500D01*
X174947720Y-83820500D01*
X174947721Y-83820500D01*
X175003977Y-83813093D01*
X175060236Y-83805687D01*
X175200233Y-83747698D01*
X175320451Y-83655451D01*
X175320452Y-83655448D01*
X175330791Y-83647516D01*
X175333079Y-83650498D01*
X175362745Y-83629707D01*
X175422302Y-83629691D01*
X175471091Y-83663847D01*
X175502378Y-83704621D01*
X175552306Y-83742932D01*
X175617375Y-83792861D01*
X175712067Y-83832083D01*
X175751290Y-83848330D01*
X175768008Y-83850531D01*
X175895000Y-83867250D01*
X176038709Y-83848330D01*
X176172625Y-83792861D01*
X176287621Y-83704621D01*
X176375861Y-83589625D01*
X176431330Y-83455709D01*
X176450250Y-83312000D01*
X179149750Y-83312000D01*
X179168669Y-83455709D01*
X179201609Y-83535233D01*
X179224139Y-83589625D01*
X179254883Y-83629691D01*
X179312378Y-83704621D01*
X179362306Y-83742932D01*
X179427375Y-83792861D01*
X179522067Y-83832083D01*
X179561290Y-83848330D01*
X179578008Y-83850531D01*
X179705000Y-83867250D01*
X179848709Y-83848330D01*
X179982625Y-83792861D01*
X180097621Y-83704621D01*
X180128907Y-83663848D01*
X180177675Y-83629698D01*
X180237212Y-83629695D01*
X180266922Y-83650495D01*
X180269208Y-83647517D01*
X180350259Y-83709709D01*
X180399767Y-83747698D01*
X180539763Y-83805686D01*
X180539764Y-83805687D01*
X180652279Y-83820500D01*
X180652280Y-83820500D01*
X180727720Y-83820500D01*
X180727721Y-83820500D01*
X180783977Y-83813093D01*
X180840236Y-83805687D01*
X180980233Y-83747698D01*
X181100451Y-83655451D01*
X181120214Y-83629695D01*
X181142458Y-83600707D01*
X181192261Y-83566237D01*
X181252822Y-83567228D01*
X181301472Y-83603309D01*
X181302968Y-83607967D01*
X181320001Y-83625000D01*
X181969999Y-83625000D01*
X181970000Y-83624999D01*
X181970000Y-82436839D01*
X181969999Y-82436838D01*
X182270000Y-82436838D01*
X182270000Y-83624999D01*
X182270001Y-83625000D01*
X182919999Y-83625000D01*
X182920000Y-83624999D01*
X182920000Y-83180078D01*
X182904876Y-83045853D01*
X182845336Y-82875699D01*
X182749423Y-82723053D01*
X182621946Y-82595576D01*
X182469303Y-82499664D01*
X182299139Y-82440122D01*
X182270000Y-82436838D01*
X181969999Y-82436838D01*
X181940860Y-82440122D01*
X181770696Y-82499664D01*
X181618053Y-82595576D01*
X181490576Y-82723053D01*
X181394663Y-82875698D01*
X181372838Y-82938071D01*
X181337797Y-82985310D01*
X181282141Y-83004334D01*
X181225516Y-82988427D01*
X181203983Y-82962535D01*
X181200632Y-82965107D01*
X181100451Y-82834548D01*
X180980233Y-82742302D01*
X180840235Y-82684312D01*
X180727721Y-82669500D01*
X180727720Y-82669500D01*
X180652280Y-82669500D01*
X180652279Y-82669500D01*
X180539764Y-82684312D01*
X180399766Y-82742302D01*
X180279547Y-82834549D01*
X180231424Y-82897264D01*
X180190768Y-82928460D01*
X180139961Y-82935149D01*
X180092616Y-82915538D01*
X179982624Y-82831138D01*
X179848709Y-82775669D01*
X179705000Y-82756750D01*
X179561290Y-82775669D01*
X179427375Y-82831139D01*
X179312378Y-82919378D01*
X179224139Y-83034375D01*
X179168669Y-83168290D01*
X179149750Y-83312000D01*
X176450250Y-83312000D01*
X176431330Y-83168291D01*
X176429422Y-83163685D01*
X176415083Y-83129067D01*
X176375861Y-83034375D01*
X176320736Y-82962535D01*
X176287621Y-82919378D01*
X176222552Y-82869450D01*
X176172625Y-82831139D01*
X176133401Y-82814892D01*
X176038709Y-82775669D01*
X175895000Y-82756750D01*
X175751290Y-82775669D01*
X175617375Y-82831139D01*
X175507383Y-82915538D01*
X175460038Y-82935149D01*
X175409230Y-82928460D01*
X175368574Y-82897263D01*
X175320451Y-82834548D01*
X175200233Y-82742302D01*
X175060235Y-82684312D01*
X174947721Y-82669500D01*
X174947720Y-82669500D01*
X174872280Y-82669500D01*
X174872279Y-82669500D01*
X174759764Y-82684312D01*
X174619766Y-82742302D01*
X174499548Y-82834548D01*
X174399368Y-82965107D01*
X174396025Y-82962541D01*
X174374383Y-82988492D01*
X174317778Y-83004332D01*
X174262169Y-82985286D01*
X174227160Y-82938069D01*
X174205335Y-82875696D01*
X174109423Y-82723053D01*
X173981946Y-82595576D01*
X173829303Y-82499664D01*
X173659139Y-82440122D01*
X173630000Y-82436838D01*
X173329999Y-82436838D01*
X173300860Y-82440122D01*
X173130696Y-82499664D01*
X172978053Y-82595576D01*
X172850576Y-82723053D01*
X172754663Y-82875699D01*
X172695123Y-83045853D01*
X172680000Y-83180078D01*
X172680000Y-83624999D01*
X171616482Y-83624999D01*
X171624250Y-83566000D01*
X171605330Y-83422291D01*
X171549861Y-83288375D01*
X171499932Y-83223306D01*
X171461621Y-83173378D01*
X171359168Y-83094764D01*
X171346625Y-83085139D01*
X171307401Y-83068892D01*
X171212709Y-83029669D01*
X171069000Y-83010750D01*
X170925290Y-83029669D01*
X170791375Y-83085139D01*
X170676378Y-83173378D01*
X170588139Y-83288375D01*
X170532669Y-83422290D01*
X170513750Y-83566000D01*
X156075500Y-83566000D01*
X156075500Y-82286000D01*
X194016416Y-82286000D01*
X194036699Y-82491933D01*
X194096767Y-82689952D01*
X194096768Y-82689954D01*
X194194315Y-82872450D01*
X194325590Y-83032410D01*
X194485550Y-83163685D01*
X194668046Y-83261232D01*
X194757526Y-83288375D01*
X194866066Y-83321300D01*
X195071999Y-83341583D01*
X195071999Y-83341582D01*
X195072000Y-83341583D01*
X195277934Y-83321300D01*
X195475954Y-83261232D01*
X195658450Y-83163685D01*
X195818410Y-83032410D01*
X195949685Y-82872450D01*
X196047232Y-82689954D01*
X196107300Y-82491934D01*
X196127583Y-82286000D01*
X196107300Y-82080066D01*
X196047232Y-81882046D01*
X195949685Y-81699550D01*
X195818410Y-81539590D01*
X195658450Y-81408315D01*
X195475954Y-81310768D01*
X195475953Y-81310767D01*
X195475952Y-81310767D01*
X195277933Y-81250699D01*
X195072000Y-81230416D01*
X194866066Y-81250699D01*
X194668047Y-81310767D01*
X194485549Y-81408315D01*
X194325590Y-81539590D01*
X194194315Y-81699549D01*
X194096767Y-81882047D01*
X194036699Y-82080066D01*
X194016416Y-82286000D01*
X156075500Y-82286000D01*
X156075500Y-80012773D01*
X156075656Y-80007222D01*
X156077510Y-79974201D01*
X156079435Y-79939922D01*
X172680000Y-79939922D01*
X172695123Y-80074146D01*
X172754663Y-80244300D01*
X172850576Y-80396946D01*
X172978053Y-80524423D01*
X173130696Y-80620335D01*
X173300860Y-80679877D01*
X173329999Y-80683161D01*
X173330000Y-80683161D01*
X173630000Y-80683161D01*
X173659139Y-80679877D01*
X173829303Y-80620335D01*
X173981946Y-80524423D01*
X174109423Y-80396946D01*
X174205336Y-80244300D01*
X174264876Y-80074146D01*
X174280000Y-79939922D01*
X181320000Y-79939922D01*
X181335123Y-80074146D01*
X181394663Y-80244300D01*
X181490576Y-80396946D01*
X181618053Y-80524423D01*
X181770696Y-80620335D01*
X181940860Y-80679877D01*
X181969999Y-80683161D01*
X181970000Y-80683161D01*
X182270000Y-80683161D01*
X182299139Y-80679877D01*
X182469303Y-80620335D01*
X182621946Y-80524423D01*
X182749423Y-80396946D01*
X182845336Y-80244300D01*
X182904876Y-80074146D01*
X182920000Y-79939922D01*
X182920000Y-79745001D01*
X182919999Y-79745000D01*
X182270001Y-79745000D01*
X182270000Y-79745001D01*
X182270000Y-80683161D01*
X181970000Y-80683161D01*
X181970000Y-79745001D01*
X181969999Y-79745000D01*
X181320001Y-79745000D01*
X181320000Y-79745001D01*
X181320000Y-79939922D01*
X174280000Y-79939922D01*
X174280000Y-79745001D01*
X174279999Y-79745000D01*
X173630001Y-79745000D01*
X173630000Y-79745001D01*
X173630000Y-80683161D01*
X173330000Y-80683161D01*
X173330000Y-79745001D01*
X173329999Y-79745000D01*
X172680001Y-79745000D01*
X172680000Y-79745001D01*
X172680000Y-79939922D01*
X156079435Y-79939922D01*
X156092005Y-79716095D01*
X156093248Y-79705069D01*
X156137435Y-79444999D01*
X172680000Y-79444999D01*
X172680001Y-79445000D01*
X173329999Y-79445000D01*
X173330000Y-79444999D01*
X173330000Y-78506839D01*
X173329999Y-78506838D01*
X173630000Y-78506838D01*
X173630000Y-79444999D01*
X173630001Y-79445000D01*
X174279999Y-79445000D01*
X174280000Y-79444999D01*
X181320000Y-79444999D01*
X181320001Y-79445000D01*
X181969999Y-79445000D01*
X181970000Y-79444999D01*
X181970000Y-78506839D01*
X181969999Y-78506838D01*
X182270000Y-78506838D01*
X182270000Y-79444999D01*
X182270001Y-79445000D01*
X182919999Y-79445000D01*
X182920000Y-79444999D01*
X182920000Y-79250078D01*
X182904876Y-79115853D01*
X182845336Y-78945699D01*
X182749423Y-78793053D01*
X182621946Y-78665576D01*
X182469303Y-78569664D01*
X182299139Y-78510122D01*
X182270000Y-78506838D01*
X181969999Y-78506838D01*
X181940860Y-78510122D01*
X181770696Y-78569664D01*
X181618053Y-78665576D01*
X181490576Y-78793053D01*
X181394663Y-78945699D01*
X181335123Y-79115853D01*
X181320000Y-79250078D01*
X181320000Y-79444999D01*
X174280000Y-79444999D01*
X174280000Y-79250078D01*
X174264876Y-79115853D01*
X174205336Y-78945699D01*
X174109423Y-78793053D01*
X173981946Y-78665576D01*
X173829303Y-78569664D01*
X173659139Y-78510122D01*
X173630000Y-78506838D01*
X173329999Y-78506838D01*
X173300860Y-78510122D01*
X173130696Y-78569664D01*
X172978053Y-78665576D01*
X172850576Y-78793053D01*
X172754663Y-78945699D01*
X172695123Y-79115853D01*
X172680000Y-79250078D01*
X172680000Y-79444999D01*
X156137435Y-79444999D01*
X156141626Y-79420334D01*
X156144087Y-79409548D01*
X156224048Y-79131999D01*
X156227708Y-79121540D01*
X156338235Y-78854705D01*
X156343049Y-78844710D01*
X156371599Y-78793053D01*
X156482751Y-78591937D01*
X156488647Y-78582554D01*
X156655784Y-78346998D01*
X156662683Y-78338346D01*
X156855154Y-78122970D01*
X156862970Y-78115154D01*
X157078346Y-77922683D01*
X157086998Y-77915784D01*
X157322554Y-77748647D01*
X157331937Y-77742751D01*
X157584716Y-77603046D01*
X157594705Y-77598235D01*
X157861540Y-77487708D01*
X157871999Y-77484048D01*
X158149548Y-77404087D01*
X158160334Y-77401626D01*
X158445076Y-77353247D01*
X158456095Y-77352005D01*
X158747222Y-77335655D01*
X158752773Y-77335500D01*
X158815892Y-77335500D01*
X196784108Y-77335500D01*
X196847227Y-77335500D01*
X196852777Y-77335655D01*
G37*
%TD.AperFunction*%
%TD*%
M02*
