%TF.GenerationSoftware,KiCad,Pcbnew,7.0.1*%
%TF.CreationDate,2023-05-12T00:47:34+01:00*%
%TF.ProjectId,MoonPad,4d6f6f6e-5061-4642-9e6b-696361645f70,rev?*%
%TF.SameCoordinates,Original*%
%TF.FileFunction,Copper,L1,Top*%
%TF.FilePolarity,Positive*%
%FSLAX46Y46*%
G04 Gerber Fmt 4.6, Leading zero omitted, Abs format (unit mm)*
G04 Created by KiCad (PCBNEW 7.0.1) date 2023-05-12 00:47:34*
%MOMM*%
%LPD*%
G01*
G04 APERTURE LIST*
G04 Aperture macros list*
%AMRoundRect*
0 Rectangle with rounded corners*
0 $1 Rounding radius*
0 $2 $3 $4 $5 $6 $7 $8 $9 X,Y pos of 4 corners*
0 Add a 4 corners polygon primitive as box body*
4,1,4,$2,$3,$4,$5,$6,$7,$8,$9,$2,$3,0*
0 Add four circle primitives for the rounded corners*
1,1,$1+$1,$2,$3*
1,1,$1+$1,$4,$5*
1,1,$1+$1,$6,$7*
1,1,$1+$1,$8,$9*
0 Add four rect primitives between the rounded corners*
20,1,$1+$1,$2,$3,$4,$5,0*
20,1,$1+$1,$4,$5,$6,$7,0*
20,1,$1+$1,$6,$7,$8,$9,0*
20,1,$1+$1,$8,$9,$2,$3,0*%
G04 Aperture macros list end*
%TA.AperFunction,SMDPad,CuDef*%
%ADD10RoundRect,0.140000X0.170000X-0.140000X0.170000X0.140000X-0.170000X0.140000X-0.170000X-0.140000X0*%
%TD*%
%TA.AperFunction,SMDPad,CuDef*%
%ADD11RoundRect,0.140000X-0.170000X0.140000X-0.170000X-0.140000X0.170000X-0.140000X0.170000X0.140000X0*%
%TD*%
%TA.AperFunction,SMDPad,CuDef*%
%ADD12R,1.400000X1.200000*%
%TD*%
%TA.AperFunction,SMDPad,CuDef*%
%ADD13RoundRect,0.140000X-0.140000X-0.170000X0.140000X-0.170000X0.140000X0.170000X-0.140000X0.170000X0*%
%TD*%
%TA.AperFunction,SMDPad,CuDef*%
%ADD14RoundRect,0.135000X0.185000X-0.135000X0.185000X0.135000X-0.185000X0.135000X-0.185000X-0.135000X0*%
%TD*%
%TA.AperFunction,SMDPad,CuDef*%
%ADD15R,0.600000X1.450000*%
%TD*%
%TA.AperFunction,SMDPad,CuDef*%
%ADD16R,0.300000X1.450000*%
%TD*%
%TA.AperFunction,ComponentPad*%
%ADD17O,1.000000X2.100000*%
%TD*%
%TA.AperFunction,ComponentPad*%
%ADD18O,1.000000X1.600000*%
%TD*%
%TA.AperFunction,SMDPad,CuDef*%
%ADD19RoundRect,0.150000X-0.587500X-0.150000X0.587500X-0.150000X0.587500X0.150000X-0.587500X0.150000X0*%
%TD*%
%TA.AperFunction,SMDPad,CuDef*%
%ADD20R,1.000000X0.850000*%
%TD*%
%TA.AperFunction,SMDPad,CuDef*%
%ADD21RoundRect,0.140000X0.140000X0.170000X-0.140000X0.170000X-0.140000X-0.170000X0.140000X-0.170000X0*%
%TD*%
%TA.AperFunction,SMDPad,CuDef*%
%ADD22R,0.900000X0.300000*%
%TD*%
%TA.AperFunction,SMDPad,CuDef*%
%ADD23R,0.250000X1.650000*%
%TD*%
%TA.AperFunction,SMDPad,CuDef*%
%ADD24RoundRect,0.135000X0.135000X0.185000X-0.135000X0.185000X-0.135000X-0.185000X0.135000X-0.185000X0*%
%TD*%
%TA.AperFunction,SMDPad,CuDef*%
%ADD25RoundRect,0.250000X0.475000X-0.250000X0.475000X0.250000X-0.475000X0.250000X-0.475000X-0.250000X0*%
%TD*%
%TA.AperFunction,SMDPad,CuDef*%
%ADD26RoundRect,0.250000X0.250000X0.475000X-0.250000X0.475000X-0.250000X-0.475000X0.250000X-0.475000X0*%
%TD*%
%TA.AperFunction,SMDPad,CuDef*%
%ADD27RoundRect,0.135000X-0.185000X0.135000X-0.185000X-0.135000X0.185000X-0.135000X0.185000X0.135000X0*%
%TD*%
%TA.AperFunction,SMDPad,CuDef*%
%ADD28RoundRect,0.050000X-0.387500X-0.050000X0.387500X-0.050000X0.387500X0.050000X-0.387500X0.050000X0*%
%TD*%
%TA.AperFunction,SMDPad,CuDef*%
%ADD29RoundRect,0.050000X-0.050000X-0.387500X0.050000X-0.387500X0.050000X0.387500X-0.050000X0.387500X0*%
%TD*%
%TA.AperFunction,ComponentPad*%
%ADD30C,0.600000*%
%TD*%
%TA.AperFunction,SMDPad,CuDef*%
%ADD31RoundRect,0.144000X-1.456000X-1.456000X1.456000X-1.456000X1.456000X1.456000X-1.456000X1.456000X0*%
%TD*%
%TA.AperFunction,SMDPad,CuDef*%
%ADD32RoundRect,0.150000X0.512500X0.150000X-0.512500X0.150000X-0.512500X-0.150000X0.512500X-0.150000X0*%
%TD*%
%TA.AperFunction,SMDPad,CuDef*%
%ADD33R,1.000000X1.700000*%
%TD*%
%TA.AperFunction,SMDPad,CuDef*%
%ADD34RoundRect,0.135000X-0.135000X-0.185000X0.135000X-0.185000X0.135000X0.185000X-0.135000X0.185000X0*%
%TD*%
%TA.AperFunction,SMDPad,CuDef*%
%ADD35RoundRect,0.150000X0.587500X0.150000X-0.587500X0.150000X-0.587500X-0.150000X0.587500X-0.150000X0*%
%TD*%
%TA.AperFunction,SMDPad,CuDef*%
%ADD36RoundRect,0.082000X0.718000X-0.328000X0.718000X0.328000X-0.718000X0.328000X-0.718000X-0.328000X0*%
%TD*%
%TA.AperFunction,ComponentPad*%
%ADD37R,1.700000X1.700000*%
%TD*%
%TA.AperFunction,ComponentPad*%
%ADD38O,1.700000X1.700000*%
%TD*%
%TA.AperFunction,ViaPad*%
%ADD39C,0.700000*%
%TD*%
%TA.AperFunction,ViaPad*%
%ADD40C,0.500000*%
%TD*%
%TA.AperFunction,ViaPad*%
%ADD41C,0.450000*%
%TD*%
%TA.AperFunction,Conductor*%
%ADD42C,0.500000*%
%TD*%
%TA.AperFunction,Conductor*%
%ADD43C,0.200000*%
%TD*%
%TA.AperFunction,Conductor*%
%ADD44C,0.300000*%
%TD*%
G04 APERTURE END LIST*
D10*
%TO.P,C8,1*%
%TO.N,+1V1*%
X179832000Y-96873000D03*
%TO.P,C8,2*%
%TO.N,GND*%
X179832000Y-95913000D03*
%TD*%
D11*
%TO.P,C23,1*%
%TO.N,VBUS*%
X170307000Y-83566000D03*
%TO.P,C23,2*%
%TO.N,GND*%
X170307000Y-84526000D03*
%TD*%
D10*
%TO.P,C9,1*%
%TO.N,+3V3*%
X173101000Y-102588000D03*
%TO.P,C9,2*%
%TO.N,GND*%
X173101000Y-101628000D03*
%TD*%
D11*
%TO.P,C26,1*%
%TO.N,VBUS*%
X183642000Y-111252000D03*
%TO.P,C26,2*%
%TO.N,GND*%
X183642000Y-112212000D03*
%TD*%
D12*
%TO.P,Y1,1,1*%
%TO.N,Net-(C3-Pad1)*%
X178900000Y-108370000D03*
%TO.P,Y1,2,2*%
%TO.N,GND*%
X176700000Y-108370000D03*
%TO.P,Y1,3,3*%
%TO.N,/XIN*%
X176700000Y-110070000D03*
%TO.P,Y1,4,4*%
%TO.N,GND*%
X178900000Y-110070000D03*
%TD*%
D11*
%TO.P,C25,1*%
%TO.N,VBUS*%
X185293000Y-100584000D03*
%TO.P,C25,2*%
%TO.N,GND*%
X185293000Y-101544000D03*
%TD*%
D10*
%TO.P,C14,1*%
%TO.N,+3V3*%
X177419000Y-93698000D03*
%TO.P,C14,2*%
%TO.N,GND*%
X177419000Y-92738000D03*
%TD*%
D13*
%TO.P,C6,1*%
%TO.N,+1V1*%
X180368000Y-106299000D03*
%TO.P,C6,2*%
%TO.N,GND*%
X181328000Y-106299000D03*
%TD*%
D14*
%TO.P,R6,1*%
%TO.N,GND*%
X176022000Y-87430000D03*
%TO.P,R6,2*%
%TO.N,Net-(J3-CC2)*%
X176022000Y-86410000D03*
%TD*%
D15*
%TO.P,J3,A1,GND*%
%TO.N,GND*%
X181050000Y-84690000D03*
%TO.P,J3,A4,VBUS*%
%TO.N,VBUS*%
X180250000Y-84690000D03*
D16*
%TO.P,J3,A5,CC1*%
%TO.N,Net-(J3-CC1)*%
X179050000Y-84690000D03*
%TO.P,J3,A6,D+*%
%TO.N,/USB_D+*%
X178050000Y-84690000D03*
%TO.P,J3,A7,D-*%
%TO.N,/USB_D-*%
X177550000Y-84690000D03*
%TO.P,J3,A8,SBU1*%
%TO.N,unconnected-(J3-SBU1-PadA8)*%
X176550000Y-84690000D03*
D15*
%TO.P,J3,A9,VBUS*%
%TO.N,VBUS*%
X175350000Y-84690000D03*
%TO.P,J3,A12,GND*%
%TO.N,GND*%
X174550000Y-84690000D03*
%TO.P,J3,B1,GND*%
X174550000Y-84690000D03*
%TO.P,J3,B4,VBUS*%
%TO.N,VBUS*%
X175350000Y-84690000D03*
D16*
%TO.P,J3,B5,CC2*%
%TO.N,Net-(J3-CC2)*%
X176050000Y-84690000D03*
%TO.P,J3,B6,D+*%
%TO.N,/USB_D+*%
X177050000Y-84690000D03*
%TO.P,J3,B7,D-*%
%TO.N,/USB_D-*%
X178550000Y-84690000D03*
%TO.P,J3,B8,SBU2*%
%TO.N,unconnected-(J3-SBU2-PadB8)*%
X179550000Y-84690000D03*
D15*
%TO.P,J3,B9,VBUS*%
%TO.N,VBUS*%
X180250000Y-84690000D03*
%TO.P,J3,B12,GND*%
%TO.N,GND*%
X181050000Y-84690000D03*
D17*
%TO.P,J3,S1,SHIELD*%
X182120000Y-83775000D03*
D18*
X182120000Y-79595000D03*
D17*
X173480000Y-83775000D03*
D18*
X173480000Y-79595000D03*
%TD*%
D19*
%TO.P,U5,1,VDD*%
%TO.N,+3V3*%
X187022500Y-104460000D03*
%TO.P,U5,2,OUT*%
%TO.N,Net-(U5-OUT)*%
X187022500Y-106360000D03*
%TO.P,U5,3,GND*%
%TO.N,GND*%
X188897500Y-105410000D03*
%TD*%
D10*
%TO.P,C10,1*%
%TO.N,+3V3*%
X180848000Y-96873000D03*
%TO.P,C10,2*%
%TO.N,GND*%
X180848000Y-95913000D03*
%TD*%
%TO.P,C11,1*%
%TO.N,+3V3*%
X181864000Y-96873000D03*
%TO.P,C11,2*%
%TO.N,GND*%
X181864000Y-95913000D03*
%TD*%
D20*
%TO.P,D3,1,DIN*%
%TO.N,Net-(D2-DOUT)*%
X168940000Y-85330000D03*
%TO.P,D3,2,VDD*%
%TO.N,VBUS*%
X168940000Y-83555000D03*
%TO.P,D3,3,DOUT*%
%TO.N,Net-(D3-DOUT)*%
X166340000Y-83580000D03*
%TO.P,D3,4,VSS*%
%TO.N,GND*%
X166340000Y-85330000D03*
%TD*%
D11*
%TO.P,C17,1*%
%TO.N,ADC_Z*%
X184404000Y-105438000D03*
%TO.P,C17,2*%
%TO.N,GND*%
X184404000Y-106398000D03*
%TD*%
D21*
%TO.P,C2,1*%
%TO.N,/XIN*%
X177264000Y-106934000D03*
%TO.P,C2,2*%
%TO.N,GND*%
X176304000Y-106934000D03*
%TD*%
D10*
%TO.P,C19,1*%
%TO.N,VBUS*%
X163322000Y-111252000D03*
%TO.P,C19,2*%
%TO.N,GND*%
X163322000Y-110292000D03*
%TD*%
D22*
%TO.P,IC1,1,~{CS}*%
%TO.N,/QSPI_SS*%
X172209000Y-94754000D03*
%TO.P,IC1,2,DO_IO1*%
%TO.N,/QSPI_SD1*%
X172209000Y-95254000D03*
%TO.P,IC1,3,~{WP_IO2}*%
%TO.N,/QSPI_SD2*%
X172209000Y-95754000D03*
%TO.P,IC1,4,GND*%
%TO.N,GND*%
X172209000Y-96254000D03*
%TO.P,IC1,5,DI_IO0*%
%TO.N,/QSPI_SD0*%
X175009000Y-96254000D03*
%TO.P,IC1,6,CLK*%
%TO.N,/QSPI_SCLK*%
X175009000Y-95754000D03*
%TO.P,IC1,7,~{RESET_IO3}*%
%TO.N,/QSPI_SD3*%
X175009000Y-95254000D03*
%TO.P,IC1,8,VCC*%
%TO.N,+3V3*%
X175009000Y-94754000D03*
D23*
%TO.P,IC1,9,EP*%
%TO.N,unconnected-(IC1-EP-Pad9)*%
X173609000Y-95504000D03*
%TD*%
D24*
%TO.P,R1,1*%
%TO.N,/QSPI_SS*%
X172976000Y-92583000D03*
%TO.P,R1,2*%
%TO.N,/~{USB_BOOT}*%
X171956000Y-92583000D03*
%TD*%
D13*
%TO.P,C12,1*%
%TO.N,+3V3*%
X182400000Y-99060000D03*
%TO.P,C12,2*%
%TO.N,GND*%
X183360000Y-99060000D03*
%TD*%
D10*
%TO.P,C15,1*%
%TO.N,+3V3*%
X176403000Y-93698000D03*
%TO.P,C15,2*%
%TO.N,GND*%
X176403000Y-92738000D03*
%TD*%
%TO.P,C20,1*%
%TO.N,VBUS*%
X170307000Y-98806000D03*
%TO.P,C20,2*%
%TO.N,GND*%
X170307000Y-97846000D03*
%TD*%
D21*
%TO.P,C16,1*%
%TO.N,+3V3*%
X173200000Y-99187000D03*
%TO.P,C16,2*%
%TO.N,GND*%
X172240000Y-99187000D03*
%TD*%
D13*
%TO.P,C22,1*%
%TO.N,+3V3*%
X187022800Y-103174800D03*
%TO.P,C22,2*%
%TO.N,GND*%
X187982800Y-103174800D03*
%TD*%
D14*
%TO.P,RLED1,1*%
%TO.N,Net-(D1-DIN)*%
X171958000Y-111252000D03*
%TO.P,RLED1,2*%
%TO.N,/GPIO12*%
X171958000Y-110232000D03*
%TD*%
D11*
%TO.P,C3,1*%
%TO.N,Net-(C3-Pad1)*%
X180467000Y-108486000D03*
%TO.P,C3,2*%
%TO.N,GND*%
X180467000Y-109446000D03*
%TD*%
D14*
%TO.P,R8,1*%
%TO.N,Net-(U4-OUT)*%
X170180000Y-104521000D03*
%TO.P,R8,2*%
%TO.N,ADC_X*%
X170180000Y-103501000D03*
%TD*%
D25*
%TO.P,C4,1*%
%TO.N,+3V3*%
X184857602Y-94929997D03*
%TO.P,C4,2*%
%TO.N,GND*%
X184857602Y-93029997D03*
%TD*%
D26*
%TO.P,C1,1*%
%TO.N,VBUS*%
X188855601Y-91185999D03*
%TO.P,C1,2*%
%TO.N,GND*%
X186955601Y-91185999D03*
%TD*%
D13*
%TO.P,C21,1*%
%TO.N,+3V3*%
X170081000Y-106426000D03*
%TO.P,C21,2*%
%TO.N,GND*%
X171041000Y-106426000D03*
%TD*%
D10*
%TO.P,C24,1*%
%TO.N,VBUS*%
X185293000Y-85344000D03*
%TO.P,C24,2*%
%TO.N,GND*%
X185293000Y-84384000D03*
%TD*%
D13*
%TO.P,R9,1*%
%TO.N,+3V3*%
X171986000Y-93599000D03*
%TO.P,R9,2*%
%TO.N,/QSPI_SS*%
X172946000Y-93599000D03*
%TD*%
D20*
%TO.P,D2,1,DIN*%
%TO.N,Net-(D1-DOUT)*%
X168940000Y-100570000D03*
%TO.P,D2,2,VDD*%
%TO.N,VBUS*%
X168940000Y-98795000D03*
%TO.P,D2,3,DOUT*%
%TO.N,Net-(D2-DOUT)*%
X166340000Y-98820000D03*
%TO.P,D2,4,VSS*%
%TO.N,GND*%
X166340000Y-100570000D03*
%TD*%
D10*
%TO.P,C5,1*%
%TO.N,+3V3*%
X174371000Y-93698000D03*
%TO.P,C5,2*%
%TO.N,GND*%
X174371000Y-92738000D03*
%TD*%
D27*
%TO.P,R4,1*%
%TO.N,/USB_D-*%
X179578000Y-92708000D03*
%TO.P,R4,2*%
%TO.N,Net-(U3-USB_DM)*%
X179578000Y-93728000D03*
%TD*%
D20*
%TO.P,D6,1,DIN*%
%TO.N,Net-(D5-DOUT)*%
X186660000Y-98820000D03*
%TO.P,D6,2,VDD*%
%TO.N,VBUS*%
X186660000Y-100595000D03*
%TO.P,D6,3,DOUT*%
%TO.N,Net-(D4-DIN)*%
X189260000Y-100570000D03*
%TO.P,D6,4,VSS*%
%TO.N,GND*%
X189260000Y-98820000D03*
%TD*%
D28*
%TO.P,U3,1,IOVDD*%
%TO.N,+3V3*%
X174362500Y-99000000D03*
%TO.P,U3,2,GPIO0*%
%TO.N,/GPIO0*%
X174362500Y-99400000D03*
%TO.P,U3,3,GPIO1*%
%TO.N,/GPIO1*%
X174362500Y-99800000D03*
%TO.P,U3,4,GPIO2*%
%TO.N,/GPIO2*%
X174362500Y-100200000D03*
%TO.P,U3,5,GPIO3*%
%TO.N,/GPIO3*%
X174362500Y-100600000D03*
%TO.P,U3,6,GPIO4*%
%TO.N,/GPIO4*%
X174362500Y-101000000D03*
%TO.P,U3,7,GPIO5*%
%TO.N,/GPIO5*%
X174362500Y-101400000D03*
%TO.P,U3,8,GPIO6*%
%TO.N,/GPIO6*%
X174362500Y-101800000D03*
%TO.P,U3,9,GPIO7*%
%TO.N,/GPIO7*%
X174362500Y-102200000D03*
%TO.P,U3,10,IOVDD*%
%TO.N,+3V3*%
X174362500Y-102600000D03*
%TO.P,U3,11,GPIO8*%
%TO.N,/GPIO8*%
X174362500Y-103000000D03*
%TO.P,U3,12,GPIO9*%
%TO.N,/GPIO9*%
X174362500Y-103400000D03*
%TO.P,U3,13,GPIO10*%
%TO.N,/GPIO10*%
X174362500Y-103800000D03*
%TO.P,U3,14,GPIO11*%
%TO.N,/GPIO11*%
X174362500Y-104200000D03*
D29*
%TO.P,U3,15,GPIO12*%
%TO.N,/GPIO12*%
X175200000Y-105037500D03*
%TO.P,U3,16,GPIO13*%
%TO.N,/GPIO13*%
X175600000Y-105037500D03*
%TO.P,U3,17,GPIO14*%
%TO.N,/GPIO14*%
X176000000Y-105037500D03*
%TO.P,U3,18,GPIO15*%
%TO.N,/GPIO15*%
X176400000Y-105037500D03*
%TO.P,U3,19,TESTEN*%
%TO.N,GND*%
X176800000Y-105037500D03*
%TO.P,U3,20,XIN*%
%TO.N,/XIN*%
X177200000Y-105037500D03*
%TO.P,U3,21,XOUT*%
%TO.N,/XOUT*%
X177600000Y-105037500D03*
%TO.P,U3,22,IOVDD*%
%TO.N,+3V3*%
X178000000Y-105037500D03*
%TO.P,U3,23,DVDD*%
%TO.N,+1V1*%
X178400000Y-105037500D03*
%TO.P,U3,24,SWCLK*%
%TO.N,/SWCLK*%
X178800000Y-105037500D03*
%TO.P,U3,25,SWD*%
%TO.N,/SWD*%
X179200000Y-105037500D03*
%TO.P,U3,26,RUN*%
%TO.N,/RUN*%
X179600000Y-105037500D03*
%TO.P,U3,27,GPIO16*%
%TO.N,/GPIO16*%
X180000000Y-105037500D03*
%TO.P,U3,28,GPIO17*%
%TO.N,/GPIO17*%
X180400000Y-105037500D03*
D28*
%TO.P,U3,29,GPIO18*%
%TO.N,/OLED_SDA*%
X181237500Y-104200000D03*
%TO.P,U3,30,GPIO19*%
%TO.N,/OLED_SCL*%
X181237500Y-103800000D03*
%TO.P,U3,31,GPIO20*%
%TO.N,/GPIO20*%
X181237500Y-103400000D03*
%TO.P,U3,32,GPIO21*%
%TO.N,/GPIO21*%
X181237500Y-103000000D03*
%TO.P,U3,33,IOVDD*%
%TO.N,+3V3*%
X181237500Y-102600000D03*
%TO.P,U3,34,GPIO22*%
%TO.N,/GPIO22*%
X181237500Y-102200000D03*
%TO.P,U3,35,GPIO23*%
%TO.N,/GPIO23*%
X181237500Y-101800000D03*
%TO.P,U3,36,GPIO24*%
%TO.N,/GPIO24*%
X181237500Y-101400000D03*
%TO.P,U3,37,GPIO25*%
%TO.N,/GPIO25*%
X181237500Y-101000000D03*
%TO.P,U3,38,GPIO26_ADC0*%
%TO.N,ADC_Z*%
X181237500Y-100600000D03*
%TO.P,U3,39,GPIO27_ADC1*%
%TO.N,ADC_X*%
X181237500Y-100200000D03*
%TO.P,U3,40,GPIO28_ADC2*%
%TO.N,/GPIO28_ADC2*%
X181237500Y-99800000D03*
%TO.P,U3,41,GPIO29_ADC3*%
%TO.N,/GPIO29_ADC3*%
X181237500Y-99400000D03*
%TO.P,U3,42,IOVDD*%
%TO.N,+3V3*%
X181237500Y-99000000D03*
D29*
%TO.P,U3,43,ADC_AVDD*%
X180400000Y-98162500D03*
%TO.P,U3,44,VREG_IN*%
X180000000Y-98162500D03*
%TO.P,U3,45,VREG_VOUT*%
%TO.N,+1V1*%
X179600000Y-98162500D03*
%TO.P,U3,46,USB_DM*%
%TO.N,Net-(U3-USB_DM)*%
X179200000Y-98162500D03*
%TO.P,U3,47,USB_DP*%
%TO.N,Net-(U3-USB_DP)*%
X178800000Y-98162500D03*
%TO.P,U3,48,USB_VDD*%
%TO.N,+3V3*%
X178400000Y-98162500D03*
%TO.P,U3,49,IOVDD*%
X178000000Y-98162500D03*
%TO.P,U3,50,DVDD*%
%TO.N,+1V1*%
X177600000Y-98162500D03*
%TO.P,U3,51,QSPI_SD3*%
%TO.N,/QSPI_SD3*%
X177200000Y-98162500D03*
%TO.P,U3,52,QSPI_SCLK*%
%TO.N,/QSPI_SCLK*%
X176800000Y-98162500D03*
%TO.P,U3,53,QSPI_SD0*%
%TO.N,/QSPI_SD0*%
X176400000Y-98162500D03*
%TO.P,U3,54,QSPI_SD2*%
%TO.N,/QSPI_SD2*%
X176000000Y-98162500D03*
%TO.P,U3,55,QSPI_SD1*%
%TO.N,/QSPI_SD1*%
X175600000Y-98162500D03*
%TO.P,U3,56,QSPI_SS*%
%TO.N,/QSPI_SS*%
X175200000Y-98162500D03*
D30*
%TO.P,U3,57,GND*%
%TO.N,GND*%
X176525000Y-100325000D03*
X176525000Y-101600000D03*
X176525000Y-102875000D03*
X177800000Y-100325000D03*
X177800000Y-101600000D03*
D31*
X177800000Y-101600000D03*
D30*
X177800000Y-102875000D03*
X179075000Y-100325000D03*
X179075000Y-101600000D03*
X179075000Y-102875000D03*
%TD*%
D32*
%TO.P,U6,1,VIN*%
%TO.N,VBUS*%
X189097500Y-94930000D03*
%TO.P,U6,2,GND*%
%TO.N,GND*%
X189097500Y-93980000D03*
%TO.P,U6,3,EN*%
%TO.N,VBUS*%
X189097500Y-93030000D03*
%TO.P,U6,4,NC*%
%TO.N,unconnected-(U6-NC-Pad4)*%
X186822500Y-93030000D03*
%TO.P,U6,5,VOUT*%
%TO.N,+3V3*%
X186822500Y-94930000D03*
%TD*%
D20*
%TO.P,D5,1,DIN*%
%TO.N,Net-(D3-DOUT)*%
X186660000Y-83580000D03*
%TO.P,D5,2,VDD*%
%TO.N,VBUS*%
X186660000Y-85355000D03*
%TO.P,D5,3,DOUT*%
%TO.N,Net-(D5-DOUT)*%
X189260000Y-85330000D03*
%TO.P,D5,4,VSS*%
%TO.N,GND*%
X189260000Y-83580000D03*
%TD*%
D10*
%TO.P,C7,1*%
%TO.N,+1V1*%
X175387000Y-93698000D03*
%TO.P,C7,2*%
%TO.N,GND*%
X175387000Y-92738000D03*
%TD*%
D33*
%TO.P,SW1,1,1*%
%TO.N,GND*%
X165740000Y-95200000D03*
X165740000Y-88900000D03*
%TO.P,SW1,2,2*%
%TO.N,/~{USB_BOOT}*%
X169540000Y-95200000D03*
X169540000Y-88900000D03*
%TD*%
D27*
%TO.P,R3,1*%
%TO.N,/USB_D+*%
X178435000Y-92708000D03*
%TO.P,R3,2*%
%TO.N,Net-(U3-USB_DP)*%
X178435000Y-93728000D03*
%TD*%
%TO.P,RLED2,1*%
%TO.N,GND*%
X183642000Y-108710000D03*
%TO.P,RLED2,2*%
%TO.N,Net-(D4-DOUT)*%
X183642000Y-109730000D03*
%TD*%
D10*
%TO.P,C13,1*%
%TO.N,+3V3*%
X182499000Y-102588000D03*
%TO.P,C13,2*%
%TO.N,GND*%
X182499000Y-101628000D03*
%TD*%
D14*
%TO.P,R7,1*%
%TO.N,Net-(U5-OUT)*%
X185420000Y-106426000D03*
%TO.P,R7,2*%
%TO.N,ADC_Z*%
X185420000Y-105406000D03*
%TD*%
D34*
%TO.P,R5,1*%
%TO.N,/XOUT*%
X178306000Y-106934000D03*
%TO.P,R5,2*%
%TO.N,Net-(C3-Pad1)*%
X179326000Y-106934000D03*
%TD*%
D14*
%TO.P,R2,1*%
%TO.N,GND*%
X179070000Y-87430000D03*
%TO.P,R2,2*%
%TO.N,Net-(J3-CC1)*%
X179070000Y-86410000D03*
%TD*%
D11*
%TO.P,C18,1*%
%TO.N,ADC_X*%
X171196000Y-103533000D03*
%TO.P,C18,2*%
%TO.N,GND*%
X171196000Y-104493000D03*
%TD*%
D35*
%TO.P,U4,1,VDD*%
%TO.N,+3V3*%
X168577500Y-106360000D03*
%TO.P,U4,2,OUT*%
%TO.N,Net-(U4-OUT)*%
X168577500Y-104460000D03*
%TO.P,U4,3,GND*%
%TO.N,GND*%
X166702500Y-105410000D03*
%TD*%
D36*
%TO.P,D4,1,VDD*%
%TO.N,VBUS*%
X185360000Y-111240000D03*
%TO.P,D4,2,DOUT*%
%TO.N,Net-(D4-DOUT)*%
X185360000Y-109740000D03*
%TO.P,D4,3,VSS*%
%TO.N,GND*%
X190560000Y-109740000D03*
%TO.P,D4,4,DIN*%
%TO.N,Net-(D4-DIN)*%
X190560000Y-111240000D03*
%TD*%
%TO.P,D1,1,VDD*%
%TO.N,VBUS*%
X165040000Y-111240000D03*
%TO.P,D1,2,DOUT*%
%TO.N,Net-(D1-DOUT)*%
X165040000Y-109740000D03*
%TO.P,D1,3,VSS*%
%TO.N,GND*%
X170240000Y-109740000D03*
%TO.P,D1,4,DIN*%
%TO.N,Net-(D1-DIN)*%
X170240000Y-111240000D03*
%TD*%
D37*
%TO.P,J1,1,Pin_1*%
%TO.N,GND*%
X195072000Y-89906000D03*
D38*
%TO.P,J1,2,Pin_2*%
%TO.N,+3V3*%
X195072000Y-87366000D03*
%TO.P,J1,3,Pin_3*%
%TO.N,/OLED_SCL*%
X195072000Y-84826000D03*
%TO.P,J1,4,Pin_4*%
%TO.N,/OLED_SDA*%
X195072000Y-82286000D03*
%TD*%
D39*
%TO.N,VBUS*%
X171069000Y-83566000D03*
X175310800Y-85775800D03*
X175895000Y-83312000D03*
X188722000Y-92329000D03*
X182880000Y-111252000D03*
X190246000Y-94995996D03*
X185293001Y-99822001D03*
X171069000Y-98806000D03*
X180263800Y-85775800D03*
X190246000Y-92328997D03*
X184531000Y-85344000D03*
X162560000Y-111252000D03*
X179705000Y-83312000D03*
X190246001Y-90804999D03*
%TO.N,GND*%
X181864000Y-95123000D03*
X184658001Y-91820999D03*
X190246002Y-93979996D03*
X172466000Y-101600000D03*
X183642000Y-107950000D03*
X165481000Y-105410000D03*
X183134000Y-101628000D03*
X176022000Y-88315000D03*
X179070000Y-88315000D03*
X165368000Y-85330000D03*
X190232000Y-83580000D03*
X171196000Y-105283000D03*
X165771102Y-90272001D03*
X162560000Y-110363000D03*
X182245000Y-106807000D03*
X184657999Y-90804999D03*
X180213000Y-110363000D03*
X185674001Y-90804999D03*
X165368000Y-100570000D03*
X176437289Y-106070887D03*
X176403000Y-91948000D03*
X185673999Y-91820999D03*
X165771102Y-93827998D03*
X180848000Y-95123000D03*
X177419000Y-91948000D03*
X174371000Y-91948000D03*
X189260000Y-97947000D03*
X171069000Y-84455000D03*
X172212000Y-96870700D03*
X185293002Y-102362000D03*
X170240000Y-108894135D03*
X188671200Y-103174800D03*
X172240000Y-99921000D03*
X183360000Y-99794000D03*
X170213100Y-97075125D03*
X190560000Y-108894135D03*
X184404000Y-107188000D03*
X179832000Y-95123000D03*
X184531000Y-84455000D03*
X182880000Y-112103903D03*
X175387000Y-91948000D03*
X190119000Y-105410000D03*
X171069000Y-107188000D03*
%TO.N,+1V1*%
X177600000Y-95885000D03*
D40*
X179003371Y-98977451D03*
D39*
%TO.N,ADC_X*%
X182176900Y-99998100D03*
X171958000Y-103505000D03*
D41*
%TO.N,/OLED_SCL*%
X182245000Y-103505000D03*
%TO.N,/OLED_SDA*%
X182753000Y-104002018D03*
%TD*%
D42*
%TO.N,VBUS*%
X170307000Y-83566000D02*
X171069000Y-83566000D01*
X185293001Y-99822001D02*
X185293001Y-100584001D01*
D43*
X180250000Y-83857000D02*
X180250000Y-84690000D01*
D42*
X185348000Y-111252000D02*
X185360000Y-111240000D01*
X175350000Y-84690000D02*
X175350000Y-85736600D01*
X168951000Y-83566000D02*
X168940000Y-83555000D01*
X170307000Y-98806000D02*
X168951000Y-98806000D01*
D43*
X175895000Y-83312000D02*
X175350000Y-83857000D01*
D42*
X168951000Y-98806000D02*
X168940000Y-98795000D01*
X163322000Y-111252000D02*
X165028000Y-111252000D01*
X185293000Y-100584000D02*
X186649000Y-100584000D01*
X180250000Y-84690000D02*
X180250000Y-85762000D01*
X183642000Y-111252000D02*
X182880000Y-111252000D01*
X170307000Y-98806000D02*
X171069000Y-98806000D01*
X170307000Y-83566000D02*
X168951000Y-83566000D01*
X186649000Y-100584000D02*
X186660000Y-100595000D01*
X175350000Y-85736600D02*
X175310800Y-85775800D01*
X163322000Y-111252000D02*
X162560000Y-111252000D01*
X183642000Y-111252000D02*
X185348000Y-111252000D01*
X185293000Y-85344000D02*
X184531000Y-85344000D01*
D43*
X175350000Y-83857000D02*
X175350000Y-84690000D01*
D42*
X186649000Y-85344000D02*
X186660000Y-85355000D01*
X185293000Y-85344000D02*
X186649000Y-85344000D01*
X165028000Y-111252000D02*
X165040000Y-111240000D01*
X180250000Y-85762000D02*
X180263800Y-85775800D01*
D43*
X179705000Y-83312000D02*
X180250000Y-83857000D01*
D42*
%TO.N,GND*%
X176304000Y-107974000D02*
X176304000Y-106934000D01*
X171196000Y-104493000D02*
X171196000Y-105283000D01*
X176700000Y-108370000D02*
X176304000Y-107974000D01*
X188671200Y-103174800D02*
X187982800Y-103174800D01*
X176022000Y-88315000D02*
X176022000Y-87430000D01*
X180213000Y-110363000D02*
X180467000Y-110109000D01*
X180848000Y-95913000D02*
X180848000Y-95123000D01*
X179070000Y-88315000D02*
X179070000Y-87430000D01*
X181864000Y-95913000D02*
X181864000Y-95123000D01*
X185293002Y-102362000D02*
X185293001Y-101544001D01*
X177419000Y-92738000D02*
X177419000Y-91948000D01*
X170307000Y-97169025D02*
X170213100Y-97075125D01*
X162631000Y-110292000D02*
X162560000Y-110363000D01*
X171041000Y-107160000D02*
X171069000Y-107188000D01*
X184602000Y-84384000D02*
X184531000Y-84455000D01*
X179832000Y-95913000D02*
X179832000Y-95123000D01*
X165368000Y-85330000D02*
X166340000Y-85330000D01*
D43*
X172209000Y-96867700D02*
X172212000Y-96870700D01*
X176437289Y-106070887D02*
X176800000Y-105708176D01*
D42*
X174395000Y-84690000D02*
X173480000Y-83775000D01*
D44*
X172209000Y-96254000D02*
X172209000Y-96867700D01*
D42*
X171041000Y-106426000D02*
X171041000Y-107160000D01*
X175387000Y-92738000D02*
X175387000Y-91948000D01*
X188897500Y-105410000D02*
X190119000Y-105410000D01*
X184404000Y-106398000D02*
X184404000Y-107188000D01*
X189260000Y-97947000D02*
X189260000Y-98820000D01*
X172240000Y-99921000D02*
X172240000Y-99187000D01*
X180467000Y-110109000D02*
X180467000Y-109446000D01*
X165776102Y-95199998D02*
X165776103Y-93833000D01*
X165776103Y-90267000D02*
X165771102Y-90272001D01*
X170998000Y-84526000D02*
X171069000Y-84455000D01*
X172466000Y-101600000D02*
X172494000Y-101628000D01*
X163322000Y-110292000D02*
X162631000Y-110292000D01*
X181050000Y-84690000D02*
X181205000Y-84690000D01*
X185293000Y-84384000D02*
X184602000Y-84384000D01*
X183134000Y-101628000D02*
X182499000Y-101628000D01*
X176437289Y-106070887D02*
X176304000Y-106204176D01*
X182988097Y-112212000D02*
X183642000Y-112212000D01*
X183360000Y-99794000D02*
X183360000Y-99060000D01*
X181205000Y-84690000D02*
X182120000Y-83775000D01*
X170307000Y-97846000D02*
X170307000Y-97169025D01*
X174371000Y-91948000D02*
X174371000Y-92738000D01*
X190232000Y-83580000D02*
X189260000Y-83580000D01*
X181328000Y-106299000D02*
X181737000Y-106299000D01*
X180213000Y-110363000D02*
X179193000Y-110363000D01*
X170240000Y-108894135D02*
X170240000Y-109740000D01*
X166702500Y-105410000D02*
X165481000Y-105410000D01*
X174550000Y-84690000D02*
X174395000Y-84690000D01*
X165368000Y-100570000D02*
X166340000Y-100570000D01*
X183642000Y-108710000D02*
X183642000Y-107950000D01*
X176403000Y-92738000D02*
X176403000Y-91948000D01*
X189097500Y-93980000D02*
X190246002Y-93979996D01*
X170307000Y-84526000D02*
X170998000Y-84526000D01*
D43*
X176800000Y-105708176D02*
X176800000Y-105037500D01*
D42*
X176304000Y-106204176D02*
X176304000Y-106934000D01*
X165776102Y-88900001D02*
X165776103Y-90267000D01*
X190560000Y-108894135D02*
X190560000Y-109740000D01*
X182880000Y-112103903D02*
X182988097Y-112212000D01*
X181737000Y-106299000D02*
X182245000Y-106807000D01*
X179193000Y-110363000D02*
X178900000Y-110070000D01*
X172494000Y-101628000D02*
X173101000Y-101628000D01*
D43*
%TO.N,/XIN*%
X177652400Y-109117600D02*
X176700000Y-110070000D01*
X177652400Y-107322400D02*
X177652400Y-109117600D01*
X177264000Y-106934000D02*
X177652400Y-107322400D01*
X177200000Y-106870000D02*
X177264000Y-106934000D01*
X177200000Y-105037500D02*
X177200000Y-106870000D01*
%TO.N,Net-(C3-Pad1)*%
X179016000Y-108486000D02*
X178900000Y-108370000D01*
X180467000Y-108486000D02*
X179016000Y-108486000D01*
X179326000Y-106934000D02*
X179326000Y-107944000D01*
X179326000Y-107944000D02*
X178900000Y-108370000D01*
%TO.N,+3V3*%
X173117000Y-102604000D02*
X173101000Y-102588000D01*
D44*
X176403000Y-94056200D02*
X176885600Y-94538800D01*
D42*
X187022800Y-104459700D02*
X187022500Y-104460000D01*
D43*
X180848000Y-96873000D02*
X181864000Y-96873000D01*
X182340000Y-99000000D02*
X182400000Y-99060000D01*
X181237500Y-102600000D02*
X182487000Y-102600000D01*
X173200000Y-99187000D02*
X173260000Y-99127000D01*
D42*
X187022800Y-103174800D02*
X187022800Y-104459700D01*
X170015000Y-106360000D02*
X168577500Y-106360000D01*
D44*
X174451352Y-93698000D02*
X174371000Y-93698000D01*
D43*
X173200000Y-99187000D02*
X173387000Y-99000000D01*
D44*
X175009000Y-94754000D02*
X175009000Y-94255648D01*
D43*
X173387000Y-99000000D02*
X174362500Y-99000000D01*
D44*
X175009000Y-94255648D02*
X174451352Y-93698000D01*
D43*
X181237500Y-99000000D02*
X182340000Y-99000000D01*
D44*
X176403000Y-93698000D02*
X176403000Y-94056200D01*
D43*
X182487000Y-102600000D02*
X182499000Y-102588000D01*
D42*
X170081000Y-106426000D02*
X170015000Y-106360000D01*
D43*
%TO.N,+1V1*%
X179003371Y-98977451D02*
X179250207Y-98977451D01*
X179600000Y-98162500D02*
X179600000Y-97105000D01*
X178400000Y-105502658D02*
X179196342Y-106299000D01*
X179652400Y-103220194D02*
X178400000Y-104472594D01*
X179600000Y-98627658D02*
X179600000Y-98162500D01*
X177574000Y-95885000D02*
X175387000Y-93698000D01*
X179250207Y-98977451D02*
X179600000Y-98627658D01*
X179600000Y-97105000D02*
X179832000Y-96873000D01*
X178400000Y-105037500D02*
X178400000Y-105502658D01*
X179652400Y-99626480D02*
X179652400Y-103220194D01*
X179196342Y-106299000D02*
X180368000Y-106299000D01*
X177600000Y-95885000D02*
X177574000Y-95885000D01*
X177600000Y-95885000D02*
X177600000Y-98162500D01*
X178400000Y-104472594D02*
X178400000Y-105037500D01*
X179003371Y-98977451D02*
X179652400Y-99626480D01*
%TO.N,ADC_Z*%
X184404000Y-101473000D02*
X183531000Y-100600000D01*
X183531000Y-100600000D02*
X181237500Y-100600000D01*
X185420000Y-105406000D02*
X184436000Y-105406000D01*
X184436000Y-105406000D02*
X184404000Y-105438000D01*
X184404000Y-105438000D02*
X184404000Y-101473000D01*
%TO.N,ADC_X*%
X171958000Y-103505000D02*
X170184000Y-103505000D01*
X182176900Y-99998100D02*
X181975000Y-100200000D01*
X170184000Y-103505000D02*
X170180000Y-103501000D01*
X181975000Y-100200000D02*
X181237500Y-100200000D01*
%TO.N,Net-(J3-CC1)*%
X179050000Y-84690000D02*
X179050000Y-86390000D01*
X179050000Y-86390000D02*
X179070000Y-86410000D01*
%TO.N,/USB_D+*%
X178050000Y-83741000D02*
X178050000Y-84690000D01*
X178830300Y-90814486D02*
X177123800Y-89107986D01*
X177050000Y-85777501D02*
X177050000Y-84690000D01*
X177102400Y-83712600D02*
X178021600Y-83712600D01*
X177123800Y-85851301D02*
X177050000Y-85777501D01*
X178830300Y-92312700D02*
X178830300Y-90814486D01*
X177050000Y-83765000D02*
X177102400Y-83712600D01*
X177123800Y-89107986D02*
X177123800Y-85851301D01*
X178435000Y-92708000D02*
X178830300Y-92312700D01*
X177050000Y-84690000D02*
X177050000Y-83765000D01*
X178021600Y-83712600D02*
X178050000Y-83741000D01*
%TO.N,/USB_D-*%
X177550000Y-84690000D02*
X177550000Y-85615000D01*
X179182700Y-90668514D02*
X177476200Y-88962014D01*
X177476200Y-85851301D02*
X177550000Y-85777501D01*
X177550000Y-85777501D02*
X177550000Y-84690000D01*
X177602400Y-85667400D02*
X178435000Y-85667400D01*
X178550000Y-85552400D02*
X178550000Y-84690000D01*
X178435000Y-85667400D02*
X178550000Y-85552400D01*
X179182700Y-92312700D02*
X179182700Y-90668514D01*
X177476200Y-88962014D02*
X177476200Y-85851301D01*
X179578000Y-92708000D02*
X179182700Y-92312700D01*
X177550000Y-85615000D02*
X177602400Y-85667400D01*
%TO.N,Net-(J3-CC2)*%
X176050000Y-84690000D02*
X176050000Y-86382000D01*
X176050000Y-86382000D02*
X176022000Y-86410000D01*
%TO.N,/QSPI_SS*%
X170815000Y-95498000D02*
X170815000Y-97409000D01*
X172209000Y-94336000D02*
X172946000Y-93599000D01*
X172976000Y-93569000D02*
X172946000Y-93599000D01*
X172209000Y-94754000D02*
X171559000Y-94754000D01*
X170815000Y-97409000D02*
X171568500Y-98162500D01*
X171559000Y-94754000D02*
X170815000Y-95498000D01*
X172209000Y-94754000D02*
X172209000Y-94336000D01*
X172976000Y-92583000D02*
X172976000Y-93569000D01*
X171568500Y-98162500D02*
X175200000Y-98162500D01*
%TO.N,/~{USB_BOOT}*%
X170628000Y-88900000D02*
X169540000Y-88900000D01*
X171956000Y-92583000D02*
X171956000Y-90168000D01*
X171956000Y-90168000D02*
X170688000Y-88900000D01*
X169540000Y-88900000D02*
X169540000Y-95200000D01*
%TO.N,Net-(U3-USB_DP)*%
X178435000Y-93728000D02*
X178800000Y-94093000D01*
X178800000Y-94093000D02*
X178800000Y-98162500D01*
%TO.N,Net-(U3-USB_DM)*%
X179200000Y-98162500D02*
X179200000Y-94106000D01*
X179200000Y-94106000D02*
X179578000Y-93728000D01*
%TO.N,/XOUT*%
X178308000Y-106228000D02*
X177600000Y-105520000D01*
X177600000Y-105520000D02*
X177600000Y-105037500D01*
X178306000Y-106934000D02*
X178308000Y-106932000D01*
X178308000Y-106932000D02*
X178308000Y-106228000D01*
%TO.N,Net-(U5-OUT)*%
X187022500Y-106360000D02*
X185486000Y-106360000D01*
X185486000Y-106360000D02*
X185420000Y-106426000D01*
%TO.N,Net-(U4-OUT)*%
X170119000Y-104460000D02*
X170180000Y-104521000D01*
X168577500Y-104460000D02*
X170119000Y-104460000D01*
%TO.N,/QSPI_SD1*%
X172209000Y-95254000D02*
X171602568Y-95254000D01*
X171602568Y-95254000D02*
X171196000Y-95660568D01*
X175375258Y-97472600D02*
X175600000Y-97697342D01*
X171196000Y-97028000D02*
X171640600Y-97472600D01*
X175600000Y-97697342D02*
X175600000Y-98162500D01*
X171196000Y-95660568D02*
X171196000Y-97028000D01*
X171640600Y-97472600D02*
X175375258Y-97472600D01*
%TO.N,/QSPI_SD2*%
X175260000Y-96774000D02*
X173355000Y-96774000D01*
X176000000Y-97514000D02*
X175260000Y-96774000D01*
X172859000Y-95754000D02*
X172209000Y-95754000D01*
X173101000Y-95996000D02*
X172859000Y-95754000D01*
X173101000Y-96520000D02*
X173101000Y-95996000D01*
X173355000Y-96774000D02*
X173101000Y-96520000D01*
X176000000Y-98162500D02*
X176000000Y-97514000D01*
%TO.N,/QSPI_SD0*%
X176400000Y-97152000D02*
X176400000Y-98162500D01*
X175009000Y-96254000D02*
X175502000Y-96254000D01*
X175502000Y-96254000D02*
X176400000Y-97152000D01*
%TO.N,/QSPI_SCLK*%
X175764000Y-95754000D02*
X175009000Y-95754000D01*
X176800000Y-98162500D02*
X176800000Y-96790000D01*
X176800000Y-96790000D02*
X175764000Y-95754000D01*
%TO.N,/QSPI_SD3*%
X176026000Y-95254000D02*
X175009000Y-95254000D01*
X177200000Y-96428000D02*
X176026000Y-95254000D01*
X177200000Y-98162500D02*
X177200000Y-96428000D01*
%TO.N,/GPIO12*%
X175200000Y-106990000D02*
X171958000Y-110232000D01*
X175200000Y-105037500D02*
X175200000Y-106990000D01*
%TO.N,Net-(D3-DOUT)*%
X166340000Y-83580000D02*
X168386000Y-81534000D01*
X168386000Y-81534000D02*
X184614000Y-81534000D01*
X184614000Y-81534000D02*
X186660000Y-83580000D01*
%TO.N,Net-(D4-DOUT)*%
X183642000Y-109730000D02*
X185350000Y-109730000D01*
X185350000Y-109730000D02*
X185360000Y-109740000D01*
%TO.N,/OLED_SCL*%
X182245000Y-103505000D02*
X181950000Y-103800000D01*
X181950000Y-103800000D02*
X181237500Y-103800000D01*
%TO.N,/OLED_SDA*%
X182753000Y-104002018D02*
X182555018Y-104200000D01*
X182555018Y-104200000D02*
X181237500Y-104200000D01*
%TO.N,Net-(D2-DOUT)*%
X167640000Y-86630000D02*
X167640000Y-97520000D01*
X167640000Y-97520000D02*
X166340000Y-98820000D01*
X168940000Y-85330000D02*
X167640000Y-86630000D01*
%TO.N,Net-(D1-DOUT)*%
X164211000Y-108911000D02*
X165040000Y-109740000D01*
X167908000Y-100570000D02*
X164211000Y-104267000D01*
X168940000Y-100570000D02*
X167908000Y-100570000D01*
X164211000Y-104267000D02*
X164211000Y-108911000D01*
%TO.N,Net-(D1-DIN)*%
X170252000Y-111252000D02*
X170240000Y-111240000D01*
X171958000Y-111252000D02*
X170252000Y-111252000D01*
%TO.N,Net-(D5-DOUT)*%
X188706000Y-96774000D02*
X190500000Y-96774000D01*
X190500000Y-96774000D02*
X192405000Y-94869000D01*
X186660000Y-98820000D02*
X188706000Y-96774000D01*
X192405000Y-94869000D02*
X192405000Y-88475000D01*
X192405000Y-88475000D02*
X189260000Y-85330000D01*
%TO.N,Net-(D4-DIN)*%
X189260000Y-100570000D02*
X189260000Y-102011000D01*
X189260000Y-102011000D02*
X191612400Y-104363400D01*
X191612400Y-110206513D02*
X190578913Y-111240000D01*
X191612400Y-104363400D02*
X191612400Y-110206513D01*
X190578913Y-111240000D02*
X190560000Y-111240000D01*
%TD*%
%TA.AperFunction,Conductor*%
%TO.N,GND*%
G36*
X178431091Y-91322439D02*
G01*
X178471319Y-91349319D01*
X178493481Y-91371481D01*
X178520361Y-91411709D01*
X178529800Y-91459162D01*
X178529800Y-92113500D01*
X178513187Y-92175500D01*
X178467800Y-92220887D01*
X178405800Y-92237500D01*
X178210683Y-92237500D01*
X178161827Y-92243931D01*
X178054594Y-92293935D01*
X177970935Y-92377594D01*
X177920931Y-92484827D01*
X177914500Y-92533683D01*
X177914500Y-92882317D01*
X177920931Y-92931172D01*
X177972423Y-93041595D01*
X177983776Y-93102110D01*
X177964622Y-93160625D01*
X177919684Y-93202714D01*
X177860041Y-93218000D01*
X177640826Y-93218000D01*
X177633198Y-93217500D01*
X177204798Y-93217500D01*
X177197182Y-93218000D01*
X176624826Y-93218000D01*
X176617198Y-93217500D01*
X176188798Y-93217500D01*
X176181182Y-93218000D01*
X175608826Y-93218000D01*
X175601198Y-93217500D01*
X175172798Y-93217500D01*
X175165182Y-93218000D01*
X174592826Y-93218000D01*
X174585199Y-93217500D01*
X174167862Y-93217500D01*
X174120409Y-93208061D01*
X174080181Y-93181181D01*
X173899319Y-93000319D01*
X173872439Y-92960091D01*
X173863000Y-92912638D01*
X173863000Y-91618362D01*
X173872439Y-91570909D01*
X173899319Y-91530681D01*
X174080681Y-91349319D01*
X174120909Y-91322439D01*
X174168362Y-91313000D01*
X178383638Y-91313000D01*
X178431091Y-91322439D01*
G37*
%TD.AperFunction*%
%TD*%
%TA.AperFunction,Conductor*%
%TO.N,GND*%
G36*
X182114091Y-94497439D02*
G01*
X182154319Y-94524319D01*
X182335681Y-94705681D01*
X182362561Y-94745909D01*
X182372000Y-94793362D01*
X182372000Y-96087638D01*
X182362561Y-96135091D01*
X182335681Y-96175319D01*
X182154818Y-96356181D01*
X182114590Y-96383061D01*
X182067137Y-96392500D01*
X181649798Y-96392500D01*
X181642182Y-96393000D01*
X181069826Y-96393000D01*
X181062198Y-96392500D01*
X180633798Y-96392500D01*
X180626182Y-96393000D01*
X180053826Y-96393000D01*
X180046198Y-96392500D01*
X180041901Y-96392500D01*
X179624499Y-96392500D01*
X179562500Y-96375888D01*
X179517113Y-96330501D01*
X179500500Y-96268501D01*
X179500500Y-94612000D01*
X179517113Y-94550000D01*
X179562500Y-94504613D01*
X179624500Y-94488000D01*
X182066638Y-94488000D01*
X182114091Y-94497439D01*
G37*
%TD.AperFunction*%
%TD*%
%TA.AperFunction,Conductor*%
%TO.N,VBUS*%
G36*
X190496878Y-90177534D02*
G01*
X190528996Y-90198994D01*
X190852004Y-90522002D01*
X190873464Y-90554120D01*
X190881000Y-90592006D01*
X190881000Y-93611602D01*
X190862472Y-93669267D01*
X190813822Y-93705348D01*
X190753262Y-93706339D01*
X190703458Y-93671869D01*
X190638623Y-93587374D01*
X190550086Y-93519438D01*
X190523627Y-93499135D01*
X190476223Y-93479500D01*
X190389711Y-93443665D01*
X190246002Y-93424746D01*
X190102291Y-93443665D01*
X189968379Y-93499133D01*
X189955470Y-93509039D01*
X189927025Y-93524243D01*
X189895202Y-93529497D01*
X189816263Y-93529497D01*
X189772784Y-93519438D01*
X189711395Y-93489428D01*
X189711393Y-93489427D01*
X189643260Y-93479500D01*
X188551740Y-93479500D01*
X188500640Y-93486945D01*
X188483606Y-93489427D01*
X188378518Y-93540801D01*
X188295801Y-93623518D01*
X188255313Y-93706339D01*
X188244427Y-93728607D01*
X188234500Y-93796740D01*
X188234500Y-94163260D01*
X188244427Y-94231393D01*
X188295802Y-94336483D01*
X188378517Y-94419198D01*
X188483607Y-94470573D01*
X188551740Y-94480500D01*
X189643257Y-94480500D01*
X189643260Y-94480500D01*
X189711393Y-94470573D01*
X189751520Y-94450956D01*
X189772794Y-94440556D01*
X189816274Y-94430497D01*
X189895205Y-94430497D01*
X189927028Y-94435751D01*
X189955473Y-94450956D01*
X189968377Y-94460857D01*
X190102291Y-94516326D01*
X190132244Y-94520269D01*
X190246002Y-94535246D01*
X190389711Y-94516326D01*
X190523627Y-94460857D01*
X190638623Y-94372617D01*
X190703459Y-94288121D01*
X190753261Y-94253652D01*
X190813822Y-94254643D01*
X190862472Y-94290724D01*
X190881000Y-94348389D01*
X190881000Y-95208989D01*
X190873464Y-95246875D01*
X190852004Y-95278992D01*
X190528996Y-95602001D01*
X190496878Y-95623462D01*
X190458992Y-95630998D01*
X188382008Y-95630998D01*
X188344122Y-95623462D01*
X188312005Y-95602002D01*
X187988996Y-95278994D01*
X187967535Y-95246876D01*
X187959999Y-95208990D01*
X187959999Y-90592006D01*
X187967535Y-90554120D01*
X187988995Y-90522003D01*
X188312002Y-90198995D01*
X188344120Y-90177534D01*
X188382005Y-90169998D01*
X190458996Y-90169998D01*
X190496878Y-90177534D01*
G37*
%TD.AperFunction*%
%TD*%
%TA.AperFunction,Conductor*%
%TO.N,GND*%
G36*
X187156997Y-90296999D02*
G01*
X187194879Y-90304535D01*
X187226991Y-90325991D01*
X187550006Y-90649005D01*
X187571464Y-90681120D01*
X187579000Y-90719006D01*
X187579000Y-91779992D01*
X187571464Y-91817878D01*
X187550003Y-91849996D01*
X187226996Y-92173002D01*
X187194879Y-92194462D01*
X187156993Y-92201998D01*
X186181998Y-92201998D01*
X185801000Y-92582997D01*
X185801000Y-93430992D01*
X185793464Y-93468878D01*
X185772004Y-93500996D01*
X185448997Y-93824003D01*
X185416879Y-93845463D01*
X185378993Y-93852999D01*
X184318009Y-93852999D01*
X184280123Y-93845463D01*
X184248006Y-93824003D01*
X183924996Y-93500995D01*
X183903535Y-93468877D01*
X183895999Y-93430995D01*
X183895999Y-90719004D01*
X183903535Y-90681119D01*
X183924993Y-90649004D01*
X184248002Y-90325993D01*
X184280120Y-90304533D01*
X184318005Y-90296997D01*
X187156997Y-90296999D01*
G37*
%TD.AperFunction*%
%TD*%
%TA.AperFunction,Conductor*%
%TO.N,+3V3*%
G36*
X187731401Y-94233998D02*
G01*
X187731401Y-95402398D01*
X187324998Y-95732598D01*
X183819799Y-95732598D01*
X183794399Y-95249997D01*
X183794398Y-94437197D01*
X184175401Y-94081597D01*
X187629801Y-94081597D01*
X187731401Y-94233998D01*
G37*
%TD.AperFunction*%
%TD*%
%TA.AperFunction,Conductor*%
%TO.N,+3V3*%
G36*
X187693385Y-93403725D02*
G01*
X187737814Y-93440188D01*
X187754499Y-93495189D01*
X187754499Y-94334211D01*
X187739813Y-94386096D01*
X187731401Y-94393828D01*
X187731401Y-94233998D01*
X187629801Y-94081597D01*
X185505884Y-94081597D01*
X185511757Y-94046420D01*
X185546433Y-94006051D01*
X185563161Y-93994874D01*
X185563170Y-93994867D01*
X185594307Y-93969313D01*
X185917314Y-93646306D01*
X185942872Y-93615164D01*
X185964332Y-93583046D01*
X185986676Y-93529101D01*
X186019507Y-93487218D01*
X186069284Y-93468385D01*
X186121617Y-93478046D01*
X186208607Y-93520573D01*
X186276740Y-93530500D01*
X187368257Y-93530500D01*
X187368260Y-93530500D01*
X187436393Y-93520573D01*
X187541483Y-93469198D01*
X187585497Y-93425183D01*
X187636185Y-93398091D01*
X187693385Y-93403725D01*
G37*
%TD.AperFunction*%
%TA.AperFunction,Conductor*%
G36*
X196852777Y-77335655D02*
G01*
X197143902Y-77352005D01*
X197154925Y-77353247D01*
X197439661Y-77401625D01*
X197450455Y-77404088D01*
X197727994Y-77484046D01*
X197738465Y-77487710D01*
X197861584Y-77538708D01*
X198005287Y-77598232D01*
X198015289Y-77603049D01*
X198268053Y-77742746D01*
X198277453Y-77748652D01*
X198512992Y-77915777D01*
X198521661Y-77922690D01*
X198737019Y-78115145D01*
X198744854Y-78122980D01*
X198937305Y-78338333D01*
X198944226Y-78347012D01*
X199111346Y-78582545D01*
X199117253Y-78591946D01*
X199256950Y-78844710D01*
X199261767Y-78854712D01*
X199372287Y-79121530D01*
X199375954Y-79132009D01*
X199455907Y-79409529D01*
X199458377Y-79420353D01*
X199506751Y-79705069D01*
X199507994Y-79716101D01*
X199524344Y-80007222D01*
X199524500Y-80012773D01*
X199524500Y-114297227D01*
X199524344Y-114302778D01*
X199507994Y-114593898D01*
X199506751Y-114604930D01*
X199458377Y-114889646D01*
X199455907Y-114900470D01*
X199375954Y-115177990D01*
X199372287Y-115188469D01*
X199261767Y-115455287D01*
X199256950Y-115465289D01*
X199117253Y-115718053D01*
X199111346Y-115727454D01*
X198944226Y-115962987D01*
X198937305Y-115971666D01*
X198744862Y-116187011D01*
X198737011Y-116194862D01*
X198521666Y-116387305D01*
X198512987Y-116394226D01*
X198277454Y-116561346D01*
X198268053Y-116567253D01*
X198015289Y-116706950D01*
X198005287Y-116711767D01*
X197738469Y-116822287D01*
X197727990Y-116825954D01*
X197450470Y-116905907D01*
X197439646Y-116908377D01*
X197154930Y-116956751D01*
X197143898Y-116957994D01*
X196852778Y-116974344D01*
X196847227Y-116974500D01*
X158752773Y-116974500D01*
X158747222Y-116974344D01*
X158456101Y-116957994D01*
X158445069Y-116956751D01*
X158160353Y-116908377D01*
X158149531Y-116905907D01*
X158079936Y-116885857D01*
X157872009Y-116825954D01*
X157861530Y-116822287D01*
X157594712Y-116711767D01*
X157584710Y-116706950D01*
X157331946Y-116567253D01*
X157322545Y-116561346D01*
X157087012Y-116394226D01*
X157078333Y-116387305D01*
X156862980Y-116194854D01*
X156855145Y-116187019D01*
X156662690Y-115971661D01*
X156655777Y-115962992D01*
X156488652Y-115727453D01*
X156482746Y-115718053D01*
X156343049Y-115465289D01*
X156338232Y-115455287D01*
X156227712Y-115188469D01*
X156224045Y-115177990D01*
X156222146Y-115171397D01*
X156144088Y-114900455D01*
X156141625Y-114889661D01*
X156093247Y-114604925D01*
X156092005Y-114593898D01*
X156085640Y-114480566D01*
X156075655Y-114302777D01*
X156075577Y-114300000D01*
X157394340Y-114300000D01*
X157414936Y-114535405D01*
X157476098Y-114763667D01*
X157575963Y-114977826D01*
X157575964Y-114977827D01*
X157575965Y-114977829D01*
X157711505Y-115171401D01*
X157878599Y-115338495D01*
X158072171Y-115474035D01*
X158072172Y-115474035D01*
X158072173Y-115474036D01*
X158286332Y-115573901D01*
X158286333Y-115573901D01*
X158286337Y-115573903D01*
X158514592Y-115635063D01*
X158585168Y-115641237D01*
X158691031Y-115650500D01*
X158691034Y-115650500D01*
X158808966Y-115650500D01*
X158808969Y-115650500D01*
X158897186Y-115642781D01*
X158985408Y-115635063D01*
X159213663Y-115573903D01*
X159427829Y-115474035D01*
X159621401Y-115338495D01*
X159788495Y-115171401D01*
X159924035Y-114977830D01*
X160023903Y-114763663D01*
X160085063Y-114535408D01*
X160105659Y-114300000D01*
X195494340Y-114300000D01*
X195514936Y-114535405D01*
X195576098Y-114763667D01*
X195675963Y-114977826D01*
X195675964Y-114977827D01*
X195675965Y-114977829D01*
X195811505Y-115171401D01*
X195978599Y-115338495D01*
X196172171Y-115474035D01*
X196172172Y-115474035D01*
X196172173Y-115474036D01*
X196386332Y-115573901D01*
X196386333Y-115573901D01*
X196386337Y-115573903D01*
X196614592Y-115635063D01*
X196685168Y-115641237D01*
X196791031Y-115650500D01*
X196791034Y-115650500D01*
X196908966Y-115650500D01*
X196908969Y-115650500D01*
X196997186Y-115642781D01*
X197085408Y-115635063D01*
X197313663Y-115573903D01*
X197527829Y-115474035D01*
X197721401Y-115338495D01*
X197888495Y-115171401D01*
X198024035Y-114977830D01*
X198123903Y-114763663D01*
X198185063Y-114535408D01*
X198205659Y-114300000D01*
X198185063Y-114064592D01*
X198123903Y-113836337D01*
X198024035Y-113622171D01*
X197888495Y-113428599D01*
X197721401Y-113261505D01*
X197527829Y-113125965D01*
X197527828Y-113125964D01*
X197527826Y-113125963D01*
X197313667Y-113026098D01*
X197085405Y-112964936D01*
X196908969Y-112949500D01*
X196908966Y-112949500D01*
X196791034Y-112949500D01*
X196791031Y-112949500D01*
X196614594Y-112964936D01*
X196386332Y-113026098D01*
X196172173Y-113125963D01*
X195978602Y-113261502D01*
X195811502Y-113428602D01*
X195675963Y-113622172D01*
X195576098Y-113836332D01*
X195514936Y-114064594D01*
X195494340Y-114300000D01*
X160105659Y-114300000D01*
X160085063Y-114064592D01*
X160023903Y-113836337D01*
X159924035Y-113622171D01*
X159788495Y-113428599D01*
X159621401Y-113261505D01*
X159427829Y-113125965D01*
X159427828Y-113125964D01*
X159427826Y-113125963D01*
X159213667Y-113026098D01*
X158985405Y-112964936D01*
X158808969Y-112949500D01*
X158808966Y-112949500D01*
X158691034Y-112949500D01*
X158691031Y-112949500D01*
X158514594Y-112964936D01*
X158286332Y-113026098D01*
X158072173Y-113125963D01*
X157878602Y-113261502D01*
X157711502Y-113428602D01*
X157575963Y-113622172D01*
X157476098Y-113836332D01*
X157414936Y-114064594D01*
X157394340Y-114300000D01*
X156075577Y-114300000D01*
X156075500Y-114297227D01*
X156075500Y-111251999D01*
X162004750Y-111251999D01*
X162023669Y-111395709D01*
X162056585Y-111475174D01*
X162079139Y-111529625D01*
X162105456Y-111563922D01*
X162167378Y-111644621D01*
X162210815Y-111677951D01*
X162282375Y-111732861D01*
X162377067Y-111772083D01*
X162416290Y-111788330D01*
X162433008Y-111790531D01*
X162560000Y-111807250D01*
X162703709Y-111788330D01*
X162837625Y-111732861D01*
X162850530Y-111722958D01*
X162878976Y-111707754D01*
X162910798Y-111702500D01*
X162990229Y-111702500D01*
X163032067Y-111711775D01*
X163062513Y-111725972D01*
X163112099Y-111732500D01*
X163531900Y-111732499D01*
X163531903Y-111732499D01*
X163581484Y-111725973D01*
X163581485Y-111725972D01*
X163581487Y-111725972D01*
X163611932Y-111711775D01*
X163653772Y-111702500D01*
X164015978Y-111702500D01*
X164053863Y-111710036D01*
X164085981Y-111731496D01*
X164159584Y-111805098D01*
X164256200Y-111847759D01*
X164279824Y-111850500D01*
X164279826Y-111850500D01*
X165289889Y-111850500D01*
X165331201Y-111859531D01*
X165364975Y-111884978D01*
X165385049Y-111922196D01*
X165404578Y-111990259D01*
X165404579Y-111990261D01*
X165404580Y-111990264D01*
X165485872Y-112153748D01*
X165485883Y-112153771D01*
X165595438Y-112299856D01*
X165729626Y-112423693D01*
X165729628Y-112423694D01*
X165729630Y-112423696D01*
X165884023Y-112521198D01*
X166053515Y-112589142D01*
X166232506Y-112625281D01*
X166354223Y-112627374D01*
X166415081Y-112628422D01*
X166415081Y-112628421D01*
X166415082Y-112628422D01*
X166595210Y-112598460D01*
X166766938Y-112536386D01*
X166774771Y-112531820D01*
X166777289Y-112530354D01*
X166777921Y-112530089D01*
X166822535Y-112504023D01*
X166872486Y-112490502D01*
X166911392Y-112490506D01*
X166911395Y-112490504D01*
X166924449Y-112490506D01*
X166924511Y-112490499D01*
X168355329Y-112490499D01*
X168355381Y-112490505D01*
X168368604Y-112490503D01*
X168368608Y-112490505D01*
X168407512Y-112490501D01*
X168457459Y-112504019D01*
X168491130Y-112523691D01*
X168491132Y-112523691D01*
X168501944Y-112530008D01*
X168502842Y-112530384D01*
X168513079Y-112536350D01*
X168684799Y-112598420D01*
X168864921Y-112628381D01*
X169047489Y-112625240D01*
X169226473Y-112589103D01*
X169395958Y-112521162D01*
X169550345Y-112423664D01*
X169684531Y-112299828D01*
X169794083Y-112153748D01*
X169875382Y-111990250D01*
X169884006Y-111960193D01*
X169894909Y-111922196D01*
X169914983Y-111884978D01*
X169948757Y-111859531D01*
X169990069Y-111850500D01*
X171000176Y-111850500D01*
X171023799Y-111847759D01*
X171072448Y-111826278D01*
X171120416Y-111805098D01*
X171195098Y-111730416D01*
X171237759Y-111633799D01*
X171237758Y-111633799D01*
X171243809Y-111620098D01*
X171244410Y-111620363D01*
X171253694Y-111595552D01*
X171289205Y-111563922D01*
X171335369Y-111552500D01*
X171423023Y-111552500D01*
X171460908Y-111560036D01*
X171493026Y-111581496D01*
X171536833Y-111625302D01*
X171577596Y-111666065D01*
X171684827Y-111716068D01*
X171726275Y-111721524D01*
X171733683Y-111722500D01*
X171733684Y-111722500D01*
X172182316Y-111722500D01*
X172182317Y-111722500D01*
X172188749Y-111721653D01*
X172231173Y-111716068D01*
X172338404Y-111666065D01*
X172422065Y-111582404D01*
X172472068Y-111475173D01*
X172478500Y-111426316D01*
X172478500Y-111077684D01*
X172472068Y-111028827D01*
X172422065Y-110921596D01*
X172338404Y-110837935D01*
X172325083Y-110831723D01*
X172283428Y-110795193D01*
X172267924Y-110742000D01*
X172283428Y-110688807D01*
X172325083Y-110652276D01*
X172338404Y-110646065D01*
X172422065Y-110562404D01*
X172472068Y-110455173D01*
X172478500Y-110406316D01*
X172478500Y-110177479D01*
X172486036Y-110139593D01*
X172507496Y-110107475D01*
X173215375Y-109399596D01*
X175366405Y-107248564D01*
X175379496Y-107239147D01*
X175384225Y-107233959D01*
X175384228Y-107233958D01*
X175415877Y-107199239D01*
X175418994Y-107195975D01*
X175432174Y-107182797D01*
X175432238Y-107182702D01*
X175440745Y-107171961D01*
X175459916Y-107150933D01*
X175463466Y-107141766D01*
X175474104Y-107121585D01*
X175479656Y-107113481D01*
X175486169Y-107085785D01*
X175490221Y-107072702D01*
X175500500Y-107046173D01*
X175500500Y-107036348D01*
X175503130Y-107013679D01*
X175505379Y-107004119D01*
X175501448Y-106975946D01*
X175500500Y-106962269D01*
X175500500Y-105774500D01*
X175513763Y-105725000D01*
X175550000Y-105688763D01*
X175599500Y-105675500D01*
X175674673Y-105675500D01*
X175674674Y-105675500D01*
X175747740Y-105660966D01*
X175747741Y-105660964D01*
X175757323Y-105659059D01*
X175800000Y-105646113D01*
X175842675Y-105659059D01*
X175852259Y-105660965D01*
X175852260Y-105660966D01*
X175880813Y-105666645D01*
X175931501Y-105693739D01*
X175958596Y-105744429D01*
X175952962Y-105801628D01*
X175900959Y-105927176D01*
X175889362Y-106015262D01*
X175885811Y-106031520D01*
X175876537Y-106061585D01*
X175875380Y-106065099D01*
X175855214Y-106122733D01*
X175853500Y-106132825D01*
X175853500Y-106193892D01*
X175853431Y-106197594D01*
X175851146Y-106258643D01*
X175853500Y-106276521D01*
X175853500Y-106602229D01*
X175844225Y-106644067D01*
X175830028Y-106674512D01*
X175823500Y-106724098D01*
X175823500Y-107143903D01*
X175830026Y-107193484D01*
X175844225Y-107223933D01*
X175853500Y-107265772D01*
X175853500Y-107598332D01*
X175836815Y-107653334D01*
X175811133Y-107691768D01*
X175811132Y-107691769D01*
X175811133Y-107691769D01*
X175799500Y-107750252D01*
X175799500Y-108989748D01*
X175799501Y-108989754D01*
X175811133Y-109048231D01*
X175850859Y-109107685D01*
X175855448Y-109114552D01*
X175890069Y-109137685D01*
X175922376Y-109173330D01*
X175934066Y-109219998D01*
X175922377Y-109266666D01*
X175890069Y-109302313D01*
X175855448Y-109325446D01*
X175811133Y-109391768D01*
X175811132Y-109391769D01*
X175811133Y-109391769D01*
X175799500Y-109450252D01*
X175799500Y-110689748D01*
X175804656Y-110715669D01*
X175811133Y-110748231D01*
X175855447Y-110814552D01*
X175899310Y-110843860D01*
X175921769Y-110858867D01*
X175980252Y-110870500D01*
X177419747Y-110870500D01*
X177419748Y-110870500D01*
X177478231Y-110858867D01*
X177544552Y-110814552D01*
X177588867Y-110748231D01*
X177600500Y-110689748D01*
X177600500Y-109635478D01*
X177608036Y-109597593D01*
X177629496Y-109565475D01*
X177649815Y-109545155D01*
X177818803Y-109376166D01*
X177844692Y-109357543D01*
X177853207Y-109353305D01*
X177853795Y-109354486D01*
X177870637Y-109343648D01*
X177921446Y-109340999D01*
X177966861Y-109363935D01*
X177994887Y-109406397D01*
X177997061Y-109440501D01*
X177999500Y-109440501D01*
X177999500Y-109450252D01*
X177999500Y-110689748D01*
X178004656Y-110715669D01*
X178011133Y-110748231D01*
X178055447Y-110814552D01*
X178099310Y-110843860D01*
X178121769Y-110858867D01*
X178180252Y-110870500D01*
X179619747Y-110870500D01*
X179619748Y-110870500D01*
X179678231Y-110858867D01*
X179721155Y-110830185D01*
X179776158Y-110813500D01*
X179862202Y-110813500D01*
X179894024Y-110818754D01*
X179922469Y-110833958D01*
X179935375Y-110843861D01*
X179983781Y-110863911D01*
X180069290Y-110899330D01*
X180086008Y-110901531D01*
X180213000Y-110918250D01*
X180356709Y-110899330D01*
X180490625Y-110843861D01*
X180605621Y-110755621D01*
X180693861Y-110640625D01*
X180749330Y-110506709D01*
X180750979Y-110494175D01*
X180762938Y-110458398D01*
X180787410Y-110429692D01*
X180800970Y-110418879D01*
X180833442Y-110371251D01*
X180835559Y-110368265D01*
X180869793Y-110321882D01*
X180869794Y-110321878D01*
X180871856Y-110319085D01*
X180876449Y-110309986D01*
X180877469Y-110306675D01*
X180877472Y-110306673D01*
X180894475Y-110251547D01*
X180895590Y-110248155D01*
X180914646Y-110193700D01*
X180914646Y-110193693D01*
X180915790Y-110190425D01*
X180917500Y-110180368D01*
X180917500Y-110119285D01*
X180917569Y-110115583D01*
X180918748Y-110084063D01*
X180919724Y-110057990D01*
X180919723Y-110057988D01*
X180919853Y-110054532D01*
X180917500Y-110036655D01*
X180917500Y-109812105D01*
X180926776Y-109770266D01*
X180953869Y-109712164D01*
X180970972Y-109675487D01*
X180977500Y-109625901D01*
X180977499Y-109266100D01*
X180977499Y-109266098D01*
X180977499Y-109266096D01*
X180970972Y-109216514D01*
X180966399Y-109206708D01*
X180920224Y-109107684D01*
X180848541Y-109036001D01*
X180822920Y-108991623D01*
X180822920Y-108940377D01*
X180848541Y-108895998D01*
X180920224Y-108824316D01*
X180970972Y-108715487D01*
X180977500Y-108665901D01*
X180977499Y-108306100D01*
X180977499Y-108306096D01*
X180970972Y-108256514D01*
X180937857Y-108185500D01*
X180920224Y-108147684D01*
X180835316Y-108062776D01*
X180835314Y-108062775D01*
X180835313Y-108062774D01*
X180726488Y-108012028D01*
X180676901Y-108005500D01*
X180257096Y-108005500D01*
X180207514Y-108012027D01*
X180098685Y-108062775D01*
X180098684Y-108062775D01*
X180098684Y-108062776D01*
X180013776Y-108147684D01*
X180013775Y-108147685D01*
X180004957Y-108156504D01*
X179972839Y-108177964D01*
X179934953Y-108185500D01*
X179899500Y-108185500D01*
X179850000Y-108172237D01*
X179813763Y-108136000D01*
X179800500Y-108086500D01*
X179800500Y-107750253D01*
X179798278Y-107739083D01*
X179788867Y-107691769D01*
X179746500Y-107628363D01*
X179744552Y-107625447D01*
X179670498Y-107575966D01*
X179638190Y-107540319D01*
X179626500Y-107493651D01*
X179626500Y-107468977D01*
X179634036Y-107431092D01*
X179655496Y-107398974D01*
X179711139Y-107343330D01*
X179740065Y-107314404D01*
X179790068Y-107207173D01*
X179796500Y-107158316D01*
X179796500Y-106758047D01*
X179813185Y-106703046D01*
X179857614Y-106666583D01*
X179914814Y-106660949D01*
X179965501Y-106688041D01*
X180029684Y-106752224D01*
X180029685Y-106752224D01*
X180029686Y-106752225D01*
X180042171Y-106758047D01*
X180138513Y-106802972D01*
X180188099Y-106809500D01*
X180547900Y-106809499D01*
X180547903Y-106809499D01*
X180577652Y-106805582D01*
X180597487Y-106802972D01*
X180706316Y-106752224D01*
X180777998Y-106680541D01*
X180822377Y-106654920D01*
X180873623Y-106654920D01*
X180918001Y-106680541D01*
X180989684Y-106752224D01*
X180989685Y-106752224D01*
X180989686Y-106752225D01*
X181002171Y-106758047D01*
X181098513Y-106802972D01*
X181148099Y-106809500D01*
X181507900Y-106809499D01*
X181550070Y-106803948D01*
X181594812Y-106808355D01*
X181632993Y-106832097D01*
X181678397Y-106877501D01*
X181697183Y-106903717D01*
X181706546Y-106934580D01*
X181708669Y-106950710D01*
X181747432Y-107044290D01*
X181764139Y-107084625D01*
X181802450Y-107134552D01*
X181852378Y-107199621D01*
X181897128Y-107233958D01*
X181967375Y-107287861D01*
X182062067Y-107327083D01*
X182101290Y-107343330D01*
X182118008Y-107345531D01*
X182245000Y-107362250D01*
X182388709Y-107343330D01*
X182522625Y-107287861D01*
X182637621Y-107199621D01*
X182725861Y-107084625D01*
X182781330Y-106950709D01*
X182800250Y-106807000D01*
X182781330Y-106663291D01*
X182774741Y-106647385D01*
X182767683Y-106599796D01*
X182783891Y-106554499D01*
X182819538Y-106522190D01*
X182866206Y-106510500D01*
X182932422Y-106510500D01*
X182932425Y-106510500D01*
X183089218Y-106495528D01*
X183290875Y-106436316D01*
X183477682Y-106340011D01*
X183642886Y-106210092D01*
X183655314Y-106195750D01*
X183723610Y-106116932D01*
X183764938Y-106088600D01*
X183814845Y-106084134D01*
X183860548Y-106104677D01*
X183890337Y-106144967D01*
X183896582Y-106194684D01*
X183893500Y-106218096D01*
X183893500Y-106577903D01*
X183900027Y-106627485D01*
X183944224Y-106722265D01*
X183953500Y-106764105D01*
X183953500Y-106837202D01*
X183948246Y-106869024D01*
X183933042Y-106897469D01*
X183923139Y-106910374D01*
X183867669Y-107044290D01*
X183848750Y-107188000D01*
X183863255Y-107298180D01*
X183852916Y-107356815D01*
X183810815Y-107398916D01*
X183752180Y-107409255D01*
X183642000Y-107394750D01*
X183498290Y-107413669D01*
X183364375Y-107469139D01*
X183249378Y-107557378D01*
X183161139Y-107672375D01*
X183105669Y-107806290D01*
X183086750Y-107949999D01*
X183105669Y-108093709D01*
X183161139Y-108227625D01*
X183171042Y-108240531D01*
X183186246Y-108268976D01*
X183191500Y-108300798D01*
X183191500Y-108328558D01*
X183182224Y-108370397D01*
X183127932Y-108486825D01*
X183121500Y-108535683D01*
X183121500Y-108884317D01*
X183127932Y-108933174D01*
X183177933Y-109040401D01*
X183177934Y-109040402D01*
X183177935Y-109040404D01*
X183261596Y-109124065D01*
X183274912Y-109130274D01*
X183316569Y-109166804D01*
X183332075Y-109219996D01*
X183316572Y-109273189D01*
X183274917Y-109309722D01*
X183261599Y-109315932D01*
X183177933Y-109399598D01*
X183127932Y-109506825D01*
X183121500Y-109555683D01*
X183121500Y-109904317D01*
X183127932Y-109953174D01*
X183177933Y-110060401D01*
X183177934Y-110060402D01*
X183177935Y-110060404D01*
X183261596Y-110144065D01*
X183368827Y-110194068D01*
X183410275Y-110199524D01*
X183417683Y-110200500D01*
X183417684Y-110200500D01*
X183866316Y-110200500D01*
X183866317Y-110200500D01*
X183872749Y-110199653D01*
X183915173Y-110194068D01*
X184022404Y-110144065D01*
X184082406Y-110084063D01*
X184106974Y-110059496D01*
X184139092Y-110038036D01*
X184176977Y-110030500D01*
X184262078Y-110030500D01*
X184308241Y-110041921D01*
X184343752Y-110073551D01*
X184360418Y-110118089D01*
X184362240Y-110133799D01*
X184404900Y-110230413D01*
X184404901Y-110230414D01*
X184404902Y-110230416D01*
X184479584Y-110305098D01*
X184479585Y-110305098D01*
X184479586Y-110305099D01*
X184576200Y-110347759D01*
X184599824Y-110350500D01*
X184599826Y-110350500D01*
X185660501Y-110350500D01*
X185710001Y-110363763D01*
X185746238Y-110400000D01*
X185759501Y-110449500D01*
X185759501Y-110530500D01*
X185746238Y-110580000D01*
X185710001Y-110616237D01*
X185660501Y-110629500D01*
X184599824Y-110629500D01*
X184576200Y-110632240D01*
X184479584Y-110674901D01*
X184391815Y-110762670D01*
X184391308Y-110762163D01*
X184371518Y-110785445D01*
X184317470Y-110801500D01*
X183973771Y-110801500D01*
X183931933Y-110792225D01*
X183901487Y-110778028D01*
X183851901Y-110771500D01*
X183432096Y-110771500D01*
X183382515Y-110778026D01*
X183352067Y-110792225D01*
X183310228Y-110801500D01*
X183230798Y-110801500D01*
X183198976Y-110796246D01*
X183170531Y-110781042D01*
X183157625Y-110771139D01*
X183023709Y-110715669D01*
X182880000Y-110696750D01*
X182736290Y-110715669D01*
X182602375Y-110771139D01*
X182487378Y-110859378D01*
X182399139Y-110974375D01*
X182343669Y-111108290D01*
X182324750Y-111251999D01*
X182343669Y-111395709D01*
X182399138Y-111529624D01*
X182466709Y-111617684D01*
X182484820Y-111656523D01*
X182484820Y-111699378D01*
X182466709Y-111738218D01*
X182399139Y-111826277D01*
X182343669Y-111960193D01*
X182324750Y-112103903D01*
X182343669Y-112247612D01*
X182382892Y-112342304D01*
X182399139Y-112381528D01*
X182407099Y-112391901D01*
X182487378Y-112496524D01*
X182531467Y-112530354D01*
X182602375Y-112584764D01*
X182697067Y-112623986D01*
X182736290Y-112640233D01*
X182882860Y-112659530D01*
X182890604Y-112659167D01*
X182898954Y-112659479D01*
X182916735Y-112662500D01*
X182920195Y-112662500D01*
X182977812Y-112662500D01*
X182981514Y-112662569D01*
X183039107Y-112664724D01*
X183039108Y-112664723D01*
X183042564Y-112664853D01*
X183060442Y-112662500D01*
X183310229Y-112662500D01*
X183352067Y-112671775D01*
X183382513Y-112685972D01*
X183432099Y-112692500D01*
X183851900Y-112692499D01*
X183851903Y-112692499D01*
X183881652Y-112688582D01*
X183901487Y-112685972D01*
X184010316Y-112635224D01*
X184095224Y-112550316D01*
X184145972Y-112441487D01*
X184152500Y-112391901D01*
X184152499Y-112032100D01*
X184152499Y-112032096D01*
X184145972Y-111982514D01*
X184117845Y-111922196D01*
X184095224Y-111873684D01*
X184093041Y-111871501D01*
X184065949Y-111820814D01*
X184071583Y-111763614D01*
X184108046Y-111719185D01*
X184163047Y-111702500D01*
X184335978Y-111702500D01*
X184373863Y-111710036D01*
X184405981Y-111731496D01*
X184479584Y-111805098D01*
X184576200Y-111847759D01*
X184599824Y-111850500D01*
X184599826Y-111850500D01*
X185609889Y-111850500D01*
X185651201Y-111859531D01*
X185684975Y-111884978D01*
X185705049Y-111922196D01*
X185724578Y-111990259D01*
X185724579Y-111990261D01*
X185724580Y-111990264D01*
X185805872Y-112153748D01*
X185805883Y-112153771D01*
X185915438Y-112299856D01*
X186049626Y-112423693D01*
X186049628Y-112423694D01*
X186049630Y-112423696D01*
X186204023Y-112521198D01*
X186373515Y-112589142D01*
X186552506Y-112625281D01*
X186674223Y-112627374D01*
X186735081Y-112628422D01*
X186735081Y-112628421D01*
X186735082Y-112628422D01*
X186915210Y-112598460D01*
X187086938Y-112536386D01*
X187094771Y-112531820D01*
X187097289Y-112530354D01*
X187097921Y-112530089D01*
X187142535Y-112504023D01*
X187192486Y-112490502D01*
X187231392Y-112490506D01*
X187231395Y-112490504D01*
X187244449Y-112490506D01*
X187244511Y-112490499D01*
X188675329Y-112490499D01*
X188675381Y-112490505D01*
X188688604Y-112490503D01*
X188688608Y-112490505D01*
X188727512Y-112490501D01*
X188777459Y-112504019D01*
X188811130Y-112523691D01*
X188811132Y-112523691D01*
X188821944Y-112530008D01*
X188822842Y-112530384D01*
X188833079Y-112536350D01*
X189004799Y-112598420D01*
X189184921Y-112628381D01*
X189367489Y-112625240D01*
X189546473Y-112589103D01*
X189715958Y-112521162D01*
X189870345Y-112423664D01*
X190004531Y-112299828D01*
X190114083Y-112153748D01*
X190195382Y-111990250D01*
X190204006Y-111960193D01*
X190214909Y-111922196D01*
X190234983Y-111884978D01*
X190268757Y-111859531D01*
X190310069Y-111850500D01*
X191320176Y-111850500D01*
X191343799Y-111847759D01*
X191392448Y-111826278D01*
X191440416Y-111805098D01*
X191515098Y-111730416D01*
X191557759Y-111633799D01*
X191557759Y-111633798D01*
X191560500Y-111610176D01*
X191560500Y-110869824D01*
X191557759Y-110846201D01*
X191538021Y-110801500D01*
X191536119Y-110797193D01*
X191529370Y-110739015D01*
X191556679Y-110687204D01*
X191778803Y-110465079D01*
X191791896Y-110455660D01*
X191796625Y-110450472D01*
X191796628Y-110450471D01*
X191828277Y-110415752D01*
X191831394Y-110412488D01*
X191844574Y-110399310D01*
X191844638Y-110399215D01*
X191853145Y-110388474D01*
X191872316Y-110367446D01*
X191875866Y-110358279D01*
X191886504Y-110338098D01*
X191892056Y-110329994D01*
X191898569Y-110302298D01*
X191902621Y-110289215D01*
X191912900Y-110262686D01*
X191912900Y-110252861D01*
X191915530Y-110230192D01*
X191917779Y-110220632D01*
X191913848Y-110192459D01*
X191912900Y-110178782D01*
X191912900Y-106034135D01*
X191925237Y-105986276D01*
X191959172Y-105950345D01*
X192006249Y-105935296D01*
X192054734Y-105944881D01*
X192092542Y-105976709D01*
X192145627Y-106051256D01*
X192169284Y-106084479D01*
X192204514Y-106133952D01*
X192295876Y-106221065D01*
X192356622Y-106278986D01*
X192533431Y-106392615D01*
X192728539Y-106470724D01*
X192728541Y-106470724D01*
X192728543Y-106470725D01*
X192934915Y-106510500D01*
X193092422Y-106510500D01*
X193092425Y-106510500D01*
X193249218Y-106495528D01*
X193450875Y-106436316D01*
X193637682Y-106340011D01*
X193802886Y-106210092D01*
X193815314Y-106195750D01*
X193868862Y-106133952D01*
X193940519Y-106051256D01*
X194045604Y-105869244D01*
X194114344Y-105670633D01*
X194144254Y-105462602D01*
X194134254Y-105252670D01*
X194109193Y-105149367D01*
X194084705Y-105048425D01*
X193997395Y-104857245D01*
X193875489Y-104686051D01*
X193723377Y-104541013D01*
X193546568Y-104427384D01*
X193351460Y-104349275D01*
X193196678Y-104319443D01*
X193145085Y-104309500D01*
X192987575Y-104309500D01*
X192893499Y-104318483D01*
X192830780Y-104324472D01*
X192629124Y-104383683D01*
X192442317Y-104479989D01*
X192277112Y-104609908D01*
X192139479Y-104768744D01*
X192097636Y-104841220D01*
X192061400Y-104877457D01*
X192011900Y-104890720D01*
X191962400Y-104877456D01*
X191926163Y-104841220D01*
X191912900Y-104791720D01*
X191912900Y-104428565D01*
X191915497Y-104412644D01*
X191913006Y-104358758D01*
X191912900Y-104354186D01*
X191912900Y-104335557D01*
X191912880Y-104335450D01*
X191911298Y-104321830D01*
X191909985Y-104293408D01*
X191906012Y-104284412D01*
X191899266Y-104262623D01*
X191897461Y-104252967D01*
X191882488Y-104228784D01*
X191876096Y-104216657D01*
X191864605Y-104190633D01*
X191857656Y-104183684D01*
X191843490Y-104165799D01*
X191838319Y-104157448D01*
X191815621Y-104140307D01*
X191805279Y-104131308D01*
X189589496Y-101915525D01*
X189568036Y-101883407D01*
X189560500Y-101845521D01*
X189560500Y-101294500D01*
X189573763Y-101245000D01*
X189610000Y-101208763D01*
X189659500Y-101195500D01*
X189779747Y-101195500D01*
X189779748Y-101195500D01*
X189838231Y-101183867D01*
X189904552Y-101139552D01*
X189948867Y-101073231D01*
X189960500Y-101014748D01*
X189960500Y-100125252D01*
X189948867Y-100066769D01*
X189916630Y-100018523D01*
X189904552Y-100000447D01*
X189838231Y-99956133D01*
X189779748Y-99944500D01*
X188740252Y-99944500D01*
X188711010Y-99950316D01*
X188681768Y-99956133D01*
X188615447Y-100000447D01*
X188571133Y-100066768D01*
X188566683Y-100089139D01*
X188563800Y-100103637D01*
X188559500Y-100125253D01*
X188559500Y-101014747D01*
X188571133Y-101073231D01*
X188615447Y-101139552D01*
X188659761Y-101169162D01*
X188681769Y-101183867D01*
X188740252Y-101195500D01*
X188860500Y-101195500D01*
X188910000Y-101208763D01*
X188946237Y-101245000D01*
X188959500Y-101294500D01*
X188959500Y-101945835D01*
X188956902Y-101961755D01*
X188959394Y-102015642D01*
X188959500Y-102020214D01*
X188959500Y-102038846D01*
X188959521Y-102038958D01*
X188961101Y-102052578D01*
X188962414Y-102080991D01*
X188966384Y-102089982D01*
X188973132Y-102111773D01*
X188974938Y-102121432D01*
X188989911Y-102145616D01*
X188996300Y-102157736D01*
X189007794Y-102183765D01*
X189007795Y-102183766D01*
X189014743Y-102190715D01*
X189028910Y-102208600D01*
X189034081Y-102216953D01*
X189056772Y-102234087D01*
X189067117Y-102243088D01*
X191282904Y-104458875D01*
X191304364Y-104490993D01*
X191311900Y-104528879D01*
X191311900Y-108877394D01*
X191306701Y-108894134D01*
X191311900Y-108910876D01*
X191311900Y-109030500D01*
X191298637Y-109080000D01*
X191262400Y-109116237D01*
X191212900Y-109129500D01*
X191197151Y-109129500D01*
X191143958Y-109113996D01*
X191107426Y-109072339D01*
X191098998Y-109017578D01*
X191104995Y-108972028D01*
X191114747Y-108897953D01*
X191116507Y-108894135D01*
X191114747Y-108890316D01*
X191096330Y-108750425D01*
X191061319Y-108665901D01*
X191040861Y-108616510D01*
X190978840Y-108535683D01*
X190952621Y-108501513D01*
X190877214Y-108443652D01*
X190837625Y-108413274D01*
X190798401Y-108397027D01*
X190703709Y-108357804D01*
X190560000Y-108338885D01*
X190416290Y-108357804D01*
X190282375Y-108413274D01*
X190167378Y-108501513D01*
X190085640Y-108608037D01*
X190042198Y-108640339D01*
X189988261Y-108644961D01*
X189939957Y-108620523D01*
X189870370Y-108556304D01*
X189715982Y-108458804D01*
X189715979Y-108458803D01*
X189715978Y-108458802D01*
X189602405Y-108413274D01*
X189546484Y-108390857D01*
X189367492Y-108354718D01*
X189184919Y-108351577D01*
X189004789Y-108381539D01*
X188833061Y-108443613D01*
X188822514Y-108449759D01*
X188821887Y-108450023D01*
X188777461Y-108475978D01*
X188727514Y-108489496D01*
X188688967Y-108489493D01*
X188688607Y-108489493D01*
X188675550Y-108489492D01*
X188675489Y-108489500D01*
X187192493Y-108489500D01*
X187142538Y-108475972D01*
X187098286Y-108450108D01*
X187097272Y-108449683D01*
X187086920Y-108443650D01*
X186915201Y-108381579D01*
X186735079Y-108351618D01*
X186552514Y-108354759D01*
X186373528Y-108390896D01*
X186204038Y-108458838D01*
X186049659Y-108556333D01*
X185915467Y-108680172D01*
X185805918Y-108826249D01*
X185724616Y-108989754D01*
X185705091Y-109057804D01*
X185685017Y-109095022D01*
X185651243Y-109120469D01*
X185609931Y-109129500D01*
X184599824Y-109129500D01*
X184576200Y-109132240D01*
X184479586Y-109174900D01*
X184404900Y-109249586D01*
X184356191Y-109359902D01*
X184356033Y-109359832D01*
X184346074Y-109386448D01*
X184310563Y-109418078D01*
X184264399Y-109429500D01*
X184176977Y-109429500D01*
X184139092Y-109421964D01*
X184106974Y-109400504D01*
X184022404Y-109315935D01*
X184009083Y-109309723D01*
X183967427Y-109273190D01*
X183951924Y-109219996D01*
X183967430Y-109166804D01*
X184009084Y-109130275D01*
X184022404Y-109124065D01*
X184106065Y-109040404D01*
X184156068Y-108933173D01*
X184162500Y-108884316D01*
X184162500Y-108535684D01*
X184156068Y-108486827D01*
X184150547Y-108474987D01*
X184101776Y-108370397D01*
X184092500Y-108328558D01*
X184092500Y-108300798D01*
X184097754Y-108268976D01*
X184112958Y-108240531D01*
X184114458Y-108238575D01*
X184122861Y-108227625D01*
X184178330Y-108093709D01*
X184197250Y-107950000D01*
X184182744Y-107839818D01*
X184193083Y-107781184D01*
X184235184Y-107739083D01*
X184293818Y-107728744D01*
X184404000Y-107743250D01*
X184547709Y-107724330D01*
X184681625Y-107668861D01*
X184796621Y-107580621D01*
X184884861Y-107465625D01*
X184940330Y-107331709D01*
X184959250Y-107188000D01*
X184940330Y-107044291D01*
X184940330Y-107044290D01*
X184940330Y-107044289D01*
X184909146Y-106969004D01*
X184903729Y-106910747D01*
X184932151Y-106859605D01*
X184984484Y-106833441D01*
X185042447Y-106841394D01*
X185146827Y-106890068D01*
X185189999Y-106895751D01*
X185195683Y-106896500D01*
X185195684Y-106896500D01*
X185644316Y-106896500D01*
X185644317Y-106896500D01*
X185650748Y-106895653D01*
X185693173Y-106890068D01*
X185800404Y-106840065D01*
X185874232Y-106766236D01*
X185918611Y-106740614D01*
X185969857Y-106740614D01*
X186014235Y-106766235D01*
X186436000Y-107188000D01*
X189483999Y-107188000D01*
X189484000Y-107188000D01*
X189992000Y-106680000D01*
X189992000Y-106061418D01*
X190007504Y-106008226D01*
X190049160Y-105971694D01*
X190103921Y-105963265D01*
X190106786Y-105963642D01*
X190119000Y-105965250D01*
X190262709Y-105946330D01*
X190396625Y-105890861D01*
X190511621Y-105802621D01*
X190599861Y-105687625D01*
X190655330Y-105553709D01*
X190674250Y-105410000D01*
X190655330Y-105266291D01*
X190599861Y-105132375D01*
X190527828Y-105038500D01*
X190511621Y-105017378D01*
X190424799Y-104950758D01*
X190396625Y-104929139D01*
X190357401Y-104912892D01*
X190262709Y-104873669D01*
X190134077Y-104856735D01*
X190119000Y-104854750D01*
X190118999Y-104854750D01*
X190103921Y-104856735D01*
X190049160Y-104848306D01*
X190007504Y-104811774D01*
X189992000Y-104758582D01*
X189992000Y-104140001D01*
X189992000Y-104140000D01*
X189484000Y-103632000D01*
X189483999Y-103632000D01*
X189215020Y-103632000D01*
X189162741Y-103617071D01*
X189126230Y-103576787D01*
X189116497Y-103523296D01*
X189136478Y-103472733D01*
X189140616Y-103467340D01*
X189152061Y-103452425D01*
X189207530Y-103318509D01*
X189226450Y-103174800D01*
X189209731Y-103047808D01*
X189207530Y-103031090D01*
X189181674Y-102968669D01*
X189152061Y-102897175D01*
X189082471Y-102806484D01*
X189063821Y-102782178D01*
X188984842Y-102721576D01*
X188948825Y-102693939D01*
X188909601Y-102677692D01*
X188814909Y-102638469D01*
X188671200Y-102619550D01*
X188527490Y-102638469D01*
X188393572Y-102693940D01*
X188391439Y-102695577D01*
X188341951Y-102715444D01*
X188289337Y-102706757D01*
X188212285Y-102670827D01*
X188162701Y-102664300D01*
X187802896Y-102664300D01*
X187753314Y-102670827D01*
X187644482Y-102721576D01*
X187643057Y-102723002D01*
X187593878Y-102749781D01*
X187538038Y-102745596D01*
X187493401Y-102711784D01*
X187477442Y-102690160D01*
X187370718Y-102611393D01*
X187245527Y-102567587D01*
X187215800Y-102564800D01*
X187172801Y-102564800D01*
X187172800Y-102564801D01*
X187172800Y-103533000D01*
X187159537Y-103582500D01*
X187123300Y-103618737D01*
X187073800Y-103632000D01*
X186971800Y-103632000D01*
X186922300Y-103618737D01*
X186886063Y-103582500D01*
X186872800Y-103533000D01*
X186872800Y-103324801D01*
X186872799Y-103324800D01*
X186442802Y-103324800D01*
X186442801Y-103324801D01*
X186442801Y-103397801D01*
X186445587Y-103427523D01*
X186475952Y-103514303D01*
X186480110Y-103563574D01*
X186459920Y-103608711D01*
X186448875Y-103617026D01*
X186449925Y-103618076D01*
X186436001Y-103632000D01*
X186436000Y-103632000D01*
X185928000Y-104140000D01*
X185928000Y-104140001D01*
X185928000Y-104896035D01*
X185915796Y-104943653D01*
X185882193Y-104979531D01*
X185835475Y-104994823D01*
X185787161Y-104985759D01*
X185693174Y-104941932D01*
X185644317Y-104935500D01*
X185644316Y-104935500D01*
X185195684Y-104935500D01*
X185195683Y-104935500D01*
X185146825Y-104941932D01*
X185039596Y-104991934D01*
X184964538Y-105066992D01*
X184920158Y-105092615D01*
X184868912Y-105092615D01*
X184824533Y-105066993D01*
X184772316Y-105014776D01*
X184772314Y-105014775D01*
X184772313Y-105014774D01*
X184761661Y-105009807D01*
X184720004Y-104973276D01*
X184704500Y-104920083D01*
X184704500Y-103024799D01*
X186442800Y-103024799D01*
X186442801Y-103024800D01*
X186872799Y-103024800D01*
X186872800Y-103024799D01*
X186872800Y-102564802D01*
X186872799Y-102564801D01*
X186829799Y-102564801D01*
X186800073Y-102567587D01*
X186674881Y-102611394D01*
X186568159Y-102690159D01*
X186489393Y-102796881D01*
X186445587Y-102922072D01*
X186442800Y-102951800D01*
X186442800Y-103024799D01*
X184704500Y-103024799D01*
X184704500Y-102790989D01*
X184723028Y-102733324D01*
X184771678Y-102697243D01*
X184832239Y-102696252D01*
X184882042Y-102730722D01*
X184900380Y-102754621D01*
X184934760Y-102781001D01*
X185015377Y-102842861D01*
X185110069Y-102882083D01*
X185149292Y-102898330D01*
X185166010Y-102900531D01*
X185293002Y-102917250D01*
X185436711Y-102898330D01*
X185570627Y-102842861D01*
X185685623Y-102754621D01*
X185773863Y-102639625D01*
X185829332Y-102505709D01*
X185848252Y-102362000D01*
X185829332Y-102218291D01*
X185828777Y-102216952D01*
X185773863Y-102084375D01*
X185763959Y-102071468D01*
X185748755Y-102043023D01*
X185743501Y-102011201D01*
X185743501Y-101910103D01*
X185752777Y-101868264D01*
X185780925Y-101807900D01*
X185796972Y-101773487D01*
X185803500Y-101723901D01*
X185803499Y-101364100D01*
X185803499Y-101364099D01*
X185803499Y-101364096D01*
X185796972Y-101314514D01*
X185796262Y-101312992D01*
X185746224Y-101205684D01*
X185744041Y-101203501D01*
X185716949Y-101152814D01*
X185722583Y-101095614D01*
X185759046Y-101051185D01*
X185814047Y-101034500D01*
X185877209Y-101034500D01*
X185920997Y-101044710D01*
X185955753Y-101073235D01*
X185959783Y-101082130D01*
X185960192Y-101081857D01*
X186015447Y-101164552D01*
X186044353Y-101183866D01*
X186081769Y-101208867D01*
X186140252Y-101220500D01*
X187179747Y-101220500D01*
X187179748Y-101220500D01*
X187238231Y-101208867D01*
X187304552Y-101164552D01*
X187348867Y-101098231D01*
X187360500Y-101039748D01*
X187360500Y-100150252D01*
X187348867Y-100091769D01*
X187327009Y-100059057D01*
X187304552Y-100025447D01*
X187238231Y-99981133D01*
X187179748Y-99969500D01*
X186140252Y-99969500D01*
X186111010Y-99975316D01*
X186081768Y-99981133D01*
X186015446Y-100025448D01*
X186009754Y-100033968D01*
X185970059Y-100068322D01*
X185918380Y-100077550D01*
X185869249Y-100059057D01*
X185836479Y-100018044D01*
X185829287Y-99966043D01*
X185829331Y-99965710D01*
X185848251Y-99822001D01*
X185829331Y-99678292D01*
X185773862Y-99544376D01*
X185720646Y-99475024D01*
X185685622Y-99429379D01*
X185601137Y-99364552D01*
X185570626Y-99341140D01*
X185523012Y-99321418D01*
X185436710Y-99285670D01*
X185293001Y-99266751D01*
X185149291Y-99285670D01*
X185015376Y-99341140D01*
X184900379Y-99429379D01*
X184812140Y-99544376D01*
X184756670Y-99678291D01*
X184737751Y-99822000D01*
X184756670Y-99965710D01*
X184812140Y-100099626D01*
X184822043Y-100112532D01*
X184837247Y-100140977D01*
X184842501Y-100172799D01*
X184842501Y-100217893D01*
X184833225Y-100259732D01*
X184789028Y-100354511D01*
X184782500Y-100404098D01*
X184782500Y-100763903D01*
X184789027Y-100813485D01*
X184803034Y-100843524D01*
X184839776Y-100922316D01*
X184911458Y-100993998D01*
X184937080Y-101038377D01*
X184937080Y-101089623D01*
X184911458Y-101134001D01*
X184867960Y-101177500D01*
X184839774Y-101205686D01*
X184811082Y-101267217D01*
X184781625Y-101303920D01*
X184738549Y-101322874D01*
X184691588Y-101319796D01*
X184651354Y-101295382D01*
X184649255Y-101293283D01*
X184635086Y-101275393D01*
X184629919Y-101267048D01*
X184607226Y-101249911D01*
X184596883Y-101240911D01*
X183789566Y-100433595D01*
X183780145Y-100420501D01*
X183759698Y-100401861D01*
X183740273Y-100384152D01*
X183736967Y-100380995D01*
X183717314Y-100361343D01*
X183718257Y-100360399D01*
X183695852Y-100335577D01*
X183683841Y-100290908D01*
X183693434Y-100245657D01*
X183722538Y-100209705D01*
X183752621Y-100186621D01*
X183780528Y-100150252D01*
X183840861Y-100071625D01*
X183896330Y-99937709D01*
X183915250Y-99794000D01*
X183896330Y-99650291D01*
X183893465Y-99643375D01*
X183873353Y-99594821D01*
X183840861Y-99516375D01*
X183830958Y-99503469D01*
X183815754Y-99475024D01*
X183810500Y-99443202D01*
X183810500Y-99391771D01*
X183819775Y-99349933D01*
X183826513Y-99335482D01*
X183833972Y-99319487D01*
X183840500Y-99269901D01*
X183840500Y-99264748D01*
X185959500Y-99264748D01*
X185963662Y-99285670D01*
X185971133Y-99323231D01*
X186015447Y-99389552D01*
X186036153Y-99403387D01*
X186081769Y-99433867D01*
X186140252Y-99445500D01*
X187179747Y-99445500D01*
X187179748Y-99445500D01*
X187238231Y-99433867D01*
X187304552Y-99389552D01*
X187348867Y-99323231D01*
X187360500Y-99264748D01*
X188559500Y-99264748D01*
X188563662Y-99285670D01*
X188571133Y-99323231D01*
X188615447Y-99389552D01*
X188636153Y-99403387D01*
X188681769Y-99433867D01*
X188740252Y-99445500D01*
X189779747Y-99445500D01*
X189779748Y-99445500D01*
X189838231Y-99433867D01*
X189904552Y-99389552D01*
X189948867Y-99323231D01*
X189960500Y-99264748D01*
X189960500Y-98375252D01*
X189948867Y-98316769D01*
X189904552Y-98250448D01*
X189838231Y-98206133D01*
X189838230Y-98206132D01*
X189835520Y-98204322D01*
X189804783Y-98171503D01*
X189791733Y-98128473D01*
X189795811Y-98103786D01*
X189794629Y-98103631D01*
X189804862Y-98025900D01*
X189815250Y-97947000D01*
X189796330Y-97803291D01*
X189792441Y-97793903D01*
X189780038Y-97763958D01*
X189740861Y-97669375D01*
X189689698Y-97602698D01*
X189652621Y-97554378D01*
X189571679Y-97492270D01*
X189537625Y-97466139D01*
X189492739Y-97447547D01*
X189403709Y-97410669D01*
X189260000Y-97391750D01*
X189116290Y-97410669D01*
X188982375Y-97466139D01*
X188867378Y-97554378D01*
X188779139Y-97669375D01*
X188723669Y-97803290D01*
X188704750Y-97947000D01*
X188725371Y-98103631D01*
X188724188Y-98103786D01*
X188728265Y-98128483D01*
X188715213Y-98171507D01*
X188684479Y-98204322D01*
X188615447Y-98250447D01*
X188571133Y-98316768D01*
X188571132Y-98316769D01*
X188571133Y-98316769D01*
X188559500Y-98375252D01*
X188559500Y-99264748D01*
X187360500Y-99264748D01*
X187360500Y-98585479D01*
X187368036Y-98547593D01*
X187389496Y-98515475D01*
X188801475Y-97103496D01*
X188833593Y-97082036D01*
X188871479Y-97074500D01*
X190434835Y-97074500D01*
X190450755Y-97077097D01*
X190457764Y-97076772D01*
X190457765Y-97076773D01*
X190504641Y-97074606D01*
X190509214Y-97074500D01*
X190527844Y-97074500D01*
X190527951Y-97074480D01*
X190541571Y-97072898D01*
X190569992Y-97071585D01*
X190578982Y-97067615D01*
X190600772Y-97060866D01*
X190610433Y-97059061D01*
X190634623Y-97044082D01*
X190646722Y-97037704D01*
X190672765Y-97026206D01*
X190679710Y-97019259D01*
X190697597Y-97005091D01*
X190705952Y-96999919D01*
X190723095Y-96977216D01*
X190732082Y-96966887D01*
X191178970Y-96519999D01*
X195494340Y-96519999D01*
X195514936Y-96755405D01*
X195576098Y-96983667D01*
X195675963Y-97197826D01*
X195780395Y-97346972D01*
X195811505Y-97391401D01*
X195978599Y-97558495D01*
X196172171Y-97694035D01*
X196172172Y-97694035D01*
X196172173Y-97694036D01*
X196386332Y-97793901D01*
X196386333Y-97793901D01*
X196386337Y-97793903D01*
X196614592Y-97855063D01*
X196685168Y-97861237D01*
X196791031Y-97870500D01*
X196791034Y-97870500D01*
X196908966Y-97870500D01*
X196908969Y-97870500D01*
X197006119Y-97862000D01*
X197085408Y-97855063D01*
X197313663Y-97793903D01*
X197527829Y-97694035D01*
X197721401Y-97558495D01*
X197888495Y-97391401D01*
X198024035Y-97197830D01*
X198123903Y-96983663D01*
X198185063Y-96755408D01*
X198205659Y-96520000D01*
X198204810Y-96510301D01*
X198190676Y-96348745D01*
X198185063Y-96284592D01*
X198123903Y-96056337D01*
X198024035Y-95842171D01*
X197888495Y-95648599D01*
X197721401Y-95481505D01*
X197699627Y-95466259D01*
X197575355Y-95379243D01*
X197527829Y-95345965D01*
X197527828Y-95345964D01*
X197527826Y-95345963D01*
X197313667Y-95246098D01*
X197085405Y-95184936D01*
X196908969Y-95169500D01*
X196908966Y-95169500D01*
X196791034Y-95169500D01*
X196791031Y-95169500D01*
X196614594Y-95184936D01*
X196386332Y-95246098D01*
X196172173Y-95345963D01*
X195978602Y-95481502D01*
X195811502Y-95648602D01*
X195675963Y-95842172D01*
X195576098Y-96056332D01*
X195514936Y-96284594D01*
X195494340Y-96519999D01*
X191178970Y-96519999D01*
X192571405Y-95127564D01*
X192584496Y-95118147D01*
X192589225Y-95112959D01*
X192589228Y-95112958D01*
X192620877Y-95078239D01*
X192623994Y-95074975D01*
X192637174Y-95061797D01*
X192637238Y-95061702D01*
X192645745Y-95050961D01*
X192664916Y-95029933D01*
X192668464Y-95020771D01*
X192679103Y-95000587D01*
X192684657Y-94992481D01*
X192691171Y-94964782D01*
X192695220Y-94951705D01*
X192705500Y-94925173D01*
X192705500Y-94915347D01*
X192708130Y-94892681D01*
X192708199Y-94892386D01*
X192710379Y-94883119D01*
X192706448Y-94854946D01*
X192705500Y-94841270D01*
X192705500Y-90775747D01*
X194021500Y-90775747D01*
X194033133Y-90834231D01*
X194077447Y-90900552D01*
X194091529Y-90909961D01*
X194143769Y-90944867D01*
X194202252Y-90956500D01*
X195941747Y-90956500D01*
X195941748Y-90956500D01*
X196000231Y-90944867D01*
X196066552Y-90900552D01*
X196110867Y-90834231D01*
X196122500Y-90775748D01*
X196122500Y-89036252D01*
X196110867Y-88977769D01*
X196096162Y-88955762D01*
X196066552Y-88911447D01*
X196000231Y-88867133D01*
X195997245Y-88866539D01*
X195941748Y-88855500D01*
X194202252Y-88855500D01*
X194173010Y-88861316D01*
X194143768Y-88867133D01*
X194077447Y-88911447D01*
X194033133Y-88977768D01*
X194021500Y-89036253D01*
X194021500Y-90775747D01*
X192705500Y-90775747D01*
X192705500Y-88540166D01*
X192708097Y-88524245D01*
X192705606Y-88470359D01*
X192705500Y-88465787D01*
X192705500Y-88447157D01*
X192705480Y-88447050D01*
X192703898Y-88433430D01*
X192702585Y-88405009D01*
X192698614Y-88396016D01*
X192691866Y-88374225D01*
X192690061Y-88364567D01*
X192675086Y-88340381D01*
X192668693Y-88328251D01*
X192657206Y-88302234D01*
X192650256Y-88295284D01*
X192636090Y-88277399D01*
X192630919Y-88269048D01*
X192608221Y-88251907D01*
X192597879Y-88242908D01*
X191870971Y-87516000D01*
X193930973Y-87516000D01*
X193936738Y-87578216D01*
X193995064Y-87783210D01*
X194090059Y-87973988D01*
X194218500Y-88144069D01*
X194376000Y-88287650D01*
X194557206Y-88399848D01*
X194755941Y-88476839D01*
X194921999Y-88507880D01*
X194922000Y-88507880D01*
X195222000Y-88507880D01*
X195388058Y-88476839D01*
X195586793Y-88399848D01*
X195767999Y-88287650D01*
X195925499Y-88144069D01*
X196053940Y-87973988D01*
X196148935Y-87783210D01*
X196207261Y-87578216D01*
X196213027Y-87516000D01*
X195222001Y-87516000D01*
X195222000Y-87516001D01*
X195222000Y-88507880D01*
X194922000Y-88507880D01*
X194922000Y-87516001D01*
X194921999Y-87516000D01*
X193930973Y-87516000D01*
X191870971Y-87516000D01*
X191570971Y-87216000D01*
X193930973Y-87216000D01*
X194921999Y-87216000D01*
X194922000Y-87215999D01*
X194922000Y-86224120D01*
X194921999Y-86224119D01*
X195222000Y-86224119D01*
X195222000Y-87215999D01*
X195222001Y-87216000D01*
X196213026Y-87216000D01*
X196207261Y-87153783D01*
X196148935Y-86948789D01*
X196053940Y-86758011D01*
X195925499Y-86587930D01*
X195767999Y-86444349D01*
X195586793Y-86332151D01*
X195388058Y-86255160D01*
X195222000Y-86224119D01*
X194921999Y-86224119D01*
X194755941Y-86255160D01*
X194557206Y-86332151D01*
X194376000Y-86444349D01*
X194218500Y-86587930D01*
X194090059Y-86758011D01*
X193995064Y-86948789D01*
X193936738Y-87153783D01*
X193930973Y-87216000D01*
X191570971Y-87216000D01*
X189989496Y-85634525D01*
X189968036Y-85602407D01*
X189960500Y-85564521D01*
X189960500Y-84885253D01*
X189959815Y-84881810D01*
X189948867Y-84826769D01*
X189948352Y-84825999D01*
X194016416Y-84825999D01*
X194036699Y-85031933D01*
X194096767Y-85229952D01*
X194096768Y-85229954D01*
X194194315Y-85412450D01*
X194325590Y-85572410D01*
X194485550Y-85703685D01*
X194668046Y-85801232D01*
X194866066Y-85861300D01*
X195072000Y-85881583D01*
X195277934Y-85861300D01*
X195475954Y-85801232D01*
X195658450Y-85703685D01*
X195818410Y-85572410D01*
X195949685Y-85412450D01*
X196047232Y-85229954D01*
X196107300Y-85031934D01*
X196127583Y-84826000D01*
X196127219Y-84822309D01*
X196107300Y-84620066D01*
X196105304Y-84613487D01*
X196047232Y-84422046D01*
X195949685Y-84239550D01*
X195818410Y-84079590D01*
X195658450Y-83948315D01*
X195475954Y-83850768D01*
X195475953Y-83850767D01*
X195475952Y-83850767D01*
X195277933Y-83790699D01*
X195072000Y-83770416D01*
X194866066Y-83790699D01*
X194668047Y-83850767D01*
X194485549Y-83948315D01*
X194325590Y-84079590D01*
X194194315Y-84239549D01*
X194096767Y-84422047D01*
X194036699Y-84620066D01*
X194016416Y-84825999D01*
X189948352Y-84825999D01*
X189926256Y-84792930D01*
X189904552Y-84760447D01*
X189838231Y-84716133D01*
X189838230Y-84716132D01*
X189779748Y-84704500D01*
X188740252Y-84704500D01*
X188733214Y-84705900D01*
X188681768Y-84716133D01*
X188615447Y-84760447D01*
X188571133Y-84826768D01*
X188571132Y-84826769D01*
X188571133Y-84826769D01*
X188559500Y-84885252D01*
X188559500Y-85774748D01*
X188567498Y-85814958D01*
X188571133Y-85833231D01*
X188615447Y-85899552D01*
X188659761Y-85929162D01*
X188681769Y-85943867D01*
X188740252Y-85955500D01*
X189419521Y-85955500D01*
X189457407Y-85963036D01*
X189489525Y-85984496D01*
X192075504Y-88570476D01*
X192096964Y-88602594D01*
X192104500Y-88640480D01*
X192104500Y-94703521D01*
X192096964Y-94741407D01*
X192075504Y-94773525D01*
X190404525Y-96444504D01*
X190372407Y-96465964D01*
X190334521Y-96473500D01*
X188771166Y-96473500D01*
X188755245Y-96470902D01*
X188701359Y-96473394D01*
X188696787Y-96473500D01*
X188678154Y-96473500D01*
X188678031Y-96473523D01*
X188664420Y-96475101D01*
X188636008Y-96476414D01*
X188627015Y-96480385D01*
X188605228Y-96487132D01*
X188595566Y-96488938D01*
X188571381Y-96503912D01*
X188559261Y-96510301D01*
X188533234Y-96521794D01*
X188526285Y-96528743D01*
X188508408Y-96542904D01*
X188500047Y-96548081D01*
X188482907Y-96570777D01*
X188473910Y-96581117D01*
X186889525Y-98165504D01*
X186857407Y-98186964D01*
X186819521Y-98194500D01*
X186140252Y-98194500D01*
X186111010Y-98200316D01*
X186081768Y-98206133D01*
X186015447Y-98250447D01*
X185971133Y-98316768D01*
X185971132Y-98316769D01*
X185971133Y-98316769D01*
X185959500Y-98375252D01*
X185959500Y-99264748D01*
X183840500Y-99264748D01*
X183840499Y-98850100D01*
X183840499Y-98850099D01*
X183840499Y-98850096D01*
X183833972Y-98800514D01*
X183833965Y-98800500D01*
X183783224Y-98691684D01*
X183698316Y-98606776D01*
X183698314Y-98606775D01*
X183698313Y-98606774D01*
X183589488Y-98556028D01*
X183539901Y-98549500D01*
X183180096Y-98549500D01*
X183130514Y-98556027D01*
X183021682Y-98606776D01*
X183020257Y-98608202D01*
X182971078Y-98634981D01*
X182915238Y-98630796D01*
X182870601Y-98596984D01*
X182854642Y-98575360D01*
X182747918Y-98496593D01*
X182622727Y-98452787D01*
X182593000Y-98450000D01*
X182550001Y-98450000D01*
X182550000Y-98450001D01*
X182550000Y-99111000D01*
X182536737Y-99160500D01*
X182500500Y-99196737D01*
X182451000Y-99210000D01*
X181885647Y-99210000D01*
X181838979Y-99198310D01*
X181803331Y-99166001D01*
X181796684Y-99156053D01*
X181780000Y-99101052D01*
X181780000Y-99100001D01*
X181779999Y-99100000D01*
X181661937Y-99100000D01*
X181656860Y-99099500D01*
X181649674Y-99099500D01*
X180825326Y-99099500D01*
X180818140Y-99099500D01*
X180813063Y-99100000D01*
X180502446Y-99100000D01*
X180509911Y-99151247D01*
X180561214Y-99256188D01*
X180570504Y-99265478D01*
X180591964Y-99297596D01*
X180599500Y-99335482D01*
X180599500Y-99474674D01*
X180602919Y-99491861D01*
X180615939Y-99557317D01*
X180628887Y-99600000D01*
X180615939Y-99642682D01*
X180614033Y-99652260D01*
X180614034Y-99652260D01*
X180606200Y-99691646D01*
X180599500Y-99725327D01*
X180599500Y-99874673D01*
X180615939Y-99957318D01*
X180628886Y-99999998D01*
X180615938Y-100042685D01*
X180611148Y-100066768D01*
X180599500Y-100125326D01*
X180599500Y-100274674D01*
X180609460Y-100324743D01*
X180615939Y-100357317D01*
X180628887Y-100400000D01*
X180615939Y-100442682D01*
X180599500Y-100525327D01*
X180599500Y-100674673D01*
X180615939Y-100757317D01*
X180628887Y-100800000D01*
X180615939Y-100842682D01*
X180614033Y-100852260D01*
X180614034Y-100852260D01*
X180599500Y-100925326D01*
X180599500Y-101074674D01*
X180613986Y-101147501D01*
X180615940Y-101157320D01*
X180628887Y-101199996D01*
X180615938Y-101242685D01*
X180609432Y-101275393D01*
X180601954Y-101312992D01*
X180599500Y-101325327D01*
X180599500Y-101474673D01*
X180615939Y-101557318D01*
X180628886Y-101599998D01*
X180615938Y-101642685D01*
X180603487Y-101705281D01*
X180599784Y-101723901D01*
X180599500Y-101725327D01*
X180599500Y-101874673D01*
X180615939Y-101957318D01*
X180628886Y-101999998D01*
X180615938Y-102042685D01*
X180610213Y-102071468D01*
X180600275Y-102121433D01*
X180599500Y-102125327D01*
X180599500Y-102264518D01*
X180591964Y-102302404D01*
X180570504Y-102334522D01*
X180561213Y-102343812D01*
X180509912Y-102448750D01*
X180502446Y-102500000D01*
X180813063Y-102500000D01*
X180818140Y-102500500D01*
X180825326Y-102500500D01*
X181649674Y-102500500D01*
X181656860Y-102500500D01*
X181661937Y-102500000D01*
X181848999Y-102500000D01*
X181877996Y-102471003D01*
X181878378Y-102471385D01*
X181898500Y-102451263D01*
X181948000Y-102438000D01*
X183108998Y-102438000D01*
X183108999Y-102437999D01*
X183108999Y-102394999D01*
X183106212Y-102365274D01*
X183086772Y-102309717D01*
X183084431Y-102251993D01*
X183114709Y-102202791D01*
X183167291Y-102178866D01*
X183277709Y-102164330D01*
X183411625Y-102108861D01*
X183526621Y-102020621D01*
X183614861Y-101905625D01*
X183670330Y-101771709D01*
X183689250Y-101628000D01*
X183670330Y-101484291D01*
X183634527Y-101397855D01*
X183628211Y-101344484D01*
X183650712Y-101295676D01*
X183695399Y-101265816D01*
X183749103Y-101263706D01*
X183795996Y-101289967D01*
X184074504Y-101568475D01*
X184095964Y-101600593D01*
X184103500Y-101638479D01*
X184103500Y-104920083D01*
X184087995Y-104973277D01*
X184046336Y-105009809D01*
X184021955Y-105021177D01*
X183971228Y-105030051D01*
X183922906Y-105012245D01*
X183890066Y-104972577D01*
X183837396Y-104857247D01*
X183715489Y-104686051D01*
X183563377Y-104541013D01*
X183386569Y-104427385D01*
X183182681Y-104345761D01*
X183183525Y-104343650D01*
X183142345Y-104321201D01*
X183115944Y-104267171D01*
X183125683Y-104207831D01*
X183137675Y-104184296D01*
X183162719Y-104135144D01*
X183183804Y-104002018D01*
X183183484Y-104000000D01*
X183163635Y-103874674D01*
X183162719Y-103868892D01*
X183101528Y-103748798D01*
X183006220Y-103653490D01*
X182886126Y-103592299D01*
X182886125Y-103592298D01*
X182886124Y-103592298D01*
X182755616Y-103571628D01*
X182717183Y-103556875D01*
X182688074Y-103527766D01*
X182673323Y-103489335D01*
X182654719Y-103371874D01*
X182624182Y-103311943D01*
X182613469Y-103263112D01*
X182627982Y-103215271D01*
X182664020Y-103180622D01*
X182712393Y-103167999D01*
X182722001Y-103167999D01*
X182751726Y-103165212D01*
X182876918Y-103121405D01*
X182983640Y-103042640D01*
X183062406Y-102935918D01*
X183106212Y-102810727D01*
X183109000Y-102781000D01*
X183109000Y-102738001D01*
X183108999Y-102738000D01*
X181928007Y-102738000D01*
X181890121Y-102730464D01*
X181858003Y-102709004D01*
X181848999Y-102700000D01*
X181661937Y-102700000D01*
X181656860Y-102699500D01*
X181649674Y-102699500D01*
X180825326Y-102699500D01*
X180818140Y-102699500D01*
X180813063Y-102700000D01*
X180502446Y-102700000D01*
X180509911Y-102751247D01*
X180561214Y-102856188D01*
X180570504Y-102865478D01*
X180591964Y-102897596D01*
X180599500Y-102935482D01*
X180599500Y-103074674D01*
X180606482Y-103109776D01*
X180615939Y-103157318D01*
X180628886Y-103199998D01*
X180615938Y-103242685D01*
X180608948Y-103277827D01*
X180599605Y-103324801D01*
X180599500Y-103325327D01*
X180599500Y-103474673D01*
X180615939Y-103557317D01*
X180628887Y-103600000D01*
X180615939Y-103642682D01*
X180613789Y-103653490D01*
X180599500Y-103725326D01*
X180599500Y-103874674D01*
X180607535Y-103915066D01*
X180615939Y-103957317D01*
X180628887Y-104000000D01*
X180615939Y-104042682D01*
X180599500Y-104125327D01*
X180599500Y-104274676D01*
X180601589Y-104285179D01*
X180599228Y-104333230D01*
X180574495Y-104374495D01*
X180533230Y-104399228D01*
X180485179Y-104401589D01*
X180474676Y-104399500D01*
X180474674Y-104399500D01*
X180325326Y-104399500D01*
X180294484Y-104405635D01*
X180242682Y-104415939D01*
X180200000Y-104428887D01*
X180157317Y-104415939D01*
X180105516Y-104405635D01*
X180074674Y-104399500D01*
X179925326Y-104399500D01*
X179894484Y-104405635D01*
X179842682Y-104415939D01*
X179800000Y-104428887D01*
X179757317Y-104415939D01*
X179705516Y-104405635D01*
X179674674Y-104399500D01*
X179525326Y-104399500D01*
X179494484Y-104405635D01*
X179442682Y-104415939D01*
X179400000Y-104428887D01*
X179357317Y-104415939D01*
X179305516Y-104405635D01*
X179274674Y-104399500D01*
X179137072Y-104399500D01*
X179082071Y-104382816D01*
X179045608Y-104338386D01*
X179039974Y-104281186D01*
X179067068Y-104230496D01*
X179428672Y-103868892D01*
X179818805Y-103478758D01*
X179831896Y-103469341D01*
X179836625Y-103464153D01*
X179836628Y-103464152D01*
X179868277Y-103429433D01*
X179871394Y-103426169D01*
X179884574Y-103412991D01*
X179884638Y-103412896D01*
X179893145Y-103402155D01*
X179912316Y-103381127D01*
X179915866Y-103371960D01*
X179926504Y-103351779D01*
X179932056Y-103343675D01*
X179938569Y-103315979D01*
X179942621Y-103302896D01*
X179952900Y-103276367D01*
X179952900Y-103266542D01*
X179955530Y-103243873D01*
X179957779Y-103234313D01*
X179953848Y-103206140D01*
X179952900Y-103192463D01*
X179952900Y-99691646D01*
X179955497Y-99675725D01*
X179953006Y-99621839D01*
X179952900Y-99617267D01*
X179952900Y-99598637D01*
X179952880Y-99598530D01*
X179951298Y-99584910D01*
X179949985Y-99556489D01*
X179946014Y-99547496D01*
X179939266Y-99525705D01*
X179937461Y-99516047D01*
X179922486Y-99491861D01*
X179916093Y-99479731D01*
X179904606Y-99453714D01*
X179897656Y-99446764D01*
X179883490Y-99428879D01*
X179878319Y-99420528D01*
X179855621Y-99403387D01*
X179845279Y-99394388D01*
X179621763Y-99170872D01*
X179596140Y-99126491D01*
X179596140Y-99075245D01*
X179621762Y-99030866D01*
X179740867Y-98911760D01*
X179767384Y-98898111D01*
X180500000Y-98898111D01*
X180501889Y-98900000D01*
X181137499Y-98900000D01*
X181137500Y-98899999D01*
X181337500Y-98899999D01*
X181337501Y-98900000D01*
X181963993Y-98900000D01*
X182001879Y-98907536D01*
X182005567Y-98910000D01*
X182249999Y-98910000D01*
X182250000Y-98909999D01*
X182250000Y-98450002D01*
X182249999Y-98450001D01*
X182206999Y-98450001D01*
X182177273Y-98452787D01*
X182052081Y-98496594D01*
X181945358Y-98575360D01*
X181917524Y-98613073D01*
X181882860Y-98642470D01*
X181838714Y-98653279D01*
X181794390Y-98643224D01*
X181726250Y-98609912D01*
X181658216Y-98600000D01*
X181337501Y-98600000D01*
X181337500Y-98600001D01*
X181337500Y-98899999D01*
X181137500Y-98899999D01*
X181137500Y-98600002D01*
X181137499Y-98600001D01*
X180899000Y-98600001D01*
X180849500Y-98586738D01*
X180813263Y-98550501D01*
X180800000Y-98501001D01*
X180800000Y-98262501D01*
X180799999Y-98262500D01*
X180500001Y-98262500D01*
X180500000Y-98262501D01*
X180500000Y-98898111D01*
X179767384Y-98898111D01*
X179794576Y-98884115D01*
X179833167Y-98889738D01*
X179833442Y-98887857D01*
X179900000Y-98897554D01*
X179900000Y-98703624D01*
X179900500Y-98700949D01*
X179900500Y-98674006D01*
X179903131Y-98651334D01*
X179903224Y-98650941D01*
X179903546Y-98649567D01*
X179904631Y-98644958D01*
X179908241Y-98638683D01*
X180091328Y-98638683D01*
X180100000Y-98667630D01*
X180100000Y-98897554D01*
X180151248Y-98890088D01*
X180156518Y-98887512D01*
X180199999Y-98877452D01*
X180243480Y-98887511D01*
X180248750Y-98890087D01*
X180300000Y-98897554D01*
X180300000Y-98262501D01*
X180299999Y-98262500D01*
X180100001Y-98262500D01*
X180100000Y-98262501D01*
X180100000Y-98610680D01*
X180091328Y-98638683D01*
X179908241Y-98638683D01*
X179909030Y-98637312D01*
X179902949Y-98624358D01*
X179901449Y-98613605D01*
X179900500Y-98599927D01*
X179900500Y-98161500D01*
X179913763Y-98112000D01*
X179950000Y-98075763D01*
X179999500Y-98062500D01*
X180799998Y-98062500D01*
X180799999Y-98062499D01*
X180799999Y-97741783D01*
X180790088Y-97673752D01*
X180738785Y-97568811D01*
X180726996Y-97557022D01*
X180705536Y-97524904D01*
X180698000Y-97487018D01*
X180698000Y-97452998D01*
X180998000Y-97452998D01*
X180998001Y-97452999D01*
X181071001Y-97452999D01*
X181100726Y-97450212D01*
X181225918Y-97406406D01*
X181297211Y-97353789D01*
X181335175Y-97336659D01*
X181376825Y-97336659D01*
X181414789Y-97353789D01*
X181486081Y-97406406D01*
X181611272Y-97450212D01*
X181641000Y-97453000D01*
X181713999Y-97453000D01*
X181714000Y-97452999D01*
X181714000Y-97452998D01*
X182014000Y-97452998D01*
X182014001Y-97452999D01*
X182087001Y-97452999D01*
X182116726Y-97450212D01*
X182241918Y-97406405D01*
X182348640Y-97327640D01*
X182427406Y-97220918D01*
X182471212Y-97095727D01*
X182474000Y-97066000D01*
X182474000Y-97023001D01*
X182473999Y-97023000D01*
X182014001Y-97023000D01*
X182014000Y-97023001D01*
X182014000Y-97452998D01*
X181714000Y-97452998D01*
X181714000Y-97023001D01*
X181713999Y-97023000D01*
X180998001Y-97023000D01*
X180998000Y-97023001D01*
X180998000Y-97452998D01*
X180698000Y-97452998D01*
X180698000Y-96822000D01*
X180711263Y-96772500D01*
X180747500Y-96736263D01*
X180797000Y-96723000D01*
X182473998Y-96723000D01*
X182473999Y-96722999D01*
X182473999Y-96679999D01*
X182471212Y-96650273D01*
X182427405Y-96525078D01*
X182413934Y-96506826D01*
X182395886Y-96464012D01*
X182399359Y-96417680D01*
X182423584Y-96378035D01*
X182480991Y-96320630D01*
X182506547Y-96289490D01*
X182533427Y-96249262D01*
X182564112Y-96175182D01*
X182573551Y-96127729D01*
X182577500Y-96087638D01*
X182577500Y-94793362D01*
X182573551Y-94753271D01*
X182564112Y-94705818D01*
X182533427Y-94631738D01*
X182506547Y-94591510D01*
X182480991Y-94560371D01*
X182299629Y-94379009D01*
X182287436Y-94369002D01*
X182268489Y-94353452D01*
X182228261Y-94326572D01*
X182170965Y-94302839D01*
X182154182Y-94295888D01*
X182106729Y-94286449D01*
X182066638Y-94282500D01*
X180056976Y-94282500D01*
X180001975Y-94265815D01*
X179965512Y-94221386D01*
X179959878Y-94164186D01*
X179986970Y-94113498D01*
X180042065Y-94058404D01*
X180092068Y-93951173D01*
X180098500Y-93902316D01*
X180098500Y-93553684D01*
X180092068Y-93504827D01*
X180061926Y-93440188D01*
X180057640Y-93430997D01*
X183690499Y-93430997D01*
X183694261Y-93469198D01*
X183694448Y-93471090D01*
X183701984Y-93508972D01*
X183701985Y-93508974D01*
X183732668Y-93583047D01*
X183754129Y-93615165D01*
X183766907Y-93630735D01*
X183779686Y-93646306D01*
X184102696Y-93969314D01*
X184133836Y-93994870D01*
X184157330Y-94010568D01*
X184192001Y-94050938D01*
X184197119Y-94081597D01*
X184175401Y-94081597D01*
X183794398Y-94437197D01*
X183794399Y-95249997D01*
X183819799Y-95732598D01*
X187324998Y-95732598D01*
X187731401Y-95402398D01*
X187731401Y-95360565D01*
X187767790Y-95359629D01*
X187817208Y-95392041D01*
X187818128Y-95393162D01*
X187818130Y-95393165D01*
X187825209Y-95401791D01*
X187843687Y-95424307D01*
X188138764Y-95719382D01*
X188166695Y-95747313D01*
X188197835Y-95772869D01*
X188229952Y-95794329D01*
X188229954Y-95794330D01*
X188229956Y-95794331D01*
X188304029Y-95825013D01*
X188316600Y-95827513D01*
X188341917Y-95832549D01*
X188382008Y-95836498D01*
X190458992Y-95836498D01*
X190499083Y-95832549D01*
X190536969Y-95825013D01*
X190611049Y-95794328D01*
X190643167Y-95772867D01*
X190674307Y-95747311D01*
X190997315Y-95424302D01*
X191022871Y-95393162D01*
X191044331Y-95361045D01*
X191067461Y-95305203D01*
X191075015Y-95286967D01*
X191076265Y-95280681D01*
X191082551Y-95249080D01*
X191086500Y-95208989D01*
X191086500Y-94348389D01*
X191084278Y-94334211D01*
X191076649Y-94285525D01*
X191058122Y-94227862D01*
X191029512Y-94171025D01*
X191024650Y-94166083D01*
X190984888Y-94125664D01*
X190949618Y-94099506D01*
X190936237Y-94089582D01*
X190894449Y-94067685D01*
X190855694Y-94031239D01*
X190841400Y-93979994D01*
X190855695Y-93928750D01*
X190894448Y-93892306D01*
X190936238Y-93870408D01*
X190984888Y-93834327D01*
X191029512Y-93788966D01*
X191058121Y-93732130D01*
X191076649Y-93674465D01*
X191076649Y-93674464D01*
X191086500Y-93611605D01*
X191086500Y-90592006D01*
X191085221Y-90579024D01*
X191082551Y-90551915D01*
X191075015Y-90514029D01*
X191044332Y-90439952D01*
X191022872Y-90407834D01*
X190997314Y-90376692D01*
X190674306Y-90053684D01*
X190643164Y-90028126D01*
X190611046Y-90006666D01*
X190611047Y-90006666D01*
X190611045Y-90006665D01*
X190536975Y-89975984D01*
X190536973Y-89975983D01*
X190499091Y-89968447D01*
X190499087Y-89968446D01*
X190499084Y-89968446D01*
X190458998Y-89964498D01*
X190458996Y-89964498D01*
X188382005Y-89964498D01*
X188382004Y-89964498D01*
X188341917Y-89968446D01*
X188304026Y-89975983D01*
X188229947Y-90006668D01*
X188197832Y-90028127D01*
X188166688Y-90053686D01*
X187843685Y-90376691D01*
X187818125Y-90407836D01*
X187797556Y-90438619D01*
X187753126Y-90475079D01*
X187695928Y-90480712D01*
X187645240Y-90453618D01*
X187372303Y-90180682D01*
X187372301Y-90180680D01*
X187341159Y-90155123D01*
X187341012Y-90155025D01*
X187309047Y-90133666D01*
X187234976Y-90102985D01*
X187234974Y-90102984D01*
X187197092Y-90095448D01*
X187197088Y-90095447D01*
X187197085Y-90095447D01*
X187156998Y-90091498D01*
X184318007Y-90091497D01*
X184318005Y-90091497D01*
X184318004Y-90091497D01*
X184277918Y-90095445D01*
X184277912Y-90095446D01*
X184277913Y-90095446D01*
X184240028Y-90102982D01*
X184240026Y-90102982D01*
X184240025Y-90102983D01*
X184165955Y-90133663D01*
X184133830Y-90155127D01*
X184102690Y-90180683D01*
X183779684Y-90503691D01*
X183754125Y-90534836D01*
X183732665Y-90566953D01*
X183701985Y-90641024D01*
X183694447Y-90678917D01*
X183690499Y-90719003D01*
X183690499Y-93430997D01*
X180057640Y-93430997D01*
X180042066Y-93397598D01*
X180042065Y-93397597D01*
X180042065Y-93397596D01*
X179958404Y-93313935D01*
X179945083Y-93307723D01*
X179903428Y-93271193D01*
X179887924Y-93218000D01*
X179903428Y-93164807D01*
X179945083Y-93128276D01*
X179958404Y-93122065D01*
X180042065Y-93038404D01*
X180092068Y-92931173D01*
X180098500Y-92882316D01*
X180098500Y-92533684D01*
X180092068Y-92484827D01*
X180042065Y-92377596D01*
X179958404Y-92293935D01*
X179958402Y-92293934D01*
X179958401Y-92293933D01*
X179851174Y-92243932D01*
X179802317Y-92237500D01*
X179802316Y-92237500D01*
X179582200Y-92237500D01*
X179532700Y-92224237D01*
X179496463Y-92188000D01*
X179483200Y-92138500D01*
X179483200Y-90733679D01*
X179485797Y-90717758D01*
X179483306Y-90663872D01*
X179483200Y-90659300D01*
X179483200Y-90640671D01*
X179483180Y-90640564D01*
X179481598Y-90626944D01*
X179480285Y-90598522D01*
X179476313Y-90589527D01*
X179469566Y-90567738D01*
X179467761Y-90558081D01*
X179462525Y-90549625D01*
X179452791Y-90533903D01*
X179446398Y-90521775D01*
X179434906Y-90495748D01*
X179427955Y-90488797D01*
X179413786Y-90470907D01*
X179408619Y-90462562D01*
X179385926Y-90445425D01*
X179375583Y-90436425D01*
X177805696Y-88866539D01*
X177784236Y-88834421D01*
X177776700Y-88796535D01*
X177776700Y-86066900D01*
X177789963Y-86017400D01*
X177826200Y-85981163D01*
X177875700Y-85967900D01*
X178369835Y-85967900D01*
X178385755Y-85970497D01*
X178392764Y-85970172D01*
X178392765Y-85970173D01*
X178439641Y-85968006D01*
X178444214Y-85967900D01*
X178462844Y-85967900D01*
X178462951Y-85967880D01*
X178476570Y-85966298D01*
X178499342Y-85965246D01*
X178548491Y-85975748D01*
X178586153Y-86009034D01*
X178602614Y-86056525D01*
X178593632Y-86105979D01*
X178555931Y-86186828D01*
X178549500Y-86235683D01*
X178549500Y-86584317D01*
X178555932Y-86633174D01*
X178605933Y-86740401D01*
X178605934Y-86740402D01*
X178605935Y-86740404D01*
X178689596Y-86824065D01*
X178689597Y-86824065D01*
X178689598Y-86824066D01*
X178702915Y-86830276D01*
X178744571Y-86866808D01*
X178760075Y-86920000D01*
X178744571Y-86973192D01*
X178702915Y-87009724D01*
X178689598Y-87015933D01*
X178605933Y-87099598D01*
X178555932Y-87206825D01*
X178549500Y-87255683D01*
X178549500Y-87604317D01*
X178555932Y-87653174D01*
X178610224Y-87769603D01*
X178619500Y-87811442D01*
X178619500Y-87964202D01*
X178614246Y-87996024D01*
X178599042Y-88024469D01*
X178589139Y-88037374D01*
X178533669Y-88171290D01*
X178514750Y-88315000D01*
X178533669Y-88458709D01*
X178550980Y-88500500D01*
X178589139Y-88592625D01*
X178596789Y-88602594D01*
X178677378Y-88707621D01*
X178727306Y-88745932D01*
X178792375Y-88795861D01*
X178885468Y-88834421D01*
X178926290Y-88851330D01*
X178943008Y-88853531D01*
X179070000Y-88870250D01*
X179213709Y-88851330D01*
X179347625Y-88795861D01*
X179462621Y-88707621D01*
X179550861Y-88592625D01*
X179606330Y-88458709D01*
X179625250Y-88315000D01*
X179606330Y-88171291D01*
X179595054Y-88144069D01*
X179583353Y-88115820D01*
X179550861Y-88037375D01*
X179540958Y-88024469D01*
X179525754Y-87996024D01*
X179520500Y-87964202D01*
X179520500Y-87811442D01*
X179529776Y-87769603D01*
X179558403Y-87708210D01*
X179584068Y-87653173D01*
X179590500Y-87604316D01*
X179590500Y-87255684D01*
X179584068Y-87206827D01*
X179534065Y-87099596D01*
X179450404Y-87015935D01*
X179437083Y-87009723D01*
X179395428Y-86973193D01*
X179379924Y-86920000D01*
X179395428Y-86866807D01*
X179437083Y-86830276D01*
X179450404Y-86824065D01*
X179534065Y-86740404D01*
X179584068Y-86633173D01*
X179590500Y-86584316D01*
X179590500Y-86235684D01*
X179584068Y-86186827D01*
X179534065Y-86079596D01*
X179450404Y-85995935D01*
X179450402Y-85995934D01*
X179450401Y-85995933D01*
X179407661Y-85976003D01*
X179366004Y-85939472D01*
X179350500Y-85886279D01*
X179350500Y-85714500D01*
X179363763Y-85665000D01*
X179400000Y-85628763D01*
X179449500Y-85615500D01*
X179616766Y-85615500D01*
X179669959Y-85631004D01*
X179706490Y-85672661D01*
X179714919Y-85727422D01*
X179708550Y-85775799D01*
X179727469Y-85919509D01*
X179754388Y-85984496D01*
X179782939Y-86053425D01*
X179821250Y-86103352D01*
X179871178Y-86168421D01*
X179895163Y-86186825D01*
X179986175Y-86256661D01*
X180073100Y-86292666D01*
X180120090Y-86312130D01*
X180136808Y-86314331D01*
X180263800Y-86331050D01*
X180407509Y-86312130D01*
X180541425Y-86256661D01*
X180656421Y-86168421D01*
X180744661Y-86053425D01*
X180800130Y-85919509D01*
X180819050Y-85775800D01*
X180813886Y-85736579D01*
X180812681Y-85727422D01*
X180821110Y-85672661D01*
X180857641Y-85631004D01*
X180910834Y-85615500D01*
X181369747Y-85615500D01*
X181369748Y-85615500D01*
X181428231Y-85603867D01*
X181494552Y-85559552D01*
X181538867Y-85493231D01*
X181550500Y-85434748D01*
X181550500Y-85343999D01*
X183975750Y-85343999D01*
X183994669Y-85487709D01*
X184024428Y-85559552D01*
X184050139Y-85621625D01*
X184083422Y-85665000D01*
X184138378Y-85736621D01*
X184188066Y-85774747D01*
X184253375Y-85824861D01*
X184333939Y-85858231D01*
X184387290Y-85880330D01*
X184396003Y-85881477D01*
X184531000Y-85899250D01*
X184674709Y-85880330D01*
X184808625Y-85824861D01*
X184821530Y-85814958D01*
X184849976Y-85799754D01*
X184881798Y-85794500D01*
X184961229Y-85794500D01*
X185003067Y-85803775D01*
X185006679Y-85805459D01*
X185033513Y-85817972D01*
X185083099Y-85824500D01*
X185502900Y-85824499D01*
X185502903Y-85824499D01*
X185552484Y-85817973D01*
X185552485Y-85817972D01*
X185552487Y-85817972D01*
X185579321Y-85805459D01*
X185582933Y-85803775D01*
X185624772Y-85794500D01*
X185877209Y-85794500D01*
X185920997Y-85804710D01*
X185955753Y-85833235D01*
X185959783Y-85842130D01*
X185960192Y-85841857D01*
X186015447Y-85924552D01*
X186044353Y-85943866D01*
X186081769Y-85968867D01*
X186140252Y-85980500D01*
X187179747Y-85980500D01*
X187179748Y-85980500D01*
X187238231Y-85968867D01*
X187304552Y-85924552D01*
X187348867Y-85858231D01*
X187360500Y-85799748D01*
X187360500Y-84910252D01*
X187348867Y-84851769D01*
X187324858Y-84815837D01*
X187304552Y-84785447D01*
X187238231Y-84741133D01*
X187195443Y-84732622D01*
X187179748Y-84729500D01*
X186140252Y-84729500D01*
X186124557Y-84732622D01*
X186081768Y-84741133D01*
X186015447Y-84785447D01*
X185982672Y-84834500D01*
X185972891Y-84849139D01*
X185972648Y-84849502D01*
X185937001Y-84881810D01*
X185890333Y-84893500D01*
X185814047Y-84893500D01*
X185759046Y-84876815D01*
X185722583Y-84832386D01*
X185716949Y-84775186D01*
X185744041Y-84724498D01*
X185746224Y-84722316D01*
X185796972Y-84613487D01*
X185803500Y-84563901D01*
X185803499Y-84204100D01*
X185802152Y-84193866D01*
X185797969Y-84162084D01*
X185801005Y-84140129D01*
X185778406Y-84114697D01*
X185746225Y-84045686D01*
X185746224Y-84045685D01*
X185746224Y-84045684D01*
X185661316Y-83960776D01*
X185661314Y-83960775D01*
X185661313Y-83960774D01*
X185552488Y-83910028D01*
X185502901Y-83903500D01*
X185083096Y-83903500D01*
X185033515Y-83910026D01*
X185003067Y-83924225D01*
X184961228Y-83933500D01*
X184730204Y-83933500D01*
X184692318Y-83925964D01*
X184674708Y-83918669D01*
X184531000Y-83899750D01*
X184387290Y-83918669D01*
X184253375Y-83974139D01*
X184138378Y-84062378D01*
X184050139Y-84177375D01*
X183994669Y-84311290D01*
X183975750Y-84455000D01*
X183994669Y-84598709D01*
X184038489Y-84704500D01*
X184050139Y-84732625D01*
X184131943Y-84839234D01*
X184150053Y-84878071D01*
X184150053Y-84920926D01*
X184131942Y-84959766D01*
X184050139Y-85066374D01*
X183994669Y-85200290D01*
X183975750Y-85343999D01*
X181550500Y-85343999D01*
X181550500Y-85022611D01*
X181558036Y-84984726D01*
X181579495Y-84952609D01*
X181606792Y-84925311D01*
X181641690Y-84902747D01*
X181682774Y-84896494D01*
X181722803Y-84907652D01*
X181869775Y-84984790D01*
X181931372Y-84999972D01*
X182034943Y-85025500D01*
X182034944Y-85025500D01*
X182205056Y-85025500D01*
X182205057Y-85025500D01*
X182266928Y-85010250D01*
X182370225Y-84984790D01*
X182520852Y-84905734D01*
X182520851Y-84905734D01*
X182520854Y-84905733D01*
X182586448Y-84847621D01*
X182648183Y-84792929D01*
X182744818Y-84652930D01*
X182805140Y-84493872D01*
X182820500Y-84367372D01*
X182820500Y-83182628D01*
X182805140Y-83056128D01*
X182744818Y-82897070D01*
X182648183Y-82757071D01*
X182647821Y-82756750D01*
X182520854Y-82644266D01*
X182370223Y-82565209D01*
X182205057Y-82524500D01*
X182205056Y-82524500D01*
X182034944Y-82524500D01*
X182034943Y-82524500D01*
X181869776Y-82565209D01*
X181719145Y-82644266D01*
X181591818Y-82757069D01*
X181578979Y-82775670D01*
X181495182Y-82897070D01*
X181443856Y-83032409D01*
X181430598Y-83067367D01*
X181430216Y-83067222D01*
X181415675Y-83103242D01*
X181375088Y-83134841D01*
X181324124Y-83141810D01*
X181276543Y-83122269D01*
X181245190Y-83081493D01*
X181192698Y-82954767D01*
X181148574Y-82897264D01*
X181100451Y-82834548D01*
X180980233Y-82742302D01*
X180840235Y-82684312D01*
X180727721Y-82669500D01*
X180727720Y-82669500D01*
X180652280Y-82669500D01*
X180652279Y-82669500D01*
X180539764Y-82684312D01*
X180399766Y-82742302D01*
X180279547Y-82834549D01*
X180231424Y-82897264D01*
X180190768Y-82928460D01*
X180139961Y-82935149D01*
X180092616Y-82915538D01*
X179982624Y-82831138D01*
X179848709Y-82775669D01*
X179705000Y-82756750D01*
X179561290Y-82775669D01*
X179427375Y-82831139D01*
X179312378Y-82919378D01*
X179224139Y-83034375D01*
X179168669Y-83168290D01*
X179149750Y-83312000D01*
X179168669Y-83455709D01*
X179224138Y-83589624D01*
X179236116Y-83605234D01*
X179256096Y-83655797D01*
X179246363Y-83709287D01*
X179209851Y-83749571D01*
X179157573Y-83764500D01*
X178880252Y-83764500D01*
X178819313Y-83776621D01*
X178780687Y-83776621D01*
X178719748Y-83764500D01*
X178446436Y-83764500D01*
X178398262Y-83751988D01*
X178362264Y-83717616D01*
X178348415Y-83672891D01*
X178347585Y-83671011D01*
X178347585Y-83671009D01*
X178343614Y-83662016D01*
X178336866Y-83640225D01*
X178335061Y-83630567D01*
X178335060Y-83630565D01*
X178320086Y-83606381D01*
X178313693Y-83594251D01*
X178302206Y-83568234D01*
X178295256Y-83561284D01*
X178281089Y-83543398D01*
X178275919Y-83535048D01*
X178275918Y-83535047D01*
X178261868Y-83524437D01*
X178254832Y-83518594D01*
X178230873Y-83496752D01*
X178227568Y-83493596D01*
X178214396Y-83480425D01*
X178214297Y-83480357D01*
X178203554Y-83471847D01*
X178198613Y-83467343D01*
X178182533Y-83452684D01*
X178173362Y-83449131D01*
X178153187Y-83438496D01*
X178145081Y-83432944D01*
X178117397Y-83426432D01*
X178104304Y-83422377D01*
X178077775Y-83412100D01*
X178077773Y-83412100D01*
X178067948Y-83412100D01*
X178045282Y-83409470D01*
X178035719Y-83407221D01*
X178035718Y-83407221D01*
X178007547Y-83411151D01*
X177993869Y-83412100D01*
X177167566Y-83412100D01*
X177151645Y-83409502D01*
X177097759Y-83411994D01*
X177093187Y-83412100D01*
X177074554Y-83412100D01*
X177074431Y-83412123D01*
X177060820Y-83413701D01*
X177032409Y-83415014D01*
X177023416Y-83418985D01*
X177001627Y-83425732D01*
X176991965Y-83427538D01*
X176967780Y-83442512D01*
X176955659Y-83448901D01*
X176929634Y-83460392D01*
X176922684Y-83467343D01*
X176904808Y-83481503D01*
X176896448Y-83486680D01*
X176887375Y-83498694D01*
X176877611Y-83506803D01*
X176878235Y-83507372D01*
X176834141Y-83555737D01*
X176830989Y-83559038D01*
X176817825Y-83572203D01*
X176817754Y-83572307D01*
X176809256Y-83583034D01*
X176790083Y-83604067D01*
X176786530Y-83613238D01*
X176775895Y-83633414D01*
X176770343Y-83641519D01*
X176763830Y-83669207D01*
X176759777Y-83682296D01*
X176752431Y-83701260D01*
X176716065Y-83747174D01*
X176660115Y-83764500D01*
X176442427Y-83764500D01*
X176390149Y-83749571D01*
X176353637Y-83709287D01*
X176343904Y-83655797D01*
X176363884Y-83605234D01*
X176372311Y-83594251D01*
X176375861Y-83589625D01*
X176431330Y-83455709D01*
X176450250Y-83312000D01*
X176431330Y-83168291D01*
X176429422Y-83163685D01*
X176412267Y-83122269D01*
X176375861Y-83034375D01*
X176323497Y-82966133D01*
X176287621Y-82919378D01*
X176222552Y-82869450D01*
X176172625Y-82831139D01*
X176133401Y-82814892D01*
X176038709Y-82775669D01*
X175895000Y-82756750D01*
X175751290Y-82775669D01*
X175617375Y-82831139D01*
X175507383Y-82915538D01*
X175460038Y-82935149D01*
X175409230Y-82928460D01*
X175368574Y-82897263D01*
X175320451Y-82834548D01*
X175200233Y-82742302D01*
X175060235Y-82684312D01*
X174947721Y-82669500D01*
X174947720Y-82669500D01*
X174872280Y-82669500D01*
X174872279Y-82669500D01*
X174759764Y-82684312D01*
X174619766Y-82742302D01*
X174499548Y-82834548D01*
X174407302Y-82954766D01*
X174354810Y-83081492D01*
X174323454Y-83122270D01*
X174275871Y-83141811D01*
X174224906Y-83134839D01*
X174184319Y-83103236D01*
X174169783Y-83067222D01*
X174169402Y-83067367D01*
X174165140Y-83056128D01*
X174104818Y-82897070D01*
X174008183Y-82757071D01*
X174007821Y-82756750D01*
X173880854Y-82644266D01*
X173730223Y-82565209D01*
X173565057Y-82524500D01*
X173565056Y-82524500D01*
X173394944Y-82524500D01*
X173394943Y-82524500D01*
X173229776Y-82565209D01*
X173079145Y-82644266D01*
X172951818Y-82757069D01*
X172855182Y-82897070D01*
X172794859Y-83056129D01*
X172779500Y-83182627D01*
X172779500Y-84367373D01*
X172794859Y-84493870D01*
X172794860Y-84493872D01*
X172855182Y-84652930D01*
X172951817Y-84792929D01*
X172951818Y-84792930D01*
X173079145Y-84905733D01*
X173139440Y-84937378D01*
X173229775Y-84984790D01*
X173291372Y-84999972D01*
X173394943Y-85025500D01*
X173394944Y-85025500D01*
X173565056Y-85025500D01*
X173565057Y-85025500D01*
X173626928Y-85010250D01*
X173730225Y-84984790D01*
X173877193Y-84907654D01*
X173917224Y-84896495D01*
X173958308Y-84902747D01*
X173993206Y-84925310D01*
X174020504Y-84952608D01*
X174041964Y-84984726D01*
X174049500Y-85022612D01*
X174049500Y-85434747D01*
X174061133Y-85493231D01*
X174105447Y-85559552D01*
X174149761Y-85589162D01*
X174171769Y-85603867D01*
X174230252Y-85615500D01*
X174663766Y-85615500D01*
X174716959Y-85631004D01*
X174753490Y-85672661D01*
X174761919Y-85727422D01*
X174755550Y-85775799D01*
X174774469Y-85919509D01*
X174801388Y-85984496D01*
X174829939Y-86053425D01*
X174868250Y-86103352D01*
X174918178Y-86168421D01*
X174942163Y-86186825D01*
X175033175Y-86256661D01*
X175120100Y-86292666D01*
X175167090Y-86312130D01*
X175183808Y-86314331D01*
X175310800Y-86331050D01*
X175362867Y-86324195D01*
X175389578Y-86320679D01*
X175444340Y-86329108D01*
X175485996Y-86365639D01*
X175501500Y-86418832D01*
X175501500Y-86584317D01*
X175507932Y-86633174D01*
X175557933Y-86740401D01*
X175557934Y-86740402D01*
X175557935Y-86740404D01*
X175641596Y-86824065D01*
X175641597Y-86824065D01*
X175641598Y-86824066D01*
X175654915Y-86830276D01*
X175696571Y-86866808D01*
X175712075Y-86920000D01*
X175696571Y-86973192D01*
X175654915Y-87009724D01*
X175641598Y-87015933D01*
X175557933Y-87099598D01*
X175507932Y-87206825D01*
X175501500Y-87255683D01*
X175501500Y-87604317D01*
X175507932Y-87653174D01*
X175562224Y-87769603D01*
X175571500Y-87811442D01*
X175571500Y-87964202D01*
X175566246Y-87996024D01*
X175551042Y-88024469D01*
X175541139Y-88037374D01*
X175485669Y-88171290D01*
X175466750Y-88315000D01*
X175485669Y-88458709D01*
X175502980Y-88500500D01*
X175541139Y-88592625D01*
X175548789Y-88602594D01*
X175629378Y-88707621D01*
X175679306Y-88745932D01*
X175744375Y-88795861D01*
X175837468Y-88834421D01*
X175878290Y-88851330D01*
X175895008Y-88853531D01*
X176022000Y-88870250D01*
X176165709Y-88851330D01*
X176299625Y-88795861D01*
X176414621Y-88707621D01*
X176502861Y-88592625D01*
X176558330Y-88458709D01*
X176577250Y-88315000D01*
X176558330Y-88171291D01*
X176547054Y-88144069D01*
X176535353Y-88115820D01*
X176502861Y-88037375D01*
X176492958Y-88024469D01*
X176477754Y-87996024D01*
X176472500Y-87964202D01*
X176472500Y-87811442D01*
X176481776Y-87769603D01*
X176510403Y-87708210D01*
X176536068Y-87653173D01*
X176542500Y-87604316D01*
X176542500Y-87255684D01*
X176536068Y-87206827D01*
X176486065Y-87099596D01*
X176402404Y-87015935D01*
X176389083Y-87009723D01*
X176347428Y-86973193D01*
X176331924Y-86920000D01*
X176347428Y-86866807D01*
X176389083Y-86830276D01*
X176402404Y-86824065D01*
X176486065Y-86740404D01*
X176536068Y-86633173D01*
X176542500Y-86584316D01*
X176542500Y-86235684D01*
X176536068Y-86186827D01*
X176486065Y-86079596D01*
X176402404Y-85995935D01*
X176402402Y-85995934D01*
X176390060Y-85983592D01*
X176390401Y-85983250D01*
X176366004Y-85961855D01*
X176350500Y-85908662D01*
X176350500Y-85714500D01*
X176363763Y-85665000D01*
X176400000Y-85628763D01*
X176449500Y-85615500D01*
X176649775Y-85615500D01*
X176694925Y-85626395D01*
X176730137Y-85656682D01*
X176747662Y-85699695D01*
X176746176Y-85716789D01*
X176746372Y-85716780D01*
X176749394Y-85782143D01*
X176749500Y-85786715D01*
X176749500Y-85805347D01*
X176749521Y-85805459D01*
X176751101Y-85819079D01*
X176752414Y-85847492D01*
X176756384Y-85856483D01*
X176763132Y-85878274D01*
X176764938Y-85887933D01*
X176779911Y-85912117D01*
X176786302Y-85924240D01*
X176800050Y-85955376D01*
X176815764Y-85978893D01*
X176823300Y-86016779D01*
X176823300Y-89042821D01*
X176820702Y-89058741D01*
X176823194Y-89112628D01*
X176823300Y-89117200D01*
X176823300Y-89135832D01*
X176823321Y-89135944D01*
X176824901Y-89149564D01*
X176826214Y-89177977D01*
X176830184Y-89186968D01*
X176836932Y-89208759D01*
X176838738Y-89218418D01*
X176853711Y-89242602D01*
X176860100Y-89254722D01*
X176871594Y-89280751D01*
X176871595Y-89280751D01*
X176871595Y-89280752D01*
X176878543Y-89287701D01*
X176892710Y-89305586D01*
X176897881Y-89313939D01*
X176920572Y-89331073D01*
X176930917Y-89340074D01*
X178500804Y-90909961D01*
X178522264Y-90942079D01*
X178529800Y-90979965D01*
X178529800Y-91012667D01*
X178514871Y-91064946D01*
X178474585Y-91101458D01*
X178421095Y-91111189D01*
X178383638Y-91107500D01*
X174168362Y-91107500D01*
X174128271Y-91111449D01*
X174080818Y-91120888D01*
X174080816Y-91120888D01*
X174080815Y-91120889D01*
X174006738Y-91151572D01*
X173966510Y-91178452D01*
X173935376Y-91204004D01*
X173754004Y-91385376D01*
X173728452Y-91416510D01*
X173701572Y-91456738D01*
X173670889Y-91530815D01*
X173670888Y-91530818D01*
X173661449Y-91578271D01*
X173657500Y-91618362D01*
X173657500Y-92912638D01*
X173661449Y-92952729D01*
X173670888Y-93000182D01*
X173670889Y-93000184D01*
X173701572Y-93074261D01*
X173728452Y-93114489D01*
X173754008Y-93145629D01*
X173811414Y-93203035D01*
X173835640Y-93242680D01*
X173839113Y-93289011D01*
X173821067Y-93331824D01*
X173807594Y-93350079D01*
X173763787Y-93475272D01*
X173761000Y-93505000D01*
X173761000Y-93547999D01*
X173761001Y-93548000D01*
X174422000Y-93548000D01*
X174471500Y-93561263D01*
X174507737Y-93597500D01*
X174521000Y-93647000D01*
X174521000Y-93749000D01*
X174507737Y-93798500D01*
X174471500Y-93834737D01*
X174422000Y-93848000D01*
X173761002Y-93848000D01*
X173761001Y-93848001D01*
X173761001Y-93891001D01*
X173763787Y-93920726D01*
X173807594Y-94045918D01*
X173886359Y-94152640D01*
X173993081Y-94231406D01*
X174118272Y-94275212D01*
X174147999Y-94277999D01*
X174223064Y-94277999D01*
X174270236Y-94289959D01*
X174306010Y-94322951D01*
X174321742Y-94369002D01*
X174313630Y-94416986D01*
X174261909Y-94534125D01*
X174259000Y-94559205D01*
X174259000Y-94603999D01*
X174259001Y-94604000D01*
X174858999Y-94604000D01*
X174859000Y-94603999D01*
X174859000Y-94304002D01*
X174851831Y-94296833D01*
X174825049Y-94247649D01*
X174829238Y-94191804D01*
X174848724Y-94166083D01*
X174846779Y-94164648D01*
X174869901Y-94133318D01*
X174914538Y-94099506D01*
X174970378Y-94095319D01*
X175013585Y-94118845D01*
X175018681Y-94121221D01*
X175018684Y-94121224D01*
X175110892Y-94164221D01*
X175147590Y-94193674D01*
X175166544Y-94236749D01*
X175163468Y-94283709D01*
X175159000Y-94291073D01*
X175159000Y-94603999D01*
X175159001Y-94604000D01*
X175770337Y-94604000D01*
X175787888Y-94593866D01*
X175839135Y-94593865D01*
X175883517Y-94619488D01*
X176048525Y-94784496D01*
X176075619Y-94835186D01*
X176069985Y-94892386D01*
X176033522Y-94936815D01*
X175978521Y-94953500D01*
X175849507Y-94953500D01*
X175811621Y-94945964D01*
X175779503Y-94924504D01*
X175758999Y-94904000D01*
X175491011Y-94904000D01*
X175485934Y-94903500D01*
X175478748Y-94903500D01*
X174539252Y-94903500D01*
X174532066Y-94903500D01*
X174526989Y-94904000D01*
X174259002Y-94904000D01*
X174259001Y-94904001D01*
X174259001Y-94948790D01*
X174261910Y-94973874D01*
X174307212Y-95076477D01*
X174329505Y-95098770D01*
X174350964Y-95130888D01*
X174358500Y-95168773D01*
X174358500Y-95423748D01*
X174370621Y-95484687D01*
X174370621Y-95523313D01*
X174358500Y-95584252D01*
X174358500Y-95923748D01*
X174370621Y-95984687D01*
X174370621Y-96023313D01*
X174358500Y-96084252D01*
X174358500Y-96374500D01*
X174345237Y-96424000D01*
X174309000Y-96460237D01*
X174259500Y-96473500D01*
X174030317Y-96473500D01*
X173975315Y-96456815D01*
X173938853Y-96412385D01*
X173933219Y-96355187D01*
X173934500Y-96348748D01*
X173934500Y-94659252D01*
X173922867Y-94600769D01*
X173895877Y-94560376D01*
X173878552Y-94534447D01*
X173812231Y-94490133D01*
X173799135Y-94487528D01*
X173753748Y-94478500D01*
X173464252Y-94478500D01*
X173437044Y-94483912D01*
X173405768Y-94490133D01*
X173339447Y-94534447D01*
X173295133Y-94600768D01*
X173283500Y-94659253D01*
X173283500Y-95511425D01*
X173269620Y-95561978D01*
X173231871Y-95598356D01*
X173180838Y-95610357D01*
X173130833Y-95594617D01*
X173118212Y-95580511D01*
X173116636Y-95582241D01*
X173068273Y-95538152D01*
X173064967Y-95534995D01*
X173051796Y-95521825D01*
X173051697Y-95521757D01*
X173040954Y-95513247D01*
X173019934Y-95494085D01*
X173019933Y-95494084D01*
X173010762Y-95490531D01*
X172990587Y-95479896D01*
X172982481Y-95474344D01*
X172954797Y-95467832D01*
X172941702Y-95463777D01*
X172922737Y-95456430D01*
X172876825Y-95420064D01*
X172859500Y-95364115D01*
X172859500Y-95084254D01*
X172858654Y-95080000D01*
X172847867Y-95025769D01*
X172847865Y-95025766D01*
X172847378Y-95023316D01*
X172847378Y-94984687D01*
X172849436Y-94974344D01*
X172859500Y-94923748D01*
X172859500Y-94584252D01*
X172847867Y-94525769D01*
X172824168Y-94490301D01*
X172803552Y-94459447D01*
X172728195Y-94409095D01*
X172691733Y-94364665D01*
X172686099Y-94307466D01*
X172713191Y-94256779D01*
X172831477Y-94138492D01*
X172863592Y-94117035D01*
X172901478Y-94109499D01*
X173125904Y-94109499D01*
X173158957Y-94105147D01*
X173175487Y-94102972D01*
X173284316Y-94052224D01*
X173369224Y-93967316D01*
X173419972Y-93858487D01*
X173426500Y-93808901D01*
X173426499Y-93389100D01*
X173426499Y-93389099D01*
X173426499Y-93389096D01*
X173421277Y-93349430D01*
X173419972Y-93339513D01*
X173369224Y-93230684D01*
X173316005Y-93177465D01*
X173290384Y-93133087D01*
X173290384Y-93081841D01*
X173316006Y-93037462D01*
X173390065Y-92963404D01*
X173440068Y-92856173D01*
X173446500Y-92807316D01*
X173446500Y-92358684D01*
X173440068Y-92309827D01*
X173390065Y-92202596D01*
X173306404Y-92118935D01*
X173306402Y-92118934D01*
X173306401Y-92118933D01*
X173199174Y-92068932D01*
X173150317Y-92062500D01*
X173150316Y-92062500D01*
X172801684Y-92062500D01*
X172801683Y-92062500D01*
X172752825Y-92068932D01*
X172645598Y-92118933D01*
X172561933Y-92202598D01*
X172555724Y-92215915D01*
X172519192Y-92257571D01*
X172466000Y-92273075D01*
X172412808Y-92257571D01*
X172376276Y-92215915D01*
X172370065Y-92202596D01*
X172285496Y-92118026D01*
X172264036Y-92085908D01*
X172256500Y-92048023D01*
X172256500Y-90233166D01*
X172259097Y-90217245D01*
X172256606Y-90163359D01*
X172256500Y-90158787D01*
X172256500Y-90140157D01*
X172256480Y-90140050D01*
X172254898Y-90126430D01*
X172253585Y-90098009D01*
X172249614Y-90089016D01*
X172242866Y-90067225D01*
X172241061Y-90057567D01*
X172238658Y-90053686D01*
X172226086Y-90033381D01*
X172219693Y-90021251D01*
X172208206Y-89995234D01*
X172201256Y-89988284D01*
X172187090Y-89970399D01*
X172181919Y-89962048D01*
X172159221Y-89944907D01*
X172148879Y-89935908D01*
X170880794Y-88667823D01*
X170811481Y-88620344D01*
X170702120Y-88594620D01*
X170673947Y-88598551D01*
X170660269Y-88599500D01*
X170339500Y-88599500D01*
X170290000Y-88586237D01*
X170253763Y-88550000D01*
X170240500Y-88500500D01*
X170240500Y-88030253D01*
X170240500Y-88030252D01*
X170228867Y-87971769D01*
X170214162Y-87949762D01*
X170184552Y-87905447D01*
X170118231Y-87861133D01*
X170059748Y-87849500D01*
X169020252Y-87849500D01*
X168991010Y-87855316D01*
X168961768Y-87861133D01*
X168895447Y-87905447D01*
X168851133Y-87971768D01*
X168839500Y-88030253D01*
X168839500Y-89769747D01*
X168851133Y-89828231D01*
X168895447Y-89894552D01*
X168939762Y-89924162D01*
X168961769Y-89938867D01*
X169020252Y-89950500D01*
X169140500Y-89950500D01*
X169190000Y-89963763D01*
X169226237Y-90000000D01*
X169239500Y-90049500D01*
X169239500Y-94050500D01*
X169226237Y-94100000D01*
X169190000Y-94136237D01*
X169140500Y-94149500D01*
X169020252Y-94149500D01*
X169003310Y-94152870D01*
X168961768Y-94161133D01*
X168895447Y-94205447D01*
X168851133Y-94271768D01*
X168839500Y-94330253D01*
X168839500Y-96069747D01*
X168851133Y-96128231D01*
X168895447Y-96194552D01*
X168939761Y-96224162D01*
X168961769Y-96238867D01*
X169020252Y-96250500D01*
X170059747Y-96250500D01*
X170059748Y-96250500D01*
X170118231Y-96238867D01*
X170184552Y-96194552D01*
X170228867Y-96128231D01*
X170240500Y-96069748D01*
X170240500Y-94330252D01*
X170228867Y-94271769D01*
X170187733Y-94210208D01*
X170184552Y-94205447D01*
X170118231Y-94161133D01*
X170096608Y-94156832D01*
X170059748Y-94149500D01*
X170059747Y-94149500D01*
X169939500Y-94149500D01*
X169890000Y-94136237D01*
X169853763Y-94100000D01*
X169840500Y-94050500D01*
X169840500Y-90049500D01*
X169853763Y-90000000D01*
X169890000Y-89963763D01*
X169939500Y-89950500D01*
X170059747Y-89950500D01*
X170059748Y-89950500D01*
X170118231Y-89938867D01*
X170184552Y-89894552D01*
X170228867Y-89828231D01*
X170240500Y-89769748D01*
X170240500Y-89299500D01*
X170253763Y-89250000D01*
X170290000Y-89213763D01*
X170339500Y-89200500D01*
X170522521Y-89200500D01*
X170560407Y-89208036D01*
X170592525Y-89229496D01*
X171626504Y-90263475D01*
X171647964Y-90295593D01*
X171655500Y-90333479D01*
X171655500Y-92048023D01*
X171647964Y-92085908D01*
X171626504Y-92118026D01*
X171541934Y-92202596D01*
X171491932Y-92309825D01*
X171485500Y-92358683D01*
X171485500Y-92807317D01*
X171491932Y-92856174D01*
X171541933Y-92963401D01*
X171541934Y-92963402D01*
X171541935Y-92963404D01*
X171542953Y-92964422D01*
X171569732Y-93013596D01*
X171565551Y-93069435D01*
X171531744Y-93114073D01*
X171531363Y-93114353D01*
X171452593Y-93221081D01*
X171408787Y-93346272D01*
X171406000Y-93376000D01*
X171406000Y-93448999D01*
X171406001Y-93449000D01*
X172037000Y-93449000D01*
X172086500Y-93462263D01*
X172122737Y-93498500D01*
X172136000Y-93548000D01*
X172136000Y-93650000D01*
X172122737Y-93699500D01*
X172086500Y-93735737D01*
X172037000Y-93749000D01*
X171406002Y-93749000D01*
X171406001Y-93749001D01*
X171406001Y-93822001D01*
X171408787Y-93851726D01*
X171452594Y-93976918D01*
X171531359Y-94083640D01*
X171638081Y-94162406D01*
X171774690Y-94210208D01*
X171774144Y-94211766D01*
X171815049Y-94228979D01*
X171846758Y-94279234D01*
X171843981Y-94338591D01*
X171807719Y-94385667D01*
X171751036Y-94403500D01*
X171739252Y-94403500D01*
X171717117Y-94407903D01*
X171680768Y-94415133D01*
X171651555Y-94434653D01*
X171601128Y-94451231D01*
X171558321Y-94453210D01*
X171554357Y-94453394D01*
X171549787Y-94453500D01*
X171531154Y-94453500D01*
X171531031Y-94453523D01*
X171517420Y-94455101D01*
X171489009Y-94456414D01*
X171480016Y-94460385D01*
X171458227Y-94467132D01*
X171448565Y-94468938D01*
X171424380Y-94483912D01*
X171412259Y-94490301D01*
X171386234Y-94501792D01*
X171379284Y-94508743D01*
X171361408Y-94522903D01*
X171353048Y-94528080D01*
X171335907Y-94550777D01*
X171326910Y-94561117D01*
X170648589Y-95239438D01*
X170635497Y-95248859D01*
X170599141Y-95288737D01*
X170595989Y-95292038D01*
X170582825Y-95305203D01*
X170582754Y-95305307D01*
X170574256Y-95316034D01*
X170555083Y-95337067D01*
X170551530Y-95346238D01*
X170540895Y-95366414D01*
X170535343Y-95374519D01*
X170528830Y-95402207D01*
X170524777Y-95415296D01*
X170514500Y-95441826D01*
X170514500Y-95451652D01*
X170511870Y-95474317D01*
X170510559Y-95479895D01*
X170509621Y-95483881D01*
X170513551Y-95512053D01*
X170514500Y-95525731D01*
X170514500Y-96455948D01*
X170502810Y-96502616D01*
X170470502Y-96538263D01*
X170425205Y-96554471D01*
X170377616Y-96547413D01*
X170356808Y-96538794D01*
X170213100Y-96519875D01*
X170069390Y-96538794D01*
X169935475Y-96594264D01*
X169820478Y-96682503D01*
X169732239Y-96797500D01*
X169676769Y-96931415D01*
X169657850Y-97075125D01*
X169676769Y-97218834D01*
X169732238Y-97352749D01*
X169816202Y-97462173D01*
X169836072Y-97511662D01*
X169827385Y-97564278D01*
X169803028Y-97616512D01*
X169796500Y-97666098D01*
X169796500Y-98025903D01*
X169803027Y-98075485D01*
X169827740Y-98128483D01*
X169853776Y-98184316D01*
X169855958Y-98186498D01*
X169883051Y-98237186D01*
X169877417Y-98294386D01*
X169840954Y-98338815D01*
X169785953Y-98355500D01*
X169722791Y-98355500D01*
X169679003Y-98345290D01*
X169644247Y-98316765D01*
X169640216Y-98307869D01*
X169639808Y-98308143D01*
X169584552Y-98225447D01*
X169518231Y-98181133D01*
X169459748Y-98169500D01*
X168420252Y-98169500D01*
X168391010Y-98175316D01*
X168361768Y-98181133D01*
X168295447Y-98225447D01*
X168251133Y-98291768D01*
X168247876Y-98308143D01*
X168239500Y-98350252D01*
X168239500Y-99239748D01*
X168248635Y-99285671D01*
X168251133Y-99298231D01*
X168295447Y-99364552D01*
X168336183Y-99391771D01*
X168361769Y-99408867D01*
X168420252Y-99420500D01*
X169459747Y-99420500D01*
X169459748Y-99420500D01*
X169518231Y-99408867D01*
X169584552Y-99364552D01*
X169627352Y-99300497D01*
X169662999Y-99268190D01*
X169709667Y-99256500D01*
X169975229Y-99256500D01*
X170017067Y-99265775D01*
X170047513Y-99279972D01*
X170097099Y-99286500D01*
X170516900Y-99286499D01*
X170516903Y-99286499D01*
X170566484Y-99279973D01*
X170566485Y-99279972D01*
X170566487Y-99279972D01*
X170596932Y-99265775D01*
X170638772Y-99256500D01*
X170718202Y-99256500D01*
X170750024Y-99261754D01*
X170778469Y-99276958D01*
X170791375Y-99286861D01*
X170869820Y-99319353D01*
X170925290Y-99342330D01*
X170942008Y-99344531D01*
X171069000Y-99361250D01*
X171212709Y-99342330D01*
X171346625Y-99286861D01*
X171461621Y-99198621D01*
X171549861Y-99083625D01*
X171569036Y-99037330D01*
X171602309Y-98995124D01*
X171652732Y-98976521D01*
X171705445Y-98987006D01*
X171744911Y-99023488D01*
X171759500Y-99075216D01*
X171759500Y-99396903D01*
X171766026Y-99446484D01*
X171780225Y-99476933D01*
X171789500Y-99518772D01*
X171789500Y-99570202D01*
X171784246Y-99602024D01*
X171769042Y-99630469D01*
X171759139Y-99643374D01*
X171703669Y-99777290D01*
X171684750Y-99920999D01*
X171703669Y-100064709D01*
X171739103Y-100150253D01*
X171759139Y-100198625D01*
X171773924Y-100217893D01*
X171847378Y-100313621D01*
X171897306Y-100351932D01*
X171962375Y-100401861D01*
X172038989Y-100433595D01*
X172096290Y-100457330D01*
X172113008Y-100459531D01*
X172240000Y-100476250D01*
X172383709Y-100457330D01*
X172517625Y-100401861D01*
X172632621Y-100313621D01*
X172720861Y-100198625D01*
X172776330Y-100064709D01*
X172795250Y-99921000D01*
X172789960Y-99880820D01*
X172796127Y-99831300D01*
X172825667Y-99791078D01*
X172871075Y-99770376D01*
X172920812Y-99774455D01*
X172977274Y-99794212D01*
X173007000Y-99797000D01*
X173049999Y-99797000D01*
X173050000Y-99796999D01*
X173050000Y-99136000D01*
X173063263Y-99086500D01*
X173099500Y-99050263D01*
X173149000Y-99037000D01*
X173251000Y-99037000D01*
X173300500Y-99050263D01*
X173336737Y-99086500D01*
X173350000Y-99136000D01*
X173350000Y-99796998D01*
X173350001Y-99796999D01*
X173393001Y-99796999D01*
X173422726Y-99794212D01*
X173547918Y-99750405D01*
X173566710Y-99736537D01*
X173617178Y-99717541D01*
X173670114Y-99727814D01*
X173709814Y-99764306D01*
X173724500Y-99816191D01*
X173724500Y-99874673D01*
X173740939Y-99957318D01*
X173753886Y-99999998D01*
X173740938Y-100042685D01*
X173736148Y-100066768D01*
X173724500Y-100125326D01*
X173724500Y-100274674D01*
X173734460Y-100324743D01*
X173740939Y-100357317D01*
X173753887Y-100400000D01*
X173740939Y-100442682D01*
X173724500Y-100525327D01*
X173724500Y-100674673D01*
X173740939Y-100757317D01*
X173753887Y-100800000D01*
X173740939Y-100842682D01*
X173739033Y-100852260D01*
X173739034Y-100852260D01*
X173724500Y-100925326D01*
X173724500Y-101074674D01*
X173738986Y-101147501D01*
X173740940Y-101157320D01*
X173753887Y-101199996D01*
X173740936Y-101242693D01*
X173737557Y-101259681D01*
X173707738Y-101312992D01*
X173652307Y-101338654D01*
X173592366Y-101326898D01*
X173567931Y-101300663D01*
X173566567Y-101302028D01*
X173554224Y-101289685D01*
X173554224Y-101289684D01*
X173469316Y-101204776D01*
X173469314Y-101204775D01*
X173469313Y-101204774D01*
X173360488Y-101154028D01*
X173310901Y-101147500D01*
X172891102Y-101147500D01*
X172837421Y-101154566D01*
X172798878Y-101152038D01*
X172764237Y-101134955D01*
X172743625Y-101119139D01*
X172743624Y-101119138D01*
X172743622Y-101119137D01*
X172609709Y-101063669D01*
X172466000Y-101044750D01*
X172322290Y-101063669D01*
X172188375Y-101119139D01*
X172073378Y-101207378D01*
X171985139Y-101322375D01*
X171929669Y-101456290D01*
X171910750Y-101599998D01*
X171929669Y-101743709D01*
X171968892Y-101838401D01*
X171985139Y-101877625D01*
X172014221Y-101915525D01*
X172073378Y-101992621D01*
X172109869Y-102020621D01*
X172188375Y-102080861D01*
X172255972Y-102108860D01*
X172322289Y-102136330D01*
X172357639Y-102140983D01*
X172442072Y-102152099D01*
X172494656Y-102176023D01*
X172524933Y-102225225D01*
X172522593Y-102282950D01*
X172493787Y-102365272D01*
X172491000Y-102395000D01*
X172491000Y-102437999D01*
X172491001Y-102438000D01*
X173652000Y-102438000D01*
X173701500Y-102451263D01*
X173721622Y-102471385D01*
X173722004Y-102471003D01*
X173751001Y-102500000D01*
X173938063Y-102500000D01*
X173943140Y-102500500D01*
X173950326Y-102500500D01*
X174774674Y-102500500D01*
X174781860Y-102500500D01*
X174786937Y-102500000D01*
X175097554Y-102500000D01*
X175090088Y-102448752D01*
X175038785Y-102343811D01*
X175029496Y-102334522D01*
X175008036Y-102302404D01*
X175000500Y-102264518D01*
X175000500Y-102125327D01*
X174999725Y-102121433D01*
X174985966Y-102052260D01*
X174985965Y-102052259D01*
X174984060Y-102042679D01*
X174971113Y-101999996D01*
X174984060Y-101957319D01*
X174985965Y-101947741D01*
X174985966Y-101947740D01*
X175000500Y-101874674D01*
X175000500Y-101725326D01*
X174985966Y-101652260D01*
X174985965Y-101652259D01*
X174984060Y-101642679D01*
X174971113Y-101599996D01*
X174984060Y-101557319D01*
X174985965Y-101547741D01*
X174985966Y-101547740D01*
X175000500Y-101474674D01*
X175000500Y-101325326D01*
X174985966Y-101252260D01*
X174985965Y-101252258D01*
X174984059Y-101242676D01*
X174971113Y-101200000D01*
X174984059Y-101157323D01*
X174985964Y-101147741D01*
X174985966Y-101147740D01*
X175000500Y-101074674D01*
X175000500Y-100925326D01*
X174985966Y-100852260D01*
X174985965Y-100852258D01*
X174984059Y-100842676D01*
X174971113Y-100800000D01*
X174984059Y-100757323D01*
X174985964Y-100747741D01*
X174985966Y-100747740D01*
X175000500Y-100674674D01*
X175000500Y-100525326D01*
X174985966Y-100452260D01*
X174985965Y-100452258D01*
X174984059Y-100442676D01*
X174971113Y-100400000D01*
X174984059Y-100357323D01*
X174985964Y-100347741D01*
X174985966Y-100347740D01*
X175000500Y-100274674D01*
X175000500Y-100125326D01*
X174985966Y-100052260D01*
X174985965Y-100052259D01*
X174984060Y-100042679D01*
X174971113Y-99999996D01*
X174984060Y-99957319D01*
X174985965Y-99947741D01*
X174985966Y-99947740D01*
X175000500Y-99874674D01*
X175000500Y-99725326D01*
X174985966Y-99652260D01*
X174985965Y-99652259D01*
X174984060Y-99642679D01*
X174971113Y-99599996D01*
X174984060Y-99557319D01*
X174985965Y-99547741D01*
X174985966Y-99547740D01*
X175000500Y-99474674D01*
X175000500Y-99335482D01*
X175008036Y-99297595D01*
X175029498Y-99265477D01*
X175038786Y-99256189D01*
X175090087Y-99151249D01*
X175097554Y-99100000D01*
X174786937Y-99100000D01*
X174781860Y-99099500D01*
X174774674Y-99099500D01*
X174361500Y-99099500D01*
X174312000Y-99086237D01*
X174275763Y-99050000D01*
X174262500Y-99000500D01*
X174262500Y-98999000D01*
X174275763Y-98949500D01*
X174312000Y-98913263D01*
X174361500Y-98900000D01*
X175097554Y-98900000D01*
X175102299Y-98894513D01*
X175107423Y-98858485D01*
X175143952Y-98816249D01*
X175197527Y-98800500D01*
X175274673Y-98800500D01*
X175274674Y-98800500D01*
X175347740Y-98785966D01*
X175347741Y-98785964D01*
X175357323Y-98784059D01*
X175400000Y-98771113D01*
X175442676Y-98784059D01*
X175452258Y-98785965D01*
X175452260Y-98785966D01*
X175525326Y-98800500D01*
X175674673Y-98800500D01*
X175674674Y-98800500D01*
X175747740Y-98785966D01*
X175747741Y-98785964D01*
X175757323Y-98784059D01*
X175800000Y-98771113D01*
X175842676Y-98784059D01*
X175852258Y-98785965D01*
X175852260Y-98785966D01*
X175925326Y-98800500D01*
X176074673Y-98800500D01*
X176074674Y-98800500D01*
X176147740Y-98785966D01*
X176147741Y-98785964D01*
X176157323Y-98784059D01*
X176200000Y-98771113D01*
X176242676Y-98784059D01*
X176252258Y-98785965D01*
X176252260Y-98785966D01*
X176325326Y-98800500D01*
X176474673Y-98800500D01*
X176474674Y-98800500D01*
X176547740Y-98785966D01*
X176547741Y-98785964D01*
X176557323Y-98784059D01*
X176600000Y-98771113D01*
X176642676Y-98784059D01*
X176652258Y-98785965D01*
X176652260Y-98785966D01*
X176725326Y-98800500D01*
X176874673Y-98800500D01*
X176874674Y-98800500D01*
X176947740Y-98785966D01*
X176947741Y-98785964D01*
X176957323Y-98784059D01*
X177000000Y-98771113D01*
X177042676Y-98784059D01*
X177052258Y-98785965D01*
X177052260Y-98785966D01*
X177125326Y-98800500D01*
X177274673Y-98800500D01*
X177274674Y-98800500D01*
X177347740Y-98785966D01*
X177347741Y-98785964D01*
X177357323Y-98784059D01*
X177400000Y-98771113D01*
X177442676Y-98784059D01*
X177452258Y-98785965D01*
X177452260Y-98785966D01*
X177525326Y-98800500D01*
X177525327Y-98800500D01*
X177664518Y-98800500D01*
X177702404Y-98808036D01*
X177734522Y-98829496D01*
X177743812Y-98838786D01*
X177848750Y-98890087D01*
X177900000Y-98897554D01*
X178100000Y-98897554D01*
X178151248Y-98890088D01*
X178156518Y-98887512D01*
X178199999Y-98877452D01*
X178243480Y-98887511D01*
X178248750Y-98890087D01*
X178300000Y-98897554D01*
X178300000Y-98262501D01*
X178299999Y-98262500D01*
X178100001Y-98262500D01*
X178100000Y-98262501D01*
X178100000Y-98897554D01*
X177900000Y-98897554D01*
X177900000Y-98586937D01*
X177900500Y-98581860D01*
X177900500Y-98062499D01*
X178100000Y-98062499D01*
X178100001Y-98062500D01*
X178299999Y-98062500D01*
X178300000Y-98062499D01*
X178300000Y-97427445D01*
X178248748Y-97434912D01*
X178243475Y-97437490D01*
X178199999Y-97447547D01*
X178156523Y-97437490D01*
X178151251Y-97434913D01*
X178100000Y-97427446D01*
X178100000Y-98062499D01*
X177900500Y-98062499D01*
X177900500Y-96397129D01*
X177910710Y-96353342D01*
X177939230Y-96318588D01*
X177992621Y-96277621D01*
X178080861Y-96162625D01*
X178136330Y-96028709D01*
X178155250Y-95885000D01*
X178136330Y-95741291D01*
X178080861Y-95607375D01*
X178019301Y-95527149D01*
X177992621Y-95492378D01*
X177926739Y-95441826D01*
X177877625Y-95404139D01*
X177817520Y-95379243D01*
X177743709Y-95348669D01*
X177616717Y-95331951D01*
X177600000Y-95329750D01*
X177599999Y-95329750D01*
X177510305Y-95341558D01*
X177465561Y-95337151D01*
X177427380Y-95313409D01*
X176560944Y-94446973D01*
X176534328Y-94398546D01*
X176537814Y-94343397D01*
X176570317Y-94298708D01*
X176621709Y-94278401D01*
X176655726Y-94275212D01*
X176780920Y-94231405D01*
X176852210Y-94178790D01*
X176890174Y-94161659D01*
X176931823Y-94161659D01*
X176969787Y-94178789D01*
X177041079Y-94231405D01*
X177166272Y-94275212D01*
X177196000Y-94278000D01*
X177268999Y-94278000D01*
X177269000Y-94277999D01*
X177269000Y-93848001D01*
X177268999Y-93848000D01*
X176352000Y-93848000D01*
X176302500Y-93834737D01*
X176266263Y-93798500D01*
X176253000Y-93749000D01*
X176253000Y-93647000D01*
X176266263Y-93597500D01*
X176302500Y-93561263D01*
X176352000Y-93548000D01*
X177470000Y-93548000D01*
X177519500Y-93561263D01*
X177555737Y-93597500D01*
X177569000Y-93647000D01*
X177569000Y-94277998D01*
X177569001Y-94277999D01*
X177642001Y-94277999D01*
X177671726Y-94275212D01*
X177796920Y-94231405D01*
X177903638Y-94152643D01*
X177903917Y-94152266D01*
X177948555Y-94118452D01*
X178004398Y-94114266D01*
X178053576Y-94141045D01*
X178054596Y-94142065D01*
X178161827Y-94192068D01*
X178203275Y-94197524D01*
X178210683Y-94198500D01*
X178210684Y-94198500D01*
X178400500Y-94198500D01*
X178450000Y-94211763D01*
X178486237Y-94248000D01*
X178499500Y-94297500D01*
X178499500Y-98581860D01*
X178500000Y-98586937D01*
X178500000Y-98897555D01*
X178514001Y-98909664D01*
X178536107Y-98937057D01*
X178547231Y-98970454D01*
X178566673Y-99105678D01*
X178620487Y-99223513D01*
X178687195Y-99300498D01*
X178705322Y-99321418D01*
X178814302Y-99391455D01*
X178938599Y-99427951D01*
X178987893Y-99427951D01*
X179025779Y-99435487D01*
X179057897Y-99456948D01*
X179231445Y-99630497D01*
X179258539Y-99681186D01*
X179252905Y-99738386D01*
X179216442Y-99782816D01*
X179161441Y-99799500D01*
X176303635Y-99799500D01*
X176253460Y-99806105D01*
X176143357Y-99857447D01*
X176057449Y-99943355D01*
X176006105Y-100053462D01*
X175999500Y-100103637D01*
X175999500Y-103096364D01*
X176006105Y-103146539D01*
X176057447Y-103256642D01*
X176057448Y-103256643D01*
X176057449Y-103256645D01*
X176143355Y-103342551D01*
X176253461Y-103393894D01*
X176303637Y-103400500D01*
X178808114Y-103400499D01*
X178863115Y-103417183D01*
X178899578Y-103461613D01*
X178905212Y-103518813D01*
X178878118Y-103569503D01*
X178233589Y-104214032D01*
X178220497Y-104223453D01*
X178184141Y-104263331D01*
X178180986Y-104266636D01*
X178174556Y-104273066D01*
X178135729Y-104297025D01*
X178102926Y-104299914D01*
X178100000Y-104302446D01*
X178100000Y-104396628D01*
X178099500Y-104399303D01*
X178099500Y-104426246D01*
X178096869Y-104448918D01*
X178095369Y-104455294D01*
X178090969Y-104462939D01*
X178097051Y-104475894D01*
X178098551Y-104486647D01*
X178099500Y-104500325D01*
X178099500Y-105038500D01*
X178086237Y-105088000D01*
X178050000Y-105124237D01*
X178000500Y-105137500D01*
X177999500Y-105137500D01*
X177950000Y-105124237D01*
X177913763Y-105088000D01*
X177900500Y-105038500D01*
X177900500Y-104618140D01*
X177900000Y-104613063D01*
X177900000Y-104489572D01*
X177908671Y-104461568D01*
X177900000Y-104432622D01*
X177900000Y-104302445D01*
X177848752Y-104309911D01*
X177743811Y-104361214D01*
X177734522Y-104370504D01*
X177702404Y-104391964D01*
X177664518Y-104399500D01*
X177525326Y-104399500D01*
X177494484Y-104405635D01*
X177442682Y-104415939D01*
X177400000Y-104428887D01*
X177357317Y-104415939D01*
X177305516Y-104405635D01*
X177274674Y-104399500D01*
X177125326Y-104399500D01*
X177094484Y-104405635D01*
X177042682Y-104415939D01*
X177000000Y-104428887D01*
X176957317Y-104415939D01*
X176905516Y-104405635D01*
X176874674Y-104399500D01*
X176725326Y-104399500D01*
X176694484Y-104405635D01*
X176642682Y-104415939D01*
X176600000Y-104428887D01*
X176557317Y-104415939D01*
X176505516Y-104405635D01*
X176474674Y-104399500D01*
X176325326Y-104399500D01*
X176294484Y-104405635D01*
X176242682Y-104415939D01*
X176200000Y-104428887D01*
X176157317Y-104415939D01*
X176105516Y-104405635D01*
X176074674Y-104399500D01*
X175925326Y-104399500D01*
X175894484Y-104405635D01*
X175842682Y-104415939D01*
X175800000Y-104428887D01*
X175757317Y-104415939D01*
X175705516Y-104405635D01*
X175674674Y-104399500D01*
X175525326Y-104399500D01*
X175494484Y-104405635D01*
X175442682Y-104415939D01*
X175400000Y-104428887D01*
X175357317Y-104415939D01*
X175305516Y-104405635D01*
X175274674Y-104399500D01*
X175125326Y-104399500D01*
X175125323Y-104399500D01*
X175114819Y-104401589D01*
X175066767Y-104399227D01*
X175025502Y-104374493D01*
X175000770Y-104333226D01*
X174998411Y-104285174D01*
X174998562Y-104284419D01*
X175000500Y-104274674D01*
X175000500Y-104125326D01*
X174985966Y-104052260D01*
X174985965Y-104052259D01*
X174984060Y-104042679D01*
X174971113Y-103999996D01*
X174984060Y-103957319D01*
X174985965Y-103947741D01*
X174985966Y-103947740D01*
X175000500Y-103874674D01*
X175000500Y-103725326D01*
X174985966Y-103652260D01*
X174985965Y-103652258D01*
X174984059Y-103642676D01*
X174971113Y-103600000D01*
X174984059Y-103557323D01*
X174985964Y-103547741D01*
X174985966Y-103547740D01*
X175000500Y-103474674D01*
X175000500Y-103325326D01*
X174985966Y-103252260D01*
X174985965Y-103252259D01*
X174984060Y-103242679D01*
X174971113Y-103199996D01*
X174984060Y-103157319D01*
X174985965Y-103147741D01*
X174985966Y-103147740D01*
X175000500Y-103074674D01*
X175000500Y-102935482D01*
X175008036Y-102897595D01*
X175029498Y-102865477D01*
X175038786Y-102856189D01*
X175090087Y-102751249D01*
X175097554Y-102700000D01*
X174786937Y-102700000D01*
X174781860Y-102699500D01*
X174774674Y-102699500D01*
X173950326Y-102699500D01*
X173943140Y-102699500D01*
X173938063Y-102700000D01*
X173751001Y-102700000D01*
X173741997Y-102709004D01*
X173709879Y-102730464D01*
X173671993Y-102738000D01*
X173251001Y-102738000D01*
X173251000Y-102738001D01*
X173251000Y-103167998D01*
X173251001Y-103167999D01*
X173324001Y-103167999D01*
X173353726Y-103165212D01*
X173478918Y-103121405D01*
X173575701Y-103049975D01*
X173621338Y-103031507D01*
X173670227Y-103037304D01*
X173710279Y-103065933D01*
X173731588Y-103110314D01*
X173740936Y-103157309D01*
X173753886Y-103199998D01*
X173740938Y-103242685D01*
X173733948Y-103277827D01*
X173724605Y-103324801D01*
X173724500Y-103325327D01*
X173724500Y-103474673D01*
X173740939Y-103557317D01*
X173753887Y-103600000D01*
X173740939Y-103642682D01*
X173738789Y-103653490D01*
X173724500Y-103725326D01*
X173724500Y-103874674D01*
X173732535Y-103915066D01*
X173740939Y-103957317D01*
X173753887Y-104000000D01*
X173740939Y-104042682D01*
X173736660Y-104064193D01*
X173724500Y-104125326D01*
X173724500Y-104274674D01*
X173739034Y-104347740D01*
X173794399Y-104430601D01*
X173877260Y-104485966D01*
X173950326Y-104500500D01*
X174774674Y-104500500D01*
X174785175Y-104498411D01*
X174833226Y-104500770D01*
X174874493Y-104525502D01*
X174899227Y-104566767D01*
X174901589Y-104614819D01*
X174899500Y-104625323D01*
X174899500Y-106824520D01*
X174891964Y-106862406D01*
X174870504Y-106894524D01*
X172032525Y-109732504D01*
X172000407Y-109753964D01*
X171962521Y-109761500D01*
X171733683Y-109761500D01*
X171684825Y-109767932D01*
X171577598Y-109817933D01*
X171493933Y-109901598D01*
X171443932Y-110008825D01*
X171437653Y-110056521D01*
X171424905Y-110084173D01*
X171437500Y-110124517D01*
X171437500Y-110406317D01*
X171443932Y-110455174D01*
X171493933Y-110562401D01*
X171493934Y-110562402D01*
X171493935Y-110562404D01*
X171577596Y-110646065D01*
X171577597Y-110646065D01*
X171577598Y-110646066D01*
X171590915Y-110652276D01*
X171632571Y-110688808D01*
X171648075Y-110742000D01*
X171632571Y-110795192D01*
X171590915Y-110831724D01*
X171577596Y-110837934D01*
X171493026Y-110922504D01*
X171460908Y-110943964D01*
X171423023Y-110951500D01*
X171338154Y-110951500D01*
X171291991Y-110940078D01*
X171256480Y-110908449D01*
X171239814Y-110863911D01*
X171239288Y-110859378D01*
X171237759Y-110846201D01*
X171195098Y-110749584D01*
X171120416Y-110674902D01*
X171120414Y-110674901D01*
X171120413Y-110674900D01*
X171023799Y-110632240D01*
X171000176Y-110629500D01*
X171000174Y-110629500D01*
X169939499Y-110629500D01*
X169889999Y-110616237D01*
X169853762Y-110580000D01*
X169840499Y-110530500D01*
X169840499Y-110449500D01*
X169853762Y-110400000D01*
X169889999Y-110363763D01*
X169939499Y-110350500D01*
X171000176Y-110350500D01*
X171023799Y-110347759D01*
X171082404Y-110321882D01*
X171120416Y-110305098D01*
X171195098Y-110230416D01*
X171237759Y-110133799D01*
X171239582Y-110118089D01*
X171240160Y-110113107D01*
X171253064Y-110084063D01*
X171240500Y-110043599D01*
X171240500Y-109369824D01*
X171237759Y-109346200D01*
X171195099Y-109249586D01*
X171195098Y-109249585D01*
X171195098Y-109249584D01*
X171120416Y-109174902D01*
X171120414Y-109174901D01*
X171120413Y-109174900D01*
X171023799Y-109132240D01*
X171000176Y-109129500D01*
X171000174Y-109129500D01*
X170877151Y-109129500D01*
X170823958Y-109113996D01*
X170787426Y-109072339D01*
X170778998Y-109017578D01*
X170782661Y-108989754D01*
X170795250Y-108894135D01*
X170776330Y-108750426D01*
X170774298Y-108745521D01*
X170741319Y-108665901D01*
X170720861Y-108616510D01*
X170658840Y-108535683D01*
X170632621Y-108501513D01*
X170557214Y-108443652D01*
X170517625Y-108413274D01*
X170478401Y-108397027D01*
X170383709Y-108357804D01*
X170240000Y-108338885D01*
X170096290Y-108357804D01*
X169962375Y-108413274D01*
X169847378Y-108501513D01*
X169765640Y-108608037D01*
X169722198Y-108640339D01*
X169668261Y-108644961D01*
X169619957Y-108620523D01*
X169550370Y-108556304D01*
X169395982Y-108458804D01*
X169395979Y-108458803D01*
X169395978Y-108458802D01*
X169282405Y-108413274D01*
X169226484Y-108390857D01*
X169047492Y-108354718D01*
X168864919Y-108351577D01*
X168684789Y-108381539D01*
X168513061Y-108443613D01*
X168502514Y-108449759D01*
X168501887Y-108450023D01*
X168457461Y-108475978D01*
X168407514Y-108489496D01*
X168368967Y-108489493D01*
X168368607Y-108489493D01*
X168355550Y-108489492D01*
X168355489Y-108489500D01*
X166872493Y-108489500D01*
X166822538Y-108475972D01*
X166778286Y-108450108D01*
X166777272Y-108449683D01*
X166766920Y-108443650D01*
X166595201Y-108381579D01*
X166415079Y-108351618D01*
X166232514Y-108354759D01*
X166053528Y-108390896D01*
X165884038Y-108458838D01*
X165729659Y-108556333D01*
X165595467Y-108680172D01*
X165485918Y-108826249D01*
X165404616Y-108989754D01*
X165385091Y-109057804D01*
X165365017Y-109095022D01*
X165331243Y-109120469D01*
X165289931Y-109129500D01*
X164895479Y-109129500D01*
X164857593Y-109121964D01*
X164825475Y-109100504D01*
X164540496Y-108815525D01*
X164519036Y-108783407D01*
X164511500Y-108745521D01*
X164511500Y-105409999D01*
X164925750Y-105409999D01*
X164944669Y-105553709D01*
X164981318Y-105642186D01*
X165000139Y-105687625D01*
X165025579Y-105720779D01*
X165088378Y-105802621D01*
X165126265Y-105831692D01*
X165203375Y-105890861D01*
X165291053Y-105927178D01*
X165337290Y-105946330D01*
X165354001Y-105948530D01*
X165481000Y-105965250D01*
X165493526Y-105963600D01*
X165496079Y-105963265D01*
X165550840Y-105971694D01*
X165592496Y-106008226D01*
X165608000Y-106061418D01*
X165608000Y-106680000D01*
X166116000Y-107188000D01*
X169164000Y-107188000D01*
X169466458Y-106885541D01*
X169515633Y-106858762D01*
X169571474Y-106862946D01*
X169616112Y-106896757D01*
X169626358Y-106910639D01*
X169733081Y-106989406D01*
X169858272Y-107033212D01*
X169888000Y-107036000D01*
X169930999Y-107036000D01*
X169931000Y-107035999D01*
X169931000Y-106576001D01*
X169930999Y-106576000D01*
X169771000Y-106576000D01*
X169721500Y-106562737D01*
X169685263Y-106526500D01*
X169672000Y-106477000D01*
X169672000Y-106375000D01*
X169685263Y-106325500D01*
X169721500Y-106289263D01*
X169771000Y-106276000D01*
X169930999Y-106276000D01*
X169931000Y-106275999D01*
X169931000Y-105816002D01*
X169930999Y-105816001D01*
X169887999Y-105816001D01*
X169858276Y-105818787D01*
X169803697Y-105837885D01*
X169757160Y-105842468D01*
X169713711Y-105825180D01*
X169683044Y-105789879D01*
X169672000Y-105744440D01*
X169672000Y-105030965D01*
X169684204Y-104983347D01*
X169717807Y-104947469D01*
X169764525Y-104932177D01*
X169812839Y-104941241D01*
X169865524Y-104965808D01*
X169906827Y-104985068D01*
X169948275Y-104990524D01*
X169955683Y-104991500D01*
X169955684Y-104991500D01*
X170404316Y-104991500D01*
X170404317Y-104991500D01*
X170409408Y-104990829D01*
X170453173Y-104985068D01*
X170557553Y-104936394D01*
X170615515Y-104928441D01*
X170667848Y-104954604D01*
X170696270Y-105005746D01*
X170690854Y-105064003D01*
X170659669Y-105139291D01*
X170640750Y-105282999D01*
X170659669Y-105426709D01*
X170694001Y-105509593D01*
X170715139Y-105560625D01*
X170752450Y-105609249D01*
X170803378Y-105675621D01*
X170889049Y-105741358D01*
X170922528Y-105788077D01*
X170924409Y-105845523D01*
X170894057Y-105894333D01*
X170841703Y-105918053D01*
X170811514Y-105922027D01*
X170702682Y-105972776D01*
X170701257Y-105974202D01*
X170652078Y-106000981D01*
X170596238Y-105996796D01*
X170551601Y-105962984D01*
X170535642Y-105941360D01*
X170428918Y-105862593D01*
X170303727Y-105818787D01*
X170274000Y-105816000D01*
X170231001Y-105816000D01*
X170231000Y-105816001D01*
X170231000Y-107035998D01*
X170231001Y-107035999D01*
X170274001Y-107035999D01*
X170303725Y-107033212D01*
X170393405Y-107001832D01*
X170443142Y-106997753D01*
X170488549Y-107018455D01*
X170518089Y-107058676D01*
X170524256Y-107108198D01*
X170513750Y-107187999D01*
X170532669Y-107331709D01*
X170561162Y-107400496D01*
X170588139Y-107465625D01*
X170620951Y-107508386D01*
X170676378Y-107580621D01*
X170699460Y-107598332D01*
X170791375Y-107668861D01*
X170886067Y-107708083D01*
X170925290Y-107724330D01*
X170942008Y-107726531D01*
X171069000Y-107743250D01*
X171212709Y-107724330D01*
X171346625Y-107668861D01*
X171461621Y-107580621D01*
X171549861Y-107465625D01*
X171605330Y-107331709D01*
X171624250Y-107188000D01*
X171605330Y-107044291D01*
X171605329Y-107044289D01*
X171549861Y-106910375D01*
X171511958Y-106860979D01*
X171496754Y-106832534D01*
X171491500Y-106800712D01*
X171491500Y-106757771D01*
X171500775Y-106715933D01*
X171506784Y-106703046D01*
X171514972Y-106685487D01*
X171521500Y-106635901D01*
X171521499Y-106216100D01*
X171521499Y-106216099D01*
X171521499Y-106216096D01*
X171514972Y-106166514D01*
X171504924Y-106144967D01*
X171464224Y-106057684D01*
X171379316Y-105972776D01*
X171379314Y-105972775D01*
X171366972Y-105960433D01*
X171368685Y-105958719D01*
X171348099Y-105940467D01*
X171333194Y-105886029D01*
X171350459Y-105832292D01*
X171394284Y-105796724D01*
X171473625Y-105763861D01*
X171521695Y-105726975D01*
X171576465Y-105706670D01*
X171633151Y-105720779D01*
X171672014Y-105764391D01*
X171762603Y-105962752D01*
X171884510Y-106133948D01*
X171884513Y-106133951D01*
X171884514Y-106133952D01*
X171946742Y-106193286D01*
X172036622Y-106278986D01*
X172213431Y-106392615D01*
X172408539Y-106470724D01*
X172408541Y-106470724D01*
X172408543Y-106470725D01*
X172614915Y-106510500D01*
X172772422Y-106510500D01*
X172772425Y-106510500D01*
X172929218Y-106495528D01*
X173130875Y-106436316D01*
X173317682Y-106340011D01*
X173482886Y-106210092D01*
X173495314Y-106195750D01*
X173548862Y-106133952D01*
X173620519Y-106051256D01*
X173725604Y-105869244D01*
X173794344Y-105670633D01*
X173824254Y-105462602D01*
X173814254Y-105252670D01*
X173789193Y-105149367D01*
X173764705Y-105048425D01*
X173677395Y-104857245D01*
X173555489Y-104686051D01*
X173403377Y-104541013D01*
X173226568Y-104427384D01*
X173031460Y-104349275D01*
X172876678Y-104319443D01*
X172825085Y-104309500D01*
X172667575Y-104309500D01*
X172573499Y-104318483D01*
X172510780Y-104324472D01*
X172309124Y-104383683D01*
X172122317Y-104479989D01*
X171957114Y-104609906D01*
X171880318Y-104698533D01*
X171829982Y-104729626D01*
X171770902Y-104726459D01*
X171724178Y-104690163D01*
X171706499Y-104633703D01*
X171706499Y-104313100D01*
X171706499Y-104313096D01*
X171699972Y-104263512D01*
X171651787Y-104160179D01*
X171643833Y-104102213D01*
X171669997Y-104049880D01*
X171721140Y-104021459D01*
X171779394Y-104026875D01*
X171814291Y-104041330D01*
X171958000Y-104060250D01*
X172101709Y-104041330D01*
X172235625Y-103985861D01*
X172350621Y-103897621D01*
X172438861Y-103782625D01*
X172494330Y-103648709D01*
X172513250Y-103505000D01*
X172494330Y-103361291D01*
X172487033Y-103343675D01*
X172469785Y-103302033D01*
X172438861Y-103227375D01*
X172357548Y-103121406D01*
X172350621Y-103112378D01*
X172272587Y-103052501D01*
X172235625Y-103024139D01*
X172196401Y-103007892D01*
X172101709Y-102968669D01*
X171958000Y-102949750D01*
X171814289Y-102968669D01*
X171680377Y-103024137D01*
X171614746Y-103074497D01*
X171565257Y-103094366D01*
X171512640Y-103085679D01*
X171455485Y-103059027D01*
X171405901Y-103052500D01*
X170986096Y-103052500D01*
X170936514Y-103059027D01*
X170827683Y-103109776D01*
X170775467Y-103161992D01*
X170731087Y-103187615D01*
X170679841Y-103187615D01*
X170635462Y-103161993D01*
X170560404Y-103086935D01*
X170560402Y-103086934D01*
X170560401Y-103086933D01*
X170453174Y-103036932D01*
X170404317Y-103030500D01*
X170404316Y-103030500D01*
X169955684Y-103030500D01*
X169955683Y-103030500D01*
X169906825Y-103036932D01*
X169799598Y-103086933D01*
X169715933Y-103170598D01*
X169665932Y-103277825D01*
X169659500Y-103326683D01*
X169659500Y-103675317D01*
X169665932Y-103724174D01*
X169715933Y-103831401D01*
X169715934Y-103831402D01*
X169715935Y-103831404D01*
X169799596Y-103915065D01*
X169799597Y-103915065D01*
X169799598Y-103915066D01*
X169812915Y-103921276D01*
X169854571Y-103957808D01*
X169870075Y-104011000D01*
X169854571Y-104064192D01*
X169812915Y-104100724D01*
X169799595Y-104106935D01*
X169789267Y-104117263D01*
X169744887Y-104142885D01*
X169693641Y-104142884D01*
X169649263Y-104117263D01*
X169164000Y-103632000D01*
X166116000Y-103632000D01*
X165608000Y-104140000D01*
X165608000Y-104140001D01*
X165608000Y-104758582D01*
X165592496Y-104811774D01*
X165550840Y-104848306D01*
X165496079Y-104856735D01*
X165481000Y-104854750D01*
X165337290Y-104873669D01*
X165203375Y-104929139D01*
X165088378Y-105017378D01*
X165000139Y-105132375D01*
X164944669Y-105266290D01*
X164925750Y-105409999D01*
X164511500Y-105409999D01*
X164511500Y-104432479D01*
X164519036Y-104394593D01*
X164540496Y-104362475D01*
X166121970Y-102781001D01*
X172491001Y-102781001D01*
X172493787Y-102810726D01*
X172537594Y-102935918D01*
X172616359Y-103042640D01*
X172723081Y-103121406D01*
X172848272Y-103165212D01*
X172878000Y-103168000D01*
X172950999Y-103168000D01*
X172951000Y-103167999D01*
X172951000Y-102738001D01*
X172950999Y-102738000D01*
X172491002Y-102738000D01*
X172491001Y-102738001D01*
X172491001Y-102781001D01*
X166121970Y-102781001D01*
X168003476Y-100899496D01*
X168035594Y-100878036D01*
X168073480Y-100870500D01*
X168140500Y-100870500D01*
X168190000Y-100883763D01*
X168226237Y-100920000D01*
X168239500Y-100969500D01*
X168239500Y-101014747D01*
X168251133Y-101073231D01*
X168295447Y-101139552D01*
X168339761Y-101169162D01*
X168361769Y-101183867D01*
X168420252Y-101195500D01*
X169459747Y-101195500D01*
X169459748Y-101195500D01*
X169518231Y-101183867D01*
X169584552Y-101139552D01*
X169628867Y-101073231D01*
X169640500Y-101014748D01*
X169640500Y-100125252D01*
X169628867Y-100066769D01*
X169596630Y-100018523D01*
X169584552Y-100000447D01*
X169518231Y-99956133D01*
X169459748Y-99944500D01*
X168420252Y-99944500D01*
X168391010Y-99950316D01*
X168361768Y-99956133D01*
X168295447Y-100000447D01*
X168251133Y-100066768D01*
X168246683Y-100089139D01*
X168243800Y-100103637D01*
X168239500Y-100125253D01*
X168239500Y-100170500D01*
X168226237Y-100220000D01*
X168190000Y-100256237D01*
X168140500Y-100269500D01*
X167973169Y-100269500D01*
X167957242Y-100266901D01*
X167903338Y-100269394D01*
X167898766Y-100269500D01*
X167880153Y-100269500D01*
X167880030Y-100269523D01*
X167866433Y-100271099D01*
X167838009Y-100272413D01*
X167829010Y-100276387D01*
X167807219Y-100283134D01*
X167797566Y-100284938D01*
X167773383Y-100299911D01*
X167761261Y-100306301D01*
X167735234Y-100317794D01*
X167728285Y-100324743D01*
X167710408Y-100338904D01*
X167702047Y-100344081D01*
X167684907Y-100366777D01*
X167675910Y-100377116D01*
X167209504Y-100843524D01*
X167158814Y-100870619D01*
X167101614Y-100864985D01*
X167057185Y-100828522D01*
X167040500Y-100773521D01*
X167040500Y-100125253D01*
X167037970Y-100112532D01*
X167028867Y-100066769D01*
X166996630Y-100018523D01*
X166984552Y-100000447D01*
X166918231Y-99956133D01*
X166859748Y-99944500D01*
X165820252Y-99944500D01*
X165791010Y-99950316D01*
X165761768Y-99956133D01*
X165695447Y-100000448D01*
X165683370Y-100018523D01*
X165650554Y-100049258D01*
X165607530Y-100062309D01*
X165563170Y-100054985D01*
X165511710Y-100033669D01*
X165368000Y-100014750D01*
X165224290Y-100033669D01*
X165090375Y-100089139D01*
X164975378Y-100177378D01*
X164887139Y-100292375D01*
X164831669Y-100426290D01*
X164812750Y-100569999D01*
X164831669Y-100713709D01*
X164867412Y-100800000D01*
X164887139Y-100847625D01*
X164914869Y-100883763D01*
X164975378Y-100962621D01*
X165016267Y-100993996D01*
X165090375Y-101050861D01*
X165172829Y-101085014D01*
X165224290Y-101106330D01*
X165241008Y-101108531D01*
X165368000Y-101125250D01*
X165511709Y-101106330D01*
X165563172Y-101085013D01*
X165607529Y-101077690D01*
X165650555Y-101090741D01*
X165683369Y-101121475D01*
X165695448Y-101139552D01*
X165761769Y-101183867D01*
X165820252Y-101195500D01*
X166618521Y-101195500D01*
X166673522Y-101212185D01*
X166709985Y-101256614D01*
X166715619Y-101313814D01*
X166688525Y-101364504D01*
X164044589Y-104008438D01*
X164031497Y-104017859D01*
X163995141Y-104057737D01*
X163991989Y-104061038D01*
X163978825Y-104074203D01*
X163978754Y-104074307D01*
X163970256Y-104085034D01*
X163951083Y-104106067D01*
X163947530Y-104115238D01*
X163936895Y-104135414D01*
X163931343Y-104143519D01*
X163924830Y-104171207D01*
X163920777Y-104184296D01*
X163910500Y-104210826D01*
X163910500Y-104220652D01*
X163907870Y-104243321D01*
X163905621Y-104252881D01*
X163909551Y-104281053D01*
X163910500Y-104294731D01*
X163910500Y-108845835D01*
X163907902Y-108861755D01*
X163910394Y-108915642D01*
X163910500Y-108920214D01*
X163910500Y-108938846D01*
X163910521Y-108938958D01*
X163912101Y-108952578D01*
X163913414Y-108980991D01*
X163917384Y-108989982D01*
X163924132Y-109011773D01*
X163925938Y-109021432D01*
X163940911Y-109045616D01*
X163947300Y-109057736D01*
X163958794Y-109083765D01*
X163958795Y-109083765D01*
X163958795Y-109083766D01*
X163965743Y-109090715D01*
X163979910Y-109108600D01*
X163985081Y-109116953D01*
X164007772Y-109134087D01*
X164018117Y-109143088D01*
X164049111Y-109174082D01*
X164076421Y-109225894D01*
X164069672Y-109284073D01*
X164042240Y-109346201D01*
X164039500Y-109369824D01*
X164039500Y-110110176D01*
X164042240Y-110133799D01*
X164084900Y-110230413D01*
X164084901Y-110230414D01*
X164084902Y-110230416D01*
X164159584Y-110305098D01*
X164159585Y-110305098D01*
X164159586Y-110305099D01*
X164256200Y-110347759D01*
X164279824Y-110350500D01*
X164279826Y-110350500D01*
X165340501Y-110350500D01*
X165390001Y-110363763D01*
X165426238Y-110400000D01*
X165439501Y-110449500D01*
X165439501Y-110530500D01*
X165426238Y-110580000D01*
X165390001Y-110616237D01*
X165340501Y-110629500D01*
X164279824Y-110629500D01*
X164256200Y-110632240D01*
X164159584Y-110674901D01*
X164071815Y-110762670D01*
X164071308Y-110762163D01*
X164051518Y-110785445D01*
X163997470Y-110801500D01*
X163843047Y-110801500D01*
X163788046Y-110784815D01*
X163751583Y-110740386D01*
X163745949Y-110683186D01*
X163773041Y-110632498D01*
X163775224Y-110630316D01*
X163825972Y-110521487D01*
X163832500Y-110471901D01*
X163832499Y-110112100D01*
X163832499Y-110112096D01*
X163825972Y-110062514D01*
X163824988Y-110060404D01*
X163775224Y-109953684D01*
X163690316Y-109868776D01*
X163690314Y-109868775D01*
X163690313Y-109868774D01*
X163581488Y-109818028D01*
X163531901Y-109811500D01*
X163112096Y-109811500D01*
X163062515Y-109818026D01*
X163032067Y-109832225D01*
X162990228Y-109841500D01*
X162759204Y-109841500D01*
X162721318Y-109833964D01*
X162703708Y-109826669D01*
X162560000Y-109807750D01*
X162416290Y-109826669D01*
X162282375Y-109882139D01*
X162167378Y-109970378D01*
X162079139Y-110085375D01*
X162023669Y-110219290D01*
X162005371Y-110358283D01*
X162004750Y-110363000D01*
X162005301Y-110367185D01*
X162023669Y-110506709D01*
X162068307Y-110614475D01*
X162079139Y-110640625D01*
X162160943Y-110747234D01*
X162179053Y-110786071D01*
X162179053Y-110828926D01*
X162160942Y-110867766D01*
X162079139Y-110974374D01*
X162023669Y-111108290D01*
X162004750Y-111251999D01*
X156075500Y-111251999D01*
X156075500Y-105357395D01*
X161455745Y-105357395D01*
X161465746Y-105567332D01*
X161515294Y-105771574D01*
X161602604Y-105962754D01*
X161724510Y-106133948D01*
X161724513Y-106133951D01*
X161724514Y-106133952D01*
X161786742Y-106193286D01*
X161876622Y-106278986D01*
X162053431Y-106392615D01*
X162248539Y-106470724D01*
X162248541Y-106470724D01*
X162248543Y-106470725D01*
X162454915Y-106510500D01*
X162612422Y-106510500D01*
X162612425Y-106510500D01*
X162769218Y-106495528D01*
X162970875Y-106436316D01*
X163157682Y-106340011D01*
X163322886Y-106210092D01*
X163335314Y-106195750D01*
X163388862Y-106133952D01*
X163460519Y-106051256D01*
X163565604Y-105869244D01*
X163634344Y-105670633D01*
X163664254Y-105462602D01*
X163654254Y-105252670D01*
X163629193Y-105149367D01*
X163604705Y-105048425D01*
X163517395Y-104857245D01*
X163395489Y-104686051D01*
X163243377Y-104541013D01*
X163066568Y-104427384D01*
X162871460Y-104349275D01*
X162716678Y-104319443D01*
X162665085Y-104309500D01*
X162507575Y-104309500D01*
X162413499Y-104318483D01*
X162350780Y-104324472D01*
X162149124Y-104383683D01*
X161962317Y-104479989D01*
X161797112Y-104609908D01*
X161659483Y-104768740D01*
X161554395Y-104950758D01*
X161485655Y-105149369D01*
X161455745Y-105357395D01*
X156075500Y-105357395D01*
X156075500Y-99264748D01*
X165639500Y-99264748D01*
X165643662Y-99285670D01*
X165651133Y-99323231D01*
X165695447Y-99389552D01*
X165716153Y-99403387D01*
X165761769Y-99433867D01*
X165820252Y-99445500D01*
X166859747Y-99445500D01*
X166859748Y-99445500D01*
X166918231Y-99433867D01*
X166984552Y-99389552D01*
X167028867Y-99323231D01*
X167040500Y-99264748D01*
X167040500Y-98585479D01*
X167048036Y-98547593D01*
X167069496Y-98515475D01*
X167423471Y-98161500D01*
X167806407Y-97778563D01*
X167819495Y-97769148D01*
X167824224Y-97763959D01*
X167824228Y-97763958D01*
X167855867Y-97729250D01*
X167858984Y-97725986D01*
X167872175Y-97712797D01*
X167872239Y-97712702D01*
X167880751Y-97701954D01*
X167899916Y-97680933D01*
X167903464Y-97671772D01*
X167914107Y-97651580D01*
X167919657Y-97643480D01*
X167926171Y-97615782D01*
X167930218Y-97602712D01*
X167940500Y-97576173D01*
X167940500Y-97566347D01*
X167943130Y-97543681D01*
X167945379Y-97534119D01*
X167941448Y-97505946D01*
X167940500Y-97492270D01*
X167940500Y-86795479D01*
X167948036Y-86757593D01*
X167969496Y-86725475D01*
X168710476Y-85984496D01*
X168742594Y-85963036D01*
X168780480Y-85955500D01*
X169459747Y-85955500D01*
X169459748Y-85955500D01*
X169518231Y-85943867D01*
X169584552Y-85899552D01*
X169628867Y-85833231D01*
X169640500Y-85774748D01*
X169640500Y-84885252D01*
X169634772Y-84856456D01*
X169637310Y-84829467D01*
X169621562Y-84815837D01*
X169606750Y-84793670D01*
X169584552Y-84760448D01*
X169577127Y-84755487D01*
X169518231Y-84716133D01*
X169518230Y-84716132D01*
X169459748Y-84704500D01*
X168420252Y-84704500D01*
X168413214Y-84705900D01*
X168361768Y-84716133D01*
X168295447Y-84760447D01*
X168251133Y-84826768D01*
X168251132Y-84826769D01*
X168251133Y-84826769D01*
X168240929Y-84878071D01*
X168239500Y-84885253D01*
X168239500Y-85564521D01*
X168231964Y-85602407D01*
X168210503Y-85634525D01*
X167473588Y-86371438D01*
X167460498Y-86380858D01*
X167424141Y-86420737D01*
X167420989Y-86424038D01*
X167407825Y-86437203D01*
X167407754Y-86437307D01*
X167399256Y-86448034D01*
X167380083Y-86469067D01*
X167376530Y-86478238D01*
X167365895Y-86498414D01*
X167360343Y-86506519D01*
X167353830Y-86534207D01*
X167349777Y-86547296D01*
X167339500Y-86573826D01*
X167339500Y-86583652D01*
X167336870Y-86606321D01*
X167334621Y-86615881D01*
X167338551Y-86644053D01*
X167339500Y-86657731D01*
X167339500Y-97354521D01*
X167331964Y-97392407D01*
X167310504Y-97424525D01*
X166569525Y-98165504D01*
X166537407Y-98186964D01*
X166499521Y-98194500D01*
X165820252Y-98194500D01*
X165791010Y-98200316D01*
X165761768Y-98206133D01*
X165695447Y-98250447D01*
X165651133Y-98316768D01*
X165651132Y-98316769D01*
X165651133Y-98316769D01*
X165639500Y-98375252D01*
X165639500Y-99264748D01*
X156075500Y-99264748D01*
X156075500Y-96519999D01*
X157394340Y-96519999D01*
X157414936Y-96755405D01*
X157476098Y-96983667D01*
X157575963Y-97197826D01*
X157680395Y-97346972D01*
X157711505Y-97391401D01*
X157878599Y-97558495D01*
X158072171Y-97694035D01*
X158072172Y-97694035D01*
X158072173Y-97694036D01*
X158286332Y-97793901D01*
X158286333Y-97793901D01*
X158286337Y-97793903D01*
X158514592Y-97855063D01*
X158585168Y-97861237D01*
X158691031Y-97870500D01*
X158691034Y-97870500D01*
X158808966Y-97870500D01*
X158808969Y-97870500D01*
X158906119Y-97862000D01*
X158985408Y-97855063D01*
X159213663Y-97793903D01*
X159427829Y-97694035D01*
X159621401Y-97558495D01*
X159788495Y-97391401D01*
X159924035Y-97197830D01*
X160023903Y-96983663D01*
X160085063Y-96755408D01*
X160105659Y-96520000D01*
X160104810Y-96510301D01*
X160090676Y-96348745D01*
X160085063Y-96284592D01*
X160027496Y-96069747D01*
X165039500Y-96069747D01*
X165051133Y-96128231D01*
X165095447Y-96194552D01*
X165139761Y-96224162D01*
X165161769Y-96238867D01*
X165220252Y-96250500D01*
X166259747Y-96250500D01*
X166259748Y-96250500D01*
X166318231Y-96238867D01*
X166384552Y-96194552D01*
X166428867Y-96128231D01*
X166440500Y-96069748D01*
X166440500Y-94330252D01*
X166428867Y-94271769D01*
X166387733Y-94210208D01*
X166384552Y-94205447D01*
X166315873Y-94159557D01*
X166285138Y-94126742D01*
X166272087Y-94083717D01*
X166279411Y-94039356D01*
X166288948Y-94016331D01*
X166307432Y-93971707D01*
X166326352Y-93827998D01*
X166307432Y-93684289D01*
X166251963Y-93550373D01*
X166196465Y-93478047D01*
X166163723Y-93435376D01*
X166086342Y-93376000D01*
X166048727Y-93347137D01*
X166009503Y-93330890D01*
X165914811Y-93291667D01*
X165771102Y-93272748D01*
X165627392Y-93291667D01*
X165493477Y-93347137D01*
X165378480Y-93435376D01*
X165290241Y-93550373D01*
X165234771Y-93684288D01*
X165215852Y-93827998D01*
X165234771Y-93971706D01*
X165255541Y-94021848D01*
X165261175Y-94079048D01*
X165234081Y-94129737D01*
X165183392Y-94156832D01*
X165161768Y-94161133D01*
X165095447Y-94205447D01*
X165051133Y-94271768D01*
X165039500Y-94330253D01*
X165039500Y-96069747D01*
X160027496Y-96069747D01*
X160023903Y-96056337D01*
X159924035Y-95842171D01*
X159788495Y-95648599D01*
X159621401Y-95481505D01*
X159599627Y-95466259D01*
X159475355Y-95379243D01*
X159427829Y-95345965D01*
X159427828Y-95345964D01*
X159427826Y-95345963D01*
X159213667Y-95246098D01*
X158985405Y-95184936D01*
X158808969Y-95169500D01*
X158808966Y-95169500D01*
X158691034Y-95169500D01*
X158691031Y-95169500D01*
X158514594Y-95184936D01*
X158286332Y-95246098D01*
X158072173Y-95345963D01*
X157878602Y-95481502D01*
X157711502Y-95648602D01*
X157575963Y-95842172D01*
X157476098Y-96056332D01*
X157414936Y-96284594D01*
X157394340Y-96519999D01*
X156075500Y-96519999D01*
X156075500Y-89769747D01*
X165039500Y-89769747D01*
X165051133Y-89828231D01*
X165095447Y-89894552D01*
X165139762Y-89924162D01*
X165161769Y-89938867D01*
X165183390Y-89943167D01*
X165234079Y-89970261D01*
X165261173Y-90020950D01*
X165255541Y-90078149D01*
X165234771Y-90128292D01*
X165215852Y-90272001D01*
X165234771Y-90415710D01*
X165261696Y-90480712D01*
X165290241Y-90549626D01*
X165326075Y-90596326D01*
X165378480Y-90664622D01*
X165428408Y-90702933D01*
X165493477Y-90752862D01*
X165588169Y-90792084D01*
X165627392Y-90808331D01*
X165644110Y-90810532D01*
X165771102Y-90827251D01*
X165914811Y-90808331D01*
X166048727Y-90752862D01*
X166163723Y-90664622D01*
X166251963Y-90549626D01*
X166307432Y-90415710D01*
X166326352Y-90272001D01*
X166307432Y-90128292D01*
X166279410Y-90060641D01*
X166272087Y-90016282D01*
X166285138Y-89973257D01*
X166315873Y-89940442D01*
X166318229Y-89938867D01*
X166318231Y-89938867D01*
X166384552Y-89894552D01*
X166428867Y-89828231D01*
X166440500Y-89769748D01*
X166440500Y-88030252D01*
X166428867Y-87971769D01*
X166414162Y-87949762D01*
X166384552Y-87905447D01*
X166318231Y-87861133D01*
X166259748Y-87849500D01*
X165220252Y-87849500D01*
X165191010Y-87855316D01*
X165161768Y-87861133D01*
X165095447Y-87905447D01*
X165051133Y-87971768D01*
X165039500Y-88030253D01*
X165039500Y-89769747D01*
X156075500Y-89769747D01*
X156075500Y-85330000D01*
X164812750Y-85330000D01*
X164831669Y-85473709D01*
X164867227Y-85559552D01*
X164887139Y-85607625D01*
X164924782Y-85656682D01*
X164975378Y-85722621D01*
X165025306Y-85760932D01*
X165090375Y-85810861D01*
X165178814Y-85847493D01*
X165224290Y-85866330D01*
X165241008Y-85868531D01*
X165368000Y-85885250D01*
X165511709Y-85866330D01*
X165563172Y-85845013D01*
X165607529Y-85837690D01*
X165650555Y-85850741D01*
X165683369Y-85881475D01*
X165695448Y-85899552D01*
X165761769Y-85943867D01*
X165820252Y-85955500D01*
X166859747Y-85955500D01*
X166859748Y-85955500D01*
X166918231Y-85943867D01*
X166984552Y-85899552D01*
X167028867Y-85833231D01*
X167040500Y-85774748D01*
X167040500Y-84885252D01*
X167028867Y-84826769D01*
X167006256Y-84792930D01*
X166984552Y-84760447D01*
X166918231Y-84716133D01*
X166918230Y-84716132D01*
X166859748Y-84704500D01*
X165820252Y-84704500D01*
X165813214Y-84705900D01*
X165761768Y-84716133D01*
X165695447Y-84760448D01*
X165683370Y-84778523D01*
X165650554Y-84809258D01*
X165607530Y-84822309D01*
X165563170Y-84814985D01*
X165511710Y-84793669D01*
X165368000Y-84774750D01*
X165224290Y-84793669D01*
X165090375Y-84849139D01*
X164975378Y-84937378D01*
X164887139Y-85052375D01*
X164831669Y-85186290D01*
X164812750Y-85330000D01*
X156075500Y-85330000D01*
X156075500Y-84024748D01*
X165639500Y-84024748D01*
X165643665Y-84045686D01*
X165651133Y-84083231D01*
X165695447Y-84149552D01*
X165714203Y-84162084D01*
X165761769Y-84193867D01*
X165820252Y-84205500D01*
X166859747Y-84205500D01*
X166859748Y-84205500D01*
X166918231Y-84193867D01*
X166984552Y-84149552D01*
X167028867Y-84083231D01*
X167040500Y-84024748D01*
X167040500Y-83999748D01*
X168239500Y-83999748D01*
X168251132Y-84058230D01*
X168251133Y-84058231D01*
X168295447Y-84124552D01*
X168332864Y-84149553D01*
X168361769Y-84168867D01*
X168420252Y-84180500D01*
X169459747Y-84180500D01*
X169459748Y-84180500D01*
X169518231Y-84168867D01*
X169584552Y-84124552D01*
X169627352Y-84060497D01*
X169662999Y-84028190D01*
X169709667Y-84016500D01*
X169785953Y-84016500D01*
X169840954Y-84033185D01*
X169877417Y-84077614D01*
X169883051Y-84134814D01*
X169855958Y-84185501D01*
X169853776Y-84187684D01*
X169853774Y-84187686D01*
X169803028Y-84296511D01*
X169796500Y-84346098D01*
X169796500Y-84705898D01*
X169802031Y-84747917D01*
X169798993Y-84769870D01*
X169821593Y-84795302D01*
X169853774Y-84864313D01*
X169853775Y-84864314D01*
X169853776Y-84864316D01*
X169938684Y-84949224D01*
X170047513Y-84999972D01*
X170097099Y-85006500D01*
X170516900Y-85006499D01*
X170516903Y-85006499D01*
X170566484Y-84999973D01*
X170566485Y-84999972D01*
X170566487Y-84999972D01*
X170596932Y-84985775D01*
X170638772Y-84976500D01*
X170869796Y-84976500D01*
X170907681Y-84984035D01*
X170925291Y-84991330D01*
X171069000Y-85010250D01*
X171212709Y-84991330D01*
X171346625Y-84935861D01*
X171461621Y-84847621D01*
X171549861Y-84732625D01*
X171605330Y-84598709D01*
X171624250Y-84455000D01*
X171605330Y-84311291D01*
X171575614Y-84239550D01*
X171549861Y-84177375D01*
X171468057Y-84070766D01*
X171449946Y-84031926D01*
X171449946Y-83989071D01*
X171468054Y-83950237D01*
X171549861Y-83843625D01*
X171605330Y-83709709D01*
X171624250Y-83566000D01*
X171605330Y-83422291D01*
X171602316Y-83415015D01*
X171571900Y-83341583D01*
X171549861Y-83288375D01*
X171472363Y-83187378D01*
X171461621Y-83173378D01*
X171395015Y-83122270D01*
X171346625Y-83085139D01*
X171297968Y-83064985D01*
X171212709Y-83029669D01*
X171069000Y-83010750D01*
X170925290Y-83029669D01*
X170791374Y-83085139D01*
X170778469Y-83095042D01*
X170750024Y-83110246D01*
X170718202Y-83115500D01*
X170638771Y-83115500D01*
X170596933Y-83106225D01*
X170566487Y-83092028D01*
X170516901Y-83085500D01*
X170097096Y-83085500D01*
X170047515Y-83092026D01*
X170017067Y-83106225D01*
X169975228Y-83115500D01*
X169722791Y-83115500D01*
X169679003Y-83105290D01*
X169644247Y-83076765D01*
X169640216Y-83067869D01*
X169639808Y-83068143D01*
X169584552Y-82985447D01*
X169518231Y-82941133D01*
X169488147Y-82935149D01*
X169459748Y-82929500D01*
X168420252Y-82929500D01*
X168391853Y-82935149D01*
X168361768Y-82941133D01*
X168295447Y-82985447D01*
X168251133Y-83051768D01*
X168247876Y-83068143D01*
X168239500Y-83110252D01*
X168239500Y-83999748D01*
X167040500Y-83999748D01*
X167040500Y-83345479D01*
X167048036Y-83307593D01*
X167069496Y-83275475D01*
X168481475Y-81863496D01*
X168513593Y-81842036D01*
X168551479Y-81834500D01*
X184448521Y-81834500D01*
X184486407Y-81842036D01*
X184518525Y-81863496D01*
X185930504Y-83275475D01*
X185951964Y-83307593D01*
X185959500Y-83345479D01*
X185959500Y-84024748D01*
X185964926Y-84052028D01*
X185965228Y-84053543D01*
X185962688Y-84080532D01*
X185978437Y-84094162D01*
X186015447Y-84149552D01*
X186034203Y-84162084D01*
X186081769Y-84193867D01*
X186140252Y-84205500D01*
X187179747Y-84205500D01*
X187179748Y-84205500D01*
X187238231Y-84193867D01*
X187304552Y-84149552D01*
X187348867Y-84083231D01*
X187360500Y-84024748D01*
X188559500Y-84024748D01*
X188563665Y-84045686D01*
X188571133Y-84083231D01*
X188615447Y-84149552D01*
X188634203Y-84162084D01*
X188681769Y-84193867D01*
X188740252Y-84205500D01*
X189779747Y-84205500D01*
X189779748Y-84205500D01*
X189838231Y-84193867D01*
X189904552Y-84149552D01*
X189916631Y-84131473D01*
X189949443Y-84100742D01*
X189992469Y-84087690D01*
X190036828Y-84095013D01*
X190088291Y-84116330D01*
X190232000Y-84135250D01*
X190375709Y-84116330D01*
X190509625Y-84060861D01*
X190624621Y-83972621D01*
X190712861Y-83857625D01*
X190768330Y-83723709D01*
X190787250Y-83580000D01*
X190769625Y-83446128D01*
X190768330Y-83436290D01*
X190747787Y-83386696D01*
X190712861Y-83302375D01*
X190662932Y-83237306D01*
X190624621Y-83187378D01*
X190556688Y-83135252D01*
X190509625Y-83099139D01*
X190467021Y-83081492D01*
X190375709Y-83043669D01*
X190232000Y-83024750D01*
X190088289Y-83043669D01*
X190036829Y-83064985D01*
X189992468Y-83072309D01*
X189949443Y-83059257D01*
X189916630Y-83028524D01*
X189904552Y-83010448D01*
X189838231Y-82966133D01*
X189779748Y-82954500D01*
X188740252Y-82954500D01*
X188711010Y-82960316D01*
X188681768Y-82966133D01*
X188615447Y-83010447D01*
X188571133Y-83076768D01*
X188567498Y-83095042D01*
X188559500Y-83135252D01*
X188559500Y-84024748D01*
X187360500Y-84024748D01*
X187360500Y-83135252D01*
X187348867Y-83076769D01*
X187317396Y-83029670D01*
X187304552Y-83010447D01*
X187238231Y-82966133D01*
X187238230Y-82966132D01*
X187179748Y-82954500D01*
X187179747Y-82954500D01*
X186500479Y-82954500D01*
X186462593Y-82946964D01*
X186430475Y-82925504D01*
X185790971Y-82286000D01*
X194016416Y-82286000D01*
X194036699Y-82491933D01*
X194096767Y-82689952D01*
X194096768Y-82689954D01*
X194194315Y-82872450D01*
X194325590Y-83032410D01*
X194485550Y-83163685D01*
X194668046Y-83261232D01*
X194757526Y-83288375D01*
X194866066Y-83321300D01*
X195071999Y-83341583D01*
X195071999Y-83341582D01*
X195072000Y-83341583D01*
X195277934Y-83321300D01*
X195475954Y-83261232D01*
X195658450Y-83163685D01*
X195818410Y-83032410D01*
X195949685Y-82872450D01*
X196047232Y-82689954D01*
X196107300Y-82491934D01*
X196127583Y-82286000D01*
X196107300Y-82080066D01*
X196047232Y-81882046D01*
X195949685Y-81699550D01*
X195818410Y-81539590D01*
X195658450Y-81408315D01*
X195475954Y-81310768D01*
X195475953Y-81310767D01*
X195475952Y-81310767D01*
X195277933Y-81250699D01*
X195072000Y-81230416D01*
X194866066Y-81250699D01*
X194668047Y-81310767D01*
X194485549Y-81408315D01*
X194325590Y-81539590D01*
X194194315Y-81699549D01*
X194096767Y-81882047D01*
X194036699Y-82080066D01*
X194016416Y-82286000D01*
X185790971Y-82286000D01*
X184872566Y-81367595D01*
X184863145Y-81354501D01*
X184823273Y-81318152D01*
X184819967Y-81314995D01*
X184806796Y-81301825D01*
X184806697Y-81301757D01*
X184795954Y-81293247D01*
X184791013Y-81288743D01*
X184774933Y-81274084D01*
X184765762Y-81270531D01*
X184745587Y-81259896D01*
X184737481Y-81254344D01*
X184709797Y-81247832D01*
X184696704Y-81243777D01*
X184670175Y-81233500D01*
X184670173Y-81233500D01*
X184660348Y-81233500D01*
X184637682Y-81230870D01*
X184628119Y-81228621D01*
X184628118Y-81228621D01*
X184599947Y-81232551D01*
X184586269Y-81233500D01*
X168451166Y-81233500D01*
X168435245Y-81230902D01*
X168381359Y-81233394D01*
X168376787Y-81233500D01*
X168358154Y-81233500D01*
X168358031Y-81233523D01*
X168344420Y-81235101D01*
X168316008Y-81236414D01*
X168307015Y-81240385D01*
X168285228Y-81247132D01*
X168275566Y-81248938D01*
X168251381Y-81263912D01*
X168239261Y-81270301D01*
X168213234Y-81281794D01*
X168206285Y-81288743D01*
X168188408Y-81302904D01*
X168180047Y-81308081D01*
X168162907Y-81330777D01*
X168153910Y-81341117D01*
X166569525Y-82925504D01*
X166537407Y-82946964D01*
X166499521Y-82954500D01*
X165820252Y-82954500D01*
X165791010Y-82960316D01*
X165761768Y-82966133D01*
X165695447Y-83010447D01*
X165651133Y-83076768D01*
X165647498Y-83095042D01*
X165639500Y-83135252D01*
X165639500Y-84024748D01*
X156075500Y-84024748D01*
X156075500Y-80012773D01*
X156075656Y-80007222D01*
X156079579Y-79937373D01*
X172779500Y-79937373D01*
X172794859Y-80063870D01*
X172794860Y-80063872D01*
X172855182Y-80222930D01*
X172951817Y-80362929D01*
X172951818Y-80362930D01*
X173079145Y-80475733D01*
X173157864Y-80517048D01*
X173229775Y-80554790D01*
X173312359Y-80575144D01*
X173394943Y-80595500D01*
X173394944Y-80595500D01*
X173565056Y-80595500D01*
X173565057Y-80595500D01*
X173620112Y-80581929D01*
X173730225Y-80554790D01*
X173880852Y-80475734D01*
X173880851Y-80475734D01*
X173880854Y-80475733D01*
X173944517Y-80419331D01*
X174008183Y-80362929D01*
X174104818Y-80222930D01*
X174165140Y-80063872D01*
X174180500Y-79937373D01*
X181419500Y-79937373D01*
X181434859Y-80063870D01*
X181434860Y-80063872D01*
X181495182Y-80222930D01*
X181591817Y-80362929D01*
X181591818Y-80362930D01*
X181719145Y-80475733D01*
X181797864Y-80517048D01*
X181869775Y-80554790D01*
X181952359Y-80575144D01*
X182034943Y-80595500D01*
X182034944Y-80595500D01*
X182205056Y-80595500D01*
X182205057Y-80595500D01*
X182260112Y-80581929D01*
X182370225Y-80554790D01*
X182520852Y-80475734D01*
X182520851Y-80475734D01*
X182520854Y-80475733D01*
X182584517Y-80419331D01*
X182648183Y-80362929D01*
X182744818Y-80222930D01*
X182805140Y-80063872D01*
X182820500Y-79937372D01*
X182820500Y-79252628D01*
X182805140Y-79126128D01*
X182744818Y-78967070D01*
X182648183Y-78827071D01*
X182648181Y-78827069D01*
X182520854Y-78714266D01*
X182370223Y-78635209D01*
X182205057Y-78594500D01*
X182205056Y-78594500D01*
X182034944Y-78594500D01*
X182034943Y-78594500D01*
X181869776Y-78635209D01*
X181719145Y-78714266D01*
X181591818Y-78827069D01*
X181495182Y-78967070D01*
X181434859Y-79126129D01*
X181419500Y-79252627D01*
X181419500Y-79937373D01*
X174180500Y-79937373D01*
X174180500Y-79937372D01*
X174180500Y-79252628D01*
X174165140Y-79126128D01*
X174104818Y-78967070D01*
X174008183Y-78827071D01*
X174008181Y-78827069D01*
X173880854Y-78714266D01*
X173730223Y-78635209D01*
X173565057Y-78594500D01*
X173565056Y-78594500D01*
X173394944Y-78594500D01*
X173394943Y-78594500D01*
X173229776Y-78635209D01*
X173079145Y-78714266D01*
X172951818Y-78827069D01*
X172855182Y-78967070D01*
X172794859Y-79126129D01*
X172779500Y-79252627D01*
X172779500Y-79937373D01*
X156079579Y-79937373D01*
X156079579Y-79937372D01*
X156092005Y-79716095D01*
X156093248Y-79705069D01*
X156141626Y-79420334D01*
X156144087Y-79409548D01*
X156224048Y-79131999D01*
X156227708Y-79121540D01*
X156338235Y-78854705D01*
X156343049Y-78844710D01*
X156352799Y-78827069D01*
X156482751Y-78591937D01*
X156488647Y-78582554D01*
X156655784Y-78346998D01*
X156662683Y-78338346D01*
X156855154Y-78122970D01*
X156862970Y-78115154D01*
X157078346Y-77922683D01*
X157086998Y-77915784D01*
X157322554Y-77748647D01*
X157331937Y-77742751D01*
X157584716Y-77603046D01*
X157594705Y-77598235D01*
X157861540Y-77487708D01*
X157871999Y-77484048D01*
X158149548Y-77404087D01*
X158160334Y-77401626D01*
X158445076Y-77353247D01*
X158456095Y-77352005D01*
X158747222Y-77335655D01*
X158752773Y-77335500D01*
X158815892Y-77335500D01*
X196784108Y-77335500D01*
X196847227Y-77335500D01*
X196852777Y-77335655D01*
G37*
%TD.AperFunction*%
%TD*%
M02*
