%TF.GenerationSoftware,KiCad,Pcbnew,7.0.1*%
%TF.CreationDate,2023-05-12T00:47:34+01:00*%
%TF.ProjectId,MoonPad,4d6f6f6e-5061-4642-9e6b-696361645f70,rev?*%
%TF.SameCoordinates,Original*%
%TF.FileFunction,Profile,NP*%
%FSLAX46Y46*%
G04 Gerber Fmt 4.6, Leading zero omitted, Abs format (unit mm)*
G04 Created by KiCad (PCBNEW 7.0.1) date 2023-05-12 00:47:34*
%MOMM*%
%LPD*%
G01*
G04 APERTURE LIST*
%TA.AperFunction,Profile*%
%ADD10C,0.100000*%
%TD*%
G04 APERTURE END LIST*
D10*
X196850000Y-117475000D02*
G75*
G03*
X200025000Y-114300000I0J3175000D01*
G01*
X155575000Y-80010000D02*
X155575000Y-114300000D01*
X158750000Y-117475000D02*
X196850000Y-117475000D01*
X155575000Y-114300000D02*
G75*
G03*
X158750000Y-117475000I3175000J0D01*
G01*
X196850000Y-76835000D02*
X158750000Y-76835000D01*
X158750000Y-76835000D02*
G75*
G03*
X155575000Y-80010000I0J-3175000D01*
G01*
X200025000Y-80010000D02*
G75*
G03*
X196850000Y-76835000I-3175000J0D01*
G01*
X200025000Y-80010000D02*
X200025000Y-114300000D01*
%TO.C,D4*%
X189659999Y-111192842D02*
X189659999Y-109787158D01*
X188754452Y-108990000D02*
X187165548Y-108990000D01*
X187165548Y-111989999D02*
X188754453Y-111989999D01*
X186260001Y-109787158D02*
X186260001Y-111192842D01*
X189660000Y-111192843D02*
G75*
G03*
X189709485Y-111409720I499989J-1D01*
G01*
X189006711Y-112058297D02*
G75*
G03*
X189709484Y-111409720I252258J431700D01*
G01*
X189709484Y-109570280D02*
G75*
G03*
X189659999Y-109787158I450505J-216876D01*
G01*
X189709484Y-109570281D02*
G75*
G03*
X189006711Y-108921702I-450515J216878D01*
G01*
X188754452Y-108989999D02*
G75*
G03*
X189006711Y-108921700I6J499981D01*
G01*
X189006711Y-112058298D02*
G75*
G03*
X188754453Y-111989999I-252261J-431710D01*
G01*
X186913290Y-108921701D02*
G75*
G03*
X187165548Y-108990000I252260J431711D01*
G01*
X187165547Y-111990001D02*
G75*
G03*
X186913290Y-112058300I3J-500009D01*
G01*
X186210518Y-111409721D02*
G75*
G03*
X186913289Y-112058298I450512J-216879D01*
G01*
X186210515Y-111409719D02*
G75*
G03*
X186260001Y-111192842I-450505J216879D01*
G01*
X186913289Y-108921703D02*
G75*
G03*
X186210516Y-109570280I-252258J-431700D01*
G01*
X186260001Y-109787157D02*
G75*
G03*
X186210516Y-109570280I-499301J157D01*
G01*
%TO.C,D1*%
X169339999Y-111192842D02*
X169339999Y-109787158D01*
X168434452Y-108990000D02*
X166845548Y-108990000D01*
X166845548Y-111989999D02*
X168434453Y-111989999D01*
X165940001Y-109787158D02*
X165940001Y-111192842D01*
X169340000Y-111192843D02*
G75*
G03*
X169389485Y-111409720I499989J-1D01*
G01*
X168686711Y-112058297D02*
G75*
G03*
X169389484Y-111409720I252258J431700D01*
G01*
X169389484Y-109570280D02*
G75*
G03*
X169339999Y-109787158I450505J-216876D01*
G01*
X169389484Y-109570281D02*
G75*
G03*
X168686711Y-108921702I-450515J216878D01*
G01*
X168434452Y-108989999D02*
G75*
G03*
X168686711Y-108921700I6J499981D01*
G01*
X168686711Y-112058298D02*
G75*
G03*
X168434453Y-111989999I-252261J-431710D01*
G01*
X166593290Y-108921701D02*
G75*
G03*
X166845548Y-108990000I252260J431711D01*
G01*
X166845547Y-111990001D02*
G75*
G03*
X166593290Y-112058300I3J-500009D01*
G01*
X165890518Y-111409721D02*
G75*
G03*
X166593289Y-112058298I450512J-216879D01*
G01*
X165890515Y-111409719D02*
G75*
G03*
X165940001Y-111192842I-450505J216879D01*
G01*
X166593289Y-108921703D02*
G75*
G03*
X165890516Y-109570280I-252258J-431700D01*
G01*
X165940001Y-109787157D02*
G75*
G03*
X165890516Y-109570280I-499301J157D01*
G01*
%TD*%
M02*
