%TF.GenerationSoftware,KiCad,Pcbnew,7.0.8*%
%TF.CreationDate,2023-10-17T23:27:51+01:00*%
%TF.ProjectId,MoonPad,4d6f6f6e-5061-4642-9e6b-696361645f70,rev?*%
%TF.SameCoordinates,Original*%
%TF.FileFunction,Copper,L4,Bot*%
%TF.FilePolarity,Positive*%
%FSLAX46Y46*%
G04 Gerber Fmt 4.6, Leading zero omitted, Abs format (unit mm)*
G04 Created by KiCad (PCBNEW 7.0.8) date 2023-10-17 23:27:51*
%MOMM*%
%LPD*%
G01*
G04 APERTURE LIST*
%TA.AperFunction,ComponentPad*%
%ADD10O,1.000000X2.100000*%
%TD*%
%TA.AperFunction,ComponentPad*%
%ADD11O,1.000000X1.600000*%
%TD*%
%TA.AperFunction,ComponentPad*%
%ADD12C,0.600000*%
%TD*%
%TA.AperFunction,ComponentPad*%
%ADD13R,1.700000X1.700000*%
%TD*%
%TA.AperFunction,ComponentPad*%
%ADD14O,1.700000X1.700000*%
%TD*%
%TA.AperFunction,ViaPad*%
%ADD15C,0.700000*%
%TD*%
%TA.AperFunction,ViaPad*%
%ADD16C,0.450000*%
%TD*%
%TA.AperFunction,Conductor*%
%ADD17C,0.200000*%
%TD*%
G04 APERTURE END LIST*
D10*
%TO.P,J3,S1,SHIELD*%
%TO.N,GND*%
X150370000Y-83775000D03*
D11*
X150370000Y-79595000D03*
D10*
X141730000Y-83775000D03*
D11*
X141730000Y-79595000D03*
%TD*%
D12*
%TO.P,U3,57,GND*%
%TO.N,GND*%
X144775000Y-100325000D03*
X144775000Y-101600000D03*
X144775000Y-102875000D03*
X146050000Y-100325000D03*
X146050000Y-101600000D03*
X146050000Y-102875000D03*
X147325000Y-100325000D03*
X147325000Y-101600000D03*
X147325000Y-102875000D03*
%TD*%
D13*
%TO.P,J1,1,Pin_1*%
%TO.N,GND*%
X163322000Y-89906000D03*
D14*
%TO.P,J1,2,Pin_2*%
%TO.N,+3V3*%
X163322000Y-87366000D03*
%TO.P,J1,3,Pin_3*%
%TO.N,/OLED_SCL*%
X163322000Y-84826000D03*
%TO.P,J1,4,Pin_4*%
%TO.N,/OLED_SDA*%
X163322000Y-82286000D03*
%TD*%
D15*
%TO.N,GND*%
X150672800Y-94640400D03*
X152654000Y-91694000D03*
X158496002Y-93979996D03*
X149606000Y-108077000D03*
X140716000Y-101600000D03*
X133731000Y-105410000D03*
X151384000Y-101628000D03*
X143383000Y-88517000D03*
X152340000Y-109740000D03*
X150361766Y-106639174D03*
X147701000Y-88517000D03*
X133618000Y-85330000D03*
X158482000Y-83580000D03*
X134021102Y-90272001D03*
X130810000Y-110363000D03*
X152654000Y-90678000D03*
X148463000Y-111633000D03*
X153670000Y-90678000D03*
X133618000Y-100570000D03*
X144653000Y-91948000D03*
X153670000Y-91694000D03*
X139446000Y-105283000D03*
X134021102Y-93827998D03*
X149656800Y-94640400D03*
X145669000Y-91948000D03*
X142621000Y-91948000D03*
X157510000Y-97947000D03*
X139319000Y-84455000D03*
X140462000Y-96870700D03*
X153543002Y-102362000D03*
X138490000Y-108894135D03*
X144542000Y-88016098D03*
X156921200Y-103174800D03*
X140490000Y-99921000D03*
X151260257Y-99821309D03*
X138463100Y-97075125D03*
X139920380Y-102731120D03*
X158810000Y-108894135D03*
X148640800Y-94640400D03*
X152781000Y-84455000D03*
X152654000Y-107061000D03*
X151040097Y-112014000D03*
X144554000Y-106426000D03*
X143637000Y-91948000D03*
X158369000Y-105410000D03*
X139319000Y-107188000D03*
D16*
%TO.N,+1V1*%
X145392072Y-95460376D03*
X147387960Y-99112040D03*
D15*
%TO.N,ADC_X*%
X150426900Y-99998100D03*
X140208000Y-103533000D03*
D16*
%TO.N,/OLED_SCL*%
X150495000Y-103505000D03*
%TO.N,/OLED_SDA*%
X151003000Y-104002018D03*
D15*
%TO.N,+5V*%
X139319000Y-83566000D03*
X158496000Y-91694000D03*
X151892000Y-112014000D03*
X146542000Y-87614000D03*
X158496000Y-94995996D03*
X153543001Y-99822001D03*
X139319000Y-98806000D03*
X158496000Y-92710000D03*
X152781000Y-85344000D03*
X130810000Y-111252000D03*
X158496001Y-90678000D03*
%TD*%
D17*
%TO.N,+1V1*%
X147387960Y-99112040D02*
X146356040Y-99112040D01*
X146356040Y-99112040D02*
X145846800Y-98602800D01*
X145846800Y-95915104D02*
X145392072Y-95460376D01*
X145846800Y-98602800D02*
X145846800Y-95915104D01*
%TO.N,ADC_X*%
X140208000Y-103533000D02*
X147482500Y-103533000D01*
X150426900Y-100588600D02*
X150426900Y-99998100D01*
X147482500Y-103533000D02*
X150426900Y-100588600D01*
%TO.N,/OLED_SCL*%
X150495000Y-103505000D02*
X150622000Y-103378000D01*
X164465000Y-93218000D02*
X164465000Y-85969000D01*
X150622000Y-103378000D02*
X154305000Y-103378000D01*
X164465000Y-85969000D02*
X163322000Y-84826000D01*
X154305000Y-103378000D02*
X164465000Y-93218000D01*
%TO.N,/OLED_SDA*%
X164846000Y-93345000D02*
X164846000Y-83810000D01*
X154432000Y-103759000D02*
X164846000Y-93345000D01*
X164846000Y-83810000D02*
X163322000Y-82286000D01*
X151003000Y-104002018D02*
X151246018Y-103759000D01*
X151246018Y-103759000D02*
X154432000Y-103759000D01*
%TD*%
%TA.AperFunction,Conductor*%
%TO.N,+5V*%
G36*
X165101385Y-77335577D02*
G01*
X165396688Y-77352161D01*
X165402175Y-77352780D01*
X165692402Y-77402091D01*
X165697785Y-77403319D01*
X165980662Y-77484815D01*
X165985897Y-77486647D01*
X166111584Y-77538708D01*
X166257853Y-77599295D01*
X166262853Y-77601702D01*
X166520492Y-77744094D01*
X166525185Y-77747043D01*
X166765259Y-77917385D01*
X166769588Y-77920837D01*
X166989088Y-78116994D01*
X166993005Y-78120911D01*
X167189160Y-78340409D01*
X167192619Y-78344747D01*
X167362954Y-78584811D01*
X167365908Y-78589511D01*
X167434857Y-78714266D01*
X167508294Y-78847141D01*
X167510704Y-78852146D01*
X167623350Y-79124096D01*
X167625185Y-79129340D01*
X167706676Y-79412198D01*
X167707910Y-79417610D01*
X167757217Y-79707808D01*
X167757838Y-79713328D01*
X167774422Y-80008608D01*
X167774500Y-80011384D01*
X167774500Y-114298615D01*
X167774422Y-114301391D01*
X167757838Y-114596671D01*
X167757217Y-114602191D01*
X167707912Y-114892384D01*
X167706676Y-114897801D01*
X167625185Y-115180659D01*
X167623350Y-115185903D01*
X167510704Y-115457853D01*
X167508294Y-115462858D01*
X167365910Y-115720484D01*
X167362954Y-115725188D01*
X167192619Y-115965252D01*
X167189156Y-115969595D01*
X166993011Y-116189082D01*
X166989082Y-116193011D01*
X166769595Y-116389156D01*
X166765252Y-116392619D01*
X166525188Y-116562954D01*
X166520484Y-116565910D01*
X166262858Y-116708294D01*
X166257853Y-116710704D01*
X165985903Y-116823350D01*
X165980659Y-116825185D01*
X165697801Y-116906676D01*
X165692385Y-116907911D01*
X165559990Y-116930406D01*
X165402191Y-116957217D01*
X165396671Y-116957838D01*
X165144812Y-116971983D01*
X165101385Y-116974422D01*
X165098616Y-116974500D01*
X127001384Y-116974500D01*
X126998614Y-116974422D01*
X126953030Y-116971862D01*
X126703328Y-116957838D01*
X126697808Y-116957217D01*
X126407610Y-116907910D01*
X126402201Y-116906676D01*
X126317271Y-116882208D01*
X126119340Y-116825185D01*
X126114096Y-116823350D01*
X125842146Y-116710704D01*
X125837141Y-116708294D01*
X125579515Y-116565910D01*
X125574811Y-116562954D01*
X125334747Y-116392619D01*
X125330409Y-116389160D01*
X125110911Y-116193005D01*
X125106994Y-116189088D01*
X124910837Y-115969588D01*
X124907385Y-115965259D01*
X124737043Y-115725185D01*
X124734094Y-115720492D01*
X124591702Y-115462853D01*
X124589295Y-115457853D01*
X124539855Y-115338495D01*
X124476647Y-115185897D01*
X124474814Y-115180659D01*
X124472147Y-115171401D01*
X124393319Y-114897785D01*
X124392091Y-114892402D01*
X124342780Y-114602175D01*
X124342161Y-114596688D01*
X124325577Y-114301386D01*
X124325539Y-114300004D01*
X125644341Y-114300004D01*
X125664935Y-114535400D01*
X125726098Y-114763667D01*
X125825959Y-114977818D01*
X125825963Y-114977826D01*
X125825964Y-114977828D01*
X125825965Y-114977829D01*
X125961505Y-115171401D01*
X126128599Y-115338495D01*
X126322171Y-115474035D01*
X126322172Y-115474035D01*
X126322173Y-115474036D01*
X126322181Y-115474040D01*
X126536333Y-115573901D01*
X126536337Y-115573903D01*
X126764592Y-115635063D01*
X126764596Y-115635063D01*
X126764599Y-115635064D01*
X126941028Y-115650500D01*
X126941034Y-115650500D01*
X127058972Y-115650500D01*
X127235400Y-115635064D01*
X127235401Y-115635063D01*
X127235408Y-115635063D01*
X127463663Y-115573903D01*
X127677829Y-115474035D01*
X127871401Y-115338495D01*
X128038495Y-115171401D01*
X128174035Y-114977830D01*
X128273903Y-114763663D01*
X128335063Y-114535408D01*
X128339861Y-114480566D01*
X128355659Y-114300004D01*
X163744341Y-114300004D01*
X163764935Y-114535400D01*
X163826098Y-114763667D01*
X163925959Y-114977818D01*
X163925963Y-114977826D01*
X163925964Y-114977828D01*
X163925965Y-114977829D01*
X164061505Y-115171401D01*
X164228599Y-115338495D01*
X164422171Y-115474035D01*
X164422172Y-115474035D01*
X164422173Y-115474036D01*
X164422181Y-115474040D01*
X164636333Y-115573901D01*
X164636337Y-115573903D01*
X164864592Y-115635063D01*
X164864596Y-115635063D01*
X164864599Y-115635064D01*
X165041028Y-115650500D01*
X165041034Y-115650500D01*
X165158972Y-115650500D01*
X165335400Y-115635064D01*
X165335401Y-115635063D01*
X165335408Y-115635063D01*
X165563663Y-115573903D01*
X165777829Y-115474035D01*
X165971401Y-115338495D01*
X166138495Y-115171401D01*
X166274035Y-114977830D01*
X166373903Y-114763663D01*
X166435063Y-114535408D01*
X166439861Y-114480566D01*
X166455659Y-114300004D01*
X166455659Y-114299995D01*
X166435064Y-114064599D01*
X166435063Y-114064596D01*
X166435063Y-114064592D01*
X166373903Y-113836337D01*
X166274035Y-113622171D01*
X166138495Y-113428599D01*
X165971401Y-113261505D01*
X165971397Y-113261502D01*
X165971396Y-113261501D01*
X165777826Y-113125963D01*
X165777818Y-113125959D01*
X165563666Y-113026098D01*
X165563667Y-113026098D01*
X165487578Y-113005710D01*
X165335408Y-112964937D01*
X165335407Y-112964936D01*
X165335400Y-112964935D01*
X165158972Y-112949500D01*
X165158966Y-112949500D01*
X165041034Y-112949500D01*
X165041028Y-112949500D01*
X164864599Y-112964935D01*
X164636332Y-113026098D01*
X164422181Y-113125959D01*
X164422173Y-113125963D01*
X164228603Y-113261501D01*
X164061501Y-113428603D01*
X163925964Y-113622171D01*
X163826097Y-113836337D01*
X163764935Y-114064599D01*
X163744341Y-114299995D01*
X163744341Y-114300004D01*
X128355659Y-114300004D01*
X128355659Y-114299995D01*
X128335064Y-114064599D01*
X128335063Y-114064596D01*
X128335063Y-114064592D01*
X128273903Y-113836337D01*
X128174035Y-113622171D01*
X128038495Y-113428599D01*
X127871401Y-113261505D01*
X127871397Y-113261502D01*
X127871396Y-113261501D01*
X127677826Y-113125963D01*
X127677818Y-113125959D01*
X127463666Y-113026098D01*
X127463667Y-113026098D01*
X127387578Y-113005710D01*
X127235408Y-112964937D01*
X127235407Y-112964936D01*
X127235400Y-112964935D01*
X127058972Y-112949500D01*
X127058966Y-112949500D01*
X126941034Y-112949500D01*
X126941028Y-112949500D01*
X126764599Y-112964935D01*
X126536332Y-113026098D01*
X126322181Y-113125959D01*
X126322173Y-113125963D01*
X126128603Y-113261501D01*
X125961501Y-113428603D01*
X125825964Y-113622171D01*
X125726097Y-113836337D01*
X125664935Y-114064599D01*
X125644341Y-114299995D01*
X125644341Y-114300004D01*
X124325539Y-114300004D01*
X124325500Y-114298615D01*
X124325500Y-111633005D01*
X133586463Y-111633005D01*
X133604219Y-111814744D01*
X133604221Y-111814753D01*
X133654577Y-111990257D01*
X133654580Y-111990264D01*
X133735882Y-112153769D01*
X133845438Y-112299855D01*
X133845441Y-112299857D01*
X133845443Y-112299860D01*
X133979625Y-112423692D01*
X133979627Y-112423693D01*
X133979630Y-112423696D01*
X134134023Y-112521198D01*
X134303515Y-112589142D01*
X134303518Y-112589142D01*
X134303519Y-112589143D01*
X134338284Y-112596162D01*
X134482506Y-112625281D01*
X134644795Y-112628073D01*
X134665081Y-112628422D01*
X134665081Y-112628421D01*
X134665082Y-112628422D01*
X134845210Y-112598460D01*
X135016938Y-112536386D01*
X135035551Y-112525538D01*
X135036616Y-112525008D01*
X135038867Y-112523692D01*
X135038870Y-112523692D01*
X135072536Y-112504022D01*
X135122486Y-112490502D01*
X135161392Y-112490506D01*
X135161393Y-112490505D01*
X135164567Y-112490506D01*
X135164682Y-112490499D01*
X136615276Y-112490499D01*
X136615374Y-112490505D01*
X136618606Y-112490504D01*
X136618608Y-112490505D01*
X136657510Y-112490501D01*
X136707459Y-112504019D01*
X136736863Y-112521198D01*
X136743145Y-112524868D01*
X136744740Y-112525663D01*
X136757725Y-112533229D01*
X136763078Y-112536349D01*
X136801757Y-112550330D01*
X136934788Y-112598416D01*
X136934791Y-112598416D01*
X136934800Y-112598420D01*
X137114921Y-112628381D01*
X137297489Y-112625240D01*
X137476473Y-112589103D01*
X137645958Y-112521162D01*
X137800345Y-112423664D01*
X137859983Y-112368625D01*
X137934526Y-112299833D01*
X137934529Y-112299830D01*
X137934529Y-112299829D01*
X137934531Y-112299828D01*
X138044083Y-112153748D01*
X138125382Y-111990250D01*
X138175741Y-111814736D01*
X138193496Y-111633006D01*
X138193495Y-111633000D01*
X147907750Y-111633000D01*
X147926669Y-111776708D01*
X147926670Y-111776709D01*
X147982139Y-111910625D01*
X148070379Y-112025621D01*
X148185375Y-112113861D01*
X148319291Y-112169330D01*
X148463000Y-112188250D01*
X148606709Y-112169330D01*
X148740625Y-112113861D01*
X148855621Y-112025621D01*
X148864538Y-112014000D01*
X150484847Y-112014000D01*
X150503766Y-112157708D01*
X150503767Y-112157709D01*
X150508580Y-112169330D01*
X150559236Y-112291625D01*
X150647476Y-112406621D01*
X150762472Y-112494861D01*
X150896388Y-112550330D01*
X151040097Y-112569250D01*
X151183806Y-112550330D01*
X151317722Y-112494861D01*
X151432718Y-112406621D01*
X151520958Y-112291625D01*
X151576427Y-112157709D01*
X151595347Y-112014000D01*
X151576427Y-111870291D01*
X151520958Y-111736375D01*
X151441639Y-111633005D01*
X153906463Y-111633005D01*
X153924219Y-111814744D01*
X153924221Y-111814753D01*
X153974577Y-111990257D01*
X153974580Y-111990264D01*
X154055882Y-112153769D01*
X154165438Y-112299855D01*
X154165441Y-112299857D01*
X154165443Y-112299860D01*
X154299625Y-112423692D01*
X154299627Y-112423693D01*
X154299630Y-112423696D01*
X154454023Y-112521198D01*
X154623515Y-112589142D01*
X154623518Y-112589142D01*
X154623519Y-112589143D01*
X154658284Y-112596162D01*
X154802506Y-112625281D01*
X154964795Y-112628073D01*
X154985081Y-112628422D01*
X154985081Y-112628421D01*
X154985082Y-112628422D01*
X155165210Y-112598460D01*
X155336938Y-112536386D01*
X155355551Y-112525538D01*
X155356616Y-112525008D01*
X155358867Y-112523692D01*
X155358870Y-112523692D01*
X155392536Y-112504022D01*
X155442486Y-112490502D01*
X155481392Y-112490506D01*
X155481393Y-112490505D01*
X155484567Y-112490506D01*
X155484682Y-112490499D01*
X156935276Y-112490499D01*
X156935374Y-112490505D01*
X156938606Y-112490504D01*
X156938608Y-112490505D01*
X156977510Y-112490501D01*
X157027459Y-112504019D01*
X157056863Y-112521198D01*
X157063145Y-112524868D01*
X157064740Y-112525663D01*
X157077725Y-112533229D01*
X157083078Y-112536349D01*
X157121757Y-112550330D01*
X157254788Y-112598416D01*
X157254791Y-112598416D01*
X157254800Y-112598420D01*
X157434921Y-112628381D01*
X157617489Y-112625240D01*
X157796473Y-112589103D01*
X157965958Y-112521162D01*
X158120345Y-112423664D01*
X158179983Y-112368625D01*
X158254526Y-112299833D01*
X158254529Y-112299830D01*
X158254529Y-112299829D01*
X158254531Y-112299828D01*
X158364083Y-112153748D01*
X158445382Y-111990250D01*
X158495741Y-111814736D01*
X158513496Y-111633006D01*
X158498060Y-111451064D01*
X158449944Y-111274922D01*
X158440618Y-111255489D01*
X158440071Y-111254131D01*
X158427795Y-111228641D01*
X158420305Y-111213089D01*
X158410501Y-111170123D01*
X158410507Y-111127008D01*
X158410506Y-111127006D01*
X158410507Y-111123831D01*
X158410499Y-111123700D01*
X158410499Y-109809890D01*
X158420245Y-109767057D01*
X158424106Y-109759011D01*
X158428331Y-109750234D01*
X158439019Y-109728040D01*
X158439019Y-109728035D01*
X158440231Y-109725520D01*
X158440508Y-109724832D01*
X158440657Y-109724522D01*
X158449981Y-109705094D01*
X158498100Y-109528945D01*
X158500436Y-109501410D01*
X158524194Y-109445029D01*
X158576558Y-109413378D01*
X158636964Y-109418317D01*
X158666291Y-109430465D01*
X158810000Y-109449385D01*
X158953709Y-109430465D01*
X159087625Y-109374996D01*
X159202621Y-109286756D01*
X159290861Y-109171760D01*
X159346330Y-109037844D01*
X159365250Y-108894135D01*
X159346330Y-108750426D01*
X159290861Y-108616510D01*
X159202621Y-108501514D01*
X159087625Y-108413274D01*
X159087621Y-108413272D01*
X158953709Y-108357805D01*
X158953708Y-108357804D01*
X158810000Y-108338885D01*
X158666291Y-108357804D01*
X158666290Y-108357805D01*
X158532378Y-108413272D01*
X158532374Y-108413274D01*
X158417381Y-108501512D01*
X158417373Y-108501520D01*
X158335639Y-108608037D01*
X158285215Y-108642692D01*
X158224050Y-108641090D01*
X158189957Y-108620523D01*
X158120368Y-108556302D01*
X157965984Y-108458805D01*
X157965980Y-108458803D01*
X157965978Y-108458802D01*
X157796486Y-108390858D01*
X157796485Y-108390857D01*
X157796481Y-108390856D01*
X157617495Y-108354719D01*
X157617486Y-108354718D01*
X157434919Y-108351577D01*
X157254795Y-108381539D01*
X157254792Y-108381539D01*
X157254790Y-108381540D01*
X157254788Y-108381540D01*
X157254778Y-108381543D01*
X157083062Y-108443613D01*
X157064458Y-108454453D01*
X157063384Y-108454990D01*
X157027462Y-108475977D01*
X156977513Y-108489496D01*
X156935434Y-108489492D01*
X156935318Y-108489500D01*
X155442493Y-108489500D01*
X155392538Y-108475972D01*
X155357058Y-108455235D01*
X155355264Y-108454340D01*
X155336923Y-108443652D01*
X155336917Y-108443649D01*
X155165212Y-108381583D01*
X155165197Y-108381579D01*
X154985076Y-108351618D01*
X154802520Y-108354759D01*
X154802511Y-108354760D01*
X154623531Y-108390896D01*
X154623529Y-108390896D01*
X154623528Y-108390897D01*
X154454122Y-108458805D01*
X154454035Y-108458840D01*
X154299658Y-108556333D01*
X154165468Y-108680171D01*
X154165466Y-108680174D01*
X154055920Y-108826247D01*
X154055918Y-108826249D01*
X154055917Y-108826252D01*
X154022163Y-108894134D01*
X153974618Y-108989749D01*
X153974615Y-108989756D01*
X153924261Y-109165253D01*
X153924259Y-109165262D01*
X153906504Y-109346995D01*
X153921939Y-109528935D01*
X153970056Y-109705079D01*
X153979387Y-109724522D01*
X153979896Y-109725787D01*
X153980981Y-109728040D01*
X153999699Y-109766915D01*
X154009501Y-109809863D01*
X154009501Y-111170109D01*
X153999756Y-111212939D01*
X153996030Y-111220704D01*
X153992209Y-111228641D01*
X153979762Y-111254490D01*
X153979483Y-111255181D01*
X153970020Y-111274902D01*
X153970018Y-111274908D01*
X153921901Y-111451050D01*
X153921900Y-111451053D01*
X153921900Y-111451056D01*
X153917155Y-111506985D01*
X153906463Y-111633005D01*
X151441639Y-111633005D01*
X151432718Y-111621379D01*
X151317722Y-111533139D01*
X151317718Y-111533137D01*
X151183806Y-111477670D01*
X151183805Y-111477669D01*
X151040097Y-111458750D01*
X150896388Y-111477669D01*
X150896387Y-111477670D01*
X150762475Y-111533137D01*
X150762471Y-111533139D01*
X150647478Y-111621377D01*
X150647474Y-111621381D01*
X150559236Y-111736374D01*
X150559234Y-111736378D01*
X150503767Y-111870290D01*
X150503766Y-111870291D01*
X150484847Y-112013999D01*
X150484847Y-112014000D01*
X148864538Y-112014000D01*
X148943861Y-111910625D01*
X148999330Y-111776709D01*
X149018250Y-111633000D01*
X148999330Y-111489291D01*
X148943861Y-111355375D01*
X148855621Y-111240379D01*
X148740625Y-111152139D01*
X148740621Y-111152137D01*
X148606709Y-111096670D01*
X148606708Y-111096669D01*
X148463000Y-111077750D01*
X148319291Y-111096669D01*
X148319290Y-111096670D01*
X148185378Y-111152137D01*
X148185374Y-111152139D01*
X148070381Y-111240377D01*
X148070377Y-111240381D01*
X147982139Y-111355374D01*
X147982137Y-111355378D01*
X147926670Y-111489290D01*
X147926669Y-111489291D01*
X147907750Y-111632999D01*
X147907750Y-111633000D01*
X138193495Y-111633000D01*
X138178060Y-111451064D01*
X138129944Y-111274922D01*
X138120618Y-111255489D01*
X138120071Y-111254131D01*
X138107795Y-111228641D01*
X138100305Y-111213089D01*
X138090501Y-111170123D01*
X138090507Y-111127008D01*
X138090506Y-111127006D01*
X138090507Y-111123831D01*
X138090499Y-111123700D01*
X138090499Y-109809890D01*
X138100245Y-109767057D01*
X138104106Y-109759011D01*
X138108331Y-109750234D01*
X138113259Y-109740000D01*
X151784750Y-109740000D01*
X151803669Y-109883708D01*
X151803670Y-109883709D01*
X151839568Y-109970377D01*
X151859139Y-110017625D01*
X151947379Y-110132621D01*
X152062375Y-110220861D01*
X152196291Y-110276330D01*
X152340000Y-110295250D01*
X152483709Y-110276330D01*
X152617625Y-110220861D01*
X152732621Y-110132621D01*
X152820861Y-110017625D01*
X152876330Y-109883709D01*
X152895250Y-109740000D01*
X152893675Y-109728040D01*
X152876330Y-109596291D01*
X152820861Y-109462375D01*
X152732621Y-109347379D01*
X152617625Y-109259139D01*
X152617621Y-109259137D01*
X152483709Y-109203670D01*
X152483708Y-109203669D01*
X152340000Y-109184750D01*
X152196291Y-109203669D01*
X152196290Y-109203670D01*
X152062378Y-109259137D01*
X152062374Y-109259139D01*
X151947381Y-109347377D01*
X151947377Y-109347381D01*
X151859139Y-109462374D01*
X151859137Y-109462378D01*
X151803670Y-109596290D01*
X151803669Y-109596291D01*
X151784750Y-109739999D01*
X151784750Y-109740000D01*
X138113259Y-109740000D01*
X138119019Y-109728040D01*
X138119019Y-109728035D01*
X138120231Y-109725520D01*
X138120508Y-109724832D01*
X138120657Y-109724522D01*
X138129981Y-109705094D01*
X138178100Y-109528945D01*
X138180436Y-109501410D01*
X138204194Y-109445029D01*
X138256558Y-109413378D01*
X138316964Y-109418317D01*
X138346291Y-109430465D01*
X138490000Y-109449385D01*
X138633709Y-109430465D01*
X138767625Y-109374996D01*
X138882621Y-109286756D01*
X138970861Y-109171760D01*
X139026330Y-109037844D01*
X139045250Y-108894135D01*
X139026330Y-108750426D01*
X138970861Y-108616510D01*
X138882621Y-108501514D01*
X138767625Y-108413274D01*
X138767621Y-108413272D01*
X138633709Y-108357805D01*
X138633708Y-108357804D01*
X138490000Y-108338885D01*
X138346291Y-108357804D01*
X138346290Y-108357805D01*
X138212378Y-108413272D01*
X138212374Y-108413274D01*
X138097381Y-108501512D01*
X138097373Y-108501520D01*
X138015639Y-108608037D01*
X137965215Y-108642692D01*
X137904050Y-108641090D01*
X137869957Y-108620523D01*
X137800368Y-108556302D01*
X137645984Y-108458805D01*
X137645980Y-108458803D01*
X137645978Y-108458802D01*
X137476486Y-108390858D01*
X137476485Y-108390857D01*
X137476481Y-108390856D01*
X137297495Y-108354719D01*
X137297486Y-108354718D01*
X137114919Y-108351577D01*
X136934795Y-108381539D01*
X136934792Y-108381539D01*
X136934790Y-108381540D01*
X136934788Y-108381540D01*
X136934778Y-108381543D01*
X136763062Y-108443613D01*
X136744458Y-108454453D01*
X136743384Y-108454990D01*
X136707462Y-108475977D01*
X136657513Y-108489496D01*
X136615434Y-108489492D01*
X136615318Y-108489500D01*
X135122493Y-108489500D01*
X135072538Y-108475972D01*
X135037058Y-108455235D01*
X135035264Y-108454340D01*
X135016923Y-108443652D01*
X135016917Y-108443649D01*
X134845212Y-108381583D01*
X134845197Y-108381579D01*
X134665076Y-108351618D01*
X134482520Y-108354759D01*
X134482511Y-108354760D01*
X134303531Y-108390896D01*
X134303529Y-108390896D01*
X134303528Y-108390897D01*
X134134122Y-108458805D01*
X134134035Y-108458840D01*
X133979658Y-108556333D01*
X133845468Y-108680171D01*
X133845466Y-108680174D01*
X133735920Y-108826247D01*
X133735918Y-108826249D01*
X133735917Y-108826252D01*
X133702163Y-108894134D01*
X133654618Y-108989749D01*
X133654615Y-108989756D01*
X133604261Y-109165253D01*
X133604259Y-109165262D01*
X133586504Y-109346995D01*
X133601939Y-109528935D01*
X133650056Y-109705079D01*
X133659387Y-109724522D01*
X133659896Y-109725787D01*
X133660981Y-109728040D01*
X133679699Y-109766915D01*
X133689501Y-109809863D01*
X133689501Y-111170109D01*
X133679756Y-111212939D01*
X133676030Y-111220704D01*
X133672209Y-111228641D01*
X133659762Y-111254490D01*
X133659483Y-111255181D01*
X133650020Y-111274902D01*
X133650018Y-111274908D01*
X133601901Y-111451050D01*
X133601900Y-111451053D01*
X133601900Y-111451056D01*
X133597155Y-111506985D01*
X133586463Y-111633005D01*
X124325500Y-111633005D01*
X124325500Y-110363000D01*
X130254750Y-110363000D01*
X130273669Y-110506708D01*
X130273670Y-110506709D01*
X130329139Y-110640625D01*
X130417379Y-110755621D01*
X130532375Y-110843861D01*
X130666291Y-110899330D01*
X130810000Y-110918250D01*
X130953709Y-110899330D01*
X131087625Y-110843861D01*
X131202621Y-110755621D01*
X131290861Y-110640625D01*
X131346330Y-110506709D01*
X131365250Y-110363000D01*
X131353839Y-110276330D01*
X131346330Y-110219291D01*
X131290861Y-110085375D01*
X131202621Y-109970379D01*
X131087625Y-109882139D01*
X131087621Y-109882137D01*
X130953709Y-109826670D01*
X130953708Y-109826669D01*
X130810000Y-109807750D01*
X130666291Y-109826669D01*
X130666290Y-109826670D01*
X130532378Y-109882137D01*
X130532374Y-109882139D01*
X130417381Y-109970377D01*
X130417377Y-109970381D01*
X130329139Y-110085374D01*
X130329137Y-110085378D01*
X130273670Y-110219290D01*
X130273669Y-110219291D01*
X130254750Y-110362999D01*
X130254750Y-110363000D01*
X124325500Y-110363000D01*
X124325500Y-108077000D01*
X149050750Y-108077000D01*
X149069669Y-108220708D01*
X149069670Y-108220709D01*
X149125139Y-108354625D01*
X149213379Y-108469621D01*
X149328375Y-108557861D01*
X149462291Y-108613330D01*
X149606000Y-108632250D01*
X149749709Y-108613330D01*
X149883625Y-108557861D01*
X149998621Y-108469621D01*
X150086861Y-108354625D01*
X150142330Y-108220709D01*
X150161250Y-108077000D01*
X150142330Y-107933291D01*
X150086861Y-107799375D01*
X149998621Y-107684379D01*
X149883625Y-107596139D01*
X149883621Y-107596137D01*
X149749709Y-107540670D01*
X149749708Y-107540669D01*
X149606000Y-107521750D01*
X149462291Y-107540669D01*
X149462290Y-107540670D01*
X149328378Y-107596137D01*
X149328374Y-107596139D01*
X149213381Y-107684377D01*
X149213377Y-107684381D01*
X149125139Y-107799374D01*
X149125137Y-107799378D01*
X149069670Y-107933290D01*
X149069669Y-107933291D01*
X149050750Y-108076999D01*
X149050750Y-108077000D01*
X124325500Y-108077000D01*
X124325500Y-105357400D01*
X129705746Y-105357400D01*
X129715746Y-105567330D01*
X129715747Y-105567337D01*
X129765295Y-105771573D01*
X129765300Y-105771586D01*
X129852602Y-105962751D01*
X129852604Y-105962754D01*
X129974511Y-106133949D01*
X129974513Y-106133951D01*
X129974514Y-106133952D01*
X130126622Y-106278986D01*
X130303428Y-106392613D01*
X130498543Y-106470725D01*
X130704915Y-106510500D01*
X130704918Y-106510500D01*
X130862425Y-106510500D01*
X131019218Y-106495528D01*
X131220875Y-106436316D01*
X131407682Y-106340011D01*
X131572886Y-106210092D01*
X131710519Y-106051256D01*
X131815604Y-105869244D01*
X131884344Y-105670633D01*
X131914254Y-105462602D01*
X131911748Y-105410000D01*
X133175750Y-105410000D01*
X133194669Y-105553708D01*
X133194670Y-105553709D01*
X133245165Y-105675618D01*
X133250139Y-105687625D01*
X133338379Y-105802621D01*
X133453375Y-105890861D01*
X133587291Y-105946330D01*
X133731000Y-105965250D01*
X133731001Y-105965250D01*
X133734313Y-105964813D01*
X133746074Y-105963265D01*
X133806235Y-105974412D01*
X133848354Y-106018792D01*
X133858000Y-106061417D01*
X133858000Y-106680000D01*
X134366000Y-107188000D01*
X134366001Y-107188000D01*
X137413999Y-107188000D01*
X137414000Y-107188000D01*
X138763750Y-107188000D01*
X138782669Y-107331708D01*
X138782670Y-107331709D01*
X138833165Y-107453618D01*
X138838139Y-107465625D01*
X138926379Y-107580621D01*
X139041375Y-107668861D01*
X139175291Y-107724330D01*
X139319000Y-107743250D01*
X139462709Y-107724330D01*
X139596625Y-107668861D01*
X139711621Y-107580621D01*
X139799861Y-107465625D01*
X139855330Y-107331709D01*
X139874250Y-107188000D01*
X139855330Y-107044291D01*
X139799861Y-106910375D01*
X139711621Y-106795379D01*
X139596625Y-106707139D01*
X139596621Y-106707137D01*
X139462709Y-106651670D01*
X139462708Y-106651669D01*
X139319000Y-106632750D01*
X139175291Y-106651669D01*
X139175290Y-106651670D01*
X139041378Y-106707137D01*
X139041374Y-106707139D01*
X138926381Y-106795377D01*
X138926377Y-106795381D01*
X138838139Y-106910374D01*
X138838137Y-106910378D01*
X138782670Y-107044290D01*
X138782669Y-107044291D01*
X138763750Y-107187999D01*
X138763750Y-107188000D01*
X137414000Y-107188000D01*
X137922000Y-106680000D01*
X137922000Y-105283000D01*
X138890750Y-105283000D01*
X138909669Y-105426708D01*
X138909670Y-105426709D01*
X138965139Y-105560625D01*
X139053379Y-105675621D01*
X139168375Y-105763861D01*
X139302291Y-105819330D01*
X139446000Y-105838250D01*
X139589709Y-105819330D01*
X139723625Y-105763861D01*
X139771946Y-105726783D01*
X139829622Y-105706358D01*
X139888287Y-105723735D01*
X139922128Y-105767837D01*
X139923336Y-105767286D01*
X139970587Y-105870750D01*
X140012604Y-105962753D01*
X140012605Y-105962754D01*
X140012604Y-105962754D01*
X140134511Y-106133949D01*
X140134513Y-106133951D01*
X140134514Y-106133952D01*
X140286622Y-106278986D01*
X140463428Y-106392613D01*
X140658543Y-106470725D01*
X140864915Y-106510500D01*
X140864918Y-106510500D01*
X141022425Y-106510500D01*
X141179218Y-106495528D01*
X141380875Y-106436316D01*
X141400885Y-106426000D01*
X143998750Y-106426000D01*
X144017669Y-106569708D01*
X144017670Y-106569709D01*
X144058540Y-106668381D01*
X144073139Y-106703625D01*
X144161379Y-106818621D01*
X144276375Y-106906861D01*
X144410291Y-106962330D01*
X144554000Y-106981250D01*
X144697709Y-106962330D01*
X144831625Y-106906861D01*
X144946621Y-106818621D01*
X145034861Y-106703625D01*
X145061557Y-106639174D01*
X149806516Y-106639174D01*
X149825435Y-106782882D01*
X149825436Y-106782883D01*
X149878243Y-106910374D01*
X149880905Y-106916799D01*
X149969145Y-107031795D01*
X150084141Y-107120035D01*
X150218057Y-107175504D01*
X150361766Y-107194424D01*
X150505475Y-107175504D01*
X150639391Y-107120035D01*
X150716327Y-107061000D01*
X152098750Y-107061000D01*
X152117669Y-107204708D01*
X152117670Y-107204709D01*
X152173139Y-107338625D01*
X152261379Y-107453621D01*
X152376375Y-107541861D01*
X152510291Y-107597330D01*
X152654000Y-107616250D01*
X152797709Y-107597330D01*
X152931625Y-107541861D01*
X153046621Y-107453621D01*
X153134861Y-107338625D01*
X153190330Y-107204709D01*
X153209250Y-107061000D01*
X153196259Y-106962329D01*
X153190330Y-106917291D01*
X153134861Y-106783375D01*
X153046621Y-106668379D01*
X152931625Y-106580139D01*
X152931621Y-106580137D01*
X152797709Y-106524670D01*
X152797708Y-106524669D01*
X152654000Y-106505750D01*
X152510291Y-106524669D01*
X152510290Y-106524670D01*
X152376378Y-106580137D01*
X152376374Y-106580139D01*
X152261381Y-106668377D01*
X152261377Y-106668381D01*
X152173139Y-106783374D01*
X152173137Y-106783378D01*
X152117670Y-106917290D01*
X152117669Y-106917291D01*
X152098750Y-107060999D01*
X152098750Y-107061000D01*
X150716327Y-107061000D01*
X150754387Y-107031795D01*
X150842627Y-106916799D01*
X150898096Y-106782883D01*
X150917016Y-106639174D01*
X150914718Y-106621721D01*
X150925867Y-106561562D01*
X150970249Y-106519444D01*
X151020199Y-106510619D01*
X151020199Y-106510500D01*
X151020877Y-106510500D01*
X151022298Y-106510249D01*
X151024908Y-106510498D01*
X151024915Y-106510500D01*
X151024922Y-106510500D01*
X151182425Y-106510500D01*
X151339218Y-106495528D01*
X151540875Y-106436316D01*
X151727682Y-106340011D01*
X151892886Y-106210092D01*
X152030519Y-106051256D01*
X152135604Y-105869244D01*
X152204344Y-105670633D01*
X152234254Y-105462602D01*
X152224254Y-105252670D01*
X152174704Y-105048424D01*
X152160525Y-105017377D01*
X152087397Y-104857248D01*
X152087395Y-104857245D01*
X151965488Y-104686050D01*
X151885631Y-104609907D01*
X151813378Y-104541014D01*
X151636572Y-104427387D01*
X151636569Y-104427386D01*
X151636568Y-104427385D01*
X151482879Y-104365858D01*
X151441457Y-104349275D01*
X151441456Y-104349274D01*
X151441454Y-104349274D01*
X151436933Y-104347947D01*
X151437562Y-104345804D01*
X151391569Y-104320382D01*
X151365645Y-104264960D01*
X151375683Y-104207832D01*
X151412717Y-104135148D01*
X151412718Y-104135145D01*
X151412719Y-104135144D01*
X151412719Y-104135139D01*
X151415070Y-104127908D01*
X151451034Y-104078408D01*
X151509224Y-104059500D01*
X154079000Y-104059500D01*
X154137191Y-104078407D01*
X154173155Y-104127907D01*
X154178000Y-104158500D01*
X154178000Y-106680000D01*
X154686000Y-107188000D01*
X154686001Y-107188000D01*
X157733999Y-107188000D01*
X157734000Y-107188000D01*
X158242000Y-106680000D01*
X158242000Y-106061417D01*
X158260907Y-106003226D01*
X158310407Y-105967262D01*
X158353924Y-105963265D01*
X158365686Y-105964813D01*
X158368999Y-105965250D01*
X158369000Y-105965250D01*
X158512709Y-105946330D01*
X158646625Y-105890861D01*
X158761621Y-105802621D01*
X158849861Y-105687625D01*
X158905330Y-105553709D01*
X158924250Y-105410000D01*
X158917325Y-105357400D01*
X160185746Y-105357400D01*
X160195746Y-105567330D01*
X160195747Y-105567337D01*
X160245295Y-105771573D01*
X160245300Y-105771586D01*
X160332602Y-105962751D01*
X160332604Y-105962754D01*
X160454511Y-106133949D01*
X160454513Y-106133951D01*
X160454514Y-106133952D01*
X160606622Y-106278986D01*
X160783428Y-106392613D01*
X160978543Y-106470725D01*
X161184915Y-106510500D01*
X161184918Y-106510500D01*
X161342425Y-106510500D01*
X161499218Y-106495528D01*
X161700875Y-106436316D01*
X161887682Y-106340011D01*
X162052886Y-106210092D01*
X162190519Y-106051256D01*
X162295604Y-105869244D01*
X162364344Y-105670633D01*
X162394254Y-105462602D01*
X162384254Y-105252670D01*
X162334704Y-105048424D01*
X162320525Y-105017377D01*
X162247397Y-104857248D01*
X162247395Y-104857245D01*
X162125488Y-104686050D01*
X162045631Y-104609907D01*
X161973378Y-104541014D01*
X161796572Y-104427387D01*
X161796569Y-104427386D01*
X161796568Y-104427385D01*
X161687409Y-104383685D01*
X161601457Y-104349275D01*
X161395085Y-104309500D01*
X161237575Y-104309500D01*
X161080781Y-104324472D01*
X160879120Y-104383685D01*
X160692320Y-104479987D01*
X160692317Y-104479989D01*
X160527113Y-104609907D01*
X160389480Y-104768744D01*
X160284397Y-104950753D01*
X160284394Y-104950760D01*
X160215657Y-105149362D01*
X160215655Y-105149368D01*
X160185746Y-105357393D01*
X160185746Y-105357400D01*
X158917325Y-105357400D01*
X158905330Y-105266291D01*
X158849861Y-105132375D01*
X158761621Y-105017379D01*
X158646625Y-104929139D01*
X158646621Y-104929137D01*
X158512709Y-104873670D01*
X158512708Y-104873669D01*
X158369000Y-104854750D01*
X158368999Y-104854750D01*
X158353922Y-104856735D01*
X158293761Y-104845585D01*
X158251644Y-104801203D01*
X158242000Y-104758582D01*
X158242000Y-104140001D01*
X158242000Y-104140000D01*
X157734000Y-103632000D01*
X157733999Y-103632000D01*
X157465021Y-103632000D01*
X157406830Y-103613093D01*
X157370866Y-103563593D01*
X157370866Y-103502407D01*
X157386479Y-103472733D01*
X157402057Y-103452430D01*
X157402056Y-103452430D01*
X157402061Y-103452425D01*
X157457530Y-103318509D01*
X157476450Y-103174800D01*
X157469727Y-103123738D01*
X157457530Y-103031091D01*
X157402061Y-102897175D01*
X157313821Y-102782179D01*
X157198825Y-102693939D01*
X157198821Y-102693937D01*
X157064909Y-102638470D01*
X157064908Y-102638469D01*
X156921200Y-102619550D01*
X156777491Y-102638469D01*
X156777490Y-102638470D01*
X156643578Y-102693937D01*
X156643574Y-102693939D01*
X156528581Y-102782177D01*
X156528577Y-102782181D01*
X156440339Y-102897174D01*
X156440337Y-102897178D01*
X156384870Y-103031090D01*
X156384869Y-103031091D01*
X156365950Y-103174799D01*
X156365950Y-103174800D01*
X156384869Y-103318508D01*
X156384870Y-103318509D01*
X156440337Y-103452421D01*
X156440342Y-103452430D01*
X156455921Y-103472733D01*
X156476345Y-103530409D01*
X156458967Y-103589075D01*
X156410425Y-103626322D01*
X156377379Y-103632000D01*
X155222979Y-103632000D01*
X155164788Y-103613093D01*
X155128824Y-103563593D01*
X155128824Y-103502407D01*
X155152975Y-103462996D01*
X157571221Y-101044750D01*
X162095966Y-96520004D01*
X163744341Y-96520004D01*
X163764935Y-96755400D01*
X163826098Y-96983667D01*
X163925959Y-97197818D01*
X163925963Y-97197826D01*
X164034438Y-97352746D01*
X164061505Y-97391401D01*
X164228599Y-97558495D01*
X164422171Y-97694035D01*
X164422172Y-97694035D01*
X164422173Y-97694036D01*
X164422181Y-97694040D01*
X164636333Y-97793901D01*
X164636337Y-97793903D01*
X164864592Y-97855063D01*
X164864596Y-97855063D01*
X164864599Y-97855064D01*
X165041028Y-97870500D01*
X165041034Y-97870500D01*
X165158972Y-97870500D01*
X165335400Y-97855064D01*
X165335401Y-97855063D01*
X165335408Y-97855063D01*
X165563663Y-97793903D01*
X165777829Y-97694035D01*
X165971401Y-97558495D01*
X166138495Y-97391401D01*
X166274035Y-97197830D01*
X166373903Y-96983663D01*
X166435063Y-96755408D01*
X166435064Y-96755400D01*
X166455659Y-96520004D01*
X166455659Y-96519995D01*
X166435064Y-96284599D01*
X166435063Y-96284596D01*
X166435063Y-96284592D01*
X166373903Y-96056337D01*
X166338435Y-95980276D01*
X166274040Y-95842181D01*
X166274036Y-95842173D01*
X166254530Y-95814316D01*
X166138495Y-95648599D01*
X165971401Y-95481505D01*
X165971397Y-95481502D01*
X165971396Y-95481501D01*
X165777826Y-95345963D01*
X165777818Y-95345959D01*
X165563666Y-95246098D01*
X165563667Y-95246098D01*
X165375390Y-95195650D01*
X165335408Y-95184937D01*
X165335407Y-95184936D01*
X165335400Y-95184935D01*
X165158972Y-95169500D01*
X165158966Y-95169500D01*
X165041034Y-95169500D01*
X165041028Y-95169500D01*
X164864599Y-95184935D01*
X164636332Y-95246098D01*
X164422181Y-95345959D01*
X164422173Y-95345963D01*
X164228603Y-95481501D01*
X164061501Y-95648603D01*
X163925964Y-95842171D01*
X163826097Y-96056337D01*
X163764935Y-96284599D01*
X163744341Y-96519995D01*
X163744341Y-96520004D01*
X162095966Y-96520004D01*
X165012405Y-93603564D01*
X165023664Y-93595493D01*
X165022905Y-93594487D01*
X165030221Y-93588961D01*
X165030228Y-93588958D01*
X165062632Y-93553411D01*
X165064186Y-93551783D01*
X165078174Y-93537797D01*
X165080181Y-93534865D01*
X165084440Y-93529490D01*
X165105916Y-93505933D01*
X165109465Y-93496770D01*
X165120106Y-93476582D01*
X165125656Y-93468481D01*
X165132955Y-93437443D01*
X165134977Y-93430914D01*
X165146500Y-93401173D01*
X165146500Y-93391348D01*
X165149129Y-93368683D01*
X165151379Y-93359119D01*
X165146975Y-93327546D01*
X165146500Y-93320699D01*
X165146500Y-83875168D01*
X165148731Y-83861495D01*
X165147505Y-83861324D01*
X165148773Y-83852232D01*
X165146553Y-83804215D01*
X165146500Y-83801928D01*
X165146500Y-83782160D01*
X165146500Y-83782156D01*
X165145846Y-83778664D01*
X165145056Y-83771859D01*
X165143585Y-83740008D01*
X165139614Y-83731016D01*
X165132864Y-83709214D01*
X165131061Y-83699568D01*
X165131061Y-83699567D01*
X165114276Y-83672458D01*
X165111088Y-83666410D01*
X165098206Y-83637234D01*
X165098205Y-83637233D01*
X165098204Y-83637231D01*
X165091254Y-83630281D01*
X165077088Y-83612395D01*
X165071921Y-83604050D01*
X165071919Y-83604048D01*
X165046487Y-83584842D01*
X165041310Y-83580337D01*
X164298187Y-82837215D01*
X164270410Y-82782698D01*
X164279981Y-82722266D01*
X164280856Y-82720589D01*
X164297232Y-82689954D01*
X164357300Y-82491934D01*
X164357301Y-82491929D01*
X164377583Y-82286003D01*
X164377583Y-82285996D01*
X164357301Y-82080070D01*
X164357300Y-82080065D01*
X164339078Y-82019997D01*
X164297232Y-81882046D01*
X164199685Y-81699550D01*
X164068410Y-81539590D01*
X164068404Y-81539585D01*
X163908452Y-81408316D01*
X163725954Y-81310768D01*
X163527934Y-81250699D01*
X163527929Y-81250698D01*
X163322003Y-81230417D01*
X163321997Y-81230417D01*
X163116070Y-81250698D01*
X163116065Y-81250699D01*
X162918045Y-81310768D01*
X162735547Y-81408316D01*
X162575595Y-81539585D01*
X162575585Y-81539595D01*
X162444316Y-81699547D01*
X162346768Y-81882045D01*
X162286699Y-82080065D01*
X162286698Y-82080070D01*
X162266417Y-82285996D01*
X162266417Y-82286003D01*
X162286698Y-82491929D01*
X162286699Y-82491934D01*
X162346768Y-82689954D01*
X162444316Y-82872452D01*
X162511870Y-82954767D01*
X162575590Y-83032410D01*
X162575595Y-83032414D01*
X162735547Y-83163683D01*
X162735548Y-83163683D01*
X162735550Y-83163685D01*
X162918046Y-83261232D01*
X163053675Y-83302374D01*
X163116065Y-83321300D01*
X163116070Y-83321301D01*
X163321997Y-83341583D01*
X163322000Y-83341583D01*
X163322003Y-83341583D01*
X163527929Y-83321301D01*
X163527934Y-83321300D01*
X163725954Y-83261232D01*
X163756542Y-83244881D01*
X163816775Y-83234124D01*
X163871826Y-83260825D01*
X163873216Y-83262187D01*
X164516504Y-83905475D01*
X164544281Y-83959992D01*
X164545500Y-83975479D01*
X164545500Y-84573074D01*
X164526593Y-84631265D01*
X164477093Y-84667229D01*
X164415907Y-84667229D01*
X164366407Y-84631265D01*
X164351763Y-84601812D01*
X164319020Y-84493872D01*
X164297232Y-84422046D01*
X164199685Y-84239550D01*
X164068410Y-84079590D01*
X163939917Y-83974139D01*
X163908452Y-83948316D01*
X163725954Y-83850768D01*
X163527934Y-83790699D01*
X163527929Y-83790698D01*
X163322003Y-83770417D01*
X163321997Y-83770417D01*
X163116070Y-83790698D01*
X163116065Y-83790699D01*
X162918045Y-83850768D01*
X162735547Y-83948316D01*
X162575595Y-84079585D01*
X162575585Y-84079595D01*
X162444316Y-84239547D01*
X162346768Y-84422045D01*
X162286699Y-84620065D01*
X162286698Y-84620070D01*
X162266417Y-84825996D01*
X162266417Y-84826003D01*
X162286698Y-85031929D01*
X162286699Y-85031934D01*
X162346768Y-85229954D01*
X162444316Y-85412452D01*
X162575585Y-85572404D01*
X162575590Y-85572410D01*
X162575595Y-85572414D01*
X162735547Y-85703683D01*
X162735548Y-85703683D01*
X162735550Y-85703685D01*
X162918046Y-85801232D01*
X163055997Y-85843078D01*
X163116065Y-85861300D01*
X163116070Y-85861301D01*
X163321997Y-85881583D01*
X163322000Y-85881583D01*
X163322003Y-85881583D01*
X163527929Y-85861301D01*
X163527934Y-85861300D01*
X163725954Y-85801232D01*
X163756542Y-85784881D01*
X163816775Y-85774124D01*
X163871826Y-85800825D01*
X163873216Y-85802187D01*
X164135504Y-86064475D01*
X164163281Y-86118992D01*
X164164500Y-86134479D01*
X164164500Y-86489131D01*
X164145593Y-86547322D01*
X164096093Y-86583286D01*
X164034907Y-86583286D01*
X164002695Y-86565659D01*
X163908452Y-86488317D01*
X163908452Y-86488316D01*
X163725954Y-86390768D01*
X163527934Y-86330699D01*
X163527929Y-86330698D01*
X163322003Y-86310417D01*
X163321997Y-86310417D01*
X163116070Y-86330698D01*
X163116065Y-86330699D01*
X162918045Y-86390768D01*
X162735547Y-86488316D01*
X162575595Y-86619585D01*
X162575585Y-86619595D01*
X162444316Y-86779547D01*
X162346768Y-86962045D01*
X162286699Y-87160065D01*
X162286698Y-87160070D01*
X162266417Y-87365996D01*
X162266417Y-87366003D01*
X162286698Y-87571929D01*
X162286699Y-87571934D01*
X162346768Y-87769954D01*
X162444316Y-87952452D01*
X162512996Y-88036139D01*
X162575590Y-88112410D01*
X162575595Y-88112414D01*
X162735547Y-88243683D01*
X162735548Y-88243683D01*
X162735550Y-88243685D01*
X162918046Y-88341232D01*
X163023732Y-88373291D01*
X163116065Y-88401300D01*
X163116070Y-88401301D01*
X163321997Y-88421583D01*
X163322000Y-88421583D01*
X163322003Y-88421583D01*
X163527929Y-88401301D01*
X163527934Y-88401300D01*
X163725954Y-88341232D01*
X163908450Y-88243685D01*
X164002696Y-88166339D01*
X164059672Y-88144040D01*
X164118875Y-88159488D01*
X164157690Y-88206785D01*
X164164500Y-88242868D01*
X164164500Y-88756500D01*
X164145593Y-88814691D01*
X164096093Y-88850655D01*
X164065500Y-88855500D01*
X162452252Y-88855500D01*
X162452251Y-88855500D01*
X162452241Y-88855501D01*
X162393772Y-88867132D01*
X162393766Y-88867134D01*
X162327451Y-88911445D01*
X162327445Y-88911451D01*
X162283134Y-88977766D01*
X162283132Y-88977772D01*
X162271501Y-89036241D01*
X162271500Y-89036253D01*
X162271500Y-90775746D01*
X162271501Y-90775758D01*
X162283132Y-90834227D01*
X162283134Y-90834233D01*
X162327445Y-90900548D01*
X162327448Y-90900552D01*
X162393769Y-90944867D01*
X162438231Y-90953711D01*
X162452241Y-90956498D01*
X162452246Y-90956498D01*
X162452252Y-90956500D01*
X164065500Y-90956500D01*
X164123691Y-90975407D01*
X164159655Y-91024907D01*
X164164500Y-91055500D01*
X164164500Y-93052521D01*
X164145593Y-93110712D01*
X164135504Y-93122525D01*
X154209525Y-103048504D01*
X154155008Y-103076281D01*
X154139521Y-103077500D01*
X153751862Y-103077500D01*
X153693671Y-103058593D01*
X153657707Y-103009093D01*
X153657707Y-102947907D01*
X153693671Y-102898407D01*
X153713975Y-102887036D01*
X153820627Y-102842861D01*
X153935623Y-102754621D01*
X154023863Y-102639625D01*
X154079332Y-102505709D01*
X154098252Y-102362000D01*
X154083540Y-102250257D01*
X154079332Y-102218291D01*
X154023863Y-102084375D01*
X153935623Y-101969379D01*
X153820627Y-101881139D01*
X153820623Y-101881137D01*
X153686711Y-101825670D01*
X153686710Y-101825669D01*
X153543002Y-101806750D01*
X153399293Y-101825669D01*
X153399292Y-101825670D01*
X153265380Y-101881137D01*
X153265376Y-101881139D01*
X153150383Y-101969377D01*
X153150379Y-101969381D01*
X153062141Y-102084374D01*
X153062139Y-102084378D01*
X153006672Y-102218290D01*
X153006671Y-102218291D01*
X152987752Y-102361999D01*
X152987752Y-102362000D01*
X153006671Y-102505708D01*
X153006672Y-102505709D01*
X153062083Y-102639487D01*
X153062141Y-102639625D01*
X153150381Y-102754621D01*
X153265377Y-102842861D01*
X153372027Y-102887036D01*
X153418553Y-102926772D01*
X153432837Y-102986267D01*
X153409423Y-103042795D01*
X153357254Y-103074764D01*
X153334142Y-103077500D01*
X150687164Y-103077500D01*
X150673488Y-103075267D01*
X150673317Y-103076494D01*
X150664233Y-103075226D01*
X150623886Y-103077092D01*
X150616206Y-103077447D01*
X150613930Y-103077500D01*
X150594153Y-103077500D01*
X150590658Y-103078153D01*
X150583844Y-103078943D01*
X150548358Y-103080583D01*
X150528300Y-103079470D01*
X150495001Y-103074196D01*
X150495000Y-103074196D01*
X150361872Y-103095281D01*
X150361870Y-103095282D01*
X150241782Y-103156470D01*
X150146470Y-103251782D01*
X150085282Y-103371870D01*
X150085281Y-103371872D01*
X150064196Y-103504999D01*
X150064196Y-103505000D01*
X150085281Y-103638127D01*
X150085282Y-103638129D01*
X150146470Y-103758217D01*
X150146472Y-103758220D01*
X150241780Y-103853528D01*
X150361874Y-103914719D01*
X150492383Y-103935389D01*
X150546898Y-103963166D01*
X150574676Y-104017682D01*
X150593281Y-104135145D01*
X150593282Y-104135147D01*
X150605181Y-104158500D01*
X150654472Y-104255238D01*
X150665347Y-104266113D01*
X150693123Y-104320628D01*
X150683552Y-104381060D01*
X150640707Y-104424109D01*
X150532325Y-104479984D01*
X150532317Y-104479989D01*
X150367113Y-104609907D01*
X150229480Y-104768744D01*
X150124397Y-104950753D01*
X150124394Y-104950760D01*
X150055657Y-105149362D01*
X150055655Y-105149368D01*
X150025746Y-105357393D01*
X150025746Y-105357400D01*
X150035746Y-105567330D01*
X150035747Y-105567337D01*
X150085295Y-105771573D01*
X150085300Y-105771586D01*
X150172602Y-105962751D01*
X150172604Y-105962754D01*
X150187857Y-105984173D01*
X150206210Y-106042541D01*
X150186749Y-106100550D01*
X150145100Y-106133063D01*
X150084141Y-106158312D01*
X150084140Y-106158313D01*
X149969147Y-106246551D01*
X149969143Y-106246555D01*
X149880905Y-106361548D01*
X149880903Y-106361552D01*
X149825436Y-106495464D01*
X149825435Y-106495465D01*
X149806516Y-106639173D01*
X149806516Y-106639174D01*
X145061557Y-106639174D01*
X145090330Y-106569709D01*
X145109250Y-106426000D01*
X145104854Y-106392613D01*
X145090330Y-106282291D01*
X145034861Y-106148375D01*
X144946621Y-106033379D01*
X144831625Y-105945139D01*
X144831621Y-105945137D01*
X144697709Y-105889670D01*
X144697708Y-105889669D01*
X144554000Y-105870750D01*
X144410291Y-105889669D01*
X144410290Y-105889670D01*
X144276378Y-105945137D01*
X144276374Y-105945139D01*
X144161381Y-106033377D01*
X144161377Y-106033381D01*
X144073139Y-106148374D01*
X144073137Y-106148378D01*
X144017670Y-106282290D01*
X144017669Y-106282291D01*
X143998750Y-106425999D01*
X143998750Y-106426000D01*
X141400885Y-106426000D01*
X141567682Y-106340011D01*
X141732886Y-106210092D01*
X141870519Y-106051256D01*
X141975604Y-105869244D01*
X142044344Y-105670633D01*
X142074254Y-105462602D01*
X142064254Y-105252670D01*
X142014704Y-105048424D01*
X142000525Y-105017377D01*
X141927397Y-104857248D01*
X141927395Y-104857245D01*
X141805488Y-104686050D01*
X141725631Y-104609907D01*
X141653378Y-104541014D01*
X141476572Y-104427387D01*
X141476569Y-104427386D01*
X141476568Y-104427385D01*
X141367409Y-104383685D01*
X141281457Y-104349275D01*
X141075085Y-104309500D01*
X140917575Y-104309500D01*
X140760781Y-104324472D01*
X140559120Y-104383685D01*
X140372320Y-104479987D01*
X140372317Y-104479989D01*
X140207113Y-104609907D01*
X140069482Y-104768742D01*
X140004366Y-104881525D01*
X139958896Y-104922465D01*
X139898046Y-104928860D01*
X139845058Y-104898267D01*
X139840093Y-104892298D01*
X139838621Y-104890379D01*
X139723625Y-104802139D01*
X139723621Y-104802137D01*
X139589709Y-104746670D01*
X139589708Y-104746669D01*
X139446000Y-104727750D01*
X139302291Y-104746669D01*
X139302290Y-104746670D01*
X139168378Y-104802137D01*
X139168374Y-104802139D01*
X139053381Y-104890377D01*
X139053377Y-104890381D01*
X138965139Y-105005374D01*
X138965137Y-105005378D01*
X138909670Y-105139290D01*
X138909669Y-105139291D01*
X138890750Y-105282999D01*
X138890750Y-105283000D01*
X137922000Y-105283000D01*
X137922000Y-104140000D01*
X137414000Y-103632000D01*
X134366000Y-103632000D01*
X133858000Y-104140000D01*
X133858000Y-104140001D01*
X133858000Y-104758582D01*
X133839093Y-104816773D01*
X133789593Y-104852737D01*
X133746078Y-104856735D01*
X133731001Y-104854750D01*
X133731000Y-104854750D01*
X133587291Y-104873669D01*
X133587290Y-104873670D01*
X133453378Y-104929137D01*
X133453374Y-104929139D01*
X133338381Y-105017377D01*
X133338377Y-105017381D01*
X133250139Y-105132374D01*
X133250137Y-105132378D01*
X133194670Y-105266290D01*
X133194669Y-105266291D01*
X133175750Y-105409999D01*
X133175750Y-105410000D01*
X131911748Y-105410000D01*
X131904254Y-105252670D01*
X131854704Y-105048424D01*
X131840525Y-105017377D01*
X131767397Y-104857248D01*
X131767395Y-104857245D01*
X131645488Y-104686050D01*
X131565631Y-104609907D01*
X131493378Y-104541014D01*
X131316572Y-104427387D01*
X131316569Y-104427386D01*
X131316568Y-104427385D01*
X131207409Y-104383685D01*
X131121457Y-104349275D01*
X130915085Y-104309500D01*
X130757575Y-104309500D01*
X130600781Y-104324472D01*
X130399120Y-104383685D01*
X130212320Y-104479987D01*
X130212317Y-104479989D01*
X130047113Y-104609907D01*
X129909480Y-104768744D01*
X129804397Y-104950753D01*
X129804394Y-104950760D01*
X129735657Y-105149362D01*
X129735655Y-105149368D01*
X129705746Y-105357393D01*
X129705746Y-105357400D01*
X124325500Y-105357400D01*
X124325500Y-102731120D01*
X139365130Y-102731120D01*
X139384049Y-102874828D01*
X139384050Y-102874829D01*
X139439519Y-103008745D01*
X139527759Y-103123741D01*
X139642755Y-103211981D01*
X139642757Y-103211982D01*
X139648376Y-103215226D01*
X139647075Y-103217478D01*
X139685172Y-103249998D01*
X139699471Y-103309489D01*
X139692239Y-103339632D01*
X139671669Y-103389293D01*
X139652750Y-103532999D01*
X139652750Y-103533000D01*
X139671669Y-103676708D01*
X139671670Y-103676709D01*
X139710368Y-103770137D01*
X139727139Y-103810625D01*
X139815379Y-103925621D01*
X139930375Y-104013861D01*
X140064291Y-104069330D01*
X140208000Y-104088250D01*
X140351709Y-104069330D01*
X140485625Y-104013861D01*
X140600621Y-103925621D01*
X140641587Y-103872232D01*
X140692011Y-103837577D01*
X140720129Y-103833500D01*
X147417336Y-103833500D01*
X147431011Y-103835732D01*
X147431183Y-103834506D01*
X147440264Y-103835772D01*
X147440265Y-103835773D01*
X147440265Y-103835772D01*
X147440266Y-103835773D01*
X147449007Y-103835368D01*
X147488293Y-103833552D01*
X147490570Y-103833500D01*
X147510341Y-103833500D01*
X147510344Y-103833500D01*
X147513837Y-103832846D01*
X147520641Y-103832056D01*
X147552492Y-103830585D01*
X147561476Y-103826617D01*
X147583277Y-103819865D01*
X147592933Y-103818061D01*
X147620043Y-103801274D01*
X147626089Y-103798088D01*
X147655265Y-103785206D01*
X147662209Y-103778260D01*
X147680101Y-103764089D01*
X147688452Y-103758919D01*
X147707665Y-103733474D01*
X147712162Y-103728308D01*
X149101973Y-102338497D01*
X149812470Y-101628000D01*
X150828750Y-101628000D01*
X150847669Y-101771708D01*
X150847670Y-101771709D01*
X150892996Y-101881139D01*
X150903139Y-101905625D01*
X150991379Y-102020621D01*
X151106375Y-102108861D01*
X151240291Y-102164330D01*
X151384000Y-102183250D01*
X151527709Y-102164330D01*
X151661625Y-102108861D01*
X151776621Y-102020621D01*
X151864861Y-101905625D01*
X151920330Y-101771709D01*
X151939250Y-101628000D01*
X151920330Y-101484291D01*
X151864861Y-101350375D01*
X151776621Y-101235379D01*
X151661625Y-101147139D01*
X151661621Y-101147137D01*
X151527709Y-101091670D01*
X151527708Y-101091669D01*
X151384000Y-101072750D01*
X151240291Y-101091669D01*
X151240290Y-101091670D01*
X151106378Y-101147137D01*
X151106374Y-101147139D01*
X150991381Y-101235377D01*
X150991377Y-101235381D01*
X150903139Y-101350374D01*
X150903137Y-101350378D01*
X150847670Y-101484290D01*
X150847669Y-101484291D01*
X150828750Y-101627999D01*
X150828750Y-101628000D01*
X149812470Y-101628000D01*
X150593305Y-100847164D01*
X150604564Y-100839093D01*
X150603805Y-100838087D01*
X150611121Y-100832561D01*
X150611128Y-100832558D01*
X150643532Y-100797011D01*
X150645086Y-100795383D01*
X150659074Y-100781397D01*
X150661081Y-100778465D01*
X150665340Y-100773090D01*
X150686816Y-100749533D01*
X150690365Y-100740370D01*
X150701006Y-100720182D01*
X150706556Y-100712081D01*
X150713855Y-100681043D01*
X150715877Y-100674514D01*
X150727400Y-100644773D01*
X150727400Y-100634948D01*
X150730029Y-100612283D01*
X150732279Y-100602719D01*
X150727875Y-100571146D01*
X150727400Y-100564299D01*
X150727400Y-100510229D01*
X150746307Y-100452038D01*
X150766133Y-100431687D01*
X150773165Y-100426291D01*
X150819521Y-100390721D01*
X150864176Y-100332524D01*
X150914599Y-100297870D01*
X150975763Y-100299471D01*
X150980602Y-100301329D01*
X150982631Y-100302169D01*
X150982632Y-100302170D01*
X151116548Y-100357639D01*
X151260257Y-100376559D01*
X151403966Y-100357639D01*
X151537882Y-100302170D01*
X151652878Y-100213930D01*
X151741118Y-100098934D01*
X151796587Y-99965018D01*
X151815507Y-99821309D01*
X151796587Y-99677600D01*
X151741118Y-99543684D01*
X151652878Y-99428688D01*
X151537882Y-99340448D01*
X151537878Y-99340446D01*
X151403966Y-99284979D01*
X151403965Y-99284978D01*
X151260257Y-99266059D01*
X151116548Y-99284978D01*
X151116547Y-99284979D01*
X150982635Y-99340446D01*
X150982631Y-99340448D01*
X150867638Y-99428686D01*
X150867630Y-99428694D01*
X150822980Y-99486883D01*
X150772556Y-99521538D01*
X150711391Y-99519936D01*
X150706554Y-99518079D01*
X150570609Y-99461770D01*
X150570608Y-99461769D01*
X150426900Y-99442850D01*
X150283191Y-99461769D01*
X150283190Y-99461770D01*
X150149278Y-99517237D01*
X150149274Y-99517239D01*
X150034281Y-99605477D01*
X150034277Y-99605481D01*
X149946039Y-99720474D01*
X149946037Y-99720478D01*
X149890570Y-99854390D01*
X149890569Y-99854391D01*
X149871650Y-99998099D01*
X149871650Y-99998100D01*
X149890569Y-100141808D01*
X149890570Y-100141809D01*
X149936293Y-100252197D01*
X149946039Y-100275725D01*
X150034279Y-100390721D01*
X150038377Y-100393865D01*
X150073033Y-100444287D01*
X150071434Y-100505452D01*
X150048115Y-100542412D01*
X147925981Y-102664546D01*
X147871464Y-102692323D01*
X147811032Y-102682752D01*
X147767767Y-102639487D01*
X147765924Y-102635669D01*
X147750377Y-102601628D01*
X147750377Y-102601627D01*
X147656128Y-102492857D01*
X147656127Y-102492856D01*
X147656126Y-102492855D01*
X147535057Y-102415049D01*
X147535054Y-102415047D01*
X147535053Y-102415047D01*
X147535050Y-102415046D01*
X147396964Y-102374500D01*
X147396961Y-102374500D01*
X147253039Y-102374500D01*
X147253035Y-102374500D01*
X147114949Y-102415046D01*
X147114942Y-102415049D01*
X146993873Y-102492855D01*
X146899622Y-102601628D01*
X146839834Y-102732543D01*
X146819353Y-102874997D01*
X146819353Y-102875002D01*
X146839834Y-103017456D01*
X146874048Y-103092373D01*
X146881023Y-103153160D01*
X146850937Y-103206437D01*
X146795281Y-103231855D01*
X146783995Y-103232500D01*
X146591005Y-103232500D01*
X146532814Y-103213593D01*
X146496850Y-103164093D01*
X146496850Y-103102907D01*
X146500952Y-103092373D01*
X146535165Y-103017456D01*
X146536368Y-103009093D01*
X146545165Y-102947907D01*
X146555647Y-102875002D01*
X146555647Y-102874997D01*
X146535165Y-102732543D01*
X146492667Y-102639487D01*
X146475377Y-102601627D01*
X146381128Y-102492857D01*
X146381127Y-102492856D01*
X146381126Y-102492855D01*
X146260057Y-102415049D01*
X146260054Y-102415047D01*
X146260053Y-102415047D01*
X146260050Y-102415046D01*
X146121964Y-102374500D01*
X146121961Y-102374500D01*
X145978039Y-102374500D01*
X145978035Y-102374500D01*
X145839949Y-102415046D01*
X145839942Y-102415049D01*
X145718873Y-102492855D01*
X145624622Y-102601628D01*
X145564834Y-102732543D01*
X145544353Y-102874997D01*
X145544353Y-102875002D01*
X145564834Y-103017456D01*
X145599048Y-103092373D01*
X145606023Y-103153160D01*
X145575937Y-103206437D01*
X145520281Y-103231855D01*
X145508995Y-103232500D01*
X145316005Y-103232500D01*
X145257814Y-103213593D01*
X145221850Y-103164093D01*
X145221850Y-103102907D01*
X145225952Y-103092373D01*
X145260165Y-103017456D01*
X145261368Y-103009093D01*
X145270165Y-102947907D01*
X145280647Y-102875002D01*
X145280647Y-102874997D01*
X145260165Y-102732543D01*
X145217667Y-102639487D01*
X145200377Y-102601627D01*
X145106128Y-102492857D01*
X145106127Y-102492856D01*
X145106126Y-102492855D01*
X144985057Y-102415049D01*
X144985054Y-102415047D01*
X144985053Y-102415047D01*
X144985050Y-102415046D01*
X144846964Y-102374500D01*
X144846961Y-102374500D01*
X144703039Y-102374500D01*
X144703035Y-102374500D01*
X144564949Y-102415046D01*
X144564942Y-102415049D01*
X144443873Y-102492855D01*
X144349622Y-102601628D01*
X144289834Y-102732543D01*
X144269353Y-102874997D01*
X144269353Y-102875002D01*
X144289834Y-103017456D01*
X144324048Y-103092373D01*
X144331023Y-103153160D01*
X144300937Y-103206437D01*
X144245281Y-103231855D01*
X144233995Y-103232500D01*
X140720129Y-103232500D01*
X140661938Y-103213593D01*
X140641587Y-103193767D01*
X140600625Y-103140384D01*
X140600624Y-103140383D01*
X140600621Y-103140379D01*
X140485625Y-103052139D01*
X140480007Y-103048896D01*
X140481304Y-103046647D01*
X140443194Y-103014099D01*
X140428910Y-102954604D01*
X140436139Y-102924491D01*
X140456710Y-102874829D01*
X140475630Y-102731120D01*
X140456710Y-102587411D01*
X140401241Y-102453495D01*
X140313001Y-102338499D01*
X140198005Y-102250259D01*
X140198001Y-102250257D01*
X140064089Y-102194790D01*
X140064088Y-102194789D01*
X139920380Y-102175870D01*
X139776671Y-102194789D01*
X139776670Y-102194790D01*
X139642758Y-102250257D01*
X139642754Y-102250259D01*
X139527761Y-102338497D01*
X139527757Y-102338501D01*
X139439519Y-102453494D01*
X139439517Y-102453498D01*
X139384050Y-102587410D01*
X139384049Y-102587411D01*
X139365130Y-102731119D01*
X139365130Y-102731120D01*
X124325500Y-102731120D01*
X124325500Y-101600000D01*
X140160750Y-101600000D01*
X140179669Y-101743708D01*
X140179670Y-101743709D01*
X140233377Y-101873373D01*
X140235139Y-101877625D01*
X140323379Y-101992621D01*
X140438375Y-102080861D01*
X140572291Y-102136330D01*
X140716000Y-102155250D01*
X140859709Y-102136330D01*
X140993625Y-102080861D01*
X141108621Y-101992621D01*
X141196861Y-101877625D01*
X141252330Y-101743709D01*
X141271250Y-101600002D01*
X144269353Y-101600002D01*
X144289834Y-101742456D01*
X144349622Y-101873371D01*
X144349623Y-101873373D01*
X144432810Y-101969377D01*
X144443873Y-101982144D01*
X144564942Y-102059950D01*
X144564947Y-102059953D01*
X144648122Y-102084375D01*
X144703035Y-102100499D01*
X144703036Y-102100499D01*
X144703039Y-102100500D01*
X144703041Y-102100500D01*
X144846959Y-102100500D01*
X144846961Y-102100500D01*
X144985053Y-102059953D01*
X145106128Y-101982143D01*
X145200377Y-101873373D01*
X145260165Y-101742457D01*
X145276621Y-101628000D01*
X145280647Y-101600002D01*
X145544353Y-101600002D01*
X145564834Y-101742456D01*
X145624622Y-101873371D01*
X145624623Y-101873373D01*
X145707810Y-101969377D01*
X145718873Y-101982144D01*
X145839942Y-102059950D01*
X145839947Y-102059953D01*
X145923122Y-102084375D01*
X145978035Y-102100499D01*
X145978036Y-102100499D01*
X145978039Y-102100500D01*
X145978041Y-102100500D01*
X146121959Y-102100500D01*
X146121961Y-102100500D01*
X146260053Y-102059953D01*
X146381128Y-101982143D01*
X146475377Y-101873373D01*
X146535165Y-101742457D01*
X146551621Y-101628000D01*
X146555647Y-101600002D01*
X146819353Y-101600002D01*
X146839834Y-101742456D01*
X146899622Y-101873371D01*
X146899623Y-101873373D01*
X146982810Y-101969377D01*
X146993873Y-101982144D01*
X147114942Y-102059950D01*
X147114947Y-102059953D01*
X147198122Y-102084375D01*
X147253035Y-102100499D01*
X147253036Y-102100499D01*
X147253039Y-102100500D01*
X147253041Y-102100500D01*
X147396959Y-102100500D01*
X147396961Y-102100500D01*
X147535053Y-102059953D01*
X147656128Y-101982143D01*
X147750377Y-101873373D01*
X147810165Y-101742457D01*
X147826621Y-101628000D01*
X147830647Y-101600002D01*
X147830647Y-101599997D01*
X147810165Y-101457543D01*
X147809593Y-101456290D01*
X147750377Y-101326627D01*
X147656128Y-101217857D01*
X147656127Y-101217856D01*
X147656126Y-101217855D01*
X147535057Y-101140049D01*
X147535054Y-101140047D01*
X147535053Y-101140047D01*
X147535050Y-101140046D01*
X147396964Y-101099500D01*
X147396961Y-101099500D01*
X147253039Y-101099500D01*
X147253035Y-101099500D01*
X147114949Y-101140046D01*
X147114942Y-101140049D01*
X146993873Y-101217855D01*
X146899622Y-101326628D01*
X146839834Y-101457543D01*
X146819353Y-101599997D01*
X146819353Y-101600002D01*
X146555647Y-101600002D01*
X146555647Y-101599997D01*
X146535165Y-101457543D01*
X146534593Y-101456290D01*
X146475377Y-101326627D01*
X146381128Y-101217857D01*
X146381127Y-101217856D01*
X146381126Y-101217855D01*
X146260057Y-101140049D01*
X146260054Y-101140047D01*
X146260053Y-101140047D01*
X146260050Y-101140046D01*
X146121964Y-101099500D01*
X146121961Y-101099500D01*
X145978039Y-101099500D01*
X145978035Y-101099500D01*
X145839949Y-101140046D01*
X145839942Y-101140049D01*
X145718873Y-101217855D01*
X145624622Y-101326628D01*
X145564834Y-101457543D01*
X145544353Y-101599997D01*
X145544353Y-101600002D01*
X145280647Y-101600002D01*
X145280647Y-101599997D01*
X145260165Y-101457543D01*
X145259593Y-101456290D01*
X145200377Y-101326627D01*
X145106128Y-101217857D01*
X145106127Y-101217856D01*
X145106126Y-101217855D01*
X144985057Y-101140049D01*
X144985054Y-101140047D01*
X144985053Y-101140047D01*
X144985050Y-101140046D01*
X144846964Y-101099500D01*
X144846961Y-101099500D01*
X144703039Y-101099500D01*
X144703035Y-101099500D01*
X144564949Y-101140046D01*
X144564942Y-101140049D01*
X144443873Y-101217855D01*
X144349622Y-101326628D01*
X144289834Y-101457543D01*
X144269353Y-101599997D01*
X144269353Y-101600002D01*
X141271250Y-101600002D01*
X141271250Y-101600000D01*
X141252330Y-101456291D01*
X141196861Y-101322375D01*
X141108621Y-101207379D01*
X140993625Y-101119139D01*
X140993621Y-101119137D01*
X140859709Y-101063670D01*
X140859708Y-101063669D01*
X140716000Y-101044750D01*
X140572291Y-101063669D01*
X140572290Y-101063670D01*
X140438378Y-101119137D01*
X140438374Y-101119139D01*
X140323381Y-101207377D01*
X140323377Y-101207381D01*
X140235139Y-101322374D01*
X140235137Y-101322378D01*
X140179670Y-101456290D01*
X140179669Y-101456291D01*
X140160750Y-101599999D01*
X140160750Y-101600000D01*
X124325500Y-101600000D01*
X124325500Y-100570000D01*
X133062750Y-100570000D01*
X133081669Y-100713708D01*
X133081670Y-100713709D01*
X133132218Y-100835746D01*
X133137139Y-100847625D01*
X133225379Y-100962621D01*
X133340375Y-101050861D01*
X133474291Y-101106330D01*
X133618000Y-101125250D01*
X133761709Y-101106330D01*
X133895625Y-101050861D01*
X134010621Y-100962621D01*
X134098861Y-100847625D01*
X134154330Y-100713709D01*
X134173250Y-100570000D01*
X134172499Y-100564299D01*
X134154330Y-100426291D01*
X134098861Y-100292375D01*
X134010621Y-100177379D01*
X133895625Y-100089139D01*
X133895621Y-100089137D01*
X133761709Y-100033670D01*
X133761708Y-100033669D01*
X133618000Y-100014750D01*
X133474291Y-100033669D01*
X133474290Y-100033670D01*
X133340378Y-100089137D01*
X133340374Y-100089139D01*
X133225381Y-100177377D01*
X133225377Y-100177381D01*
X133137139Y-100292374D01*
X133137137Y-100292378D01*
X133081670Y-100426290D01*
X133081669Y-100426291D01*
X133062750Y-100569999D01*
X133062750Y-100570000D01*
X124325500Y-100570000D01*
X124325500Y-99921000D01*
X139934750Y-99921000D01*
X139953669Y-100064708D01*
X139953670Y-100064709D01*
X140002477Y-100182543D01*
X140009139Y-100198625D01*
X140097379Y-100313621D01*
X140212375Y-100401861D01*
X140346291Y-100457330D01*
X140490000Y-100476250D01*
X140633709Y-100457330D01*
X140767625Y-100401861D01*
X140867789Y-100325002D01*
X144269353Y-100325002D01*
X144289834Y-100467456D01*
X144336665Y-100569999D01*
X144349623Y-100598373D01*
X144418367Y-100677708D01*
X144443873Y-100707144D01*
X144564942Y-100784950D01*
X144564947Y-100784953D01*
X144671403Y-100816211D01*
X144703035Y-100825499D01*
X144703036Y-100825499D01*
X144703039Y-100825500D01*
X144703041Y-100825500D01*
X144846959Y-100825500D01*
X144846961Y-100825500D01*
X144985053Y-100784953D01*
X145106128Y-100707143D01*
X145200377Y-100598373D01*
X145260165Y-100467457D01*
X145275954Y-100357639D01*
X145280647Y-100325002D01*
X145544353Y-100325002D01*
X145564834Y-100467456D01*
X145611665Y-100569999D01*
X145624623Y-100598373D01*
X145693367Y-100677708D01*
X145718873Y-100707144D01*
X145839942Y-100784950D01*
X145839947Y-100784953D01*
X145946403Y-100816211D01*
X145978035Y-100825499D01*
X145978036Y-100825499D01*
X145978039Y-100825500D01*
X145978041Y-100825500D01*
X146121959Y-100825500D01*
X146121961Y-100825500D01*
X146260053Y-100784953D01*
X146381128Y-100707143D01*
X146475377Y-100598373D01*
X146535165Y-100467457D01*
X146550954Y-100357639D01*
X146555647Y-100325002D01*
X146819353Y-100325002D01*
X146839834Y-100467456D01*
X146886665Y-100569999D01*
X146899623Y-100598373D01*
X146968367Y-100677708D01*
X146993873Y-100707144D01*
X147114942Y-100784950D01*
X147114947Y-100784953D01*
X147221403Y-100816211D01*
X147253035Y-100825499D01*
X147253036Y-100825499D01*
X147253039Y-100825500D01*
X147253041Y-100825500D01*
X147396959Y-100825500D01*
X147396961Y-100825500D01*
X147535053Y-100784953D01*
X147656128Y-100707143D01*
X147750377Y-100598373D01*
X147810165Y-100467457D01*
X147825954Y-100357639D01*
X147830647Y-100325002D01*
X147830647Y-100324997D01*
X147810165Y-100182543D01*
X147791562Y-100141808D01*
X147750377Y-100051627D01*
X147656128Y-99942857D01*
X147656127Y-99942856D01*
X147656126Y-99942855D01*
X147535057Y-99865049D01*
X147535054Y-99865047D01*
X147535053Y-99865047D01*
X147535050Y-99865046D01*
X147396964Y-99824500D01*
X147396961Y-99824500D01*
X147253039Y-99824500D01*
X147253035Y-99824500D01*
X147114949Y-99865046D01*
X147114942Y-99865049D01*
X146993873Y-99942855D01*
X146899622Y-100051628D01*
X146839834Y-100182543D01*
X146819353Y-100324997D01*
X146819353Y-100325002D01*
X146555647Y-100325002D01*
X146555647Y-100324997D01*
X146535165Y-100182543D01*
X146516562Y-100141808D01*
X146475377Y-100051627D01*
X146381128Y-99942857D01*
X146381127Y-99942856D01*
X146381126Y-99942855D01*
X146260057Y-99865049D01*
X146260054Y-99865047D01*
X146260053Y-99865047D01*
X146260050Y-99865046D01*
X146121964Y-99824500D01*
X146121961Y-99824500D01*
X145978039Y-99824500D01*
X145978035Y-99824500D01*
X145839949Y-99865046D01*
X145839942Y-99865049D01*
X145718873Y-99942855D01*
X145624622Y-100051628D01*
X145564834Y-100182543D01*
X145544353Y-100324997D01*
X145544353Y-100325002D01*
X145280647Y-100325002D01*
X145280647Y-100324997D01*
X145260165Y-100182543D01*
X145241562Y-100141808D01*
X145200377Y-100051627D01*
X145106128Y-99942857D01*
X145106127Y-99942856D01*
X145106126Y-99942855D01*
X144985057Y-99865049D01*
X144985054Y-99865047D01*
X144985053Y-99865047D01*
X144985050Y-99865046D01*
X144846964Y-99824500D01*
X144846961Y-99824500D01*
X144703039Y-99824500D01*
X144703035Y-99824500D01*
X144564949Y-99865046D01*
X144564942Y-99865049D01*
X144443873Y-99942855D01*
X144349622Y-100051628D01*
X144289834Y-100182543D01*
X144269353Y-100324997D01*
X144269353Y-100325002D01*
X140867789Y-100325002D01*
X140882621Y-100313621D01*
X140970861Y-100198625D01*
X141026330Y-100064709D01*
X141045250Y-99921000D01*
X141036480Y-99854390D01*
X141026330Y-99777291D01*
X140970861Y-99643375D01*
X140882621Y-99528379D01*
X140767625Y-99440139D01*
X140767621Y-99440137D01*
X140633709Y-99384670D01*
X140633708Y-99384669D01*
X140490000Y-99365750D01*
X140346291Y-99384669D01*
X140346290Y-99384670D01*
X140212378Y-99440137D01*
X140212374Y-99440139D01*
X140097381Y-99528377D01*
X140097377Y-99528381D01*
X140009139Y-99643374D01*
X140009137Y-99643378D01*
X139953670Y-99777290D01*
X139953669Y-99777291D01*
X139934750Y-99920999D01*
X139934750Y-99921000D01*
X124325500Y-99921000D01*
X124325500Y-96520004D01*
X125644341Y-96520004D01*
X125664935Y-96755400D01*
X125726098Y-96983667D01*
X125825959Y-97197818D01*
X125825963Y-97197826D01*
X125934438Y-97352746D01*
X125961505Y-97391401D01*
X126128599Y-97558495D01*
X126322171Y-97694035D01*
X126322172Y-97694035D01*
X126322173Y-97694036D01*
X126322181Y-97694040D01*
X126536333Y-97793901D01*
X126536337Y-97793903D01*
X126764592Y-97855063D01*
X126764596Y-97855063D01*
X126764599Y-97855064D01*
X126941028Y-97870500D01*
X126941034Y-97870500D01*
X127058972Y-97870500D01*
X127235400Y-97855064D01*
X127235401Y-97855063D01*
X127235408Y-97855063D01*
X127463663Y-97793903D01*
X127677829Y-97694035D01*
X127871401Y-97558495D01*
X128038495Y-97391401D01*
X128174035Y-97197830D01*
X128231253Y-97075125D01*
X137907850Y-97075125D01*
X137926769Y-97218833D01*
X137926770Y-97218834D01*
X137981746Y-97351561D01*
X137982239Y-97352750D01*
X138070479Y-97467746D01*
X138185475Y-97555986D01*
X138319391Y-97611455D01*
X138463100Y-97630375D01*
X138606809Y-97611455D01*
X138740725Y-97555986D01*
X138855721Y-97467746D01*
X138943961Y-97352750D01*
X138999430Y-97218834D01*
X139018350Y-97075125D01*
X139010356Y-97014409D01*
X138999430Y-96931416D01*
X138974281Y-96870700D01*
X139906750Y-96870700D01*
X139925669Y-97014408D01*
X139925670Y-97014409D01*
X139950818Y-97075124D01*
X139981139Y-97148325D01*
X140069379Y-97263321D01*
X140184375Y-97351561D01*
X140318291Y-97407030D01*
X140462000Y-97425950D01*
X140605709Y-97407030D01*
X140739625Y-97351561D01*
X140854621Y-97263321D01*
X140942861Y-97148325D01*
X140998330Y-97014409D01*
X141017250Y-96870700D01*
X140998330Y-96726991D01*
X140942861Y-96593075D01*
X140854621Y-96478079D01*
X140739625Y-96389839D01*
X140739621Y-96389837D01*
X140605709Y-96334370D01*
X140605708Y-96334369D01*
X140462000Y-96315450D01*
X140318291Y-96334369D01*
X140318290Y-96334370D01*
X140184378Y-96389837D01*
X140184374Y-96389839D01*
X140069381Y-96478077D01*
X140069377Y-96478081D01*
X139981139Y-96593074D01*
X139981137Y-96593078D01*
X139925670Y-96726990D01*
X139925669Y-96726991D01*
X139906750Y-96870699D01*
X139906750Y-96870700D01*
X138974281Y-96870700D01*
X138943961Y-96797500D01*
X138855721Y-96682504D01*
X138740725Y-96594264D01*
X138740721Y-96594262D01*
X138606809Y-96538795D01*
X138606808Y-96538794D01*
X138463100Y-96519875D01*
X138319391Y-96538794D01*
X138319390Y-96538795D01*
X138185478Y-96594262D01*
X138185474Y-96594264D01*
X138070481Y-96682502D01*
X138070477Y-96682506D01*
X137982239Y-96797499D01*
X137982237Y-96797503D01*
X137926770Y-96931415D01*
X137926769Y-96931416D01*
X137907850Y-97075124D01*
X137907850Y-97075125D01*
X128231253Y-97075125D01*
X128273903Y-96983663D01*
X128335063Y-96755408D01*
X128335064Y-96755400D01*
X128355659Y-96520004D01*
X128355659Y-96519995D01*
X128335064Y-96284599D01*
X128335063Y-96284596D01*
X128335063Y-96284592D01*
X128273903Y-96056337D01*
X128238435Y-95980276D01*
X128174040Y-95842181D01*
X128174036Y-95842173D01*
X128154530Y-95814316D01*
X128038495Y-95648599D01*
X127871401Y-95481505D01*
X127871397Y-95481502D01*
X127871396Y-95481501D01*
X127841226Y-95460376D01*
X144961268Y-95460376D01*
X144982353Y-95593503D01*
X144982354Y-95593505D01*
X145043542Y-95713593D01*
X145043544Y-95713596D01*
X145138852Y-95808904D01*
X145258946Y-95870095D01*
X145367231Y-95887245D01*
X145421746Y-95915022D01*
X145421747Y-95915022D01*
X145517304Y-96010579D01*
X145545081Y-96065096D01*
X145546300Y-96080583D01*
X145546300Y-98537635D01*
X145544080Y-98551313D01*
X145545294Y-98551483D01*
X145544026Y-98560566D01*
X145546247Y-98608583D01*
X145546300Y-98610869D01*
X145546300Y-98630642D01*
X145546952Y-98634132D01*
X145547743Y-98640949D01*
X145549214Y-98672787D01*
X145549215Y-98672794D01*
X145553184Y-98681782D01*
X145559933Y-98703573D01*
X145561739Y-98713233D01*
X145578517Y-98740333D01*
X145581715Y-98746400D01*
X145594593Y-98775563D01*
X145594594Y-98775565D01*
X145601545Y-98782516D01*
X145615707Y-98800396D01*
X145620881Y-98808752D01*
X145646311Y-98827956D01*
X145651490Y-98832462D01*
X146097476Y-99278447D01*
X146105577Y-99289687D01*
X146106556Y-99288949D01*
X146112084Y-99296270D01*
X146147609Y-99328656D01*
X146149263Y-99330235D01*
X146159475Y-99340446D01*
X146163243Y-99344214D01*
X146166168Y-99346218D01*
X146171545Y-99350477D01*
X146195104Y-99371954D01*
X146195105Y-99371954D01*
X146195107Y-99371956D01*
X146204270Y-99375506D01*
X146224456Y-99386145D01*
X146232559Y-99391696D01*
X146263593Y-99398995D01*
X146270130Y-99401019D01*
X146299867Y-99412540D01*
X146309692Y-99412540D01*
X146332356Y-99415169D01*
X146341921Y-99417419D01*
X146366534Y-99413985D01*
X146373493Y-99413015D01*
X146380339Y-99412540D01*
X147045705Y-99412540D01*
X147103896Y-99431447D01*
X147115702Y-99441530D01*
X147134740Y-99460568D01*
X147254834Y-99521759D01*
X147387960Y-99542844D01*
X147521086Y-99521759D01*
X147641180Y-99460568D01*
X147736488Y-99365260D01*
X147797679Y-99245166D01*
X147818764Y-99112040D01*
X147797679Y-98978914D01*
X147736488Y-98858820D01*
X147641180Y-98763512D01*
X147641177Y-98763510D01*
X147521089Y-98702322D01*
X147521087Y-98702321D01*
X147387960Y-98681236D01*
X147254832Y-98702321D01*
X147254830Y-98702322D01*
X147134742Y-98763510D01*
X147134740Y-98763511D01*
X147134740Y-98763512D01*
X147115706Y-98782545D01*
X147061192Y-98810321D01*
X147045705Y-98811540D01*
X146521519Y-98811540D01*
X146463328Y-98792633D01*
X146451515Y-98782544D01*
X146176296Y-98507325D01*
X146148519Y-98452808D01*
X146147300Y-98437321D01*
X146147300Y-97947000D01*
X156954750Y-97947000D01*
X156973669Y-98090708D01*
X156973670Y-98090709D01*
X157029139Y-98224625D01*
X157117379Y-98339621D01*
X157232375Y-98427861D01*
X157366291Y-98483330D01*
X157510000Y-98502250D01*
X157653709Y-98483330D01*
X157787625Y-98427861D01*
X157902621Y-98339621D01*
X157990861Y-98224625D01*
X158046330Y-98090709D01*
X158065250Y-97947000D01*
X158046330Y-97803291D01*
X157990861Y-97669375D01*
X157902621Y-97554379D01*
X157787625Y-97466139D01*
X157787621Y-97466137D01*
X157653709Y-97410670D01*
X157653708Y-97410669D01*
X157510000Y-97391750D01*
X157366291Y-97410669D01*
X157366290Y-97410670D01*
X157232378Y-97466137D01*
X157232374Y-97466139D01*
X157117381Y-97554377D01*
X157117377Y-97554381D01*
X157029139Y-97669374D01*
X157029137Y-97669378D01*
X156973670Y-97803290D01*
X156973669Y-97803291D01*
X156954750Y-97946999D01*
X156954750Y-97947000D01*
X146147300Y-97947000D01*
X146147300Y-95980276D01*
X146149531Y-95966599D01*
X146148306Y-95966429D01*
X146149574Y-95957337D01*
X146147353Y-95909298D01*
X146147300Y-95907011D01*
X146147300Y-95887264D01*
X146147300Y-95887260D01*
X146146646Y-95883765D01*
X146145858Y-95876974D01*
X146144386Y-95845113D01*
X146143086Y-95842170D01*
X146140416Y-95836123D01*
X146133664Y-95814321D01*
X146131861Y-95804671D01*
X146115078Y-95777566D01*
X146111884Y-95771505D01*
X146099005Y-95742337D01*
X146092056Y-95735388D01*
X146077890Y-95717503D01*
X146072719Y-95709152D01*
X146047283Y-95689943D01*
X146042106Y-95685438D01*
X145846718Y-95490051D01*
X145818941Y-95435534D01*
X145804755Y-95345965D01*
X145801791Y-95327250D01*
X145740600Y-95207156D01*
X145645292Y-95111848D01*
X145645289Y-95111846D01*
X145525201Y-95050658D01*
X145525199Y-95050657D01*
X145392072Y-95029572D01*
X145258944Y-95050657D01*
X145258942Y-95050658D01*
X145138854Y-95111846D01*
X145043542Y-95207158D01*
X144982354Y-95327246D01*
X144982353Y-95327248D01*
X144961268Y-95460375D01*
X144961268Y-95460376D01*
X127841226Y-95460376D01*
X127677826Y-95345963D01*
X127677818Y-95345959D01*
X127463666Y-95246098D01*
X127463667Y-95246098D01*
X127275390Y-95195650D01*
X127235408Y-95184937D01*
X127235407Y-95184936D01*
X127235400Y-95184935D01*
X127058972Y-95169500D01*
X127058966Y-95169500D01*
X126941034Y-95169500D01*
X126941028Y-95169500D01*
X126764599Y-95184935D01*
X126536332Y-95246098D01*
X126322181Y-95345959D01*
X126322173Y-95345963D01*
X126128603Y-95481501D01*
X125961501Y-95648603D01*
X125825964Y-95842171D01*
X125726097Y-96056337D01*
X125664935Y-96284599D01*
X125644341Y-96519995D01*
X125644341Y-96520004D01*
X124325500Y-96520004D01*
X124325500Y-94640400D01*
X148085550Y-94640400D01*
X148104469Y-94784108D01*
X148104470Y-94784109D01*
X148159939Y-94918025D01*
X148248179Y-95033021D01*
X148363175Y-95121261D01*
X148497091Y-95176730D01*
X148640800Y-95195650D01*
X148784509Y-95176730D01*
X148918425Y-95121261D01*
X149033421Y-95033021D01*
X149070258Y-94985013D01*
X149120682Y-94950358D01*
X149181847Y-94951959D01*
X149227341Y-94985013D01*
X149264179Y-95033021D01*
X149379175Y-95121261D01*
X149513091Y-95176730D01*
X149656800Y-95195650D01*
X149800509Y-95176730D01*
X149934425Y-95121261D01*
X150049421Y-95033021D01*
X150086258Y-94985013D01*
X150136682Y-94950358D01*
X150197847Y-94951959D01*
X150243341Y-94985013D01*
X150280179Y-95033021D01*
X150395175Y-95121261D01*
X150529091Y-95176730D01*
X150672800Y-95195650D01*
X150816509Y-95176730D01*
X150950425Y-95121261D01*
X151065421Y-95033021D01*
X151153661Y-94918025D01*
X151209130Y-94784109D01*
X151228050Y-94640400D01*
X151209130Y-94496691D01*
X151153661Y-94362775D01*
X151065421Y-94247779D01*
X150950425Y-94159539D01*
X150950421Y-94159537D01*
X150816509Y-94104070D01*
X150816508Y-94104069D01*
X150672800Y-94085150D01*
X150529091Y-94104069D01*
X150529090Y-94104070D01*
X150395178Y-94159537D01*
X150395174Y-94159539D01*
X150280181Y-94247777D01*
X150280177Y-94247781D01*
X150243342Y-94295786D01*
X150192917Y-94330441D01*
X150131753Y-94328839D01*
X150086258Y-94295786D01*
X150056970Y-94257617D01*
X150049421Y-94247779D01*
X149934425Y-94159539D01*
X149934421Y-94159537D01*
X149800509Y-94104070D01*
X149800508Y-94104069D01*
X149656800Y-94085150D01*
X149513091Y-94104069D01*
X149513090Y-94104070D01*
X149379178Y-94159537D01*
X149379174Y-94159539D01*
X149264181Y-94247777D01*
X149264177Y-94247781D01*
X149227342Y-94295786D01*
X149176917Y-94330441D01*
X149115753Y-94328839D01*
X149070258Y-94295786D01*
X149040970Y-94257617D01*
X149033421Y-94247779D01*
X148918425Y-94159539D01*
X148918421Y-94159537D01*
X148784509Y-94104070D01*
X148784508Y-94104069D01*
X148640800Y-94085150D01*
X148497091Y-94104069D01*
X148497090Y-94104070D01*
X148363178Y-94159537D01*
X148363174Y-94159539D01*
X148248181Y-94247777D01*
X148248177Y-94247781D01*
X148159939Y-94362774D01*
X148159937Y-94362778D01*
X148104470Y-94496690D01*
X148104469Y-94496691D01*
X148085550Y-94640399D01*
X148085550Y-94640400D01*
X124325500Y-94640400D01*
X124325500Y-93827998D01*
X133465852Y-93827998D01*
X133484771Y-93971706D01*
X133484772Y-93971707D01*
X133539597Y-94104070D01*
X133540241Y-94105623D01*
X133628481Y-94220619D01*
X133743477Y-94308859D01*
X133877393Y-94364328D01*
X134021102Y-94383248D01*
X134164811Y-94364328D01*
X134298727Y-94308859D01*
X134413723Y-94220619D01*
X134501963Y-94105623D01*
X134553999Y-93979996D01*
X157940752Y-93979996D01*
X157959671Y-94123704D01*
X157959672Y-94123705D01*
X158011063Y-94247777D01*
X158015141Y-94257621D01*
X158103381Y-94372617D01*
X158218377Y-94460857D01*
X158352293Y-94516326D01*
X158496002Y-94535246D01*
X158639711Y-94516326D01*
X158773627Y-94460857D01*
X158888623Y-94372617D01*
X158976863Y-94257621D01*
X159032332Y-94123705D01*
X159051252Y-93979996D01*
X159032332Y-93836287D01*
X158976863Y-93702371D01*
X158888623Y-93587375D01*
X158773627Y-93499135D01*
X158773623Y-93499133D01*
X158639711Y-93443666D01*
X158639710Y-93443665D01*
X158496002Y-93424746D01*
X158352293Y-93443665D01*
X158352292Y-93443666D01*
X158218380Y-93499133D01*
X158218376Y-93499135D01*
X158103383Y-93587373D01*
X158103379Y-93587377D01*
X158015141Y-93702370D01*
X158015139Y-93702374D01*
X157959672Y-93836286D01*
X157959671Y-93836287D01*
X157940752Y-93979995D01*
X157940752Y-93979996D01*
X134553999Y-93979996D01*
X134557432Y-93971707D01*
X134576352Y-93827998D01*
X134557432Y-93684289D01*
X134501963Y-93550373D01*
X134413723Y-93435377D01*
X134298727Y-93347137D01*
X134298723Y-93347135D01*
X134164811Y-93291668D01*
X134164810Y-93291667D01*
X134021102Y-93272748D01*
X133877393Y-93291667D01*
X133877392Y-93291668D01*
X133743480Y-93347135D01*
X133743476Y-93347137D01*
X133628483Y-93435375D01*
X133628479Y-93435379D01*
X133540241Y-93550372D01*
X133540239Y-93550376D01*
X133484772Y-93684288D01*
X133484771Y-93684289D01*
X133465852Y-93827997D01*
X133465852Y-93827998D01*
X124325500Y-93827998D01*
X124325500Y-91948000D01*
X142065750Y-91948000D01*
X142084669Y-92091708D01*
X142084670Y-92091709D01*
X142119112Y-92174862D01*
X142140139Y-92225625D01*
X142228379Y-92340621D01*
X142343375Y-92428861D01*
X142477291Y-92484330D01*
X142621000Y-92503250D01*
X142764709Y-92484330D01*
X142898625Y-92428861D01*
X143013621Y-92340621D01*
X143050458Y-92292613D01*
X143100882Y-92257958D01*
X143162047Y-92259559D01*
X143207541Y-92292613D01*
X143244379Y-92340621D01*
X143359375Y-92428861D01*
X143493291Y-92484330D01*
X143637000Y-92503250D01*
X143780709Y-92484330D01*
X143914625Y-92428861D01*
X144029621Y-92340621D01*
X144066458Y-92292613D01*
X144116882Y-92257958D01*
X144178047Y-92259559D01*
X144223541Y-92292613D01*
X144260379Y-92340621D01*
X144375375Y-92428861D01*
X144509291Y-92484330D01*
X144653000Y-92503250D01*
X144796709Y-92484330D01*
X144930625Y-92428861D01*
X145045621Y-92340621D01*
X145082458Y-92292613D01*
X145132882Y-92257958D01*
X145194047Y-92259559D01*
X145239541Y-92292613D01*
X145276379Y-92340621D01*
X145391375Y-92428861D01*
X145525291Y-92484330D01*
X145669000Y-92503250D01*
X145812709Y-92484330D01*
X145946625Y-92428861D01*
X146061621Y-92340621D01*
X146149861Y-92225625D01*
X146205330Y-92091709D01*
X146224250Y-91948000D01*
X146205330Y-91804291D01*
X146159647Y-91694000D01*
X152098750Y-91694000D01*
X152117669Y-91837708D01*
X152117670Y-91837709D01*
X152173139Y-91971625D01*
X152261379Y-92086621D01*
X152376375Y-92174861D01*
X152510291Y-92230330D01*
X152654000Y-92249250D01*
X152797709Y-92230330D01*
X152931625Y-92174861D01*
X153046621Y-92086621D01*
X153083458Y-92038613D01*
X153133882Y-92003958D01*
X153195047Y-92005559D01*
X153240541Y-92038613D01*
X153277379Y-92086621D01*
X153392375Y-92174861D01*
X153526291Y-92230330D01*
X153670000Y-92249250D01*
X153813709Y-92230330D01*
X153947625Y-92174861D01*
X154062621Y-92086621D01*
X154150861Y-91971625D01*
X154206330Y-91837709D01*
X154225250Y-91694000D01*
X154206330Y-91550291D01*
X154150861Y-91416375D01*
X154062621Y-91301379D01*
X154062616Y-91301375D01*
X154062615Y-91301374D01*
X154014614Y-91264542D01*
X153979958Y-91214118D01*
X153981559Y-91152953D01*
X154014614Y-91107458D01*
X154062621Y-91070621D01*
X154150861Y-90955625D01*
X154206330Y-90821709D01*
X154225250Y-90678000D01*
X154206330Y-90534291D01*
X154150861Y-90400375D01*
X154062621Y-90285379D01*
X153947625Y-90197139D01*
X153947621Y-90197137D01*
X153813709Y-90141670D01*
X153813708Y-90141669D01*
X153670000Y-90122750D01*
X153526291Y-90141669D01*
X153526290Y-90141670D01*
X153392378Y-90197137D01*
X153392374Y-90197139D01*
X153277381Y-90285377D01*
X153277377Y-90285381D01*
X153240542Y-90333386D01*
X153190117Y-90368041D01*
X153128953Y-90366439D01*
X153083458Y-90333386D01*
X153046621Y-90285379D01*
X152931625Y-90197139D01*
X152931621Y-90197137D01*
X152797709Y-90141670D01*
X152797708Y-90141669D01*
X152654000Y-90122750D01*
X152510291Y-90141669D01*
X152510290Y-90141670D01*
X152376378Y-90197137D01*
X152376374Y-90197139D01*
X152261381Y-90285377D01*
X152261377Y-90285381D01*
X152173139Y-90400374D01*
X152173137Y-90400378D01*
X152117670Y-90534290D01*
X152117669Y-90534291D01*
X152098750Y-90677999D01*
X152098750Y-90678000D01*
X152117669Y-90821708D01*
X152117670Y-90821709D01*
X152150325Y-90900548D01*
X152173139Y-90955625D01*
X152261379Y-91070621D01*
X152309386Y-91107458D01*
X152344041Y-91157883D01*
X152342439Y-91219047D01*
X152309386Y-91264542D01*
X152261381Y-91301377D01*
X152261377Y-91301381D01*
X152173139Y-91416374D01*
X152173137Y-91416378D01*
X152117670Y-91550290D01*
X152117669Y-91550291D01*
X152098750Y-91693999D01*
X152098750Y-91694000D01*
X146159647Y-91694000D01*
X146149861Y-91670375D01*
X146061621Y-91555379D01*
X145946625Y-91467139D01*
X145946621Y-91467137D01*
X145812709Y-91411670D01*
X145812708Y-91411669D01*
X145669000Y-91392750D01*
X145525291Y-91411669D01*
X145525290Y-91411670D01*
X145391378Y-91467137D01*
X145391374Y-91467139D01*
X145276381Y-91555377D01*
X145276377Y-91555381D01*
X145239542Y-91603386D01*
X145189117Y-91638041D01*
X145127953Y-91636439D01*
X145082458Y-91603386D01*
X145045621Y-91555379D01*
X144930625Y-91467139D01*
X144930621Y-91467137D01*
X144796709Y-91411670D01*
X144796708Y-91411669D01*
X144653000Y-91392750D01*
X144509291Y-91411669D01*
X144509290Y-91411670D01*
X144375378Y-91467137D01*
X144375374Y-91467139D01*
X144260381Y-91555377D01*
X144260377Y-91555381D01*
X144223542Y-91603386D01*
X144173117Y-91638041D01*
X144111953Y-91636439D01*
X144066458Y-91603386D01*
X144029621Y-91555379D01*
X143914625Y-91467139D01*
X143914621Y-91467137D01*
X143780709Y-91411670D01*
X143780708Y-91411669D01*
X143637000Y-91392750D01*
X143493291Y-91411669D01*
X143493290Y-91411670D01*
X143359378Y-91467137D01*
X143359374Y-91467139D01*
X143244381Y-91555377D01*
X143244377Y-91555381D01*
X143207542Y-91603386D01*
X143157117Y-91638041D01*
X143095953Y-91636439D01*
X143050458Y-91603386D01*
X143013621Y-91555379D01*
X142898625Y-91467139D01*
X142898621Y-91467137D01*
X142764709Y-91411670D01*
X142764708Y-91411669D01*
X142621000Y-91392750D01*
X142477291Y-91411669D01*
X142477290Y-91411670D01*
X142343378Y-91467137D01*
X142343374Y-91467139D01*
X142228381Y-91555377D01*
X142228377Y-91555381D01*
X142140139Y-91670374D01*
X142140137Y-91670378D01*
X142084670Y-91804290D01*
X142084669Y-91804291D01*
X142065750Y-91947999D01*
X142065750Y-91948000D01*
X124325500Y-91948000D01*
X124325500Y-90272001D01*
X133465852Y-90272001D01*
X133484771Y-90415709D01*
X133484772Y-90415710D01*
X133533888Y-90534290D01*
X133540241Y-90549626D01*
X133628481Y-90664622D01*
X133743477Y-90752862D01*
X133877393Y-90808331D01*
X134021102Y-90827251D01*
X134164811Y-90808331D01*
X134298727Y-90752862D01*
X134413723Y-90664622D01*
X134501963Y-90549626D01*
X134557432Y-90415710D01*
X134576352Y-90272001D01*
X134557432Y-90128292D01*
X134501963Y-89994376D01*
X134413723Y-89879380D01*
X134298727Y-89791140D01*
X134298723Y-89791138D01*
X134164811Y-89735671D01*
X134164810Y-89735670D01*
X134021102Y-89716751D01*
X133877393Y-89735670D01*
X133877392Y-89735671D01*
X133743480Y-89791138D01*
X133743476Y-89791140D01*
X133628483Y-89879378D01*
X133628479Y-89879382D01*
X133540241Y-89994375D01*
X133540239Y-89994379D01*
X133484772Y-90128291D01*
X133484771Y-90128292D01*
X133465852Y-90272000D01*
X133465852Y-90272001D01*
X124325500Y-90272001D01*
X124325500Y-88517000D01*
X142827750Y-88517000D01*
X142846669Y-88660708D01*
X142846670Y-88660709D01*
X142902139Y-88794625D01*
X142990379Y-88909621D01*
X143105375Y-88997861D01*
X143239291Y-89053330D01*
X143383000Y-89072250D01*
X143526709Y-89053330D01*
X143660625Y-88997861D01*
X143775621Y-88909621D01*
X143863861Y-88794625D01*
X143919330Y-88660709D01*
X143938250Y-88517000D01*
X143925541Y-88420470D01*
X143936691Y-88360311D01*
X143981073Y-88318193D01*
X144041735Y-88310207D01*
X144095506Y-88339401D01*
X144102233Y-88347277D01*
X144149379Y-88408719D01*
X144264375Y-88496959D01*
X144398291Y-88552428D01*
X144542000Y-88571348D01*
X144685709Y-88552428D01*
X144771241Y-88517000D01*
X147145750Y-88517000D01*
X147164669Y-88660708D01*
X147164670Y-88660709D01*
X147220139Y-88794625D01*
X147308379Y-88909621D01*
X147423375Y-88997861D01*
X147557291Y-89053330D01*
X147701000Y-89072250D01*
X147844709Y-89053330D01*
X147978625Y-88997861D01*
X148093621Y-88909621D01*
X148181861Y-88794625D01*
X148237330Y-88660709D01*
X148256250Y-88517000D01*
X148237330Y-88373291D01*
X148181861Y-88239375D01*
X148093621Y-88124379D01*
X147978625Y-88036139D01*
X147978621Y-88036137D01*
X147844709Y-87980670D01*
X147844708Y-87980669D01*
X147701000Y-87961750D01*
X147557291Y-87980669D01*
X147557290Y-87980670D01*
X147423378Y-88036137D01*
X147423374Y-88036139D01*
X147308381Y-88124377D01*
X147308377Y-88124381D01*
X147220139Y-88239374D01*
X147220137Y-88239378D01*
X147164670Y-88373290D01*
X147164669Y-88373291D01*
X147145750Y-88516999D01*
X147145750Y-88517000D01*
X144771241Y-88517000D01*
X144819625Y-88496959D01*
X144934621Y-88408719D01*
X145022861Y-88293723D01*
X145078330Y-88159807D01*
X145097250Y-88016098D01*
X145078330Y-87872389D01*
X145022861Y-87738473D01*
X144934621Y-87623477D01*
X144819625Y-87535237D01*
X144819621Y-87535235D01*
X144685709Y-87479768D01*
X144685708Y-87479767D01*
X144542000Y-87460848D01*
X144398291Y-87479767D01*
X144398290Y-87479768D01*
X144264378Y-87535235D01*
X144264374Y-87535237D01*
X144149381Y-87623475D01*
X144149377Y-87623479D01*
X144061139Y-87738472D01*
X144061137Y-87738476D01*
X144005670Y-87872388D01*
X144005669Y-87872389D01*
X143986750Y-88016097D01*
X143986750Y-88016098D01*
X143999458Y-88112626D01*
X143988308Y-88172787D01*
X143943926Y-88214904D01*
X143883264Y-88222890D01*
X143829493Y-88193695D01*
X143822768Y-88185821D01*
X143775621Y-88124379D01*
X143660625Y-88036139D01*
X143660621Y-88036137D01*
X143526709Y-87980670D01*
X143526708Y-87980669D01*
X143383000Y-87961750D01*
X143239291Y-87980669D01*
X143239290Y-87980670D01*
X143105378Y-88036137D01*
X143105374Y-88036139D01*
X142990381Y-88124377D01*
X142990377Y-88124381D01*
X142902139Y-88239374D01*
X142902137Y-88239378D01*
X142846670Y-88373290D01*
X142846669Y-88373291D01*
X142827750Y-88516999D01*
X142827750Y-88517000D01*
X124325500Y-88517000D01*
X124325500Y-85330000D01*
X133062750Y-85330000D01*
X133081669Y-85473708D01*
X133081670Y-85473709D01*
X133122552Y-85572410D01*
X133137139Y-85607625D01*
X133225379Y-85722621D01*
X133340375Y-85810861D01*
X133474291Y-85866330D01*
X133618000Y-85885250D01*
X133761709Y-85866330D01*
X133895625Y-85810861D01*
X134010621Y-85722621D01*
X134098861Y-85607625D01*
X134154330Y-85473709D01*
X134173250Y-85330000D01*
X134154330Y-85186291D01*
X134098861Y-85052375D01*
X134010621Y-84937379D01*
X133895625Y-84849139D01*
X133895621Y-84849137D01*
X133761709Y-84793670D01*
X133761708Y-84793669D01*
X133618000Y-84774750D01*
X133474291Y-84793669D01*
X133474290Y-84793670D01*
X133340378Y-84849137D01*
X133340374Y-84849139D01*
X133225381Y-84937377D01*
X133225377Y-84937381D01*
X133137139Y-85052374D01*
X133137137Y-85052378D01*
X133081670Y-85186290D01*
X133081669Y-85186291D01*
X133062750Y-85329999D01*
X133062750Y-85330000D01*
X124325500Y-85330000D01*
X124325500Y-84455000D01*
X138763750Y-84455000D01*
X138782669Y-84598708D01*
X138782670Y-84598709D01*
X138838139Y-84732625D01*
X138926379Y-84847621D01*
X139041375Y-84935861D01*
X139175291Y-84991330D01*
X139319000Y-85010250D01*
X139462709Y-84991330D01*
X139596625Y-84935861D01*
X139711621Y-84847621D01*
X139799861Y-84732625D01*
X139855330Y-84598709D01*
X139874250Y-84455000D01*
X139869911Y-84422046D01*
X139862714Y-84367381D01*
X141029500Y-84367381D01*
X141040140Y-84454999D01*
X141044860Y-84493872D01*
X141105182Y-84652930D01*
X141201817Y-84792929D01*
X141329148Y-84905734D01*
X141479775Y-84984790D01*
X141644944Y-85025500D01*
X141644947Y-85025500D01*
X141815053Y-85025500D01*
X141815056Y-85025500D01*
X141980225Y-84984790D01*
X142130852Y-84905734D01*
X142258183Y-84792929D01*
X142354818Y-84652930D01*
X142415140Y-84493872D01*
X142430500Y-84367372D01*
X142430500Y-83485391D01*
X142449407Y-83427200D01*
X142498907Y-83391236D01*
X142560093Y-83391236D01*
X142609593Y-83427200D01*
X142620964Y-83447506D01*
X142657300Y-83535230D01*
X142657301Y-83535231D01*
X142657302Y-83535233D01*
X142749549Y-83655451D01*
X142869767Y-83747698D01*
X143009764Y-83805687D01*
X143122280Y-83820500D01*
X143122281Y-83820500D01*
X143197719Y-83820500D01*
X143197720Y-83820500D01*
X143310236Y-83805687D01*
X143450233Y-83747698D01*
X143570451Y-83655451D01*
X143662698Y-83535233D01*
X143720687Y-83395236D01*
X143740466Y-83245000D01*
X148359534Y-83245000D01*
X148378188Y-83386696D01*
X148379313Y-83395236D01*
X148437302Y-83535233D01*
X148529549Y-83655451D01*
X148649767Y-83747698D01*
X148789764Y-83805687D01*
X148902280Y-83820500D01*
X148902281Y-83820500D01*
X148977719Y-83820500D01*
X148977720Y-83820500D01*
X149090236Y-83805687D01*
X149230233Y-83747698D01*
X149350451Y-83655451D01*
X149442698Y-83535233D01*
X149479036Y-83447506D01*
X149518772Y-83400980D01*
X149578267Y-83386696D01*
X149634795Y-83410111D01*
X149666765Y-83462280D01*
X149669500Y-83485391D01*
X149669500Y-84367381D01*
X149680140Y-84454999D01*
X149684860Y-84493872D01*
X149745182Y-84652930D01*
X149841817Y-84792929D01*
X149969148Y-84905734D01*
X150119775Y-84984790D01*
X150284944Y-85025500D01*
X150284947Y-85025500D01*
X150455053Y-85025500D01*
X150455056Y-85025500D01*
X150620225Y-84984790D01*
X150770852Y-84905734D01*
X150898183Y-84792929D01*
X150994818Y-84652930D01*
X151055140Y-84493872D01*
X151059860Y-84455000D01*
X152225750Y-84455000D01*
X152244669Y-84598708D01*
X152244670Y-84598709D01*
X152300139Y-84732625D01*
X152388379Y-84847621D01*
X152503375Y-84935861D01*
X152637291Y-84991330D01*
X152781000Y-85010250D01*
X152924709Y-84991330D01*
X153058625Y-84935861D01*
X153173621Y-84847621D01*
X153261861Y-84732625D01*
X153317330Y-84598709D01*
X153336250Y-84455000D01*
X153331911Y-84422046D01*
X153317330Y-84311291D01*
X153261861Y-84177375D01*
X153173621Y-84062379D01*
X153058625Y-83974139D01*
X153058621Y-83974137D01*
X152924709Y-83918670D01*
X152924708Y-83918669D01*
X152781000Y-83899750D01*
X152637291Y-83918669D01*
X152637290Y-83918670D01*
X152503378Y-83974137D01*
X152503374Y-83974139D01*
X152388381Y-84062377D01*
X152388377Y-84062381D01*
X152300139Y-84177374D01*
X152300137Y-84177378D01*
X152244670Y-84311290D01*
X152244669Y-84311291D01*
X152225750Y-84454999D01*
X152225750Y-84455000D01*
X151059860Y-84455000D01*
X151070500Y-84367372D01*
X151070500Y-83580000D01*
X157926750Y-83580000D01*
X157945669Y-83723708D01*
X157945670Y-83723709D01*
X157998298Y-83850768D01*
X158001139Y-83857625D01*
X158089379Y-83972621D01*
X158204375Y-84060861D01*
X158338291Y-84116330D01*
X158482000Y-84135250D01*
X158625709Y-84116330D01*
X158759625Y-84060861D01*
X158874621Y-83972621D01*
X158962861Y-83857625D01*
X159018330Y-83723709D01*
X159037250Y-83580000D01*
X159018330Y-83436291D01*
X158962861Y-83302375D01*
X158874621Y-83187379D01*
X158759625Y-83099139D01*
X158759621Y-83099137D01*
X158625709Y-83043670D01*
X158625708Y-83043669D01*
X158482000Y-83024750D01*
X158338291Y-83043669D01*
X158338290Y-83043670D01*
X158204378Y-83099137D01*
X158204374Y-83099139D01*
X158089381Y-83187377D01*
X158089377Y-83187381D01*
X158001139Y-83302374D01*
X158001137Y-83302378D01*
X157945670Y-83436290D01*
X157945669Y-83436291D01*
X157926750Y-83579999D01*
X157926750Y-83580000D01*
X151070500Y-83580000D01*
X151070500Y-83182628D01*
X151055140Y-83056128D01*
X150994818Y-82897070D01*
X150898183Y-82757071D01*
X150770852Y-82644266D01*
X150620225Y-82565210D01*
X150620224Y-82565209D01*
X150620223Y-82565209D01*
X150455058Y-82524500D01*
X150455056Y-82524500D01*
X150284944Y-82524500D01*
X150284941Y-82524500D01*
X150119776Y-82565209D01*
X149969146Y-82644267D01*
X149841818Y-82757069D01*
X149841816Y-82757072D01*
X149745182Y-82897070D01*
X149684859Y-83056130D01*
X149683427Y-83061942D01*
X149682110Y-83061617D01*
X149659139Y-83111035D01*
X149605662Y-83140764D01*
X149544923Y-83133381D01*
X149500124Y-83091708D01*
X149495189Y-83081492D01*
X149442698Y-82954767D01*
X149350451Y-82834549D01*
X149230233Y-82742302D01*
X149090236Y-82684313D01*
X149090234Y-82684312D01*
X149090232Y-82684312D01*
X148977720Y-82669500D01*
X148902280Y-82669500D01*
X148902279Y-82669500D01*
X148789767Y-82684312D01*
X148789761Y-82684314D01*
X148649768Y-82742301D01*
X148529551Y-82834547D01*
X148529547Y-82834551D01*
X148437301Y-82954768D01*
X148379314Y-83094761D01*
X148379312Y-83094767D01*
X148359534Y-83244999D01*
X148359534Y-83245000D01*
X143740466Y-83245000D01*
X143740450Y-83244882D01*
X143732255Y-83182631D01*
X143720687Y-83094764D01*
X143662698Y-82954767D01*
X143570451Y-82834549D01*
X143450233Y-82742302D01*
X143310236Y-82684313D01*
X143310234Y-82684312D01*
X143310232Y-82684312D01*
X143197720Y-82669500D01*
X143122280Y-82669500D01*
X143122279Y-82669500D01*
X143009767Y-82684312D01*
X143009761Y-82684314D01*
X142869768Y-82742301D01*
X142749551Y-82834547D01*
X142749547Y-82834551D01*
X142657301Y-82954768D01*
X142604810Y-83081492D01*
X142565073Y-83128018D01*
X142505578Y-83142301D01*
X142449050Y-83118886D01*
X142417081Y-83066717D01*
X142415266Y-83056642D01*
X142415140Y-83056130D01*
X142415140Y-83056128D01*
X142354818Y-82897070D01*
X142258183Y-82757071D01*
X142130852Y-82644266D01*
X141980225Y-82565210D01*
X141980224Y-82565209D01*
X141980223Y-82565209D01*
X141815058Y-82524500D01*
X141815056Y-82524500D01*
X141644944Y-82524500D01*
X141644941Y-82524500D01*
X141479776Y-82565209D01*
X141329146Y-82644267D01*
X141201818Y-82757069D01*
X141201816Y-82757072D01*
X141105182Y-82897070D01*
X141044860Y-83056128D01*
X141029500Y-83182618D01*
X141029500Y-84367381D01*
X139862714Y-84367381D01*
X139855330Y-84311291D01*
X139799861Y-84177375D01*
X139711621Y-84062379D01*
X139596625Y-83974139D01*
X139596621Y-83974137D01*
X139462709Y-83918670D01*
X139462708Y-83918669D01*
X139319000Y-83899750D01*
X139175291Y-83918669D01*
X139175290Y-83918670D01*
X139041378Y-83974137D01*
X139041374Y-83974139D01*
X138926381Y-84062377D01*
X138926377Y-84062381D01*
X138838139Y-84177374D01*
X138838137Y-84177378D01*
X138782670Y-84311290D01*
X138782669Y-84311291D01*
X138763750Y-84454999D01*
X138763750Y-84455000D01*
X124325500Y-84455000D01*
X124325500Y-80011384D01*
X124325578Y-80008608D01*
X124329578Y-79937381D01*
X141029500Y-79937381D01*
X141043324Y-80051222D01*
X141044860Y-80063872D01*
X141105182Y-80222930D01*
X141201817Y-80362929D01*
X141329148Y-80475734D01*
X141479775Y-80554790D01*
X141644944Y-80595500D01*
X141644947Y-80595500D01*
X141815053Y-80595500D01*
X141815056Y-80595500D01*
X141980225Y-80554790D01*
X142130852Y-80475734D01*
X142258183Y-80362929D01*
X142354818Y-80222930D01*
X142415140Y-80063872D01*
X142430499Y-79937381D01*
X149669500Y-79937381D01*
X149683324Y-80051222D01*
X149684860Y-80063872D01*
X149745182Y-80222930D01*
X149841817Y-80362929D01*
X149969148Y-80475734D01*
X150119775Y-80554790D01*
X150284944Y-80595500D01*
X150284947Y-80595500D01*
X150455053Y-80595500D01*
X150455056Y-80595500D01*
X150620225Y-80554790D01*
X150770852Y-80475734D01*
X150898183Y-80362929D01*
X150994818Y-80222930D01*
X151055140Y-80063872D01*
X151070500Y-79937372D01*
X151070500Y-79252628D01*
X151055140Y-79126128D01*
X150994818Y-78967070D01*
X150898183Y-78827071D01*
X150770852Y-78714266D01*
X150620225Y-78635210D01*
X150620224Y-78635209D01*
X150620223Y-78635209D01*
X150455058Y-78594500D01*
X150455056Y-78594500D01*
X150284944Y-78594500D01*
X150284941Y-78594500D01*
X150119776Y-78635209D01*
X149969146Y-78714267D01*
X149841818Y-78827069D01*
X149841816Y-78827072D01*
X149745182Y-78967070D01*
X149684860Y-79126128D01*
X149669500Y-79252618D01*
X149669500Y-79937381D01*
X142430499Y-79937381D01*
X142430500Y-79937372D01*
X142430500Y-79252628D01*
X142415140Y-79126128D01*
X142354818Y-78967070D01*
X142258183Y-78827071D01*
X142130852Y-78714266D01*
X141980225Y-78635210D01*
X141980224Y-78635209D01*
X141980223Y-78635209D01*
X141815058Y-78594500D01*
X141815056Y-78594500D01*
X141644944Y-78594500D01*
X141644941Y-78594500D01*
X141479776Y-78635209D01*
X141329146Y-78714267D01*
X141201818Y-78827069D01*
X141201816Y-78827072D01*
X141105182Y-78967070D01*
X141044860Y-79126128D01*
X141029500Y-79252618D01*
X141029500Y-79937381D01*
X124329578Y-79937381D01*
X124342162Y-79713309D01*
X124342779Y-79707826D01*
X124392091Y-79417593D01*
X124393318Y-79412218D01*
X124474816Y-79129331D01*
X124476644Y-79124108D01*
X124589297Y-78852141D01*
X124591699Y-78847153D01*
X124734099Y-78589498D01*
X124737037Y-78584822D01*
X124907392Y-78344731D01*
X124910830Y-78340420D01*
X125107002Y-78120902D01*
X125110902Y-78117002D01*
X125330420Y-77920830D01*
X125334731Y-77917392D01*
X125574822Y-77747037D01*
X125579498Y-77744099D01*
X125837153Y-77601699D01*
X125842141Y-77599297D01*
X126114108Y-77486644D01*
X126119331Y-77484816D01*
X126402218Y-77403318D01*
X126407593Y-77402091D01*
X126697826Y-77352779D01*
X126703309Y-77352162D01*
X126998614Y-77335577D01*
X127001384Y-77335500D01*
X127065892Y-77335500D01*
X165034108Y-77335500D01*
X165098616Y-77335500D01*
X165101385Y-77335577D01*
G37*
%TD.AperFunction*%
%TD*%
M02*
