%TF.GenerationSoftware,KiCad,Pcbnew,7.0.1*%
%TF.CreationDate,2023-05-13T23:39:39+01:00*%
%TF.ProjectId,MoonPad,4d6f6f6e-5061-4642-9e6b-696361645f70,rev?*%
%TF.SameCoordinates,Original*%
%TF.FileFunction,Legend,Top*%
%TF.FilePolarity,Positive*%
%FSLAX46Y46*%
G04 Gerber Fmt 4.6, Leading zero omitted, Abs format (unit mm)*
G04 Created by KiCad (PCBNEW 7.0.1) date 2023-05-13 23:39:39*
%MOMM*%
%LPD*%
G01*
G04 APERTURE LIST*
G04 Aperture macros list*
%AMRoundRect*
0 Rectangle with rounded corners*
0 $1 Rounding radius*
0 $2 $3 $4 $5 $6 $7 $8 $9 X,Y pos of 4 corners*
0 Add a 4 corners polygon primitive as box body*
4,1,4,$2,$3,$4,$5,$6,$7,$8,$9,$2,$3,0*
0 Add four circle primitives for the rounded corners*
1,1,$1+$1,$2,$3*
1,1,$1+$1,$4,$5*
1,1,$1+$1,$6,$7*
1,1,$1+$1,$8,$9*
0 Add four rect primitives between the rounded corners*
20,1,$1+$1,$2,$3,$4,$5,0*
20,1,$1+$1,$4,$5,$6,$7,0*
20,1,$1+$1,$6,$7,$8,$9,0*
20,1,$1+$1,$8,$9,$2,$3,0*%
G04 Aperture macros list end*
%ADD10C,0.125000*%
%ADD11C,0.120000*%
%ADD12C,0.100000*%
%ADD13RoundRect,0.140000X0.170000X-0.140000X0.170000X0.140000X-0.170000X0.140000X-0.170000X-0.140000X0*%
%ADD14RoundRect,0.140000X-0.170000X0.140000X-0.170000X-0.140000X0.170000X-0.140000X0.170000X0.140000X0*%
%ADD15RoundRect,0.140000X0.140000X0.170000X-0.140000X0.170000X-0.140000X-0.170000X0.140000X-0.170000X0*%
%ADD16R,1.400000X1.200000*%
%ADD17RoundRect,0.082000X-0.718000X0.328000X-0.718000X-0.328000X0.718000X-0.328000X0.718000X0.328000X0*%
%ADD18RoundRect,0.140000X-0.140000X-0.170000X0.140000X-0.170000X0.140000X0.170000X-0.140000X0.170000X0*%
%ADD19RoundRect,0.135000X0.185000X-0.135000X0.185000X0.135000X-0.185000X0.135000X-0.185000X-0.135000X0*%
%ADD20C,0.650000*%
%ADD21R,0.600000X1.450000*%
%ADD22R,0.300000X1.450000*%
%ADD23O,1.000000X2.100000*%
%ADD24O,1.000000X1.600000*%
%ADD25C,2.200000*%
%ADD26RoundRect,0.150000X-0.587500X-0.150000X0.587500X-0.150000X0.587500X0.150000X-0.587500X0.150000X0*%
%ADD27R,1.000000X0.850000*%
%ADD28RoundRect,0.100000X-0.100000X0.130000X-0.100000X-0.130000X0.100000X-0.130000X0.100000X0.130000X0*%
%ADD29R,0.900000X0.300000*%
%ADD30R,0.250000X1.650000*%
%ADD31RoundRect,0.135000X0.135000X0.185000X-0.135000X0.185000X-0.135000X-0.185000X0.135000X-0.185000X0*%
%ADD32RoundRect,0.250000X0.450000X-0.262500X0.450000X0.262500X-0.450000X0.262500X-0.450000X-0.262500X0*%
%ADD33RoundRect,0.100000X0.100000X-0.130000X0.100000X0.130000X-0.100000X0.130000X-0.100000X-0.130000X0*%
%ADD34RoundRect,0.250000X0.475000X-0.250000X0.475000X0.250000X-0.475000X0.250000X-0.475000X-0.250000X0*%
%ADD35RoundRect,0.250000X0.250000X0.475000X-0.250000X0.475000X-0.250000X-0.475000X0.250000X-0.475000X0*%
%ADD36RoundRect,0.250000X-0.375000X-0.625000X0.375000X-0.625000X0.375000X0.625000X-0.375000X0.625000X0*%
%ADD37RoundRect,0.135000X-0.185000X0.135000X-0.185000X-0.135000X0.185000X-0.135000X0.185000X0.135000X0*%
%ADD38RoundRect,0.050000X-0.387500X-0.050000X0.387500X-0.050000X0.387500X0.050000X-0.387500X0.050000X0*%
%ADD39RoundRect,0.050000X-0.050000X-0.387500X0.050000X-0.387500X0.050000X0.387500X-0.050000X0.387500X0*%
%ADD40RoundRect,0.144000X-1.456000X-1.456000X1.456000X-1.456000X1.456000X1.456000X-1.456000X1.456000X0*%
%ADD41RoundRect,0.150000X0.512500X0.150000X-0.512500X0.150000X-0.512500X-0.150000X0.512500X-0.150000X0*%
%ADD42R,0.700000X1.000000*%
%ADD43R,0.700000X0.600000*%
%ADD44R,1.000000X1.700000*%
%ADD45RoundRect,0.250000X-0.450000X0.262500X-0.450000X-0.262500X0.450000X-0.262500X0.450000X0.262500X0*%
%ADD46RoundRect,0.135000X-0.135000X-0.185000X0.135000X-0.185000X0.135000X0.185000X-0.135000X0.185000X0*%
%ADD47RoundRect,0.150000X0.587500X0.150000X-0.587500X0.150000X-0.587500X-0.150000X0.587500X-0.150000X0*%
%ADD48C,1.700000*%
%ADD49R,1.700000X1.700000*%
%ADD50O,1.700000X1.700000*%
G04 APERTURE END LIST*
D10*
%TO.C,C8*%
X147757690Y-95079333D02*
X147781500Y-95103142D01*
X147781500Y-95103142D02*
X147805309Y-95174571D01*
X147805309Y-95174571D02*
X147805309Y-95222190D01*
X147805309Y-95222190D02*
X147781500Y-95293618D01*
X147781500Y-95293618D02*
X147733880Y-95341237D01*
X147733880Y-95341237D02*
X147686261Y-95365047D01*
X147686261Y-95365047D02*
X147591023Y-95388856D01*
X147591023Y-95388856D02*
X147519595Y-95388856D01*
X147519595Y-95388856D02*
X147424357Y-95365047D01*
X147424357Y-95365047D02*
X147376738Y-95341237D01*
X147376738Y-95341237D02*
X147329119Y-95293618D01*
X147329119Y-95293618D02*
X147305309Y-95222190D01*
X147305309Y-95222190D02*
X147305309Y-95174571D01*
X147305309Y-95174571D02*
X147329119Y-95103142D01*
X147329119Y-95103142D02*
X147352928Y-95079333D01*
X147519595Y-94793618D02*
X147495785Y-94841237D01*
X147495785Y-94841237D02*
X147471976Y-94865047D01*
X147471976Y-94865047D02*
X147424357Y-94888856D01*
X147424357Y-94888856D02*
X147400547Y-94888856D01*
X147400547Y-94888856D02*
X147352928Y-94865047D01*
X147352928Y-94865047D02*
X147329119Y-94841237D01*
X147329119Y-94841237D02*
X147305309Y-94793618D01*
X147305309Y-94793618D02*
X147305309Y-94698380D01*
X147305309Y-94698380D02*
X147329119Y-94650761D01*
X147329119Y-94650761D02*
X147352928Y-94626952D01*
X147352928Y-94626952D02*
X147400547Y-94603142D01*
X147400547Y-94603142D02*
X147424357Y-94603142D01*
X147424357Y-94603142D02*
X147471976Y-94626952D01*
X147471976Y-94626952D02*
X147495785Y-94650761D01*
X147495785Y-94650761D02*
X147519595Y-94698380D01*
X147519595Y-94698380D02*
X147519595Y-94793618D01*
X147519595Y-94793618D02*
X147543404Y-94841237D01*
X147543404Y-94841237D02*
X147567214Y-94865047D01*
X147567214Y-94865047D02*
X147614833Y-94888856D01*
X147614833Y-94888856D02*
X147710071Y-94888856D01*
X147710071Y-94888856D02*
X147757690Y-94865047D01*
X147757690Y-94865047D02*
X147781500Y-94841237D01*
X147781500Y-94841237D02*
X147805309Y-94793618D01*
X147805309Y-94793618D02*
X147805309Y-94698380D01*
X147805309Y-94698380D02*
X147781500Y-94650761D01*
X147781500Y-94650761D02*
X147757690Y-94626952D01*
X147757690Y-94626952D02*
X147710071Y-94603142D01*
X147710071Y-94603142D02*
X147614833Y-94603142D01*
X147614833Y-94603142D02*
X147567214Y-94626952D01*
X147567214Y-94626952D02*
X147543404Y-94650761D01*
X147543404Y-94650761D02*
X147519595Y-94698380D01*
%TO.C,C23*%
X138489571Y-82987690D02*
X138465762Y-83011500D01*
X138465762Y-83011500D02*
X138394333Y-83035309D01*
X138394333Y-83035309D02*
X138346714Y-83035309D01*
X138346714Y-83035309D02*
X138275286Y-83011500D01*
X138275286Y-83011500D02*
X138227667Y-82963880D01*
X138227667Y-82963880D02*
X138203857Y-82916261D01*
X138203857Y-82916261D02*
X138180048Y-82821023D01*
X138180048Y-82821023D02*
X138180048Y-82749595D01*
X138180048Y-82749595D02*
X138203857Y-82654357D01*
X138203857Y-82654357D02*
X138227667Y-82606738D01*
X138227667Y-82606738D02*
X138275286Y-82559119D01*
X138275286Y-82559119D02*
X138346714Y-82535309D01*
X138346714Y-82535309D02*
X138394333Y-82535309D01*
X138394333Y-82535309D02*
X138465762Y-82559119D01*
X138465762Y-82559119D02*
X138489571Y-82582928D01*
X138680048Y-82582928D02*
X138703857Y-82559119D01*
X138703857Y-82559119D02*
X138751476Y-82535309D01*
X138751476Y-82535309D02*
X138870524Y-82535309D01*
X138870524Y-82535309D02*
X138918143Y-82559119D01*
X138918143Y-82559119D02*
X138941952Y-82582928D01*
X138941952Y-82582928D02*
X138965762Y-82630547D01*
X138965762Y-82630547D02*
X138965762Y-82678166D01*
X138965762Y-82678166D02*
X138941952Y-82749595D01*
X138941952Y-82749595D02*
X138656238Y-83035309D01*
X138656238Y-83035309D02*
X138965762Y-83035309D01*
X139132428Y-82535309D02*
X139441952Y-82535309D01*
X139441952Y-82535309D02*
X139275285Y-82725785D01*
X139275285Y-82725785D02*
X139346714Y-82725785D01*
X139346714Y-82725785D02*
X139394333Y-82749595D01*
X139394333Y-82749595D02*
X139418142Y-82773404D01*
X139418142Y-82773404D02*
X139441952Y-82821023D01*
X139441952Y-82821023D02*
X139441952Y-82940071D01*
X139441952Y-82940071D02*
X139418142Y-82987690D01*
X139418142Y-82987690D02*
X139394333Y-83011500D01*
X139394333Y-83011500D02*
X139346714Y-83035309D01*
X139346714Y-83035309D02*
X139203857Y-83035309D01*
X139203857Y-83035309D02*
X139156238Y-83011500D01*
X139156238Y-83011500D02*
X139132428Y-82987690D01*
%TO.C,C9*%
X141267666Y-101021690D02*
X141243857Y-101045500D01*
X141243857Y-101045500D02*
X141172428Y-101069309D01*
X141172428Y-101069309D02*
X141124809Y-101069309D01*
X141124809Y-101069309D02*
X141053381Y-101045500D01*
X141053381Y-101045500D02*
X141005762Y-100997880D01*
X141005762Y-100997880D02*
X140981952Y-100950261D01*
X140981952Y-100950261D02*
X140958143Y-100855023D01*
X140958143Y-100855023D02*
X140958143Y-100783595D01*
X140958143Y-100783595D02*
X140981952Y-100688357D01*
X140981952Y-100688357D02*
X141005762Y-100640738D01*
X141005762Y-100640738D02*
X141053381Y-100593119D01*
X141053381Y-100593119D02*
X141124809Y-100569309D01*
X141124809Y-100569309D02*
X141172428Y-100569309D01*
X141172428Y-100569309D02*
X141243857Y-100593119D01*
X141243857Y-100593119D02*
X141267666Y-100616928D01*
X141505762Y-101069309D02*
X141601000Y-101069309D01*
X141601000Y-101069309D02*
X141648619Y-101045500D01*
X141648619Y-101045500D02*
X141672428Y-101021690D01*
X141672428Y-101021690D02*
X141720047Y-100950261D01*
X141720047Y-100950261D02*
X141743857Y-100855023D01*
X141743857Y-100855023D02*
X141743857Y-100664547D01*
X141743857Y-100664547D02*
X141720047Y-100616928D01*
X141720047Y-100616928D02*
X141696238Y-100593119D01*
X141696238Y-100593119D02*
X141648619Y-100569309D01*
X141648619Y-100569309D02*
X141553381Y-100569309D01*
X141553381Y-100569309D02*
X141505762Y-100593119D01*
X141505762Y-100593119D02*
X141481952Y-100616928D01*
X141481952Y-100616928D02*
X141458143Y-100664547D01*
X141458143Y-100664547D02*
X141458143Y-100783595D01*
X141458143Y-100783595D02*
X141481952Y-100831214D01*
X141481952Y-100831214D02*
X141505762Y-100855023D01*
X141505762Y-100855023D02*
X141553381Y-100878833D01*
X141553381Y-100878833D02*
X141648619Y-100878833D01*
X141648619Y-100878833D02*
X141696238Y-100855023D01*
X141696238Y-100855023D02*
X141720047Y-100831214D01*
X141720047Y-100831214D02*
X141743857Y-100783595D01*
%TO.C,C26*%
X149411571Y-111435690D02*
X149387762Y-111459500D01*
X149387762Y-111459500D02*
X149316333Y-111483309D01*
X149316333Y-111483309D02*
X149268714Y-111483309D01*
X149268714Y-111483309D02*
X149197286Y-111459500D01*
X149197286Y-111459500D02*
X149149667Y-111411880D01*
X149149667Y-111411880D02*
X149125857Y-111364261D01*
X149125857Y-111364261D02*
X149102048Y-111269023D01*
X149102048Y-111269023D02*
X149102048Y-111197595D01*
X149102048Y-111197595D02*
X149125857Y-111102357D01*
X149125857Y-111102357D02*
X149149667Y-111054738D01*
X149149667Y-111054738D02*
X149197286Y-111007119D01*
X149197286Y-111007119D02*
X149268714Y-110983309D01*
X149268714Y-110983309D02*
X149316333Y-110983309D01*
X149316333Y-110983309D02*
X149387762Y-111007119D01*
X149387762Y-111007119D02*
X149411571Y-111030928D01*
X149602048Y-111030928D02*
X149625857Y-111007119D01*
X149625857Y-111007119D02*
X149673476Y-110983309D01*
X149673476Y-110983309D02*
X149792524Y-110983309D01*
X149792524Y-110983309D02*
X149840143Y-111007119D01*
X149840143Y-111007119D02*
X149863952Y-111030928D01*
X149863952Y-111030928D02*
X149887762Y-111078547D01*
X149887762Y-111078547D02*
X149887762Y-111126166D01*
X149887762Y-111126166D02*
X149863952Y-111197595D01*
X149863952Y-111197595D02*
X149578238Y-111483309D01*
X149578238Y-111483309D02*
X149887762Y-111483309D01*
X150316333Y-110983309D02*
X150221095Y-110983309D01*
X150221095Y-110983309D02*
X150173476Y-111007119D01*
X150173476Y-111007119D02*
X150149666Y-111030928D01*
X150149666Y-111030928D02*
X150102047Y-111102357D01*
X150102047Y-111102357D02*
X150078238Y-111197595D01*
X150078238Y-111197595D02*
X150078238Y-111388071D01*
X150078238Y-111388071D02*
X150102047Y-111435690D01*
X150102047Y-111435690D02*
X150125857Y-111459500D01*
X150125857Y-111459500D02*
X150173476Y-111483309D01*
X150173476Y-111483309D02*
X150268714Y-111483309D01*
X150268714Y-111483309D02*
X150316333Y-111459500D01*
X150316333Y-111459500D02*
X150340142Y-111435690D01*
X150340142Y-111435690D02*
X150363952Y-111388071D01*
X150363952Y-111388071D02*
X150363952Y-111269023D01*
X150363952Y-111269023D02*
X150340142Y-111221404D01*
X150340142Y-111221404D02*
X150316333Y-111197595D01*
X150316333Y-111197595D02*
X150268714Y-111173785D01*
X150268714Y-111173785D02*
X150173476Y-111173785D01*
X150173476Y-111173785D02*
X150125857Y-111197595D01*
X150125857Y-111197595D02*
X150102047Y-111221404D01*
X150102047Y-111221404D02*
X150078238Y-111269023D01*
%TO.C,Y1*%
X145811905Y-111245214D02*
X145811905Y-111483309D01*
X145645239Y-110983309D02*
X145811905Y-111245214D01*
X145811905Y-111245214D02*
X145978572Y-110983309D01*
X146407143Y-111483309D02*
X146121429Y-111483309D01*
X146264286Y-111483309D02*
X146264286Y-110983309D01*
X146264286Y-110983309D02*
X146216667Y-111054738D01*
X146216667Y-111054738D02*
X146169048Y-111102357D01*
X146169048Y-111102357D02*
X146121429Y-111126166D01*
%TO.C,C25*%
X152837690Y-101413428D02*
X152861500Y-101437237D01*
X152861500Y-101437237D02*
X152885309Y-101508666D01*
X152885309Y-101508666D02*
X152885309Y-101556285D01*
X152885309Y-101556285D02*
X152861500Y-101627713D01*
X152861500Y-101627713D02*
X152813880Y-101675332D01*
X152813880Y-101675332D02*
X152766261Y-101699142D01*
X152766261Y-101699142D02*
X152671023Y-101722951D01*
X152671023Y-101722951D02*
X152599595Y-101722951D01*
X152599595Y-101722951D02*
X152504357Y-101699142D01*
X152504357Y-101699142D02*
X152456738Y-101675332D01*
X152456738Y-101675332D02*
X152409119Y-101627713D01*
X152409119Y-101627713D02*
X152385309Y-101556285D01*
X152385309Y-101556285D02*
X152385309Y-101508666D01*
X152385309Y-101508666D02*
X152409119Y-101437237D01*
X152409119Y-101437237D02*
X152432928Y-101413428D01*
X152432928Y-101222951D02*
X152409119Y-101199142D01*
X152409119Y-101199142D02*
X152385309Y-101151523D01*
X152385309Y-101151523D02*
X152385309Y-101032475D01*
X152385309Y-101032475D02*
X152409119Y-100984856D01*
X152409119Y-100984856D02*
X152432928Y-100961047D01*
X152432928Y-100961047D02*
X152480547Y-100937237D01*
X152480547Y-100937237D02*
X152528166Y-100937237D01*
X152528166Y-100937237D02*
X152599595Y-100961047D01*
X152599595Y-100961047D02*
X152885309Y-101246761D01*
X152885309Y-101246761D02*
X152885309Y-100937237D01*
X152385309Y-100484857D02*
X152385309Y-100722952D01*
X152385309Y-100722952D02*
X152623404Y-100746761D01*
X152623404Y-100746761D02*
X152599595Y-100722952D01*
X152599595Y-100722952D02*
X152575785Y-100675333D01*
X152575785Y-100675333D02*
X152575785Y-100556285D01*
X152575785Y-100556285D02*
X152599595Y-100508666D01*
X152599595Y-100508666D02*
X152623404Y-100484857D01*
X152623404Y-100484857D02*
X152671023Y-100461047D01*
X152671023Y-100461047D02*
X152790071Y-100461047D01*
X152790071Y-100461047D02*
X152837690Y-100484857D01*
X152837690Y-100484857D02*
X152861500Y-100508666D01*
X152861500Y-100508666D02*
X152885309Y-100556285D01*
X152885309Y-100556285D02*
X152885309Y-100675333D01*
X152885309Y-100675333D02*
X152861500Y-100722952D01*
X152861500Y-100722952D02*
X152837690Y-100746761D01*
%TO.C,C14*%
X145852690Y-95190428D02*
X145876500Y-95214237D01*
X145876500Y-95214237D02*
X145900309Y-95285666D01*
X145900309Y-95285666D02*
X145900309Y-95333285D01*
X145900309Y-95333285D02*
X145876500Y-95404713D01*
X145876500Y-95404713D02*
X145828880Y-95452332D01*
X145828880Y-95452332D02*
X145781261Y-95476142D01*
X145781261Y-95476142D02*
X145686023Y-95499951D01*
X145686023Y-95499951D02*
X145614595Y-95499951D01*
X145614595Y-95499951D02*
X145519357Y-95476142D01*
X145519357Y-95476142D02*
X145471738Y-95452332D01*
X145471738Y-95452332D02*
X145424119Y-95404713D01*
X145424119Y-95404713D02*
X145400309Y-95333285D01*
X145400309Y-95333285D02*
X145400309Y-95285666D01*
X145400309Y-95285666D02*
X145424119Y-95214237D01*
X145424119Y-95214237D02*
X145447928Y-95190428D01*
X145900309Y-94714237D02*
X145900309Y-94999951D01*
X145900309Y-94857094D02*
X145400309Y-94857094D01*
X145400309Y-94857094D02*
X145471738Y-94904713D01*
X145471738Y-94904713D02*
X145519357Y-94952332D01*
X145519357Y-94952332D02*
X145543166Y-94999951D01*
X145566976Y-94285666D02*
X145900309Y-94285666D01*
X145376500Y-94404714D02*
X145733642Y-94523761D01*
X145733642Y-94523761D02*
X145733642Y-94214238D01*
%TO.C,C6*%
X148633666Y-107371690D02*
X148609857Y-107395500D01*
X148609857Y-107395500D02*
X148538428Y-107419309D01*
X148538428Y-107419309D02*
X148490809Y-107419309D01*
X148490809Y-107419309D02*
X148419381Y-107395500D01*
X148419381Y-107395500D02*
X148371762Y-107347880D01*
X148371762Y-107347880D02*
X148347952Y-107300261D01*
X148347952Y-107300261D02*
X148324143Y-107205023D01*
X148324143Y-107205023D02*
X148324143Y-107133595D01*
X148324143Y-107133595D02*
X148347952Y-107038357D01*
X148347952Y-107038357D02*
X148371762Y-106990738D01*
X148371762Y-106990738D02*
X148419381Y-106943119D01*
X148419381Y-106943119D02*
X148490809Y-106919309D01*
X148490809Y-106919309D02*
X148538428Y-106919309D01*
X148538428Y-106919309D02*
X148609857Y-106943119D01*
X148609857Y-106943119D02*
X148633666Y-106966928D01*
X149062238Y-106919309D02*
X148967000Y-106919309D01*
X148967000Y-106919309D02*
X148919381Y-106943119D01*
X148919381Y-106943119D02*
X148895571Y-106966928D01*
X148895571Y-106966928D02*
X148847952Y-107038357D01*
X148847952Y-107038357D02*
X148824143Y-107133595D01*
X148824143Y-107133595D02*
X148824143Y-107324071D01*
X148824143Y-107324071D02*
X148847952Y-107371690D01*
X148847952Y-107371690D02*
X148871762Y-107395500D01*
X148871762Y-107395500D02*
X148919381Y-107419309D01*
X148919381Y-107419309D02*
X149014619Y-107419309D01*
X149014619Y-107419309D02*
X149062238Y-107395500D01*
X149062238Y-107395500D02*
X149086047Y-107371690D01*
X149086047Y-107371690D02*
X149109857Y-107324071D01*
X149109857Y-107324071D02*
X149109857Y-107205023D01*
X149109857Y-107205023D02*
X149086047Y-107157404D01*
X149086047Y-107157404D02*
X149062238Y-107133595D01*
X149062238Y-107133595D02*
X149014619Y-107109785D01*
X149014619Y-107109785D02*
X148919381Y-107109785D01*
X148919381Y-107109785D02*
X148871762Y-107133595D01*
X148871762Y-107133595D02*
X148847952Y-107157404D01*
X148847952Y-107157404D02*
X148824143Y-107205023D01*
%TO.C,R6*%
X142283666Y-87301309D02*
X142117000Y-87063214D01*
X141997952Y-87301309D02*
X141997952Y-86801309D01*
X141997952Y-86801309D02*
X142188428Y-86801309D01*
X142188428Y-86801309D02*
X142236047Y-86825119D01*
X142236047Y-86825119D02*
X142259857Y-86848928D01*
X142259857Y-86848928D02*
X142283666Y-86896547D01*
X142283666Y-86896547D02*
X142283666Y-86967976D01*
X142283666Y-86967976D02*
X142259857Y-87015595D01*
X142259857Y-87015595D02*
X142236047Y-87039404D01*
X142236047Y-87039404D02*
X142188428Y-87063214D01*
X142188428Y-87063214D02*
X141997952Y-87063214D01*
X142712238Y-86801309D02*
X142617000Y-86801309D01*
X142617000Y-86801309D02*
X142569381Y-86825119D01*
X142569381Y-86825119D02*
X142545571Y-86848928D01*
X142545571Y-86848928D02*
X142497952Y-86920357D01*
X142497952Y-86920357D02*
X142474143Y-87015595D01*
X142474143Y-87015595D02*
X142474143Y-87206071D01*
X142474143Y-87206071D02*
X142497952Y-87253690D01*
X142497952Y-87253690D02*
X142521762Y-87277500D01*
X142521762Y-87277500D02*
X142569381Y-87301309D01*
X142569381Y-87301309D02*
X142664619Y-87301309D01*
X142664619Y-87301309D02*
X142712238Y-87277500D01*
X142712238Y-87277500D02*
X142736047Y-87253690D01*
X142736047Y-87253690D02*
X142759857Y-87206071D01*
X142759857Y-87206071D02*
X142759857Y-87087023D01*
X142759857Y-87087023D02*
X142736047Y-87039404D01*
X142736047Y-87039404D02*
X142712238Y-87015595D01*
X142712238Y-87015595D02*
X142664619Y-86991785D01*
X142664619Y-86991785D02*
X142569381Y-86991785D01*
X142569381Y-86991785D02*
X142521762Y-87015595D01*
X142521762Y-87015595D02*
X142497952Y-87039404D01*
X142497952Y-87039404D02*
X142474143Y-87087023D01*
%TO.C,J3*%
X145883333Y-80428309D02*
X145883333Y-80785452D01*
X145883333Y-80785452D02*
X145859524Y-80856880D01*
X145859524Y-80856880D02*
X145811905Y-80904500D01*
X145811905Y-80904500D02*
X145740476Y-80928309D01*
X145740476Y-80928309D02*
X145692857Y-80928309D01*
X146073809Y-80428309D02*
X146383333Y-80428309D01*
X146383333Y-80428309D02*
X146216666Y-80618785D01*
X146216666Y-80618785D02*
X146288095Y-80618785D01*
X146288095Y-80618785D02*
X146335714Y-80642595D01*
X146335714Y-80642595D02*
X146359523Y-80666404D01*
X146359523Y-80666404D02*
X146383333Y-80714023D01*
X146383333Y-80714023D02*
X146383333Y-80833071D01*
X146383333Y-80833071D02*
X146359523Y-80880690D01*
X146359523Y-80880690D02*
X146335714Y-80904500D01*
X146335714Y-80904500D02*
X146288095Y-80928309D01*
X146288095Y-80928309D02*
X146145238Y-80928309D01*
X146145238Y-80928309D02*
X146097619Y-80904500D01*
X146097619Y-80904500D02*
X146073809Y-80880690D01*
%TO.C,H2*%
X164719047Y-93551309D02*
X164719047Y-93051309D01*
X164719047Y-93289404D02*
X165004761Y-93289404D01*
X165004761Y-93551309D02*
X165004761Y-93051309D01*
X165219048Y-93098928D02*
X165242857Y-93075119D01*
X165242857Y-93075119D02*
X165290476Y-93051309D01*
X165290476Y-93051309D02*
X165409524Y-93051309D01*
X165409524Y-93051309D02*
X165457143Y-93075119D01*
X165457143Y-93075119D02*
X165480952Y-93098928D01*
X165480952Y-93098928D02*
X165504762Y-93146547D01*
X165504762Y-93146547D02*
X165504762Y-93194166D01*
X165504762Y-93194166D02*
X165480952Y-93265595D01*
X165480952Y-93265595D02*
X165195238Y-93551309D01*
X165195238Y-93551309D02*
X165504762Y-93551309D01*
%TO.C,U5*%
X155829047Y-107300309D02*
X155829047Y-107705071D01*
X155829047Y-107705071D02*
X155852857Y-107752690D01*
X155852857Y-107752690D02*
X155876666Y-107776500D01*
X155876666Y-107776500D02*
X155924285Y-107800309D01*
X155924285Y-107800309D02*
X156019523Y-107800309D01*
X156019523Y-107800309D02*
X156067142Y-107776500D01*
X156067142Y-107776500D02*
X156090952Y-107752690D01*
X156090952Y-107752690D02*
X156114761Y-107705071D01*
X156114761Y-107705071D02*
X156114761Y-107300309D01*
X156590952Y-107300309D02*
X156352857Y-107300309D01*
X156352857Y-107300309D02*
X156329048Y-107538404D01*
X156329048Y-107538404D02*
X156352857Y-107514595D01*
X156352857Y-107514595D02*
X156400476Y-107490785D01*
X156400476Y-107490785D02*
X156519524Y-107490785D01*
X156519524Y-107490785D02*
X156567143Y-107514595D01*
X156567143Y-107514595D02*
X156590952Y-107538404D01*
X156590952Y-107538404D02*
X156614762Y-107586023D01*
X156614762Y-107586023D02*
X156614762Y-107705071D01*
X156614762Y-107705071D02*
X156590952Y-107752690D01*
X156590952Y-107752690D02*
X156567143Y-107776500D01*
X156567143Y-107776500D02*
X156519524Y-107800309D01*
X156519524Y-107800309D02*
X156400476Y-107800309D01*
X156400476Y-107800309D02*
X156352857Y-107776500D01*
X156352857Y-107776500D02*
X156329048Y-107752690D01*
%TO.C,C10*%
X148773690Y-95063428D02*
X148797500Y-95087237D01*
X148797500Y-95087237D02*
X148821309Y-95158666D01*
X148821309Y-95158666D02*
X148821309Y-95206285D01*
X148821309Y-95206285D02*
X148797500Y-95277713D01*
X148797500Y-95277713D02*
X148749880Y-95325332D01*
X148749880Y-95325332D02*
X148702261Y-95349142D01*
X148702261Y-95349142D02*
X148607023Y-95372951D01*
X148607023Y-95372951D02*
X148535595Y-95372951D01*
X148535595Y-95372951D02*
X148440357Y-95349142D01*
X148440357Y-95349142D02*
X148392738Y-95325332D01*
X148392738Y-95325332D02*
X148345119Y-95277713D01*
X148345119Y-95277713D02*
X148321309Y-95206285D01*
X148321309Y-95206285D02*
X148321309Y-95158666D01*
X148321309Y-95158666D02*
X148345119Y-95087237D01*
X148345119Y-95087237D02*
X148368928Y-95063428D01*
X148821309Y-94587237D02*
X148821309Y-94872951D01*
X148821309Y-94730094D02*
X148321309Y-94730094D01*
X148321309Y-94730094D02*
X148392738Y-94777713D01*
X148392738Y-94777713D02*
X148440357Y-94825332D01*
X148440357Y-94825332D02*
X148464166Y-94872951D01*
X148321309Y-94277714D02*
X148321309Y-94230095D01*
X148321309Y-94230095D02*
X148345119Y-94182476D01*
X148345119Y-94182476D02*
X148368928Y-94158666D01*
X148368928Y-94158666D02*
X148416547Y-94134857D01*
X148416547Y-94134857D02*
X148511785Y-94111047D01*
X148511785Y-94111047D02*
X148630833Y-94111047D01*
X148630833Y-94111047D02*
X148726071Y-94134857D01*
X148726071Y-94134857D02*
X148773690Y-94158666D01*
X148773690Y-94158666D02*
X148797500Y-94182476D01*
X148797500Y-94182476D02*
X148821309Y-94230095D01*
X148821309Y-94230095D02*
X148821309Y-94277714D01*
X148821309Y-94277714D02*
X148797500Y-94325333D01*
X148797500Y-94325333D02*
X148773690Y-94349142D01*
X148773690Y-94349142D02*
X148726071Y-94372952D01*
X148726071Y-94372952D02*
X148630833Y-94396761D01*
X148630833Y-94396761D02*
X148511785Y-94396761D01*
X148511785Y-94396761D02*
X148416547Y-94372952D01*
X148416547Y-94372952D02*
X148368928Y-94349142D01*
X148368928Y-94349142D02*
X148345119Y-94325333D01*
X148345119Y-94325333D02*
X148321309Y-94277714D01*
%TO.C,C11*%
X149789690Y-95063428D02*
X149813500Y-95087237D01*
X149813500Y-95087237D02*
X149837309Y-95158666D01*
X149837309Y-95158666D02*
X149837309Y-95206285D01*
X149837309Y-95206285D02*
X149813500Y-95277713D01*
X149813500Y-95277713D02*
X149765880Y-95325332D01*
X149765880Y-95325332D02*
X149718261Y-95349142D01*
X149718261Y-95349142D02*
X149623023Y-95372951D01*
X149623023Y-95372951D02*
X149551595Y-95372951D01*
X149551595Y-95372951D02*
X149456357Y-95349142D01*
X149456357Y-95349142D02*
X149408738Y-95325332D01*
X149408738Y-95325332D02*
X149361119Y-95277713D01*
X149361119Y-95277713D02*
X149337309Y-95206285D01*
X149337309Y-95206285D02*
X149337309Y-95158666D01*
X149337309Y-95158666D02*
X149361119Y-95087237D01*
X149361119Y-95087237D02*
X149384928Y-95063428D01*
X149837309Y-94587237D02*
X149837309Y-94872951D01*
X149837309Y-94730094D02*
X149337309Y-94730094D01*
X149337309Y-94730094D02*
X149408738Y-94777713D01*
X149408738Y-94777713D02*
X149456357Y-94825332D01*
X149456357Y-94825332D02*
X149480166Y-94872951D01*
X149837309Y-94111047D02*
X149837309Y-94396761D01*
X149837309Y-94253904D02*
X149337309Y-94253904D01*
X149337309Y-94253904D02*
X149408738Y-94301523D01*
X149408738Y-94301523D02*
X149456357Y-94349142D01*
X149456357Y-94349142D02*
X149480166Y-94396761D01*
%TO.C,D3*%
X135520952Y-82019309D02*
X135520952Y-81519309D01*
X135520952Y-81519309D02*
X135640000Y-81519309D01*
X135640000Y-81519309D02*
X135711428Y-81543119D01*
X135711428Y-81543119D02*
X135759047Y-81590738D01*
X135759047Y-81590738D02*
X135782857Y-81638357D01*
X135782857Y-81638357D02*
X135806666Y-81733595D01*
X135806666Y-81733595D02*
X135806666Y-81805023D01*
X135806666Y-81805023D02*
X135782857Y-81900261D01*
X135782857Y-81900261D02*
X135759047Y-81947880D01*
X135759047Y-81947880D02*
X135711428Y-81995500D01*
X135711428Y-81995500D02*
X135640000Y-82019309D01*
X135640000Y-82019309D02*
X135520952Y-82019309D01*
X135973333Y-81519309D02*
X136282857Y-81519309D01*
X136282857Y-81519309D02*
X136116190Y-81709785D01*
X136116190Y-81709785D02*
X136187619Y-81709785D01*
X136187619Y-81709785D02*
X136235238Y-81733595D01*
X136235238Y-81733595D02*
X136259047Y-81757404D01*
X136259047Y-81757404D02*
X136282857Y-81805023D01*
X136282857Y-81805023D02*
X136282857Y-81924071D01*
X136282857Y-81924071D02*
X136259047Y-81971690D01*
X136259047Y-81971690D02*
X136235238Y-81995500D01*
X136235238Y-81995500D02*
X136187619Y-82019309D01*
X136187619Y-82019309D02*
X136044762Y-82019309D01*
X136044762Y-82019309D02*
X135997143Y-81995500D01*
X135997143Y-81995500D02*
X135973333Y-81971690D01*
%TO.C,C17*%
X153218690Y-104842428D02*
X153242500Y-104866237D01*
X153242500Y-104866237D02*
X153266309Y-104937666D01*
X153266309Y-104937666D02*
X153266309Y-104985285D01*
X153266309Y-104985285D02*
X153242500Y-105056713D01*
X153242500Y-105056713D02*
X153194880Y-105104332D01*
X153194880Y-105104332D02*
X153147261Y-105128142D01*
X153147261Y-105128142D02*
X153052023Y-105151951D01*
X153052023Y-105151951D02*
X152980595Y-105151951D01*
X152980595Y-105151951D02*
X152885357Y-105128142D01*
X152885357Y-105128142D02*
X152837738Y-105104332D01*
X152837738Y-105104332D02*
X152790119Y-105056713D01*
X152790119Y-105056713D02*
X152766309Y-104985285D01*
X152766309Y-104985285D02*
X152766309Y-104937666D01*
X152766309Y-104937666D02*
X152790119Y-104866237D01*
X152790119Y-104866237D02*
X152813928Y-104842428D01*
X153266309Y-104366237D02*
X153266309Y-104651951D01*
X153266309Y-104509094D02*
X152766309Y-104509094D01*
X152766309Y-104509094D02*
X152837738Y-104556713D01*
X152837738Y-104556713D02*
X152885357Y-104604332D01*
X152885357Y-104604332D02*
X152909166Y-104651951D01*
X152766309Y-104199571D02*
X152766309Y-103866238D01*
X152766309Y-103866238D02*
X153266309Y-104080523D01*
%TO.C,C2*%
X143553666Y-107117690D02*
X143529857Y-107141500D01*
X143529857Y-107141500D02*
X143458428Y-107165309D01*
X143458428Y-107165309D02*
X143410809Y-107165309D01*
X143410809Y-107165309D02*
X143339381Y-107141500D01*
X143339381Y-107141500D02*
X143291762Y-107093880D01*
X143291762Y-107093880D02*
X143267952Y-107046261D01*
X143267952Y-107046261D02*
X143244143Y-106951023D01*
X143244143Y-106951023D02*
X143244143Y-106879595D01*
X143244143Y-106879595D02*
X143267952Y-106784357D01*
X143267952Y-106784357D02*
X143291762Y-106736738D01*
X143291762Y-106736738D02*
X143339381Y-106689119D01*
X143339381Y-106689119D02*
X143410809Y-106665309D01*
X143410809Y-106665309D02*
X143458428Y-106665309D01*
X143458428Y-106665309D02*
X143529857Y-106689119D01*
X143529857Y-106689119D02*
X143553666Y-106712928D01*
X143744143Y-106712928D02*
X143767952Y-106689119D01*
X143767952Y-106689119D02*
X143815571Y-106665309D01*
X143815571Y-106665309D02*
X143934619Y-106665309D01*
X143934619Y-106665309D02*
X143982238Y-106689119D01*
X143982238Y-106689119D02*
X144006047Y-106712928D01*
X144006047Y-106712928D02*
X144029857Y-106760547D01*
X144029857Y-106760547D02*
X144029857Y-106808166D01*
X144029857Y-106808166D02*
X144006047Y-106879595D01*
X144006047Y-106879595D02*
X143720333Y-107165309D01*
X143720333Y-107165309D02*
X144029857Y-107165309D01*
%TO.C,C19*%
X130996571Y-112324690D02*
X130972762Y-112348500D01*
X130972762Y-112348500D02*
X130901333Y-112372309D01*
X130901333Y-112372309D02*
X130853714Y-112372309D01*
X130853714Y-112372309D02*
X130782286Y-112348500D01*
X130782286Y-112348500D02*
X130734667Y-112300880D01*
X130734667Y-112300880D02*
X130710857Y-112253261D01*
X130710857Y-112253261D02*
X130687048Y-112158023D01*
X130687048Y-112158023D02*
X130687048Y-112086595D01*
X130687048Y-112086595D02*
X130710857Y-111991357D01*
X130710857Y-111991357D02*
X130734667Y-111943738D01*
X130734667Y-111943738D02*
X130782286Y-111896119D01*
X130782286Y-111896119D02*
X130853714Y-111872309D01*
X130853714Y-111872309D02*
X130901333Y-111872309D01*
X130901333Y-111872309D02*
X130972762Y-111896119D01*
X130972762Y-111896119D02*
X130996571Y-111919928D01*
X131472762Y-112372309D02*
X131187048Y-112372309D01*
X131329905Y-112372309D02*
X131329905Y-111872309D01*
X131329905Y-111872309D02*
X131282286Y-111943738D01*
X131282286Y-111943738D02*
X131234667Y-111991357D01*
X131234667Y-111991357D02*
X131187048Y-112015166D01*
X131710857Y-112372309D02*
X131806095Y-112372309D01*
X131806095Y-112372309D02*
X131853714Y-112348500D01*
X131853714Y-112348500D02*
X131877523Y-112324690D01*
X131877523Y-112324690D02*
X131925142Y-112253261D01*
X131925142Y-112253261D02*
X131948952Y-112158023D01*
X131948952Y-112158023D02*
X131948952Y-111967547D01*
X131948952Y-111967547D02*
X131925142Y-111919928D01*
X131925142Y-111919928D02*
X131901333Y-111896119D01*
X131901333Y-111896119D02*
X131853714Y-111872309D01*
X131853714Y-111872309D02*
X131758476Y-111872309D01*
X131758476Y-111872309D02*
X131710857Y-111896119D01*
X131710857Y-111896119D02*
X131687047Y-111919928D01*
X131687047Y-111919928D02*
X131663238Y-111967547D01*
X131663238Y-111967547D02*
X131663238Y-112086595D01*
X131663238Y-112086595D02*
X131687047Y-112134214D01*
X131687047Y-112134214D02*
X131710857Y-112158023D01*
X131710857Y-112158023D02*
X131758476Y-112181833D01*
X131758476Y-112181833D02*
X131853714Y-112181833D01*
X131853714Y-112181833D02*
X131901333Y-112158023D01*
X131901333Y-112158023D02*
X131925142Y-112134214D01*
X131925142Y-112134214D02*
X131948952Y-112086595D01*
%TO.C,IC1*%
X141370905Y-97351755D02*
X141370905Y-96851755D01*
X141894714Y-97304136D02*
X141870905Y-97327946D01*
X141870905Y-97327946D02*
X141799476Y-97351755D01*
X141799476Y-97351755D02*
X141751857Y-97351755D01*
X141751857Y-97351755D02*
X141680429Y-97327946D01*
X141680429Y-97327946D02*
X141632810Y-97280326D01*
X141632810Y-97280326D02*
X141609000Y-97232707D01*
X141609000Y-97232707D02*
X141585191Y-97137469D01*
X141585191Y-97137469D02*
X141585191Y-97066041D01*
X141585191Y-97066041D02*
X141609000Y-96970803D01*
X141609000Y-96970803D02*
X141632810Y-96923184D01*
X141632810Y-96923184D02*
X141680429Y-96875565D01*
X141680429Y-96875565D02*
X141751857Y-96851755D01*
X141751857Y-96851755D02*
X141799476Y-96851755D01*
X141799476Y-96851755D02*
X141870905Y-96875565D01*
X141870905Y-96875565D02*
X141894714Y-96899374D01*
X142370905Y-97351755D02*
X142085191Y-97351755D01*
X142228048Y-97351755D02*
X142228048Y-96851755D01*
X142228048Y-96851755D02*
X142180429Y-96923184D01*
X142180429Y-96923184D02*
X142132810Y-96970803D01*
X142132810Y-96970803D02*
X142085191Y-96994612D01*
%TO.C,R1*%
X140632666Y-91925309D02*
X140466000Y-91687214D01*
X140346952Y-91925309D02*
X140346952Y-91425309D01*
X140346952Y-91425309D02*
X140537428Y-91425309D01*
X140537428Y-91425309D02*
X140585047Y-91449119D01*
X140585047Y-91449119D02*
X140608857Y-91472928D01*
X140608857Y-91472928D02*
X140632666Y-91520547D01*
X140632666Y-91520547D02*
X140632666Y-91591976D01*
X140632666Y-91591976D02*
X140608857Y-91639595D01*
X140608857Y-91639595D02*
X140585047Y-91663404D01*
X140585047Y-91663404D02*
X140537428Y-91687214D01*
X140537428Y-91687214D02*
X140346952Y-91687214D01*
X141108857Y-91925309D02*
X140823143Y-91925309D01*
X140966000Y-91925309D02*
X140966000Y-91425309D01*
X140966000Y-91425309D02*
X140918381Y-91496738D01*
X140918381Y-91496738D02*
X140870762Y-91544357D01*
X140870762Y-91544357D02*
X140823143Y-91568166D01*
%TO.C,H4*%
X164719047Y-111331309D02*
X164719047Y-110831309D01*
X164719047Y-111069404D02*
X165004761Y-111069404D01*
X165004761Y-111331309D02*
X165004761Y-110831309D01*
X165457143Y-110997976D02*
X165457143Y-111331309D01*
X165338095Y-110807500D02*
X165219048Y-111164642D01*
X165219048Y-111164642D02*
X165528571Y-111164642D01*
%TO.C,C12*%
X150808571Y-98354690D02*
X150784762Y-98378500D01*
X150784762Y-98378500D02*
X150713333Y-98402309D01*
X150713333Y-98402309D02*
X150665714Y-98402309D01*
X150665714Y-98402309D02*
X150594286Y-98378500D01*
X150594286Y-98378500D02*
X150546667Y-98330880D01*
X150546667Y-98330880D02*
X150522857Y-98283261D01*
X150522857Y-98283261D02*
X150499048Y-98188023D01*
X150499048Y-98188023D02*
X150499048Y-98116595D01*
X150499048Y-98116595D02*
X150522857Y-98021357D01*
X150522857Y-98021357D02*
X150546667Y-97973738D01*
X150546667Y-97973738D02*
X150594286Y-97926119D01*
X150594286Y-97926119D02*
X150665714Y-97902309D01*
X150665714Y-97902309D02*
X150713333Y-97902309D01*
X150713333Y-97902309D02*
X150784762Y-97926119D01*
X150784762Y-97926119D02*
X150808571Y-97949928D01*
X151284762Y-98402309D02*
X150999048Y-98402309D01*
X151141905Y-98402309D02*
X151141905Y-97902309D01*
X151141905Y-97902309D02*
X151094286Y-97973738D01*
X151094286Y-97973738D02*
X151046667Y-98021357D01*
X151046667Y-98021357D02*
X150999048Y-98045166D01*
X151475238Y-97949928D02*
X151499047Y-97926119D01*
X151499047Y-97926119D02*
X151546666Y-97902309D01*
X151546666Y-97902309D02*
X151665714Y-97902309D01*
X151665714Y-97902309D02*
X151713333Y-97926119D01*
X151713333Y-97926119D02*
X151737142Y-97949928D01*
X151737142Y-97949928D02*
X151760952Y-97997547D01*
X151760952Y-97997547D02*
X151760952Y-98045166D01*
X151760952Y-98045166D02*
X151737142Y-98116595D01*
X151737142Y-98116595D02*
X151451428Y-98402309D01*
X151451428Y-98402309D02*
X151760952Y-98402309D01*
%TO.C,C15*%
X144836690Y-95190428D02*
X144860500Y-95214237D01*
X144860500Y-95214237D02*
X144884309Y-95285666D01*
X144884309Y-95285666D02*
X144884309Y-95333285D01*
X144884309Y-95333285D02*
X144860500Y-95404713D01*
X144860500Y-95404713D02*
X144812880Y-95452332D01*
X144812880Y-95452332D02*
X144765261Y-95476142D01*
X144765261Y-95476142D02*
X144670023Y-95499951D01*
X144670023Y-95499951D02*
X144598595Y-95499951D01*
X144598595Y-95499951D02*
X144503357Y-95476142D01*
X144503357Y-95476142D02*
X144455738Y-95452332D01*
X144455738Y-95452332D02*
X144408119Y-95404713D01*
X144408119Y-95404713D02*
X144384309Y-95333285D01*
X144384309Y-95333285D02*
X144384309Y-95285666D01*
X144384309Y-95285666D02*
X144408119Y-95214237D01*
X144408119Y-95214237D02*
X144431928Y-95190428D01*
X144884309Y-94714237D02*
X144884309Y-94999951D01*
X144884309Y-94857094D02*
X144384309Y-94857094D01*
X144384309Y-94857094D02*
X144455738Y-94904713D01*
X144455738Y-94904713D02*
X144503357Y-94952332D01*
X144503357Y-94952332D02*
X144527166Y-94999951D01*
X144384309Y-94261857D02*
X144384309Y-94499952D01*
X144384309Y-94499952D02*
X144622404Y-94523761D01*
X144622404Y-94523761D02*
X144598595Y-94499952D01*
X144598595Y-94499952D02*
X144574785Y-94452333D01*
X144574785Y-94452333D02*
X144574785Y-94333285D01*
X144574785Y-94333285D02*
X144598595Y-94285666D01*
X144598595Y-94285666D02*
X144622404Y-94261857D01*
X144622404Y-94261857D02*
X144670023Y-94238047D01*
X144670023Y-94238047D02*
X144789071Y-94238047D01*
X144789071Y-94238047D02*
X144836690Y-94261857D01*
X144836690Y-94261857D02*
X144860500Y-94285666D01*
X144860500Y-94285666D02*
X144884309Y-94333285D01*
X144884309Y-94333285D02*
X144884309Y-94452333D01*
X144884309Y-94452333D02*
X144860500Y-94499952D01*
X144860500Y-94499952D02*
X144836690Y-94523761D01*
%TO.C,C20*%
X139629690Y-98111428D02*
X139653500Y-98135237D01*
X139653500Y-98135237D02*
X139677309Y-98206666D01*
X139677309Y-98206666D02*
X139677309Y-98254285D01*
X139677309Y-98254285D02*
X139653500Y-98325713D01*
X139653500Y-98325713D02*
X139605880Y-98373332D01*
X139605880Y-98373332D02*
X139558261Y-98397142D01*
X139558261Y-98397142D02*
X139463023Y-98420951D01*
X139463023Y-98420951D02*
X139391595Y-98420951D01*
X139391595Y-98420951D02*
X139296357Y-98397142D01*
X139296357Y-98397142D02*
X139248738Y-98373332D01*
X139248738Y-98373332D02*
X139201119Y-98325713D01*
X139201119Y-98325713D02*
X139177309Y-98254285D01*
X139177309Y-98254285D02*
X139177309Y-98206666D01*
X139177309Y-98206666D02*
X139201119Y-98135237D01*
X139201119Y-98135237D02*
X139224928Y-98111428D01*
X139224928Y-97920951D02*
X139201119Y-97897142D01*
X139201119Y-97897142D02*
X139177309Y-97849523D01*
X139177309Y-97849523D02*
X139177309Y-97730475D01*
X139177309Y-97730475D02*
X139201119Y-97682856D01*
X139201119Y-97682856D02*
X139224928Y-97659047D01*
X139224928Y-97659047D02*
X139272547Y-97635237D01*
X139272547Y-97635237D02*
X139320166Y-97635237D01*
X139320166Y-97635237D02*
X139391595Y-97659047D01*
X139391595Y-97659047D02*
X139677309Y-97944761D01*
X139677309Y-97944761D02*
X139677309Y-97635237D01*
X139177309Y-97325714D02*
X139177309Y-97278095D01*
X139177309Y-97278095D02*
X139201119Y-97230476D01*
X139201119Y-97230476D02*
X139224928Y-97206666D01*
X139224928Y-97206666D02*
X139272547Y-97182857D01*
X139272547Y-97182857D02*
X139367785Y-97159047D01*
X139367785Y-97159047D02*
X139486833Y-97159047D01*
X139486833Y-97159047D02*
X139582071Y-97182857D01*
X139582071Y-97182857D02*
X139629690Y-97206666D01*
X139629690Y-97206666D02*
X139653500Y-97230476D01*
X139653500Y-97230476D02*
X139677309Y-97278095D01*
X139677309Y-97278095D02*
X139677309Y-97325714D01*
X139677309Y-97325714D02*
X139653500Y-97373333D01*
X139653500Y-97373333D02*
X139629690Y-97397142D01*
X139629690Y-97397142D02*
X139582071Y-97420952D01*
X139582071Y-97420952D02*
X139486833Y-97444761D01*
X139486833Y-97444761D02*
X139367785Y-97444761D01*
X139367785Y-97444761D02*
X139272547Y-97420952D01*
X139272547Y-97420952D02*
X139224928Y-97397142D01*
X139224928Y-97397142D02*
X139201119Y-97373333D01*
X139201119Y-97373333D02*
X139177309Y-97325714D01*
%TO.C,C16*%
X140628571Y-98583690D02*
X140604762Y-98607500D01*
X140604762Y-98607500D02*
X140533333Y-98631309D01*
X140533333Y-98631309D02*
X140485714Y-98631309D01*
X140485714Y-98631309D02*
X140414286Y-98607500D01*
X140414286Y-98607500D02*
X140366667Y-98559880D01*
X140366667Y-98559880D02*
X140342857Y-98512261D01*
X140342857Y-98512261D02*
X140319048Y-98417023D01*
X140319048Y-98417023D02*
X140319048Y-98345595D01*
X140319048Y-98345595D02*
X140342857Y-98250357D01*
X140342857Y-98250357D02*
X140366667Y-98202738D01*
X140366667Y-98202738D02*
X140414286Y-98155119D01*
X140414286Y-98155119D02*
X140485714Y-98131309D01*
X140485714Y-98131309D02*
X140533333Y-98131309D01*
X140533333Y-98131309D02*
X140604762Y-98155119D01*
X140604762Y-98155119D02*
X140628571Y-98178928D01*
X141104762Y-98631309D02*
X140819048Y-98631309D01*
X140961905Y-98631309D02*
X140961905Y-98131309D01*
X140961905Y-98131309D02*
X140914286Y-98202738D01*
X140914286Y-98202738D02*
X140866667Y-98250357D01*
X140866667Y-98250357D02*
X140819048Y-98274166D01*
X141533333Y-98131309D02*
X141438095Y-98131309D01*
X141438095Y-98131309D02*
X141390476Y-98155119D01*
X141390476Y-98155119D02*
X141366666Y-98178928D01*
X141366666Y-98178928D02*
X141319047Y-98250357D01*
X141319047Y-98250357D02*
X141295238Y-98345595D01*
X141295238Y-98345595D02*
X141295238Y-98536071D01*
X141295238Y-98536071D02*
X141319047Y-98583690D01*
X141319047Y-98583690D02*
X141342857Y-98607500D01*
X141342857Y-98607500D02*
X141390476Y-98631309D01*
X141390476Y-98631309D02*
X141485714Y-98631309D01*
X141485714Y-98631309D02*
X141533333Y-98607500D01*
X141533333Y-98607500D02*
X141557142Y-98583690D01*
X141557142Y-98583690D02*
X141580952Y-98536071D01*
X141580952Y-98536071D02*
X141580952Y-98417023D01*
X141580952Y-98417023D02*
X141557142Y-98369404D01*
X141557142Y-98369404D02*
X141533333Y-98345595D01*
X141533333Y-98345595D02*
X141485714Y-98321785D01*
X141485714Y-98321785D02*
X141390476Y-98321785D01*
X141390476Y-98321785D02*
X141342857Y-98345595D01*
X141342857Y-98345595D02*
X141319047Y-98369404D01*
X141319047Y-98369404D02*
X141295238Y-98417023D01*
%TO.C,C22*%
X155507571Y-102545690D02*
X155483762Y-102569500D01*
X155483762Y-102569500D02*
X155412333Y-102593309D01*
X155412333Y-102593309D02*
X155364714Y-102593309D01*
X155364714Y-102593309D02*
X155293286Y-102569500D01*
X155293286Y-102569500D02*
X155245667Y-102521880D01*
X155245667Y-102521880D02*
X155221857Y-102474261D01*
X155221857Y-102474261D02*
X155198048Y-102379023D01*
X155198048Y-102379023D02*
X155198048Y-102307595D01*
X155198048Y-102307595D02*
X155221857Y-102212357D01*
X155221857Y-102212357D02*
X155245667Y-102164738D01*
X155245667Y-102164738D02*
X155293286Y-102117119D01*
X155293286Y-102117119D02*
X155364714Y-102093309D01*
X155364714Y-102093309D02*
X155412333Y-102093309D01*
X155412333Y-102093309D02*
X155483762Y-102117119D01*
X155483762Y-102117119D02*
X155507571Y-102140928D01*
X155698048Y-102140928D02*
X155721857Y-102117119D01*
X155721857Y-102117119D02*
X155769476Y-102093309D01*
X155769476Y-102093309D02*
X155888524Y-102093309D01*
X155888524Y-102093309D02*
X155936143Y-102117119D01*
X155936143Y-102117119D02*
X155959952Y-102140928D01*
X155959952Y-102140928D02*
X155983762Y-102188547D01*
X155983762Y-102188547D02*
X155983762Y-102236166D01*
X155983762Y-102236166D02*
X155959952Y-102307595D01*
X155959952Y-102307595D02*
X155674238Y-102593309D01*
X155674238Y-102593309D02*
X155983762Y-102593309D01*
X156174238Y-102140928D02*
X156198047Y-102117119D01*
X156198047Y-102117119D02*
X156245666Y-102093309D01*
X156245666Y-102093309D02*
X156364714Y-102093309D01*
X156364714Y-102093309D02*
X156412333Y-102117119D01*
X156412333Y-102117119D02*
X156436142Y-102140928D01*
X156436142Y-102140928D02*
X156459952Y-102188547D01*
X156459952Y-102188547D02*
X156459952Y-102236166D01*
X156459952Y-102236166D02*
X156436142Y-102307595D01*
X156436142Y-102307595D02*
X156150428Y-102593309D01*
X156150428Y-102593309D02*
X156459952Y-102593309D01*
%TO.C,RLED1*%
X142598309Y-111124904D02*
X142360214Y-111291570D01*
X142598309Y-111410618D02*
X142098309Y-111410618D01*
X142098309Y-111410618D02*
X142098309Y-111220142D01*
X142098309Y-111220142D02*
X142122119Y-111172523D01*
X142122119Y-111172523D02*
X142145928Y-111148713D01*
X142145928Y-111148713D02*
X142193547Y-111124904D01*
X142193547Y-111124904D02*
X142264976Y-111124904D01*
X142264976Y-111124904D02*
X142312595Y-111148713D01*
X142312595Y-111148713D02*
X142336404Y-111172523D01*
X142336404Y-111172523D02*
X142360214Y-111220142D01*
X142360214Y-111220142D02*
X142360214Y-111410618D01*
X142598309Y-110672523D02*
X142598309Y-110910618D01*
X142598309Y-110910618D02*
X142098309Y-110910618D01*
X142336404Y-110505856D02*
X142336404Y-110339189D01*
X142598309Y-110267761D02*
X142598309Y-110505856D01*
X142598309Y-110505856D02*
X142098309Y-110505856D01*
X142098309Y-110505856D02*
X142098309Y-110267761D01*
X142598309Y-110053475D02*
X142098309Y-110053475D01*
X142098309Y-110053475D02*
X142098309Y-109934427D01*
X142098309Y-109934427D02*
X142122119Y-109862999D01*
X142122119Y-109862999D02*
X142169738Y-109815380D01*
X142169738Y-109815380D02*
X142217357Y-109791570D01*
X142217357Y-109791570D02*
X142312595Y-109767761D01*
X142312595Y-109767761D02*
X142384023Y-109767761D01*
X142384023Y-109767761D02*
X142479261Y-109791570D01*
X142479261Y-109791570D02*
X142526880Y-109815380D01*
X142526880Y-109815380D02*
X142574500Y-109862999D01*
X142574500Y-109862999D02*
X142598309Y-109934427D01*
X142598309Y-109934427D02*
X142598309Y-110053475D01*
X142598309Y-109291570D02*
X142598309Y-109577284D01*
X142598309Y-109434427D02*
X142098309Y-109434427D01*
X142098309Y-109434427D02*
X142169738Y-109482046D01*
X142169738Y-109482046D02*
X142217357Y-109529665D01*
X142217357Y-109529665D02*
X142241166Y-109577284D01*
%TO.C,C3*%
X149649666Y-109149690D02*
X149625857Y-109173500D01*
X149625857Y-109173500D02*
X149554428Y-109197309D01*
X149554428Y-109197309D02*
X149506809Y-109197309D01*
X149506809Y-109197309D02*
X149435381Y-109173500D01*
X149435381Y-109173500D02*
X149387762Y-109125880D01*
X149387762Y-109125880D02*
X149363952Y-109078261D01*
X149363952Y-109078261D02*
X149340143Y-108983023D01*
X149340143Y-108983023D02*
X149340143Y-108911595D01*
X149340143Y-108911595D02*
X149363952Y-108816357D01*
X149363952Y-108816357D02*
X149387762Y-108768738D01*
X149387762Y-108768738D02*
X149435381Y-108721119D01*
X149435381Y-108721119D02*
X149506809Y-108697309D01*
X149506809Y-108697309D02*
X149554428Y-108697309D01*
X149554428Y-108697309D02*
X149625857Y-108721119D01*
X149625857Y-108721119D02*
X149649666Y-108744928D01*
X149816333Y-108697309D02*
X150125857Y-108697309D01*
X150125857Y-108697309D02*
X149959190Y-108887785D01*
X149959190Y-108887785D02*
X150030619Y-108887785D01*
X150030619Y-108887785D02*
X150078238Y-108911595D01*
X150078238Y-108911595D02*
X150102047Y-108935404D01*
X150102047Y-108935404D02*
X150125857Y-108983023D01*
X150125857Y-108983023D02*
X150125857Y-109102071D01*
X150125857Y-109102071D02*
X150102047Y-109149690D01*
X150102047Y-109149690D02*
X150078238Y-109173500D01*
X150078238Y-109173500D02*
X150030619Y-109197309D01*
X150030619Y-109197309D02*
X149887762Y-109197309D01*
X149887762Y-109197309D02*
X149840143Y-109173500D01*
X149840143Y-109173500D02*
X149816333Y-109149690D01*
%TO.C,R8*%
X138534309Y-102953333D02*
X138296214Y-103119999D01*
X138534309Y-103239047D02*
X138034309Y-103239047D01*
X138034309Y-103239047D02*
X138034309Y-103048571D01*
X138034309Y-103048571D02*
X138058119Y-103000952D01*
X138058119Y-103000952D02*
X138081928Y-102977142D01*
X138081928Y-102977142D02*
X138129547Y-102953333D01*
X138129547Y-102953333D02*
X138200976Y-102953333D01*
X138200976Y-102953333D02*
X138248595Y-102977142D01*
X138248595Y-102977142D02*
X138272404Y-103000952D01*
X138272404Y-103000952D02*
X138296214Y-103048571D01*
X138296214Y-103048571D02*
X138296214Y-103239047D01*
X138248595Y-102667618D02*
X138224785Y-102715237D01*
X138224785Y-102715237D02*
X138200976Y-102739047D01*
X138200976Y-102739047D02*
X138153357Y-102762856D01*
X138153357Y-102762856D02*
X138129547Y-102762856D01*
X138129547Y-102762856D02*
X138081928Y-102739047D01*
X138081928Y-102739047D02*
X138058119Y-102715237D01*
X138058119Y-102715237D02*
X138034309Y-102667618D01*
X138034309Y-102667618D02*
X138034309Y-102572380D01*
X138034309Y-102572380D02*
X138058119Y-102524761D01*
X138058119Y-102524761D02*
X138081928Y-102500952D01*
X138081928Y-102500952D02*
X138129547Y-102477142D01*
X138129547Y-102477142D02*
X138153357Y-102477142D01*
X138153357Y-102477142D02*
X138200976Y-102500952D01*
X138200976Y-102500952D02*
X138224785Y-102524761D01*
X138224785Y-102524761D02*
X138248595Y-102572380D01*
X138248595Y-102572380D02*
X138248595Y-102667618D01*
X138248595Y-102667618D02*
X138272404Y-102715237D01*
X138272404Y-102715237D02*
X138296214Y-102739047D01*
X138296214Y-102739047D02*
X138343833Y-102762856D01*
X138343833Y-102762856D02*
X138439071Y-102762856D01*
X138439071Y-102762856D02*
X138486690Y-102739047D01*
X138486690Y-102739047D02*
X138510500Y-102715237D01*
X138510500Y-102715237D02*
X138534309Y-102667618D01*
X138534309Y-102667618D02*
X138534309Y-102572380D01*
X138534309Y-102572380D02*
X138510500Y-102524761D01*
X138510500Y-102524761D02*
X138486690Y-102500952D01*
X138486690Y-102500952D02*
X138439071Y-102477142D01*
X138439071Y-102477142D02*
X138343833Y-102477142D01*
X138343833Y-102477142D02*
X138296214Y-102500952D01*
X138296214Y-102500952D02*
X138272404Y-102524761D01*
X138272404Y-102524761D02*
X138248595Y-102572380D01*
%TO.C,C4*%
X151948690Y-94063333D02*
X151972500Y-94087142D01*
X151972500Y-94087142D02*
X151996309Y-94158571D01*
X151996309Y-94158571D02*
X151996309Y-94206190D01*
X151996309Y-94206190D02*
X151972500Y-94277618D01*
X151972500Y-94277618D02*
X151924880Y-94325237D01*
X151924880Y-94325237D02*
X151877261Y-94349047D01*
X151877261Y-94349047D02*
X151782023Y-94372856D01*
X151782023Y-94372856D02*
X151710595Y-94372856D01*
X151710595Y-94372856D02*
X151615357Y-94349047D01*
X151615357Y-94349047D02*
X151567738Y-94325237D01*
X151567738Y-94325237D02*
X151520119Y-94277618D01*
X151520119Y-94277618D02*
X151496309Y-94206190D01*
X151496309Y-94206190D02*
X151496309Y-94158571D01*
X151496309Y-94158571D02*
X151520119Y-94087142D01*
X151520119Y-94087142D02*
X151543928Y-94063333D01*
X151662976Y-93634761D02*
X151996309Y-93634761D01*
X151472500Y-93753809D02*
X151829642Y-93872856D01*
X151829642Y-93872856D02*
X151829642Y-93563333D01*
%TO.C,C1*%
X158412666Y-91369690D02*
X158388857Y-91393500D01*
X158388857Y-91393500D02*
X158317428Y-91417309D01*
X158317428Y-91417309D02*
X158269809Y-91417309D01*
X158269809Y-91417309D02*
X158198381Y-91393500D01*
X158198381Y-91393500D02*
X158150762Y-91345880D01*
X158150762Y-91345880D02*
X158126952Y-91298261D01*
X158126952Y-91298261D02*
X158103143Y-91203023D01*
X158103143Y-91203023D02*
X158103143Y-91131595D01*
X158103143Y-91131595D02*
X158126952Y-91036357D01*
X158126952Y-91036357D02*
X158150762Y-90988738D01*
X158150762Y-90988738D02*
X158198381Y-90941119D01*
X158198381Y-90941119D02*
X158269809Y-90917309D01*
X158269809Y-90917309D02*
X158317428Y-90917309D01*
X158317428Y-90917309D02*
X158388857Y-90941119D01*
X158388857Y-90941119D02*
X158412666Y-90964928D01*
X158888857Y-91417309D02*
X158603143Y-91417309D01*
X158746000Y-91417309D02*
X158746000Y-90917309D01*
X158746000Y-90917309D02*
X158698381Y-90988738D01*
X158698381Y-90988738D02*
X158650762Y-91036357D01*
X158650762Y-91036357D02*
X158603143Y-91060166D01*
%TO.C,C21*%
X138108571Y-107498690D02*
X138084762Y-107522500D01*
X138084762Y-107522500D02*
X138013333Y-107546309D01*
X138013333Y-107546309D02*
X137965714Y-107546309D01*
X137965714Y-107546309D02*
X137894286Y-107522500D01*
X137894286Y-107522500D02*
X137846667Y-107474880D01*
X137846667Y-107474880D02*
X137822857Y-107427261D01*
X137822857Y-107427261D02*
X137799048Y-107332023D01*
X137799048Y-107332023D02*
X137799048Y-107260595D01*
X137799048Y-107260595D02*
X137822857Y-107165357D01*
X137822857Y-107165357D02*
X137846667Y-107117738D01*
X137846667Y-107117738D02*
X137894286Y-107070119D01*
X137894286Y-107070119D02*
X137965714Y-107046309D01*
X137965714Y-107046309D02*
X138013333Y-107046309D01*
X138013333Y-107046309D02*
X138084762Y-107070119D01*
X138084762Y-107070119D02*
X138108571Y-107093928D01*
X138299048Y-107093928D02*
X138322857Y-107070119D01*
X138322857Y-107070119D02*
X138370476Y-107046309D01*
X138370476Y-107046309D02*
X138489524Y-107046309D01*
X138489524Y-107046309D02*
X138537143Y-107070119D01*
X138537143Y-107070119D02*
X138560952Y-107093928D01*
X138560952Y-107093928D02*
X138584762Y-107141547D01*
X138584762Y-107141547D02*
X138584762Y-107189166D01*
X138584762Y-107189166D02*
X138560952Y-107260595D01*
X138560952Y-107260595D02*
X138275238Y-107546309D01*
X138275238Y-107546309D02*
X138584762Y-107546309D01*
X139060952Y-107546309D02*
X138775238Y-107546309D01*
X138918095Y-107546309D02*
X138918095Y-107046309D01*
X138918095Y-107046309D02*
X138870476Y-107117738D01*
X138870476Y-107117738D02*
X138822857Y-107165357D01*
X138822857Y-107165357D02*
X138775238Y-107189166D01*
%TO.C,C24*%
X152967571Y-83749690D02*
X152943762Y-83773500D01*
X152943762Y-83773500D02*
X152872333Y-83797309D01*
X152872333Y-83797309D02*
X152824714Y-83797309D01*
X152824714Y-83797309D02*
X152753286Y-83773500D01*
X152753286Y-83773500D02*
X152705667Y-83725880D01*
X152705667Y-83725880D02*
X152681857Y-83678261D01*
X152681857Y-83678261D02*
X152658048Y-83583023D01*
X152658048Y-83583023D02*
X152658048Y-83511595D01*
X152658048Y-83511595D02*
X152681857Y-83416357D01*
X152681857Y-83416357D02*
X152705667Y-83368738D01*
X152705667Y-83368738D02*
X152753286Y-83321119D01*
X152753286Y-83321119D02*
X152824714Y-83297309D01*
X152824714Y-83297309D02*
X152872333Y-83297309D01*
X152872333Y-83297309D02*
X152943762Y-83321119D01*
X152943762Y-83321119D02*
X152967571Y-83344928D01*
X153158048Y-83344928D02*
X153181857Y-83321119D01*
X153181857Y-83321119D02*
X153229476Y-83297309D01*
X153229476Y-83297309D02*
X153348524Y-83297309D01*
X153348524Y-83297309D02*
X153396143Y-83321119D01*
X153396143Y-83321119D02*
X153419952Y-83344928D01*
X153419952Y-83344928D02*
X153443762Y-83392547D01*
X153443762Y-83392547D02*
X153443762Y-83440166D01*
X153443762Y-83440166D02*
X153419952Y-83511595D01*
X153419952Y-83511595D02*
X153134238Y-83797309D01*
X153134238Y-83797309D02*
X153443762Y-83797309D01*
X153872333Y-83463976D02*
X153872333Y-83797309D01*
X153753285Y-83273500D02*
X153634238Y-83630642D01*
X153634238Y-83630642D02*
X153943761Y-83630642D01*
%TO.C,D2*%
X135520952Y-97259309D02*
X135520952Y-96759309D01*
X135520952Y-96759309D02*
X135640000Y-96759309D01*
X135640000Y-96759309D02*
X135711428Y-96783119D01*
X135711428Y-96783119D02*
X135759047Y-96830738D01*
X135759047Y-96830738D02*
X135782857Y-96878357D01*
X135782857Y-96878357D02*
X135806666Y-96973595D01*
X135806666Y-96973595D02*
X135806666Y-97045023D01*
X135806666Y-97045023D02*
X135782857Y-97140261D01*
X135782857Y-97140261D02*
X135759047Y-97187880D01*
X135759047Y-97187880D02*
X135711428Y-97235500D01*
X135711428Y-97235500D02*
X135640000Y-97259309D01*
X135640000Y-97259309D02*
X135520952Y-97259309D01*
X135997143Y-96806928D02*
X136020952Y-96783119D01*
X136020952Y-96783119D02*
X136068571Y-96759309D01*
X136068571Y-96759309D02*
X136187619Y-96759309D01*
X136187619Y-96759309D02*
X136235238Y-96783119D01*
X136235238Y-96783119D02*
X136259047Y-96806928D01*
X136259047Y-96806928D02*
X136282857Y-96854547D01*
X136282857Y-96854547D02*
X136282857Y-96902166D01*
X136282857Y-96902166D02*
X136259047Y-96973595D01*
X136259047Y-96973595D02*
X135973333Y-97259309D01*
X135973333Y-97259309D02*
X136282857Y-97259309D01*
%TO.C,F1*%
X156043334Y-87049404D02*
X155876667Y-87049404D01*
X155876667Y-87311309D02*
X155876667Y-86811309D01*
X155876667Y-86811309D02*
X156114762Y-86811309D01*
X156567143Y-87311309D02*
X156281429Y-87311309D01*
X156424286Y-87311309D02*
X156424286Y-86811309D01*
X156424286Y-86811309D02*
X156376667Y-86882738D01*
X156376667Y-86882738D02*
X156329048Y-86930357D01*
X156329048Y-86930357D02*
X156281429Y-86954166D01*
%TO.C,C5*%
X142537666Y-91496690D02*
X142513857Y-91520500D01*
X142513857Y-91520500D02*
X142442428Y-91544309D01*
X142442428Y-91544309D02*
X142394809Y-91544309D01*
X142394809Y-91544309D02*
X142323381Y-91520500D01*
X142323381Y-91520500D02*
X142275762Y-91472880D01*
X142275762Y-91472880D02*
X142251952Y-91425261D01*
X142251952Y-91425261D02*
X142228143Y-91330023D01*
X142228143Y-91330023D02*
X142228143Y-91258595D01*
X142228143Y-91258595D02*
X142251952Y-91163357D01*
X142251952Y-91163357D02*
X142275762Y-91115738D01*
X142275762Y-91115738D02*
X142323381Y-91068119D01*
X142323381Y-91068119D02*
X142394809Y-91044309D01*
X142394809Y-91044309D02*
X142442428Y-91044309D01*
X142442428Y-91044309D02*
X142513857Y-91068119D01*
X142513857Y-91068119D02*
X142537666Y-91091928D01*
X142990047Y-91044309D02*
X142751952Y-91044309D01*
X142751952Y-91044309D02*
X142728143Y-91282404D01*
X142728143Y-91282404D02*
X142751952Y-91258595D01*
X142751952Y-91258595D02*
X142799571Y-91234785D01*
X142799571Y-91234785D02*
X142918619Y-91234785D01*
X142918619Y-91234785D02*
X142966238Y-91258595D01*
X142966238Y-91258595D02*
X142990047Y-91282404D01*
X142990047Y-91282404D02*
X143013857Y-91330023D01*
X143013857Y-91330023D02*
X143013857Y-91449071D01*
X143013857Y-91449071D02*
X142990047Y-91496690D01*
X142990047Y-91496690D02*
X142966238Y-91520500D01*
X142966238Y-91520500D02*
X142918619Y-91544309D01*
X142918619Y-91544309D02*
X142799571Y-91544309D01*
X142799571Y-91544309D02*
X142751952Y-91520500D01*
X142751952Y-91520500D02*
X142728143Y-91496690D01*
%TO.C,R4*%
X148059309Y-91904333D02*
X147821214Y-92070999D01*
X148059309Y-92190047D02*
X147559309Y-92190047D01*
X147559309Y-92190047D02*
X147559309Y-91999571D01*
X147559309Y-91999571D02*
X147583119Y-91951952D01*
X147583119Y-91951952D02*
X147606928Y-91928142D01*
X147606928Y-91928142D02*
X147654547Y-91904333D01*
X147654547Y-91904333D02*
X147725976Y-91904333D01*
X147725976Y-91904333D02*
X147773595Y-91928142D01*
X147773595Y-91928142D02*
X147797404Y-91951952D01*
X147797404Y-91951952D02*
X147821214Y-91999571D01*
X147821214Y-91999571D02*
X147821214Y-92190047D01*
X147725976Y-91475761D02*
X148059309Y-91475761D01*
X147535500Y-91594809D02*
X147892642Y-91713856D01*
X147892642Y-91713856D02*
X147892642Y-91404333D01*
%TO.C,H3*%
X126619047Y-111331309D02*
X126619047Y-110831309D01*
X126619047Y-111069404D02*
X126904761Y-111069404D01*
X126904761Y-111331309D02*
X126904761Y-110831309D01*
X127095238Y-110831309D02*
X127404762Y-110831309D01*
X127404762Y-110831309D02*
X127238095Y-111021785D01*
X127238095Y-111021785D02*
X127309524Y-111021785D01*
X127309524Y-111021785D02*
X127357143Y-111045595D01*
X127357143Y-111045595D02*
X127380952Y-111069404D01*
X127380952Y-111069404D02*
X127404762Y-111117023D01*
X127404762Y-111117023D02*
X127404762Y-111236071D01*
X127404762Y-111236071D02*
X127380952Y-111283690D01*
X127380952Y-111283690D02*
X127357143Y-111307500D01*
X127357143Y-111307500D02*
X127309524Y-111331309D01*
X127309524Y-111331309D02*
X127166667Y-111331309D01*
X127166667Y-111331309D02*
X127119048Y-111307500D01*
X127119048Y-111307500D02*
X127095238Y-111283690D01*
%TO.C,D6*%
X155840952Y-97259309D02*
X155840952Y-96759309D01*
X155840952Y-96759309D02*
X155960000Y-96759309D01*
X155960000Y-96759309D02*
X156031428Y-96783119D01*
X156031428Y-96783119D02*
X156079047Y-96830738D01*
X156079047Y-96830738D02*
X156102857Y-96878357D01*
X156102857Y-96878357D02*
X156126666Y-96973595D01*
X156126666Y-96973595D02*
X156126666Y-97045023D01*
X156126666Y-97045023D02*
X156102857Y-97140261D01*
X156102857Y-97140261D02*
X156079047Y-97187880D01*
X156079047Y-97187880D02*
X156031428Y-97235500D01*
X156031428Y-97235500D02*
X155960000Y-97259309D01*
X155960000Y-97259309D02*
X155840952Y-97259309D01*
X156555238Y-96759309D02*
X156460000Y-96759309D01*
X156460000Y-96759309D02*
X156412381Y-96783119D01*
X156412381Y-96783119D02*
X156388571Y-96806928D01*
X156388571Y-96806928D02*
X156340952Y-96878357D01*
X156340952Y-96878357D02*
X156317143Y-96973595D01*
X156317143Y-96973595D02*
X156317143Y-97164071D01*
X156317143Y-97164071D02*
X156340952Y-97211690D01*
X156340952Y-97211690D02*
X156364762Y-97235500D01*
X156364762Y-97235500D02*
X156412381Y-97259309D01*
X156412381Y-97259309D02*
X156507619Y-97259309D01*
X156507619Y-97259309D02*
X156555238Y-97235500D01*
X156555238Y-97235500D02*
X156579047Y-97211690D01*
X156579047Y-97211690D02*
X156602857Y-97164071D01*
X156602857Y-97164071D02*
X156602857Y-97045023D01*
X156602857Y-97045023D02*
X156579047Y-96997404D01*
X156579047Y-96997404D02*
X156555238Y-96973595D01*
X156555238Y-96973595D02*
X156507619Y-96949785D01*
X156507619Y-96949785D02*
X156412381Y-96949785D01*
X156412381Y-96949785D02*
X156364762Y-96973595D01*
X156364762Y-96973595D02*
X156340952Y-96997404D01*
X156340952Y-96997404D02*
X156317143Y-97045023D01*
%TO.C,U3*%
X145669047Y-96759309D02*
X145669047Y-97164071D01*
X145669047Y-97164071D02*
X145692857Y-97211690D01*
X145692857Y-97211690D02*
X145716666Y-97235500D01*
X145716666Y-97235500D02*
X145764285Y-97259309D01*
X145764285Y-97259309D02*
X145859523Y-97259309D01*
X145859523Y-97259309D02*
X145907142Y-97235500D01*
X145907142Y-97235500D02*
X145930952Y-97211690D01*
X145930952Y-97211690D02*
X145954761Y-97164071D01*
X145954761Y-97164071D02*
X145954761Y-96759309D01*
X146145238Y-96759309D02*
X146454762Y-96759309D01*
X146454762Y-96759309D02*
X146288095Y-96949785D01*
X146288095Y-96949785D02*
X146359524Y-96949785D01*
X146359524Y-96949785D02*
X146407143Y-96973595D01*
X146407143Y-96973595D02*
X146430952Y-96997404D01*
X146430952Y-96997404D02*
X146454762Y-97045023D01*
X146454762Y-97045023D02*
X146454762Y-97164071D01*
X146454762Y-97164071D02*
X146430952Y-97211690D01*
X146430952Y-97211690D02*
X146407143Y-97235500D01*
X146407143Y-97235500D02*
X146359524Y-97259309D01*
X146359524Y-97259309D02*
X146216667Y-97259309D01*
X146216667Y-97259309D02*
X146169048Y-97235500D01*
X146169048Y-97235500D02*
X146145238Y-97211690D01*
%TO.C,U6*%
X155829047Y-95870309D02*
X155829047Y-96275071D01*
X155829047Y-96275071D02*
X155852857Y-96322690D01*
X155852857Y-96322690D02*
X155876666Y-96346500D01*
X155876666Y-96346500D02*
X155924285Y-96370309D01*
X155924285Y-96370309D02*
X156019523Y-96370309D01*
X156019523Y-96370309D02*
X156067142Y-96346500D01*
X156067142Y-96346500D02*
X156090952Y-96322690D01*
X156090952Y-96322690D02*
X156114761Y-96275071D01*
X156114761Y-96275071D02*
X156114761Y-95870309D01*
X156567143Y-95870309D02*
X156471905Y-95870309D01*
X156471905Y-95870309D02*
X156424286Y-95894119D01*
X156424286Y-95894119D02*
X156400476Y-95917928D01*
X156400476Y-95917928D02*
X156352857Y-95989357D01*
X156352857Y-95989357D02*
X156329048Y-96084595D01*
X156329048Y-96084595D02*
X156329048Y-96275071D01*
X156329048Y-96275071D02*
X156352857Y-96322690D01*
X156352857Y-96322690D02*
X156376667Y-96346500D01*
X156376667Y-96346500D02*
X156424286Y-96370309D01*
X156424286Y-96370309D02*
X156519524Y-96370309D01*
X156519524Y-96370309D02*
X156567143Y-96346500D01*
X156567143Y-96346500D02*
X156590952Y-96322690D01*
X156590952Y-96322690D02*
X156614762Y-96275071D01*
X156614762Y-96275071D02*
X156614762Y-96156023D01*
X156614762Y-96156023D02*
X156590952Y-96108404D01*
X156590952Y-96108404D02*
X156567143Y-96084595D01*
X156567143Y-96084595D02*
X156519524Y-96060785D01*
X156519524Y-96060785D02*
X156424286Y-96060785D01*
X156424286Y-96060785D02*
X156376667Y-96084595D01*
X156376667Y-96084595D02*
X156352857Y-96108404D01*
X156352857Y-96108404D02*
X156329048Y-96156023D01*
%TO.C,D7*%
X145192952Y-85735309D02*
X145192952Y-85235309D01*
X145192952Y-85235309D02*
X145312000Y-85235309D01*
X145312000Y-85235309D02*
X145383428Y-85259119D01*
X145383428Y-85259119D02*
X145431047Y-85306738D01*
X145431047Y-85306738D02*
X145454857Y-85354357D01*
X145454857Y-85354357D02*
X145478666Y-85449595D01*
X145478666Y-85449595D02*
X145478666Y-85521023D01*
X145478666Y-85521023D02*
X145454857Y-85616261D01*
X145454857Y-85616261D02*
X145431047Y-85663880D01*
X145431047Y-85663880D02*
X145383428Y-85711500D01*
X145383428Y-85711500D02*
X145312000Y-85735309D01*
X145312000Y-85735309D02*
X145192952Y-85735309D01*
X145645333Y-85235309D02*
X145978666Y-85235309D01*
X145978666Y-85235309D02*
X145764381Y-85735309D01*
%TO.C,H1*%
X126619047Y-93551309D02*
X126619047Y-93051309D01*
X126619047Y-93289404D02*
X126904761Y-93289404D01*
X126904761Y-93551309D02*
X126904761Y-93051309D01*
X127404762Y-93551309D02*
X127119048Y-93551309D01*
X127261905Y-93551309D02*
X127261905Y-93051309D01*
X127261905Y-93051309D02*
X127214286Y-93122738D01*
X127214286Y-93122738D02*
X127166667Y-93170357D01*
X127166667Y-93170357D02*
X127119048Y-93194166D01*
%TO.C,D5*%
X155840952Y-82019309D02*
X155840952Y-81519309D01*
X155840952Y-81519309D02*
X155960000Y-81519309D01*
X155960000Y-81519309D02*
X156031428Y-81543119D01*
X156031428Y-81543119D02*
X156079047Y-81590738D01*
X156079047Y-81590738D02*
X156102857Y-81638357D01*
X156102857Y-81638357D02*
X156126666Y-81733595D01*
X156126666Y-81733595D02*
X156126666Y-81805023D01*
X156126666Y-81805023D02*
X156102857Y-81900261D01*
X156102857Y-81900261D02*
X156079047Y-81947880D01*
X156079047Y-81947880D02*
X156031428Y-81995500D01*
X156031428Y-81995500D02*
X155960000Y-82019309D01*
X155960000Y-82019309D02*
X155840952Y-82019309D01*
X156579047Y-81519309D02*
X156340952Y-81519309D01*
X156340952Y-81519309D02*
X156317143Y-81757404D01*
X156317143Y-81757404D02*
X156340952Y-81733595D01*
X156340952Y-81733595D02*
X156388571Y-81709785D01*
X156388571Y-81709785D02*
X156507619Y-81709785D01*
X156507619Y-81709785D02*
X156555238Y-81733595D01*
X156555238Y-81733595D02*
X156579047Y-81757404D01*
X156579047Y-81757404D02*
X156602857Y-81805023D01*
X156602857Y-81805023D02*
X156602857Y-81924071D01*
X156602857Y-81924071D02*
X156579047Y-81971690D01*
X156579047Y-81971690D02*
X156555238Y-81995500D01*
X156555238Y-81995500D02*
X156507619Y-82019309D01*
X156507619Y-82019309D02*
X156388571Y-82019309D01*
X156388571Y-82019309D02*
X156340952Y-81995500D01*
X156340952Y-81995500D02*
X156317143Y-81971690D01*
%TO.C,C7*%
X143820690Y-94952333D02*
X143844500Y-94976142D01*
X143844500Y-94976142D02*
X143868309Y-95047571D01*
X143868309Y-95047571D02*
X143868309Y-95095190D01*
X143868309Y-95095190D02*
X143844500Y-95166618D01*
X143844500Y-95166618D02*
X143796880Y-95214237D01*
X143796880Y-95214237D02*
X143749261Y-95238047D01*
X143749261Y-95238047D02*
X143654023Y-95261856D01*
X143654023Y-95261856D02*
X143582595Y-95261856D01*
X143582595Y-95261856D02*
X143487357Y-95238047D01*
X143487357Y-95238047D02*
X143439738Y-95214237D01*
X143439738Y-95214237D02*
X143392119Y-95166618D01*
X143392119Y-95166618D02*
X143368309Y-95095190D01*
X143368309Y-95095190D02*
X143368309Y-95047571D01*
X143368309Y-95047571D02*
X143392119Y-94976142D01*
X143392119Y-94976142D02*
X143415928Y-94952333D01*
X143368309Y-94785666D02*
X143368309Y-94452333D01*
X143368309Y-94452333D02*
X143868309Y-94666618D01*
%TO.C,SW1*%
X132347500Y-92716665D02*
X132371309Y-92645237D01*
X132371309Y-92645237D02*
X132371309Y-92526189D01*
X132371309Y-92526189D02*
X132347500Y-92478570D01*
X132347500Y-92478570D02*
X132323690Y-92454761D01*
X132323690Y-92454761D02*
X132276071Y-92430951D01*
X132276071Y-92430951D02*
X132228452Y-92430951D01*
X132228452Y-92430951D02*
X132180833Y-92454761D01*
X132180833Y-92454761D02*
X132157023Y-92478570D01*
X132157023Y-92478570D02*
X132133214Y-92526189D01*
X132133214Y-92526189D02*
X132109404Y-92621427D01*
X132109404Y-92621427D02*
X132085595Y-92669046D01*
X132085595Y-92669046D02*
X132061785Y-92692856D01*
X132061785Y-92692856D02*
X132014166Y-92716665D01*
X132014166Y-92716665D02*
X131966547Y-92716665D01*
X131966547Y-92716665D02*
X131918928Y-92692856D01*
X131918928Y-92692856D02*
X131895119Y-92669046D01*
X131895119Y-92669046D02*
X131871309Y-92621427D01*
X131871309Y-92621427D02*
X131871309Y-92502380D01*
X131871309Y-92502380D02*
X131895119Y-92430951D01*
X131871309Y-92264285D02*
X132371309Y-92145237D01*
X132371309Y-92145237D02*
X132014166Y-92049999D01*
X132014166Y-92049999D02*
X132371309Y-91954761D01*
X132371309Y-91954761D02*
X131871309Y-91835714D01*
X132371309Y-91383332D02*
X132371309Y-91669046D01*
X132371309Y-91526189D02*
X131871309Y-91526189D01*
X131871309Y-91526189D02*
X131942738Y-91573808D01*
X131942738Y-91573808D02*
X131990357Y-91621427D01*
X131990357Y-91621427D02*
X132014166Y-91669046D01*
%TO.C,R3*%
X146916309Y-91904333D02*
X146678214Y-92070999D01*
X146916309Y-92190047D02*
X146416309Y-92190047D01*
X146416309Y-92190047D02*
X146416309Y-91999571D01*
X146416309Y-91999571D02*
X146440119Y-91951952D01*
X146440119Y-91951952D02*
X146463928Y-91928142D01*
X146463928Y-91928142D02*
X146511547Y-91904333D01*
X146511547Y-91904333D02*
X146582976Y-91904333D01*
X146582976Y-91904333D02*
X146630595Y-91928142D01*
X146630595Y-91928142D02*
X146654404Y-91951952D01*
X146654404Y-91951952D02*
X146678214Y-91999571D01*
X146678214Y-91999571D02*
X146678214Y-92190047D01*
X146416309Y-91737666D02*
X146416309Y-91428142D01*
X146416309Y-91428142D02*
X146606785Y-91594809D01*
X146606785Y-91594809D02*
X146606785Y-91523380D01*
X146606785Y-91523380D02*
X146630595Y-91475761D01*
X146630595Y-91475761D02*
X146654404Y-91451952D01*
X146654404Y-91451952D02*
X146702023Y-91428142D01*
X146702023Y-91428142D02*
X146821071Y-91428142D01*
X146821071Y-91428142D02*
X146868690Y-91451952D01*
X146868690Y-91451952D02*
X146892500Y-91475761D01*
X146892500Y-91475761D02*
X146916309Y-91523380D01*
X146916309Y-91523380D02*
X146916309Y-91666237D01*
X146916309Y-91666237D02*
X146892500Y-91713856D01*
X146892500Y-91713856D02*
X146868690Y-91737666D01*
%TO.C,RLED2*%
X152781095Y-108308309D02*
X152614429Y-108070214D01*
X152495381Y-108308309D02*
X152495381Y-107808309D01*
X152495381Y-107808309D02*
X152685857Y-107808309D01*
X152685857Y-107808309D02*
X152733476Y-107832119D01*
X152733476Y-107832119D02*
X152757286Y-107855928D01*
X152757286Y-107855928D02*
X152781095Y-107903547D01*
X152781095Y-107903547D02*
X152781095Y-107974976D01*
X152781095Y-107974976D02*
X152757286Y-108022595D01*
X152757286Y-108022595D02*
X152733476Y-108046404D01*
X152733476Y-108046404D02*
X152685857Y-108070214D01*
X152685857Y-108070214D02*
X152495381Y-108070214D01*
X153233476Y-108308309D02*
X152995381Y-108308309D01*
X152995381Y-108308309D02*
X152995381Y-107808309D01*
X153400143Y-108046404D02*
X153566810Y-108046404D01*
X153638238Y-108308309D02*
X153400143Y-108308309D01*
X153400143Y-108308309D02*
X153400143Y-107808309D01*
X153400143Y-107808309D02*
X153638238Y-107808309D01*
X153852524Y-108308309D02*
X153852524Y-107808309D01*
X153852524Y-107808309D02*
X153971572Y-107808309D01*
X153971572Y-107808309D02*
X154043000Y-107832119D01*
X154043000Y-107832119D02*
X154090619Y-107879738D01*
X154090619Y-107879738D02*
X154114429Y-107927357D01*
X154114429Y-107927357D02*
X154138238Y-108022595D01*
X154138238Y-108022595D02*
X154138238Y-108094023D01*
X154138238Y-108094023D02*
X154114429Y-108189261D01*
X154114429Y-108189261D02*
X154090619Y-108236880D01*
X154090619Y-108236880D02*
X154043000Y-108284500D01*
X154043000Y-108284500D02*
X153971572Y-108308309D01*
X153971572Y-108308309D02*
X153852524Y-108308309D01*
X154328715Y-107855928D02*
X154352524Y-107832119D01*
X154352524Y-107832119D02*
X154400143Y-107808309D01*
X154400143Y-107808309D02*
X154519191Y-107808309D01*
X154519191Y-107808309D02*
X154566810Y-107832119D01*
X154566810Y-107832119D02*
X154590619Y-107855928D01*
X154590619Y-107855928D02*
X154614429Y-107903547D01*
X154614429Y-107903547D02*
X154614429Y-107951166D01*
X154614429Y-107951166D02*
X154590619Y-108022595D01*
X154590619Y-108022595D02*
X154304905Y-108308309D01*
X154304905Y-108308309D02*
X154614429Y-108308309D01*
%TO.C,C13*%
X151948690Y-102921428D02*
X151972500Y-102945237D01*
X151972500Y-102945237D02*
X151996309Y-103016666D01*
X151996309Y-103016666D02*
X151996309Y-103064285D01*
X151996309Y-103064285D02*
X151972500Y-103135713D01*
X151972500Y-103135713D02*
X151924880Y-103183332D01*
X151924880Y-103183332D02*
X151877261Y-103207142D01*
X151877261Y-103207142D02*
X151782023Y-103230951D01*
X151782023Y-103230951D02*
X151710595Y-103230951D01*
X151710595Y-103230951D02*
X151615357Y-103207142D01*
X151615357Y-103207142D02*
X151567738Y-103183332D01*
X151567738Y-103183332D02*
X151520119Y-103135713D01*
X151520119Y-103135713D02*
X151496309Y-103064285D01*
X151496309Y-103064285D02*
X151496309Y-103016666D01*
X151496309Y-103016666D02*
X151520119Y-102945237D01*
X151520119Y-102945237D02*
X151543928Y-102921428D01*
X151996309Y-102445237D02*
X151996309Y-102730951D01*
X151996309Y-102588094D02*
X151496309Y-102588094D01*
X151496309Y-102588094D02*
X151567738Y-102635713D01*
X151567738Y-102635713D02*
X151615357Y-102683332D01*
X151615357Y-102683332D02*
X151639166Y-102730951D01*
X151496309Y-102278571D02*
X151496309Y-101969047D01*
X151496309Y-101969047D02*
X151686785Y-102135714D01*
X151686785Y-102135714D02*
X151686785Y-102064285D01*
X151686785Y-102064285D02*
X151710595Y-102016666D01*
X151710595Y-102016666D02*
X151734404Y-101992857D01*
X151734404Y-101992857D02*
X151782023Y-101969047D01*
X151782023Y-101969047D02*
X151901071Y-101969047D01*
X151901071Y-101969047D02*
X151948690Y-101992857D01*
X151948690Y-101992857D02*
X151972500Y-102016666D01*
X151972500Y-102016666D02*
X151996309Y-102064285D01*
X151996309Y-102064285D02*
X151996309Y-102207142D01*
X151996309Y-102207142D02*
X151972500Y-102254761D01*
X151972500Y-102254761D02*
X151948690Y-102278571D01*
%TO.C,R7*%
X154028309Y-104858333D02*
X153790214Y-105024999D01*
X154028309Y-105144047D02*
X153528309Y-105144047D01*
X153528309Y-105144047D02*
X153528309Y-104953571D01*
X153528309Y-104953571D02*
X153552119Y-104905952D01*
X153552119Y-104905952D02*
X153575928Y-104882142D01*
X153575928Y-104882142D02*
X153623547Y-104858333D01*
X153623547Y-104858333D02*
X153694976Y-104858333D01*
X153694976Y-104858333D02*
X153742595Y-104882142D01*
X153742595Y-104882142D02*
X153766404Y-104905952D01*
X153766404Y-104905952D02*
X153790214Y-104953571D01*
X153790214Y-104953571D02*
X153790214Y-105144047D01*
X153528309Y-104691666D02*
X153528309Y-104358333D01*
X153528309Y-104358333D02*
X154028309Y-104572618D01*
%TO.C,R5*%
X146982666Y-106276309D02*
X146816000Y-106038214D01*
X146696952Y-106276309D02*
X146696952Y-105776309D01*
X146696952Y-105776309D02*
X146887428Y-105776309D01*
X146887428Y-105776309D02*
X146935047Y-105800119D01*
X146935047Y-105800119D02*
X146958857Y-105823928D01*
X146958857Y-105823928D02*
X146982666Y-105871547D01*
X146982666Y-105871547D02*
X146982666Y-105942976D01*
X146982666Y-105942976D02*
X146958857Y-105990595D01*
X146958857Y-105990595D02*
X146935047Y-106014404D01*
X146935047Y-106014404D02*
X146887428Y-106038214D01*
X146887428Y-106038214D02*
X146696952Y-106038214D01*
X147435047Y-105776309D02*
X147196952Y-105776309D01*
X147196952Y-105776309D02*
X147173143Y-106014404D01*
X147173143Y-106014404D02*
X147196952Y-105990595D01*
X147196952Y-105990595D02*
X147244571Y-105966785D01*
X147244571Y-105966785D02*
X147363619Y-105966785D01*
X147363619Y-105966785D02*
X147411238Y-105990595D01*
X147411238Y-105990595D02*
X147435047Y-106014404D01*
X147435047Y-106014404D02*
X147458857Y-106062023D01*
X147458857Y-106062023D02*
X147458857Y-106181071D01*
X147458857Y-106181071D02*
X147435047Y-106228690D01*
X147435047Y-106228690D02*
X147411238Y-106252500D01*
X147411238Y-106252500D02*
X147363619Y-106276309D01*
X147363619Y-106276309D02*
X147244571Y-106276309D01*
X147244571Y-106276309D02*
X147196952Y-106252500D01*
X147196952Y-106252500D02*
X147173143Y-106228690D01*
%TO.C,R2*%
X148633666Y-87174309D02*
X148467000Y-86936214D01*
X148347952Y-87174309D02*
X148347952Y-86674309D01*
X148347952Y-86674309D02*
X148538428Y-86674309D01*
X148538428Y-86674309D02*
X148586047Y-86698119D01*
X148586047Y-86698119D02*
X148609857Y-86721928D01*
X148609857Y-86721928D02*
X148633666Y-86769547D01*
X148633666Y-86769547D02*
X148633666Y-86840976D01*
X148633666Y-86840976D02*
X148609857Y-86888595D01*
X148609857Y-86888595D02*
X148586047Y-86912404D01*
X148586047Y-86912404D02*
X148538428Y-86936214D01*
X148538428Y-86936214D02*
X148347952Y-86936214D01*
X148824143Y-86721928D02*
X148847952Y-86698119D01*
X148847952Y-86698119D02*
X148895571Y-86674309D01*
X148895571Y-86674309D02*
X149014619Y-86674309D01*
X149014619Y-86674309D02*
X149062238Y-86698119D01*
X149062238Y-86698119D02*
X149086047Y-86721928D01*
X149086047Y-86721928D02*
X149109857Y-86769547D01*
X149109857Y-86769547D02*
X149109857Y-86817166D01*
X149109857Y-86817166D02*
X149086047Y-86888595D01*
X149086047Y-86888595D02*
X148800333Y-87174309D01*
X148800333Y-87174309D02*
X149109857Y-87174309D01*
%TO.C,C18*%
X139248690Y-102937428D02*
X139272500Y-102961237D01*
X139272500Y-102961237D02*
X139296309Y-103032666D01*
X139296309Y-103032666D02*
X139296309Y-103080285D01*
X139296309Y-103080285D02*
X139272500Y-103151713D01*
X139272500Y-103151713D02*
X139224880Y-103199332D01*
X139224880Y-103199332D02*
X139177261Y-103223142D01*
X139177261Y-103223142D02*
X139082023Y-103246951D01*
X139082023Y-103246951D02*
X139010595Y-103246951D01*
X139010595Y-103246951D02*
X138915357Y-103223142D01*
X138915357Y-103223142D02*
X138867738Y-103199332D01*
X138867738Y-103199332D02*
X138820119Y-103151713D01*
X138820119Y-103151713D02*
X138796309Y-103080285D01*
X138796309Y-103080285D02*
X138796309Y-103032666D01*
X138796309Y-103032666D02*
X138820119Y-102961237D01*
X138820119Y-102961237D02*
X138843928Y-102937428D01*
X139296309Y-102461237D02*
X139296309Y-102746951D01*
X139296309Y-102604094D02*
X138796309Y-102604094D01*
X138796309Y-102604094D02*
X138867738Y-102651713D01*
X138867738Y-102651713D02*
X138915357Y-102699332D01*
X138915357Y-102699332D02*
X138939166Y-102746951D01*
X139010595Y-102175523D02*
X138986785Y-102223142D01*
X138986785Y-102223142D02*
X138962976Y-102246952D01*
X138962976Y-102246952D02*
X138915357Y-102270761D01*
X138915357Y-102270761D02*
X138891547Y-102270761D01*
X138891547Y-102270761D02*
X138843928Y-102246952D01*
X138843928Y-102246952D02*
X138820119Y-102223142D01*
X138820119Y-102223142D02*
X138796309Y-102175523D01*
X138796309Y-102175523D02*
X138796309Y-102080285D01*
X138796309Y-102080285D02*
X138820119Y-102032666D01*
X138820119Y-102032666D02*
X138843928Y-102008857D01*
X138843928Y-102008857D02*
X138891547Y-101985047D01*
X138891547Y-101985047D02*
X138915357Y-101985047D01*
X138915357Y-101985047D02*
X138962976Y-102008857D01*
X138962976Y-102008857D02*
X138986785Y-102032666D01*
X138986785Y-102032666D02*
X139010595Y-102080285D01*
X139010595Y-102080285D02*
X139010595Y-102175523D01*
X139010595Y-102175523D02*
X139034404Y-102223142D01*
X139034404Y-102223142D02*
X139058214Y-102246952D01*
X139058214Y-102246952D02*
X139105833Y-102270761D01*
X139105833Y-102270761D02*
X139201071Y-102270761D01*
X139201071Y-102270761D02*
X139248690Y-102246952D01*
X139248690Y-102246952D02*
X139272500Y-102223142D01*
X139272500Y-102223142D02*
X139296309Y-102175523D01*
X139296309Y-102175523D02*
X139296309Y-102080285D01*
X139296309Y-102080285D02*
X139272500Y-102032666D01*
X139272500Y-102032666D02*
X139248690Y-102008857D01*
X139248690Y-102008857D02*
X139201071Y-101985047D01*
X139201071Y-101985047D02*
X139105833Y-101985047D01*
X139105833Y-101985047D02*
X139058214Y-102008857D01*
X139058214Y-102008857D02*
X139034404Y-102032666D01*
X139034404Y-102032666D02*
X139010595Y-102080285D01*
%TO.C,U4*%
X135509047Y-107300309D02*
X135509047Y-107705071D01*
X135509047Y-107705071D02*
X135532857Y-107752690D01*
X135532857Y-107752690D02*
X135556666Y-107776500D01*
X135556666Y-107776500D02*
X135604285Y-107800309D01*
X135604285Y-107800309D02*
X135699523Y-107800309D01*
X135699523Y-107800309D02*
X135747142Y-107776500D01*
X135747142Y-107776500D02*
X135770952Y-107752690D01*
X135770952Y-107752690D02*
X135794761Y-107705071D01*
X135794761Y-107705071D02*
X135794761Y-107300309D01*
X136247143Y-107466976D02*
X136247143Y-107800309D01*
X136128095Y-107276500D02*
X136009048Y-107633642D01*
X136009048Y-107633642D02*
X136318571Y-107633642D01*
D11*
%TO.C,C8*%
X147722000Y-96500836D02*
X147722000Y-96285164D01*
X148442000Y-96500836D02*
X148442000Y-96285164D01*
%TO.C,C23*%
X138917000Y-83938164D02*
X138917000Y-84153836D01*
X138197000Y-83938164D02*
X138197000Y-84153836D01*
%TO.C,C9*%
X140991000Y-102215836D02*
X140991000Y-102000164D01*
X141711000Y-102215836D02*
X141711000Y-102000164D01*
%TO.C,C26*%
X151519836Y-111612000D02*
X151304164Y-111612000D01*
X151519836Y-110892000D02*
X151304164Y-110892000D01*
%TO.C,Y1*%
X148050000Y-110870000D02*
X148050000Y-107570000D01*
X148050000Y-107570000D02*
X144050000Y-107570000D01*
%TO.C,C25*%
X153903000Y-100956164D02*
X153903000Y-101171836D01*
X153183000Y-100956164D02*
X153183000Y-101171836D01*
%TO.C,C14*%
X145309000Y-93325836D02*
X145309000Y-93110164D01*
X146029000Y-93325836D02*
X146029000Y-93110164D01*
%TO.C,D4*%
D12*
X160410000Y-109466000D02*
X159510000Y-108566000D01*
X160410000Y-108566000D01*
X160410000Y-109466000D01*
G36*
X160410000Y-109466000D02*
G01*
X159510000Y-108566000D01*
X160410000Y-108566000D01*
X160410000Y-109466000D01*
G37*
D11*
%TO.C,C6*%
X148990164Y-105939000D02*
X149205836Y-105939000D01*
X148990164Y-106659000D02*
X149205836Y-106659000D01*
%TO.C,R6*%
X143003000Y-87275641D02*
X143003000Y-86968359D01*
X143763000Y-87275641D02*
X143763000Y-86968359D01*
%TO.C,J3*%
X150750000Y-82545000D02*
X150750000Y-80545000D01*
X150750000Y-78645000D02*
X150750000Y-76745000D01*
X150750000Y-76745000D02*
X141350000Y-76745000D01*
X141350000Y-82545000D02*
X141350000Y-80545000D01*
X141350000Y-78645000D02*
X141350000Y-76745000D01*
%TO.C,U5*%
X156210000Y-103850000D02*
X154535000Y-103850000D01*
X156210000Y-103850000D02*
X156860000Y-103850000D01*
X156210000Y-106970000D02*
X155560000Y-106970000D01*
X156210000Y-106970000D02*
X156860000Y-106970000D01*
%TO.C,C10*%
X148738000Y-96500836D02*
X148738000Y-96285164D01*
X149458000Y-96500836D02*
X149458000Y-96285164D01*
%TO.C,D1*%
D12*
X140090000Y-109466000D02*
X139190000Y-108566000D01*
X140090000Y-108566000D01*
X140090000Y-109466000D01*
G36*
X140090000Y-109466000D02*
G01*
X139190000Y-108566000D01*
X140090000Y-108566000D01*
X140090000Y-109466000D01*
G37*
D11*
%TO.C,C11*%
X149754000Y-96500836D02*
X149754000Y-96285164D01*
X150474000Y-96500836D02*
X150474000Y-96285164D01*
%TO.C,D3*%
X133890000Y-82505000D02*
X137890000Y-82505000D01*
X133890000Y-86405000D02*
X137890000Y-86392500D01*
X137890000Y-86392500D02*
X137890000Y-85317500D01*
%TO.C,C2*%
X145141836Y-107294000D02*
X144926164Y-107294000D01*
X145141836Y-106574000D02*
X144926164Y-106574000D01*
%TO.C,C19*%
X131212000Y-110879836D02*
X131212000Y-110664164D01*
X131932000Y-110879836D02*
X131932000Y-110664164D01*
%TO.C,R1*%
X140869641Y-92963000D02*
X140562359Y-92963000D01*
X140869641Y-92203000D02*
X140562359Y-92203000D01*
%TO.C,C12*%
X151022164Y-98700000D02*
X151237836Y-98700000D01*
X151022164Y-99420000D02*
X151237836Y-99420000D01*
%TO.C,C15*%
X144293000Y-93325836D02*
X144293000Y-93110164D01*
X145013000Y-93325836D02*
X145013000Y-93110164D01*
%TO.C,C20*%
X138197000Y-98433836D02*
X138197000Y-98218164D01*
X138917000Y-98433836D02*
X138917000Y-98218164D01*
%TO.C,C16*%
X141077836Y-99547000D02*
X140862164Y-99547000D01*
X141077836Y-98827000D02*
X140862164Y-98827000D01*
%TO.C,C22*%
X155644964Y-102814800D02*
X155860636Y-102814800D01*
X155644964Y-103534800D02*
X155860636Y-103534800D01*
%TO.C,RLED1*%
X139981000Y-110566564D02*
X139981000Y-110112436D01*
X141451000Y-110566564D02*
X141451000Y-110112436D01*
%TO.C,C3*%
X149077000Y-108858164D02*
X149077000Y-109073836D01*
X148357000Y-108858164D02*
X148357000Y-109073836D01*
%TO.C,C4*%
X152372602Y-94241249D02*
X152372602Y-93718745D01*
X153842602Y-94241249D02*
X153842602Y-93718745D01*
%TO.C,C1*%
X156416853Y-91920999D02*
X155894349Y-91920999D01*
X156416853Y-90450999D02*
X155894349Y-90450999D01*
%TO.C,C21*%
X138703164Y-106066000D02*
X138918836Y-106066000D01*
X138703164Y-106786000D02*
X138918836Y-106786000D01*
%TO.C,C24*%
X153183000Y-84971836D02*
X153183000Y-84756164D01*
X153903000Y-84971836D02*
X153903000Y-84756164D01*
%TO.C,R9*%
X140608164Y-93239000D02*
X140823836Y-93239000D01*
X140608164Y-93959000D02*
X140823836Y-93959000D01*
%TO.C,D2*%
X133890000Y-97745000D02*
X137890000Y-97745000D01*
X133890000Y-101645000D02*
X137890000Y-101632500D01*
X137890000Y-101632500D02*
X137890000Y-100557500D01*
%TO.C,F1*%
X155607936Y-87990000D02*
X156812064Y-87990000D01*
X155607936Y-89810000D02*
X156812064Y-89810000D01*
%TO.C,C5*%
X142261000Y-93325836D02*
X142261000Y-93110164D01*
X142981000Y-93325836D02*
X142981000Y-93110164D01*
%TO.C,R4*%
X148208000Y-93064359D02*
X148208000Y-93371641D01*
X147448000Y-93064359D02*
X147448000Y-93371641D01*
%TO.C,D6*%
X158210000Y-101645000D02*
X154210000Y-101645000D01*
X158210000Y-97745000D02*
X154210000Y-97757500D01*
X154210000Y-97757500D02*
X154210000Y-98832500D01*
%TO.C,U3*%
X142440000Y-105210000D02*
X142440000Y-104560000D01*
X143090000Y-97990000D02*
X142440000Y-97990000D01*
X143090000Y-105210000D02*
X142440000Y-105210000D01*
X149010000Y-97990000D02*
X149660000Y-97990000D01*
X149010000Y-105210000D02*
X149660000Y-105210000D01*
X149660000Y-97990000D02*
X149660000Y-98640000D01*
X149660000Y-105210000D02*
X149660000Y-104560000D01*
%TO.C,U6*%
X156210000Y-95540000D02*
X158010000Y-95540000D01*
X156210000Y-95540000D02*
X155410000Y-95540000D01*
X156210000Y-92420000D02*
X157010000Y-92420000D01*
X156210000Y-92420000D02*
X155410000Y-92420000D01*
%TO.C,D7*%
X144892000Y-89444000D02*
X146192000Y-89444000D01*
X146192000Y-86324000D02*
X144192000Y-86324000D01*
%TO.C,D5*%
X158210000Y-86405000D02*
X154210000Y-86405000D01*
X158210000Y-82505000D02*
X154210000Y-82517500D01*
X154210000Y-82517500D02*
X154210000Y-83592500D01*
%TO.C,C7*%
X143277000Y-93325836D02*
X143277000Y-93110164D01*
X143997000Y-93325836D02*
X143997000Y-93110164D01*
%TO.C,SW1*%
X134890000Y-94800000D02*
X136890000Y-94800000D01*
X133590000Y-93750000D02*
X133140000Y-93300000D01*
X138190000Y-93750000D02*
X138640000Y-93300000D01*
X133140000Y-93300000D02*
X133140000Y-90800000D01*
X138640000Y-93300000D02*
X138640000Y-90800000D01*
X133590000Y-90350000D02*
X133140000Y-90800000D01*
X138190000Y-90350000D02*
X138640000Y-90800000D01*
X134890000Y-89300000D02*
X136890000Y-89300000D01*
%TO.C,R3*%
X147065000Y-93064359D02*
X147065000Y-93371641D01*
X146305000Y-93064359D02*
X146305000Y-93371641D01*
%TO.C,RLED2*%
X152119000Y-108738936D02*
X152119000Y-109193064D01*
X150649000Y-108738936D02*
X150649000Y-109193064D01*
%TO.C,C13*%
X150389000Y-102215836D02*
X150389000Y-102000164D01*
X151109000Y-102215836D02*
X151109000Y-102000164D01*
%TO.C,R5*%
X146912359Y-106554000D02*
X147219641Y-106554000D01*
X146912359Y-107314000D02*
X147219641Y-107314000D01*
%TO.C,R2*%
X147321000Y-87275641D02*
X147321000Y-86968359D01*
X148081000Y-87275641D02*
X148081000Y-86968359D01*
%TO.C,U4*%
X135890000Y-106970000D02*
X137565000Y-106970000D01*
X135890000Y-106970000D02*
X135240000Y-106970000D01*
X135890000Y-103850000D02*
X136540000Y-103850000D01*
X135890000Y-103850000D02*
X135240000Y-103850000D01*
%TD*%
%LPC*%
D13*
%TO.C,C8*%
X148082000Y-96873000D03*
X148082000Y-95913000D03*
%TD*%
D14*
%TO.C,C23*%
X138557000Y-83566000D03*
X138557000Y-84526000D03*
%TD*%
D13*
%TO.C,C9*%
X141351000Y-102588000D03*
X141351000Y-101628000D03*
%TD*%
D15*
%TO.C,C26*%
X151892000Y-111252000D03*
X150932000Y-111252000D03*
%TD*%
D16*
%TO.C,Y1*%
X147150000Y-108370000D03*
X144950000Y-108370000D03*
X144950000Y-110070000D03*
X147150000Y-110070000D03*
%TD*%
D14*
%TO.C,C25*%
X153543000Y-100584000D03*
X153543000Y-101544000D03*
%TD*%
D13*
%TO.C,C14*%
X145669000Y-93698000D03*
X145669000Y-92738000D03*
%TD*%
D17*
%TO.C,D4*%
X153610000Y-111216000D03*
X153610000Y-109716000D03*
X158810000Y-109716000D03*
X158810000Y-111216000D03*
%TD*%
D18*
%TO.C,C6*%
X148618000Y-106299000D03*
X149578000Y-106299000D03*
%TD*%
D19*
%TO.C,R6*%
X143383000Y-87632000D03*
X143383000Y-86612000D03*
%TD*%
D20*
%TO.C,J3*%
X148940000Y-83245000D03*
X143160000Y-83245000D03*
D21*
X149300000Y-84690000D03*
X148500000Y-84690000D03*
D22*
X147300000Y-84690000D03*
X146300000Y-84690000D03*
X145800000Y-84690000D03*
X144800000Y-84690000D03*
D21*
X143600000Y-84690000D03*
X142800000Y-84690000D03*
X142800000Y-84690000D03*
X143600000Y-84690000D03*
D22*
X144300000Y-84690000D03*
X145300000Y-84690000D03*
X146800000Y-84690000D03*
X147800000Y-84690000D03*
D21*
X148500000Y-84690000D03*
X149300000Y-84690000D03*
D23*
X150370000Y-83775000D03*
D24*
X150370000Y-79595000D03*
D23*
X141730000Y-83775000D03*
D24*
X141730000Y-79595000D03*
%TD*%
D25*
%TO.C,H2*%
X165100000Y-96520000D03*
%TD*%
D26*
%TO.C,U5*%
X155272500Y-104460000D03*
X155272500Y-106360000D03*
X157147500Y-105410000D03*
%TD*%
D13*
%TO.C,C10*%
X149098000Y-96873000D03*
X149098000Y-95913000D03*
%TD*%
D17*
%TO.C,D1*%
X133290000Y-111216000D03*
X133290000Y-109716000D03*
X138490000Y-109716000D03*
X138490000Y-111216000D03*
%TD*%
D13*
%TO.C,C11*%
X150114000Y-96873000D03*
X150114000Y-95913000D03*
%TD*%
D27*
%TO.C,D3*%
X137190000Y-85330000D03*
X137190000Y-83555000D03*
X134590000Y-83580000D03*
X134590000Y-85330000D03*
%TD*%
D28*
%TO.C,C17*%
X153035000Y-105725000D03*
X153035000Y-106365000D03*
%TD*%
D15*
%TO.C,C2*%
X145514000Y-106934000D03*
X144554000Y-106934000D03*
%TD*%
D13*
%TO.C,C19*%
X131572000Y-111252000D03*
X131572000Y-110292000D03*
%TD*%
D29*
%TO.C,IC1*%
X140459000Y-94754000D03*
X140459000Y-95254000D03*
X140459000Y-95754000D03*
X140459000Y-96254000D03*
X143259000Y-96254000D03*
X143259000Y-95754000D03*
X143259000Y-95254000D03*
X143259000Y-94754000D03*
D30*
X141859000Y-95504000D03*
%TD*%
D31*
%TO.C,R1*%
X141226000Y-92583000D03*
X140206000Y-92583000D03*
%TD*%
D25*
%TO.C,H4*%
X165100000Y-114300000D03*
%TD*%
D18*
%TO.C,C12*%
X150650000Y-99060000D03*
X151610000Y-99060000D03*
%TD*%
D13*
%TO.C,C15*%
X144653000Y-93698000D03*
X144653000Y-92738000D03*
%TD*%
%TO.C,C20*%
X138557000Y-98806000D03*
X138557000Y-97846000D03*
%TD*%
D15*
%TO.C,C16*%
X141450000Y-99187000D03*
X140490000Y-99187000D03*
%TD*%
D18*
%TO.C,C22*%
X155272800Y-103174800D03*
X156232800Y-103174800D03*
%TD*%
D32*
%TO.C,RLED1*%
X140716000Y-111252000D03*
X140716000Y-109427000D03*
%TD*%
D14*
%TO.C,C3*%
X148717000Y-108486000D03*
X148717000Y-109446000D03*
%TD*%
D33*
%TO.C,R8*%
X138303000Y-104460000D03*
X138303000Y-103820000D03*
%TD*%
D34*
%TO.C,C4*%
X153107602Y-94929997D03*
X153107602Y-93029997D03*
%TD*%
D35*
%TO.C,C1*%
X157105601Y-91185999D03*
X155205601Y-91185999D03*
%TD*%
D18*
%TO.C,C21*%
X138331000Y-106426000D03*
X139291000Y-106426000D03*
%TD*%
D13*
%TO.C,C24*%
X153543000Y-85344000D03*
X153543000Y-84384000D03*
%TD*%
D18*
%TO.C,R9*%
X140236000Y-93599000D03*
X141196000Y-93599000D03*
%TD*%
D27*
%TO.C,D2*%
X137190000Y-100570000D03*
X137190000Y-98795000D03*
X134590000Y-98820000D03*
X134590000Y-100570000D03*
%TD*%
D36*
%TO.C,F1*%
X154810000Y-88900000D03*
X157610000Y-88900000D03*
%TD*%
D13*
%TO.C,C5*%
X142621000Y-93698000D03*
X142621000Y-92738000D03*
%TD*%
D37*
%TO.C,R4*%
X147828000Y-92708000D03*
X147828000Y-93728000D03*
%TD*%
D25*
%TO.C,H3*%
X127000000Y-114300000D03*
%TD*%
D27*
%TO.C,D6*%
X154910000Y-98820000D03*
X154910000Y-100595000D03*
X157510000Y-100570000D03*
X157510000Y-98820000D03*
%TD*%
D38*
%TO.C,U3*%
X142612500Y-99000000D03*
X142612500Y-99400000D03*
X142612500Y-99800000D03*
X142612500Y-100200000D03*
X142612500Y-100600000D03*
X142612500Y-101000000D03*
X142612500Y-101400000D03*
X142612500Y-101800000D03*
X142612500Y-102200000D03*
X142612500Y-102600000D03*
X142612500Y-103000000D03*
X142612500Y-103400000D03*
X142612500Y-103800000D03*
X142612500Y-104200000D03*
D39*
X143450000Y-105037500D03*
X143850000Y-105037500D03*
X144250000Y-105037500D03*
X144650000Y-105037500D03*
X145050000Y-105037500D03*
X145450000Y-105037500D03*
X145850000Y-105037500D03*
X146250000Y-105037500D03*
X146650000Y-105037500D03*
X147050000Y-105037500D03*
X147450000Y-105037500D03*
X147850000Y-105037500D03*
X148250000Y-105037500D03*
X148650000Y-105037500D03*
D38*
X149487500Y-104200000D03*
X149487500Y-103800000D03*
X149487500Y-103400000D03*
X149487500Y-103000000D03*
X149487500Y-102600000D03*
X149487500Y-102200000D03*
X149487500Y-101800000D03*
X149487500Y-101400000D03*
X149487500Y-101000000D03*
X149487500Y-100600000D03*
X149487500Y-100200000D03*
X149487500Y-99800000D03*
X149487500Y-99400000D03*
X149487500Y-99000000D03*
D39*
X148650000Y-98162500D03*
X148250000Y-98162500D03*
X147850000Y-98162500D03*
X147450000Y-98162500D03*
X147050000Y-98162500D03*
X146650000Y-98162500D03*
X146250000Y-98162500D03*
X145850000Y-98162500D03*
X145450000Y-98162500D03*
X145050000Y-98162500D03*
X144650000Y-98162500D03*
X144250000Y-98162500D03*
X143850000Y-98162500D03*
X143450000Y-98162500D03*
D40*
X146050000Y-101600000D03*
%TD*%
D41*
%TO.C,U6*%
X157347500Y-94930000D03*
X157347500Y-93980000D03*
X157347500Y-93030000D03*
X155072500Y-93030000D03*
X155072500Y-94930000D03*
%TD*%
D42*
%TO.C,D7*%
X144542000Y-87134000D03*
D43*
X144542000Y-88834000D03*
X146542000Y-88834000D03*
X146542000Y-86934000D03*
%TD*%
D25*
%TO.C,H1*%
X127000000Y-96520000D03*
%TD*%
D27*
%TO.C,D5*%
X154910000Y-83580000D03*
X154910000Y-85355000D03*
X157510000Y-85330000D03*
X157510000Y-83580000D03*
%TD*%
D13*
%TO.C,C7*%
X143637000Y-93698000D03*
X143637000Y-92738000D03*
%TD*%
D44*
%TO.C,SW1*%
X133990000Y-95200000D03*
X133990000Y-88900000D03*
X137790000Y-95200000D03*
X137790000Y-88900000D03*
%TD*%
D37*
%TO.C,R3*%
X146685000Y-92708000D03*
X146685000Y-93728000D03*
%TD*%
D45*
%TO.C,RLED2*%
X151384000Y-108053500D03*
X151384000Y-109878500D03*
%TD*%
D13*
%TO.C,C13*%
X150749000Y-102588000D03*
X150749000Y-101628000D03*
%TD*%
D33*
%TO.C,R7*%
X153797000Y-106365000D03*
X153797000Y-105725000D03*
%TD*%
D46*
%TO.C,R5*%
X146556000Y-106934000D03*
X147576000Y-106934000D03*
%TD*%
D19*
%TO.C,R2*%
X147701000Y-87632000D03*
X147701000Y-86612000D03*
%TD*%
D28*
%TO.C,C18*%
X139065000Y-103820000D03*
X139065000Y-104460000D03*
%TD*%
D47*
%TO.C,U4*%
X136827500Y-106360000D03*
X136827500Y-104460000D03*
X134952500Y-105410000D03*
%TD*%
D48*
%TO.C,X*%
X140970000Y-105410000D03*
X130810000Y-105410000D03*
%TD*%
%TO.C,Z*%
X161290000Y-105410000D03*
X151130000Y-105410000D03*
%TD*%
D49*
%TO.C,J1*%
X163322000Y-89906000D03*
D50*
X163322000Y-87366000D03*
X163322000Y-84826000D03*
X163322000Y-82286000D03*
%TD*%
M02*
