%TF.GenerationSoftware,KiCad,Pcbnew,7.0.1*%
%TF.CreationDate,2023-05-13T23:39:39+01:00*%
%TF.ProjectId,MoonPad,4d6f6f6e-5061-4642-9e6b-696361645f70,rev?*%
%TF.SameCoordinates,Original*%
%TF.FileFunction,Copper,L4,Bot*%
%TF.FilePolarity,Positive*%
%FSLAX46Y46*%
G04 Gerber Fmt 4.6, Leading zero omitted, Abs format (unit mm)*
G04 Created by KiCad (PCBNEW 7.0.1) date 2023-05-13 23:39:39*
%MOMM*%
%LPD*%
G01*
G04 APERTURE LIST*
%TA.AperFunction,ComponentPad*%
%ADD10O,1.000000X2.100000*%
%TD*%
%TA.AperFunction,ComponentPad*%
%ADD11O,1.000000X1.600000*%
%TD*%
%TA.AperFunction,ComponentPad*%
%ADD12C,0.600000*%
%TD*%
%TA.AperFunction,ComponentPad*%
%ADD13R,1.700000X1.700000*%
%TD*%
%TA.AperFunction,ComponentPad*%
%ADD14O,1.700000X1.700000*%
%TD*%
%TA.AperFunction,ViaPad*%
%ADD15C,0.700000*%
%TD*%
%TA.AperFunction,ViaPad*%
%ADD16C,0.500000*%
%TD*%
%TA.AperFunction,ViaPad*%
%ADD17C,0.450000*%
%TD*%
%TA.AperFunction,Conductor*%
%ADD18C,0.500000*%
%TD*%
%TA.AperFunction,Conductor*%
%ADD19C,0.200000*%
%TD*%
G04 APERTURE END LIST*
D10*
%TO.P,J3,S1,SHIELD*%
%TO.N,GND*%
X150370000Y-83775000D03*
D11*
X150370000Y-79595000D03*
D10*
X141730000Y-83775000D03*
D11*
X141730000Y-79595000D03*
%TD*%
D12*
%TO.P,U3,57,GND*%
%TO.N,GND*%
X144775000Y-100325000D03*
X144775000Y-101600000D03*
X144775000Y-102875000D03*
X146050000Y-100325000D03*
X146050000Y-101600000D03*
X146050000Y-102875000D03*
X147325000Y-100325000D03*
X147325000Y-101600000D03*
X147325000Y-102875000D03*
%TD*%
D13*
%TO.P,J1,1,Pin_1*%
%TO.N,GND*%
X163322000Y-89906000D03*
D14*
%TO.P,J1,2,Pin_2*%
%TO.N,+3V3*%
X163322000Y-87366000D03*
%TO.P,J1,3,Pin_3*%
%TO.N,/OLED_SCL*%
X163322000Y-84826000D03*
%TO.P,J1,4,Pin_4*%
%TO.N,/OLED_SDA*%
X163322000Y-82286000D03*
%TD*%
D15*
%TO.N,VBUS*%
X143600000Y-85736600D03*
X149098000Y-86360000D03*
%TO.N,GND*%
X139065000Y-105156000D03*
X150114000Y-95123000D03*
X152654000Y-91694000D03*
X158496002Y-93979996D03*
X140716000Y-101600000D03*
X150217500Y-108053500D03*
X133731000Y-105410000D03*
X151384000Y-101628000D03*
X143383000Y-88517000D03*
X147701000Y-88517000D03*
X133618000Y-85330000D03*
X158482000Y-83580000D03*
X134021102Y-90272001D03*
X130810000Y-110363000D03*
X150495000Y-106807000D03*
X152654000Y-90678000D03*
X148463000Y-110363000D03*
X153670000Y-90678000D03*
X133618000Y-100570000D03*
X144687289Y-106070887D03*
X144653000Y-91948000D03*
X153670000Y-91694000D03*
X134021102Y-93827998D03*
X153035000Y-107061000D03*
X149098000Y-95123000D03*
X145669000Y-91948000D03*
X142621000Y-91948000D03*
X157510000Y-97947000D03*
X139319000Y-84455000D03*
X140462000Y-96870700D03*
X153543002Y-102362000D03*
X138490000Y-108894135D03*
X144542000Y-88016098D03*
X156921200Y-103174800D03*
X140490000Y-99921000D03*
X151610000Y-99794000D03*
X138463100Y-97075125D03*
X158810000Y-108894135D03*
X148082000Y-95123000D03*
X152781000Y-84455000D03*
X151040097Y-112014000D03*
X143637000Y-91948000D03*
X158369000Y-105410000D03*
X139319000Y-107188000D03*
%TO.N,+1V1*%
X145850000Y-95885000D03*
D16*
X147253371Y-98977451D03*
D15*
%TO.N,ADC_X*%
X150426900Y-99998100D03*
X139888000Y-103820000D03*
D17*
%TO.N,/OLED_SCL*%
X150495000Y-103505000D03*
%TO.N,/OLED_SDA*%
X151003000Y-104002018D03*
D15*
%TO.N,+5V*%
X139319000Y-83566000D03*
X158496000Y-91694000D03*
X151892000Y-112014000D03*
X146542000Y-87614000D03*
X158496000Y-94995996D03*
X153543001Y-99822001D03*
X139319000Y-98806000D03*
X158496000Y-92710000D03*
X152781000Y-85344000D03*
X130810000Y-111252000D03*
X158496001Y-90678000D03*
%TD*%
D18*
%TO.N,VBUS*%
X144223400Y-86360000D02*
X143600000Y-85736600D01*
X149098000Y-86360000D02*
X144223400Y-86360000D01*
D19*
%TO.N,+1V1*%
X146221451Y-98977451D02*
X147253371Y-98977451D01*
X145850000Y-95885000D02*
X145850000Y-98606000D01*
X145850000Y-98606000D02*
X146221451Y-98977451D01*
%TO.N,ADC_X*%
X150426900Y-99998100D02*
X150426900Y-101795100D01*
X148402000Y-103820000D02*
X139888000Y-103820000D01*
X150426900Y-101795100D02*
X148402000Y-103820000D01*
%TO.N,/OLED_SCL*%
X150495000Y-103505000D02*
X150622000Y-103378000D01*
X164465000Y-92329000D02*
X164465000Y-85969000D01*
X153416000Y-103378000D02*
X164465000Y-92329000D01*
X164465000Y-85969000D02*
X163322000Y-84826000D01*
X150622000Y-103378000D02*
X153416000Y-103378000D01*
%TO.N,/OLED_SDA*%
X151246018Y-103759000D02*
X153543000Y-103759000D01*
X151003000Y-104002018D02*
X151246018Y-103759000D01*
X164846000Y-92456000D02*
X164846000Y-83810000D01*
X164846000Y-83810000D02*
X163322000Y-82286000D01*
X153543000Y-103759000D02*
X164846000Y-92456000D01*
%TD*%
%TA.AperFunction,Conductor*%
%TO.N,+5V*%
G36*
X165102777Y-77335655D02*
G01*
X165393902Y-77352005D01*
X165404925Y-77353247D01*
X165689661Y-77401625D01*
X165700455Y-77404088D01*
X165977994Y-77484046D01*
X165988465Y-77487710D01*
X166111584Y-77538708D01*
X166255287Y-77598232D01*
X166265289Y-77603049D01*
X166518053Y-77742746D01*
X166527453Y-77748652D01*
X166762992Y-77915777D01*
X166771661Y-77922690D01*
X166987019Y-78115145D01*
X166994854Y-78122980D01*
X167187305Y-78338333D01*
X167194226Y-78347012D01*
X167361346Y-78582545D01*
X167367253Y-78591946D01*
X167506950Y-78844710D01*
X167511767Y-78854712D01*
X167622287Y-79121530D01*
X167625954Y-79132009D01*
X167705907Y-79409529D01*
X167708377Y-79420353D01*
X167756751Y-79705069D01*
X167757994Y-79716101D01*
X167774344Y-80007222D01*
X167774500Y-80012773D01*
X167774500Y-114297227D01*
X167774344Y-114302778D01*
X167757994Y-114593898D01*
X167756751Y-114604930D01*
X167708377Y-114889646D01*
X167705907Y-114900470D01*
X167625954Y-115177990D01*
X167622287Y-115188469D01*
X167511767Y-115455287D01*
X167506950Y-115465289D01*
X167367253Y-115718053D01*
X167361346Y-115727454D01*
X167194226Y-115962987D01*
X167187305Y-115971666D01*
X166994862Y-116187011D01*
X166987011Y-116194862D01*
X166771666Y-116387305D01*
X166762987Y-116394226D01*
X166527454Y-116561346D01*
X166518053Y-116567253D01*
X166265289Y-116706950D01*
X166255287Y-116711767D01*
X165988469Y-116822287D01*
X165977990Y-116825954D01*
X165700470Y-116905907D01*
X165689646Y-116908377D01*
X165404930Y-116956751D01*
X165393898Y-116957994D01*
X165102778Y-116974344D01*
X165097227Y-116974500D01*
X127002773Y-116974500D01*
X126997222Y-116974344D01*
X126706101Y-116957994D01*
X126695069Y-116956751D01*
X126410353Y-116908377D01*
X126399531Y-116905907D01*
X126329936Y-116885857D01*
X126122009Y-116825954D01*
X126111530Y-116822287D01*
X125844712Y-116711767D01*
X125834710Y-116706950D01*
X125581946Y-116567253D01*
X125572545Y-116561346D01*
X125337012Y-116394226D01*
X125328333Y-116387305D01*
X125112980Y-116194854D01*
X125105145Y-116187019D01*
X124912690Y-115971661D01*
X124905777Y-115962992D01*
X124738652Y-115727453D01*
X124732746Y-115718053D01*
X124593049Y-115465289D01*
X124588232Y-115455287D01*
X124477712Y-115188469D01*
X124474045Y-115177990D01*
X124472146Y-115171397D01*
X124394088Y-114900455D01*
X124391625Y-114889661D01*
X124343247Y-114604925D01*
X124342005Y-114593898D01*
X124335640Y-114480566D01*
X124325655Y-114302777D01*
X124325577Y-114299999D01*
X125644340Y-114299999D01*
X125664936Y-114535405D01*
X125726098Y-114763667D01*
X125825963Y-114977826D01*
X125825964Y-114977827D01*
X125825965Y-114977829D01*
X125961505Y-115171401D01*
X126128599Y-115338495D01*
X126322171Y-115474035D01*
X126322172Y-115474035D01*
X126322173Y-115474036D01*
X126536332Y-115573901D01*
X126536333Y-115573901D01*
X126536337Y-115573903D01*
X126764592Y-115635063D01*
X126835168Y-115641237D01*
X126941031Y-115650500D01*
X126941034Y-115650500D01*
X127058966Y-115650500D01*
X127058969Y-115650500D01*
X127147186Y-115642781D01*
X127235408Y-115635063D01*
X127463663Y-115573903D01*
X127677829Y-115474035D01*
X127871401Y-115338495D01*
X128038495Y-115171401D01*
X128174035Y-114977830D01*
X128273903Y-114763663D01*
X128335063Y-114535408D01*
X128355659Y-114300000D01*
X163744340Y-114300000D01*
X163764936Y-114535405D01*
X163826098Y-114763667D01*
X163925963Y-114977826D01*
X163925964Y-114977827D01*
X163925965Y-114977829D01*
X164061505Y-115171401D01*
X164228599Y-115338495D01*
X164422171Y-115474035D01*
X164422172Y-115474035D01*
X164422173Y-115474036D01*
X164636332Y-115573901D01*
X164636333Y-115573901D01*
X164636337Y-115573903D01*
X164864592Y-115635063D01*
X164935168Y-115641237D01*
X165041031Y-115650500D01*
X165041034Y-115650500D01*
X165158966Y-115650500D01*
X165158969Y-115650500D01*
X165247186Y-115642781D01*
X165335408Y-115635063D01*
X165563663Y-115573903D01*
X165777829Y-115474035D01*
X165971401Y-115338495D01*
X166138495Y-115171401D01*
X166274035Y-114977830D01*
X166373903Y-114763663D01*
X166435063Y-114535408D01*
X166455659Y-114300000D01*
X166435063Y-114064592D01*
X166373903Y-113836337D01*
X166274035Y-113622171D01*
X166138495Y-113428599D01*
X165971401Y-113261505D01*
X165777829Y-113125965D01*
X165777828Y-113125964D01*
X165777826Y-113125963D01*
X165563667Y-113026098D01*
X165335405Y-112964936D01*
X165158969Y-112949500D01*
X165158966Y-112949500D01*
X165041034Y-112949500D01*
X165041031Y-112949500D01*
X164864594Y-112964936D01*
X164636332Y-113026098D01*
X164422173Y-113125963D01*
X164228602Y-113261502D01*
X164061502Y-113428602D01*
X163925963Y-113622172D01*
X163826098Y-113836332D01*
X163764936Y-114064594D01*
X163744340Y-114300000D01*
X128355659Y-114300000D01*
X128335063Y-114064592D01*
X128273903Y-113836337D01*
X128174035Y-113622171D01*
X128038495Y-113428599D01*
X127871401Y-113261505D01*
X127677829Y-113125965D01*
X127677828Y-113125964D01*
X127677826Y-113125963D01*
X127463667Y-113026098D01*
X127235405Y-112964936D01*
X127058969Y-112949500D01*
X127058966Y-112949500D01*
X126941034Y-112949500D01*
X126941031Y-112949500D01*
X126764594Y-112964936D01*
X126536332Y-113026098D01*
X126322173Y-113125963D01*
X126128602Y-113261502D01*
X125961502Y-113428602D01*
X125825963Y-113622172D01*
X125726098Y-113836332D01*
X125664936Y-114064594D01*
X125644340Y-114299999D01*
X124325577Y-114299999D01*
X124325500Y-114297227D01*
X124325500Y-111609006D01*
X133586463Y-111609006D01*
X133604219Y-111790742D01*
X133654579Y-111966263D01*
X133735883Y-112129771D01*
X133845438Y-112275856D01*
X133979626Y-112399693D01*
X133979628Y-112399694D01*
X133979630Y-112399696D01*
X134134023Y-112497198D01*
X134303515Y-112565142D01*
X134482506Y-112601281D01*
X134604223Y-112603374D01*
X134665081Y-112604422D01*
X134665081Y-112604421D01*
X134665082Y-112604422D01*
X134845210Y-112574460D01*
X135016938Y-112512386D01*
X135024771Y-112507820D01*
X135027289Y-112506354D01*
X135027921Y-112506089D01*
X135072535Y-112480023D01*
X135122486Y-112466502D01*
X135161392Y-112466506D01*
X135161395Y-112466504D01*
X135174449Y-112466506D01*
X135174511Y-112466499D01*
X136605329Y-112466499D01*
X136605381Y-112466505D01*
X136618604Y-112466503D01*
X136618608Y-112466505D01*
X136657512Y-112466501D01*
X136707459Y-112480019D01*
X136741130Y-112499691D01*
X136741132Y-112499691D01*
X136751944Y-112506008D01*
X136752842Y-112506384D01*
X136763079Y-112512350D01*
X136934799Y-112574420D01*
X137114921Y-112604381D01*
X137297489Y-112601240D01*
X137476473Y-112565103D01*
X137645958Y-112497162D01*
X137800345Y-112399664D01*
X137934531Y-112275828D01*
X138044083Y-112129748D01*
X138101639Y-112013999D01*
X150484847Y-112013999D01*
X150503766Y-112157709D01*
X150542989Y-112252401D01*
X150559236Y-112291625D01*
X150597547Y-112341552D01*
X150647475Y-112406621D01*
X150697403Y-112444932D01*
X150762472Y-112494861D01*
X150857164Y-112534083D01*
X150896387Y-112550330D01*
X150913105Y-112552531D01*
X151040097Y-112569250D01*
X151183806Y-112550330D01*
X151317722Y-112494861D01*
X151432718Y-112406621D01*
X151520958Y-112291625D01*
X151576427Y-112157709D01*
X151595347Y-112014000D01*
X151576427Y-111870291D01*
X151520958Y-111736375D01*
X151471029Y-111671306D01*
X151432718Y-111621378D01*
X151416594Y-111609006D01*
X153906463Y-111609006D01*
X153924219Y-111790742D01*
X153974579Y-111966263D01*
X154055883Y-112129771D01*
X154165438Y-112275856D01*
X154299626Y-112399693D01*
X154299628Y-112399694D01*
X154299630Y-112399696D01*
X154454023Y-112497198D01*
X154623515Y-112565142D01*
X154802506Y-112601281D01*
X154924223Y-112603374D01*
X154985081Y-112604422D01*
X154985081Y-112604421D01*
X154985082Y-112604422D01*
X155165210Y-112574460D01*
X155336938Y-112512386D01*
X155344771Y-112507820D01*
X155347289Y-112506354D01*
X155347921Y-112506089D01*
X155392535Y-112480023D01*
X155442486Y-112466502D01*
X155481392Y-112466506D01*
X155481395Y-112466504D01*
X155494449Y-112466506D01*
X155494511Y-112466499D01*
X156925329Y-112466499D01*
X156925381Y-112466505D01*
X156938604Y-112466503D01*
X156938608Y-112466505D01*
X156977512Y-112466501D01*
X157027459Y-112480019D01*
X157061130Y-112499691D01*
X157061132Y-112499691D01*
X157071944Y-112506008D01*
X157072842Y-112506384D01*
X157083079Y-112512350D01*
X157254799Y-112574420D01*
X157434921Y-112604381D01*
X157617489Y-112601240D01*
X157796473Y-112565103D01*
X157965958Y-112497162D01*
X158120345Y-112399664D01*
X158254531Y-112275828D01*
X158364083Y-112129748D01*
X158445382Y-111966250D01*
X158495741Y-111790736D01*
X158513496Y-111609006D01*
X158498060Y-111427064D01*
X158449944Y-111250922D01*
X158444685Y-111239964D01*
X158444396Y-111239082D01*
X158420318Y-111189107D01*
X158410506Y-111146104D01*
X158410520Y-111103108D01*
X158410519Y-111103104D01*
X158410523Y-111090126D01*
X158410499Y-111089937D01*
X158410499Y-109785890D01*
X158420244Y-109743059D01*
X158424106Y-109735011D01*
X158424143Y-109735029D01*
X158424163Y-109734890D01*
X158439019Y-109704040D01*
X158439019Y-109704037D01*
X158444556Y-109692540D01*
X158444704Y-109692089D01*
X158444726Y-109692043D01*
X158449981Y-109681094D01*
X158498100Y-109504945D01*
X158498468Y-109500601D01*
X158522094Y-109444369D01*
X158574197Y-109412657D01*
X158634999Y-109417504D01*
X158666290Y-109430465D01*
X158683008Y-109432666D01*
X158810000Y-109449385D01*
X158953709Y-109430465D01*
X159087625Y-109374996D01*
X159202621Y-109286756D01*
X159290861Y-109171760D01*
X159346330Y-109037844D01*
X159365250Y-108894135D01*
X159346330Y-108750426D01*
X159290861Y-108616510D01*
X159226272Y-108532336D01*
X159202621Y-108501513D01*
X159130432Y-108446121D01*
X159087625Y-108413274D01*
X159048401Y-108397027D01*
X158953709Y-108357804D01*
X158810000Y-108338885D01*
X158666290Y-108357804D01*
X158532375Y-108413274D01*
X158417378Y-108501513D01*
X158346421Y-108593987D01*
X158302979Y-108626289D01*
X158249042Y-108630911D01*
X158200739Y-108606474D01*
X158120371Y-108532305D01*
X158120368Y-108532303D01*
X158120367Y-108532302D01*
X157965982Y-108434804D01*
X157965979Y-108434803D01*
X157965978Y-108434802D01*
X157852983Y-108389505D01*
X157796484Y-108366857D01*
X157617492Y-108330718D01*
X157434919Y-108327577D01*
X157254789Y-108357539D01*
X157083061Y-108419613D01*
X157072514Y-108425759D01*
X157071887Y-108426023D01*
X157027461Y-108451978D01*
X156977514Y-108465496D01*
X156938967Y-108465493D01*
X156938607Y-108465493D01*
X156925550Y-108465492D01*
X156925489Y-108465500D01*
X155442493Y-108465500D01*
X155392538Y-108451972D01*
X155348286Y-108426108D01*
X155347272Y-108425683D01*
X155336920Y-108419650D01*
X155165201Y-108357579D01*
X154985079Y-108327618D01*
X154802514Y-108330759D01*
X154623528Y-108366896D01*
X154454038Y-108434838D01*
X154299659Y-108532333D01*
X154165467Y-108656172D01*
X154055918Y-108802249D01*
X153974617Y-108965749D01*
X153933439Y-109109267D01*
X153924259Y-109141264D01*
X153906504Y-109322994D01*
X153908112Y-109341949D01*
X153921940Y-109504937D01*
X153970057Y-109681080D01*
X153975318Y-109692043D01*
X153975561Y-109692784D01*
X153999700Y-109742917D01*
X154009501Y-109785865D01*
X154009501Y-111146109D01*
X153999753Y-111188946D01*
X153996029Y-111196705D01*
X153995977Y-111196814D01*
X153975590Y-111239157D01*
X153975443Y-111239600D01*
X153970018Y-111250904D01*
X153921900Y-111427054D01*
X153906463Y-111609006D01*
X151416594Y-111609006D01*
X151364132Y-111568751D01*
X151317722Y-111533139D01*
X151278498Y-111516892D01*
X151183806Y-111477669D01*
X151040097Y-111458750D01*
X150896387Y-111477669D01*
X150762472Y-111533139D01*
X150647475Y-111621378D01*
X150559236Y-111736375D01*
X150503766Y-111870290D01*
X150484847Y-112013999D01*
X138101639Y-112013999D01*
X138125382Y-111966250D01*
X138175741Y-111790736D01*
X138193496Y-111609006D01*
X138178060Y-111427064D01*
X138129944Y-111250922D01*
X138124685Y-111239964D01*
X138124396Y-111239082D01*
X138100318Y-111189107D01*
X138090506Y-111146104D01*
X138090520Y-111103108D01*
X138090519Y-111103104D01*
X138090523Y-111090126D01*
X138090499Y-111089937D01*
X138090499Y-110363000D01*
X147907750Y-110363000D01*
X147926669Y-110506709D01*
X147965892Y-110601401D01*
X147982139Y-110640625D01*
X148020450Y-110690552D01*
X148070378Y-110755621D01*
X148120306Y-110793932D01*
X148185375Y-110843861D01*
X148280067Y-110883083D01*
X148319290Y-110899330D01*
X148336008Y-110901531D01*
X148463000Y-110918250D01*
X148606709Y-110899330D01*
X148740625Y-110843861D01*
X148855621Y-110755621D01*
X148943861Y-110640625D01*
X148999330Y-110506709D01*
X149018250Y-110363000D01*
X148999330Y-110219291D01*
X148943861Y-110085375D01*
X148893932Y-110020306D01*
X148855621Y-109970378D01*
X148790552Y-109920450D01*
X148740625Y-109882139D01*
X148701401Y-109865892D01*
X148606709Y-109826669D01*
X148463000Y-109807750D01*
X148319290Y-109826669D01*
X148185375Y-109882139D01*
X148070378Y-109970378D01*
X147982139Y-110085375D01*
X147926669Y-110219290D01*
X147907750Y-110363000D01*
X138090499Y-110363000D01*
X138090499Y-109785890D01*
X138100244Y-109743059D01*
X138104106Y-109735011D01*
X138104143Y-109735029D01*
X138104163Y-109734890D01*
X138119019Y-109704040D01*
X138119019Y-109704037D01*
X138124556Y-109692540D01*
X138124704Y-109692089D01*
X138124726Y-109692043D01*
X138129981Y-109681094D01*
X138178100Y-109504945D01*
X138178468Y-109500601D01*
X138202094Y-109444369D01*
X138254197Y-109412657D01*
X138314999Y-109417504D01*
X138346290Y-109430465D01*
X138363008Y-109432666D01*
X138490000Y-109449385D01*
X138633709Y-109430465D01*
X138767625Y-109374996D01*
X138882621Y-109286756D01*
X138970861Y-109171760D01*
X139026330Y-109037844D01*
X139045250Y-108894135D01*
X139026330Y-108750426D01*
X138970861Y-108616510D01*
X138906272Y-108532336D01*
X138882621Y-108501513D01*
X138810432Y-108446121D01*
X138767625Y-108413274D01*
X138728401Y-108397027D01*
X138633709Y-108357804D01*
X138490000Y-108338885D01*
X138346290Y-108357804D01*
X138212375Y-108413274D01*
X138097378Y-108501513D01*
X138026421Y-108593987D01*
X137982979Y-108626289D01*
X137929042Y-108630911D01*
X137880739Y-108606474D01*
X137800371Y-108532305D01*
X137800368Y-108532303D01*
X137800367Y-108532302D01*
X137645982Y-108434804D01*
X137645979Y-108434803D01*
X137645978Y-108434802D01*
X137532983Y-108389505D01*
X137476484Y-108366857D01*
X137297492Y-108330718D01*
X137114919Y-108327577D01*
X136934789Y-108357539D01*
X136763061Y-108419613D01*
X136752514Y-108425759D01*
X136751887Y-108426023D01*
X136707461Y-108451978D01*
X136657514Y-108465496D01*
X136618967Y-108465493D01*
X136618607Y-108465493D01*
X136605550Y-108465492D01*
X136605489Y-108465500D01*
X135122493Y-108465500D01*
X135072538Y-108451972D01*
X135028286Y-108426108D01*
X135027272Y-108425683D01*
X135016920Y-108419650D01*
X134845201Y-108357579D01*
X134665079Y-108327618D01*
X134482514Y-108330759D01*
X134303528Y-108366896D01*
X134134038Y-108434838D01*
X133979659Y-108532333D01*
X133845467Y-108656172D01*
X133735918Y-108802249D01*
X133654617Y-108965749D01*
X133613439Y-109109267D01*
X133604259Y-109141264D01*
X133586504Y-109322994D01*
X133588112Y-109341949D01*
X133601940Y-109504937D01*
X133650057Y-109681080D01*
X133655318Y-109692043D01*
X133655561Y-109692784D01*
X133679700Y-109742917D01*
X133689501Y-109785865D01*
X133689501Y-111146109D01*
X133679753Y-111188946D01*
X133676029Y-111196705D01*
X133675977Y-111196814D01*
X133655590Y-111239157D01*
X133655443Y-111239600D01*
X133650018Y-111250904D01*
X133601900Y-111427054D01*
X133586463Y-111609006D01*
X124325500Y-111609006D01*
X124325500Y-110363000D01*
X130254750Y-110363000D01*
X130273669Y-110506709D01*
X130312892Y-110601401D01*
X130329139Y-110640625D01*
X130367450Y-110690552D01*
X130417378Y-110755621D01*
X130467306Y-110793932D01*
X130532375Y-110843861D01*
X130627067Y-110883083D01*
X130666290Y-110899330D01*
X130683008Y-110901531D01*
X130810000Y-110918250D01*
X130953709Y-110899330D01*
X131087625Y-110843861D01*
X131202621Y-110755621D01*
X131290861Y-110640625D01*
X131346330Y-110506709D01*
X131365250Y-110363000D01*
X131346330Y-110219291D01*
X131290861Y-110085375D01*
X131240932Y-110020306D01*
X131202621Y-109970378D01*
X131137552Y-109920450D01*
X131087625Y-109882139D01*
X131048401Y-109865892D01*
X130953709Y-109826669D01*
X130810000Y-109807750D01*
X130666290Y-109826669D01*
X130532375Y-109882139D01*
X130417378Y-109970378D01*
X130329139Y-110085375D01*
X130273669Y-110219290D01*
X130254750Y-110363000D01*
X124325500Y-110363000D01*
X124325500Y-108053499D01*
X149662250Y-108053499D01*
X149681169Y-108197209D01*
X149720392Y-108291901D01*
X149736639Y-108331125D01*
X149764057Y-108366857D01*
X149824878Y-108446121D01*
X149850134Y-108465500D01*
X149939875Y-108534361D01*
X150034567Y-108573583D01*
X150073790Y-108589830D01*
X150090508Y-108592031D01*
X150217500Y-108608750D01*
X150361209Y-108589830D01*
X150495125Y-108534361D01*
X150610121Y-108446121D01*
X150698361Y-108331125D01*
X150753830Y-108197209D01*
X150772750Y-108053500D01*
X150753830Y-107909791D01*
X150698361Y-107775875D01*
X150616246Y-107668861D01*
X150610121Y-107660878D01*
X150495125Y-107572639D01*
X150445339Y-107552017D01*
X150401636Y-107516626D01*
X150384259Y-107463142D01*
X150398816Y-107408822D01*
X150440609Y-107371195D01*
X150482165Y-107364615D01*
X150482078Y-107363951D01*
X150494999Y-107362249D01*
X150495000Y-107362250D01*
X150638709Y-107343330D01*
X150772625Y-107287861D01*
X150887621Y-107199621D01*
X150975861Y-107084625D01*
X150985647Y-107061000D01*
X152479750Y-107061000D01*
X152498669Y-107204709D01*
X152533112Y-107287860D01*
X152554139Y-107338625D01*
X152574082Y-107364615D01*
X152642378Y-107453621D01*
X152688879Y-107489302D01*
X152757375Y-107541861D01*
X152831681Y-107572639D01*
X152891290Y-107597330D01*
X152908008Y-107599531D01*
X153035000Y-107616250D01*
X153178709Y-107597330D01*
X153312625Y-107541861D01*
X153427621Y-107453621D01*
X153515861Y-107338625D01*
X153571330Y-107204709D01*
X153590250Y-107061000D01*
X153571330Y-106917291D01*
X153568465Y-106910375D01*
X153555083Y-106878067D01*
X153515861Y-106783375D01*
X153457363Y-106707139D01*
X153436539Y-106680000D01*
X154178000Y-106680000D01*
X154686000Y-107188000D01*
X157733999Y-107188000D01*
X157734000Y-107188000D01*
X158242000Y-106680000D01*
X158242000Y-106061418D01*
X158257504Y-106008226D01*
X158299160Y-105971694D01*
X158353921Y-105963265D01*
X158356786Y-105963642D01*
X158369000Y-105965250D01*
X158512709Y-105946330D01*
X158646625Y-105890861D01*
X158761621Y-105802621D01*
X158849861Y-105687625D01*
X158905330Y-105553709D01*
X158924250Y-105410000D01*
X158917324Y-105357395D01*
X160185745Y-105357395D01*
X160195746Y-105567332D01*
X160245294Y-105771574D01*
X160332604Y-105962754D01*
X160454510Y-106133948D01*
X160454513Y-106133951D01*
X160454514Y-106133952D01*
X160534367Y-106210091D01*
X160606622Y-106278986D01*
X160783431Y-106392615D01*
X160978539Y-106470724D01*
X160978541Y-106470724D01*
X160978543Y-106470725D01*
X161184915Y-106510500D01*
X161342422Y-106510500D01*
X161342425Y-106510500D01*
X161499218Y-106495528D01*
X161700875Y-106436316D01*
X161887682Y-106340011D01*
X162052886Y-106210092D01*
X162190519Y-106051256D01*
X162295604Y-105869244D01*
X162364344Y-105670633D01*
X162394254Y-105462602D01*
X162384254Y-105252670D01*
X162359193Y-105149367D01*
X162334705Y-105048425D01*
X162247395Y-104857245D01*
X162125489Y-104686051D01*
X161973377Y-104541013D01*
X161796568Y-104427384D01*
X161601460Y-104349275D01*
X161432499Y-104316711D01*
X161395085Y-104309500D01*
X161237575Y-104309500D01*
X161148015Y-104318052D01*
X161080780Y-104324472D01*
X160879124Y-104383683D01*
X160692317Y-104479989D01*
X160527112Y-104609908D01*
X160389483Y-104768740D01*
X160284395Y-104950758D01*
X160215655Y-105149369D01*
X160185745Y-105357395D01*
X158917324Y-105357395D01*
X158905330Y-105266291D01*
X158849861Y-105132375D01*
X158785443Y-105048424D01*
X158761621Y-105017378D01*
X158674799Y-104950758D01*
X158646625Y-104929139D01*
X158607401Y-104912892D01*
X158512709Y-104873669D01*
X158384077Y-104856735D01*
X158369000Y-104854750D01*
X158368999Y-104854750D01*
X158353921Y-104856735D01*
X158299160Y-104848306D01*
X158257504Y-104811774D01*
X158242000Y-104758582D01*
X158242000Y-104140001D01*
X158242000Y-104140000D01*
X157734000Y-103632000D01*
X157733999Y-103632000D01*
X157465020Y-103632000D01*
X157412741Y-103617071D01*
X157376230Y-103576787D01*
X157366497Y-103523296D01*
X157386478Y-103472733D01*
X157387330Y-103471623D01*
X157402061Y-103452425D01*
X157457530Y-103318509D01*
X157476450Y-103174800D01*
X157457530Y-103031091D01*
X157402061Y-102897175D01*
X157352132Y-102832106D01*
X157313821Y-102782178D01*
X157248752Y-102732250D01*
X157198825Y-102693939D01*
X157159601Y-102677692D01*
X157064909Y-102638469D01*
X156921200Y-102619550D01*
X156777490Y-102638469D01*
X156643575Y-102693939D01*
X156528578Y-102782178D01*
X156440339Y-102897175D01*
X156384869Y-103031090D01*
X156365950Y-103174800D01*
X156384869Y-103318509D01*
X156440338Y-103452424D01*
X156455922Y-103472733D01*
X156475903Y-103523296D01*
X156466170Y-103576787D01*
X156429659Y-103617071D01*
X156377380Y-103632000D01*
X154686000Y-103632000D01*
X154178000Y-104140000D01*
X154178000Y-106680000D01*
X153436539Y-106680000D01*
X153427621Y-106668378D01*
X153362552Y-106618450D01*
X153312625Y-106580139D01*
X153250724Y-106554499D01*
X153178709Y-106524669D01*
X153035000Y-106505750D01*
X152891290Y-106524669D01*
X152757375Y-106580139D01*
X152642378Y-106668378D01*
X152554139Y-106783375D01*
X152498669Y-106917290D01*
X152479750Y-107061000D01*
X150985647Y-107061000D01*
X151031330Y-106950709D01*
X151050250Y-106807000D01*
X151031330Y-106663291D01*
X151024741Y-106647385D01*
X151017683Y-106599796D01*
X151033891Y-106554499D01*
X151069538Y-106522190D01*
X151116206Y-106510500D01*
X151182422Y-106510500D01*
X151182425Y-106510500D01*
X151339218Y-106495528D01*
X151540875Y-106436316D01*
X151727682Y-106340011D01*
X151892886Y-106210092D01*
X152030519Y-106051256D01*
X152135604Y-105869244D01*
X152204344Y-105670633D01*
X152234254Y-105462602D01*
X152224254Y-105252670D01*
X152199193Y-105149367D01*
X152174705Y-105048425D01*
X152087395Y-104857245D01*
X151965489Y-104686051D01*
X151813377Y-104541013D01*
X151636569Y-104427385D01*
X151432681Y-104345761D01*
X151433525Y-104343650D01*
X151392345Y-104321201D01*
X151365944Y-104267171D01*
X151375683Y-104207831D01*
X151419838Y-104121173D01*
X151420400Y-104121459D01*
X151429163Y-104100306D01*
X151464311Y-104070290D01*
X151509254Y-104059500D01*
X153477835Y-104059500D01*
X153493755Y-104062097D01*
X153500764Y-104061772D01*
X153500765Y-104061773D01*
X153547641Y-104059606D01*
X153552214Y-104059500D01*
X153570844Y-104059500D01*
X153570951Y-104059480D01*
X153584571Y-104057898D01*
X153612992Y-104056585D01*
X153621982Y-104052615D01*
X153643772Y-104045866D01*
X153653433Y-104044061D01*
X153677623Y-104029082D01*
X153689722Y-104022704D01*
X153715765Y-104011206D01*
X153722710Y-104004259D01*
X153740597Y-103990091D01*
X153748952Y-103984919D01*
X153766095Y-103962216D01*
X153775082Y-103951887D01*
X161206970Y-96519999D01*
X163744340Y-96519999D01*
X163764936Y-96755405D01*
X163826098Y-96983667D01*
X163925963Y-97197826D01*
X163925964Y-97197827D01*
X163925965Y-97197829D01*
X164061505Y-97391401D01*
X164228599Y-97558495D01*
X164422171Y-97694035D01*
X164422172Y-97694035D01*
X164422173Y-97694036D01*
X164636332Y-97793901D01*
X164636333Y-97793901D01*
X164636337Y-97793903D01*
X164864592Y-97855063D01*
X164935168Y-97861237D01*
X165041031Y-97870500D01*
X165041034Y-97870500D01*
X165158966Y-97870500D01*
X165158969Y-97870500D01*
X165247186Y-97862781D01*
X165335408Y-97855063D01*
X165563663Y-97793903D01*
X165777829Y-97694035D01*
X165971401Y-97558495D01*
X166138495Y-97391401D01*
X166274035Y-97197830D01*
X166373903Y-96983663D01*
X166435063Y-96755408D01*
X166455659Y-96520000D01*
X166435063Y-96284592D01*
X166373903Y-96056337D01*
X166274035Y-95842171D01*
X166138495Y-95648599D01*
X165971401Y-95481505D01*
X165855890Y-95400624D01*
X165777826Y-95345963D01*
X165563667Y-95246098D01*
X165335405Y-95184936D01*
X165158969Y-95169500D01*
X165158966Y-95169500D01*
X165041034Y-95169500D01*
X165041031Y-95169500D01*
X164864594Y-95184936D01*
X164636332Y-95246098D01*
X164422173Y-95345963D01*
X164228602Y-95481502D01*
X164061502Y-95648602D01*
X163925963Y-95842172D01*
X163826098Y-96056332D01*
X163764936Y-96284594D01*
X163744340Y-96519999D01*
X161206970Y-96519999D01*
X165012405Y-92714564D01*
X165025496Y-92705147D01*
X165030225Y-92699959D01*
X165030228Y-92699958D01*
X165061877Y-92665239D01*
X165064994Y-92661975D01*
X165078174Y-92648797D01*
X165078238Y-92648702D01*
X165086745Y-92637961D01*
X165105916Y-92616933D01*
X165109464Y-92607771D01*
X165120103Y-92587587D01*
X165125657Y-92579481D01*
X165132171Y-92551782D01*
X165136220Y-92538705D01*
X165146500Y-92512173D01*
X165146500Y-92502347D01*
X165149130Y-92479681D01*
X165151379Y-92470119D01*
X165147448Y-92441946D01*
X165146500Y-92428270D01*
X165146500Y-83875165D01*
X165149097Y-83859244D01*
X165146606Y-83805358D01*
X165146500Y-83800786D01*
X165146500Y-83782157D01*
X165146480Y-83782050D01*
X165144898Y-83768430D01*
X165143585Y-83740008D01*
X165139613Y-83731013D01*
X165132866Y-83709224D01*
X165131061Y-83699567D01*
X165116091Y-83675389D01*
X165109698Y-83663261D01*
X165098206Y-83637234D01*
X165091255Y-83630283D01*
X165077086Y-83612393D01*
X165071919Y-83604048D01*
X165049226Y-83586911D01*
X165038883Y-83577911D01*
X164298187Y-82837215D01*
X164275536Y-82802083D01*
X164269403Y-82760734D01*
X164280880Y-82720544D01*
X164297232Y-82689954D01*
X164357300Y-82491934D01*
X164377583Y-82286000D01*
X164357300Y-82080066D01*
X164297232Y-81882046D01*
X164199685Y-81699550D01*
X164068410Y-81539590D01*
X163908450Y-81408315D01*
X163725954Y-81310768D01*
X163725953Y-81310767D01*
X163725952Y-81310767D01*
X163527933Y-81250699D01*
X163322000Y-81230416D01*
X163116066Y-81250699D01*
X162918047Y-81310767D01*
X162735549Y-81408315D01*
X162575590Y-81539590D01*
X162444315Y-81699549D01*
X162346767Y-81882047D01*
X162286699Y-82080066D01*
X162266416Y-82286000D01*
X162286699Y-82491933D01*
X162346767Y-82689952D01*
X162346768Y-82689954D01*
X162444315Y-82872450D01*
X162575590Y-83032410D01*
X162735550Y-83163685D01*
X162918046Y-83261232D01*
X163053678Y-83302375D01*
X163116066Y-83321300D01*
X163321999Y-83341583D01*
X163321999Y-83341582D01*
X163322000Y-83341583D01*
X163527934Y-83321300D01*
X163725954Y-83261232D01*
X163756542Y-83244881D01*
X163796736Y-83233403D01*
X163838084Y-83239536D01*
X163873216Y-83262187D01*
X164516504Y-83905475D01*
X164537964Y-83937593D01*
X164545500Y-83975479D01*
X164545500Y-84573073D01*
X164529879Y-84626448D01*
X164487947Y-84662979D01*
X164432936Y-84671139D01*
X164382204Y-84648353D01*
X164351763Y-84601811D01*
X164297232Y-84422047D01*
X164297232Y-84422046D01*
X164199685Y-84239550D01*
X164068410Y-84079590D01*
X163908450Y-83948315D01*
X163725954Y-83850768D01*
X163725953Y-83850767D01*
X163725952Y-83850767D01*
X163527933Y-83790699D01*
X163322000Y-83770416D01*
X163116066Y-83790699D01*
X162918047Y-83850767D01*
X162735549Y-83948315D01*
X162575590Y-84079590D01*
X162444315Y-84239549D01*
X162346767Y-84422047D01*
X162286699Y-84620066D01*
X162266416Y-84825999D01*
X162286699Y-85031933D01*
X162346767Y-85229952D01*
X162346768Y-85229954D01*
X162444315Y-85412450D01*
X162575590Y-85572410D01*
X162735550Y-85703685D01*
X162918046Y-85801232D01*
X163116066Y-85861300D01*
X163322000Y-85881583D01*
X163527934Y-85861300D01*
X163725954Y-85801232D01*
X163756542Y-85784881D01*
X163796736Y-85773403D01*
X163838084Y-85779536D01*
X163873216Y-85802187D01*
X164135504Y-86064475D01*
X164156964Y-86096593D01*
X164164500Y-86134479D01*
X164164500Y-86489132D01*
X164149140Y-86542097D01*
X164107828Y-86578627D01*
X164053381Y-86587387D01*
X164002696Y-86565660D01*
X163908450Y-86488315D01*
X163725954Y-86390768D01*
X163725953Y-86390767D01*
X163725952Y-86390767D01*
X163527933Y-86330699D01*
X163322000Y-86310416D01*
X163116066Y-86330699D01*
X162918047Y-86390767D01*
X162735549Y-86488315D01*
X162575590Y-86619590D01*
X162444315Y-86779549D01*
X162346767Y-86962047D01*
X162286699Y-87160066D01*
X162266416Y-87366000D01*
X162286699Y-87571933D01*
X162302335Y-87623477D01*
X162346768Y-87769954D01*
X162444315Y-87952450D01*
X162575590Y-88112410D01*
X162735550Y-88243685D01*
X162918046Y-88341232D01*
X163116066Y-88401300D01*
X163322000Y-88421583D01*
X163527934Y-88401300D01*
X163725954Y-88341232D01*
X163908450Y-88243685D01*
X164002696Y-88166339D01*
X164053381Y-88144613D01*
X164107828Y-88153373D01*
X164149140Y-88189903D01*
X164164500Y-88242868D01*
X164164500Y-88756500D01*
X164151237Y-88806000D01*
X164115000Y-88842237D01*
X164065500Y-88855500D01*
X162452252Y-88855500D01*
X162423010Y-88861316D01*
X162393768Y-88867133D01*
X162327447Y-88911447D01*
X162283133Y-88977768D01*
X162271500Y-89036253D01*
X162271500Y-90775747D01*
X162283133Y-90834231D01*
X162327447Y-90900552D01*
X162371762Y-90930162D01*
X162393769Y-90944867D01*
X162452252Y-90956500D01*
X164065500Y-90956500D01*
X164115000Y-90969763D01*
X164151237Y-91006000D01*
X164164500Y-91055500D01*
X164164500Y-92163521D01*
X164156964Y-92201407D01*
X164135504Y-92233525D01*
X158217382Y-98151646D01*
X158163505Y-98179320D01*
X158103591Y-98170432D01*
X158060068Y-98128310D01*
X158049225Y-98068720D01*
X158049765Y-98064615D01*
X158065250Y-97947000D01*
X158046330Y-97803291D01*
X158042441Y-97793903D01*
X158030083Y-97764067D01*
X157990861Y-97669375D01*
X157940932Y-97604306D01*
X157902621Y-97554378D01*
X157837552Y-97504450D01*
X157787625Y-97466139D01*
X157748401Y-97449892D01*
X157653709Y-97410669D01*
X157510000Y-97391750D01*
X157366290Y-97410669D01*
X157232375Y-97466139D01*
X157117378Y-97554378D01*
X157029139Y-97669375D01*
X156973669Y-97803290D01*
X156954750Y-97947000D01*
X156973669Y-98090709D01*
X157006692Y-98170432D01*
X157029139Y-98224625D01*
X157067450Y-98274552D01*
X157117378Y-98339621D01*
X157167306Y-98377932D01*
X157232375Y-98427861D01*
X157327067Y-98467083D01*
X157366290Y-98483330D01*
X157385210Y-98485820D01*
X157510000Y-98502250D01*
X157631720Y-98486225D01*
X157691310Y-98497068D01*
X157733432Y-98540591D01*
X157742320Y-98600505D01*
X157714646Y-98654382D01*
X154205014Y-102164013D01*
X154163748Y-102188746D01*
X154115696Y-102191107D01*
X154072205Y-102170537D01*
X154043546Y-102131895D01*
X154030542Y-102100500D01*
X154023863Y-102084375D01*
X153974943Y-102020621D01*
X153935623Y-101969378D01*
X153853747Y-101906553D01*
X153820627Y-101881139D01*
X153776499Y-101862861D01*
X153686711Y-101825669D01*
X153543002Y-101806750D01*
X153399292Y-101825669D01*
X153265377Y-101881139D01*
X153150380Y-101969378D01*
X153062141Y-102084375D01*
X153006671Y-102218290D01*
X152987752Y-102361999D01*
X153006671Y-102505709D01*
X153045894Y-102600401D01*
X153062141Y-102639625D01*
X153100452Y-102689552D01*
X153150380Y-102754621D01*
X153265373Y-102842858D01*
X153265377Y-102842861D01*
X153312902Y-102862546D01*
X153351540Y-102891202D01*
X153372110Y-102934693D01*
X153369751Y-102982744D01*
X153345018Y-103024010D01*
X153320527Y-103048502D01*
X153288409Y-103069964D01*
X153250522Y-103077500D01*
X150687165Y-103077500D01*
X150671244Y-103074902D01*
X150617358Y-103077394D01*
X150612786Y-103077500D01*
X150594154Y-103077500D01*
X150594031Y-103077523D01*
X150580419Y-103079101D01*
X150548359Y-103080583D01*
X150528301Y-103079470D01*
X150495000Y-103074195D01*
X150361875Y-103095280D01*
X150241781Y-103156471D01*
X150146471Y-103251781D01*
X150085280Y-103371875D01*
X150064195Y-103504999D01*
X150085280Y-103638124D01*
X150085280Y-103638125D01*
X150085281Y-103638126D01*
X150146472Y-103758220D01*
X150241780Y-103853528D01*
X150361874Y-103914719D01*
X150492385Y-103935389D01*
X150530815Y-103950141D01*
X150559924Y-103979251D01*
X150574677Y-104017683D01*
X150593280Y-104135142D01*
X150593280Y-104135143D01*
X150593281Y-104135144D01*
X150654472Y-104255238D01*
X150665348Y-104266114D01*
X150693099Y-104320474D01*
X150683695Y-104380781D01*
X150640707Y-104424111D01*
X150532317Y-104479989D01*
X150367112Y-104609908D01*
X150229483Y-104768740D01*
X150124395Y-104950758D01*
X150055655Y-105149369D01*
X150025745Y-105357395D01*
X150035746Y-105567332D01*
X150085294Y-105771574D01*
X150172603Y-105962751D01*
X150172604Y-105962753D01*
X150294514Y-106133952D01*
X150301625Y-106140732D01*
X150327517Y-106181957D01*
X150330629Y-106230538D01*
X150310209Y-106274730D01*
X150271195Y-106303846D01*
X150217373Y-106326140D01*
X150102378Y-106414378D01*
X150014139Y-106529375D01*
X149958669Y-106663290D01*
X149939750Y-106807000D01*
X149958669Y-106950709D01*
X149997432Y-107044290D01*
X150014139Y-107084625D01*
X150052450Y-107134552D01*
X150102378Y-107199621D01*
X150152306Y-107237932D01*
X150217375Y-107287861D01*
X150262710Y-107306639D01*
X150267159Y-107308482D01*
X150310862Y-107343872D01*
X150328240Y-107397354D01*
X150313686Y-107451673D01*
X150271895Y-107489302D01*
X150230334Y-107495884D01*
X150230422Y-107496549D01*
X150217500Y-107498250D01*
X150202532Y-107500220D01*
X150073790Y-107517169D01*
X149939875Y-107572639D01*
X149824878Y-107660878D01*
X149736639Y-107775875D01*
X149681169Y-107909790D01*
X149662250Y-108053499D01*
X124325500Y-108053499D01*
X124325500Y-105357395D01*
X129705745Y-105357395D01*
X129715746Y-105567332D01*
X129765294Y-105771574D01*
X129852604Y-105962754D01*
X129974510Y-106133948D01*
X129974513Y-106133951D01*
X129974514Y-106133952D01*
X130054367Y-106210091D01*
X130126622Y-106278986D01*
X130303431Y-106392615D01*
X130498539Y-106470724D01*
X130498541Y-106470724D01*
X130498543Y-106470725D01*
X130704915Y-106510500D01*
X130862422Y-106510500D01*
X130862425Y-106510500D01*
X131019218Y-106495528D01*
X131220875Y-106436316D01*
X131407682Y-106340011D01*
X131572886Y-106210092D01*
X131710519Y-106051256D01*
X131815604Y-105869244D01*
X131884344Y-105670633D01*
X131914254Y-105462602D01*
X131911748Y-105409999D01*
X133175750Y-105409999D01*
X133194669Y-105553709D01*
X133229112Y-105636860D01*
X133250139Y-105687625D01*
X133288450Y-105737552D01*
X133338378Y-105802621D01*
X133388306Y-105840932D01*
X133453375Y-105890861D01*
X133541051Y-105927177D01*
X133587290Y-105946330D01*
X133604001Y-105948530D01*
X133731000Y-105965250D01*
X133743526Y-105963600D01*
X133746079Y-105963265D01*
X133800840Y-105971694D01*
X133842496Y-106008226D01*
X133858000Y-106061418D01*
X133858000Y-106680000D01*
X134366000Y-107188000D01*
X137413999Y-107188000D01*
X137414000Y-107188000D01*
X138763750Y-107188000D01*
X138782669Y-107331709D01*
X138814611Y-107408822D01*
X138838139Y-107465625D01*
X138861358Y-107495884D01*
X138926378Y-107580621D01*
X138948154Y-107597330D01*
X139041375Y-107668861D01*
X139136067Y-107708083D01*
X139175290Y-107724330D01*
X139192008Y-107726531D01*
X139319000Y-107743250D01*
X139462709Y-107724330D01*
X139596625Y-107668861D01*
X139711621Y-107580621D01*
X139799861Y-107465625D01*
X139855330Y-107331709D01*
X139874250Y-107188000D01*
X139855330Y-107044291D01*
X139799861Y-106910375D01*
X139749932Y-106845306D01*
X139711621Y-106795378D01*
X139646552Y-106745450D01*
X139596625Y-106707139D01*
X139531105Y-106680000D01*
X139462709Y-106651669D01*
X139319000Y-106632750D01*
X139175290Y-106651669D01*
X139041375Y-106707139D01*
X138926378Y-106795378D01*
X138838139Y-106910375D01*
X138782669Y-107044290D01*
X138763750Y-107188000D01*
X137414000Y-107188000D01*
X137922000Y-106680000D01*
X137922000Y-105155999D01*
X138509750Y-105155999D01*
X138528669Y-105299709D01*
X138552564Y-105357395D01*
X138584139Y-105433625D01*
X138622450Y-105483552D01*
X138672378Y-105548621D01*
X138722306Y-105586932D01*
X138787375Y-105636861D01*
X138868902Y-105670630D01*
X138921290Y-105692330D01*
X138938008Y-105694531D01*
X139065000Y-105711250D01*
X139208709Y-105692330D01*
X139342625Y-105636861D01*
X139457621Y-105548621D01*
X139545861Y-105433625D01*
X139601330Y-105299709D01*
X139620250Y-105156000D01*
X139601330Y-105012291D01*
X139545861Y-104878375D01*
X139461735Y-104768740D01*
X139457621Y-104763378D01*
X139392552Y-104713450D01*
X139342625Y-104675139D01*
X139303401Y-104658892D01*
X139208709Y-104619669D01*
X139065000Y-104600750D01*
X138921290Y-104619669D01*
X138787375Y-104675139D01*
X138672378Y-104763378D01*
X138584139Y-104878375D01*
X138528669Y-105012290D01*
X138509750Y-105155999D01*
X137922000Y-105155999D01*
X137922000Y-104140000D01*
X137602000Y-103820000D01*
X139332750Y-103820000D01*
X139351669Y-103963709D01*
X139390140Y-104056585D01*
X139407139Y-104097625D01*
X139445450Y-104147552D01*
X139495378Y-104212621D01*
X139529965Y-104239160D01*
X139610375Y-104300861D01*
X139705067Y-104340083D01*
X139744290Y-104356330D01*
X139761008Y-104358531D01*
X139888000Y-104375250D01*
X140031709Y-104356330D01*
X140165625Y-104300861D01*
X140280621Y-104212621D01*
X140321588Y-104159230D01*
X140356342Y-104130710D01*
X140400129Y-104120500D01*
X140818608Y-104120500D01*
X140875263Y-104138314D01*
X140911530Y-104185345D01*
X140914356Y-104244668D01*
X140882724Y-104294933D01*
X140828020Y-104318051D01*
X140782845Y-104322365D01*
X140760780Y-104324472D01*
X140559124Y-104383683D01*
X140372317Y-104479989D01*
X140207112Y-104609908D01*
X140069483Y-104768740D01*
X139964395Y-104950758D01*
X139895655Y-105149369D01*
X139865745Y-105357395D01*
X139875746Y-105567332D01*
X139925294Y-105771574D01*
X140012604Y-105962754D01*
X140134510Y-106133948D01*
X140134513Y-106133951D01*
X140134514Y-106133952D01*
X140214367Y-106210091D01*
X140286622Y-106278986D01*
X140463431Y-106392615D01*
X140658539Y-106470724D01*
X140658541Y-106470724D01*
X140658543Y-106470725D01*
X140864915Y-106510500D01*
X141022422Y-106510500D01*
X141022425Y-106510500D01*
X141179218Y-106495528D01*
X141380875Y-106436316D01*
X141567682Y-106340011D01*
X141732886Y-106210092D01*
X141853509Y-106070886D01*
X144132039Y-106070886D01*
X144150958Y-106214596D01*
X144187927Y-106303846D01*
X144206428Y-106348512D01*
X144240268Y-106392613D01*
X144294667Y-106463508D01*
X144304073Y-106470725D01*
X144409664Y-106551748D01*
X144504356Y-106590970D01*
X144543579Y-106607217D01*
X144560297Y-106609418D01*
X144687289Y-106626137D01*
X144830998Y-106607217D01*
X144964914Y-106551748D01*
X145079910Y-106463508D01*
X145168150Y-106348512D01*
X145223619Y-106214596D01*
X145242539Y-106070887D01*
X145223619Y-105927178D01*
X145168150Y-105793262D01*
X145090702Y-105692330D01*
X145079910Y-105678265D01*
X145014841Y-105628337D01*
X144964914Y-105590026D01*
X144910125Y-105567332D01*
X144830998Y-105534556D01*
X144687289Y-105515637D01*
X144543579Y-105534556D01*
X144409664Y-105590026D01*
X144294667Y-105678265D01*
X144206428Y-105793262D01*
X144150958Y-105927177D01*
X144132039Y-106070886D01*
X141853509Y-106070886D01*
X141870519Y-106051256D01*
X141975604Y-105869244D01*
X142044344Y-105670633D01*
X142074254Y-105462602D01*
X142064254Y-105252670D01*
X142039193Y-105149367D01*
X142014705Y-105048425D01*
X141927395Y-104857245D01*
X141805489Y-104686051D01*
X141653377Y-104541013D01*
X141476568Y-104427384D01*
X141281460Y-104349275D01*
X141132023Y-104320474D01*
X141112497Y-104316710D01*
X141061564Y-104289836D01*
X141034206Y-104239160D01*
X141039680Y-104181832D01*
X141076135Y-104137250D01*
X141131234Y-104120500D01*
X148336835Y-104120500D01*
X148352755Y-104123097D01*
X148359764Y-104122772D01*
X148359765Y-104122773D01*
X148406641Y-104120606D01*
X148411214Y-104120500D01*
X148429844Y-104120500D01*
X148429951Y-104120480D01*
X148443571Y-104118898D01*
X148471992Y-104117585D01*
X148480982Y-104113615D01*
X148502772Y-104106866D01*
X148512433Y-104105061D01*
X148536623Y-104090082D01*
X148548722Y-104083704D01*
X148574765Y-104072206D01*
X148581710Y-104065259D01*
X148599597Y-104051091D01*
X148607952Y-104045919D01*
X148625095Y-104023216D01*
X148634082Y-104012887D01*
X150593305Y-102053664D01*
X150606396Y-102044247D01*
X150611125Y-102039059D01*
X150611128Y-102039058D01*
X150642777Y-102004339D01*
X150645894Y-102001075D01*
X150659074Y-101987897D01*
X150659138Y-101987802D01*
X150667645Y-101977061D01*
X150686816Y-101956033D01*
X150690366Y-101946866D01*
X150701004Y-101926685D01*
X150706556Y-101918581D01*
X150709385Y-101906550D01*
X150732285Y-101862861D01*
X150773427Y-101835645D01*
X150822595Y-101831661D01*
X150867582Y-101851898D01*
X150897219Y-101891332D01*
X150903139Y-101905625D01*
X150991378Y-102020621D01*
X151034445Y-102053667D01*
X151106375Y-102108861D01*
X151201067Y-102148083D01*
X151240290Y-102164330D01*
X151257008Y-102166531D01*
X151384000Y-102183250D01*
X151527709Y-102164330D01*
X151661625Y-102108861D01*
X151776621Y-102020621D01*
X151864861Y-101905625D01*
X151920330Y-101771709D01*
X151939250Y-101628000D01*
X151920330Y-101484291D01*
X151864861Y-101350375D01*
X151814932Y-101285306D01*
X151776621Y-101235378D01*
X151711552Y-101185450D01*
X151661625Y-101147139D01*
X151622401Y-101130892D01*
X151527709Y-101091669D01*
X151384000Y-101072750D01*
X151240290Y-101091669D01*
X151106375Y-101147139D01*
X150991378Y-101235378D01*
X150904942Y-101348025D01*
X150855138Y-101382495D01*
X150794578Y-101381504D01*
X150745928Y-101345423D01*
X150727400Y-101287758D01*
X150727400Y-100510229D01*
X150737610Y-100466442D01*
X150766130Y-100431688D01*
X150819521Y-100390721D01*
X150907761Y-100275725D01*
X150963230Y-100141809D01*
X150964216Y-100134313D01*
X150987937Y-100081959D01*
X151036747Y-100051607D01*
X151094193Y-100053488D01*
X151140910Y-100086966D01*
X151169801Y-100124617D01*
X151217378Y-100186621D01*
X151267306Y-100224932D01*
X151332375Y-100274861D01*
X151425951Y-100313621D01*
X151466290Y-100330330D01*
X151483008Y-100332531D01*
X151610000Y-100349250D01*
X151753709Y-100330330D01*
X151887625Y-100274861D01*
X152002621Y-100186621D01*
X152090861Y-100071625D01*
X152146330Y-99937709D01*
X152165250Y-99794000D01*
X152146330Y-99650291D01*
X152143465Y-99643375D01*
X152130083Y-99611067D01*
X152090861Y-99516375D01*
X152023011Y-99427951D01*
X152002621Y-99401378D01*
X151937552Y-99351450D01*
X151887625Y-99313139D01*
X151848401Y-99296892D01*
X151753709Y-99257669D01*
X151610000Y-99238750D01*
X151466290Y-99257669D01*
X151332375Y-99313139D01*
X151217378Y-99401378D01*
X151129139Y-99516375D01*
X151073668Y-99650293D01*
X151072681Y-99657791D01*
X151048959Y-99710143D01*
X151000150Y-99740492D01*
X150942705Y-99738611D01*
X150895988Y-99705133D01*
X150848600Y-99643375D01*
X150819521Y-99605478D01*
X150754452Y-99555550D01*
X150704525Y-99517239D01*
X150665301Y-99500992D01*
X150570609Y-99461769D01*
X150426900Y-99442850D01*
X150283190Y-99461769D01*
X150149275Y-99517239D01*
X150034278Y-99605478D01*
X149946039Y-99720475D01*
X149890569Y-99854390D01*
X149871650Y-99998100D01*
X149890569Y-100141809D01*
X149929792Y-100236501D01*
X149946039Y-100275725D01*
X149983849Y-100325000D01*
X150034276Y-100390718D01*
X150034277Y-100390719D01*
X150034279Y-100390721D01*
X150087669Y-100431688D01*
X150116190Y-100466442D01*
X150126400Y-100510229D01*
X150126400Y-101629621D01*
X150118864Y-101667507D01*
X150097404Y-101699625D01*
X148306525Y-103490504D01*
X148274407Y-103511964D01*
X148236521Y-103519500D01*
X147585056Y-103519500D01*
X147536374Y-103506704D01*
X147500277Y-103471623D01*
X147486096Y-103423327D01*
X147497497Y-103374300D01*
X147531533Y-103337216D01*
X147656125Y-103257145D01*
X147656125Y-103257144D01*
X147656128Y-103257143D01*
X147750377Y-103148373D01*
X147810165Y-103017457D01*
X147830647Y-102875000D01*
X147810165Y-102732543D01*
X147750377Y-102601627D01*
X147656128Y-102492857D01*
X147656127Y-102492856D01*
X147656125Y-102492854D01*
X147535054Y-102415047D01*
X147396961Y-102374500D01*
X147253039Y-102374500D01*
X147114945Y-102415047D01*
X146993874Y-102492854D01*
X146899622Y-102601628D01*
X146839834Y-102732544D01*
X146819352Y-102875000D01*
X146839834Y-103017455D01*
X146867266Y-103077523D01*
X146899623Y-103148373D01*
X146989225Y-103251780D01*
X146993874Y-103257145D01*
X147118467Y-103337216D01*
X147152503Y-103374300D01*
X147163904Y-103423327D01*
X147149723Y-103471623D01*
X147113626Y-103506704D01*
X147064944Y-103519500D01*
X146310056Y-103519500D01*
X146261374Y-103506704D01*
X146225277Y-103471623D01*
X146211096Y-103423327D01*
X146222497Y-103374300D01*
X146256533Y-103337216D01*
X146381125Y-103257145D01*
X146381125Y-103257144D01*
X146381128Y-103257143D01*
X146475377Y-103148373D01*
X146535165Y-103017457D01*
X146555647Y-102875000D01*
X146535165Y-102732543D01*
X146475377Y-102601627D01*
X146381128Y-102492857D01*
X146381127Y-102492856D01*
X146381125Y-102492854D01*
X146260054Y-102415047D01*
X146121961Y-102374500D01*
X145978039Y-102374500D01*
X145839945Y-102415047D01*
X145718874Y-102492854D01*
X145624622Y-102601628D01*
X145564834Y-102732544D01*
X145544352Y-102875000D01*
X145564834Y-103017455D01*
X145592266Y-103077523D01*
X145624623Y-103148373D01*
X145714225Y-103251780D01*
X145718874Y-103257145D01*
X145843467Y-103337216D01*
X145877503Y-103374300D01*
X145888904Y-103423327D01*
X145874723Y-103471623D01*
X145838626Y-103506704D01*
X145789944Y-103519500D01*
X145035056Y-103519500D01*
X144986374Y-103506704D01*
X144950277Y-103471623D01*
X144936096Y-103423327D01*
X144947497Y-103374300D01*
X144981533Y-103337216D01*
X145106125Y-103257145D01*
X145106125Y-103257144D01*
X145106128Y-103257143D01*
X145200377Y-103148373D01*
X145260165Y-103017457D01*
X145280647Y-102875000D01*
X145260165Y-102732543D01*
X145200377Y-102601627D01*
X145106128Y-102492857D01*
X145106127Y-102492856D01*
X145106125Y-102492854D01*
X144985054Y-102415047D01*
X144846961Y-102374500D01*
X144703039Y-102374500D01*
X144564945Y-102415047D01*
X144443874Y-102492854D01*
X144349622Y-102601628D01*
X144289834Y-102732544D01*
X144269352Y-102875000D01*
X144289834Y-103017455D01*
X144317266Y-103077523D01*
X144349623Y-103148373D01*
X144439225Y-103251780D01*
X144443874Y-103257145D01*
X144568467Y-103337216D01*
X144602503Y-103374300D01*
X144613904Y-103423327D01*
X144599723Y-103471623D01*
X144563626Y-103506704D01*
X144514944Y-103519500D01*
X140400129Y-103519500D01*
X140356342Y-103509290D01*
X140321588Y-103480769D01*
X140280621Y-103427379D01*
X140280619Y-103427377D01*
X140280618Y-103427376D01*
X140208286Y-103371874D01*
X140165625Y-103339139D01*
X140115819Y-103318509D01*
X140031709Y-103283669D01*
X139888000Y-103264750D01*
X139744290Y-103283669D01*
X139610375Y-103339139D01*
X139495378Y-103427378D01*
X139407139Y-103542375D01*
X139351669Y-103676290D01*
X139332750Y-103820000D01*
X137602000Y-103820000D01*
X137414000Y-103632000D01*
X134366000Y-103632000D01*
X133858000Y-104140000D01*
X133858000Y-104140001D01*
X133858000Y-104758582D01*
X133842496Y-104811774D01*
X133800840Y-104848306D01*
X133746079Y-104856735D01*
X133731000Y-104854750D01*
X133587290Y-104873669D01*
X133453375Y-104929139D01*
X133338378Y-105017378D01*
X133250139Y-105132375D01*
X133194669Y-105266290D01*
X133175750Y-105409999D01*
X131911748Y-105409999D01*
X131904254Y-105252670D01*
X131879193Y-105149367D01*
X131854705Y-105048425D01*
X131767395Y-104857245D01*
X131645489Y-104686051D01*
X131493377Y-104541013D01*
X131316568Y-104427384D01*
X131121460Y-104349275D01*
X130952499Y-104316711D01*
X130915085Y-104309500D01*
X130757575Y-104309500D01*
X130668015Y-104318052D01*
X130600780Y-104324472D01*
X130399124Y-104383683D01*
X130212317Y-104479989D01*
X130047112Y-104609908D01*
X129909483Y-104768740D01*
X129804395Y-104950758D01*
X129735655Y-105149369D01*
X129705745Y-105357395D01*
X124325500Y-105357395D01*
X124325500Y-101599999D01*
X140160750Y-101599999D01*
X140179669Y-101743709D01*
X140213618Y-101825669D01*
X140235139Y-101877625D01*
X140266565Y-101918580D01*
X140323378Y-101992621D01*
X140338681Y-102004363D01*
X140438375Y-102080861D01*
X140533067Y-102120083D01*
X140572290Y-102136330D01*
X140589008Y-102138531D01*
X140716000Y-102155250D01*
X140859709Y-102136330D01*
X140993625Y-102080861D01*
X141108621Y-101992621D01*
X141196861Y-101877625D01*
X141252330Y-101743709D01*
X141271250Y-101600000D01*
X141271250Y-101599999D01*
X144269352Y-101599999D01*
X144289834Y-101742455D01*
X144330573Y-101831661D01*
X144349623Y-101873373D01*
X144443872Y-101982143D01*
X144443874Y-101982145D01*
X144564945Y-102059952D01*
X144564947Y-102059953D01*
X144703039Y-102100500D01*
X144846961Y-102100500D01*
X144985053Y-102059953D01*
X145106128Y-101982143D01*
X145200377Y-101873373D01*
X145260165Y-101742457D01*
X145280647Y-101600000D01*
X145280647Y-101599999D01*
X145544352Y-101599999D01*
X145564834Y-101742455D01*
X145605573Y-101831661D01*
X145624623Y-101873373D01*
X145718872Y-101982143D01*
X145718874Y-101982145D01*
X145839945Y-102059952D01*
X145839947Y-102059953D01*
X145978039Y-102100500D01*
X146121961Y-102100500D01*
X146260053Y-102059953D01*
X146381128Y-101982143D01*
X146475377Y-101873373D01*
X146535165Y-101742457D01*
X146555647Y-101600000D01*
X146555647Y-101599999D01*
X146819352Y-101599999D01*
X146839834Y-101742455D01*
X146880573Y-101831661D01*
X146899623Y-101873373D01*
X146993872Y-101982143D01*
X146993874Y-101982145D01*
X147114945Y-102059952D01*
X147114947Y-102059953D01*
X147253039Y-102100500D01*
X147396961Y-102100500D01*
X147535053Y-102059953D01*
X147656128Y-101982143D01*
X147750377Y-101873373D01*
X147810165Y-101742457D01*
X147830647Y-101600000D01*
X147810165Y-101457543D01*
X147750377Y-101326627D01*
X147656128Y-101217857D01*
X147656127Y-101217856D01*
X147656125Y-101217854D01*
X147535054Y-101140047D01*
X147396961Y-101099500D01*
X147253039Y-101099500D01*
X147114945Y-101140047D01*
X146993874Y-101217854D01*
X146899622Y-101326628D01*
X146839834Y-101457544D01*
X146819352Y-101599999D01*
X146555647Y-101599999D01*
X146535165Y-101457543D01*
X146475377Y-101326627D01*
X146381128Y-101217857D01*
X146381127Y-101217856D01*
X146381125Y-101217854D01*
X146260054Y-101140047D01*
X146121961Y-101099500D01*
X145978039Y-101099500D01*
X145839945Y-101140047D01*
X145718874Y-101217854D01*
X145624622Y-101326628D01*
X145564834Y-101457544D01*
X145544352Y-101599999D01*
X145280647Y-101599999D01*
X145260165Y-101457543D01*
X145200377Y-101326627D01*
X145106128Y-101217857D01*
X145106127Y-101217856D01*
X145106125Y-101217854D01*
X144985054Y-101140047D01*
X144846961Y-101099500D01*
X144703039Y-101099500D01*
X144564945Y-101140047D01*
X144443874Y-101217854D01*
X144349622Y-101326628D01*
X144289834Y-101457544D01*
X144269352Y-101599999D01*
X141271250Y-101599999D01*
X141252330Y-101456291D01*
X141196861Y-101322375D01*
X141146932Y-101257306D01*
X141108621Y-101207378D01*
X141030115Y-101147139D01*
X140993625Y-101119139D01*
X140946212Y-101099500D01*
X140859709Y-101063669D01*
X140716000Y-101044750D01*
X140572290Y-101063669D01*
X140438375Y-101119139D01*
X140323378Y-101207378D01*
X140235139Y-101322375D01*
X140179669Y-101456290D01*
X140160750Y-101599999D01*
X124325500Y-101599999D01*
X124325500Y-100569999D01*
X133062750Y-100569999D01*
X133081669Y-100713709D01*
X133111179Y-100784952D01*
X133137139Y-100847625D01*
X133175450Y-100897552D01*
X133225378Y-100962621D01*
X133275306Y-101000932D01*
X133340375Y-101050861D01*
X133435067Y-101090083D01*
X133474290Y-101106330D01*
X133491008Y-101108531D01*
X133618000Y-101125250D01*
X133761709Y-101106330D01*
X133895625Y-101050861D01*
X134010621Y-100962621D01*
X134098861Y-100847625D01*
X134154330Y-100713709D01*
X134173250Y-100570000D01*
X134154330Y-100426291D01*
X134144210Y-100401860D01*
X134122419Y-100349250D01*
X134098861Y-100292375D01*
X134017713Y-100186621D01*
X134010621Y-100177378D01*
X133945552Y-100127450D01*
X133895625Y-100089139D01*
X133836645Y-100064709D01*
X133761709Y-100033669D01*
X133618000Y-100014750D01*
X133474290Y-100033669D01*
X133340375Y-100089139D01*
X133225378Y-100177378D01*
X133137139Y-100292375D01*
X133081669Y-100426290D01*
X133062750Y-100569999D01*
X124325500Y-100569999D01*
X124325500Y-99921000D01*
X139934750Y-99921000D01*
X139953669Y-100064709D01*
X139982500Y-100134313D01*
X140009139Y-100198625D01*
X140047450Y-100248552D01*
X140097378Y-100313621D01*
X140112208Y-100325000D01*
X140212375Y-100401861D01*
X140307067Y-100441083D01*
X140346290Y-100457330D01*
X140363008Y-100459531D01*
X140490000Y-100476250D01*
X140633709Y-100457330D01*
X140767625Y-100401861D01*
X140867793Y-100324999D01*
X144269352Y-100324999D01*
X144289834Y-100467455D01*
X144309368Y-100510229D01*
X144349623Y-100598373D01*
X144443872Y-100707143D01*
X144443874Y-100707145D01*
X144564945Y-100784952D01*
X144564947Y-100784953D01*
X144703039Y-100825500D01*
X144846961Y-100825500D01*
X144985053Y-100784953D01*
X145106128Y-100707143D01*
X145200377Y-100598373D01*
X145260165Y-100467457D01*
X145280647Y-100325000D01*
X145280647Y-100324999D01*
X145544352Y-100324999D01*
X145564834Y-100467455D01*
X145584368Y-100510229D01*
X145624623Y-100598373D01*
X145718872Y-100707143D01*
X145718874Y-100707145D01*
X145839945Y-100784952D01*
X145839947Y-100784953D01*
X145978039Y-100825500D01*
X146121961Y-100825500D01*
X146260053Y-100784953D01*
X146381128Y-100707143D01*
X146475377Y-100598373D01*
X146535165Y-100467457D01*
X146555647Y-100325000D01*
X146555647Y-100324999D01*
X146819352Y-100324999D01*
X146839834Y-100467455D01*
X146859368Y-100510229D01*
X146899623Y-100598373D01*
X146993872Y-100707143D01*
X146993874Y-100707145D01*
X147114945Y-100784952D01*
X147114947Y-100784953D01*
X147253039Y-100825500D01*
X147396961Y-100825500D01*
X147535053Y-100784953D01*
X147656128Y-100707143D01*
X147750377Y-100598373D01*
X147810165Y-100467457D01*
X147830647Y-100325000D01*
X147810165Y-100182543D01*
X147750377Y-100051627D01*
X147656128Y-99942857D01*
X147656127Y-99942856D01*
X147656125Y-99942854D01*
X147535054Y-99865047D01*
X147396961Y-99824500D01*
X147253039Y-99824500D01*
X147114945Y-99865047D01*
X146993874Y-99942854D01*
X146899622Y-100051628D01*
X146839834Y-100182544D01*
X146819352Y-100324999D01*
X146555647Y-100324999D01*
X146535165Y-100182543D01*
X146475377Y-100051627D01*
X146381128Y-99942857D01*
X146381127Y-99942856D01*
X146381125Y-99942854D01*
X146260054Y-99865047D01*
X146121961Y-99824500D01*
X145978039Y-99824500D01*
X145839945Y-99865047D01*
X145718874Y-99942854D01*
X145624622Y-100051628D01*
X145564834Y-100182544D01*
X145544352Y-100324999D01*
X145280647Y-100324999D01*
X145260165Y-100182543D01*
X145200377Y-100051627D01*
X145106128Y-99942857D01*
X145106127Y-99942856D01*
X145106125Y-99942854D01*
X144985054Y-99865047D01*
X144846961Y-99824500D01*
X144703039Y-99824500D01*
X144564945Y-99865047D01*
X144443874Y-99942854D01*
X144349622Y-100051628D01*
X144289834Y-100182544D01*
X144269352Y-100324999D01*
X140867793Y-100324999D01*
X140882621Y-100313621D01*
X140970861Y-100198625D01*
X141026330Y-100064709D01*
X141045250Y-99921000D01*
X141026330Y-99777291D01*
X140970861Y-99643375D01*
X140920932Y-99578306D01*
X140882621Y-99528378D01*
X140817552Y-99478450D01*
X140767625Y-99440139D01*
X140728401Y-99423892D01*
X140633709Y-99384669D01*
X140490000Y-99365750D01*
X140346290Y-99384669D01*
X140212375Y-99440139D01*
X140097378Y-99528378D01*
X140009139Y-99643375D01*
X139953669Y-99777290D01*
X139934750Y-99921000D01*
X124325500Y-99921000D01*
X124325500Y-96520000D01*
X125644340Y-96520000D01*
X125664936Y-96755405D01*
X125726098Y-96983667D01*
X125825963Y-97197826D01*
X125825964Y-97197827D01*
X125825965Y-97197829D01*
X125961505Y-97391401D01*
X126128599Y-97558495D01*
X126322171Y-97694035D01*
X126322172Y-97694035D01*
X126322173Y-97694036D01*
X126536332Y-97793901D01*
X126536333Y-97793901D01*
X126536337Y-97793903D01*
X126764592Y-97855063D01*
X126835168Y-97861237D01*
X126941031Y-97870500D01*
X126941034Y-97870500D01*
X127058966Y-97870500D01*
X127058969Y-97870500D01*
X127147186Y-97862781D01*
X127235408Y-97855063D01*
X127463663Y-97793903D01*
X127677829Y-97694035D01*
X127871401Y-97558495D01*
X128038495Y-97391401D01*
X128174035Y-97197830D01*
X128231253Y-97075125D01*
X137907850Y-97075125D01*
X137926769Y-97218834D01*
X137965992Y-97313526D01*
X137982239Y-97352750D01*
X138011894Y-97391397D01*
X138070478Y-97467746D01*
X138120406Y-97506057D01*
X138185475Y-97555986D01*
X138280167Y-97595208D01*
X138319390Y-97611455D01*
X138336108Y-97613656D01*
X138463100Y-97630375D01*
X138606809Y-97611455D01*
X138740725Y-97555986D01*
X138855721Y-97467746D01*
X138943961Y-97352750D01*
X138999430Y-97218834D01*
X139018350Y-97075125D01*
X138999430Y-96931416D01*
X138974281Y-96870700D01*
X139906750Y-96870700D01*
X139925669Y-97014409D01*
X139950819Y-97075125D01*
X139981139Y-97148325D01*
X140019123Y-97197826D01*
X140069378Y-97263321D01*
X140119306Y-97301632D01*
X140184375Y-97351561D01*
X140279067Y-97390783D01*
X140318290Y-97407030D01*
X140335008Y-97409231D01*
X140462000Y-97425950D01*
X140605709Y-97407030D01*
X140739625Y-97351561D01*
X140854621Y-97263321D01*
X140942861Y-97148325D01*
X140998330Y-97014409D01*
X141017250Y-96870700D01*
X140998330Y-96726991D01*
X140942861Y-96593075D01*
X140886692Y-96519875D01*
X140854621Y-96478078D01*
X140749125Y-96397129D01*
X140739625Y-96389839D01*
X140700401Y-96373592D01*
X140605709Y-96334369D01*
X140462000Y-96315450D01*
X140318290Y-96334369D01*
X140184375Y-96389839D01*
X140069378Y-96478078D01*
X139981139Y-96593075D01*
X139925669Y-96726990D01*
X139906750Y-96870700D01*
X138974281Y-96870700D01*
X138943961Y-96797500D01*
X138889857Y-96726991D01*
X138855721Y-96682503D01*
X138790652Y-96632575D01*
X138740725Y-96594264D01*
X138701501Y-96578017D01*
X138606809Y-96538794D01*
X138463100Y-96519875D01*
X138319390Y-96538794D01*
X138185475Y-96594264D01*
X138070478Y-96682503D01*
X137982239Y-96797500D01*
X137926769Y-96931415D01*
X137907850Y-97075125D01*
X128231253Y-97075125D01*
X128273903Y-96983663D01*
X128335063Y-96755408D01*
X128355659Y-96520000D01*
X128335063Y-96284592D01*
X128273903Y-96056337D01*
X128194007Y-95885000D01*
X145294750Y-95885000D01*
X145313669Y-96028709D01*
X145352892Y-96123401D01*
X145369139Y-96162625D01*
X145415344Y-96222841D01*
X145457376Y-96277618D01*
X145457377Y-96277619D01*
X145457379Y-96277621D01*
X145510769Y-96318588D01*
X145539290Y-96353342D01*
X145549500Y-96397129D01*
X145549500Y-98540835D01*
X145546902Y-98556755D01*
X145549394Y-98610642D01*
X145549500Y-98615214D01*
X145549500Y-98633846D01*
X145549521Y-98633958D01*
X145551101Y-98647578D01*
X145552414Y-98675991D01*
X145556384Y-98684982D01*
X145563132Y-98706773D01*
X145564938Y-98716432D01*
X145579911Y-98740616D01*
X145586300Y-98752736D01*
X145597794Y-98778765D01*
X145597795Y-98778766D01*
X145604743Y-98785715D01*
X145618910Y-98803600D01*
X145624081Y-98811953D01*
X145646772Y-98829087D01*
X145657117Y-98838088D01*
X145962887Y-99143858D01*
X145972308Y-99156952D01*
X146012177Y-99193298D01*
X146015482Y-99196454D01*
X146028652Y-99209624D01*
X146028746Y-99209688D01*
X146039490Y-99218197D01*
X146060518Y-99237367D01*
X146069681Y-99240916D01*
X146089864Y-99251554D01*
X146097970Y-99257107D01*
X146125662Y-99263620D01*
X146138749Y-99267673D01*
X146165278Y-99277951D01*
X146175103Y-99277951D01*
X146197768Y-99280580D01*
X146207332Y-99282830D01*
X146235504Y-99278899D01*
X146249182Y-99277951D01*
X146872445Y-99277951D01*
X146913571Y-99286897D01*
X146947264Y-99312119D01*
X146955323Y-99321419D01*
X147053744Y-99384670D01*
X147064302Y-99391455D01*
X147188599Y-99427951D01*
X147318143Y-99427951D01*
X147442440Y-99391455D01*
X147551420Y-99321418D01*
X147623182Y-99238597D01*
X147636254Y-99223513D01*
X147690068Y-99105678D01*
X147708504Y-98977451D01*
X147690068Y-98849223D01*
X147636254Y-98731388D01*
X147551421Y-98633485D01*
X147551420Y-98633484D01*
X147442935Y-98563765D01*
X147442439Y-98563446D01*
X147318143Y-98526951D01*
X147188599Y-98526951D01*
X147064300Y-98563447D01*
X146955323Y-98633482D01*
X146947264Y-98642783D01*
X146913571Y-98668005D01*
X146872445Y-98676951D01*
X146386930Y-98676951D01*
X146349044Y-98669415D01*
X146316926Y-98647955D01*
X146179496Y-98510525D01*
X146158036Y-98478407D01*
X146150500Y-98440521D01*
X146150500Y-96397129D01*
X146160710Y-96353342D01*
X146189230Y-96318588D01*
X146242621Y-96277621D01*
X146330861Y-96162625D01*
X146386330Y-96028709D01*
X146405250Y-95885000D01*
X146386330Y-95741291D01*
X146330861Y-95607375D01*
X146280932Y-95542306D01*
X146242621Y-95492378D01*
X146165842Y-95433464D01*
X146127625Y-95404139D01*
X146088401Y-95387892D01*
X145993709Y-95348669D01*
X145850000Y-95329750D01*
X145706290Y-95348669D01*
X145572375Y-95404139D01*
X145457378Y-95492378D01*
X145369139Y-95607375D01*
X145313669Y-95741290D01*
X145294750Y-95885000D01*
X128194007Y-95885000D01*
X128174035Y-95842171D01*
X128038495Y-95648599D01*
X127871401Y-95481505D01*
X127755890Y-95400624D01*
X127677826Y-95345963D01*
X127463667Y-95246098D01*
X127235405Y-95184936D01*
X127058969Y-95169500D01*
X127058966Y-95169500D01*
X126941034Y-95169500D01*
X126941031Y-95169500D01*
X126764594Y-95184936D01*
X126536332Y-95246098D01*
X126322173Y-95345963D01*
X126128602Y-95481502D01*
X125961502Y-95648602D01*
X125825963Y-95842172D01*
X125726098Y-96056332D01*
X125664936Y-96284594D01*
X125644340Y-96520000D01*
X124325500Y-96520000D01*
X124325500Y-95123000D01*
X147526750Y-95123000D01*
X147545669Y-95266709D01*
X147578498Y-95345965D01*
X147601139Y-95400625D01*
X147639450Y-95450552D01*
X147689378Y-95515621D01*
X147739306Y-95553932D01*
X147804375Y-95603861D01*
X147899067Y-95643083D01*
X147938290Y-95659330D01*
X147955008Y-95661531D01*
X148082000Y-95678250D01*
X148225709Y-95659330D01*
X148359625Y-95603861D01*
X148474621Y-95515621D01*
X148474620Y-95515621D01*
X148511458Y-95467615D01*
X148560230Y-95433464D01*
X148619770Y-95433464D01*
X148668542Y-95467615D01*
X148705378Y-95515621D01*
X148755306Y-95553932D01*
X148820375Y-95603861D01*
X148915067Y-95643083D01*
X148954290Y-95659330D01*
X148971008Y-95661531D01*
X149098000Y-95678250D01*
X149241709Y-95659330D01*
X149375625Y-95603861D01*
X149490621Y-95515621D01*
X149490620Y-95515621D01*
X149527458Y-95467615D01*
X149576230Y-95433464D01*
X149635770Y-95433464D01*
X149684542Y-95467615D01*
X149721378Y-95515621D01*
X149771306Y-95553932D01*
X149836375Y-95603861D01*
X149931067Y-95643083D01*
X149970290Y-95659330D01*
X149987008Y-95661531D01*
X150114000Y-95678250D01*
X150257709Y-95659330D01*
X150391625Y-95603861D01*
X150506621Y-95515621D01*
X150594861Y-95400625D01*
X150650330Y-95266709D01*
X150669250Y-95123000D01*
X150650330Y-94979291D01*
X150594861Y-94845375D01*
X150544932Y-94780306D01*
X150506621Y-94730378D01*
X150441552Y-94680450D01*
X150391625Y-94642139D01*
X150352401Y-94625892D01*
X150257709Y-94586669D01*
X150114000Y-94567750D01*
X149970290Y-94586669D01*
X149836375Y-94642139D01*
X149721378Y-94730378D01*
X149684542Y-94778385D01*
X149635770Y-94812536D01*
X149576230Y-94812536D01*
X149527458Y-94778385D01*
X149490621Y-94730378D01*
X149425552Y-94680450D01*
X149375625Y-94642139D01*
X149336401Y-94625892D01*
X149241709Y-94586669D01*
X149098000Y-94567750D01*
X148954290Y-94586669D01*
X148820375Y-94642139D01*
X148705378Y-94730378D01*
X148668542Y-94778385D01*
X148619770Y-94812536D01*
X148560230Y-94812536D01*
X148511458Y-94778385D01*
X148474621Y-94730378D01*
X148409552Y-94680450D01*
X148359625Y-94642139D01*
X148320401Y-94625892D01*
X148225709Y-94586669D01*
X148082000Y-94567750D01*
X147938290Y-94586669D01*
X147804375Y-94642139D01*
X147689378Y-94730378D01*
X147601139Y-94845375D01*
X147545669Y-94979290D01*
X147526750Y-95123000D01*
X124325500Y-95123000D01*
X124325500Y-93827997D01*
X133465852Y-93827997D01*
X133484771Y-93971707D01*
X133523994Y-94066399D01*
X133540241Y-94105623D01*
X133554116Y-94123705D01*
X133628480Y-94220619D01*
X133676701Y-94257620D01*
X133743477Y-94308859D01*
X133838169Y-94348081D01*
X133877392Y-94364328D01*
X133894110Y-94366529D01*
X134021102Y-94383248D01*
X134164811Y-94364328D01*
X134298727Y-94308859D01*
X134413723Y-94220619D01*
X134501963Y-94105623D01*
X134553999Y-93979996D01*
X157940752Y-93979996D01*
X157959671Y-94123705D01*
X157998894Y-94218397D01*
X158015141Y-94257621D01*
X158053452Y-94307548D01*
X158103380Y-94372617D01*
X158153308Y-94410928D01*
X158218377Y-94460857D01*
X158313069Y-94500079D01*
X158352292Y-94516326D01*
X158369010Y-94518527D01*
X158496002Y-94535246D01*
X158639711Y-94516326D01*
X158773627Y-94460857D01*
X158888623Y-94372617D01*
X158976863Y-94257621D01*
X159032332Y-94123705D01*
X159051252Y-93979996D01*
X159032332Y-93836287D01*
X159028898Y-93827997D01*
X159016085Y-93797063D01*
X158976863Y-93702371D01*
X158926934Y-93637302D01*
X158888623Y-93587374D01*
X158823554Y-93537446D01*
X158773627Y-93499135D01*
X158734403Y-93482888D01*
X158639711Y-93443665D01*
X158496002Y-93424746D01*
X158352292Y-93443665D01*
X158218377Y-93499135D01*
X158103380Y-93587374D01*
X158015141Y-93702371D01*
X157959671Y-93836286D01*
X157940752Y-93979996D01*
X134553999Y-93979996D01*
X134557432Y-93971707D01*
X134576352Y-93827998D01*
X134557432Y-93684289D01*
X134501963Y-93550373D01*
X134452034Y-93485304D01*
X134413723Y-93435376D01*
X134348654Y-93385448D01*
X134298727Y-93347137D01*
X134259503Y-93330890D01*
X134164811Y-93291667D01*
X134021102Y-93272748D01*
X133877392Y-93291667D01*
X133743477Y-93347137D01*
X133628480Y-93435376D01*
X133540241Y-93550373D01*
X133484771Y-93684288D01*
X133465852Y-93827997D01*
X124325500Y-93827997D01*
X124325500Y-91948000D01*
X142065750Y-91948000D01*
X142084669Y-92091709D01*
X142114415Y-92163521D01*
X142140139Y-92225625D01*
X142178450Y-92275552D01*
X142228378Y-92340621D01*
X142278306Y-92378932D01*
X142343375Y-92428861D01*
X142438067Y-92468083D01*
X142477290Y-92484330D01*
X142494008Y-92486531D01*
X142621000Y-92503250D01*
X142764709Y-92484330D01*
X142898625Y-92428861D01*
X143013621Y-92340621D01*
X143013621Y-92340620D01*
X143050458Y-92292615D01*
X143099230Y-92258464D01*
X143158770Y-92258464D01*
X143207542Y-92292615D01*
X143244378Y-92340621D01*
X143294306Y-92378932D01*
X143359375Y-92428861D01*
X143454067Y-92468083D01*
X143493290Y-92484330D01*
X143510008Y-92486531D01*
X143637000Y-92503250D01*
X143780709Y-92484330D01*
X143914625Y-92428861D01*
X144029621Y-92340621D01*
X144029621Y-92340620D01*
X144066458Y-92292615D01*
X144115230Y-92258464D01*
X144174770Y-92258464D01*
X144223542Y-92292615D01*
X144260378Y-92340621D01*
X144310306Y-92378932D01*
X144375375Y-92428861D01*
X144470067Y-92468083D01*
X144509290Y-92484330D01*
X144526008Y-92486531D01*
X144653000Y-92503250D01*
X144796709Y-92484330D01*
X144930625Y-92428861D01*
X145045621Y-92340621D01*
X145045621Y-92340620D01*
X145082458Y-92292615D01*
X145131230Y-92258464D01*
X145190770Y-92258464D01*
X145239542Y-92292615D01*
X145276378Y-92340621D01*
X145326306Y-92378932D01*
X145391375Y-92428861D01*
X145486067Y-92468083D01*
X145525290Y-92484330D01*
X145542008Y-92486531D01*
X145669000Y-92503250D01*
X145812709Y-92484330D01*
X145946625Y-92428861D01*
X146061621Y-92340621D01*
X146149861Y-92225625D01*
X146205330Y-92091709D01*
X146224250Y-91948000D01*
X146205330Y-91804291D01*
X146159646Y-91693999D01*
X152098750Y-91693999D01*
X152117669Y-91837709D01*
X152156892Y-91932401D01*
X152173139Y-91971625D01*
X152211450Y-92021552D01*
X152261378Y-92086621D01*
X152311306Y-92124932D01*
X152376375Y-92174861D01*
X152471067Y-92214083D01*
X152510290Y-92230330D01*
X152527008Y-92232531D01*
X152654000Y-92249250D01*
X152797709Y-92230330D01*
X152931625Y-92174861D01*
X153046621Y-92086621D01*
X153046620Y-92086621D01*
X153083458Y-92038615D01*
X153132230Y-92004464D01*
X153191770Y-92004464D01*
X153240542Y-92038615D01*
X153277378Y-92086621D01*
X153327306Y-92124932D01*
X153392375Y-92174861D01*
X153487067Y-92214083D01*
X153526290Y-92230330D01*
X153543008Y-92232531D01*
X153670000Y-92249250D01*
X153813709Y-92230330D01*
X153947625Y-92174861D01*
X154062621Y-92086621D01*
X154150861Y-91971625D01*
X154206330Y-91837709D01*
X154225250Y-91694000D01*
X154206330Y-91550291D01*
X154150861Y-91416375D01*
X154093362Y-91341441D01*
X154062620Y-91301377D01*
X154014614Y-91264540D01*
X153980464Y-91215768D01*
X153980464Y-91156228D01*
X154014614Y-91107457D01*
X154062621Y-91070621D01*
X154150861Y-90955625D01*
X154206330Y-90821709D01*
X154225250Y-90678000D01*
X154206330Y-90534291D01*
X154150861Y-90400375D01*
X154100932Y-90335306D01*
X154062621Y-90285378D01*
X153997552Y-90235450D01*
X153947625Y-90197139D01*
X153908401Y-90180892D01*
X153813709Y-90141669D01*
X153670000Y-90122750D01*
X153526290Y-90141669D01*
X153392375Y-90197139D01*
X153277378Y-90285378D01*
X153240542Y-90333385D01*
X153191770Y-90367536D01*
X153132230Y-90367536D01*
X153083458Y-90333385D01*
X153046621Y-90285378D01*
X152981552Y-90235450D01*
X152931625Y-90197139D01*
X152892401Y-90180892D01*
X152797709Y-90141669D01*
X152654000Y-90122750D01*
X152510290Y-90141669D01*
X152376375Y-90197139D01*
X152261378Y-90285378D01*
X152173139Y-90400375D01*
X152117669Y-90534290D01*
X152098750Y-90677999D01*
X152117669Y-90821709D01*
X152150327Y-90900552D01*
X152173139Y-90955625D01*
X152211450Y-91005552D01*
X152261378Y-91070621D01*
X152309385Y-91107458D01*
X152343536Y-91156230D01*
X152343536Y-91215770D01*
X152309385Y-91264542D01*
X152261378Y-91301378D01*
X152173139Y-91416375D01*
X152117669Y-91550290D01*
X152098750Y-91693999D01*
X146159646Y-91693999D01*
X146149861Y-91670375D01*
X146099932Y-91605306D01*
X146061621Y-91555378D01*
X145965855Y-91481895D01*
X145946625Y-91467139D01*
X145907401Y-91450892D01*
X145812709Y-91411669D01*
X145669000Y-91392750D01*
X145525290Y-91411669D01*
X145391375Y-91467139D01*
X145276378Y-91555378D01*
X145239542Y-91603385D01*
X145190770Y-91637536D01*
X145131230Y-91637536D01*
X145082458Y-91603385D01*
X145045621Y-91555378D01*
X144949855Y-91481895D01*
X144930625Y-91467139D01*
X144891401Y-91450892D01*
X144796709Y-91411669D01*
X144653000Y-91392750D01*
X144509290Y-91411669D01*
X144375375Y-91467139D01*
X144260378Y-91555378D01*
X144223542Y-91603385D01*
X144174770Y-91637536D01*
X144115230Y-91637536D01*
X144066458Y-91603385D01*
X144029621Y-91555378D01*
X143933855Y-91481895D01*
X143914625Y-91467139D01*
X143875401Y-91450892D01*
X143780709Y-91411669D01*
X143637000Y-91392750D01*
X143493290Y-91411669D01*
X143359375Y-91467139D01*
X143244378Y-91555378D01*
X143207542Y-91603385D01*
X143158770Y-91637536D01*
X143099230Y-91637536D01*
X143050458Y-91603385D01*
X143013621Y-91555378D01*
X142917855Y-91481895D01*
X142898625Y-91467139D01*
X142859401Y-91450892D01*
X142764709Y-91411669D01*
X142621000Y-91392750D01*
X142477290Y-91411669D01*
X142343375Y-91467139D01*
X142228378Y-91555378D01*
X142140139Y-91670375D01*
X142084669Y-91804290D01*
X142065750Y-91948000D01*
X124325500Y-91948000D01*
X124325500Y-90272001D01*
X133465852Y-90272001D01*
X133484771Y-90415710D01*
X133505559Y-90465895D01*
X133540241Y-90549626D01*
X133578552Y-90599553D01*
X133628480Y-90664622D01*
X133645914Y-90677999D01*
X133743477Y-90752862D01*
X133838169Y-90792084D01*
X133877392Y-90808331D01*
X133894110Y-90810532D01*
X134021102Y-90827251D01*
X134164811Y-90808331D01*
X134298727Y-90752862D01*
X134413723Y-90664622D01*
X134501963Y-90549626D01*
X134557432Y-90415710D01*
X134576352Y-90272001D01*
X134557432Y-90128292D01*
X134555136Y-90122750D01*
X134541185Y-90089068D01*
X134501963Y-89994376D01*
X134452034Y-89929307D01*
X134413723Y-89879379D01*
X134348654Y-89829451D01*
X134298727Y-89791140D01*
X134259503Y-89774893D01*
X134164811Y-89735670D01*
X134021102Y-89716751D01*
X133877392Y-89735670D01*
X133743477Y-89791140D01*
X133628480Y-89879379D01*
X133540241Y-89994376D01*
X133484771Y-90128291D01*
X133465852Y-90272001D01*
X124325500Y-90272001D01*
X124325500Y-88516999D01*
X142827750Y-88516999D01*
X142846669Y-88660709D01*
X142885892Y-88755401D01*
X142902139Y-88794625D01*
X142938673Y-88842237D01*
X142990378Y-88909621D01*
X143040306Y-88947932D01*
X143105375Y-88997861D01*
X143198060Y-89036252D01*
X143239290Y-89053330D01*
X143256008Y-89055531D01*
X143383000Y-89072250D01*
X143526709Y-89053330D01*
X143660625Y-88997861D01*
X143775621Y-88909621D01*
X143863861Y-88794625D01*
X143919330Y-88660709D01*
X143938250Y-88517000D01*
X143925541Y-88420469D01*
X143932230Y-88369664D01*
X143963426Y-88329007D01*
X144010772Y-88309396D01*
X144061580Y-88316085D01*
X144102236Y-88347282D01*
X144149378Y-88408719D01*
X144199306Y-88447030D01*
X144264375Y-88496959D01*
X144359067Y-88536181D01*
X144398290Y-88552428D01*
X144415008Y-88554629D01*
X144542000Y-88571348D01*
X144685709Y-88552428D01*
X144771243Y-88516999D01*
X147145750Y-88516999D01*
X147164669Y-88660709D01*
X147203892Y-88755401D01*
X147220139Y-88794625D01*
X147256673Y-88842237D01*
X147308378Y-88909621D01*
X147358306Y-88947932D01*
X147423375Y-88997861D01*
X147516060Y-89036252D01*
X147557290Y-89053330D01*
X147574008Y-89055531D01*
X147701000Y-89072250D01*
X147844709Y-89053330D01*
X147978625Y-88997861D01*
X148093621Y-88909621D01*
X148181861Y-88794625D01*
X148237330Y-88660709D01*
X148256250Y-88517000D01*
X148237330Y-88373291D01*
X148181861Y-88239375D01*
X148115869Y-88153373D01*
X148093621Y-88124378D01*
X148028552Y-88074450D01*
X147978625Y-88036139D01*
X147930241Y-88016098D01*
X147844709Y-87980669D01*
X147701000Y-87961750D01*
X147557290Y-87980669D01*
X147423375Y-88036139D01*
X147308378Y-88124378D01*
X147220139Y-88239375D01*
X147164669Y-88373290D01*
X147145750Y-88516999D01*
X144771243Y-88516999D01*
X144819625Y-88496959D01*
X144934621Y-88408719D01*
X145022861Y-88293723D01*
X145078330Y-88159807D01*
X145097250Y-88016098D01*
X145078330Y-87872389D01*
X145022861Y-87738473D01*
X144972932Y-87673404D01*
X144934621Y-87623476D01*
X144867448Y-87571933D01*
X144819625Y-87535237D01*
X144780401Y-87518990D01*
X144685709Y-87479767D01*
X144542000Y-87460848D01*
X144398290Y-87479767D01*
X144264375Y-87535237D01*
X144149378Y-87623476D01*
X144061139Y-87738473D01*
X144005669Y-87872388D01*
X143986750Y-88016098D01*
X143999458Y-88112626D01*
X143992769Y-88163434D01*
X143961572Y-88204090D01*
X143914227Y-88223701D01*
X143863419Y-88217012D01*
X143822763Y-88185815D01*
X143775621Y-88124378D01*
X143710552Y-88074450D01*
X143660625Y-88036139D01*
X143612241Y-88016098D01*
X143526709Y-87980669D01*
X143383000Y-87961750D01*
X143239290Y-87980669D01*
X143105375Y-88036139D01*
X142990378Y-88124378D01*
X142902139Y-88239375D01*
X142846669Y-88373290D01*
X142827750Y-88516999D01*
X124325500Y-88516999D01*
X124325500Y-85330000D01*
X133062750Y-85330000D01*
X133081669Y-85473709D01*
X133120892Y-85568401D01*
X133137139Y-85607625D01*
X133163774Y-85642336D01*
X133225378Y-85722621D01*
X133261410Y-85750269D01*
X133340375Y-85810861D01*
X133435067Y-85850083D01*
X133474290Y-85866330D01*
X133491008Y-85868531D01*
X133618000Y-85885250D01*
X133761709Y-85866330D01*
X133895625Y-85810861D01*
X133992403Y-85736600D01*
X143044750Y-85736600D01*
X143063669Y-85880309D01*
X143099735Y-85967378D01*
X143119139Y-86014225D01*
X143157450Y-86064152D01*
X143207378Y-86129221D01*
X143257306Y-86167532D01*
X143322375Y-86217461D01*
X143417067Y-86256683D01*
X143456290Y-86272930D01*
X143460992Y-86273548D01*
X143472414Y-86275052D01*
X143503279Y-86284414D01*
X143529498Y-86303201D01*
X143883028Y-86656731D01*
X143890425Y-86665009D01*
X143913521Y-86693971D01*
X143961144Y-86726440D01*
X143964162Y-86728581D01*
X143975132Y-86736677D01*
X144010518Y-86762793D01*
X144010520Y-86762793D01*
X144013309Y-86764852D01*
X144022419Y-86769451D01*
X144025725Y-86770470D01*
X144025727Y-86770472D01*
X144080825Y-86787466D01*
X144084325Y-86788618D01*
X144138701Y-86807646D01*
X144138702Y-86807646D01*
X144141969Y-86808789D01*
X144152037Y-86810500D01*
X144155498Y-86810500D01*
X144213100Y-86810500D01*
X144216802Y-86810569D01*
X144221865Y-86810758D01*
X144274410Y-86812725D01*
X144274410Y-86812724D01*
X144277864Y-86812854D01*
X144295748Y-86810500D01*
X148747202Y-86810500D01*
X148779024Y-86815754D01*
X148807469Y-86830958D01*
X148820375Y-86840861D01*
X148898821Y-86873353D01*
X148954290Y-86896330D01*
X148971008Y-86898531D01*
X149098000Y-86915250D01*
X149241709Y-86896330D01*
X149375625Y-86840861D01*
X149490621Y-86752621D01*
X149578861Y-86637625D01*
X149634330Y-86503709D01*
X149653250Y-86360000D01*
X149634330Y-86216291D01*
X149578861Y-86082375D01*
X149526567Y-86014224D01*
X149490621Y-85967378D01*
X149405371Y-85901964D01*
X149375625Y-85879139D01*
X149332557Y-85861300D01*
X149241709Y-85823669D01*
X149098000Y-85804750D01*
X148954290Y-85823669D01*
X148820374Y-85879139D01*
X148807469Y-85889042D01*
X148779024Y-85904246D01*
X148747202Y-85909500D01*
X144451011Y-85909500D01*
X144413125Y-85901964D01*
X144381007Y-85880504D01*
X144166601Y-85666098D01*
X144147814Y-85639879D01*
X144138452Y-85609013D01*
X144138269Y-85607625D01*
X144136330Y-85592891D01*
X144080861Y-85458975D01*
X144030932Y-85393906D01*
X143992621Y-85343978D01*
X143927552Y-85294050D01*
X143877625Y-85255739D01*
X143815374Y-85229954D01*
X143743709Y-85200269D01*
X143600000Y-85181350D01*
X143456290Y-85200269D01*
X143322375Y-85255739D01*
X143207378Y-85343978D01*
X143119139Y-85458975D01*
X143063669Y-85592890D01*
X143044750Y-85736600D01*
X133992403Y-85736600D01*
X134010621Y-85722621D01*
X134098861Y-85607625D01*
X134154330Y-85473709D01*
X134173250Y-85330000D01*
X134154330Y-85186291D01*
X134152283Y-85181350D01*
X134138083Y-85147067D01*
X134098861Y-85052375D01*
X134043986Y-84980861D01*
X134010621Y-84937378D01*
X133945552Y-84887450D01*
X133895625Y-84849139D01*
X133839762Y-84826000D01*
X133761709Y-84793669D01*
X133618000Y-84774750D01*
X133474290Y-84793669D01*
X133340375Y-84849139D01*
X133225378Y-84937378D01*
X133137139Y-85052375D01*
X133081669Y-85186290D01*
X133062750Y-85330000D01*
X124325500Y-85330000D01*
X124325500Y-84455000D01*
X138763750Y-84455000D01*
X138782669Y-84598709D01*
X138809291Y-84662979D01*
X138838139Y-84732625D01*
X138870463Y-84774750D01*
X138926378Y-84847621D01*
X138976306Y-84885932D01*
X139041375Y-84935861D01*
X139136067Y-84975083D01*
X139175290Y-84991330D01*
X139192008Y-84993531D01*
X139319000Y-85010250D01*
X139462709Y-84991330D01*
X139596625Y-84935861D01*
X139711621Y-84847621D01*
X139799861Y-84732625D01*
X139855330Y-84598709D01*
X139874250Y-84455000D01*
X139862713Y-84367373D01*
X141029500Y-84367373D01*
X141044859Y-84493870D01*
X141044860Y-84493872D01*
X141105182Y-84652930D01*
X141160192Y-84732625D01*
X141201818Y-84792930D01*
X141329145Y-84905733D01*
X141389440Y-84937378D01*
X141479775Y-84984790D01*
X141556282Y-85003647D01*
X141644943Y-85025500D01*
X141644944Y-85025500D01*
X141815056Y-85025500D01*
X141815057Y-85025500D01*
X141876928Y-85010250D01*
X141980225Y-84984790D01*
X142130852Y-84905734D01*
X142130851Y-84905734D01*
X142130854Y-84905733D01*
X142220853Y-84826000D01*
X142258183Y-84792929D01*
X142354818Y-84652930D01*
X142415140Y-84493872D01*
X142430500Y-84367372D01*
X142430500Y-83485391D01*
X142445089Y-83433664D01*
X142484555Y-83397181D01*
X142537267Y-83386696D01*
X142587691Y-83405298D01*
X142620964Y-83447505D01*
X142657302Y-83535233D01*
X142749548Y-83655451D01*
X142819618Y-83709217D01*
X142869767Y-83747698D01*
X142997932Y-83800786D01*
X143009764Y-83805687D01*
X143122279Y-83820500D01*
X143122280Y-83820500D01*
X143197720Y-83820500D01*
X143197721Y-83820500D01*
X143253977Y-83813093D01*
X143310236Y-83805687D01*
X143450233Y-83747698D01*
X143570451Y-83655451D01*
X143662698Y-83535233D01*
X143720687Y-83395236D01*
X143740466Y-83245000D01*
X148359534Y-83245000D01*
X148379312Y-83395235D01*
X148437302Y-83535233D01*
X148529548Y-83655451D01*
X148599618Y-83709217D01*
X148649767Y-83747698D01*
X148777932Y-83800786D01*
X148789764Y-83805687D01*
X148902279Y-83820500D01*
X148902280Y-83820500D01*
X148977720Y-83820500D01*
X148977721Y-83820500D01*
X149033977Y-83813093D01*
X149090236Y-83805687D01*
X149230233Y-83747698D01*
X149350451Y-83655451D01*
X149442698Y-83535233D01*
X149479036Y-83447504D01*
X149512309Y-83405298D01*
X149562733Y-83386696D01*
X149615445Y-83397181D01*
X149654911Y-83433664D01*
X149669500Y-83485391D01*
X149669500Y-84367373D01*
X149684859Y-84493870D01*
X149684860Y-84493872D01*
X149745182Y-84652930D01*
X149800192Y-84732625D01*
X149841818Y-84792930D01*
X149969145Y-84905733D01*
X150029440Y-84937378D01*
X150119775Y-84984790D01*
X150196282Y-85003647D01*
X150284943Y-85025500D01*
X150284944Y-85025500D01*
X150455056Y-85025500D01*
X150455057Y-85025500D01*
X150516928Y-85010250D01*
X150620225Y-84984790D01*
X150770852Y-84905734D01*
X150770851Y-84905734D01*
X150770854Y-84905733D01*
X150860853Y-84826000D01*
X150898183Y-84792929D01*
X150994818Y-84652930D01*
X151055140Y-84493872D01*
X151059860Y-84455000D01*
X152225750Y-84455000D01*
X152244669Y-84598709D01*
X152271291Y-84662979D01*
X152300139Y-84732625D01*
X152332463Y-84774750D01*
X152388378Y-84847621D01*
X152438306Y-84885932D01*
X152503375Y-84935861D01*
X152598067Y-84975083D01*
X152637290Y-84991330D01*
X152654008Y-84993531D01*
X152781000Y-85010250D01*
X152924709Y-84991330D01*
X153058625Y-84935861D01*
X153173621Y-84847621D01*
X153261861Y-84732625D01*
X153317330Y-84598709D01*
X153336250Y-84455000D01*
X153317330Y-84311291D01*
X153261861Y-84177375D01*
X153186828Y-84079590D01*
X153173621Y-84062378D01*
X153108552Y-84012450D01*
X153058625Y-83974139D01*
X153019401Y-83957892D01*
X152924709Y-83918669D01*
X152781000Y-83899750D01*
X152637290Y-83918669D01*
X152503375Y-83974139D01*
X152388378Y-84062378D01*
X152300139Y-84177375D01*
X152244669Y-84311290D01*
X152225750Y-84455000D01*
X151059860Y-84455000D01*
X151070500Y-84367372D01*
X151070500Y-83580000D01*
X157926750Y-83580000D01*
X157945669Y-83723709D01*
X157979626Y-83805687D01*
X158001139Y-83857625D01*
X158014598Y-83875165D01*
X158089378Y-83972621D01*
X158139306Y-84010932D01*
X158204375Y-84060861D01*
X158299067Y-84100083D01*
X158338290Y-84116330D01*
X158355008Y-84118531D01*
X158482000Y-84135250D01*
X158625709Y-84116330D01*
X158759625Y-84060861D01*
X158874621Y-83972621D01*
X158962861Y-83857625D01*
X159018330Y-83723709D01*
X159037250Y-83580000D01*
X159018330Y-83436291D01*
X159005492Y-83405298D01*
X158979101Y-83341583D01*
X158962861Y-83302375D01*
X158909937Y-83233403D01*
X158874621Y-83187378D01*
X158809552Y-83137450D01*
X158759625Y-83099139D01*
X158717021Y-83081492D01*
X158625709Y-83043669D01*
X158482000Y-83024750D01*
X158338290Y-83043669D01*
X158204375Y-83099139D01*
X158089378Y-83187378D01*
X158001139Y-83302375D01*
X157945669Y-83436290D01*
X157926750Y-83580000D01*
X151070500Y-83580000D01*
X151070500Y-83182628D01*
X151055140Y-83056128D01*
X150994818Y-82897070D01*
X150898183Y-82757071D01*
X150898181Y-82757069D01*
X150770854Y-82644266D01*
X150620223Y-82565209D01*
X150455057Y-82524500D01*
X150455056Y-82524500D01*
X150284944Y-82524500D01*
X150284943Y-82524500D01*
X150119776Y-82565209D01*
X149969145Y-82644266D01*
X149841818Y-82757069D01*
X149822334Y-82785297D01*
X149745182Y-82897070D01*
X149693856Y-83032409D01*
X149680598Y-83067367D01*
X149680216Y-83067222D01*
X149665675Y-83103242D01*
X149625088Y-83134841D01*
X149574124Y-83141810D01*
X149526543Y-83122269D01*
X149495190Y-83081493D01*
X149442698Y-82954767D01*
X149421234Y-82926795D01*
X149350451Y-82834548D01*
X149230233Y-82742302D01*
X149090235Y-82684312D01*
X148977721Y-82669500D01*
X148977720Y-82669500D01*
X148902280Y-82669500D01*
X148902279Y-82669500D01*
X148789764Y-82684312D01*
X148649766Y-82742302D01*
X148529548Y-82834548D01*
X148437302Y-82954766D01*
X148379312Y-83094764D01*
X148359534Y-83245000D01*
X143740466Y-83245000D01*
X143720687Y-83094764D01*
X143662698Y-82954767D01*
X143641234Y-82926795D01*
X143570451Y-82834548D01*
X143450233Y-82742302D01*
X143310235Y-82684312D01*
X143197721Y-82669500D01*
X143197720Y-82669500D01*
X143122280Y-82669500D01*
X143122279Y-82669500D01*
X143009764Y-82684312D01*
X142869766Y-82742302D01*
X142749548Y-82834548D01*
X142657302Y-82954766D01*
X142604810Y-83081492D01*
X142573454Y-83122270D01*
X142525871Y-83141811D01*
X142474906Y-83134839D01*
X142434319Y-83103236D01*
X142419783Y-83067222D01*
X142419402Y-83067367D01*
X142406145Y-83032410D01*
X142354818Y-82897070D01*
X142258183Y-82757071D01*
X142258181Y-82757069D01*
X142130854Y-82644266D01*
X141980223Y-82565209D01*
X141815057Y-82524500D01*
X141815056Y-82524500D01*
X141644944Y-82524500D01*
X141644943Y-82524500D01*
X141479776Y-82565209D01*
X141329145Y-82644266D01*
X141201818Y-82757069D01*
X141105182Y-82897070D01*
X141044859Y-83056129D01*
X141029500Y-83182627D01*
X141029500Y-84367373D01*
X139862713Y-84367373D01*
X139855330Y-84311291D01*
X139799861Y-84177375D01*
X139724828Y-84079590D01*
X139711621Y-84062378D01*
X139646552Y-84012450D01*
X139596625Y-83974139D01*
X139557401Y-83957892D01*
X139462709Y-83918669D01*
X139319000Y-83899750D01*
X139175290Y-83918669D01*
X139041375Y-83974139D01*
X138926378Y-84062378D01*
X138838139Y-84177375D01*
X138782669Y-84311290D01*
X138763750Y-84455000D01*
X124325500Y-84455000D01*
X124325500Y-80012773D01*
X124325656Y-80007222D01*
X124329579Y-79937373D01*
X141029500Y-79937373D01*
X141044859Y-80063870D01*
X141044860Y-80063872D01*
X141105182Y-80222930D01*
X141201817Y-80362929D01*
X141201818Y-80362930D01*
X141329145Y-80475733D01*
X141407864Y-80517048D01*
X141479775Y-80554790D01*
X141562359Y-80575144D01*
X141644943Y-80595500D01*
X141644944Y-80595500D01*
X141815056Y-80595500D01*
X141815057Y-80595500D01*
X141870112Y-80581929D01*
X141980225Y-80554790D01*
X142130852Y-80475734D01*
X142130851Y-80475734D01*
X142130854Y-80475733D01*
X142194517Y-80419331D01*
X142258183Y-80362929D01*
X142354818Y-80222930D01*
X142415140Y-80063872D01*
X142430500Y-79937373D01*
X149669500Y-79937373D01*
X149684859Y-80063870D01*
X149684860Y-80063872D01*
X149745182Y-80222930D01*
X149841817Y-80362929D01*
X149841818Y-80362930D01*
X149969145Y-80475733D01*
X150047864Y-80517048D01*
X150119775Y-80554790D01*
X150202359Y-80575144D01*
X150284943Y-80595500D01*
X150284944Y-80595500D01*
X150455056Y-80595500D01*
X150455057Y-80595500D01*
X150510112Y-80581929D01*
X150620225Y-80554790D01*
X150770852Y-80475734D01*
X150770851Y-80475734D01*
X150770854Y-80475733D01*
X150834517Y-80419331D01*
X150898183Y-80362929D01*
X150994818Y-80222930D01*
X151055140Y-80063872D01*
X151070500Y-79937372D01*
X151070500Y-79252628D01*
X151055140Y-79126128D01*
X150994818Y-78967070D01*
X150898183Y-78827071D01*
X150898181Y-78827069D01*
X150770854Y-78714266D01*
X150620223Y-78635209D01*
X150455057Y-78594500D01*
X150455056Y-78594500D01*
X150284944Y-78594500D01*
X150284943Y-78594500D01*
X150119776Y-78635209D01*
X149969145Y-78714266D01*
X149841818Y-78827069D01*
X149745182Y-78967070D01*
X149684859Y-79126129D01*
X149669500Y-79252627D01*
X149669500Y-79937373D01*
X142430500Y-79937373D01*
X142430500Y-79937372D01*
X142430500Y-79252628D01*
X142415140Y-79126128D01*
X142354818Y-78967070D01*
X142258183Y-78827071D01*
X142258181Y-78827069D01*
X142130854Y-78714266D01*
X141980223Y-78635209D01*
X141815057Y-78594500D01*
X141815056Y-78594500D01*
X141644944Y-78594500D01*
X141644943Y-78594500D01*
X141479776Y-78635209D01*
X141329145Y-78714266D01*
X141201818Y-78827069D01*
X141105182Y-78967070D01*
X141044859Y-79126129D01*
X141029500Y-79252627D01*
X141029500Y-79937373D01*
X124329579Y-79937373D01*
X124329579Y-79937372D01*
X124342005Y-79716095D01*
X124343248Y-79705069D01*
X124391626Y-79420334D01*
X124394087Y-79409548D01*
X124474048Y-79131999D01*
X124477708Y-79121540D01*
X124588235Y-78854705D01*
X124593049Y-78844710D01*
X124602799Y-78827069D01*
X124732751Y-78591937D01*
X124738647Y-78582554D01*
X124905784Y-78346998D01*
X124912683Y-78338346D01*
X125105154Y-78122970D01*
X125112970Y-78115154D01*
X125328346Y-77922683D01*
X125336998Y-77915784D01*
X125572554Y-77748647D01*
X125581937Y-77742751D01*
X125834716Y-77603046D01*
X125844705Y-77598235D01*
X126111540Y-77487708D01*
X126121999Y-77484048D01*
X126399548Y-77404087D01*
X126410334Y-77401626D01*
X126695076Y-77353247D01*
X126706095Y-77352005D01*
X126997222Y-77335655D01*
X127002773Y-77335500D01*
X127065892Y-77335500D01*
X165034108Y-77335500D01*
X165097227Y-77335500D01*
X165102777Y-77335655D01*
G37*
%TD.AperFunction*%
%TD*%
M02*
