%TF.GenerationSoftware,KiCad,Pcbnew,7.0.8*%
%TF.CreationDate,2023-10-17T23:27:51+01:00*%
%TF.ProjectId,MoonPad,4d6f6f6e-5061-4642-9e6b-696361645f70,rev?*%
%TF.SameCoordinates,Original*%
%TF.FileFunction,Profile,NP*%
%FSLAX46Y46*%
G04 Gerber Fmt 4.6, Leading zero omitted, Abs format (unit mm)*
G04 Created by KiCad (PCBNEW 7.0.8) date 2023-10-17 23:27:51*
%MOMM*%
%LPD*%
G01*
G04 APERTURE LIST*
%TA.AperFunction,Profile*%
%ADD10C,0.100000*%
%TD*%
G04 APERTURE END LIST*
D10*
X165100000Y-117475000D02*
G75*
G03*
X168275000Y-114300000I0J3175000D01*
G01*
X123825000Y-80010000D02*
X123825000Y-114300000D01*
X127000000Y-117475000D02*
X165100000Y-117475000D01*
X123825000Y-114300000D02*
G75*
G03*
X127000000Y-117475000I3175000J0D01*
G01*
X165100000Y-76835000D02*
X127000000Y-76835000D01*
X127000000Y-76835000D02*
G75*
G03*
X123825000Y-80010000I0J-3175000D01*
G01*
X168275000Y-80010000D02*
G75*
G03*
X165100000Y-76835000I-3175000J0D01*
G01*
X168275000Y-80010000D02*
X168275000Y-114300000D01*
%TO.C,D1*%
X134190001Y-109787158D02*
X134190001Y-111192842D01*
X135095548Y-111989999D02*
X136684453Y-111989999D01*
X136684452Y-108990000D02*
X135095548Y-108990000D01*
X137589999Y-111192842D02*
X137589999Y-109787158D01*
X134190000Y-109787157D02*
G75*
G03*
X134140515Y-109570280I-499989J1D01*
G01*
X134843289Y-108921703D02*
G75*
G03*
X134140516Y-109570280I-252258J-431700D01*
G01*
X134140516Y-111409720D02*
G75*
G03*
X134190001Y-111192842I-450505J216876D01*
G01*
X134140517Y-111409720D02*
G75*
G03*
X134843289Y-112058298I450514J-216878D01*
G01*
X135095547Y-111990001D02*
G75*
G03*
X134843289Y-112058300I-5J-499981D01*
G01*
X134843290Y-108921701D02*
G75*
G03*
X135095548Y-108990000I252261J431710D01*
G01*
X136936711Y-112058298D02*
G75*
G03*
X136684453Y-111989999I-252261J-431712D01*
G01*
X136684452Y-108989999D02*
G75*
G03*
X136936711Y-108921701I8J499979D01*
G01*
X137639482Y-109570280D02*
G75*
G03*
X136936711Y-108921702I-450512J216880D01*
G01*
X137639485Y-109570281D02*
G75*
G03*
X137589999Y-109787158I450505J-216879D01*
G01*
X136936711Y-112058297D02*
G75*
G03*
X137639484Y-111409720I252258J431700D01*
G01*
X137589982Y-111192843D02*
G75*
G03*
X137639485Y-111409720I500018J43D01*
G01*
%TO.C,D6*%
X154510001Y-109787158D02*
X154510001Y-111192842D01*
X155415548Y-111989999D02*
X157004453Y-111989999D01*
X157004452Y-108990000D02*
X155415548Y-108990000D01*
X157909999Y-111192842D02*
X157909999Y-109787158D01*
X154510000Y-109787157D02*
G75*
G03*
X154460515Y-109570280I-499989J1D01*
G01*
X155163289Y-108921703D02*
G75*
G03*
X154460516Y-109570280I-252258J-431700D01*
G01*
X154460516Y-111409720D02*
G75*
G03*
X154510001Y-111192842I-450505J216876D01*
G01*
X154460517Y-111409720D02*
G75*
G03*
X155163289Y-112058298I450514J-216878D01*
G01*
X155415547Y-111990001D02*
G75*
G03*
X155163289Y-112058300I-5J-499981D01*
G01*
X155163290Y-108921701D02*
G75*
G03*
X155415548Y-108990000I252261J431710D01*
G01*
X157256711Y-112058298D02*
G75*
G03*
X157004453Y-111989999I-252261J-431712D01*
G01*
X157004452Y-108989999D02*
G75*
G03*
X157256711Y-108921701I8J499979D01*
G01*
X157959482Y-109570280D02*
G75*
G03*
X157256711Y-108921702I-450512J216880D01*
G01*
X157959485Y-109570281D02*
G75*
G03*
X157909999Y-109787158I450505J-216879D01*
G01*
X157256711Y-112058297D02*
G75*
G03*
X157959484Y-111409720I252258J431700D01*
G01*
X157909982Y-111192843D02*
G75*
G03*
X157959485Y-111409720I500018J43D01*
G01*
%TD*%
M02*
