M48
; DRILL file {KiCad 7.0.8} date Tue 17 Oct 2023 23:27:51 BST
; FORMAT={-:-/ absolute / inch / decimal}
; #@! TF.CreationDate,2023-10-17T23:27:51+01:00
; #@! TF.GenerationSoftware,Kicad,Pcbnew,7.0.8
; #@! TF.FileFunction,Plated,1,4,PTH
FMAT,2
INCH
; #@! TA.AperFunction,Plated,PTH,ViaDrill
T1C0.0118
; #@! TA.AperFunction,Plated,PTH,ComponentDrill
T2C0.0138
; #@! TA.AperFunction,Plated,PTH,ComponentDrill
T3C0.0236
; #@! TA.AperFunction,Plated,PTH,ComponentDrill
T4C0.0394
%
G90
G05
T1
X5.15Y-4.345
X5.15Y-4.38
X5.2606Y-3.3594
X5.2606Y-3.9594
X5.265Y-4.15
X5.2764Y-3.554
X5.2764Y-3.694
X5.4513Y-3.8219
X5.4524Y-4.2872
X5.485Y-3.29
X5.485Y-3.325
X5.485Y-3.89
X5.485Y-4.22
X5.49Y-4.145
X5.5087Y-4.0445
X5.52Y-4.0761
X5.53Y-3.8138
X5.5311Y-3.9339
X5.54Y-4.0
X5.615Y-3.62
X5.645Y-3.4849
X5.655Y-3.62
X5.6906Y-3.4652
X5.6911Y-4.19
X5.695Y-3.62
X5.7241Y-3.7583
X5.735Y-3.62
X5.7694Y-3.4494
X5.8027Y-3.902
X5.815Y-3.4849
X5.845Y-4.395
X5.852Y-3.726
X5.89Y-4.255
X5.892Y-3.726
X5.9198Y-4.1984
X5.9223Y-3.9369
X5.925Y-4.075
X5.932Y-3.726
X5.945Y-4.0946
X5.9465Y-4.41
X5.9551Y-3.93
X5.96Y-4.0011
X5.98Y-4.41
X5.9976Y-4.3205
X6.01Y-3.57
X6.01Y-3.61
X6.01Y-4.215
X6.015Y-3.325
X6.015Y-3.36
X6.045Y-3.93
X6.045Y-4.03
X6.05Y-3.57
X6.05Y-3.61
X6.178Y-4.062
X6.2012Y-3.8562
X6.235Y-4.15
X6.2394Y-3.2906
X6.24Y-3.61
X6.24Y-3.65
X6.24Y-3.74
X6.24Y-3.57
X6.24Y-3.7
X6.2524Y-4.2872
T2
X5.6998Y-3.9498
X5.6998Y-4.0
X5.6998Y-4.0502
X5.75Y-3.9498
X5.75Y-4.0
X5.75Y-4.0502
X5.8002Y-3.9498
X5.8002Y-4.0
X5.8002Y-4.0502
T4
X6.43Y-3.2396
X6.43Y-3.3396
X6.43Y-3.4396
X6.43Y-3.5396
T3
G00X5.5799Y-3.1455
M15
G01X5.5799Y-3.1219
M16
G05
G00X5.5799Y-3.3199
M15
G01X5.5799Y-3.2766
M16
G05
G00X5.9201Y-3.1455
M15
G01X5.9201Y-3.1219
M16
G05
G00X5.9201Y-3.3199
M15
G01X5.9201Y-3.2766
M16
G05
T0
M30
