%TF.GenerationSoftware,KiCad,Pcbnew,7.0.1*%
%TF.CreationDate,2023-05-13T23:39:39+01:00*%
%TF.ProjectId,MoonPad,4d6f6f6e-5061-4642-9e6b-696361645f70,rev?*%
%TF.SameCoordinates,Original*%
%TF.FileFunction,Legend,Bot*%
%TF.FilePolarity,Positive*%
%FSLAX46Y46*%
G04 Gerber Fmt 4.6, Leading zero omitted, Abs format (unit mm)*
G04 Created by KiCad (PCBNEW 7.0.1) date 2023-05-13 23:39:39*
%MOMM*%
%LPD*%
G01*
G04 APERTURE LIST*
%ADD10C,0.150000*%
%ADD11C,0.125000*%
%ADD12C,0.120000*%
%ADD13C,0.650000*%
%ADD14O,1.000000X2.100000*%
%ADD15O,1.000000X1.600000*%
%ADD16C,2.200000*%
%ADD17C,1.700000*%
%ADD18R,1.700000X1.700000*%
%ADD19O,1.700000X1.700000*%
G04 APERTURE END LIST*
D10*
X125730000Y-95250000D02*
X166370000Y-95250000D01*
X166370000Y-115570000D01*
X125730000Y-115570000D01*
X125730000Y-95250000D01*
D11*
%TO.C,X*%
X136056666Y-105141309D02*
X135723333Y-105641309D01*
X135723333Y-105141309D02*
X136056666Y-105641309D01*
%TO.C,Z*%
X156376666Y-105141309D02*
X156043333Y-105141309D01*
X156043333Y-105141309D02*
X156376666Y-105641309D01*
X156376666Y-105641309D02*
X156043333Y-105641309D01*
%TO.C,OLED*%
X128596190Y-92310309D02*
X128500952Y-92310309D01*
X128500952Y-92310309D02*
X128453333Y-92334119D01*
X128453333Y-92334119D02*
X128405714Y-92381738D01*
X128405714Y-92381738D02*
X128381904Y-92476976D01*
X128381904Y-92476976D02*
X128381904Y-92643642D01*
X128381904Y-92643642D02*
X128405714Y-92738880D01*
X128405714Y-92738880D02*
X128453333Y-92786500D01*
X128453333Y-92786500D02*
X128500952Y-92810309D01*
X128500952Y-92810309D02*
X128596190Y-92810309D01*
X128596190Y-92810309D02*
X128643809Y-92786500D01*
X128643809Y-92786500D02*
X128691428Y-92738880D01*
X128691428Y-92738880D02*
X128715237Y-92643642D01*
X128715237Y-92643642D02*
X128715237Y-92476976D01*
X128715237Y-92476976D02*
X128691428Y-92381738D01*
X128691428Y-92381738D02*
X128643809Y-92334119D01*
X128643809Y-92334119D02*
X128596190Y-92310309D01*
X127929523Y-92810309D02*
X128167618Y-92810309D01*
X128167618Y-92810309D02*
X128167618Y-92310309D01*
X127762856Y-92548404D02*
X127596189Y-92548404D01*
X127524761Y-92810309D02*
X127762856Y-92810309D01*
X127762856Y-92810309D02*
X127762856Y-92310309D01*
X127762856Y-92310309D02*
X127524761Y-92310309D01*
X127310475Y-92810309D02*
X127310475Y-92310309D01*
X127310475Y-92310309D02*
X127191427Y-92310309D01*
X127191427Y-92310309D02*
X127119999Y-92334119D01*
X127119999Y-92334119D02*
X127072380Y-92381738D01*
X127072380Y-92381738D02*
X127048570Y-92429357D01*
X127048570Y-92429357D02*
X127024761Y-92524595D01*
X127024761Y-92524595D02*
X127024761Y-92596023D01*
X127024761Y-92596023D02*
X127048570Y-92691261D01*
X127048570Y-92691261D02*
X127072380Y-92738880D01*
X127072380Y-92738880D02*
X127119999Y-92786500D01*
X127119999Y-92786500D02*
X127191427Y-92810309D01*
X127191427Y-92810309D02*
X127310475Y-92810309D01*
%TO.C,J1*%
X163488666Y-92314309D02*
X163488666Y-92671452D01*
X163488666Y-92671452D02*
X163512475Y-92742880D01*
X163512475Y-92742880D02*
X163560094Y-92790500D01*
X163560094Y-92790500D02*
X163631523Y-92814309D01*
X163631523Y-92814309D02*
X163679142Y-92814309D01*
X162988666Y-92814309D02*
X163274380Y-92814309D01*
X163131523Y-92814309D02*
X163131523Y-92314309D01*
X163131523Y-92314309D02*
X163179142Y-92385738D01*
X163179142Y-92385738D02*
X163226761Y-92433357D01*
X163226761Y-92433357D02*
X163274380Y-92457166D01*
D12*
%TO.C,X*%
X142875000Y-112395000D02*
X142875000Y-98425000D01*
X142875000Y-98425000D02*
X128905000Y-98425000D01*
X128905000Y-112395000D02*
X142875000Y-112395000D01*
X128905000Y-98425000D02*
X128905000Y-112395000D01*
%TO.C,Z*%
X163195000Y-112395000D02*
X163195000Y-98425000D01*
X163195000Y-98425000D02*
X149225000Y-98425000D01*
X149225000Y-112395000D02*
X163195000Y-112395000D01*
X149225000Y-98425000D02*
X149225000Y-112395000D01*
D10*
%TO.C,OLED*%
X127000000Y-80137000D02*
X165100000Y-80137000D01*
X127000000Y-92075000D02*
X127000000Y-80137000D01*
X161500000Y-80137000D02*
X161500000Y-92075000D01*
X165100000Y-92075000D02*
X127000000Y-92075000D01*
X165100000Y-92075000D02*
X165100000Y-80137000D01*
D12*
%TO.C,J1*%
X161992000Y-80956000D02*
X164652000Y-80956000D01*
X161992000Y-88636000D02*
X161992000Y-80956000D01*
X161992000Y-88636000D02*
X164652000Y-88636000D01*
X161992000Y-89906000D02*
X161992000Y-91236000D01*
X161992000Y-91236000D02*
X163322000Y-91236000D01*
X164652000Y-88636000D02*
X164652000Y-80956000D01*
%TD*%
%LPC*%
D13*
%TO.C,J3*%
X148940000Y-83245000D03*
X143160000Y-83245000D03*
D14*
X150370000Y-83775000D03*
D15*
X150370000Y-79595000D03*
D14*
X141730000Y-83775000D03*
D15*
X141730000Y-79595000D03*
%TD*%
D16*
%TO.C,H2*%
X165100000Y-96520000D03*
%TD*%
%TO.C,H4*%
X165100000Y-114300000D03*
%TD*%
%TO.C,H3*%
X127000000Y-114300000D03*
%TD*%
%TO.C,H1*%
X127000000Y-96520000D03*
%TD*%
D17*
%TO.C,X*%
X140970000Y-105410000D03*
X130810000Y-105410000D03*
%TD*%
%TO.C,Z*%
X161290000Y-105410000D03*
X151130000Y-105410000D03*
%TD*%
D18*
%TO.C,J1*%
X163322000Y-89906000D03*
D19*
X163322000Y-87366000D03*
X163322000Y-84826000D03*
X163322000Y-82286000D03*
%TD*%
M02*
