%TF.GenerationSoftware,KiCad,Pcbnew,7.0.8*%
%TF.CreationDate,2023-10-17T23:27:51+01:00*%
%TF.ProjectId,MoonPad,4d6f6f6e-5061-4642-9e6b-696361645f70,rev?*%
%TF.SameCoordinates,Original*%
%TF.FileFunction,Legend,Top*%
%TF.FilePolarity,Positive*%
%FSLAX46Y46*%
G04 Gerber Fmt 4.6, Leading zero omitted, Abs format (unit mm)*
G04 Created by KiCad (PCBNEW 7.0.8) date 2023-10-17 23:27:51*
%MOMM*%
%LPD*%
G01*
G04 APERTURE LIST*
G04 Aperture macros list*
%AMRoundRect*
0 Rectangle with rounded corners*
0 $1 Rounding radius*
0 $2 $3 $4 $5 $6 $7 $8 $9 X,Y pos of 4 corners*
0 Add a 4 corners polygon primitive as box body*
4,1,4,$2,$3,$4,$5,$6,$7,$8,$9,$2,$3,0*
0 Add four circle primitives for the rounded corners*
1,1,$1+$1,$2,$3*
1,1,$1+$1,$4,$5*
1,1,$1+$1,$6,$7*
1,1,$1+$1,$8,$9*
0 Add four rect primitives between the rounded corners*
20,1,$1+$1,$2,$3,$4,$5,0*
20,1,$1+$1,$4,$5,$6,$7,0*
20,1,$1+$1,$6,$7,$8,$9,0*
20,1,$1+$1,$8,$9,$2,$3,0*%
G04 Aperture macros list end*
%ADD10C,0.150000*%
%ADD11C,0.125000*%
%ADD12C,0.100000*%
%ADD13C,0.120000*%
%ADD14C,0.250000*%
%ADD15RoundRect,0.082000X-0.718000X0.328000X-0.718000X-0.328000X0.718000X-0.328000X0.718000X0.328000X0*%
%ADD16RoundRect,0.140000X0.170000X-0.140000X0.170000X0.140000X-0.170000X0.140000X-0.170000X-0.140000X0*%
%ADD17RoundRect,0.140000X-0.170000X0.140000X-0.170000X-0.140000X0.170000X-0.140000X0.170000X0.140000X0*%
%ADD18RoundRect,0.140000X0.140000X0.170000X-0.140000X0.170000X-0.140000X-0.170000X0.140000X-0.170000X0*%
%ADD19RoundRect,0.140000X-0.140000X-0.170000X0.140000X-0.170000X0.140000X0.170000X-0.140000X0.170000X0*%
%ADD20R,1.400000X1.200000*%
%ADD21RoundRect,0.135000X0.185000X-0.135000X0.185000X0.135000X-0.185000X0.135000X-0.185000X-0.135000X0*%
%ADD22C,0.650000*%
%ADD23R,0.600000X1.450000*%
%ADD24R,0.300000X1.450000*%
%ADD25O,1.000000X2.100000*%
%ADD26O,1.000000X1.600000*%
%ADD27C,2.200000*%
%ADD28RoundRect,0.150000X-0.587500X-0.150000X0.587500X-0.150000X0.587500X0.150000X-0.587500X0.150000X0*%
%ADD29R,1.000000X0.850000*%
%ADD30R,0.900000X0.300000*%
%ADD31R,0.250000X1.650000*%
%ADD32RoundRect,0.135000X0.135000X0.185000X-0.135000X0.185000X-0.135000X-0.185000X0.135000X-0.185000X0*%
%ADD33RoundRect,0.250000X0.475000X-0.250000X0.475000X0.250000X-0.475000X0.250000X-0.475000X-0.250000X0*%
%ADD34RoundRect,0.250000X0.250000X0.475000X-0.250000X0.475000X-0.250000X-0.475000X0.250000X-0.475000X0*%
%ADD35RoundRect,0.250000X-0.375000X-0.625000X0.375000X-0.625000X0.375000X0.625000X-0.375000X0.625000X0*%
%ADD36RoundRect,0.135000X-0.185000X0.135000X-0.185000X-0.135000X0.185000X-0.135000X0.185000X0.135000X0*%
%ADD37RoundRect,0.050000X-0.387500X-0.050000X0.387500X-0.050000X0.387500X0.050000X-0.387500X0.050000X0*%
%ADD38RoundRect,0.050000X-0.050000X-0.387500X0.050000X-0.387500X0.050000X0.387500X-0.050000X0.387500X0*%
%ADD39RoundRect,0.144000X-1.456000X-1.456000X1.456000X-1.456000X1.456000X1.456000X-1.456000X1.456000X0*%
%ADD40RoundRect,0.150000X0.512500X0.150000X-0.512500X0.150000X-0.512500X-0.150000X0.512500X-0.150000X0*%
%ADD41R,0.700000X1.000000*%
%ADD42R,0.700000X0.600000*%
%ADD43R,1.000000X1.700000*%
%ADD44RoundRect,0.135000X-0.135000X-0.185000X0.135000X-0.185000X0.135000X0.185000X-0.135000X0.185000X0*%
%ADD45RoundRect,0.150000X0.587500X0.150000X-0.587500X0.150000X-0.587500X-0.150000X0.587500X-0.150000X0*%
%ADD46C,1.700000*%
%ADD47R,1.700000X1.700000*%
%ADD48O,1.700000X1.700000*%
G04 APERTURE END LIST*
D10*
X143930951Y-114754819D02*
X143597618Y-114278628D01*
X143359523Y-114754819D02*
X143359523Y-113754819D01*
X143359523Y-113754819D02*
X143740475Y-113754819D01*
X143740475Y-113754819D02*
X143835713Y-113802438D01*
X143835713Y-113802438D02*
X143883332Y-113850057D01*
X143883332Y-113850057D02*
X143930951Y-113945295D01*
X143930951Y-113945295D02*
X143930951Y-114088152D01*
X143930951Y-114088152D02*
X143883332Y-114183390D01*
X143883332Y-114183390D02*
X143835713Y-114231009D01*
X143835713Y-114231009D02*
X143740475Y-114278628D01*
X143740475Y-114278628D02*
X143359523Y-114278628D01*
X144740475Y-114707200D02*
X144645237Y-114754819D01*
X144645237Y-114754819D02*
X144454761Y-114754819D01*
X144454761Y-114754819D02*
X144359523Y-114707200D01*
X144359523Y-114707200D02*
X144311904Y-114611961D01*
X144311904Y-114611961D02*
X144311904Y-114231009D01*
X144311904Y-114231009D02*
X144359523Y-114135771D01*
X144359523Y-114135771D02*
X144454761Y-114088152D01*
X144454761Y-114088152D02*
X144645237Y-114088152D01*
X144645237Y-114088152D02*
X144740475Y-114135771D01*
X144740475Y-114135771D02*
X144788094Y-114231009D01*
X144788094Y-114231009D02*
X144788094Y-114326247D01*
X144788094Y-114326247D02*
X144311904Y-114421485D01*
X145216666Y-114088152D02*
X145216666Y-115088152D01*
X145216666Y-114135771D02*
X145311904Y-114088152D01*
X145311904Y-114088152D02*
X145502380Y-114088152D01*
X145502380Y-114088152D02*
X145597618Y-114135771D01*
X145597618Y-114135771D02*
X145645237Y-114183390D01*
X145645237Y-114183390D02*
X145692856Y-114278628D01*
X145692856Y-114278628D02*
X145692856Y-114564342D01*
X145692856Y-114564342D02*
X145645237Y-114659580D01*
X145645237Y-114659580D02*
X145597618Y-114707200D01*
X145597618Y-114707200D02*
X145502380Y-114754819D01*
X145502380Y-114754819D02*
X145311904Y-114754819D01*
X145311904Y-114754819D02*
X145216666Y-114707200D01*
X146121428Y-114754819D02*
X146121428Y-113754819D01*
X146549999Y-114754819D02*
X146549999Y-114231009D01*
X146549999Y-114231009D02*
X146502380Y-114135771D01*
X146502380Y-114135771D02*
X146407142Y-114088152D01*
X146407142Y-114088152D02*
X146264285Y-114088152D01*
X146264285Y-114088152D02*
X146169047Y-114135771D01*
X146169047Y-114135771D02*
X146121428Y-114183390D01*
X147169047Y-114754819D02*
X147073809Y-114707200D01*
X147073809Y-114707200D02*
X147026190Y-114611961D01*
X147026190Y-114611961D02*
X147026190Y-113754819D01*
X147930952Y-114707200D02*
X147835714Y-114754819D01*
X147835714Y-114754819D02*
X147645238Y-114754819D01*
X147645238Y-114754819D02*
X147550000Y-114707200D01*
X147550000Y-114707200D02*
X147502381Y-114611961D01*
X147502381Y-114611961D02*
X147502381Y-114231009D01*
X147502381Y-114231009D02*
X147550000Y-114135771D01*
X147550000Y-114135771D02*
X147645238Y-114088152D01*
X147645238Y-114088152D02*
X147835714Y-114088152D01*
X147835714Y-114088152D02*
X147930952Y-114135771D01*
X147930952Y-114135771D02*
X147978571Y-114231009D01*
X147978571Y-114231009D02*
X147978571Y-114326247D01*
X147978571Y-114326247D02*
X147502381Y-114421485D01*
X148311905Y-114754819D02*
X148835714Y-114088152D01*
X148311905Y-114088152D02*
X148835714Y-114754819D01*
D11*
X148817990Y-93834733D02*
X148841800Y-93858542D01*
X148841800Y-93858542D02*
X148865609Y-93929971D01*
X148865609Y-93929971D02*
X148865609Y-93977590D01*
X148865609Y-93977590D02*
X148841800Y-94049018D01*
X148841800Y-94049018D02*
X148794180Y-94096637D01*
X148794180Y-94096637D02*
X148746561Y-94120447D01*
X148746561Y-94120447D02*
X148651323Y-94144256D01*
X148651323Y-94144256D02*
X148579895Y-94144256D01*
X148579895Y-94144256D02*
X148484657Y-94120447D01*
X148484657Y-94120447D02*
X148437038Y-94096637D01*
X148437038Y-94096637D02*
X148389419Y-94049018D01*
X148389419Y-94049018D02*
X148365609Y-93977590D01*
X148365609Y-93977590D02*
X148365609Y-93929971D01*
X148365609Y-93929971D02*
X148389419Y-93858542D01*
X148389419Y-93858542D02*
X148413228Y-93834733D01*
X148579895Y-93549018D02*
X148556085Y-93596637D01*
X148556085Y-93596637D02*
X148532276Y-93620447D01*
X148532276Y-93620447D02*
X148484657Y-93644256D01*
X148484657Y-93644256D02*
X148460847Y-93644256D01*
X148460847Y-93644256D02*
X148413228Y-93620447D01*
X148413228Y-93620447D02*
X148389419Y-93596637D01*
X148389419Y-93596637D02*
X148365609Y-93549018D01*
X148365609Y-93549018D02*
X148365609Y-93453780D01*
X148365609Y-93453780D02*
X148389419Y-93406161D01*
X148389419Y-93406161D02*
X148413228Y-93382352D01*
X148413228Y-93382352D02*
X148460847Y-93358542D01*
X148460847Y-93358542D02*
X148484657Y-93358542D01*
X148484657Y-93358542D02*
X148532276Y-93382352D01*
X148532276Y-93382352D02*
X148556085Y-93406161D01*
X148556085Y-93406161D02*
X148579895Y-93453780D01*
X148579895Y-93453780D02*
X148579895Y-93549018D01*
X148579895Y-93549018D02*
X148603704Y-93596637D01*
X148603704Y-93596637D02*
X148627514Y-93620447D01*
X148627514Y-93620447D02*
X148675133Y-93644256D01*
X148675133Y-93644256D02*
X148770371Y-93644256D01*
X148770371Y-93644256D02*
X148817990Y-93620447D01*
X148817990Y-93620447D02*
X148841800Y-93596637D01*
X148841800Y-93596637D02*
X148865609Y-93549018D01*
X148865609Y-93549018D02*
X148865609Y-93453780D01*
X148865609Y-93453780D02*
X148841800Y-93406161D01*
X148841800Y-93406161D02*
X148817990Y-93382352D01*
X148817990Y-93382352D02*
X148770371Y-93358542D01*
X148770371Y-93358542D02*
X148675133Y-93358542D01*
X148675133Y-93358542D02*
X148627514Y-93382352D01*
X148627514Y-93382352D02*
X148603704Y-93406161D01*
X148603704Y-93406161D02*
X148579895Y-93453780D01*
X138489571Y-82981190D02*
X138465762Y-83005000D01*
X138465762Y-83005000D02*
X138394333Y-83028809D01*
X138394333Y-83028809D02*
X138346714Y-83028809D01*
X138346714Y-83028809D02*
X138275286Y-83005000D01*
X138275286Y-83005000D02*
X138227667Y-82957380D01*
X138227667Y-82957380D02*
X138203857Y-82909761D01*
X138203857Y-82909761D02*
X138180048Y-82814523D01*
X138180048Y-82814523D02*
X138180048Y-82743095D01*
X138180048Y-82743095D02*
X138203857Y-82647857D01*
X138203857Y-82647857D02*
X138227667Y-82600238D01*
X138227667Y-82600238D02*
X138275286Y-82552619D01*
X138275286Y-82552619D02*
X138346714Y-82528809D01*
X138346714Y-82528809D02*
X138394333Y-82528809D01*
X138394333Y-82528809D02*
X138465762Y-82552619D01*
X138465762Y-82552619D02*
X138489571Y-82576428D01*
X138680048Y-82576428D02*
X138703857Y-82552619D01*
X138703857Y-82552619D02*
X138751476Y-82528809D01*
X138751476Y-82528809D02*
X138870524Y-82528809D01*
X138870524Y-82528809D02*
X138918143Y-82552619D01*
X138918143Y-82552619D02*
X138941952Y-82576428D01*
X138941952Y-82576428D02*
X138965762Y-82624047D01*
X138965762Y-82624047D02*
X138965762Y-82671666D01*
X138965762Y-82671666D02*
X138941952Y-82743095D01*
X138941952Y-82743095D02*
X138656238Y-83028809D01*
X138656238Y-83028809D02*
X138965762Y-83028809D01*
X139132428Y-82528809D02*
X139441952Y-82528809D01*
X139441952Y-82528809D02*
X139275285Y-82719285D01*
X139275285Y-82719285D02*
X139346714Y-82719285D01*
X139346714Y-82719285D02*
X139394333Y-82743095D01*
X139394333Y-82743095D02*
X139418142Y-82766904D01*
X139418142Y-82766904D02*
X139441952Y-82814523D01*
X139441952Y-82814523D02*
X139441952Y-82933571D01*
X139441952Y-82933571D02*
X139418142Y-82981190D01*
X139418142Y-82981190D02*
X139394333Y-83005000D01*
X139394333Y-83005000D02*
X139346714Y-83028809D01*
X139346714Y-83028809D02*
X139203857Y-83028809D01*
X139203857Y-83028809D02*
X139156238Y-83005000D01*
X139156238Y-83005000D02*
X139132428Y-82981190D01*
X141267666Y-101015190D02*
X141243857Y-101039000D01*
X141243857Y-101039000D02*
X141172428Y-101062809D01*
X141172428Y-101062809D02*
X141124809Y-101062809D01*
X141124809Y-101062809D02*
X141053381Y-101039000D01*
X141053381Y-101039000D02*
X141005762Y-100991380D01*
X141005762Y-100991380D02*
X140981952Y-100943761D01*
X140981952Y-100943761D02*
X140958143Y-100848523D01*
X140958143Y-100848523D02*
X140958143Y-100777095D01*
X140958143Y-100777095D02*
X140981952Y-100681857D01*
X140981952Y-100681857D02*
X141005762Y-100634238D01*
X141005762Y-100634238D02*
X141053381Y-100586619D01*
X141053381Y-100586619D02*
X141124809Y-100562809D01*
X141124809Y-100562809D02*
X141172428Y-100562809D01*
X141172428Y-100562809D02*
X141243857Y-100586619D01*
X141243857Y-100586619D02*
X141267666Y-100610428D01*
X141505762Y-101062809D02*
X141601000Y-101062809D01*
X141601000Y-101062809D02*
X141648619Y-101039000D01*
X141648619Y-101039000D02*
X141672428Y-101015190D01*
X141672428Y-101015190D02*
X141720047Y-100943761D01*
X141720047Y-100943761D02*
X141743857Y-100848523D01*
X141743857Y-100848523D02*
X141743857Y-100658047D01*
X141743857Y-100658047D02*
X141720047Y-100610428D01*
X141720047Y-100610428D02*
X141696238Y-100586619D01*
X141696238Y-100586619D02*
X141648619Y-100562809D01*
X141648619Y-100562809D02*
X141553381Y-100562809D01*
X141553381Y-100562809D02*
X141505762Y-100586619D01*
X141505762Y-100586619D02*
X141481952Y-100610428D01*
X141481952Y-100610428D02*
X141458143Y-100658047D01*
X141458143Y-100658047D02*
X141458143Y-100777095D01*
X141458143Y-100777095D02*
X141481952Y-100824714D01*
X141481952Y-100824714D02*
X141505762Y-100848523D01*
X141505762Y-100848523D02*
X141553381Y-100872333D01*
X141553381Y-100872333D02*
X141648619Y-100872333D01*
X141648619Y-100872333D02*
X141696238Y-100848523D01*
X141696238Y-100848523D02*
X141720047Y-100824714D01*
X141720047Y-100824714D02*
X141743857Y-100777095D01*
X149411571Y-111429190D02*
X149387762Y-111453000D01*
X149387762Y-111453000D02*
X149316333Y-111476809D01*
X149316333Y-111476809D02*
X149268714Y-111476809D01*
X149268714Y-111476809D02*
X149197286Y-111453000D01*
X149197286Y-111453000D02*
X149149667Y-111405380D01*
X149149667Y-111405380D02*
X149125857Y-111357761D01*
X149125857Y-111357761D02*
X149102048Y-111262523D01*
X149102048Y-111262523D02*
X149102048Y-111191095D01*
X149102048Y-111191095D02*
X149125857Y-111095857D01*
X149125857Y-111095857D02*
X149149667Y-111048238D01*
X149149667Y-111048238D02*
X149197286Y-111000619D01*
X149197286Y-111000619D02*
X149268714Y-110976809D01*
X149268714Y-110976809D02*
X149316333Y-110976809D01*
X149316333Y-110976809D02*
X149387762Y-111000619D01*
X149387762Y-111000619D02*
X149411571Y-111024428D01*
X149602048Y-111024428D02*
X149625857Y-111000619D01*
X149625857Y-111000619D02*
X149673476Y-110976809D01*
X149673476Y-110976809D02*
X149792524Y-110976809D01*
X149792524Y-110976809D02*
X149840143Y-111000619D01*
X149840143Y-111000619D02*
X149863952Y-111024428D01*
X149863952Y-111024428D02*
X149887762Y-111072047D01*
X149887762Y-111072047D02*
X149887762Y-111119666D01*
X149887762Y-111119666D02*
X149863952Y-111191095D01*
X149863952Y-111191095D02*
X149578238Y-111476809D01*
X149578238Y-111476809D02*
X149887762Y-111476809D01*
X150316333Y-110976809D02*
X150221095Y-110976809D01*
X150221095Y-110976809D02*
X150173476Y-111000619D01*
X150173476Y-111000619D02*
X150149666Y-111024428D01*
X150149666Y-111024428D02*
X150102047Y-111095857D01*
X150102047Y-111095857D02*
X150078238Y-111191095D01*
X150078238Y-111191095D02*
X150078238Y-111381571D01*
X150078238Y-111381571D02*
X150102047Y-111429190D01*
X150102047Y-111429190D02*
X150125857Y-111453000D01*
X150125857Y-111453000D02*
X150173476Y-111476809D01*
X150173476Y-111476809D02*
X150268714Y-111476809D01*
X150268714Y-111476809D02*
X150316333Y-111453000D01*
X150316333Y-111453000D02*
X150340142Y-111429190D01*
X150340142Y-111429190D02*
X150363952Y-111381571D01*
X150363952Y-111381571D02*
X150363952Y-111262523D01*
X150363952Y-111262523D02*
X150340142Y-111214904D01*
X150340142Y-111214904D02*
X150316333Y-111191095D01*
X150316333Y-111191095D02*
X150268714Y-111167285D01*
X150268714Y-111167285D02*
X150173476Y-111167285D01*
X150173476Y-111167285D02*
X150125857Y-111191095D01*
X150125857Y-111191095D02*
X150102047Y-111214904D01*
X150102047Y-111214904D02*
X150078238Y-111262523D01*
X146998571Y-107492190D02*
X146974762Y-107516000D01*
X146974762Y-107516000D02*
X146903333Y-107539809D01*
X146903333Y-107539809D02*
X146855714Y-107539809D01*
X146855714Y-107539809D02*
X146784286Y-107516000D01*
X146784286Y-107516000D02*
X146736667Y-107468380D01*
X146736667Y-107468380D02*
X146712857Y-107420761D01*
X146712857Y-107420761D02*
X146689048Y-107325523D01*
X146689048Y-107325523D02*
X146689048Y-107254095D01*
X146689048Y-107254095D02*
X146712857Y-107158857D01*
X146712857Y-107158857D02*
X146736667Y-107111238D01*
X146736667Y-107111238D02*
X146784286Y-107063619D01*
X146784286Y-107063619D02*
X146855714Y-107039809D01*
X146855714Y-107039809D02*
X146903333Y-107039809D01*
X146903333Y-107039809D02*
X146974762Y-107063619D01*
X146974762Y-107063619D02*
X146998571Y-107087428D01*
X147189048Y-107087428D02*
X147212857Y-107063619D01*
X147212857Y-107063619D02*
X147260476Y-107039809D01*
X147260476Y-107039809D02*
X147379524Y-107039809D01*
X147379524Y-107039809D02*
X147427143Y-107063619D01*
X147427143Y-107063619D02*
X147450952Y-107087428D01*
X147450952Y-107087428D02*
X147474762Y-107135047D01*
X147474762Y-107135047D02*
X147474762Y-107182666D01*
X147474762Y-107182666D02*
X147450952Y-107254095D01*
X147450952Y-107254095D02*
X147165238Y-107539809D01*
X147165238Y-107539809D02*
X147474762Y-107539809D01*
X147641428Y-107039809D02*
X147974761Y-107039809D01*
X147974761Y-107039809D02*
X147760476Y-107539809D01*
X145811905Y-112508714D02*
X145811905Y-112746809D01*
X145645239Y-112246809D02*
X145811905Y-112508714D01*
X145811905Y-112508714D02*
X145978572Y-112246809D01*
X146407143Y-112746809D02*
X146121429Y-112746809D01*
X146264286Y-112746809D02*
X146264286Y-112246809D01*
X146264286Y-112246809D02*
X146216667Y-112318238D01*
X146216667Y-112318238D02*
X146169048Y-112365857D01*
X146169048Y-112365857D02*
X146121429Y-112389666D01*
X152831190Y-101413428D02*
X152855000Y-101437237D01*
X152855000Y-101437237D02*
X152878809Y-101508666D01*
X152878809Y-101508666D02*
X152878809Y-101556285D01*
X152878809Y-101556285D02*
X152855000Y-101627713D01*
X152855000Y-101627713D02*
X152807380Y-101675332D01*
X152807380Y-101675332D02*
X152759761Y-101699142D01*
X152759761Y-101699142D02*
X152664523Y-101722951D01*
X152664523Y-101722951D02*
X152593095Y-101722951D01*
X152593095Y-101722951D02*
X152497857Y-101699142D01*
X152497857Y-101699142D02*
X152450238Y-101675332D01*
X152450238Y-101675332D02*
X152402619Y-101627713D01*
X152402619Y-101627713D02*
X152378809Y-101556285D01*
X152378809Y-101556285D02*
X152378809Y-101508666D01*
X152378809Y-101508666D02*
X152402619Y-101437237D01*
X152402619Y-101437237D02*
X152426428Y-101413428D01*
X152426428Y-101222951D02*
X152402619Y-101199142D01*
X152402619Y-101199142D02*
X152378809Y-101151523D01*
X152378809Y-101151523D02*
X152378809Y-101032475D01*
X152378809Y-101032475D02*
X152402619Y-100984856D01*
X152402619Y-100984856D02*
X152426428Y-100961047D01*
X152426428Y-100961047D02*
X152474047Y-100937237D01*
X152474047Y-100937237D02*
X152521666Y-100937237D01*
X152521666Y-100937237D02*
X152593095Y-100961047D01*
X152593095Y-100961047D02*
X152878809Y-101246761D01*
X152878809Y-101246761D02*
X152878809Y-100937237D01*
X152378809Y-100484857D02*
X152378809Y-100722952D01*
X152378809Y-100722952D02*
X152616904Y-100746761D01*
X152616904Y-100746761D02*
X152593095Y-100722952D01*
X152593095Y-100722952D02*
X152569285Y-100675333D01*
X152569285Y-100675333D02*
X152569285Y-100556285D01*
X152569285Y-100556285D02*
X152593095Y-100508666D01*
X152593095Y-100508666D02*
X152616904Y-100484857D01*
X152616904Y-100484857D02*
X152664523Y-100461047D01*
X152664523Y-100461047D02*
X152783571Y-100461047D01*
X152783571Y-100461047D02*
X152831190Y-100484857D01*
X152831190Y-100484857D02*
X152855000Y-100508666D01*
X152855000Y-100508666D02*
X152878809Y-100556285D01*
X152878809Y-100556285D02*
X152878809Y-100675333D01*
X152878809Y-100675333D02*
X152855000Y-100722952D01*
X152855000Y-100722952D02*
X152831190Y-100746761D01*
X145846190Y-91126428D02*
X145870000Y-91150237D01*
X145870000Y-91150237D02*
X145893809Y-91221666D01*
X145893809Y-91221666D02*
X145893809Y-91269285D01*
X145893809Y-91269285D02*
X145870000Y-91340713D01*
X145870000Y-91340713D02*
X145822380Y-91388332D01*
X145822380Y-91388332D02*
X145774761Y-91412142D01*
X145774761Y-91412142D02*
X145679523Y-91435951D01*
X145679523Y-91435951D02*
X145608095Y-91435951D01*
X145608095Y-91435951D02*
X145512857Y-91412142D01*
X145512857Y-91412142D02*
X145465238Y-91388332D01*
X145465238Y-91388332D02*
X145417619Y-91340713D01*
X145417619Y-91340713D02*
X145393809Y-91269285D01*
X145393809Y-91269285D02*
X145393809Y-91221666D01*
X145393809Y-91221666D02*
X145417619Y-91150237D01*
X145417619Y-91150237D02*
X145441428Y-91126428D01*
X145893809Y-90650237D02*
X145893809Y-90935951D01*
X145893809Y-90793094D02*
X145393809Y-90793094D01*
X145393809Y-90793094D02*
X145465238Y-90840713D01*
X145465238Y-90840713D02*
X145512857Y-90888332D01*
X145512857Y-90888332D02*
X145536666Y-90935951D01*
X145560476Y-90221666D02*
X145893809Y-90221666D01*
X145370000Y-90340714D02*
X145727142Y-90459761D01*
X145727142Y-90459761D02*
X145727142Y-90150238D01*
X147490666Y-106476190D02*
X147466857Y-106500000D01*
X147466857Y-106500000D02*
X147395428Y-106523809D01*
X147395428Y-106523809D02*
X147347809Y-106523809D01*
X147347809Y-106523809D02*
X147276381Y-106500000D01*
X147276381Y-106500000D02*
X147228762Y-106452380D01*
X147228762Y-106452380D02*
X147204952Y-106404761D01*
X147204952Y-106404761D02*
X147181143Y-106309523D01*
X147181143Y-106309523D02*
X147181143Y-106238095D01*
X147181143Y-106238095D02*
X147204952Y-106142857D01*
X147204952Y-106142857D02*
X147228762Y-106095238D01*
X147228762Y-106095238D02*
X147276381Y-106047619D01*
X147276381Y-106047619D02*
X147347809Y-106023809D01*
X147347809Y-106023809D02*
X147395428Y-106023809D01*
X147395428Y-106023809D02*
X147466857Y-106047619D01*
X147466857Y-106047619D02*
X147490666Y-106071428D01*
X147919238Y-106023809D02*
X147824000Y-106023809D01*
X147824000Y-106023809D02*
X147776381Y-106047619D01*
X147776381Y-106047619D02*
X147752571Y-106071428D01*
X147752571Y-106071428D02*
X147704952Y-106142857D01*
X147704952Y-106142857D02*
X147681143Y-106238095D01*
X147681143Y-106238095D02*
X147681143Y-106428571D01*
X147681143Y-106428571D02*
X147704952Y-106476190D01*
X147704952Y-106476190D02*
X147728762Y-106500000D01*
X147728762Y-106500000D02*
X147776381Y-106523809D01*
X147776381Y-106523809D02*
X147871619Y-106523809D01*
X147871619Y-106523809D02*
X147919238Y-106500000D01*
X147919238Y-106500000D02*
X147943047Y-106476190D01*
X147943047Y-106476190D02*
X147966857Y-106428571D01*
X147966857Y-106428571D02*
X147966857Y-106309523D01*
X147966857Y-106309523D02*
X147943047Y-106261904D01*
X147943047Y-106261904D02*
X147919238Y-106238095D01*
X147919238Y-106238095D02*
X147871619Y-106214285D01*
X147871619Y-106214285D02*
X147776381Y-106214285D01*
X147776381Y-106214285D02*
X147728762Y-106238095D01*
X147728762Y-106238095D02*
X147704952Y-106261904D01*
X147704952Y-106261904D02*
X147681143Y-106309523D01*
X142156666Y-87854809D02*
X141990000Y-87616714D01*
X141870952Y-87854809D02*
X141870952Y-87354809D01*
X141870952Y-87354809D02*
X142061428Y-87354809D01*
X142061428Y-87354809D02*
X142109047Y-87378619D01*
X142109047Y-87378619D02*
X142132857Y-87402428D01*
X142132857Y-87402428D02*
X142156666Y-87450047D01*
X142156666Y-87450047D02*
X142156666Y-87521476D01*
X142156666Y-87521476D02*
X142132857Y-87569095D01*
X142132857Y-87569095D02*
X142109047Y-87592904D01*
X142109047Y-87592904D02*
X142061428Y-87616714D01*
X142061428Y-87616714D02*
X141870952Y-87616714D01*
X142585238Y-87354809D02*
X142490000Y-87354809D01*
X142490000Y-87354809D02*
X142442381Y-87378619D01*
X142442381Y-87378619D02*
X142418571Y-87402428D01*
X142418571Y-87402428D02*
X142370952Y-87473857D01*
X142370952Y-87473857D02*
X142347143Y-87569095D01*
X142347143Y-87569095D02*
X142347143Y-87759571D01*
X142347143Y-87759571D02*
X142370952Y-87807190D01*
X142370952Y-87807190D02*
X142394762Y-87831000D01*
X142394762Y-87831000D02*
X142442381Y-87854809D01*
X142442381Y-87854809D02*
X142537619Y-87854809D01*
X142537619Y-87854809D02*
X142585238Y-87831000D01*
X142585238Y-87831000D02*
X142609047Y-87807190D01*
X142609047Y-87807190D02*
X142632857Y-87759571D01*
X142632857Y-87759571D02*
X142632857Y-87640523D01*
X142632857Y-87640523D02*
X142609047Y-87592904D01*
X142609047Y-87592904D02*
X142585238Y-87569095D01*
X142585238Y-87569095D02*
X142537619Y-87545285D01*
X142537619Y-87545285D02*
X142442381Y-87545285D01*
X142442381Y-87545285D02*
X142394762Y-87569095D01*
X142394762Y-87569095D02*
X142370952Y-87592904D01*
X142370952Y-87592904D02*
X142347143Y-87640523D01*
X164719047Y-93544809D02*
X164719047Y-93044809D01*
X164719047Y-93282904D02*
X165004761Y-93282904D01*
X165004761Y-93544809D02*
X165004761Y-93044809D01*
X165219048Y-93092428D02*
X165242857Y-93068619D01*
X165242857Y-93068619D02*
X165290476Y-93044809D01*
X165290476Y-93044809D02*
X165409524Y-93044809D01*
X165409524Y-93044809D02*
X165457143Y-93068619D01*
X165457143Y-93068619D02*
X165480952Y-93092428D01*
X165480952Y-93092428D02*
X165504762Y-93140047D01*
X165504762Y-93140047D02*
X165504762Y-93187666D01*
X165504762Y-93187666D02*
X165480952Y-93259095D01*
X165480952Y-93259095D02*
X165195238Y-93544809D01*
X165195238Y-93544809D02*
X165504762Y-93544809D01*
X155829047Y-107293809D02*
X155829047Y-107698571D01*
X155829047Y-107698571D02*
X155852857Y-107746190D01*
X155852857Y-107746190D02*
X155876666Y-107770000D01*
X155876666Y-107770000D02*
X155924285Y-107793809D01*
X155924285Y-107793809D02*
X156019523Y-107793809D01*
X156019523Y-107793809D02*
X156067142Y-107770000D01*
X156067142Y-107770000D02*
X156090952Y-107746190D01*
X156090952Y-107746190D02*
X156114761Y-107698571D01*
X156114761Y-107698571D02*
X156114761Y-107293809D01*
X156590952Y-107293809D02*
X156352857Y-107293809D01*
X156352857Y-107293809D02*
X156329048Y-107531904D01*
X156329048Y-107531904D02*
X156352857Y-107508095D01*
X156352857Y-107508095D02*
X156400476Y-107484285D01*
X156400476Y-107484285D02*
X156519524Y-107484285D01*
X156519524Y-107484285D02*
X156567143Y-107508095D01*
X156567143Y-107508095D02*
X156590952Y-107531904D01*
X156590952Y-107531904D02*
X156614762Y-107579523D01*
X156614762Y-107579523D02*
X156614762Y-107698571D01*
X156614762Y-107698571D02*
X156590952Y-107746190D01*
X156590952Y-107746190D02*
X156567143Y-107770000D01*
X156567143Y-107770000D02*
X156519524Y-107793809D01*
X156519524Y-107793809D02*
X156400476Y-107793809D01*
X156400476Y-107793809D02*
X156352857Y-107770000D01*
X156352857Y-107770000D02*
X156329048Y-107746190D01*
X149833990Y-93818828D02*
X149857800Y-93842637D01*
X149857800Y-93842637D02*
X149881609Y-93914066D01*
X149881609Y-93914066D02*
X149881609Y-93961685D01*
X149881609Y-93961685D02*
X149857800Y-94033113D01*
X149857800Y-94033113D02*
X149810180Y-94080732D01*
X149810180Y-94080732D02*
X149762561Y-94104542D01*
X149762561Y-94104542D02*
X149667323Y-94128351D01*
X149667323Y-94128351D02*
X149595895Y-94128351D01*
X149595895Y-94128351D02*
X149500657Y-94104542D01*
X149500657Y-94104542D02*
X149453038Y-94080732D01*
X149453038Y-94080732D02*
X149405419Y-94033113D01*
X149405419Y-94033113D02*
X149381609Y-93961685D01*
X149381609Y-93961685D02*
X149381609Y-93914066D01*
X149381609Y-93914066D02*
X149405419Y-93842637D01*
X149405419Y-93842637D02*
X149429228Y-93818828D01*
X149881609Y-93342637D02*
X149881609Y-93628351D01*
X149881609Y-93485494D02*
X149381609Y-93485494D01*
X149381609Y-93485494D02*
X149453038Y-93533113D01*
X149453038Y-93533113D02*
X149500657Y-93580732D01*
X149500657Y-93580732D02*
X149524466Y-93628351D01*
X149381609Y-93033114D02*
X149381609Y-92985495D01*
X149381609Y-92985495D02*
X149405419Y-92937876D01*
X149405419Y-92937876D02*
X149429228Y-92914066D01*
X149429228Y-92914066D02*
X149476847Y-92890257D01*
X149476847Y-92890257D02*
X149572085Y-92866447D01*
X149572085Y-92866447D02*
X149691133Y-92866447D01*
X149691133Y-92866447D02*
X149786371Y-92890257D01*
X149786371Y-92890257D02*
X149833990Y-92914066D01*
X149833990Y-92914066D02*
X149857800Y-92937876D01*
X149857800Y-92937876D02*
X149881609Y-92985495D01*
X149881609Y-92985495D02*
X149881609Y-93033114D01*
X149881609Y-93033114D02*
X149857800Y-93080733D01*
X149857800Y-93080733D02*
X149833990Y-93104542D01*
X149833990Y-93104542D02*
X149786371Y-93128352D01*
X149786371Y-93128352D02*
X149691133Y-93152161D01*
X149691133Y-93152161D02*
X149572085Y-93152161D01*
X149572085Y-93152161D02*
X149476847Y-93128352D01*
X149476847Y-93128352D02*
X149429228Y-93104542D01*
X149429228Y-93104542D02*
X149405419Y-93080733D01*
X149405419Y-93080733D02*
X149381609Y-93033114D01*
X150849990Y-93818828D02*
X150873800Y-93842637D01*
X150873800Y-93842637D02*
X150897609Y-93914066D01*
X150897609Y-93914066D02*
X150897609Y-93961685D01*
X150897609Y-93961685D02*
X150873800Y-94033113D01*
X150873800Y-94033113D02*
X150826180Y-94080732D01*
X150826180Y-94080732D02*
X150778561Y-94104542D01*
X150778561Y-94104542D02*
X150683323Y-94128351D01*
X150683323Y-94128351D02*
X150611895Y-94128351D01*
X150611895Y-94128351D02*
X150516657Y-94104542D01*
X150516657Y-94104542D02*
X150469038Y-94080732D01*
X150469038Y-94080732D02*
X150421419Y-94033113D01*
X150421419Y-94033113D02*
X150397609Y-93961685D01*
X150397609Y-93961685D02*
X150397609Y-93914066D01*
X150397609Y-93914066D02*
X150421419Y-93842637D01*
X150421419Y-93842637D02*
X150445228Y-93818828D01*
X150897609Y-93342637D02*
X150897609Y-93628351D01*
X150897609Y-93485494D02*
X150397609Y-93485494D01*
X150397609Y-93485494D02*
X150469038Y-93533113D01*
X150469038Y-93533113D02*
X150516657Y-93580732D01*
X150516657Y-93580732D02*
X150540466Y-93628351D01*
X150897609Y-92866447D02*
X150897609Y-93152161D01*
X150897609Y-93009304D02*
X150397609Y-93009304D01*
X150397609Y-93009304D02*
X150469038Y-93056923D01*
X150469038Y-93056923D02*
X150516657Y-93104542D01*
X150516657Y-93104542D02*
X150540466Y-93152161D01*
X135520952Y-82012809D02*
X135520952Y-81512809D01*
X135520952Y-81512809D02*
X135640000Y-81512809D01*
X135640000Y-81512809D02*
X135711428Y-81536619D01*
X135711428Y-81536619D02*
X135759047Y-81584238D01*
X135759047Y-81584238D02*
X135782857Y-81631857D01*
X135782857Y-81631857D02*
X135806666Y-81727095D01*
X135806666Y-81727095D02*
X135806666Y-81798523D01*
X135806666Y-81798523D02*
X135782857Y-81893761D01*
X135782857Y-81893761D02*
X135759047Y-81941380D01*
X135759047Y-81941380D02*
X135711428Y-81989000D01*
X135711428Y-81989000D02*
X135640000Y-82012809D01*
X135640000Y-82012809D02*
X135520952Y-82012809D01*
X135973333Y-81512809D02*
X136282857Y-81512809D01*
X136282857Y-81512809D02*
X136116190Y-81703285D01*
X136116190Y-81703285D02*
X136187619Y-81703285D01*
X136187619Y-81703285D02*
X136235238Y-81727095D01*
X136235238Y-81727095D02*
X136259047Y-81750904D01*
X136259047Y-81750904D02*
X136282857Y-81798523D01*
X136282857Y-81798523D02*
X136282857Y-81917571D01*
X136282857Y-81917571D02*
X136259047Y-81965190D01*
X136259047Y-81965190D02*
X136235238Y-81989000D01*
X136235238Y-81989000D02*
X136187619Y-82012809D01*
X136187619Y-82012809D02*
X136044762Y-82012809D01*
X136044762Y-82012809D02*
X135997143Y-81989000D01*
X135997143Y-81989000D02*
X135973333Y-81965190D01*
X152831190Y-104461428D02*
X152855000Y-104485237D01*
X152855000Y-104485237D02*
X152878809Y-104556666D01*
X152878809Y-104556666D02*
X152878809Y-104604285D01*
X152878809Y-104604285D02*
X152855000Y-104675713D01*
X152855000Y-104675713D02*
X152807380Y-104723332D01*
X152807380Y-104723332D02*
X152759761Y-104747142D01*
X152759761Y-104747142D02*
X152664523Y-104770951D01*
X152664523Y-104770951D02*
X152593095Y-104770951D01*
X152593095Y-104770951D02*
X152497857Y-104747142D01*
X152497857Y-104747142D02*
X152450238Y-104723332D01*
X152450238Y-104723332D02*
X152402619Y-104675713D01*
X152402619Y-104675713D02*
X152378809Y-104604285D01*
X152378809Y-104604285D02*
X152378809Y-104556666D01*
X152378809Y-104556666D02*
X152402619Y-104485237D01*
X152402619Y-104485237D02*
X152426428Y-104461428D01*
X152878809Y-103985237D02*
X152878809Y-104270951D01*
X152878809Y-104128094D02*
X152378809Y-104128094D01*
X152378809Y-104128094D02*
X152450238Y-104175713D01*
X152450238Y-104175713D02*
X152497857Y-104223332D01*
X152497857Y-104223332D02*
X152521666Y-104270951D01*
X152378809Y-103818571D02*
X152378809Y-103485238D01*
X152378809Y-103485238D02*
X152878809Y-103699523D01*
X143553666Y-108381190D02*
X143529857Y-108405000D01*
X143529857Y-108405000D02*
X143458428Y-108428809D01*
X143458428Y-108428809D02*
X143410809Y-108428809D01*
X143410809Y-108428809D02*
X143339381Y-108405000D01*
X143339381Y-108405000D02*
X143291762Y-108357380D01*
X143291762Y-108357380D02*
X143267952Y-108309761D01*
X143267952Y-108309761D02*
X143244143Y-108214523D01*
X143244143Y-108214523D02*
X143244143Y-108143095D01*
X143244143Y-108143095D02*
X143267952Y-108047857D01*
X143267952Y-108047857D02*
X143291762Y-108000238D01*
X143291762Y-108000238D02*
X143339381Y-107952619D01*
X143339381Y-107952619D02*
X143410809Y-107928809D01*
X143410809Y-107928809D02*
X143458428Y-107928809D01*
X143458428Y-107928809D02*
X143529857Y-107952619D01*
X143529857Y-107952619D02*
X143553666Y-107976428D01*
X143744143Y-107976428D02*
X143767952Y-107952619D01*
X143767952Y-107952619D02*
X143815571Y-107928809D01*
X143815571Y-107928809D02*
X143934619Y-107928809D01*
X143934619Y-107928809D02*
X143982238Y-107952619D01*
X143982238Y-107952619D02*
X144006047Y-107976428D01*
X144006047Y-107976428D02*
X144029857Y-108024047D01*
X144029857Y-108024047D02*
X144029857Y-108071666D01*
X144029857Y-108071666D02*
X144006047Y-108143095D01*
X144006047Y-108143095D02*
X143720333Y-108428809D01*
X143720333Y-108428809D02*
X144029857Y-108428809D01*
X130996571Y-112318190D02*
X130972762Y-112342000D01*
X130972762Y-112342000D02*
X130901333Y-112365809D01*
X130901333Y-112365809D02*
X130853714Y-112365809D01*
X130853714Y-112365809D02*
X130782286Y-112342000D01*
X130782286Y-112342000D02*
X130734667Y-112294380D01*
X130734667Y-112294380D02*
X130710857Y-112246761D01*
X130710857Y-112246761D02*
X130687048Y-112151523D01*
X130687048Y-112151523D02*
X130687048Y-112080095D01*
X130687048Y-112080095D02*
X130710857Y-111984857D01*
X130710857Y-111984857D02*
X130734667Y-111937238D01*
X130734667Y-111937238D02*
X130782286Y-111889619D01*
X130782286Y-111889619D02*
X130853714Y-111865809D01*
X130853714Y-111865809D02*
X130901333Y-111865809D01*
X130901333Y-111865809D02*
X130972762Y-111889619D01*
X130972762Y-111889619D02*
X130996571Y-111913428D01*
X131472762Y-112365809D02*
X131187048Y-112365809D01*
X131329905Y-112365809D02*
X131329905Y-111865809D01*
X131329905Y-111865809D02*
X131282286Y-111937238D01*
X131282286Y-111937238D02*
X131234667Y-111984857D01*
X131234667Y-111984857D02*
X131187048Y-112008666D01*
X131710857Y-112365809D02*
X131806095Y-112365809D01*
X131806095Y-112365809D02*
X131853714Y-112342000D01*
X131853714Y-112342000D02*
X131877523Y-112318190D01*
X131877523Y-112318190D02*
X131925142Y-112246761D01*
X131925142Y-112246761D02*
X131948952Y-112151523D01*
X131948952Y-112151523D02*
X131948952Y-111961047D01*
X131948952Y-111961047D02*
X131925142Y-111913428D01*
X131925142Y-111913428D02*
X131901333Y-111889619D01*
X131901333Y-111889619D02*
X131853714Y-111865809D01*
X131853714Y-111865809D02*
X131758476Y-111865809D01*
X131758476Y-111865809D02*
X131710857Y-111889619D01*
X131710857Y-111889619D02*
X131687047Y-111913428D01*
X131687047Y-111913428D02*
X131663238Y-111961047D01*
X131663238Y-111961047D02*
X131663238Y-112080095D01*
X131663238Y-112080095D02*
X131687047Y-112127714D01*
X131687047Y-112127714D02*
X131710857Y-112151523D01*
X131710857Y-112151523D02*
X131758476Y-112175333D01*
X131758476Y-112175333D02*
X131853714Y-112175333D01*
X131853714Y-112175333D02*
X131901333Y-112151523D01*
X131901333Y-112151523D02*
X131925142Y-112127714D01*
X131925142Y-112127714D02*
X131948952Y-112080095D01*
X141370905Y-97345255D02*
X141370905Y-96845255D01*
X141894714Y-97297636D02*
X141870905Y-97321446D01*
X141870905Y-97321446D02*
X141799476Y-97345255D01*
X141799476Y-97345255D02*
X141751857Y-97345255D01*
X141751857Y-97345255D02*
X141680429Y-97321446D01*
X141680429Y-97321446D02*
X141632810Y-97273826D01*
X141632810Y-97273826D02*
X141609000Y-97226207D01*
X141609000Y-97226207D02*
X141585191Y-97130969D01*
X141585191Y-97130969D02*
X141585191Y-97059541D01*
X141585191Y-97059541D02*
X141609000Y-96964303D01*
X141609000Y-96964303D02*
X141632810Y-96916684D01*
X141632810Y-96916684D02*
X141680429Y-96869065D01*
X141680429Y-96869065D02*
X141751857Y-96845255D01*
X141751857Y-96845255D02*
X141799476Y-96845255D01*
X141799476Y-96845255D02*
X141870905Y-96869065D01*
X141870905Y-96869065D02*
X141894714Y-96892874D01*
X142370905Y-97345255D02*
X142085191Y-97345255D01*
X142228048Y-97345255D02*
X142228048Y-96845255D01*
X142228048Y-96845255D02*
X142180429Y-96916684D01*
X142180429Y-96916684D02*
X142132810Y-96964303D01*
X142132810Y-96964303D02*
X142085191Y-96988112D01*
X140632666Y-91918809D02*
X140466000Y-91680714D01*
X140346952Y-91918809D02*
X140346952Y-91418809D01*
X140346952Y-91418809D02*
X140537428Y-91418809D01*
X140537428Y-91418809D02*
X140585047Y-91442619D01*
X140585047Y-91442619D02*
X140608857Y-91466428D01*
X140608857Y-91466428D02*
X140632666Y-91514047D01*
X140632666Y-91514047D02*
X140632666Y-91585476D01*
X140632666Y-91585476D02*
X140608857Y-91633095D01*
X140608857Y-91633095D02*
X140585047Y-91656904D01*
X140585047Y-91656904D02*
X140537428Y-91680714D01*
X140537428Y-91680714D02*
X140346952Y-91680714D01*
X141108857Y-91918809D02*
X140823143Y-91918809D01*
X140966000Y-91918809D02*
X140966000Y-91418809D01*
X140966000Y-91418809D02*
X140918381Y-91490238D01*
X140918381Y-91490238D02*
X140870762Y-91537857D01*
X140870762Y-91537857D02*
X140823143Y-91561666D01*
X164719047Y-111324809D02*
X164719047Y-110824809D01*
X164719047Y-111062904D02*
X165004761Y-111062904D01*
X165004761Y-111324809D02*
X165004761Y-110824809D01*
X165457143Y-110991476D02*
X165457143Y-111324809D01*
X165338095Y-110801000D02*
X165219048Y-111158142D01*
X165219048Y-111158142D02*
X165528571Y-111158142D01*
X150808571Y-98348190D02*
X150784762Y-98372000D01*
X150784762Y-98372000D02*
X150713333Y-98395809D01*
X150713333Y-98395809D02*
X150665714Y-98395809D01*
X150665714Y-98395809D02*
X150594286Y-98372000D01*
X150594286Y-98372000D02*
X150546667Y-98324380D01*
X150546667Y-98324380D02*
X150522857Y-98276761D01*
X150522857Y-98276761D02*
X150499048Y-98181523D01*
X150499048Y-98181523D02*
X150499048Y-98110095D01*
X150499048Y-98110095D02*
X150522857Y-98014857D01*
X150522857Y-98014857D02*
X150546667Y-97967238D01*
X150546667Y-97967238D02*
X150594286Y-97919619D01*
X150594286Y-97919619D02*
X150665714Y-97895809D01*
X150665714Y-97895809D02*
X150713333Y-97895809D01*
X150713333Y-97895809D02*
X150784762Y-97919619D01*
X150784762Y-97919619D02*
X150808571Y-97943428D01*
X151284762Y-98395809D02*
X150999048Y-98395809D01*
X151141905Y-98395809D02*
X151141905Y-97895809D01*
X151141905Y-97895809D02*
X151094286Y-97967238D01*
X151094286Y-97967238D02*
X151046667Y-98014857D01*
X151046667Y-98014857D02*
X150999048Y-98038666D01*
X151475238Y-97943428D02*
X151499047Y-97919619D01*
X151499047Y-97919619D02*
X151546666Y-97895809D01*
X151546666Y-97895809D02*
X151665714Y-97895809D01*
X151665714Y-97895809D02*
X151713333Y-97919619D01*
X151713333Y-97919619D02*
X151737142Y-97943428D01*
X151737142Y-97943428D02*
X151760952Y-97991047D01*
X151760952Y-97991047D02*
X151760952Y-98038666D01*
X151760952Y-98038666D02*
X151737142Y-98110095D01*
X151737142Y-98110095D02*
X151451428Y-98395809D01*
X151451428Y-98395809D02*
X151760952Y-98395809D01*
X144830190Y-91126428D02*
X144854000Y-91150237D01*
X144854000Y-91150237D02*
X144877809Y-91221666D01*
X144877809Y-91221666D02*
X144877809Y-91269285D01*
X144877809Y-91269285D02*
X144854000Y-91340713D01*
X144854000Y-91340713D02*
X144806380Y-91388332D01*
X144806380Y-91388332D02*
X144758761Y-91412142D01*
X144758761Y-91412142D02*
X144663523Y-91435951D01*
X144663523Y-91435951D02*
X144592095Y-91435951D01*
X144592095Y-91435951D02*
X144496857Y-91412142D01*
X144496857Y-91412142D02*
X144449238Y-91388332D01*
X144449238Y-91388332D02*
X144401619Y-91340713D01*
X144401619Y-91340713D02*
X144377809Y-91269285D01*
X144377809Y-91269285D02*
X144377809Y-91221666D01*
X144377809Y-91221666D02*
X144401619Y-91150237D01*
X144401619Y-91150237D02*
X144425428Y-91126428D01*
X144877809Y-90650237D02*
X144877809Y-90935951D01*
X144877809Y-90793094D02*
X144377809Y-90793094D01*
X144377809Y-90793094D02*
X144449238Y-90840713D01*
X144449238Y-90840713D02*
X144496857Y-90888332D01*
X144496857Y-90888332D02*
X144520666Y-90935951D01*
X144377809Y-90197857D02*
X144377809Y-90435952D01*
X144377809Y-90435952D02*
X144615904Y-90459761D01*
X144615904Y-90459761D02*
X144592095Y-90435952D01*
X144592095Y-90435952D02*
X144568285Y-90388333D01*
X144568285Y-90388333D02*
X144568285Y-90269285D01*
X144568285Y-90269285D02*
X144592095Y-90221666D01*
X144592095Y-90221666D02*
X144615904Y-90197857D01*
X144615904Y-90197857D02*
X144663523Y-90174047D01*
X144663523Y-90174047D02*
X144782571Y-90174047D01*
X144782571Y-90174047D02*
X144830190Y-90197857D01*
X144830190Y-90197857D02*
X144854000Y-90221666D01*
X144854000Y-90221666D02*
X144877809Y-90269285D01*
X144877809Y-90269285D02*
X144877809Y-90388333D01*
X144877809Y-90388333D02*
X144854000Y-90435952D01*
X144854000Y-90435952D02*
X144830190Y-90459761D01*
X139623190Y-98111428D02*
X139647000Y-98135237D01*
X139647000Y-98135237D02*
X139670809Y-98206666D01*
X139670809Y-98206666D02*
X139670809Y-98254285D01*
X139670809Y-98254285D02*
X139647000Y-98325713D01*
X139647000Y-98325713D02*
X139599380Y-98373332D01*
X139599380Y-98373332D02*
X139551761Y-98397142D01*
X139551761Y-98397142D02*
X139456523Y-98420951D01*
X139456523Y-98420951D02*
X139385095Y-98420951D01*
X139385095Y-98420951D02*
X139289857Y-98397142D01*
X139289857Y-98397142D02*
X139242238Y-98373332D01*
X139242238Y-98373332D02*
X139194619Y-98325713D01*
X139194619Y-98325713D02*
X139170809Y-98254285D01*
X139170809Y-98254285D02*
X139170809Y-98206666D01*
X139170809Y-98206666D02*
X139194619Y-98135237D01*
X139194619Y-98135237D02*
X139218428Y-98111428D01*
X139218428Y-97920951D02*
X139194619Y-97897142D01*
X139194619Y-97897142D02*
X139170809Y-97849523D01*
X139170809Y-97849523D02*
X139170809Y-97730475D01*
X139170809Y-97730475D02*
X139194619Y-97682856D01*
X139194619Y-97682856D02*
X139218428Y-97659047D01*
X139218428Y-97659047D02*
X139266047Y-97635237D01*
X139266047Y-97635237D02*
X139313666Y-97635237D01*
X139313666Y-97635237D02*
X139385095Y-97659047D01*
X139385095Y-97659047D02*
X139670809Y-97944761D01*
X139670809Y-97944761D02*
X139670809Y-97635237D01*
X139170809Y-97325714D02*
X139170809Y-97278095D01*
X139170809Y-97278095D02*
X139194619Y-97230476D01*
X139194619Y-97230476D02*
X139218428Y-97206666D01*
X139218428Y-97206666D02*
X139266047Y-97182857D01*
X139266047Y-97182857D02*
X139361285Y-97159047D01*
X139361285Y-97159047D02*
X139480333Y-97159047D01*
X139480333Y-97159047D02*
X139575571Y-97182857D01*
X139575571Y-97182857D02*
X139623190Y-97206666D01*
X139623190Y-97206666D02*
X139647000Y-97230476D01*
X139647000Y-97230476D02*
X139670809Y-97278095D01*
X139670809Y-97278095D02*
X139670809Y-97325714D01*
X139670809Y-97325714D02*
X139647000Y-97373333D01*
X139647000Y-97373333D02*
X139623190Y-97397142D01*
X139623190Y-97397142D02*
X139575571Y-97420952D01*
X139575571Y-97420952D02*
X139480333Y-97444761D01*
X139480333Y-97444761D02*
X139361285Y-97444761D01*
X139361285Y-97444761D02*
X139266047Y-97420952D01*
X139266047Y-97420952D02*
X139218428Y-97397142D01*
X139218428Y-97397142D02*
X139194619Y-97373333D01*
X139194619Y-97373333D02*
X139170809Y-97325714D01*
X140648571Y-98475190D02*
X140624762Y-98499000D01*
X140624762Y-98499000D02*
X140553333Y-98522809D01*
X140553333Y-98522809D02*
X140505714Y-98522809D01*
X140505714Y-98522809D02*
X140434286Y-98499000D01*
X140434286Y-98499000D02*
X140386667Y-98451380D01*
X140386667Y-98451380D02*
X140362857Y-98403761D01*
X140362857Y-98403761D02*
X140339048Y-98308523D01*
X140339048Y-98308523D02*
X140339048Y-98237095D01*
X140339048Y-98237095D02*
X140362857Y-98141857D01*
X140362857Y-98141857D02*
X140386667Y-98094238D01*
X140386667Y-98094238D02*
X140434286Y-98046619D01*
X140434286Y-98046619D02*
X140505714Y-98022809D01*
X140505714Y-98022809D02*
X140553333Y-98022809D01*
X140553333Y-98022809D02*
X140624762Y-98046619D01*
X140624762Y-98046619D02*
X140648571Y-98070428D01*
X141124762Y-98522809D02*
X140839048Y-98522809D01*
X140981905Y-98522809D02*
X140981905Y-98022809D01*
X140981905Y-98022809D02*
X140934286Y-98094238D01*
X140934286Y-98094238D02*
X140886667Y-98141857D01*
X140886667Y-98141857D02*
X140839048Y-98165666D01*
X141553333Y-98022809D02*
X141458095Y-98022809D01*
X141458095Y-98022809D02*
X141410476Y-98046619D01*
X141410476Y-98046619D02*
X141386666Y-98070428D01*
X141386666Y-98070428D02*
X141339047Y-98141857D01*
X141339047Y-98141857D02*
X141315238Y-98237095D01*
X141315238Y-98237095D02*
X141315238Y-98427571D01*
X141315238Y-98427571D02*
X141339047Y-98475190D01*
X141339047Y-98475190D02*
X141362857Y-98499000D01*
X141362857Y-98499000D02*
X141410476Y-98522809D01*
X141410476Y-98522809D02*
X141505714Y-98522809D01*
X141505714Y-98522809D02*
X141553333Y-98499000D01*
X141553333Y-98499000D02*
X141577142Y-98475190D01*
X141577142Y-98475190D02*
X141600952Y-98427571D01*
X141600952Y-98427571D02*
X141600952Y-98308523D01*
X141600952Y-98308523D02*
X141577142Y-98260904D01*
X141577142Y-98260904D02*
X141553333Y-98237095D01*
X141553333Y-98237095D02*
X141505714Y-98213285D01*
X141505714Y-98213285D02*
X141410476Y-98213285D01*
X141410476Y-98213285D02*
X141362857Y-98237095D01*
X141362857Y-98237095D02*
X141339047Y-98260904D01*
X141339047Y-98260904D02*
X141315238Y-98308523D01*
X155507571Y-102539190D02*
X155483762Y-102563000D01*
X155483762Y-102563000D02*
X155412333Y-102586809D01*
X155412333Y-102586809D02*
X155364714Y-102586809D01*
X155364714Y-102586809D02*
X155293286Y-102563000D01*
X155293286Y-102563000D02*
X155245667Y-102515380D01*
X155245667Y-102515380D02*
X155221857Y-102467761D01*
X155221857Y-102467761D02*
X155198048Y-102372523D01*
X155198048Y-102372523D02*
X155198048Y-102301095D01*
X155198048Y-102301095D02*
X155221857Y-102205857D01*
X155221857Y-102205857D02*
X155245667Y-102158238D01*
X155245667Y-102158238D02*
X155293286Y-102110619D01*
X155293286Y-102110619D02*
X155364714Y-102086809D01*
X155364714Y-102086809D02*
X155412333Y-102086809D01*
X155412333Y-102086809D02*
X155483762Y-102110619D01*
X155483762Y-102110619D02*
X155507571Y-102134428D01*
X155698048Y-102134428D02*
X155721857Y-102110619D01*
X155721857Y-102110619D02*
X155769476Y-102086809D01*
X155769476Y-102086809D02*
X155888524Y-102086809D01*
X155888524Y-102086809D02*
X155936143Y-102110619D01*
X155936143Y-102110619D02*
X155959952Y-102134428D01*
X155959952Y-102134428D02*
X155983762Y-102182047D01*
X155983762Y-102182047D02*
X155983762Y-102229666D01*
X155983762Y-102229666D02*
X155959952Y-102301095D01*
X155959952Y-102301095D02*
X155674238Y-102586809D01*
X155674238Y-102586809D02*
X155983762Y-102586809D01*
X156174238Y-102134428D02*
X156198047Y-102110619D01*
X156198047Y-102110619D02*
X156245666Y-102086809D01*
X156245666Y-102086809D02*
X156364714Y-102086809D01*
X156364714Y-102086809D02*
X156412333Y-102110619D01*
X156412333Y-102110619D02*
X156436142Y-102134428D01*
X156436142Y-102134428D02*
X156459952Y-102182047D01*
X156459952Y-102182047D02*
X156459952Y-102229666D01*
X156459952Y-102229666D02*
X156436142Y-102301095D01*
X156436142Y-102301095D02*
X156150428Y-102586809D01*
X156150428Y-102586809D02*
X156459952Y-102586809D01*
X141321809Y-111527404D02*
X141083714Y-111694070D01*
X141321809Y-111813118D02*
X140821809Y-111813118D01*
X140821809Y-111813118D02*
X140821809Y-111622642D01*
X140821809Y-111622642D02*
X140845619Y-111575023D01*
X140845619Y-111575023D02*
X140869428Y-111551213D01*
X140869428Y-111551213D02*
X140917047Y-111527404D01*
X140917047Y-111527404D02*
X140988476Y-111527404D01*
X140988476Y-111527404D02*
X141036095Y-111551213D01*
X141036095Y-111551213D02*
X141059904Y-111575023D01*
X141059904Y-111575023D02*
X141083714Y-111622642D01*
X141083714Y-111622642D02*
X141083714Y-111813118D01*
X141321809Y-111075023D02*
X141321809Y-111313118D01*
X141321809Y-111313118D02*
X140821809Y-111313118D01*
X141059904Y-110908356D02*
X141059904Y-110741689D01*
X141321809Y-110670261D02*
X141321809Y-110908356D01*
X141321809Y-110908356D02*
X140821809Y-110908356D01*
X140821809Y-110908356D02*
X140821809Y-110670261D01*
X141321809Y-110455975D02*
X140821809Y-110455975D01*
X140821809Y-110455975D02*
X140821809Y-110336927D01*
X140821809Y-110336927D02*
X140845619Y-110265499D01*
X140845619Y-110265499D02*
X140893238Y-110217880D01*
X140893238Y-110217880D02*
X140940857Y-110194070D01*
X140940857Y-110194070D02*
X141036095Y-110170261D01*
X141036095Y-110170261D02*
X141107523Y-110170261D01*
X141107523Y-110170261D02*
X141202761Y-110194070D01*
X141202761Y-110194070D02*
X141250380Y-110217880D01*
X141250380Y-110217880D02*
X141298000Y-110265499D01*
X141298000Y-110265499D02*
X141321809Y-110336927D01*
X141321809Y-110336927D02*
X141321809Y-110455975D01*
X141321809Y-109694070D02*
X141321809Y-109979784D01*
X141321809Y-109836927D02*
X140821809Y-109836927D01*
X140821809Y-109836927D02*
X140893238Y-109884546D01*
X140893238Y-109884546D02*
X140940857Y-109932165D01*
X140940857Y-109932165D02*
X140964666Y-109979784D01*
X149649666Y-110413190D02*
X149625857Y-110437000D01*
X149625857Y-110437000D02*
X149554428Y-110460809D01*
X149554428Y-110460809D02*
X149506809Y-110460809D01*
X149506809Y-110460809D02*
X149435381Y-110437000D01*
X149435381Y-110437000D02*
X149387762Y-110389380D01*
X149387762Y-110389380D02*
X149363952Y-110341761D01*
X149363952Y-110341761D02*
X149340143Y-110246523D01*
X149340143Y-110246523D02*
X149340143Y-110175095D01*
X149340143Y-110175095D02*
X149363952Y-110079857D01*
X149363952Y-110079857D02*
X149387762Y-110032238D01*
X149387762Y-110032238D02*
X149435381Y-109984619D01*
X149435381Y-109984619D02*
X149506809Y-109960809D01*
X149506809Y-109960809D02*
X149554428Y-109960809D01*
X149554428Y-109960809D02*
X149625857Y-109984619D01*
X149625857Y-109984619D02*
X149649666Y-110008428D01*
X149816333Y-109960809D02*
X150125857Y-109960809D01*
X150125857Y-109960809D02*
X149959190Y-110151285D01*
X149959190Y-110151285D02*
X150030619Y-110151285D01*
X150030619Y-110151285D02*
X150078238Y-110175095D01*
X150078238Y-110175095D02*
X150102047Y-110198904D01*
X150102047Y-110198904D02*
X150125857Y-110246523D01*
X150125857Y-110246523D02*
X150125857Y-110365571D01*
X150125857Y-110365571D02*
X150102047Y-110413190D01*
X150102047Y-110413190D02*
X150078238Y-110437000D01*
X150078238Y-110437000D02*
X150030619Y-110460809D01*
X150030619Y-110460809D02*
X149887762Y-110460809D01*
X149887762Y-110460809D02*
X149840143Y-110437000D01*
X149840143Y-110437000D02*
X149816333Y-110413190D01*
X138654809Y-102699333D02*
X138416714Y-102865999D01*
X138654809Y-102985047D02*
X138154809Y-102985047D01*
X138154809Y-102985047D02*
X138154809Y-102794571D01*
X138154809Y-102794571D02*
X138178619Y-102746952D01*
X138178619Y-102746952D02*
X138202428Y-102723142D01*
X138202428Y-102723142D02*
X138250047Y-102699333D01*
X138250047Y-102699333D02*
X138321476Y-102699333D01*
X138321476Y-102699333D02*
X138369095Y-102723142D01*
X138369095Y-102723142D02*
X138392904Y-102746952D01*
X138392904Y-102746952D02*
X138416714Y-102794571D01*
X138416714Y-102794571D02*
X138416714Y-102985047D01*
X138369095Y-102413618D02*
X138345285Y-102461237D01*
X138345285Y-102461237D02*
X138321476Y-102485047D01*
X138321476Y-102485047D02*
X138273857Y-102508856D01*
X138273857Y-102508856D02*
X138250047Y-102508856D01*
X138250047Y-102508856D02*
X138202428Y-102485047D01*
X138202428Y-102485047D02*
X138178619Y-102461237D01*
X138178619Y-102461237D02*
X138154809Y-102413618D01*
X138154809Y-102413618D02*
X138154809Y-102318380D01*
X138154809Y-102318380D02*
X138178619Y-102270761D01*
X138178619Y-102270761D02*
X138202428Y-102246952D01*
X138202428Y-102246952D02*
X138250047Y-102223142D01*
X138250047Y-102223142D02*
X138273857Y-102223142D01*
X138273857Y-102223142D02*
X138321476Y-102246952D01*
X138321476Y-102246952D02*
X138345285Y-102270761D01*
X138345285Y-102270761D02*
X138369095Y-102318380D01*
X138369095Y-102318380D02*
X138369095Y-102413618D01*
X138369095Y-102413618D02*
X138392904Y-102461237D01*
X138392904Y-102461237D02*
X138416714Y-102485047D01*
X138416714Y-102485047D02*
X138464333Y-102508856D01*
X138464333Y-102508856D02*
X138559571Y-102508856D01*
X138559571Y-102508856D02*
X138607190Y-102485047D01*
X138607190Y-102485047D02*
X138631000Y-102461237D01*
X138631000Y-102461237D02*
X138654809Y-102413618D01*
X138654809Y-102413618D02*
X138654809Y-102318380D01*
X138654809Y-102318380D02*
X138631000Y-102270761D01*
X138631000Y-102270761D02*
X138607190Y-102246952D01*
X138607190Y-102246952D02*
X138559571Y-102223142D01*
X138559571Y-102223142D02*
X138464333Y-102223142D01*
X138464333Y-102223142D02*
X138416714Y-102246952D01*
X138416714Y-102246952D02*
X138392904Y-102270761D01*
X138392904Y-102270761D02*
X138369095Y-102318380D01*
X152951666Y-96316190D02*
X152927857Y-96340000D01*
X152927857Y-96340000D02*
X152856428Y-96363809D01*
X152856428Y-96363809D02*
X152808809Y-96363809D01*
X152808809Y-96363809D02*
X152737381Y-96340000D01*
X152737381Y-96340000D02*
X152689762Y-96292380D01*
X152689762Y-96292380D02*
X152665952Y-96244761D01*
X152665952Y-96244761D02*
X152642143Y-96149523D01*
X152642143Y-96149523D02*
X152642143Y-96078095D01*
X152642143Y-96078095D02*
X152665952Y-95982857D01*
X152665952Y-95982857D02*
X152689762Y-95935238D01*
X152689762Y-95935238D02*
X152737381Y-95887619D01*
X152737381Y-95887619D02*
X152808809Y-95863809D01*
X152808809Y-95863809D02*
X152856428Y-95863809D01*
X152856428Y-95863809D02*
X152927857Y-95887619D01*
X152927857Y-95887619D02*
X152951666Y-95911428D01*
X153380238Y-96030476D02*
X153380238Y-96363809D01*
X153261190Y-95840000D02*
X153142143Y-96197142D01*
X153142143Y-96197142D02*
X153451666Y-96197142D01*
X158412666Y-91363190D02*
X158388857Y-91387000D01*
X158388857Y-91387000D02*
X158317428Y-91410809D01*
X158317428Y-91410809D02*
X158269809Y-91410809D01*
X158269809Y-91410809D02*
X158198381Y-91387000D01*
X158198381Y-91387000D02*
X158150762Y-91339380D01*
X158150762Y-91339380D02*
X158126952Y-91291761D01*
X158126952Y-91291761D02*
X158103143Y-91196523D01*
X158103143Y-91196523D02*
X158103143Y-91125095D01*
X158103143Y-91125095D02*
X158126952Y-91029857D01*
X158126952Y-91029857D02*
X158150762Y-90982238D01*
X158150762Y-90982238D02*
X158198381Y-90934619D01*
X158198381Y-90934619D02*
X158269809Y-90910809D01*
X158269809Y-90910809D02*
X158317428Y-90910809D01*
X158317428Y-90910809D02*
X158388857Y-90934619D01*
X158388857Y-90934619D02*
X158412666Y-90958428D01*
X158888857Y-91410809D02*
X158603143Y-91410809D01*
X158746000Y-91410809D02*
X158746000Y-90910809D01*
X158746000Y-90910809D02*
X158698381Y-90982238D01*
X158698381Y-90982238D02*
X158650762Y-91029857D01*
X158650762Y-91029857D02*
X158603143Y-91053666D01*
X138108571Y-107492190D02*
X138084762Y-107516000D01*
X138084762Y-107516000D02*
X138013333Y-107539809D01*
X138013333Y-107539809D02*
X137965714Y-107539809D01*
X137965714Y-107539809D02*
X137894286Y-107516000D01*
X137894286Y-107516000D02*
X137846667Y-107468380D01*
X137846667Y-107468380D02*
X137822857Y-107420761D01*
X137822857Y-107420761D02*
X137799048Y-107325523D01*
X137799048Y-107325523D02*
X137799048Y-107254095D01*
X137799048Y-107254095D02*
X137822857Y-107158857D01*
X137822857Y-107158857D02*
X137846667Y-107111238D01*
X137846667Y-107111238D02*
X137894286Y-107063619D01*
X137894286Y-107063619D02*
X137965714Y-107039809D01*
X137965714Y-107039809D02*
X138013333Y-107039809D01*
X138013333Y-107039809D02*
X138084762Y-107063619D01*
X138084762Y-107063619D02*
X138108571Y-107087428D01*
X138299048Y-107087428D02*
X138322857Y-107063619D01*
X138322857Y-107063619D02*
X138370476Y-107039809D01*
X138370476Y-107039809D02*
X138489524Y-107039809D01*
X138489524Y-107039809D02*
X138537143Y-107063619D01*
X138537143Y-107063619D02*
X138560952Y-107087428D01*
X138560952Y-107087428D02*
X138584762Y-107135047D01*
X138584762Y-107135047D02*
X138584762Y-107182666D01*
X138584762Y-107182666D02*
X138560952Y-107254095D01*
X138560952Y-107254095D02*
X138275238Y-107539809D01*
X138275238Y-107539809D02*
X138584762Y-107539809D01*
X139060952Y-107539809D02*
X138775238Y-107539809D01*
X138918095Y-107539809D02*
X138918095Y-107039809D01*
X138918095Y-107039809D02*
X138870476Y-107111238D01*
X138870476Y-107111238D02*
X138822857Y-107158857D01*
X138822857Y-107158857D02*
X138775238Y-107182666D01*
X152967571Y-83743190D02*
X152943762Y-83767000D01*
X152943762Y-83767000D02*
X152872333Y-83790809D01*
X152872333Y-83790809D02*
X152824714Y-83790809D01*
X152824714Y-83790809D02*
X152753286Y-83767000D01*
X152753286Y-83767000D02*
X152705667Y-83719380D01*
X152705667Y-83719380D02*
X152681857Y-83671761D01*
X152681857Y-83671761D02*
X152658048Y-83576523D01*
X152658048Y-83576523D02*
X152658048Y-83505095D01*
X152658048Y-83505095D02*
X152681857Y-83409857D01*
X152681857Y-83409857D02*
X152705667Y-83362238D01*
X152705667Y-83362238D02*
X152753286Y-83314619D01*
X152753286Y-83314619D02*
X152824714Y-83290809D01*
X152824714Y-83290809D02*
X152872333Y-83290809D01*
X152872333Y-83290809D02*
X152943762Y-83314619D01*
X152943762Y-83314619D02*
X152967571Y-83338428D01*
X153158048Y-83338428D02*
X153181857Y-83314619D01*
X153181857Y-83314619D02*
X153229476Y-83290809D01*
X153229476Y-83290809D02*
X153348524Y-83290809D01*
X153348524Y-83290809D02*
X153396143Y-83314619D01*
X153396143Y-83314619D02*
X153419952Y-83338428D01*
X153419952Y-83338428D02*
X153443762Y-83386047D01*
X153443762Y-83386047D02*
X153443762Y-83433666D01*
X153443762Y-83433666D02*
X153419952Y-83505095D01*
X153419952Y-83505095D02*
X153134238Y-83790809D01*
X153134238Y-83790809D02*
X153443762Y-83790809D01*
X153872333Y-83457476D02*
X153872333Y-83790809D01*
X153753285Y-83267000D02*
X153634238Y-83624142D01*
X153634238Y-83624142D02*
X153943761Y-83624142D01*
X135520952Y-97252809D02*
X135520952Y-96752809D01*
X135520952Y-96752809D02*
X135640000Y-96752809D01*
X135640000Y-96752809D02*
X135711428Y-96776619D01*
X135711428Y-96776619D02*
X135759047Y-96824238D01*
X135759047Y-96824238D02*
X135782857Y-96871857D01*
X135782857Y-96871857D02*
X135806666Y-96967095D01*
X135806666Y-96967095D02*
X135806666Y-97038523D01*
X135806666Y-97038523D02*
X135782857Y-97133761D01*
X135782857Y-97133761D02*
X135759047Y-97181380D01*
X135759047Y-97181380D02*
X135711428Y-97229000D01*
X135711428Y-97229000D02*
X135640000Y-97252809D01*
X135640000Y-97252809D02*
X135520952Y-97252809D01*
X135997143Y-96800428D02*
X136020952Y-96776619D01*
X136020952Y-96776619D02*
X136068571Y-96752809D01*
X136068571Y-96752809D02*
X136187619Y-96752809D01*
X136187619Y-96752809D02*
X136235238Y-96776619D01*
X136235238Y-96776619D02*
X136259047Y-96800428D01*
X136259047Y-96800428D02*
X136282857Y-96848047D01*
X136282857Y-96848047D02*
X136282857Y-96895666D01*
X136282857Y-96895666D02*
X136259047Y-96967095D01*
X136259047Y-96967095D02*
X135973333Y-97252809D01*
X135973333Y-97252809D02*
X136282857Y-97252809D01*
X156043334Y-87042904D02*
X155876667Y-87042904D01*
X155876667Y-87304809D02*
X155876667Y-86804809D01*
X155876667Y-86804809D02*
X156114762Y-86804809D01*
X156567143Y-87304809D02*
X156281429Y-87304809D01*
X156424286Y-87304809D02*
X156424286Y-86804809D01*
X156424286Y-86804809D02*
X156376667Y-86876238D01*
X156376667Y-86876238D02*
X156329048Y-86923857D01*
X156329048Y-86923857D02*
X156281429Y-86947666D01*
X142798190Y-91142333D02*
X142822000Y-91166142D01*
X142822000Y-91166142D02*
X142845809Y-91237571D01*
X142845809Y-91237571D02*
X142845809Y-91285190D01*
X142845809Y-91285190D02*
X142822000Y-91356618D01*
X142822000Y-91356618D02*
X142774380Y-91404237D01*
X142774380Y-91404237D02*
X142726761Y-91428047D01*
X142726761Y-91428047D02*
X142631523Y-91451856D01*
X142631523Y-91451856D02*
X142560095Y-91451856D01*
X142560095Y-91451856D02*
X142464857Y-91428047D01*
X142464857Y-91428047D02*
X142417238Y-91404237D01*
X142417238Y-91404237D02*
X142369619Y-91356618D01*
X142369619Y-91356618D02*
X142345809Y-91285190D01*
X142345809Y-91285190D02*
X142345809Y-91237571D01*
X142345809Y-91237571D02*
X142369619Y-91166142D01*
X142369619Y-91166142D02*
X142393428Y-91142333D01*
X142345809Y-90689952D02*
X142345809Y-90928047D01*
X142345809Y-90928047D02*
X142583904Y-90951856D01*
X142583904Y-90951856D02*
X142560095Y-90928047D01*
X142560095Y-90928047D02*
X142536285Y-90880428D01*
X142536285Y-90880428D02*
X142536285Y-90761380D01*
X142536285Y-90761380D02*
X142560095Y-90713761D01*
X142560095Y-90713761D02*
X142583904Y-90689952D01*
X142583904Y-90689952D02*
X142631523Y-90666142D01*
X142631523Y-90666142D02*
X142750571Y-90666142D01*
X142750571Y-90666142D02*
X142798190Y-90689952D01*
X142798190Y-90689952D02*
X142822000Y-90713761D01*
X142822000Y-90713761D02*
X142845809Y-90761380D01*
X142845809Y-90761380D02*
X142845809Y-90880428D01*
X142845809Y-90880428D02*
X142822000Y-90928047D01*
X142822000Y-90928047D02*
X142798190Y-90951856D01*
X148052809Y-91142333D02*
X147814714Y-91308999D01*
X148052809Y-91428047D02*
X147552809Y-91428047D01*
X147552809Y-91428047D02*
X147552809Y-91237571D01*
X147552809Y-91237571D02*
X147576619Y-91189952D01*
X147576619Y-91189952D02*
X147600428Y-91166142D01*
X147600428Y-91166142D02*
X147648047Y-91142333D01*
X147648047Y-91142333D02*
X147719476Y-91142333D01*
X147719476Y-91142333D02*
X147767095Y-91166142D01*
X147767095Y-91166142D02*
X147790904Y-91189952D01*
X147790904Y-91189952D02*
X147814714Y-91237571D01*
X147814714Y-91237571D02*
X147814714Y-91428047D01*
X147719476Y-90713761D02*
X148052809Y-90713761D01*
X147529000Y-90832809D02*
X147886142Y-90951856D01*
X147886142Y-90951856D02*
X147886142Y-90642333D01*
X126619047Y-111324809D02*
X126619047Y-110824809D01*
X126619047Y-111062904D02*
X126904761Y-111062904D01*
X126904761Y-111324809D02*
X126904761Y-110824809D01*
X127095238Y-110824809D02*
X127404762Y-110824809D01*
X127404762Y-110824809D02*
X127238095Y-111015285D01*
X127238095Y-111015285D02*
X127309524Y-111015285D01*
X127309524Y-111015285D02*
X127357143Y-111039095D01*
X127357143Y-111039095D02*
X127380952Y-111062904D01*
X127380952Y-111062904D02*
X127404762Y-111110523D01*
X127404762Y-111110523D02*
X127404762Y-111229571D01*
X127404762Y-111229571D02*
X127380952Y-111277190D01*
X127380952Y-111277190D02*
X127357143Y-111301000D01*
X127357143Y-111301000D02*
X127309524Y-111324809D01*
X127309524Y-111324809D02*
X127166667Y-111324809D01*
X127166667Y-111324809D02*
X127119048Y-111301000D01*
X127119048Y-111301000D02*
X127095238Y-111277190D01*
X155840952Y-97252809D02*
X155840952Y-96752809D01*
X155840952Y-96752809D02*
X155960000Y-96752809D01*
X155960000Y-96752809D02*
X156031428Y-96776619D01*
X156031428Y-96776619D02*
X156079047Y-96824238D01*
X156079047Y-96824238D02*
X156102857Y-96871857D01*
X156102857Y-96871857D02*
X156126666Y-96967095D01*
X156126666Y-96967095D02*
X156126666Y-97038523D01*
X156126666Y-97038523D02*
X156102857Y-97133761D01*
X156102857Y-97133761D02*
X156079047Y-97181380D01*
X156079047Y-97181380D02*
X156031428Y-97229000D01*
X156031428Y-97229000D02*
X155960000Y-97252809D01*
X155960000Y-97252809D02*
X155840952Y-97252809D01*
X156579047Y-96752809D02*
X156340952Y-96752809D01*
X156340952Y-96752809D02*
X156317143Y-96990904D01*
X156317143Y-96990904D02*
X156340952Y-96967095D01*
X156340952Y-96967095D02*
X156388571Y-96943285D01*
X156388571Y-96943285D02*
X156507619Y-96943285D01*
X156507619Y-96943285D02*
X156555238Y-96967095D01*
X156555238Y-96967095D02*
X156579047Y-96990904D01*
X156579047Y-96990904D02*
X156602857Y-97038523D01*
X156602857Y-97038523D02*
X156602857Y-97157571D01*
X156602857Y-97157571D02*
X156579047Y-97205190D01*
X156579047Y-97205190D02*
X156555238Y-97229000D01*
X156555238Y-97229000D02*
X156507619Y-97252809D01*
X156507619Y-97252809D02*
X156388571Y-97252809D01*
X156388571Y-97252809D02*
X156340952Y-97229000D01*
X156340952Y-97229000D02*
X156317143Y-97205190D01*
X145669047Y-96752809D02*
X145669047Y-97157571D01*
X145669047Y-97157571D02*
X145692857Y-97205190D01*
X145692857Y-97205190D02*
X145716666Y-97229000D01*
X145716666Y-97229000D02*
X145764285Y-97252809D01*
X145764285Y-97252809D02*
X145859523Y-97252809D01*
X145859523Y-97252809D02*
X145907142Y-97229000D01*
X145907142Y-97229000D02*
X145930952Y-97205190D01*
X145930952Y-97205190D02*
X145954761Y-97157571D01*
X145954761Y-97157571D02*
X145954761Y-96752809D01*
X146145238Y-96752809D02*
X146454762Y-96752809D01*
X146454762Y-96752809D02*
X146288095Y-96943285D01*
X146288095Y-96943285D02*
X146359524Y-96943285D01*
X146359524Y-96943285D02*
X146407143Y-96967095D01*
X146407143Y-96967095D02*
X146430952Y-96990904D01*
X146430952Y-96990904D02*
X146454762Y-97038523D01*
X146454762Y-97038523D02*
X146454762Y-97157571D01*
X146454762Y-97157571D02*
X146430952Y-97205190D01*
X146430952Y-97205190D02*
X146407143Y-97229000D01*
X146407143Y-97229000D02*
X146359524Y-97252809D01*
X146359524Y-97252809D02*
X146216667Y-97252809D01*
X146216667Y-97252809D02*
X146169048Y-97229000D01*
X146169048Y-97229000D02*
X146145238Y-97205190D01*
X155829047Y-95863809D02*
X155829047Y-96268571D01*
X155829047Y-96268571D02*
X155852857Y-96316190D01*
X155852857Y-96316190D02*
X155876666Y-96340000D01*
X155876666Y-96340000D02*
X155924285Y-96363809D01*
X155924285Y-96363809D02*
X156019523Y-96363809D01*
X156019523Y-96363809D02*
X156067142Y-96340000D01*
X156067142Y-96340000D02*
X156090952Y-96316190D01*
X156090952Y-96316190D02*
X156114761Y-96268571D01*
X156114761Y-96268571D02*
X156114761Y-95863809D01*
X156567143Y-95863809D02*
X156471905Y-95863809D01*
X156471905Y-95863809D02*
X156424286Y-95887619D01*
X156424286Y-95887619D02*
X156400476Y-95911428D01*
X156400476Y-95911428D02*
X156352857Y-95982857D01*
X156352857Y-95982857D02*
X156329048Y-96078095D01*
X156329048Y-96078095D02*
X156329048Y-96268571D01*
X156329048Y-96268571D02*
X156352857Y-96316190D01*
X156352857Y-96316190D02*
X156376667Y-96340000D01*
X156376667Y-96340000D02*
X156424286Y-96363809D01*
X156424286Y-96363809D02*
X156519524Y-96363809D01*
X156519524Y-96363809D02*
X156567143Y-96340000D01*
X156567143Y-96340000D02*
X156590952Y-96316190D01*
X156590952Y-96316190D02*
X156614762Y-96268571D01*
X156614762Y-96268571D02*
X156614762Y-96149523D01*
X156614762Y-96149523D02*
X156590952Y-96101904D01*
X156590952Y-96101904D02*
X156567143Y-96078095D01*
X156567143Y-96078095D02*
X156519524Y-96054285D01*
X156519524Y-96054285D02*
X156424286Y-96054285D01*
X156424286Y-96054285D02*
X156376667Y-96078095D01*
X156376667Y-96078095D02*
X156352857Y-96101904D01*
X156352857Y-96101904D02*
X156329048Y-96149523D01*
X147204952Y-89632809D02*
X147204952Y-89132809D01*
X147204952Y-89132809D02*
X147324000Y-89132809D01*
X147324000Y-89132809D02*
X147395428Y-89156619D01*
X147395428Y-89156619D02*
X147443047Y-89204238D01*
X147443047Y-89204238D02*
X147466857Y-89251857D01*
X147466857Y-89251857D02*
X147490666Y-89347095D01*
X147490666Y-89347095D02*
X147490666Y-89418523D01*
X147490666Y-89418523D02*
X147466857Y-89513761D01*
X147466857Y-89513761D02*
X147443047Y-89561380D01*
X147443047Y-89561380D02*
X147395428Y-89609000D01*
X147395428Y-89609000D02*
X147324000Y-89632809D01*
X147324000Y-89632809D02*
X147204952Y-89632809D01*
X147657333Y-89132809D02*
X147990666Y-89132809D01*
X147990666Y-89132809D02*
X147776381Y-89632809D01*
X126619047Y-93544809D02*
X126619047Y-93044809D01*
X126619047Y-93282904D02*
X126904761Y-93282904D01*
X126904761Y-93544809D02*
X126904761Y-93044809D01*
X127404762Y-93544809D02*
X127119048Y-93544809D01*
X127261905Y-93544809D02*
X127261905Y-93044809D01*
X127261905Y-93044809D02*
X127214286Y-93116238D01*
X127214286Y-93116238D02*
X127166667Y-93163857D01*
X127166667Y-93163857D02*
X127119048Y-93187666D01*
X155840952Y-82012809D02*
X155840952Y-81512809D01*
X155840952Y-81512809D02*
X155960000Y-81512809D01*
X155960000Y-81512809D02*
X156031428Y-81536619D01*
X156031428Y-81536619D02*
X156079047Y-81584238D01*
X156079047Y-81584238D02*
X156102857Y-81631857D01*
X156102857Y-81631857D02*
X156126666Y-81727095D01*
X156126666Y-81727095D02*
X156126666Y-81798523D01*
X156126666Y-81798523D02*
X156102857Y-81893761D01*
X156102857Y-81893761D02*
X156079047Y-81941380D01*
X156079047Y-81941380D02*
X156031428Y-81989000D01*
X156031428Y-81989000D02*
X155960000Y-82012809D01*
X155960000Y-82012809D02*
X155840952Y-82012809D01*
X156555238Y-81679476D02*
X156555238Y-82012809D01*
X156436190Y-81489000D02*
X156317143Y-81846142D01*
X156317143Y-81846142D02*
X156626666Y-81846142D01*
X143814190Y-91142333D02*
X143838000Y-91166142D01*
X143838000Y-91166142D02*
X143861809Y-91237571D01*
X143861809Y-91237571D02*
X143861809Y-91285190D01*
X143861809Y-91285190D02*
X143838000Y-91356618D01*
X143838000Y-91356618D02*
X143790380Y-91404237D01*
X143790380Y-91404237D02*
X143742761Y-91428047D01*
X143742761Y-91428047D02*
X143647523Y-91451856D01*
X143647523Y-91451856D02*
X143576095Y-91451856D01*
X143576095Y-91451856D02*
X143480857Y-91428047D01*
X143480857Y-91428047D02*
X143433238Y-91404237D01*
X143433238Y-91404237D02*
X143385619Y-91356618D01*
X143385619Y-91356618D02*
X143361809Y-91285190D01*
X143361809Y-91285190D02*
X143361809Y-91237571D01*
X143361809Y-91237571D02*
X143385619Y-91166142D01*
X143385619Y-91166142D02*
X143409428Y-91142333D01*
X143361809Y-90975666D02*
X143361809Y-90642333D01*
X143361809Y-90642333D02*
X143861809Y-90856618D01*
X132341000Y-92716665D02*
X132364809Y-92645237D01*
X132364809Y-92645237D02*
X132364809Y-92526189D01*
X132364809Y-92526189D02*
X132341000Y-92478570D01*
X132341000Y-92478570D02*
X132317190Y-92454761D01*
X132317190Y-92454761D02*
X132269571Y-92430951D01*
X132269571Y-92430951D02*
X132221952Y-92430951D01*
X132221952Y-92430951D02*
X132174333Y-92454761D01*
X132174333Y-92454761D02*
X132150523Y-92478570D01*
X132150523Y-92478570D02*
X132126714Y-92526189D01*
X132126714Y-92526189D02*
X132102904Y-92621427D01*
X132102904Y-92621427D02*
X132079095Y-92669046D01*
X132079095Y-92669046D02*
X132055285Y-92692856D01*
X132055285Y-92692856D02*
X132007666Y-92716665D01*
X132007666Y-92716665D02*
X131960047Y-92716665D01*
X131960047Y-92716665D02*
X131912428Y-92692856D01*
X131912428Y-92692856D02*
X131888619Y-92669046D01*
X131888619Y-92669046D02*
X131864809Y-92621427D01*
X131864809Y-92621427D02*
X131864809Y-92502380D01*
X131864809Y-92502380D02*
X131888619Y-92430951D01*
X131864809Y-92264285D02*
X132364809Y-92145237D01*
X132364809Y-92145237D02*
X132007666Y-92049999D01*
X132007666Y-92049999D02*
X132364809Y-91954761D01*
X132364809Y-91954761D02*
X131864809Y-91835714D01*
X132364809Y-91383332D02*
X132364809Y-91669046D01*
X132364809Y-91526189D02*
X131864809Y-91526189D01*
X131864809Y-91526189D02*
X131936238Y-91573808D01*
X131936238Y-91573808D02*
X131983857Y-91621427D01*
X131983857Y-91621427D02*
X132007666Y-91669046D01*
X146909809Y-91142333D02*
X146671714Y-91308999D01*
X146909809Y-91428047D02*
X146409809Y-91428047D01*
X146409809Y-91428047D02*
X146409809Y-91237571D01*
X146409809Y-91237571D02*
X146433619Y-91189952D01*
X146433619Y-91189952D02*
X146457428Y-91166142D01*
X146457428Y-91166142D02*
X146505047Y-91142333D01*
X146505047Y-91142333D02*
X146576476Y-91142333D01*
X146576476Y-91142333D02*
X146624095Y-91166142D01*
X146624095Y-91166142D02*
X146647904Y-91189952D01*
X146647904Y-91189952D02*
X146671714Y-91237571D01*
X146671714Y-91237571D02*
X146671714Y-91428047D01*
X146409809Y-90975666D02*
X146409809Y-90666142D01*
X146409809Y-90666142D02*
X146600285Y-90832809D01*
X146600285Y-90832809D02*
X146600285Y-90761380D01*
X146600285Y-90761380D02*
X146624095Y-90713761D01*
X146624095Y-90713761D02*
X146647904Y-90689952D01*
X146647904Y-90689952D02*
X146695523Y-90666142D01*
X146695523Y-90666142D02*
X146814571Y-90666142D01*
X146814571Y-90666142D02*
X146862190Y-90689952D01*
X146862190Y-90689952D02*
X146886000Y-90713761D01*
X146886000Y-90713761D02*
X146909809Y-90761380D01*
X146909809Y-90761380D02*
X146909809Y-90904237D01*
X146909809Y-90904237D02*
X146886000Y-90951856D01*
X146886000Y-90951856D02*
X146862190Y-90975666D01*
X151942190Y-102921428D02*
X151966000Y-102945237D01*
X151966000Y-102945237D02*
X151989809Y-103016666D01*
X151989809Y-103016666D02*
X151989809Y-103064285D01*
X151989809Y-103064285D02*
X151966000Y-103135713D01*
X151966000Y-103135713D02*
X151918380Y-103183332D01*
X151918380Y-103183332D02*
X151870761Y-103207142D01*
X151870761Y-103207142D02*
X151775523Y-103230951D01*
X151775523Y-103230951D02*
X151704095Y-103230951D01*
X151704095Y-103230951D02*
X151608857Y-103207142D01*
X151608857Y-103207142D02*
X151561238Y-103183332D01*
X151561238Y-103183332D02*
X151513619Y-103135713D01*
X151513619Y-103135713D02*
X151489809Y-103064285D01*
X151489809Y-103064285D02*
X151489809Y-103016666D01*
X151489809Y-103016666D02*
X151513619Y-102945237D01*
X151513619Y-102945237D02*
X151537428Y-102921428D01*
X151989809Y-102445237D02*
X151989809Y-102730951D01*
X151989809Y-102588094D02*
X151489809Y-102588094D01*
X151489809Y-102588094D02*
X151561238Y-102635713D01*
X151561238Y-102635713D02*
X151608857Y-102683332D01*
X151608857Y-102683332D02*
X151632666Y-102730951D01*
X151489809Y-102278571D02*
X151489809Y-101969047D01*
X151489809Y-101969047D02*
X151680285Y-102135714D01*
X151680285Y-102135714D02*
X151680285Y-102064285D01*
X151680285Y-102064285D02*
X151704095Y-102016666D01*
X151704095Y-102016666D02*
X151727904Y-101992857D01*
X151727904Y-101992857D02*
X151775523Y-101969047D01*
X151775523Y-101969047D02*
X151894571Y-101969047D01*
X151894571Y-101969047D02*
X151942190Y-101992857D01*
X151942190Y-101992857D02*
X151966000Y-102016666D01*
X151966000Y-102016666D02*
X151989809Y-102064285D01*
X151989809Y-102064285D02*
X151989809Y-102207142D01*
X151989809Y-102207142D02*
X151966000Y-102254761D01*
X151966000Y-102254761D02*
X151942190Y-102278571D01*
X153894809Y-104477333D02*
X153656714Y-104643999D01*
X153894809Y-104763047D02*
X153394809Y-104763047D01*
X153394809Y-104763047D02*
X153394809Y-104572571D01*
X153394809Y-104572571D02*
X153418619Y-104524952D01*
X153418619Y-104524952D02*
X153442428Y-104501142D01*
X153442428Y-104501142D02*
X153490047Y-104477333D01*
X153490047Y-104477333D02*
X153561476Y-104477333D01*
X153561476Y-104477333D02*
X153609095Y-104501142D01*
X153609095Y-104501142D02*
X153632904Y-104524952D01*
X153632904Y-104524952D02*
X153656714Y-104572571D01*
X153656714Y-104572571D02*
X153656714Y-104763047D01*
X153394809Y-104310666D02*
X153394809Y-103977333D01*
X153394809Y-103977333D02*
X153894809Y-104191618D01*
X148379666Y-108428809D02*
X148213000Y-108190714D01*
X148093952Y-108428809D02*
X148093952Y-107928809D01*
X148093952Y-107928809D02*
X148284428Y-107928809D01*
X148284428Y-107928809D02*
X148332047Y-107952619D01*
X148332047Y-107952619D02*
X148355857Y-107976428D01*
X148355857Y-107976428D02*
X148379666Y-108024047D01*
X148379666Y-108024047D02*
X148379666Y-108095476D01*
X148379666Y-108095476D02*
X148355857Y-108143095D01*
X148355857Y-108143095D02*
X148332047Y-108166904D01*
X148332047Y-108166904D02*
X148284428Y-108190714D01*
X148284428Y-108190714D02*
X148093952Y-108190714D01*
X148832047Y-107928809D02*
X148593952Y-107928809D01*
X148593952Y-107928809D02*
X148570143Y-108166904D01*
X148570143Y-108166904D02*
X148593952Y-108143095D01*
X148593952Y-108143095D02*
X148641571Y-108119285D01*
X148641571Y-108119285D02*
X148760619Y-108119285D01*
X148760619Y-108119285D02*
X148808238Y-108143095D01*
X148808238Y-108143095D02*
X148832047Y-108166904D01*
X148832047Y-108166904D02*
X148855857Y-108214523D01*
X148855857Y-108214523D02*
X148855857Y-108333571D01*
X148855857Y-108333571D02*
X148832047Y-108381190D01*
X148832047Y-108381190D02*
X148808238Y-108405000D01*
X148808238Y-108405000D02*
X148760619Y-108428809D01*
X148760619Y-108428809D02*
X148641571Y-108428809D01*
X148641571Y-108428809D02*
X148593952Y-108405000D01*
X148593952Y-108405000D02*
X148570143Y-108381190D01*
X148506666Y-87854809D02*
X148340000Y-87616714D01*
X148220952Y-87854809D02*
X148220952Y-87354809D01*
X148220952Y-87354809D02*
X148411428Y-87354809D01*
X148411428Y-87354809D02*
X148459047Y-87378619D01*
X148459047Y-87378619D02*
X148482857Y-87402428D01*
X148482857Y-87402428D02*
X148506666Y-87450047D01*
X148506666Y-87450047D02*
X148506666Y-87521476D01*
X148506666Y-87521476D02*
X148482857Y-87569095D01*
X148482857Y-87569095D02*
X148459047Y-87592904D01*
X148459047Y-87592904D02*
X148411428Y-87616714D01*
X148411428Y-87616714D02*
X148220952Y-87616714D01*
X148697143Y-87402428D02*
X148720952Y-87378619D01*
X148720952Y-87378619D02*
X148768571Y-87354809D01*
X148768571Y-87354809D02*
X148887619Y-87354809D01*
X148887619Y-87354809D02*
X148935238Y-87378619D01*
X148935238Y-87378619D02*
X148959047Y-87402428D01*
X148959047Y-87402428D02*
X148982857Y-87450047D01*
X148982857Y-87450047D02*
X148982857Y-87497666D01*
X148982857Y-87497666D02*
X148959047Y-87569095D01*
X148959047Y-87569095D02*
X148673333Y-87854809D01*
X148673333Y-87854809D02*
X148982857Y-87854809D01*
X139623190Y-102683428D02*
X139647000Y-102707237D01*
X139647000Y-102707237D02*
X139670809Y-102778666D01*
X139670809Y-102778666D02*
X139670809Y-102826285D01*
X139670809Y-102826285D02*
X139647000Y-102897713D01*
X139647000Y-102897713D02*
X139599380Y-102945332D01*
X139599380Y-102945332D02*
X139551761Y-102969142D01*
X139551761Y-102969142D02*
X139456523Y-102992951D01*
X139456523Y-102992951D02*
X139385095Y-102992951D01*
X139385095Y-102992951D02*
X139289857Y-102969142D01*
X139289857Y-102969142D02*
X139242238Y-102945332D01*
X139242238Y-102945332D02*
X139194619Y-102897713D01*
X139194619Y-102897713D02*
X139170809Y-102826285D01*
X139170809Y-102826285D02*
X139170809Y-102778666D01*
X139170809Y-102778666D02*
X139194619Y-102707237D01*
X139194619Y-102707237D02*
X139218428Y-102683428D01*
X139670809Y-102207237D02*
X139670809Y-102492951D01*
X139670809Y-102350094D02*
X139170809Y-102350094D01*
X139170809Y-102350094D02*
X139242238Y-102397713D01*
X139242238Y-102397713D02*
X139289857Y-102445332D01*
X139289857Y-102445332D02*
X139313666Y-102492951D01*
X139385095Y-101921523D02*
X139361285Y-101969142D01*
X139361285Y-101969142D02*
X139337476Y-101992952D01*
X139337476Y-101992952D02*
X139289857Y-102016761D01*
X139289857Y-102016761D02*
X139266047Y-102016761D01*
X139266047Y-102016761D02*
X139218428Y-101992952D01*
X139218428Y-101992952D02*
X139194619Y-101969142D01*
X139194619Y-101969142D02*
X139170809Y-101921523D01*
X139170809Y-101921523D02*
X139170809Y-101826285D01*
X139170809Y-101826285D02*
X139194619Y-101778666D01*
X139194619Y-101778666D02*
X139218428Y-101754857D01*
X139218428Y-101754857D02*
X139266047Y-101731047D01*
X139266047Y-101731047D02*
X139289857Y-101731047D01*
X139289857Y-101731047D02*
X139337476Y-101754857D01*
X139337476Y-101754857D02*
X139361285Y-101778666D01*
X139361285Y-101778666D02*
X139385095Y-101826285D01*
X139385095Y-101826285D02*
X139385095Y-101921523D01*
X139385095Y-101921523D02*
X139408904Y-101969142D01*
X139408904Y-101969142D02*
X139432714Y-101992952D01*
X139432714Y-101992952D02*
X139480333Y-102016761D01*
X139480333Y-102016761D02*
X139575571Y-102016761D01*
X139575571Y-102016761D02*
X139623190Y-101992952D01*
X139623190Y-101992952D02*
X139647000Y-101969142D01*
X139647000Y-101969142D02*
X139670809Y-101921523D01*
X139670809Y-101921523D02*
X139670809Y-101826285D01*
X139670809Y-101826285D02*
X139647000Y-101778666D01*
X139647000Y-101778666D02*
X139623190Y-101754857D01*
X139623190Y-101754857D02*
X139575571Y-101731047D01*
X139575571Y-101731047D02*
X139480333Y-101731047D01*
X139480333Y-101731047D02*
X139432714Y-101754857D01*
X139432714Y-101754857D02*
X139408904Y-101778666D01*
X139408904Y-101778666D02*
X139385095Y-101826285D01*
X135509047Y-107293809D02*
X135509047Y-107698571D01*
X135509047Y-107698571D02*
X135532857Y-107746190D01*
X135532857Y-107746190D02*
X135556666Y-107770000D01*
X135556666Y-107770000D02*
X135604285Y-107793809D01*
X135604285Y-107793809D02*
X135699523Y-107793809D01*
X135699523Y-107793809D02*
X135747142Y-107770000D01*
X135747142Y-107770000D02*
X135770952Y-107746190D01*
X135770952Y-107746190D02*
X135794761Y-107698571D01*
X135794761Y-107698571D02*
X135794761Y-107293809D01*
X136247143Y-107460476D02*
X136247143Y-107793809D01*
X136128095Y-107270000D02*
X136009048Y-107627142D01*
X136009048Y-107627142D02*
X136318571Y-107627142D01*
%TO.C,D1*%
D12*
X140090000Y-109490000D02*
X139190000Y-108590000D01*
X140090000Y-108590000D01*
X140090000Y-109490000D01*
G36*
X140090000Y-109490000D02*
G01*
X139190000Y-108590000D01*
X140090000Y-108590000D01*
X140090000Y-109490000D01*
G37*
%TO.C,D6*%
X160410000Y-109490000D02*
X159510000Y-108590000D01*
X160410000Y-108590000D01*
X160410000Y-109490000D01*
G36*
X160410000Y-109490000D02*
G01*
X159510000Y-108590000D01*
X160410000Y-108590000D01*
X160410000Y-109490000D01*
G37*
D13*
%TO.C,C8*%
X148280800Y-96018236D02*
X148280800Y-95802564D01*
X149000800Y-96018236D02*
X149000800Y-95802564D01*
%TO.C,C23*%
X138917000Y-83938164D02*
X138917000Y-84153836D01*
X138197000Y-83938164D02*
X138197000Y-84153836D01*
%TO.C,C9*%
X140991000Y-102215836D02*
X140991000Y-102000164D01*
X141711000Y-102215836D02*
X141711000Y-102000164D01*
%TO.C,C26*%
X151519836Y-111612000D02*
X151304164Y-111612000D01*
X151519836Y-110892000D02*
X151304164Y-110892000D01*
%TO.C,C27*%
X148990164Y-106955000D02*
X149205836Y-106955000D01*
X148990164Y-107675000D02*
X149205836Y-107675000D01*
%TO.C,Y1*%
X148050000Y-112140000D02*
X148050000Y-108840000D01*
X148050000Y-108840000D02*
X144050000Y-108840000D01*
%TO.C,C25*%
X153903000Y-100956164D02*
X153903000Y-101171836D01*
X153183000Y-100956164D02*
X153183000Y-101171836D01*
%TO.C,C14*%
X145309000Y-93325836D02*
X145309000Y-93110164D01*
X146029000Y-93325836D02*
X146029000Y-93110164D01*
%TO.C,C6*%
X148990164Y-105939000D02*
X149205836Y-105939000D01*
X148990164Y-106659000D02*
X149205836Y-106659000D01*
%TO.C,R6*%
X143003000Y-87275641D02*
X143003000Y-86968359D01*
X143763000Y-87275641D02*
X143763000Y-86968359D01*
%TO.C,J3*%
X150750000Y-82545000D02*
X150750000Y-80545000D01*
X150750000Y-78645000D02*
X150750000Y-76745000D01*
X150750000Y-76745000D02*
X141350000Y-76745000D01*
X141350000Y-82545000D02*
X141350000Y-80545000D01*
X141350000Y-78645000D02*
X141350000Y-76745000D01*
%TO.C,U5*%
X156210000Y-103850000D02*
X154535000Y-103850000D01*
X156210000Y-103850000D02*
X156860000Y-103850000D01*
X156210000Y-106970000D02*
X155560000Y-106970000D01*
X156210000Y-106970000D02*
X156860000Y-106970000D01*
%TO.C,C10*%
X149296800Y-96018236D02*
X149296800Y-95802564D01*
X150016800Y-96018236D02*
X150016800Y-95802564D01*
%TO.C,C11*%
X150312800Y-96018236D02*
X150312800Y-95802564D01*
X151032800Y-96018236D02*
X151032800Y-95802564D01*
%TO.C,D3*%
X133890000Y-82505000D02*
X137890000Y-82505000D01*
X133890000Y-86405000D02*
X137890000Y-86392500D01*
X137890000Y-86392500D02*
X137890000Y-85317500D01*
%TO.C,C17*%
X153014000Y-105681164D02*
X153014000Y-105896836D01*
X152294000Y-105681164D02*
X152294000Y-105896836D01*
%TO.C,C2*%
X145141836Y-108564000D02*
X144926164Y-108564000D01*
X145141836Y-107844000D02*
X144926164Y-107844000D01*
%TO.C,C19*%
X131212000Y-110879836D02*
X131212000Y-110664164D01*
X131932000Y-110879836D02*
X131932000Y-110664164D01*
D14*
%TO.C,IC1*%
X140134000Y-94104000D02*
G75*
G03*
X140134000Y-94104000I-125000J0D01*
G01*
D13*
%TO.C,R1*%
X140869641Y-92963000D02*
X140562359Y-92963000D01*
X140869641Y-92203000D02*
X140562359Y-92203000D01*
%TO.C,C12*%
X151022164Y-98700000D02*
X151237836Y-98700000D01*
X151022164Y-99420000D02*
X151237836Y-99420000D01*
%TO.C,C15*%
X144293000Y-93325836D02*
X144293000Y-93110164D01*
X145013000Y-93325836D02*
X145013000Y-93110164D01*
%TO.C,C20*%
X138197000Y-98433836D02*
X138197000Y-98218164D01*
X138917000Y-98433836D02*
X138917000Y-98218164D01*
%TO.C,C16*%
X141077836Y-99547000D02*
X140862164Y-99547000D01*
X141077836Y-98827000D02*
X140862164Y-98827000D01*
%TO.C,C22*%
X155644964Y-102814800D02*
X155860636Y-102814800D01*
X155644964Y-103534800D02*
X155860636Y-103534800D01*
%TO.C,RLED1*%
X139828000Y-110895641D02*
X139828000Y-110588359D01*
X140588000Y-110895641D02*
X140588000Y-110588359D01*
%TO.C,C3*%
X149077000Y-110128164D02*
X149077000Y-110343836D01*
X148357000Y-110128164D02*
X148357000Y-110343836D01*
%TO.C,R8*%
X138050000Y-104164641D02*
X138050000Y-103857359D01*
X138810000Y-104164641D02*
X138810000Y-103857359D01*
%TO.C,C4*%
X152372602Y-94241249D02*
X152372602Y-93718745D01*
X153842602Y-94241249D02*
X153842602Y-93718745D01*
%TO.C,C1*%
X156416853Y-91920999D02*
X155894349Y-91920999D01*
X156416853Y-90450999D02*
X155894349Y-90450999D01*
%TO.C,C21*%
X138703164Y-106066000D02*
X138918836Y-106066000D01*
X138703164Y-106786000D02*
X138918836Y-106786000D01*
%TO.C,C24*%
X153183000Y-84971836D02*
X153183000Y-84756164D01*
X153903000Y-84971836D02*
X153903000Y-84756164D01*
%TO.C,R9*%
X140608164Y-93239000D02*
X140823836Y-93239000D01*
X140608164Y-93959000D02*
X140823836Y-93959000D01*
%TO.C,D2*%
X133890000Y-97745000D02*
X137890000Y-97745000D01*
X133890000Y-101645000D02*
X137890000Y-101632500D01*
X137890000Y-101632500D02*
X137890000Y-100557500D01*
%TO.C,F1*%
X155607936Y-87990000D02*
X156812064Y-87990000D01*
X155607936Y-89810000D02*
X156812064Y-89810000D01*
%TO.C,C5*%
X142261000Y-93325836D02*
X142261000Y-93110164D01*
X142981000Y-93325836D02*
X142981000Y-93110164D01*
%TO.C,R4*%
X148208000Y-93064359D02*
X148208000Y-93371641D01*
X147448000Y-93064359D02*
X147448000Y-93371641D01*
%TO.C,D5*%
X158210000Y-101645000D02*
X154210000Y-101645000D01*
X158210000Y-97745000D02*
X154210000Y-97757500D01*
X154210000Y-97757500D02*
X154210000Y-98832500D01*
%TO.C,U3*%
X142440000Y-105210000D02*
X142440000Y-104560000D01*
X143090000Y-97990000D02*
X142440000Y-97990000D01*
X143090000Y-105210000D02*
X142440000Y-105210000D01*
X149010000Y-97990000D02*
X149660000Y-97990000D01*
X149010000Y-105210000D02*
X149660000Y-105210000D01*
X149660000Y-97990000D02*
X149660000Y-98640000D01*
X149660000Y-105210000D02*
X149660000Y-104560000D01*
%TO.C,U6*%
X156210000Y-95540000D02*
X158010000Y-95540000D01*
X156210000Y-95540000D02*
X155410000Y-95540000D01*
X156210000Y-92420000D02*
X157010000Y-92420000D01*
X156210000Y-92420000D02*
X155410000Y-92420000D01*
%TO.C,D7*%
X144892000Y-89444000D02*
X146192000Y-89444000D01*
X146192000Y-86324000D02*
X144192000Y-86324000D01*
%TO.C,D4*%
X158210000Y-86405000D02*
X154210000Y-86405000D01*
X158210000Y-82505000D02*
X154210000Y-82517500D01*
X154210000Y-82517500D02*
X154210000Y-83592500D01*
%TO.C,C7*%
X143277000Y-93325836D02*
X143277000Y-93110164D01*
X143997000Y-93325836D02*
X143997000Y-93110164D01*
%TO.C,SW1*%
X134890000Y-94800000D02*
X136890000Y-94800000D01*
X133590000Y-93750000D02*
X133140000Y-93300000D01*
X138190000Y-93750000D02*
X138640000Y-93300000D01*
X133140000Y-93300000D02*
X133140000Y-90800000D01*
X138640000Y-93300000D02*
X138640000Y-90800000D01*
X133590000Y-90350000D02*
X133140000Y-90800000D01*
X138190000Y-90350000D02*
X138640000Y-90800000D01*
X134890000Y-89300000D02*
X136890000Y-89300000D01*
%TO.C,R3*%
X147065000Y-93064359D02*
X147065000Y-93371641D01*
X146305000Y-93064359D02*
X146305000Y-93371641D01*
%TO.C,C13*%
X150389000Y-102215836D02*
X150389000Y-102000164D01*
X151109000Y-102215836D02*
X151109000Y-102000164D01*
%TO.C,R7*%
X153290000Y-105942641D02*
X153290000Y-105635359D01*
X154050000Y-105942641D02*
X154050000Y-105635359D01*
%TO.C,R5*%
X146912359Y-107824000D02*
X147219641Y-107824000D01*
X146912359Y-108584000D02*
X147219641Y-108584000D01*
%TO.C,R2*%
X147321000Y-87275641D02*
X147321000Y-86968359D01*
X148081000Y-87275641D02*
X148081000Y-86968359D01*
%TO.C,C18*%
X139806000Y-103905164D02*
X139806000Y-104120836D01*
X139086000Y-103905164D02*
X139086000Y-104120836D01*
%TO.C,U4*%
X135890000Y-106970000D02*
X137565000Y-106970000D01*
X135890000Y-106970000D02*
X135240000Y-106970000D01*
X135890000Y-103850000D02*
X136540000Y-103850000D01*
X135890000Y-103850000D02*
X135240000Y-103850000D01*
%TD*%
%LPC*%
D15*
%TO.C,D1*%
X133290000Y-111240000D03*
X133290000Y-109740000D03*
X138490000Y-109740000D03*
X138490000Y-111240000D03*
%TD*%
%TO.C,D6*%
X153610000Y-111240000D03*
X153610000Y-109740000D03*
X158810000Y-109740000D03*
X158810000Y-111240000D03*
%TD*%
D16*
%TO.C,C8*%
X148640800Y-96390400D03*
X148640800Y-95430400D03*
%TD*%
D17*
%TO.C,C23*%
X138557000Y-83566000D03*
X138557000Y-84526000D03*
%TD*%
D16*
%TO.C,C9*%
X141351000Y-102588000D03*
X141351000Y-101628000D03*
%TD*%
D18*
%TO.C,C26*%
X151892000Y-111252000D03*
X150932000Y-111252000D03*
%TD*%
D19*
%TO.C,C27*%
X148618000Y-107315000D03*
X149578000Y-107315000D03*
%TD*%
D20*
%TO.C,Y1*%
X147150000Y-109640000D03*
X144950000Y-109640000D03*
X144950000Y-111340000D03*
X147150000Y-111340000D03*
%TD*%
D17*
%TO.C,C25*%
X153543000Y-100584000D03*
X153543000Y-101544000D03*
%TD*%
D16*
%TO.C,C14*%
X145669000Y-93698000D03*
X145669000Y-92738000D03*
%TD*%
D19*
%TO.C,C6*%
X148618000Y-106299000D03*
X149578000Y-106299000D03*
%TD*%
D21*
%TO.C,R6*%
X143383000Y-87632000D03*
X143383000Y-86612000D03*
%TD*%
D22*
%TO.C,J3*%
X148940000Y-83245000D03*
X143160000Y-83245000D03*
D23*
X149300000Y-84690000D03*
X148500000Y-84690000D03*
D24*
X147300000Y-84690000D03*
X146300000Y-84690000D03*
X145800000Y-84690000D03*
X144800000Y-84690000D03*
D23*
X143600000Y-84690000D03*
X142800000Y-84690000D03*
X142800000Y-84690000D03*
X143600000Y-84690000D03*
D24*
X144300000Y-84690000D03*
X145300000Y-84690000D03*
X146800000Y-84690000D03*
X147800000Y-84690000D03*
D23*
X148500000Y-84690000D03*
X149300000Y-84690000D03*
D25*
X150370000Y-83775000D03*
D26*
X150370000Y-79595000D03*
D25*
X141730000Y-83775000D03*
D26*
X141730000Y-79595000D03*
%TD*%
D27*
%TO.C,H2*%
X165100000Y-96520000D03*
%TD*%
D28*
%TO.C,U5*%
X155272500Y-104460000D03*
X155272500Y-106360000D03*
X157147500Y-105410000D03*
%TD*%
D16*
%TO.C,C10*%
X149656800Y-96390400D03*
X149656800Y-95430400D03*
%TD*%
%TO.C,C11*%
X150672800Y-96390400D03*
X150672800Y-95430400D03*
%TD*%
D29*
%TO.C,D3*%
X137190000Y-85330000D03*
X137190000Y-83555000D03*
X134590000Y-83580000D03*
X134590000Y-85330000D03*
%TD*%
D17*
%TO.C,C17*%
X152654000Y-105309000D03*
X152654000Y-106269000D03*
%TD*%
D18*
%TO.C,C2*%
X145514000Y-108204000D03*
X144554000Y-108204000D03*
%TD*%
D16*
%TO.C,C19*%
X131572000Y-111252000D03*
X131572000Y-110292000D03*
%TD*%
D30*
%TO.C,IC1*%
X140459000Y-94754000D03*
X140459000Y-95254000D03*
X140459000Y-95754000D03*
X140459000Y-96254000D03*
X143259000Y-96254000D03*
X143259000Y-95754000D03*
X143259000Y-95254000D03*
X143259000Y-94754000D03*
D31*
X141859000Y-95504000D03*
%TD*%
D32*
%TO.C,R1*%
X141226000Y-92583000D03*
X140206000Y-92583000D03*
%TD*%
D27*
%TO.C,H4*%
X165100000Y-114300000D03*
%TD*%
D19*
%TO.C,C12*%
X150650000Y-99060000D03*
X151610000Y-99060000D03*
%TD*%
D16*
%TO.C,C15*%
X144653000Y-93698000D03*
X144653000Y-92738000D03*
%TD*%
%TO.C,C20*%
X138557000Y-98806000D03*
X138557000Y-97846000D03*
%TD*%
D18*
%TO.C,C16*%
X141450000Y-99187000D03*
X140490000Y-99187000D03*
%TD*%
D19*
%TO.C,C22*%
X155272800Y-103174800D03*
X156232800Y-103174800D03*
%TD*%
D21*
%TO.C,RLED1*%
X140208000Y-111252000D03*
X140208000Y-110232000D03*
%TD*%
D17*
%TO.C,C3*%
X148717000Y-109756000D03*
X148717000Y-110716000D03*
%TD*%
D21*
%TO.C,R8*%
X138430000Y-104521000D03*
X138430000Y-103501000D03*
%TD*%
D33*
%TO.C,C4*%
X153107602Y-94929997D03*
X153107602Y-93029997D03*
%TD*%
D34*
%TO.C,C1*%
X157105601Y-91185999D03*
X155205601Y-91185999D03*
%TD*%
D19*
%TO.C,C21*%
X138331000Y-106426000D03*
X139291000Y-106426000D03*
%TD*%
D16*
%TO.C,C24*%
X153543000Y-85344000D03*
X153543000Y-84384000D03*
%TD*%
D19*
%TO.C,R9*%
X140236000Y-93599000D03*
X141196000Y-93599000D03*
%TD*%
D29*
%TO.C,D2*%
X137190000Y-100570000D03*
X137190000Y-98795000D03*
X134590000Y-98820000D03*
X134590000Y-100570000D03*
%TD*%
D35*
%TO.C,F1*%
X154810000Y-88900000D03*
X157610000Y-88900000D03*
%TD*%
D16*
%TO.C,C5*%
X142621000Y-93698000D03*
X142621000Y-92738000D03*
%TD*%
D36*
%TO.C,R4*%
X147828000Y-92708000D03*
X147828000Y-93728000D03*
%TD*%
D27*
%TO.C,H3*%
X127000000Y-114300000D03*
%TD*%
D29*
%TO.C,D5*%
X154910000Y-98820000D03*
X154910000Y-100595000D03*
X157510000Y-100570000D03*
X157510000Y-98820000D03*
%TD*%
D37*
%TO.C,U3*%
X142612500Y-99000000D03*
X142612500Y-99400000D03*
X142612500Y-99800000D03*
X142612500Y-100200000D03*
X142612500Y-100600000D03*
X142612500Y-101000000D03*
X142612500Y-101400000D03*
X142612500Y-101800000D03*
X142612500Y-102200000D03*
X142612500Y-102600000D03*
X142612500Y-103000000D03*
X142612500Y-103400000D03*
X142612500Y-103800000D03*
X142612500Y-104200000D03*
D38*
X143450000Y-105037500D03*
X143850000Y-105037500D03*
X144250000Y-105037500D03*
X144650000Y-105037500D03*
X145050000Y-105037500D03*
X145450000Y-105037500D03*
X145850000Y-105037500D03*
X146250000Y-105037500D03*
X146650000Y-105037500D03*
X147050000Y-105037500D03*
X147450000Y-105037500D03*
X147850000Y-105037500D03*
X148250000Y-105037500D03*
X148650000Y-105037500D03*
D37*
X149487500Y-104200000D03*
X149487500Y-103800000D03*
X149487500Y-103400000D03*
X149487500Y-103000000D03*
X149487500Y-102600000D03*
X149487500Y-102200000D03*
X149487500Y-101800000D03*
X149487500Y-101400000D03*
X149487500Y-101000000D03*
X149487500Y-100600000D03*
X149487500Y-100200000D03*
X149487500Y-99800000D03*
X149487500Y-99400000D03*
X149487500Y-99000000D03*
D38*
X148650000Y-98162500D03*
X148250000Y-98162500D03*
X147850000Y-98162500D03*
X147450000Y-98162500D03*
X147050000Y-98162500D03*
X146650000Y-98162500D03*
X146250000Y-98162500D03*
X145850000Y-98162500D03*
X145450000Y-98162500D03*
X145050000Y-98162500D03*
X144650000Y-98162500D03*
X144250000Y-98162500D03*
X143850000Y-98162500D03*
X143450000Y-98162500D03*
D39*
X146050000Y-101600000D03*
%TD*%
D40*
%TO.C,U6*%
X157347500Y-94930000D03*
X157347500Y-93980000D03*
X157347500Y-93030000D03*
X155072500Y-93030000D03*
X155072500Y-94930000D03*
%TD*%
D41*
%TO.C,D7*%
X144542000Y-87134000D03*
D42*
X144542000Y-88834000D03*
X146542000Y-88834000D03*
X146542000Y-86934000D03*
%TD*%
D27*
%TO.C,H1*%
X127000000Y-96520000D03*
%TD*%
D29*
%TO.C,D4*%
X154910000Y-83580000D03*
X154910000Y-85355000D03*
X157510000Y-85330000D03*
X157510000Y-83580000D03*
%TD*%
D16*
%TO.C,C7*%
X143637000Y-93698000D03*
X143637000Y-92738000D03*
%TD*%
D43*
%TO.C,SW1*%
X133990000Y-95200000D03*
X133990000Y-88900000D03*
X137790000Y-95200000D03*
X137790000Y-88900000D03*
%TD*%
D36*
%TO.C,R3*%
X146685000Y-92708000D03*
X146685000Y-93728000D03*
%TD*%
D16*
%TO.C,C13*%
X150749000Y-102588000D03*
X150749000Y-101628000D03*
%TD*%
D21*
%TO.C,R7*%
X153670000Y-106299000D03*
X153670000Y-105279000D03*
%TD*%
D44*
%TO.C,R5*%
X146556000Y-108204000D03*
X147576000Y-108204000D03*
%TD*%
D21*
%TO.C,R2*%
X147701000Y-87632000D03*
X147701000Y-86612000D03*
%TD*%
D17*
%TO.C,C18*%
X139446000Y-103533000D03*
X139446000Y-104493000D03*
%TD*%
D45*
%TO.C,U4*%
X136827500Y-106360000D03*
X136827500Y-104460000D03*
X134952500Y-105410000D03*
%TD*%
D46*
%TO.C,X*%
X140970000Y-105410000D03*
X130810000Y-105410000D03*
%TD*%
%TO.C,Z*%
X161290000Y-105410000D03*
X151130000Y-105410000D03*
%TD*%
D47*
%TO.C,J1*%
X163322000Y-89906000D03*
D48*
X163322000Y-87366000D03*
X163322000Y-84826000D03*
X163322000Y-82286000D03*
%TD*%
%LPD*%
M02*
