%TF.GenerationSoftware,KiCad,Pcbnew,7.0.3*%
%TF.CreationDate,2023-05-17T00:12:26+01:00*%
%TF.ProjectId,MoonPad,4d6f6f6e-5061-4642-9e6b-696361645f70,rev?*%
%TF.SameCoordinates,Original*%
%TF.FileFunction,Legend,Top*%
%TF.FilePolarity,Positive*%
%FSLAX46Y46*%
G04 Gerber Fmt 4.6, Leading zero omitted, Abs format (unit mm)*
G04 Created by KiCad (PCBNEW 7.0.3) date 2023-05-17 00:12:26*
%MOMM*%
%LPD*%
G01*
G04 APERTURE LIST*
G04 Aperture macros list*
%AMRoundRect*
0 Rectangle with rounded corners*
0 $1 Rounding radius*
0 $2 $3 $4 $5 $6 $7 $8 $9 X,Y pos of 4 corners*
0 Add a 4 corners polygon primitive as box body*
4,1,4,$2,$3,$4,$5,$6,$7,$8,$9,$2,$3,0*
0 Add four circle primitives for the rounded corners*
1,1,$1+$1,$2,$3*
1,1,$1+$1,$4,$5*
1,1,$1+$1,$6,$7*
1,1,$1+$1,$8,$9*
0 Add four rect primitives between the rounded corners*
20,1,$1+$1,$2,$3,$4,$5,0*
20,1,$1+$1,$4,$5,$6,$7,0*
20,1,$1+$1,$6,$7,$8,$9,0*
20,1,$1+$1,$8,$9,$2,$3,0*%
G04 Aperture macros list end*
%ADD10C,0.125000*%
%ADD11C,0.120000*%
%ADD12C,0.100000*%
%ADD13RoundRect,0.135000X-0.185000X0.135000X-0.185000X-0.135000X0.185000X-0.135000X0.185000X0.135000X0*%
%ADD14RoundRect,0.135000X0.185000X-0.135000X0.185000X0.135000X-0.185000X0.135000X-0.185000X-0.135000X0*%
%ADD15RoundRect,0.140000X-0.140000X-0.170000X0.140000X-0.170000X0.140000X0.170000X-0.140000X0.170000X0*%
%ADD16RoundRect,0.140000X0.170000X-0.140000X0.170000X0.140000X-0.170000X0.140000X-0.170000X-0.140000X0*%
%ADD17RoundRect,0.140000X-0.170000X0.140000X-0.170000X-0.140000X0.170000X-0.140000X0.170000X0.140000X0*%
%ADD18RoundRect,0.140000X0.140000X0.170000X-0.140000X0.170000X-0.140000X-0.170000X0.140000X-0.170000X0*%
%ADD19R,1.400000X1.200000*%
%ADD20RoundRect,0.082000X-0.718000X0.328000X-0.718000X-0.328000X0.718000X-0.328000X0.718000X0.328000X0*%
%ADD21C,0.650000*%
%ADD22R,0.600000X1.450000*%
%ADD23R,0.300000X1.450000*%
%ADD24O,1.000000X2.100000*%
%ADD25O,1.000000X1.600000*%
%ADD26C,2.200000*%
%ADD27RoundRect,0.150000X-0.587500X-0.150000X0.587500X-0.150000X0.587500X0.150000X-0.587500X0.150000X0*%
%ADD28R,1.000000X0.850000*%
%ADD29R,0.900000X0.300000*%
%ADD30R,0.250000X1.650000*%
%ADD31RoundRect,0.135000X0.135000X0.185000X-0.135000X0.185000X-0.135000X-0.185000X0.135000X-0.185000X0*%
%ADD32RoundRect,0.250000X0.475000X-0.250000X0.475000X0.250000X-0.475000X0.250000X-0.475000X-0.250000X0*%
%ADD33RoundRect,0.250000X0.250000X0.475000X-0.250000X0.475000X-0.250000X-0.475000X0.250000X-0.475000X0*%
%ADD34RoundRect,0.250000X-0.375000X-0.625000X0.375000X-0.625000X0.375000X0.625000X-0.375000X0.625000X0*%
%ADD35RoundRect,0.050000X-0.387500X-0.050000X0.387500X-0.050000X0.387500X0.050000X-0.387500X0.050000X0*%
%ADD36RoundRect,0.050000X-0.050000X-0.387500X0.050000X-0.387500X0.050000X0.387500X-0.050000X0.387500X0*%
%ADD37RoundRect,0.144000X-1.456000X-1.456000X1.456000X-1.456000X1.456000X1.456000X-1.456000X1.456000X0*%
%ADD38RoundRect,0.150000X0.512500X0.150000X-0.512500X0.150000X-0.512500X-0.150000X0.512500X-0.150000X0*%
%ADD39R,0.700000X1.000000*%
%ADD40R,0.700000X0.600000*%
%ADD41R,1.000000X1.700000*%
%ADD42RoundRect,0.135000X-0.135000X-0.185000X0.135000X-0.185000X0.135000X0.185000X-0.135000X0.185000X0*%
%ADD43RoundRect,0.150000X0.587500X0.150000X-0.587500X0.150000X-0.587500X-0.150000X0.587500X-0.150000X0*%
%ADD44C,1.700000*%
%ADD45R,1.700000X1.700000*%
%ADD46O,1.700000X1.700000*%
G04 APERTURE END LIST*
D10*
X143870332Y-114613309D02*
X143703666Y-114375214D01*
X143584618Y-114613309D02*
X143584618Y-114113309D01*
X143584618Y-114113309D02*
X143775094Y-114113309D01*
X143775094Y-114113309D02*
X143822713Y-114137119D01*
X143822713Y-114137119D02*
X143846523Y-114160928D01*
X143846523Y-114160928D02*
X143870332Y-114208547D01*
X143870332Y-114208547D02*
X143870332Y-114279976D01*
X143870332Y-114279976D02*
X143846523Y-114327595D01*
X143846523Y-114327595D02*
X143822713Y-114351404D01*
X143822713Y-114351404D02*
X143775094Y-114375214D01*
X143775094Y-114375214D02*
X143584618Y-114375214D01*
X144275094Y-114589500D02*
X144227475Y-114613309D01*
X144227475Y-114613309D02*
X144132237Y-114613309D01*
X144132237Y-114613309D02*
X144084618Y-114589500D01*
X144084618Y-114589500D02*
X144060809Y-114541880D01*
X144060809Y-114541880D02*
X144060809Y-114351404D01*
X144060809Y-114351404D02*
X144084618Y-114303785D01*
X144084618Y-114303785D02*
X144132237Y-114279976D01*
X144132237Y-114279976D02*
X144227475Y-114279976D01*
X144227475Y-114279976D02*
X144275094Y-114303785D01*
X144275094Y-114303785D02*
X144298904Y-114351404D01*
X144298904Y-114351404D02*
X144298904Y-114399023D01*
X144298904Y-114399023D02*
X144060809Y-114446642D01*
X144513189Y-114279976D02*
X144513189Y-114779976D01*
X144513189Y-114303785D02*
X144560808Y-114279976D01*
X144560808Y-114279976D02*
X144656046Y-114279976D01*
X144656046Y-114279976D02*
X144703665Y-114303785D01*
X144703665Y-114303785D02*
X144727475Y-114327595D01*
X144727475Y-114327595D02*
X144751284Y-114375214D01*
X144751284Y-114375214D02*
X144751284Y-114518071D01*
X144751284Y-114518071D02*
X144727475Y-114565690D01*
X144727475Y-114565690D02*
X144703665Y-114589500D01*
X144703665Y-114589500D02*
X144656046Y-114613309D01*
X144656046Y-114613309D02*
X144560808Y-114613309D01*
X144560808Y-114613309D02*
X144513189Y-114589500D01*
X144965570Y-114613309D02*
X144965570Y-114113309D01*
X145179856Y-114613309D02*
X145179856Y-114351404D01*
X145179856Y-114351404D02*
X145156046Y-114303785D01*
X145156046Y-114303785D02*
X145108427Y-114279976D01*
X145108427Y-114279976D02*
X145036999Y-114279976D01*
X145036999Y-114279976D02*
X144989380Y-114303785D01*
X144989380Y-114303785D02*
X144965570Y-114327595D01*
X145489380Y-114613309D02*
X145441761Y-114589500D01*
X145441761Y-114589500D02*
X145417951Y-114541880D01*
X145417951Y-114541880D02*
X145417951Y-114113309D01*
X145870332Y-114589500D02*
X145822713Y-114613309D01*
X145822713Y-114613309D02*
X145727475Y-114613309D01*
X145727475Y-114613309D02*
X145679856Y-114589500D01*
X145679856Y-114589500D02*
X145656047Y-114541880D01*
X145656047Y-114541880D02*
X145656047Y-114351404D01*
X145656047Y-114351404D02*
X145679856Y-114303785D01*
X145679856Y-114303785D02*
X145727475Y-114279976D01*
X145727475Y-114279976D02*
X145822713Y-114279976D01*
X145822713Y-114279976D02*
X145870332Y-114303785D01*
X145870332Y-114303785D02*
X145894142Y-114351404D01*
X145894142Y-114351404D02*
X145894142Y-114399023D01*
X145894142Y-114399023D02*
X145656047Y-114446642D01*
X146060808Y-114613309D02*
X146322713Y-114279976D01*
X146060808Y-114279976D02*
X146322713Y-114613309D01*
X146489380Y-114279976D02*
X146846522Y-114279976D01*
X146632237Y-114065690D02*
X146489380Y-114708547D01*
X146798903Y-114494261D02*
X146441761Y-114494261D01*
X146656046Y-114708547D02*
X146798903Y-114065690D01*
X147227475Y-114113309D02*
X147132237Y-114113309D01*
X147132237Y-114113309D02*
X147084618Y-114137119D01*
X147084618Y-114137119D02*
X147060808Y-114160928D01*
X147060808Y-114160928D02*
X147013189Y-114232357D01*
X147013189Y-114232357D02*
X146989380Y-114327595D01*
X146989380Y-114327595D02*
X146989380Y-114518071D01*
X146989380Y-114518071D02*
X147013189Y-114565690D01*
X147013189Y-114565690D02*
X147036999Y-114589500D01*
X147036999Y-114589500D02*
X147084618Y-114613309D01*
X147084618Y-114613309D02*
X147179856Y-114613309D01*
X147179856Y-114613309D02*
X147227475Y-114589500D01*
X147227475Y-114589500D02*
X147251284Y-114565690D01*
X147251284Y-114565690D02*
X147275094Y-114518071D01*
X147275094Y-114518071D02*
X147275094Y-114399023D01*
X147275094Y-114399023D02*
X147251284Y-114351404D01*
X147251284Y-114351404D02*
X147227475Y-114327595D01*
X147227475Y-114327595D02*
X147179856Y-114303785D01*
X147179856Y-114303785D02*
X147084618Y-114303785D01*
X147084618Y-114303785D02*
X147036999Y-114327595D01*
X147036999Y-114327595D02*
X147013189Y-114351404D01*
X147013189Y-114351404D02*
X146989380Y-114399023D01*
X147465570Y-114160928D02*
X147489379Y-114137119D01*
X147489379Y-114137119D02*
X147536998Y-114113309D01*
X147536998Y-114113309D02*
X147656046Y-114113309D01*
X147656046Y-114113309D02*
X147703665Y-114137119D01*
X147703665Y-114137119D02*
X147727474Y-114160928D01*
X147727474Y-114160928D02*
X147751284Y-114208547D01*
X147751284Y-114208547D02*
X147751284Y-114256166D01*
X147751284Y-114256166D02*
X147727474Y-114327595D01*
X147727474Y-114327595D02*
X147441760Y-114613309D01*
X147441760Y-114613309D02*
X147751284Y-114613309D01*
X148036998Y-114327595D02*
X147989379Y-114303785D01*
X147989379Y-114303785D02*
X147965569Y-114279976D01*
X147965569Y-114279976D02*
X147941760Y-114232357D01*
X147941760Y-114232357D02*
X147941760Y-114208547D01*
X147941760Y-114208547D02*
X147965569Y-114160928D01*
X147965569Y-114160928D02*
X147989379Y-114137119D01*
X147989379Y-114137119D02*
X148036998Y-114113309D01*
X148036998Y-114113309D02*
X148132236Y-114113309D01*
X148132236Y-114113309D02*
X148179855Y-114137119D01*
X148179855Y-114137119D02*
X148203664Y-114160928D01*
X148203664Y-114160928D02*
X148227474Y-114208547D01*
X148227474Y-114208547D02*
X148227474Y-114232357D01*
X148227474Y-114232357D02*
X148203664Y-114279976D01*
X148203664Y-114279976D02*
X148179855Y-114303785D01*
X148179855Y-114303785D02*
X148132236Y-114327595D01*
X148132236Y-114327595D02*
X148036998Y-114327595D01*
X148036998Y-114327595D02*
X147989379Y-114351404D01*
X147989379Y-114351404D02*
X147965569Y-114375214D01*
X147965569Y-114375214D02*
X147941760Y-114422833D01*
X147941760Y-114422833D02*
X147941760Y-114518071D01*
X147941760Y-114518071D02*
X147965569Y-114565690D01*
X147965569Y-114565690D02*
X147989379Y-114589500D01*
X147989379Y-114589500D02*
X148036998Y-114613309D01*
X148036998Y-114613309D02*
X148132236Y-114613309D01*
X148132236Y-114613309D02*
X148179855Y-114589500D01*
X148179855Y-114589500D02*
X148203664Y-114565690D01*
X148203664Y-114565690D02*
X148227474Y-114518071D01*
X148227474Y-114518071D02*
X148227474Y-114422833D01*
X148227474Y-114422833D02*
X148203664Y-114375214D01*
X148203664Y-114375214D02*
X148179855Y-114351404D01*
X148179855Y-114351404D02*
X148132236Y-114327595D01*
X148394140Y-114113309D02*
X148703664Y-114113309D01*
X148703664Y-114113309D02*
X148536997Y-114303785D01*
X148536997Y-114303785D02*
X148608426Y-114303785D01*
X148608426Y-114303785D02*
X148656045Y-114327595D01*
X148656045Y-114327595D02*
X148679854Y-114351404D01*
X148679854Y-114351404D02*
X148703664Y-114399023D01*
X148703664Y-114399023D02*
X148703664Y-114518071D01*
X148703664Y-114518071D02*
X148679854Y-114565690D01*
X148679854Y-114565690D02*
X148656045Y-114589500D01*
X148656045Y-114589500D02*
X148608426Y-114613309D01*
X148608426Y-114613309D02*
X148465569Y-114613309D01*
X148465569Y-114613309D02*
X148417950Y-114589500D01*
X148417950Y-114589500D02*
X148394140Y-114565690D01*
%TO.C,RLED2*%
X151227809Y-109899668D02*
X150989714Y-110066334D01*
X151227809Y-110185382D02*
X150727809Y-110185382D01*
X150727809Y-110185382D02*
X150727809Y-109994906D01*
X150727809Y-109994906D02*
X150751619Y-109947287D01*
X150751619Y-109947287D02*
X150775428Y-109923477D01*
X150775428Y-109923477D02*
X150823047Y-109899668D01*
X150823047Y-109899668D02*
X150894476Y-109899668D01*
X150894476Y-109899668D02*
X150942095Y-109923477D01*
X150942095Y-109923477D02*
X150965904Y-109947287D01*
X150965904Y-109947287D02*
X150989714Y-109994906D01*
X150989714Y-109994906D02*
X150989714Y-110185382D01*
X151227809Y-109447287D02*
X151227809Y-109685382D01*
X151227809Y-109685382D02*
X150727809Y-109685382D01*
X150965904Y-109280620D02*
X150965904Y-109113953D01*
X151227809Y-109042525D02*
X151227809Y-109280620D01*
X151227809Y-109280620D02*
X150727809Y-109280620D01*
X150727809Y-109280620D02*
X150727809Y-109042525D01*
X151227809Y-108828239D02*
X150727809Y-108828239D01*
X150727809Y-108828239D02*
X150727809Y-108709191D01*
X150727809Y-108709191D02*
X150751619Y-108637763D01*
X150751619Y-108637763D02*
X150799238Y-108590144D01*
X150799238Y-108590144D02*
X150846857Y-108566334D01*
X150846857Y-108566334D02*
X150942095Y-108542525D01*
X150942095Y-108542525D02*
X151013523Y-108542525D01*
X151013523Y-108542525D02*
X151108761Y-108566334D01*
X151108761Y-108566334D02*
X151156380Y-108590144D01*
X151156380Y-108590144D02*
X151204000Y-108637763D01*
X151204000Y-108637763D02*
X151227809Y-108709191D01*
X151227809Y-108709191D02*
X151227809Y-108828239D01*
X150775428Y-108352048D02*
X150751619Y-108328239D01*
X150751619Y-108328239D02*
X150727809Y-108280620D01*
X150727809Y-108280620D02*
X150727809Y-108161572D01*
X150727809Y-108161572D02*
X150751619Y-108113953D01*
X150751619Y-108113953D02*
X150775428Y-108090144D01*
X150775428Y-108090144D02*
X150823047Y-108066334D01*
X150823047Y-108066334D02*
X150870666Y-108066334D01*
X150870666Y-108066334D02*
X150942095Y-108090144D01*
X150942095Y-108090144D02*
X151227809Y-108375858D01*
X151227809Y-108375858D02*
X151227809Y-108066334D01*
%TO.C,RLED1*%
X141321809Y-111445168D02*
X141083714Y-111611834D01*
X141321809Y-111730882D02*
X140821809Y-111730882D01*
X140821809Y-111730882D02*
X140821809Y-111540406D01*
X140821809Y-111540406D02*
X140845619Y-111492787D01*
X140845619Y-111492787D02*
X140869428Y-111468977D01*
X140869428Y-111468977D02*
X140917047Y-111445168D01*
X140917047Y-111445168D02*
X140988476Y-111445168D01*
X140988476Y-111445168D02*
X141036095Y-111468977D01*
X141036095Y-111468977D02*
X141059904Y-111492787D01*
X141059904Y-111492787D02*
X141083714Y-111540406D01*
X141083714Y-111540406D02*
X141083714Y-111730882D01*
X141321809Y-110992787D02*
X141321809Y-111230882D01*
X141321809Y-111230882D02*
X140821809Y-111230882D01*
X141059904Y-110826120D02*
X141059904Y-110659453D01*
X141321809Y-110588025D02*
X141321809Y-110826120D01*
X141321809Y-110826120D02*
X140821809Y-110826120D01*
X140821809Y-110826120D02*
X140821809Y-110588025D01*
X141321809Y-110373739D02*
X140821809Y-110373739D01*
X140821809Y-110373739D02*
X140821809Y-110254691D01*
X140821809Y-110254691D02*
X140845619Y-110183263D01*
X140845619Y-110183263D02*
X140893238Y-110135644D01*
X140893238Y-110135644D02*
X140940857Y-110111834D01*
X140940857Y-110111834D02*
X141036095Y-110088025D01*
X141036095Y-110088025D02*
X141107523Y-110088025D01*
X141107523Y-110088025D02*
X141202761Y-110111834D01*
X141202761Y-110111834D02*
X141250380Y-110135644D01*
X141250380Y-110135644D02*
X141298000Y-110183263D01*
X141298000Y-110183263D02*
X141321809Y-110254691D01*
X141321809Y-110254691D02*
X141321809Y-110373739D01*
X141321809Y-109611834D02*
X141321809Y-109897548D01*
X141321809Y-109754691D02*
X140821809Y-109754691D01*
X140821809Y-109754691D02*
X140893238Y-109802310D01*
X140893238Y-109802310D02*
X140940857Y-109849929D01*
X140940857Y-109849929D02*
X140964666Y-109897548D01*
%TO.C,C27*%
X147080807Y-107492190D02*
X147056998Y-107516000D01*
X147056998Y-107516000D02*
X146985569Y-107539809D01*
X146985569Y-107539809D02*
X146937950Y-107539809D01*
X146937950Y-107539809D02*
X146866522Y-107516000D01*
X146866522Y-107516000D02*
X146818903Y-107468380D01*
X146818903Y-107468380D02*
X146795093Y-107420761D01*
X146795093Y-107420761D02*
X146771284Y-107325523D01*
X146771284Y-107325523D02*
X146771284Y-107254095D01*
X146771284Y-107254095D02*
X146795093Y-107158857D01*
X146795093Y-107158857D02*
X146818903Y-107111238D01*
X146818903Y-107111238D02*
X146866522Y-107063619D01*
X146866522Y-107063619D02*
X146937950Y-107039809D01*
X146937950Y-107039809D02*
X146985569Y-107039809D01*
X146985569Y-107039809D02*
X147056998Y-107063619D01*
X147056998Y-107063619D02*
X147080807Y-107087428D01*
X147271284Y-107087428D02*
X147295093Y-107063619D01*
X147295093Y-107063619D02*
X147342712Y-107039809D01*
X147342712Y-107039809D02*
X147461760Y-107039809D01*
X147461760Y-107039809D02*
X147509379Y-107063619D01*
X147509379Y-107063619D02*
X147533188Y-107087428D01*
X147533188Y-107087428D02*
X147556998Y-107135047D01*
X147556998Y-107135047D02*
X147556998Y-107182666D01*
X147556998Y-107182666D02*
X147533188Y-107254095D01*
X147533188Y-107254095D02*
X147247474Y-107539809D01*
X147247474Y-107539809D02*
X147556998Y-107539809D01*
X147723664Y-107039809D02*
X148056997Y-107039809D01*
X148056997Y-107039809D02*
X147842712Y-107539809D01*
%TO.C,C8*%
X148817990Y-93752497D02*
X148841800Y-93776306D01*
X148841800Y-93776306D02*
X148865609Y-93847735D01*
X148865609Y-93847735D02*
X148865609Y-93895354D01*
X148865609Y-93895354D02*
X148841800Y-93966782D01*
X148841800Y-93966782D02*
X148794180Y-94014401D01*
X148794180Y-94014401D02*
X148746561Y-94038211D01*
X148746561Y-94038211D02*
X148651323Y-94062020D01*
X148651323Y-94062020D02*
X148579895Y-94062020D01*
X148579895Y-94062020D02*
X148484657Y-94038211D01*
X148484657Y-94038211D02*
X148437038Y-94014401D01*
X148437038Y-94014401D02*
X148389419Y-93966782D01*
X148389419Y-93966782D02*
X148365609Y-93895354D01*
X148365609Y-93895354D02*
X148365609Y-93847735D01*
X148365609Y-93847735D02*
X148389419Y-93776306D01*
X148389419Y-93776306D02*
X148413228Y-93752497D01*
X148579895Y-93466782D02*
X148556085Y-93514401D01*
X148556085Y-93514401D02*
X148532276Y-93538211D01*
X148532276Y-93538211D02*
X148484657Y-93562020D01*
X148484657Y-93562020D02*
X148460847Y-93562020D01*
X148460847Y-93562020D02*
X148413228Y-93538211D01*
X148413228Y-93538211D02*
X148389419Y-93514401D01*
X148389419Y-93514401D02*
X148365609Y-93466782D01*
X148365609Y-93466782D02*
X148365609Y-93371544D01*
X148365609Y-93371544D02*
X148389419Y-93323925D01*
X148389419Y-93323925D02*
X148413228Y-93300116D01*
X148413228Y-93300116D02*
X148460847Y-93276306D01*
X148460847Y-93276306D02*
X148484657Y-93276306D01*
X148484657Y-93276306D02*
X148532276Y-93300116D01*
X148532276Y-93300116D02*
X148556085Y-93323925D01*
X148556085Y-93323925D02*
X148579895Y-93371544D01*
X148579895Y-93371544D02*
X148579895Y-93466782D01*
X148579895Y-93466782D02*
X148603704Y-93514401D01*
X148603704Y-93514401D02*
X148627514Y-93538211D01*
X148627514Y-93538211D02*
X148675133Y-93562020D01*
X148675133Y-93562020D02*
X148770371Y-93562020D01*
X148770371Y-93562020D02*
X148817990Y-93538211D01*
X148817990Y-93538211D02*
X148841800Y-93514401D01*
X148841800Y-93514401D02*
X148865609Y-93466782D01*
X148865609Y-93466782D02*
X148865609Y-93371544D01*
X148865609Y-93371544D02*
X148841800Y-93323925D01*
X148841800Y-93323925D02*
X148817990Y-93300116D01*
X148817990Y-93300116D02*
X148770371Y-93276306D01*
X148770371Y-93276306D02*
X148675133Y-93276306D01*
X148675133Y-93276306D02*
X148627514Y-93300116D01*
X148627514Y-93300116D02*
X148603704Y-93323925D01*
X148603704Y-93323925D02*
X148579895Y-93371544D01*
%TO.C,C23*%
X138571807Y-82981190D02*
X138547998Y-83005000D01*
X138547998Y-83005000D02*
X138476569Y-83028809D01*
X138476569Y-83028809D02*
X138428950Y-83028809D01*
X138428950Y-83028809D02*
X138357522Y-83005000D01*
X138357522Y-83005000D02*
X138309903Y-82957380D01*
X138309903Y-82957380D02*
X138286093Y-82909761D01*
X138286093Y-82909761D02*
X138262284Y-82814523D01*
X138262284Y-82814523D02*
X138262284Y-82743095D01*
X138262284Y-82743095D02*
X138286093Y-82647857D01*
X138286093Y-82647857D02*
X138309903Y-82600238D01*
X138309903Y-82600238D02*
X138357522Y-82552619D01*
X138357522Y-82552619D02*
X138428950Y-82528809D01*
X138428950Y-82528809D02*
X138476569Y-82528809D01*
X138476569Y-82528809D02*
X138547998Y-82552619D01*
X138547998Y-82552619D02*
X138571807Y-82576428D01*
X138762284Y-82576428D02*
X138786093Y-82552619D01*
X138786093Y-82552619D02*
X138833712Y-82528809D01*
X138833712Y-82528809D02*
X138952760Y-82528809D01*
X138952760Y-82528809D02*
X139000379Y-82552619D01*
X139000379Y-82552619D02*
X139024188Y-82576428D01*
X139024188Y-82576428D02*
X139047998Y-82624047D01*
X139047998Y-82624047D02*
X139047998Y-82671666D01*
X139047998Y-82671666D02*
X139024188Y-82743095D01*
X139024188Y-82743095D02*
X138738474Y-83028809D01*
X138738474Y-83028809D02*
X139047998Y-83028809D01*
X139214664Y-82528809D02*
X139524188Y-82528809D01*
X139524188Y-82528809D02*
X139357521Y-82719285D01*
X139357521Y-82719285D02*
X139428950Y-82719285D01*
X139428950Y-82719285D02*
X139476569Y-82743095D01*
X139476569Y-82743095D02*
X139500378Y-82766904D01*
X139500378Y-82766904D02*
X139524188Y-82814523D01*
X139524188Y-82814523D02*
X139524188Y-82933571D01*
X139524188Y-82933571D02*
X139500378Y-82981190D01*
X139500378Y-82981190D02*
X139476569Y-83005000D01*
X139476569Y-83005000D02*
X139428950Y-83028809D01*
X139428950Y-83028809D02*
X139286093Y-83028809D01*
X139286093Y-83028809D02*
X139238474Y-83005000D01*
X139238474Y-83005000D02*
X139214664Y-82981190D01*
%TO.C,C9*%
X141349902Y-101015190D02*
X141326093Y-101039000D01*
X141326093Y-101039000D02*
X141254664Y-101062809D01*
X141254664Y-101062809D02*
X141207045Y-101062809D01*
X141207045Y-101062809D02*
X141135617Y-101039000D01*
X141135617Y-101039000D02*
X141087998Y-100991380D01*
X141087998Y-100991380D02*
X141064188Y-100943761D01*
X141064188Y-100943761D02*
X141040379Y-100848523D01*
X141040379Y-100848523D02*
X141040379Y-100777095D01*
X141040379Y-100777095D02*
X141064188Y-100681857D01*
X141064188Y-100681857D02*
X141087998Y-100634238D01*
X141087998Y-100634238D02*
X141135617Y-100586619D01*
X141135617Y-100586619D02*
X141207045Y-100562809D01*
X141207045Y-100562809D02*
X141254664Y-100562809D01*
X141254664Y-100562809D02*
X141326093Y-100586619D01*
X141326093Y-100586619D02*
X141349902Y-100610428D01*
X141587998Y-101062809D02*
X141683236Y-101062809D01*
X141683236Y-101062809D02*
X141730855Y-101039000D01*
X141730855Y-101039000D02*
X141754664Y-101015190D01*
X141754664Y-101015190D02*
X141802283Y-100943761D01*
X141802283Y-100943761D02*
X141826093Y-100848523D01*
X141826093Y-100848523D02*
X141826093Y-100658047D01*
X141826093Y-100658047D02*
X141802283Y-100610428D01*
X141802283Y-100610428D02*
X141778474Y-100586619D01*
X141778474Y-100586619D02*
X141730855Y-100562809D01*
X141730855Y-100562809D02*
X141635617Y-100562809D01*
X141635617Y-100562809D02*
X141587998Y-100586619D01*
X141587998Y-100586619D02*
X141564188Y-100610428D01*
X141564188Y-100610428D02*
X141540379Y-100658047D01*
X141540379Y-100658047D02*
X141540379Y-100777095D01*
X141540379Y-100777095D02*
X141564188Y-100824714D01*
X141564188Y-100824714D02*
X141587998Y-100848523D01*
X141587998Y-100848523D02*
X141635617Y-100872333D01*
X141635617Y-100872333D02*
X141730855Y-100872333D01*
X141730855Y-100872333D02*
X141778474Y-100848523D01*
X141778474Y-100848523D02*
X141802283Y-100824714D01*
X141802283Y-100824714D02*
X141826093Y-100777095D01*
%TO.C,C26*%
X149493807Y-111429190D02*
X149469998Y-111453000D01*
X149469998Y-111453000D02*
X149398569Y-111476809D01*
X149398569Y-111476809D02*
X149350950Y-111476809D01*
X149350950Y-111476809D02*
X149279522Y-111453000D01*
X149279522Y-111453000D02*
X149231903Y-111405380D01*
X149231903Y-111405380D02*
X149208093Y-111357761D01*
X149208093Y-111357761D02*
X149184284Y-111262523D01*
X149184284Y-111262523D02*
X149184284Y-111191095D01*
X149184284Y-111191095D02*
X149208093Y-111095857D01*
X149208093Y-111095857D02*
X149231903Y-111048238D01*
X149231903Y-111048238D02*
X149279522Y-111000619D01*
X149279522Y-111000619D02*
X149350950Y-110976809D01*
X149350950Y-110976809D02*
X149398569Y-110976809D01*
X149398569Y-110976809D02*
X149469998Y-111000619D01*
X149469998Y-111000619D02*
X149493807Y-111024428D01*
X149684284Y-111024428D02*
X149708093Y-111000619D01*
X149708093Y-111000619D02*
X149755712Y-110976809D01*
X149755712Y-110976809D02*
X149874760Y-110976809D01*
X149874760Y-110976809D02*
X149922379Y-111000619D01*
X149922379Y-111000619D02*
X149946188Y-111024428D01*
X149946188Y-111024428D02*
X149969998Y-111072047D01*
X149969998Y-111072047D02*
X149969998Y-111119666D01*
X149969998Y-111119666D02*
X149946188Y-111191095D01*
X149946188Y-111191095D02*
X149660474Y-111476809D01*
X149660474Y-111476809D02*
X149969998Y-111476809D01*
X150398569Y-110976809D02*
X150303331Y-110976809D01*
X150303331Y-110976809D02*
X150255712Y-111000619D01*
X150255712Y-111000619D02*
X150231902Y-111024428D01*
X150231902Y-111024428D02*
X150184283Y-111095857D01*
X150184283Y-111095857D02*
X150160474Y-111191095D01*
X150160474Y-111191095D02*
X150160474Y-111381571D01*
X150160474Y-111381571D02*
X150184283Y-111429190D01*
X150184283Y-111429190D02*
X150208093Y-111453000D01*
X150208093Y-111453000D02*
X150255712Y-111476809D01*
X150255712Y-111476809D02*
X150350950Y-111476809D01*
X150350950Y-111476809D02*
X150398569Y-111453000D01*
X150398569Y-111453000D02*
X150422378Y-111429190D01*
X150422378Y-111429190D02*
X150446188Y-111381571D01*
X150446188Y-111381571D02*
X150446188Y-111262523D01*
X150446188Y-111262523D02*
X150422378Y-111214904D01*
X150422378Y-111214904D02*
X150398569Y-111191095D01*
X150398569Y-111191095D02*
X150350950Y-111167285D01*
X150350950Y-111167285D02*
X150255712Y-111167285D01*
X150255712Y-111167285D02*
X150208093Y-111191095D01*
X150208093Y-111191095D02*
X150184283Y-111214904D01*
X150184283Y-111214904D02*
X150160474Y-111262523D01*
%TO.C,Y1*%
X145894141Y-112508714D02*
X145894141Y-112746809D01*
X145727475Y-112246809D02*
X145894141Y-112508714D01*
X145894141Y-112508714D02*
X146060808Y-112246809D01*
X146489379Y-112746809D02*
X146203665Y-112746809D01*
X146346522Y-112746809D02*
X146346522Y-112246809D01*
X146346522Y-112246809D02*
X146298903Y-112318238D01*
X146298903Y-112318238D02*
X146251284Y-112365857D01*
X146251284Y-112365857D02*
X146203665Y-112389666D01*
%TO.C,C25*%
X152831190Y-101331192D02*
X152855000Y-101355001D01*
X152855000Y-101355001D02*
X152878809Y-101426430D01*
X152878809Y-101426430D02*
X152878809Y-101474049D01*
X152878809Y-101474049D02*
X152855000Y-101545477D01*
X152855000Y-101545477D02*
X152807380Y-101593096D01*
X152807380Y-101593096D02*
X152759761Y-101616906D01*
X152759761Y-101616906D02*
X152664523Y-101640715D01*
X152664523Y-101640715D02*
X152593095Y-101640715D01*
X152593095Y-101640715D02*
X152497857Y-101616906D01*
X152497857Y-101616906D02*
X152450238Y-101593096D01*
X152450238Y-101593096D02*
X152402619Y-101545477D01*
X152402619Y-101545477D02*
X152378809Y-101474049D01*
X152378809Y-101474049D02*
X152378809Y-101426430D01*
X152378809Y-101426430D02*
X152402619Y-101355001D01*
X152402619Y-101355001D02*
X152426428Y-101331192D01*
X152426428Y-101140715D02*
X152402619Y-101116906D01*
X152402619Y-101116906D02*
X152378809Y-101069287D01*
X152378809Y-101069287D02*
X152378809Y-100950239D01*
X152378809Y-100950239D02*
X152402619Y-100902620D01*
X152402619Y-100902620D02*
X152426428Y-100878811D01*
X152426428Y-100878811D02*
X152474047Y-100855001D01*
X152474047Y-100855001D02*
X152521666Y-100855001D01*
X152521666Y-100855001D02*
X152593095Y-100878811D01*
X152593095Y-100878811D02*
X152878809Y-101164525D01*
X152878809Y-101164525D02*
X152878809Y-100855001D01*
X152378809Y-100402621D02*
X152378809Y-100640716D01*
X152378809Y-100640716D02*
X152616904Y-100664525D01*
X152616904Y-100664525D02*
X152593095Y-100640716D01*
X152593095Y-100640716D02*
X152569285Y-100593097D01*
X152569285Y-100593097D02*
X152569285Y-100474049D01*
X152569285Y-100474049D02*
X152593095Y-100426430D01*
X152593095Y-100426430D02*
X152616904Y-100402621D01*
X152616904Y-100402621D02*
X152664523Y-100378811D01*
X152664523Y-100378811D02*
X152783571Y-100378811D01*
X152783571Y-100378811D02*
X152831190Y-100402621D01*
X152831190Y-100402621D02*
X152855000Y-100426430D01*
X152855000Y-100426430D02*
X152878809Y-100474049D01*
X152878809Y-100474049D02*
X152878809Y-100593097D01*
X152878809Y-100593097D02*
X152855000Y-100640716D01*
X152855000Y-100640716D02*
X152831190Y-100664525D01*
%TO.C,C14*%
X145846190Y-91044192D02*
X145870000Y-91068001D01*
X145870000Y-91068001D02*
X145893809Y-91139430D01*
X145893809Y-91139430D02*
X145893809Y-91187049D01*
X145893809Y-91187049D02*
X145870000Y-91258477D01*
X145870000Y-91258477D02*
X145822380Y-91306096D01*
X145822380Y-91306096D02*
X145774761Y-91329906D01*
X145774761Y-91329906D02*
X145679523Y-91353715D01*
X145679523Y-91353715D02*
X145608095Y-91353715D01*
X145608095Y-91353715D02*
X145512857Y-91329906D01*
X145512857Y-91329906D02*
X145465238Y-91306096D01*
X145465238Y-91306096D02*
X145417619Y-91258477D01*
X145417619Y-91258477D02*
X145393809Y-91187049D01*
X145393809Y-91187049D02*
X145393809Y-91139430D01*
X145393809Y-91139430D02*
X145417619Y-91068001D01*
X145417619Y-91068001D02*
X145441428Y-91044192D01*
X145893809Y-90568001D02*
X145893809Y-90853715D01*
X145893809Y-90710858D02*
X145393809Y-90710858D01*
X145393809Y-90710858D02*
X145465238Y-90758477D01*
X145465238Y-90758477D02*
X145512857Y-90806096D01*
X145512857Y-90806096D02*
X145536666Y-90853715D01*
X145560476Y-90139430D02*
X145893809Y-90139430D01*
X145370000Y-90258478D02*
X145727142Y-90377525D01*
X145727142Y-90377525D02*
X145727142Y-90068002D01*
%TO.C,C6*%
X147572902Y-106476190D02*
X147549093Y-106500000D01*
X147549093Y-106500000D02*
X147477664Y-106523809D01*
X147477664Y-106523809D02*
X147430045Y-106523809D01*
X147430045Y-106523809D02*
X147358617Y-106500000D01*
X147358617Y-106500000D02*
X147310998Y-106452380D01*
X147310998Y-106452380D02*
X147287188Y-106404761D01*
X147287188Y-106404761D02*
X147263379Y-106309523D01*
X147263379Y-106309523D02*
X147263379Y-106238095D01*
X147263379Y-106238095D02*
X147287188Y-106142857D01*
X147287188Y-106142857D02*
X147310998Y-106095238D01*
X147310998Y-106095238D02*
X147358617Y-106047619D01*
X147358617Y-106047619D02*
X147430045Y-106023809D01*
X147430045Y-106023809D02*
X147477664Y-106023809D01*
X147477664Y-106023809D02*
X147549093Y-106047619D01*
X147549093Y-106047619D02*
X147572902Y-106071428D01*
X148001474Y-106023809D02*
X147906236Y-106023809D01*
X147906236Y-106023809D02*
X147858617Y-106047619D01*
X147858617Y-106047619D02*
X147834807Y-106071428D01*
X147834807Y-106071428D02*
X147787188Y-106142857D01*
X147787188Y-106142857D02*
X147763379Y-106238095D01*
X147763379Y-106238095D02*
X147763379Y-106428571D01*
X147763379Y-106428571D02*
X147787188Y-106476190D01*
X147787188Y-106476190D02*
X147810998Y-106500000D01*
X147810998Y-106500000D02*
X147858617Y-106523809D01*
X147858617Y-106523809D02*
X147953855Y-106523809D01*
X147953855Y-106523809D02*
X148001474Y-106500000D01*
X148001474Y-106500000D02*
X148025283Y-106476190D01*
X148025283Y-106476190D02*
X148049093Y-106428571D01*
X148049093Y-106428571D02*
X148049093Y-106309523D01*
X148049093Y-106309523D02*
X148025283Y-106261904D01*
X148025283Y-106261904D02*
X148001474Y-106238095D01*
X148001474Y-106238095D02*
X147953855Y-106214285D01*
X147953855Y-106214285D02*
X147858617Y-106214285D01*
X147858617Y-106214285D02*
X147810998Y-106238095D01*
X147810998Y-106238095D02*
X147787188Y-106261904D01*
X147787188Y-106261904D02*
X147763379Y-106309523D01*
%TO.C,R6*%
X142238902Y-87854809D02*
X142072236Y-87616714D01*
X141953188Y-87854809D02*
X141953188Y-87354809D01*
X141953188Y-87354809D02*
X142143664Y-87354809D01*
X142143664Y-87354809D02*
X142191283Y-87378619D01*
X142191283Y-87378619D02*
X142215093Y-87402428D01*
X142215093Y-87402428D02*
X142238902Y-87450047D01*
X142238902Y-87450047D02*
X142238902Y-87521476D01*
X142238902Y-87521476D02*
X142215093Y-87569095D01*
X142215093Y-87569095D02*
X142191283Y-87592904D01*
X142191283Y-87592904D02*
X142143664Y-87616714D01*
X142143664Y-87616714D02*
X141953188Y-87616714D01*
X142667474Y-87354809D02*
X142572236Y-87354809D01*
X142572236Y-87354809D02*
X142524617Y-87378619D01*
X142524617Y-87378619D02*
X142500807Y-87402428D01*
X142500807Y-87402428D02*
X142453188Y-87473857D01*
X142453188Y-87473857D02*
X142429379Y-87569095D01*
X142429379Y-87569095D02*
X142429379Y-87759571D01*
X142429379Y-87759571D02*
X142453188Y-87807190D01*
X142453188Y-87807190D02*
X142476998Y-87831000D01*
X142476998Y-87831000D02*
X142524617Y-87854809D01*
X142524617Y-87854809D02*
X142619855Y-87854809D01*
X142619855Y-87854809D02*
X142667474Y-87831000D01*
X142667474Y-87831000D02*
X142691283Y-87807190D01*
X142691283Y-87807190D02*
X142715093Y-87759571D01*
X142715093Y-87759571D02*
X142715093Y-87640523D01*
X142715093Y-87640523D02*
X142691283Y-87592904D01*
X142691283Y-87592904D02*
X142667474Y-87569095D01*
X142667474Y-87569095D02*
X142619855Y-87545285D01*
X142619855Y-87545285D02*
X142524617Y-87545285D01*
X142524617Y-87545285D02*
X142476998Y-87569095D01*
X142476998Y-87569095D02*
X142453188Y-87592904D01*
X142453188Y-87592904D02*
X142429379Y-87640523D01*
%TO.C,J3*%
X145965569Y-80421809D02*
X145965569Y-80778952D01*
X145965569Y-80778952D02*
X145941760Y-80850380D01*
X145941760Y-80850380D02*
X145894141Y-80898000D01*
X145894141Y-80898000D02*
X145822712Y-80921809D01*
X145822712Y-80921809D02*
X145775093Y-80921809D01*
X146156045Y-80421809D02*
X146465569Y-80421809D01*
X146465569Y-80421809D02*
X146298902Y-80612285D01*
X146298902Y-80612285D02*
X146370331Y-80612285D01*
X146370331Y-80612285D02*
X146417950Y-80636095D01*
X146417950Y-80636095D02*
X146441759Y-80659904D01*
X146441759Y-80659904D02*
X146465569Y-80707523D01*
X146465569Y-80707523D02*
X146465569Y-80826571D01*
X146465569Y-80826571D02*
X146441759Y-80874190D01*
X146441759Y-80874190D02*
X146417950Y-80898000D01*
X146417950Y-80898000D02*
X146370331Y-80921809D01*
X146370331Y-80921809D02*
X146227474Y-80921809D01*
X146227474Y-80921809D02*
X146179855Y-80898000D01*
X146179855Y-80898000D02*
X146156045Y-80874190D01*
%TO.C,H2*%
X164801283Y-93544809D02*
X164801283Y-93044809D01*
X164801283Y-93282904D02*
X165086997Y-93282904D01*
X165086997Y-93544809D02*
X165086997Y-93044809D01*
X165301284Y-93092428D02*
X165325093Y-93068619D01*
X165325093Y-93068619D02*
X165372712Y-93044809D01*
X165372712Y-93044809D02*
X165491760Y-93044809D01*
X165491760Y-93044809D02*
X165539379Y-93068619D01*
X165539379Y-93068619D02*
X165563188Y-93092428D01*
X165563188Y-93092428D02*
X165586998Y-93140047D01*
X165586998Y-93140047D02*
X165586998Y-93187666D01*
X165586998Y-93187666D02*
X165563188Y-93259095D01*
X165563188Y-93259095D02*
X165277474Y-93544809D01*
X165277474Y-93544809D02*
X165586998Y-93544809D01*
%TO.C,U5*%
X155911283Y-107293809D02*
X155911283Y-107698571D01*
X155911283Y-107698571D02*
X155935093Y-107746190D01*
X155935093Y-107746190D02*
X155958902Y-107770000D01*
X155958902Y-107770000D02*
X156006521Y-107793809D01*
X156006521Y-107793809D02*
X156101759Y-107793809D01*
X156101759Y-107793809D02*
X156149378Y-107770000D01*
X156149378Y-107770000D02*
X156173188Y-107746190D01*
X156173188Y-107746190D02*
X156196997Y-107698571D01*
X156196997Y-107698571D02*
X156196997Y-107293809D01*
X156673188Y-107293809D02*
X156435093Y-107293809D01*
X156435093Y-107293809D02*
X156411284Y-107531904D01*
X156411284Y-107531904D02*
X156435093Y-107508095D01*
X156435093Y-107508095D02*
X156482712Y-107484285D01*
X156482712Y-107484285D02*
X156601760Y-107484285D01*
X156601760Y-107484285D02*
X156649379Y-107508095D01*
X156649379Y-107508095D02*
X156673188Y-107531904D01*
X156673188Y-107531904D02*
X156696998Y-107579523D01*
X156696998Y-107579523D02*
X156696998Y-107698571D01*
X156696998Y-107698571D02*
X156673188Y-107746190D01*
X156673188Y-107746190D02*
X156649379Y-107770000D01*
X156649379Y-107770000D02*
X156601760Y-107793809D01*
X156601760Y-107793809D02*
X156482712Y-107793809D01*
X156482712Y-107793809D02*
X156435093Y-107770000D01*
X156435093Y-107770000D02*
X156411284Y-107746190D01*
%TO.C,C10*%
X149833990Y-93736592D02*
X149857800Y-93760401D01*
X149857800Y-93760401D02*
X149881609Y-93831830D01*
X149881609Y-93831830D02*
X149881609Y-93879449D01*
X149881609Y-93879449D02*
X149857800Y-93950877D01*
X149857800Y-93950877D02*
X149810180Y-93998496D01*
X149810180Y-93998496D02*
X149762561Y-94022306D01*
X149762561Y-94022306D02*
X149667323Y-94046115D01*
X149667323Y-94046115D02*
X149595895Y-94046115D01*
X149595895Y-94046115D02*
X149500657Y-94022306D01*
X149500657Y-94022306D02*
X149453038Y-93998496D01*
X149453038Y-93998496D02*
X149405419Y-93950877D01*
X149405419Y-93950877D02*
X149381609Y-93879449D01*
X149381609Y-93879449D02*
X149381609Y-93831830D01*
X149381609Y-93831830D02*
X149405419Y-93760401D01*
X149405419Y-93760401D02*
X149429228Y-93736592D01*
X149881609Y-93260401D02*
X149881609Y-93546115D01*
X149881609Y-93403258D02*
X149381609Y-93403258D01*
X149381609Y-93403258D02*
X149453038Y-93450877D01*
X149453038Y-93450877D02*
X149500657Y-93498496D01*
X149500657Y-93498496D02*
X149524466Y-93546115D01*
X149381609Y-92950878D02*
X149381609Y-92903259D01*
X149381609Y-92903259D02*
X149405419Y-92855640D01*
X149405419Y-92855640D02*
X149429228Y-92831830D01*
X149429228Y-92831830D02*
X149476847Y-92808021D01*
X149476847Y-92808021D02*
X149572085Y-92784211D01*
X149572085Y-92784211D02*
X149691133Y-92784211D01*
X149691133Y-92784211D02*
X149786371Y-92808021D01*
X149786371Y-92808021D02*
X149833990Y-92831830D01*
X149833990Y-92831830D02*
X149857800Y-92855640D01*
X149857800Y-92855640D02*
X149881609Y-92903259D01*
X149881609Y-92903259D02*
X149881609Y-92950878D01*
X149881609Y-92950878D02*
X149857800Y-92998497D01*
X149857800Y-92998497D02*
X149833990Y-93022306D01*
X149833990Y-93022306D02*
X149786371Y-93046116D01*
X149786371Y-93046116D02*
X149691133Y-93069925D01*
X149691133Y-93069925D02*
X149572085Y-93069925D01*
X149572085Y-93069925D02*
X149476847Y-93046116D01*
X149476847Y-93046116D02*
X149429228Y-93022306D01*
X149429228Y-93022306D02*
X149405419Y-92998497D01*
X149405419Y-92998497D02*
X149381609Y-92950878D01*
%TO.C,C11*%
X150849990Y-93736592D02*
X150873800Y-93760401D01*
X150873800Y-93760401D02*
X150897609Y-93831830D01*
X150897609Y-93831830D02*
X150897609Y-93879449D01*
X150897609Y-93879449D02*
X150873800Y-93950877D01*
X150873800Y-93950877D02*
X150826180Y-93998496D01*
X150826180Y-93998496D02*
X150778561Y-94022306D01*
X150778561Y-94022306D02*
X150683323Y-94046115D01*
X150683323Y-94046115D02*
X150611895Y-94046115D01*
X150611895Y-94046115D02*
X150516657Y-94022306D01*
X150516657Y-94022306D02*
X150469038Y-93998496D01*
X150469038Y-93998496D02*
X150421419Y-93950877D01*
X150421419Y-93950877D02*
X150397609Y-93879449D01*
X150397609Y-93879449D02*
X150397609Y-93831830D01*
X150397609Y-93831830D02*
X150421419Y-93760401D01*
X150421419Y-93760401D02*
X150445228Y-93736592D01*
X150897609Y-93260401D02*
X150897609Y-93546115D01*
X150897609Y-93403258D02*
X150397609Y-93403258D01*
X150397609Y-93403258D02*
X150469038Y-93450877D01*
X150469038Y-93450877D02*
X150516657Y-93498496D01*
X150516657Y-93498496D02*
X150540466Y-93546115D01*
X150897609Y-92784211D02*
X150897609Y-93069925D01*
X150897609Y-92927068D02*
X150397609Y-92927068D01*
X150397609Y-92927068D02*
X150469038Y-92974687D01*
X150469038Y-92974687D02*
X150516657Y-93022306D01*
X150516657Y-93022306D02*
X150540466Y-93069925D01*
%TO.C,D3*%
X135603188Y-82012809D02*
X135603188Y-81512809D01*
X135603188Y-81512809D02*
X135722236Y-81512809D01*
X135722236Y-81512809D02*
X135793664Y-81536619D01*
X135793664Y-81536619D02*
X135841283Y-81584238D01*
X135841283Y-81584238D02*
X135865093Y-81631857D01*
X135865093Y-81631857D02*
X135888902Y-81727095D01*
X135888902Y-81727095D02*
X135888902Y-81798523D01*
X135888902Y-81798523D02*
X135865093Y-81893761D01*
X135865093Y-81893761D02*
X135841283Y-81941380D01*
X135841283Y-81941380D02*
X135793664Y-81989000D01*
X135793664Y-81989000D02*
X135722236Y-82012809D01*
X135722236Y-82012809D02*
X135603188Y-82012809D01*
X136055569Y-81512809D02*
X136365093Y-81512809D01*
X136365093Y-81512809D02*
X136198426Y-81703285D01*
X136198426Y-81703285D02*
X136269855Y-81703285D01*
X136269855Y-81703285D02*
X136317474Y-81727095D01*
X136317474Y-81727095D02*
X136341283Y-81750904D01*
X136341283Y-81750904D02*
X136365093Y-81798523D01*
X136365093Y-81798523D02*
X136365093Y-81917571D01*
X136365093Y-81917571D02*
X136341283Y-81965190D01*
X136341283Y-81965190D02*
X136317474Y-81989000D01*
X136317474Y-81989000D02*
X136269855Y-82012809D01*
X136269855Y-82012809D02*
X136126998Y-82012809D01*
X136126998Y-82012809D02*
X136079379Y-81989000D01*
X136079379Y-81989000D02*
X136055569Y-81965190D01*
%TO.C,C17*%
X152831190Y-104379192D02*
X152855000Y-104403001D01*
X152855000Y-104403001D02*
X152878809Y-104474430D01*
X152878809Y-104474430D02*
X152878809Y-104522049D01*
X152878809Y-104522049D02*
X152855000Y-104593477D01*
X152855000Y-104593477D02*
X152807380Y-104641096D01*
X152807380Y-104641096D02*
X152759761Y-104664906D01*
X152759761Y-104664906D02*
X152664523Y-104688715D01*
X152664523Y-104688715D02*
X152593095Y-104688715D01*
X152593095Y-104688715D02*
X152497857Y-104664906D01*
X152497857Y-104664906D02*
X152450238Y-104641096D01*
X152450238Y-104641096D02*
X152402619Y-104593477D01*
X152402619Y-104593477D02*
X152378809Y-104522049D01*
X152378809Y-104522049D02*
X152378809Y-104474430D01*
X152378809Y-104474430D02*
X152402619Y-104403001D01*
X152402619Y-104403001D02*
X152426428Y-104379192D01*
X152878809Y-103903001D02*
X152878809Y-104188715D01*
X152878809Y-104045858D02*
X152378809Y-104045858D01*
X152378809Y-104045858D02*
X152450238Y-104093477D01*
X152450238Y-104093477D02*
X152497857Y-104141096D01*
X152497857Y-104141096D02*
X152521666Y-104188715D01*
X152378809Y-103736335D02*
X152378809Y-103403002D01*
X152378809Y-103403002D02*
X152878809Y-103617287D01*
%TO.C,C2*%
X143635902Y-108381190D02*
X143612093Y-108405000D01*
X143612093Y-108405000D02*
X143540664Y-108428809D01*
X143540664Y-108428809D02*
X143493045Y-108428809D01*
X143493045Y-108428809D02*
X143421617Y-108405000D01*
X143421617Y-108405000D02*
X143373998Y-108357380D01*
X143373998Y-108357380D02*
X143350188Y-108309761D01*
X143350188Y-108309761D02*
X143326379Y-108214523D01*
X143326379Y-108214523D02*
X143326379Y-108143095D01*
X143326379Y-108143095D02*
X143350188Y-108047857D01*
X143350188Y-108047857D02*
X143373998Y-108000238D01*
X143373998Y-108000238D02*
X143421617Y-107952619D01*
X143421617Y-107952619D02*
X143493045Y-107928809D01*
X143493045Y-107928809D02*
X143540664Y-107928809D01*
X143540664Y-107928809D02*
X143612093Y-107952619D01*
X143612093Y-107952619D02*
X143635902Y-107976428D01*
X143826379Y-107976428D02*
X143850188Y-107952619D01*
X143850188Y-107952619D02*
X143897807Y-107928809D01*
X143897807Y-107928809D02*
X144016855Y-107928809D01*
X144016855Y-107928809D02*
X144064474Y-107952619D01*
X144064474Y-107952619D02*
X144088283Y-107976428D01*
X144088283Y-107976428D02*
X144112093Y-108024047D01*
X144112093Y-108024047D02*
X144112093Y-108071666D01*
X144112093Y-108071666D02*
X144088283Y-108143095D01*
X144088283Y-108143095D02*
X143802569Y-108428809D01*
X143802569Y-108428809D02*
X144112093Y-108428809D01*
%TO.C,C19*%
X131078807Y-112318190D02*
X131054998Y-112342000D01*
X131054998Y-112342000D02*
X130983569Y-112365809D01*
X130983569Y-112365809D02*
X130935950Y-112365809D01*
X130935950Y-112365809D02*
X130864522Y-112342000D01*
X130864522Y-112342000D02*
X130816903Y-112294380D01*
X130816903Y-112294380D02*
X130793093Y-112246761D01*
X130793093Y-112246761D02*
X130769284Y-112151523D01*
X130769284Y-112151523D02*
X130769284Y-112080095D01*
X130769284Y-112080095D02*
X130793093Y-111984857D01*
X130793093Y-111984857D02*
X130816903Y-111937238D01*
X130816903Y-111937238D02*
X130864522Y-111889619D01*
X130864522Y-111889619D02*
X130935950Y-111865809D01*
X130935950Y-111865809D02*
X130983569Y-111865809D01*
X130983569Y-111865809D02*
X131054998Y-111889619D01*
X131054998Y-111889619D02*
X131078807Y-111913428D01*
X131554998Y-112365809D02*
X131269284Y-112365809D01*
X131412141Y-112365809D02*
X131412141Y-111865809D01*
X131412141Y-111865809D02*
X131364522Y-111937238D01*
X131364522Y-111937238D02*
X131316903Y-111984857D01*
X131316903Y-111984857D02*
X131269284Y-112008666D01*
X131793093Y-112365809D02*
X131888331Y-112365809D01*
X131888331Y-112365809D02*
X131935950Y-112342000D01*
X131935950Y-112342000D02*
X131959759Y-112318190D01*
X131959759Y-112318190D02*
X132007378Y-112246761D01*
X132007378Y-112246761D02*
X132031188Y-112151523D01*
X132031188Y-112151523D02*
X132031188Y-111961047D01*
X132031188Y-111961047D02*
X132007378Y-111913428D01*
X132007378Y-111913428D02*
X131983569Y-111889619D01*
X131983569Y-111889619D02*
X131935950Y-111865809D01*
X131935950Y-111865809D02*
X131840712Y-111865809D01*
X131840712Y-111865809D02*
X131793093Y-111889619D01*
X131793093Y-111889619D02*
X131769283Y-111913428D01*
X131769283Y-111913428D02*
X131745474Y-111961047D01*
X131745474Y-111961047D02*
X131745474Y-112080095D01*
X131745474Y-112080095D02*
X131769283Y-112127714D01*
X131769283Y-112127714D02*
X131793093Y-112151523D01*
X131793093Y-112151523D02*
X131840712Y-112175333D01*
X131840712Y-112175333D02*
X131935950Y-112175333D01*
X131935950Y-112175333D02*
X131983569Y-112151523D01*
X131983569Y-112151523D02*
X132007378Y-112127714D01*
X132007378Y-112127714D02*
X132031188Y-112080095D01*
%TO.C,IC1*%
X141453141Y-97345255D02*
X141453141Y-96845255D01*
X141976950Y-97297636D02*
X141953141Y-97321446D01*
X141953141Y-97321446D02*
X141881712Y-97345255D01*
X141881712Y-97345255D02*
X141834093Y-97345255D01*
X141834093Y-97345255D02*
X141762665Y-97321446D01*
X141762665Y-97321446D02*
X141715046Y-97273826D01*
X141715046Y-97273826D02*
X141691236Y-97226207D01*
X141691236Y-97226207D02*
X141667427Y-97130969D01*
X141667427Y-97130969D02*
X141667427Y-97059541D01*
X141667427Y-97059541D02*
X141691236Y-96964303D01*
X141691236Y-96964303D02*
X141715046Y-96916684D01*
X141715046Y-96916684D02*
X141762665Y-96869065D01*
X141762665Y-96869065D02*
X141834093Y-96845255D01*
X141834093Y-96845255D02*
X141881712Y-96845255D01*
X141881712Y-96845255D02*
X141953141Y-96869065D01*
X141953141Y-96869065D02*
X141976950Y-96892874D01*
X142453141Y-97345255D02*
X142167427Y-97345255D01*
X142310284Y-97345255D02*
X142310284Y-96845255D01*
X142310284Y-96845255D02*
X142262665Y-96916684D01*
X142262665Y-96916684D02*
X142215046Y-96964303D01*
X142215046Y-96964303D02*
X142167427Y-96988112D01*
%TO.C,R1*%
X140714902Y-91918809D02*
X140548236Y-91680714D01*
X140429188Y-91918809D02*
X140429188Y-91418809D01*
X140429188Y-91418809D02*
X140619664Y-91418809D01*
X140619664Y-91418809D02*
X140667283Y-91442619D01*
X140667283Y-91442619D02*
X140691093Y-91466428D01*
X140691093Y-91466428D02*
X140714902Y-91514047D01*
X140714902Y-91514047D02*
X140714902Y-91585476D01*
X140714902Y-91585476D02*
X140691093Y-91633095D01*
X140691093Y-91633095D02*
X140667283Y-91656904D01*
X140667283Y-91656904D02*
X140619664Y-91680714D01*
X140619664Y-91680714D02*
X140429188Y-91680714D01*
X141191093Y-91918809D02*
X140905379Y-91918809D01*
X141048236Y-91918809D02*
X141048236Y-91418809D01*
X141048236Y-91418809D02*
X141000617Y-91490238D01*
X141000617Y-91490238D02*
X140952998Y-91537857D01*
X140952998Y-91537857D02*
X140905379Y-91561666D01*
%TO.C,H4*%
X164801283Y-111324809D02*
X164801283Y-110824809D01*
X164801283Y-111062904D02*
X165086997Y-111062904D01*
X165086997Y-111324809D02*
X165086997Y-110824809D01*
X165539379Y-110991476D02*
X165539379Y-111324809D01*
X165420331Y-110801000D02*
X165301284Y-111158142D01*
X165301284Y-111158142D02*
X165610807Y-111158142D01*
%TO.C,C12*%
X150890807Y-98348190D02*
X150866998Y-98372000D01*
X150866998Y-98372000D02*
X150795569Y-98395809D01*
X150795569Y-98395809D02*
X150747950Y-98395809D01*
X150747950Y-98395809D02*
X150676522Y-98372000D01*
X150676522Y-98372000D02*
X150628903Y-98324380D01*
X150628903Y-98324380D02*
X150605093Y-98276761D01*
X150605093Y-98276761D02*
X150581284Y-98181523D01*
X150581284Y-98181523D02*
X150581284Y-98110095D01*
X150581284Y-98110095D02*
X150605093Y-98014857D01*
X150605093Y-98014857D02*
X150628903Y-97967238D01*
X150628903Y-97967238D02*
X150676522Y-97919619D01*
X150676522Y-97919619D02*
X150747950Y-97895809D01*
X150747950Y-97895809D02*
X150795569Y-97895809D01*
X150795569Y-97895809D02*
X150866998Y-97919619D01*
X150866998Y-97919619D02*
X150890807Y-97943428D01*
X151366998Y-98395809D02*
X151081284Y-98395809D01*
X151224141Y-98395809D02*
X151224141Y-97895809D01*
X151224141Y-97895809D02*
X151176522Y-97967238D01*
X151176522Y-97967238D02*
X151128903Y-98014857D01*
X151128903Y-98014857D02*
X151081284Y-98038666D01*
X151557474Y-97943428D02*
X151581283Y-97919619D01*
X151581283Y-97919619D02*
X151628902Y-97895809D01*
X151628902Y-97895809D02*
X151747950Y-97895809D01*
X151747950Y-97895809D02*
X151795569Y-97919619D01*
X151795569Y-97919619D02*
X151819378Y-97943428D01*
X151819378Y-97943428D02*
X151843188Y-97991047D01*
X151843188Y-97991047D02*
X151843188Y-98038666D01*
X151843188Y-98038666D02*
X151819378Y-98110095D01*
X151819378Y-98110095D02*
X151533664Y-98395809D01*
X151533664Y-98395809D02*
X151843188Y-98395809D01*
%TO.C,C15*%
X144830190Y-91044192D02*
X144854000Y-91068001D01*
X144854000Y-91068001D02*
X144877809Y-91139430D01*
X144877809Y-91139430D02*
X144877809Y-91187049D01*
X144877809Y-91187049D02*
X144854000Y-91258477D01*
X144854000Y-91258477D02*
X144806380Y-91306096D01*
X144806380Y-91306096D02*
X144758761Y-91329906D01*
X144758761Y-91329906D02*
X144663523Y-91353715D01*
X144663523Y-91353715D02*
X144592095Y-91353715D01*
X144592095Y-91353715D02*
X144496857Y-91329906D01*
X144496857Y-91329906D02*
X144449238Y-91306096D01*
X144449238Y-91306096D02*
X144401619Y-91258477D01*
X144401619Y-91258477D02*
X144377809Y-91187049D01*
X144377809Y-91187049D02*
X144377809Y-91139430D01*
X144377809Y-91139430D02*
X144401619Y-91068001D01*
X144401619Y-91068001D02*
X144425428Y-91044192D01*
X144877809Y-90568001D02*
X144877809Y-90853715D01*
X144877809Y-90710858D02*
X144377809Y-90710858D01*
X144377809Y-90710858D02*
X144449238Y-90758477D01*
X144449238Y-90758477D02*
X144496857Y-90806096D01*
X144496857Y-90806096D02*
X144520666Y-90853715D01*
X144377809Y-90115621D02*
X144377809Y-90353716D01*
X144377809Y-90353716D02*
X144615904Y-90377525D01*
X144615904Y-90377525D02*
X144592095Y-90353716D01*
X144592095Y-90353716D02*
X144568285Y-90306097D01*
X144568285Y-90306097D02*
X144568285Y-90187049D01*
X144568285Y-90187049D02*
X144592095Y-90139430D01*
X144592095Y-90139430D02*
X144615904Y-90115621D01*
X144615904Y-90115621D02*
X144663523Y-90091811D01*
X144663523Y-90091811D02*
X144782571Y-90091811D01*
X144782571Y-90091811D02*
X144830190Y-90115621D01*
X144830190Y-90115621D02*
X144854000Y-90139430D01*
X144854000Y-90139430D02*
X144877809Y-90187049D01*
X144877809Y-90187049D02*
X144877809Y-90306097D01*
X144877809Y-90306097D02*
X144854000Y-90353716D01*
X144854000Y-90353716D02*
X144830190Y-90377525D01*
%TO.C,C20*%
X139623190Y-98029192D02*
X139647000Y-98053001D01*
X139647000Y-98053001D02*
X139670809Y-98124430D01*
X139670809Y-98124430D02*
X139670809Y-98172049D01*
X139670809Y-98172049D02*
X139647000Y-98243477D01*
X139647000Y-98243477D02*
X139599380Y-98291096D01*
X139599380Y-98291096D02*
X139551761Y-98314906D01*
X139551761Y-98314906D02*
X139456523Y-98338715D01*
X139456523Y-98338715D02*
X139385095Y-98338715D01*
X139385095Y-98338715D02*
X139289857Y-98314906D01*
X139289857Y-98314906D02*
X139242238Y-98291096D01*
X139242238Y-98291096D02*
X139194619Y-98243477D01*
X139194619Y-98243477D02*
X139170809Y-98172049D01*
X139170809Y-98172049D02*
X139170809Y-98124430D01*
X139170809Y-98124430D02*
X139194619Y-98053001D01*
X139194619Y-98053001D02*
X139218428Y-98029192D01*
X139218428Y-97838715D02*
X139194619Y-97814906D01*
X139194619Y-97814906D02*
X139170809Y-97767287D01*
X139170809Y-97767287D02*
X139170809Y-97648239D01*
X139170809Y-97648239D02*
X139194619Y-97600620D01*
X139194619Y-97600620D02*
X139218428Y-97576811D01*
X139218428Y-97576811D02*
X139266047Y-97553001D01*
X139266047Y-97553001D02*
X139313666Y-97553001D01*
X139313666Y-97553001D02*
X139385095Y-97576811D01*
X139385095Y-97576811D02*
X139670809Y-97862525D01*
X139670809Y-97862525D02*
X139670809Y-97553001D01*
X139170809Y-97243478D02*
X139170809Y-97195859D01*
X139170809Y-97195859D02*
X139194619Y-97148240D01*
X139194619Y-97148240D02*
X139218428Y-97124430D01*
X139218428Y-97124430D02*
X139266047Y-97100621D01*
X139266047Y-97100621D02*
X139361285Y-97076811D01*
X139361285Y-97076811D02*
X139480333Y-97076811D01*
X139480333Y-97076811D02*
X139575571Y-97100621D01*
X139575571Y-97100621D02*
X139623190Y-97124430D01*
X139623190Y-97124430D02*
X139647000Y-97148240D01*
X139647000Y-97148240D02*
X139670809Y-97195859D01*
X139670809Y-97195859D02*
X139670809Y-97243478D01*
X139670809Y-97243478D02*
X139647000Y-97291097D01*
X139647000Y-97291097D02*
X139623190Y-97314906D01*
X139623190Y-97314906D02*
X139575571Y-97338716D01*
X139575571Y-97338716D02*
X139480333Y-97362525D01*
X139480333Y-97362525D02*
X139361285Y-97362525D01*
X139361285Y-97362525D02*
X139266047Y-97338716D01*
X139266047Y-97338716D02*
X139218428Y-97314906D01*
X139218428Y-97314906D02*
X139194619Y-97291097D01*
X139194619Y-97291097D02*
X139170809Y-97243478D01*
%TO.C,C16*%
X140730807Y-98475190D02*
X140706998Y-98499000D01*
X140706998Y-98499000D02*
X140635569Y-98522809D01*
X140635569Y-98522809D02*
X140587950Y-98522809D01*
X140587950Y-98522809D02*
X140516522Y-98499000D01*
X140516522Y-98499000D02*
X140468903Y-98451380D01*
X140468903Y-98451380D02*
X140445093Y-98403761D01*
X140445093Y-98403761D02*
X140421284Y-98308523D01*
X140421284Y-98308523D02*
X140421284Y-98237095D01*
X140421284Y-98237095D02*
X140445093Y-98141857D01*
X140445093Y-98141857D02*
X140468903Y-98094238D01*
X140468903Y-98094238D02*
X140516522Y-98046619D01*
X140516522Y-98046619D02*
X140587950Y-98022809D01*
X140587950Y-98022809D02*
X140635569Y-98022809D01*
X140635569Y-98022809D02*
X140706998Y-98046619D01*
X140706998Y-98046619D02*
X140730807Y-98070428D01*
X141206998Y-98522809D02*
X140921284Y-98522809D01*
X141064141Y-98522809D02*
X141064141Y-98022809D01*
X141064141Y-98022809D02*
X141016522Y-98094238D01*
X141016522Y-98094238D02*
X140968903Y-98141857D01*
X140968903Y-98141857D02*
X140921284Y-98165666D01*
X141635569Y-98022809D02*
X141540331Y-98022809D01*
X141540331Y-98022809D02*
X141492712Y-98046619D01*
X141492712Y-98046619D02*
X141468902Y-98070428D01*
X141468902Y-98070428D02*
X141421283Y-98141857D01*
X141421283Y-98141857D02*
X141397474Y-98237095D01*
X141397474Y-98237095D02*
X141397474Y-98427571D01*
X141397474Y-98427571D02*
X141421283Y-98475190D01*
X141421283Y-98475190D02*
X141445093Y-98499000D01*
X141445093Y-98499000D02*
X141492712Y-98522809D01*
X141492712Y-98522809D02*
X141587950Y-98522809D01*
X141587950Y-98522809D02*
X141635569Y-98499000D01*
X141635569Y-98499000D02*
X141659378Y-98475190D01*
X141659378Y-98475190D02*
X141683188Y-98427571D01*
X141683188Y-98427571D02*
X141683188Y-98308523D01*
X141683188Y-98308523D02*
X141659378Y-98260904D01*
X141659378Y-98260904D02*
X141635569Y-98237095D01*
X141635569Y-98237095D02*
X141587950Y-98213285D01*
X141587950Y-98213285D02*
X141492712Y-98213285D01*
X141492712Y-98213285D02*
X141445093Y-98237095D01*
X141445093Y-98237095D02*
X141421283Y-98260904D01*
X141421283Y-98260904D02*
X141397474Y-98308523D01*
%TO.C,C22*%
X155589807Y-102539190D02*
X155565998Y-102563000D01*
X155565998Y-102563000D02*
X155494569Y-102586809D01*
X155494569Y-102586809D02*
X155446950Y-102586809D01*
X155446950Y-102586809D02*
X155375522Y-102563000D01*
X155375522Y-102563000D02*
X155327903Y-102515380D01*
X155327903Y-102515380D02*
X155304093Y-102467761D01*
X155304093Y-102467761D02*
X155280284Y-102372523D01*
X155280284Y-102372523D02*
X155280284Y-102301095D01*
X155280284Y-102301095D02*
X155304093Y-102205857D01*
X155304093Y-102205857D02*
X155327903Y-102158238D01*
X155327903Y-102158238D02*
X155375522Y-102110619D01*
X155375522Y-102110619D02*
X155446950Y-102086809D01*
X155446950Y-102086809D02*
X155494569Y-102086809D01*
X155494569Y-102086809D02*
X155565998Y-102110619D01*
X155565998Y-102110619D02*
X155589807Y-102134428D01*
X155780284Y-102134428D02*
X155804093Y-102110619D01*
X155804093Y-102110619D02*
X155851712Y-102086809D01*
X155851712Y-102086809D02*
X155970760Y-102086809D01*
X155970760Y-102086809D02*
X156018379Y-102110619D01*
X156018379Y-102110619D02*
X156042188Y-102134428D01*
X156042188Y-102134428D02*
X156065998Y-102182047D01*
X156065998Y-102182047D02*
X156065998Y-102229666D01*
X156065998Y-102229666D02*
X156042188Y-102301095D01*
X156042188Y-102301095D02*
X155756474Y-102586809D01*
X155756474Y-102586809D02*
X156065998Y-102586809D01*
X156256474Y-102134428D02*
X156280283Y-102110619D01*
X156280283Y-102110619D02*
X156327902Y-102086809D01*
X156327902Y-102086809D02*
X156446950Y-102086809D01*
X156446950Y-102086809D02*
X156494569Y-102110619D01*
X156494569Y-102110619D02*
X156518378Y-102134428D01*
X156518378Y-102134428D02*
X156542188Y-102182047D01*
X156542188Y-102182047D02*
X156542188Y-102229666D01*
X156542188Y-102229666D02*
X156518378Y-102301095D01*
X156518378Y-102301095D02*
X156232664Y-102586809D01*
X156232664Y-102586809D02*
X156542188Y-102586809D01*
%TO.C,C3*%
X149731902Y-110413190D02*
X149708093Y-110437000D01*
X149708093Y-110437000D02*
X149636664Y-110460809D01*
X149636664Y-110460809D02*
X149589045Y-110460809D01*
X149589045Y-110460809D02*
X149517617Y-110437000D01*
X149517617Y-110437000D02*
X149469998Y-110389380D01*
X149469998Y-110389380D02*
X149446188Y-110341761D01*
X149446188Y-110341761D02*
X149422379Y-110246523D01*
X149422379Y-110246523D02*
X149422379Y-110175095D01*
X149422379Y-110175095D02*
X149446188Y-110079857D01*
X149446188Y-110079857D02*
X149469998Y-110032238D01*
X149469998Y-110032238D02*
X149517617Y-109984619D01*
X149517617Y-109984619D02*
X149589045Y-109960809D01*
X149589045Y-109960809D02*
X149636664Y-109960809D01*
X149636664Y-109960809D02*
X149708093Y-109984619D01*
X149708093Y-109984619D02*
X149731902Y-110008428D01*
X149898569Y-109960809D02*
X150208093Y-109960809D01*
X150208093Y-109960809D02*
X150041426Y-110151285D01*
X150041426Y-110151285D02*
X150112855Y-110151285D01*
X150112855Y-110151285D02*
X150160474Y-110175095D01*
X150160474Y-110175095D02*
X150184283Y-110198904D01*
X150184283Y-110198904D02*
X150208093Y-110246523D01*
X150208093Y-110246523D02*
X150208093Y-110365571D01*
X150208093Y-110365571D02*
X150184283Y-110413190D01*
X150184283Y-110413190D02*
X150160474Y-110437000D01*
X150160474Y-110437000D02*
X150112855Y-110460809D01*
X150112855Y-110460809D02*
X149969998Y-110460809D01*
X149969998Y-110460809D02*
X149922379Y-110437000D01*
X149922379Y-110437000D02*
X149898569Y-110413190D01*
%TO.C,R8*%
X138654809Y-102617097D02*
X138416714Y-102783763D01*
X138654809Y-102902811D02*
X138154809Y-102902811D01*
X138154809Y-102902811D02*
X138154809Y-102712335D01*
X138154809Y-102712335D02*
X138178619Y-102664716D01*
X138178619Y-102664716D02*
X138202428Y-102640906D01*
X138202428Y-102640906D02*
X138250047Y-102617097D01*
X138250047Y-102617097D02*
X138321476Y-102617097D01*
X138321476Y-102617097D02*
X138369095Y-102640906D01*
X138369095Y-102640906D02*
X138392904Y-102664716D01*
X138392904Y-102664716D02*
X138416714Y-102712335D01*
X138416714Y-102712335D02*
X138416714Y-102902811D01*
X138369095Y-102331382D02*
X138345285Y-102379001D01*
X138345285Y-102379001D02*
X138321476Y-102402811D01*
X138321476Y-102402811D02*
X138273857Y-102426620D01*
X138273857Y-102426620D02*
X138250047Y-102426620D01*
X138250047Y-102426620D02*
X138202428Y-102402811D01*
X138202428Y-102402811D02*
X138178619Y-102379001D01*
X138178619Y-102379001D02*
X138154809Y-102331382D01*
X138154809Y-102331382D02*
X138154809Y-102236144D01*
X138154809Y-102236144D02*
X138178619Y-102188525D01*
X138178619Y-102188525D02*
X138202428Y-102164716D01*
X138202428Y-102164716D02*
X138250047Y-102140906D01*
X138250047Y-102140906D02*
X138273857Y-102140906D01*
X138273857Y-102140906D02*
X138321476Y-102164716D01*
X138321476Y-102164716D02*
X138345285Y-102188525D01*
X138345285Y-102188525D02*
X138369095Y-102236144D01*
X138369095Y-102236144D02*
X138369095Y-102331382D01*
X138369095Y-102331382D02*
X138392904Y-102379001D01*
X138392904Y-102379001D02*
X138416714Y-102402811D01*
X138416714Y-102402811D02*
X138464333Y-102426620D01*
X138464333Y-102426620D02*
X138559571Y-102426620D01*
X138559571Y-102426620D02*
X138607190Y-102402811D01*
X138607190Y-102402811D02*
X138631000Y-102379001D01*
X138631000Y-102379001D02*
X138654809Y-102331382D01*
X138654809Y-102331382D02*
X138654809Y-102236144D01*
X138654809Y-102236144D02*
X138631000Y-102188525D01*
X138631000Y-102188525D02*
X138607190Y-102164716D01*
X138607190Y-102164716D02*
X138559571Y-102140906D01*
X138559571Y-102140906D02*
X138464333Y-102140906D01*
X138464333Y-102140906D02*
X138416714Y-102164716D01*
X138416714Y-102164716D02*
X138392904Y-102188525D01*
X138392904Y-102188525D02*
X138369095Y-102236144D01*
%TO.C,C4*%
X153033902Y-96316190D02*
X153010093Y-96340000D01*
X153010093Y-96340000D02*
X152938664Y-96363809D01*
X152938664Y-96363809D02*
X152891045Y-96363809D01*
X152891045Y-96363809D02*
X152819617Y-96340000D01*
X152819617Y-96340000D02*
X152771998Y-96292380D01*
X152771998Y-96292380D02*
X152748188Y-96244761D01*
X152748188Y-96244761D02*
X152724379Y-96149523D01*
X152724379Y-96149523D02*
X152724379Y-96078095D01*
X152724379Y-96078095D02*
X152748188Y-95982857D01*
X152748188Y-95982857D02*
X152771998Y-95935238D01*
X152771998Y-95935238D02*
X152819617Y-95887619D01*
X152819617Y-95887619D02*
X152891045Y-95863809D01*
X152891045Y-95863809D02*
X152938664Y-95863809D01*
X152938664Y-95863809D02*
X153010093Y-95887619D01*
X153010093Y-95887619D02*
X153033902Y-95911428D01*
X153462474Y-96030476D02*
X153462474Y-96363809D01*
X153343426Y-95840000D02*
X153224379Y-96197142D01*
X153224379Y-96197142D02*
X153533902Y-96197142D01*
%TO.C,C1*%
X158494902Y-91363190D02*
X158471093Y-91387000D01*
X158471093Y-91387000D02*
X158399664Y-91410809D01*
X158399664Y-91410809D02*
X158352045Y-91410809D01*
X158352045Y-91410809D02*
X158280617Y-91387000D01*
X158280617Y-91387000D02*
X158232998Y-91339380D01*
X158232998Y-91339380D02*
X158209188Y-91291761D01*
X158209188Y-91291761D02*
X158185379Y-91196523D01*
X158185379Y-91196523D02*
X158185379Y-91125095D01*
X158185379Y-91125095D02*
X158209188Y-91029857D01*
X158209188Y-91029857D02*
X158232998Y-90982238D01*
X158232998Y-90982238D02*
X158280617Y-90934619D01*
X158280617Y-90934619D02*
X158352045Y-90910809D01*
X158352045Y-90910809D02*
X158399664Y-90910809D01*
X158399664Y-90910809D02*
X158471093Y-90934619D01*
X158471093Y-90934619D02*
X158494902Y-90958428D01*
X158971093Y-91410809D02*
X158685379Y-91410809D01*
X158828236Y-91410809D02*
X158828236Y-90910809D01*
X158828236Y-90910809D02*
X158780617Y-90982238D01*
X158780617Y-90982238D02*
X158732998Y-91029857D01*
X158732998Y-91029857D02*
X158685379Y-91053666D01*
%TO.C,C21*%
X138190807Y-107492190D02*
X138166998Y-107516000D01*
X138166998Y-107516000D02*
X138095569Y-107539809D01*
X138095569Y-107539809D02*
X138047950Y-107539809D01*
X138047950Y-107539809D02*
X137976522Y-107516000D01*
X137976522Y-107516000D02*
X137928903Y-107468380D01*
X137928903Y-107468380D02*
X137905093Y-107420761D01*
X137905093Y-107420761D02*
X137881284Y-107325523D01*
X137881284Y-107325523D02*
X137881284Y-107254095D01*
X137881284Y-107254095D02*
X137905093Y-107158857D01*
X137905093Y-107158857D02*
X137928903Y-107111238D01*
X137928903Y-107111238D02*
X137976522Y-107063619D01*
X137976522Y-107063619D02*
X138047950Y-107039809D01*
X138047950Y-107039809D02*
X138095569Y-107039809D01*
X138095569Y-107039809D02*
X138166998Y-107063619D01*
X138166998Y-107063619D02*
X138190807Y-107087428D01*
X138381284Y-107087428D02*
X138405093Y-107063619D01*
X138405093Y-107063619D02*
X138452712Y-107039809D01*
X138452712Y-107039809D02*
X138571760Y-107039809D01*
X138571760Y-107039809D02*
X138619379Y-107063619D01*
X138619379Y-107063619D02*
X138643188Y-107087428D01*
X138643188Y-107087428D02*
X138666998Y-107135047D01*
X138666998Y-107135047D02*
X138666998Y-107182666D01*
X138666998Y-107182666D02*
X138643188Y-107254095D01*
X138643188Y-107254095D02*
X138357474Y-107539809D01*
X138357474Y-107539809D02*
X138666998Y-107539809D01*
X139143188Y-107539809D02*
X138857474Y-107539809D01*
X139000331Y-107539809D02*
X139000331Y-107039809D01*
X139000331Y-107039809D02*
X138952712Y-107111238D01*
X138952712Y-107111238D02*
X138905093Y-107158857D01*
X138905093Y-107158857D02*
X138857474Y-107182666D01*
%TO.C,C24*%
X153049807Y-83743190D02*
X153025998Y-83767000D01*
X153025998Y-83767000D02*
X152954569Y-83790809D01*
X152954569Y-83790809D02*
X152906950Y-83790809D01*
X152906950Y-83790809D02*
X152835522Y-83767000D01*
X152835522Y-83767000D02*
X152787903Y-83719380D01*
X152787903Y-83719380D02*
X152764093Y-83671761D01*
X152764093Y-83671761D02*
X152740284Y-83576523D01*
X152740284Y-83576523D02*
X152740284Y-83505095D01*
X152740284Y-83505095D02*
X152764093Y-83409857D01*
X152764093Y-83409857D02*
X152787903Y-83362238D01*
X152787903Y-83362238D02*
X152835522Y-83314619D01*
X152835522Y-83314619D02*
X152906950Y-83290809D01*
X152906950Y-83290809D02*
X152954569Y-83290809D01*
X152954569Y-83290809D02*
X153025998Y-83314619D01*
X153025998Y-83314619D02*
X153049807Y-83338428D01*
X153240284Y-83338428D02*
X153264093Y-83314619D01*
X153264093Y-83314619D02*
X153311712Y-83290809D01*
X153311712Y-83290809D02*
X153430760Y-83290809D01*
X153430760Y-83290809D02*
X153478379Y-83314619D01*
X153478379Y-83314619D02*
X153502188Y-83338428D01*
X153502188Y-83338428D02*
X153525998Y-83386047D01*
X153525998Y-83386047D02*
X153525998Y-83433666D01*
X153525998Y-83433666D02*
X153502188Y-83505095D01*
X153502188Y-83505095D02*
X153216474Y-83790809D01*
X153216474Y-83790809D02*
X153525998Y-83790809D01*
X153954569Y-83457476D02*
X153954569Y-83790809D01*
X153835521Y-83267000D02*
X153716474Y-83624142D01*
X153716474Y-83624142D02*
X154025997Y-83624142D01*
%TO.C,D2*%
X135603188Y-97252809D02*
X135603188Y-96752809D01*
X135603188Y-96752809D02*
X135722236Y-96752809D01*
X135722236Y-96752809D02*
X135793664Y-96776619D01*
X135793664Y-96776619D02*
X135841283Y-96824238D01*
X135841283Y-96824238D02*
X135865093Y-96871857D01*
X135865093Y-96871857D02*
X135888902Y-96967095D01*
X135888902Y-96967095D02*
X135888902Y-97038523D01*
X135888902Y-97038523D02*
X135865093Y-97133761D01*
X135865093Y-97133761D02*
X135841283Y-97181380D01*
X135841283Y-97181380D02*
X135793664Y-97229000D01*
X135793664Y-97229000D02*
X135722236Y-97252809D01*
X135722236Y-97252809D02*
X135603188Y-97252809D01*
X136079379Y-96800428D02*
X136103188Y-96776619D01*
X136103188Y-96776619D02*
X136150807Y-96752809D01*
X136150807Y-96752809D02*
X136269855Y-96752809D01*
X136269855Y-96752809D02*
X136317474Y-96776619D01*
X136317474Y-96776619D02*
X136341283Y-96800428D01*
X136341283Y-96800428D02*
X136365093Y-96848047D01*
X136365093Y-96848047D02*
X136365093Y-96895666D01*
X136365093Y-96895666D02*
X136341283Y-96967095D01*
X136341283Y-96967095D02*
X136055569Y-97252809D01*
X136055569Y-97252809D02*
X136365093Y-97252809D01*
%TO.C,F1*%
X156125570Y-87042904D02*
X155958903Y-87042904D01*
X155958903Y-87304809D02*
X155958903Y-86804809D01*
X155958903Y-86804809D02*
X156196998Y-86804809D01*
X156649379Y-87304809D02*
X156363665Y-87304809D01*
X156506522Y-87304809D02*
X156506522Y-86804809D01*
X156506522Y-86804809D02*
X156458903Y-86876238D01*
X156458903Y-86876238D02*
X156411284Y-86923857D01*
X156411284Y-86923857D02*
X156363665Y-86947666D01*
%TO.C,C5*%
X142798190Y-91060097D02*
X142822000Y-91083906D01*
X142822000Y-91083906D02*
X142845809Y-91155335D01*
X142845809Y-91155335D02*
X142845809Y-91202954D01*
X142845809Y-91202954D02*
X142822000Y-91274382D01*
X142822000Y-91274382D02*
X142774380Y-91322001D01*
X142774380Y-91322001D02*
X142726761Y-91345811D01*
X142726761Y-91345811D02*
X142631523Y-91369620D01*
X142631523Y-91369620D02*
X142560095Y-91369620D01*
X142560095Y-91369620D02*
X142464857Y-91345811D01*
X142464857Y-91345811D02*
X142417238Y-91322001D01*
X142417238Y-91322001D02*
X142369619Y-91274382D01*
X142369619Y-91274382D02*
X142345809Y-91202954D01*
X142345809Y-91202954D02*
X142345809Y-91155335D01*
X142345809Y-91155335D02*
X142369619Y-91083906D01*
X142369619Y-91083906D02*
X142393428Y-91060097D01*
X142345809Y-90607716D02*
X142345809Y-90845811D01*
X142345809Y-90845811D02*
X142583904Y-90869620D01*
X142583904Y-90869620D02*
X142560095Y-90845811D01*
X142560095Y-90845811D02*
X142536285Y-90798192D01*
X142536285Y-90798192D02*
X142536285Y-90679144D01*
X142536285Y-90679144D02*
X142560095Y-90631525D01*
X142560095Y-90631525D02*
X142583904Y-90607716D01*
X142583904Y-90607716D02*
X142631523Y-90583906D01*
X142631523Y-90583906D02*
X142750571Y-90583906D01*
X142750571Y-90583906D02*
X142798190Y-90607716D01*
X142798190Y-90607716D02*
X142822000Y-90631525D01*
X142822000Y-90631525D02*
X142845809Y-90679144D01*
X142845809Y-90679144D02*
X142845809Y-90798192D01*
X142845809Y-90798192D02*
X142822000Y-90845811D01*
X142822000Y-90845811D02*
X142798190Y-90869620D01*
%TO.C,R4*%
X148052809Y-91060097D02*
X147814714Y-91226763D01*
X148052809Y-91345811D02*
X147552809Y-91345811D01*
X147552809Y-91345811D02*
X147552809Y-91155335D01*
X147552809Y-91155335D02*
X147576619Y-91107716D01*
X147576619Y-91107716D02*
X147600428Y-91083906D01*
X147600428Y-91083906D02*
X147648047Y-91060097D01*
X147648047Y-91060097D02*
X147719476Y-91060097D01*
X147719476Y-91060097D02*
X147767095Y-91083906D01*
X147767095Y-91083906D02*
X147790904Y-91107716D01*
X147790904Y-91107716D02*
X147814714Y-91155335D01*
X147814714Y-91155335D02*
X147814714Y-91345811D01*
X147719476Y-90631525D02*
X148052809Y-90631525D01*
X147529000Y-90750573D02*
X147886142Y-90869620D01*
X147886142Y-90869620D02*
X147886142Y-90560097D01*
%TO.C,H3*%
X126701283Y-111324809D02*
X126701283Y-110824809D01*
X126701283Y-111062904D02*
X126986997Y-111062904D01*
X126986997Y-111324809D02*
X126986997Y-110824809D01*
X127177474Y-110824809D02*
X127486998Y-110824809D01*
X127486998Y-110824809D02*
X127320331Y-111015285D01*
X127320331Y-111015285D02*
X127391760Y-111015285D01*
X127391760Y-111015285D02*
X127439379Y-111039095D01*
X127439379Y-111039095D02*
X127463188Y-111062904D01*
X127463188Y-111062904D02*
X127486998Y-111110523D01*
X127486998Y-111110523D02*
X127486998Y-111229571D01*
X127486998Y-111229571D02*
X127463188Y-111277190D01*
X127463188Y-111277190D02*
X127439379Y-111301000D01*
X127439379Y-111301000D02*
X127391760Y-111324809D01*
X127391760Y-111324809D02*
X127248903Y-111324809D01*
X127248903Y-111324809D02*
X127201284Y-111301000D01*
X127201284Y-111301000D02*
X127177474Y-111277190D01*
%TO.C,D6*%
X155923188Y-97252809D02*
X155923188Y-96752809D01*
X155923188Y-96752809D02*
X156042236Y-96752809D01*
X156042236Y-96752809D02*
X156113664Y-96776619D01*
X156113664Y-96776619D02*
X156161283Y-96824238D01*
X156161283Y-96824238D02*
X156185093Y-96871857D01*
X156185093Y-96871857D02*
X156208902Y-96967095D01*
X156208902Y-96967095D02*
X156208902Y-97038523D01*
X156208902Y-97038523D02*
X156185093Y-97133761D01*
X156185093Y-97133761D02*
X156161283Y-97181380D01*
X156161283Y-97181380D02*
X156113664Y-97229000D01*
X156113664Y-97229000D02*
X156042236Y-97252809D01*
X156042236Y-97252809D02*
X155923188Y-97252809D01*
X156637474Y-96752809D02*
X156542236Y-96752809D01*
X156542236Y-96752809D02*
X156494617Y-96776619D01*
X156494617Y-96776619D02*
X156470807Y-96800428D01*
X156470807Y-96800428D02*
X156423188Y-96871857D01*
X156423188Y-96871857D02*
X156399379Y-96967095D01*
X156399379Y-96967095D02*
X156399379Y-97157571D01*
X156399379Y-97157571D02*
X156423188Y-97205190D01*
X156423188Y-97205190D02*
X156446998Y-97229000D01*
X156446998Y-97229000D02*
X156494617Y-97252809D01*
X156494617Y-97252809D02*
X156589855Y-97252809D01*
X156589855Y-97252809D02*
X156637474Y-97229000D01*
X156637474Y-97229000D02*
X156661283Y-97205190D01*
X156661283Y-97205190D02*
X156685093Y-97157571D01*
X156685093Y-97157571D02*
X156685093Y-97038523D01*
X156685093Y-97038523D02*
X156661283Y-96990904D01*
X156661283Y-96990904D02*
X156637474Y-96967095D01*
X156637474Y-96967095D02*
X156589855Y-96943285D01*
X156589855Y-96943285D02*
X156494617Y-96943285D01*
X156494617Y-96943285D02*
X156446998Y-96967095D01*
X156446998Y-96967095D02*
X156423188Y-96990904D01*
X156423188Y-96990904D02*
X156399379Y-97038523D01*
%TO.C,U3*%
X145751283Y-96752809D02*
X145751283Y-97157571D01*
X145751283Y-97157571D02*
X145775093Y-97205190D01*
X145775093Y-97205190D02*
X145798902Y-97229000D01*
X145798902Y-97229000D02*
X145846521Y-97252809D01*
X145846521Y-97252809D02*
X145941759Y-97252809D01*
X145941759Y-97252809D02*
X145989378Y-97229000D01*
X145989378Y-97229000D02*
X146013188Y-97205190D01*
X146013188Y-97205190D02*
X146036997Y-97157571D01*
X146036997Y-97157571D02*
X146036997Y-96752809D01*
X146227474Y-96752809D02*
X146536998Y-96752809D01*
X146536998Y-96752809D02*
X146370331Y-96943285D01*
X146370331Y-96943285D02*
X146441760Y-96943285D01*
X146441760Y-96943285D02*
X146489379Y-96967095D01*
X146489379Y-96967095D02*
X146513188Y-96990904D01*
X146513188Y-96990904D02*
X146536998Y-97038523D01*
X146536998Y-97038523D02*
X146536998Y-97157571D01*
X146536998Y-97157571D02*
X146513188Y-97205190D01*
X146513188Y-97205190D02*
X146489379Y-97229000D01*
X146489379Y-97229000D02*
X146441760Y-97252809D01*
X146441760Y-97252809D02*
X146298903Y-97252809D01*
X146298903Y-97252809D02*
X146251284Y-97229000D01*
X146251284Y-97229000D02*
X146227474Y-97205190D01*
%TO.C,U6*%
X155911283Y-95863809D02*
X155911283Y-96268571D01*
X155911283Y-96268571D02*
X155935093Y-96316190D01*
X155935093Y-96316190D02*
X155958902Y-96340000D01*
X155958902Y-96340000D02*
X156006521Y-96363809D01*
X156006521Y-96363809D02*
X156101759Y-96363809D01*
X156101759Y-96363809D02*
X156149378Y-96340000D01*
X156149378Y-96340000D02*
X156173188Y-96316190D01*
X156173188Y-96316190D02*
X156196997Y-96268571D01*
X156196997Y-96268571D02*
X156196997Y-95863809D01*
X156649379Y-95863809D02*
X156554141Y-95863809D01*
X156554141Y-95863809D02*
X156506522Y-95887619D01*
X156506522Y-95887619D02*
X156482712Y-95911428D01*
X156482712Y-95911428D02*
X156435093Y-95982857D01*
X156435093Y-95982857D02*
X156411284Y-96078095D01*
X156411284Y-96078095D02*
X156411284Y-96268571D01*
X156411284Y-96268571D02*
X156435093Y-96316190D01*
X156435093Y-96316190D02*
X156458903Y-96340000D01*
X156458903Y-96340000D02*
X156506522Y-96363809D01*
X156506522Y-96363809D02*
X156601760Y-96363809D01*
X156601760Y-96363809D02*
X156649379Y-96340000D01*
X156649379Y-96340000D02*
X156673188Y-96316190D01*
X156673188Y-96316190D02*
X156696998Y-96268571D01*
X156696998Y-96268571D02*
X156696998Y-96149523D01*
X156696998Y-96149523D02*
X156673188Y-96101904D01*
X156673188Y-96101904D02*
X156649379Y-96078095D01*
X156649379Y-96078095D02*
X156601760Y-96054285D01*
X156601760Y-96054285D02*
X156506522Y-96054285D01*
X156506522Y-96054285D02*
X156458903Y-96078095D01*
X156458903Y-96078095D02*
X156435093Y-96101904D01*
X156435093Y-96101904D02*
X156411284Y-96149523D01*
%TO.C,D7*%
X147287188Y-89632809D02*
X147287188Y-89132809D01*
X147287188Y-89132809D02*
X147406236Y-89132809D01*
X147406236Y-89132809D02*
X147477664Y-89156619D01*
X147477664Y-89156619D02*
X147525283Y-89204238D01*
X147525283Y-89204238D02*
X147549093Y-89251857D01*
X147549093Y-89251857D02*
X147572902Y-89347095D01*
X147572902Y-89347095D02*
X147572902Y-89418523D01*
X147572902Y-89418523D02*
X147549093Y-89513761D01*
X147549093Y-89513761D02*
X147525283Y-89561380D01*
X147525283Y-89561380D02*
X147477664Y-89609000D01*
X147477664Y-89609000D02*
X147406236Y-89632809D01*
X147406236Y-89632809D02*
X147287188Y-89632809D01*
X147739569Y-89132809D02*
X148072902Y-89132809D01*
X148072902Y-89132809D02*
X147858617Y-89632809D01*
%TO.C,H1*%
X126701283Y-93544809D02*
X126701283Y-93044809D01*
X126701283Y-93282904D02*
X126986997Y-93282904D01*
X126986997Y-93544809D02*
X126986997Y-93044809D01*
X127486998Y-93544809D02*
X127201284Y-93544809D01*
X127344141Y-93544809D02*
X127344141Y-93044809D01*
X127344141Y-93044809D02*
X127296522Y-93116238D01*
X127296522Y-93116238D02*
X127248903Y-93163857D01*
X127248903Y-93163857D02*
X127201284Y-93187666D01*
%TO.C,D5*%
X155923188Y-82012809D02*
X155923188Y-81512809D01*
X155923188Y-81512809D02*
X156042236Y-81512809D01*
X156042236Y-81512809D02*
X156113664Y-81536619D01*
X156113664Y-81536619D02*
X156161283Y-81584238D01*
X156161283Y-81584238D02*
X156185093Y-81631857D01*
X156185093Y-81631857D02*
X156208902Y-81727095D01*
X156208902Y-81727095D02*
X156208902Y-81798523D01*
X156208902Y-81798523D02*
X156185093Y-81893761D01*
X156185093Y-81893761D02*
X156161283Y-81941380D01*
X156161283Y-81941380D02*
X156113664Y-81989000D01*
X156113664Y-81989000D02*
X156042236Y-82012809D01*
X156042236Y-82012809D02*
X155923188Y-82012809D01*
X156661283Y-81512809D02*
X156423188Y-81512809D01*
X156423188Y-81512809D02*
X156399379Y-81750904D01*
X156399379Y-81750904D02*
X156423188Y-81727095D01*
X156423188Y-81727095D02*
X156470807Y-81703285D01*
X156470807Y-81703285D02*
X156589855Y-81703285D01*
X156589855Y-81703285D02*
X156637474Y-81727095D01*
X156637474Y-81727095D02*
X156661283Y-81750904D01*
X156661283Y-81750904D02*
X156685093Y-81798523D01*
X156685093Y-81798523D02*
X156685093Y-81917571D01*
X156685093Y-81917571D02*
X156661283Y-81965190D01*
X156661283Y-81965190D02*
X156637474Y-81989000D01*
X156637474Y-81989000D02*
X156589855Y-82012809D01*
X156589855Y-82012809D02*
X156470807Y-82012809D01*
X156470807Y-82012809D02*
X156423188Y-81989000D01*
X156423188Y-81989000D02*
X156399379Y-81965190D01*
%TO.C,C7*%
X143814190Y-91060097D02*
X143838000Y-91083906D01*
X143838000Y-91083906D02*
X143861809Y-91155335D01*
X143861809Y-91155335D02*
X143861809Y-91202954D01*
X143861809Y-91202954D02*
X143838000Y-91274382D01*
X143838000Y-91274382D02*
X143790380Y-91322001D01*
X143790380Y-91322001D02*
X143742761Y-91345811D01*
X143742761Y-91345811D02*
X143647523Y-91369620D01*
X143647523Y-91369620D02*
X143576095Y-91369620D01*
X143576095Y-91369620D02*
X143480857Y-91345811D01*
X143480857Y-91345811D02*
X143433238Y-91322001D01*
X143433238Y-91322001D02*
X143385619Y-91274382D01*
X143385619Y-91274382D02*
X143361809Y-91202954D01*
X143361809Y-91202954D02*
X143361809Y-91155335D01*
X143361809Y-91155335D02*
X143385619Y-91083906D01*
X143385619Y-91083906D02*
X143409428Y-91060097D01*
X143361809Y-90893430D02*
X143361809Y-90560097D01*
X143361809Y-90560097D02*
X143861809Y-90774382D01*
%TO.C,SW1*%
X132341000Y-92634429D02*
X132364809Y-92563001D01*
X132364809Y-92563001D02*
X132364809Y-92443953D01*
X132364809Y-92443953D02*
X132341000Y-92396334D01*
X132341000Y-92396334D02*
X132317190Y-92372525D01*
X132317190Y-92372525D02*
X132269571Y-92348715D01*
X132269571Y-92348715D02*
X132221952Y-92348715D01*
X132221952Y-92348715D02*
X132174333Y-92372525D01*
X132174333Y-92372525D02*
X132150523Y-92396334D01*
X132150523Y-92396334D02*
X132126714Y-92443953D01*
X132126714Y-92443953D02*
X132102904Y-92539191D01*
X132102904Y-92539191D02*
X132079095Y-92586810D01*
X132079095Y-92586810D02*
X132055285Y-92610620D01*
X132055285Y-92610620D02*
X132007666Y-92634429D01*
X132007666Y-92634429D02*
X131960047Y-92634429D01*
X131960047Y-92634429D02*
X131912428Y-92610620D01*
X131912428Y-92610620D02*
X131888619Y-92586810D01*
X131888619Y-92586810D02*
X131864809Y-92539191D01*
X131864809Y-92539191D02*
X131864809Y-92420144D01*
X131864809Y-92420144D02*
X131888619Y-92348715D01*
X131864809Y-92182049D02*
X132364809Y-92063001D01*
X132364809Y-92063001D02*
X132007666Y-91967763D01*
X132007666Y-91967763D02*
X132364809Y-91872525D01*
X132364809Y-91872525D02*
X131864809Y-91753478D01*
X132364809Y-91301096D02*
X132364809Y-91586810D01*
X132364809Y-91443953D02*
X131864809Y-91443953D01*
X131864809Y-91443953D02*
X131936238Y-91491572D01*
X131936238Y-91491572D02*
X131983857Y-91539191D01*
X131983857Y-91539191D02*
X132007666Y-91586810D01*
%TO.C,R3*%
X146909809Y-91060097D02*
X146671714Y-91226763D01*
X146909809Y-91345811D02*
X146409809Y-91345811D01*
X146409809Y-91345811D02*
X146409809Y-91155335D01*
X146409809Y-91155335D02*
X146433619Y-91107716D01*
X146433619Y-91107716D02*
X146457428Y-91083906D01*
X146457428Y-91083906D02*
X146505047Y-91060097D01*
X146505047Y-91060097D02*
X146576476Y-91060097D01*
X146576476Y-91060097D02*
X146624095Y-91083906D01*
X146624095Y-91083906D02*
X146647904Y-91107716D01*
X146647904Y-91107716D02*
X146671714Y-91155335D01*
X146671714Y-91155335D02*
X146671714Y-91345811D01*
X146409809Y-90893430D02*
X146409809Y-90583906D01*
X146409809Y-90583906D02*
X146600285Y-90750573D01*
X146600285Y-90750573D02*
X146600285Y-90679144D01*
X146600285Y-90679144D02*
X146624095Y-90631525D01*
X146624095Y-90631525D02*
X146647904Y-90607716D01*
X146647904Y-90607716D02*
X146695523Y-90583906D01*
X146695523Y-90583906D02*
X146814571Y-90583906D01*
X146814571Y-90583906D02*
X146862190Y-90607716D01*
X146862190Y-90607716D02*
X146886000Y-90631525D01*
X146886000Y-90631525D02*
X146909809Y-90679144D01*
X146909809Y-90679144D02*
X146909809Y-90822001D01*
X146909809Y-90822001D02*
X146886000Y-90869620D01*
X146886000Y-90869620D02*
X146862190Y-90893430D01*
%TO.C,C13*%
X151942190Y-102839192D02*
X151966000Y-102863001D01*
X151966000Y-102863001D02*
X151989809Y-102934430D01*
X151989809Y-102934430D02*
X151989809Y-102982049D01*
X151989809Y-102982049D02*
X151966000Y-103053477D01*
X151966000Y-103053477D02*
X151918380Y-103101096D01*
X151918380Y-103101096D02*
X151870761Y-103124906D01*
X151870761Y-103124906D02*
X151775523Y-103148715D01*
X151775523Y-103148715D02*
X151704095Y-103148715D01*
X151704095Y-103148715D02*
X151608857Y-103124906D01*
X151608857Y-103124906D02*
X151561238Y-103101096D01*
X151561238Y-103101096D02*
X151513619Y-103053477D01*
X151513619Y-103053477D02*
X151489809Y-102982049D01*
X151489809Y-102982049D02*
X151489809Y-102934430D01*
X151489809Y-102934430D02*
X151513619Y-102863001D01*
X151513619Y-102863001D02*
X151537428Y-102839192D01*
X151989809Y-102363001D02*
X151989809Y-102648715D01*
X151989809Y-102505858D02*
X151489809Y-102505858D01*
X151489809Y-102505858D02*
X151561238Y-102553477D01*
X151561238Y-102553477D02*
X151608857Y-102601096D01*
X151608857Y-102601096D02*
X151632666Y-102648715D01*
X151489809Y-102196335D02*
X151489809Y-101886811D01*
X151489809Y-101886811D02*
X151680285Y-102053478D01*
X151680285Y-102053478D02*
X151680285Y-101982049D01*
X151680285Y-101982049D02*
X151704095Y-101934430D01*
X151704095Y-101934430D02*
X151727904Y-101910621D01*
X151727904Y-101910621D02*
X151775523Y-101886811D01*
X151775523Y-101886811D02*
X151894571Y-101886811D01*
X151894571Y-101886811D02*
X151942190Y-101910621D01*
X151942190Y-101910621D02*
X151966000Y-101934430D01*
X151966000Y-101934430D02*
X151989809Y-101982049D01*
X151989809Y-101982049D02*
X151989809Y-102124906D01*
X151989809Y-102124906D02*
X151966000Y-102172525D01*
X151966000Y-102172525D02*
X151942190Y-102196335D01*
%TO.C,R7*%
X153894809Y-104395097D02*
X153656714Y-104561763D01*
X153894809Y-104680811D02*
X153394809Y-104680811D01*
X153394809Y-104680811D02*
X153394809Y-104490335D01*
X153394809Y-104490335D02*
X153418619Y-104442716D01*
X153418619Y-104442716D02*
X153442428Y-104418906D01*
X153442428Y-104418906D02*
X153490047Y-104395097D01*
X153490047Y-104395097D02*
X153561476Y-104395097D01*
X153561476Y-104395097D02*
X153609095Y-104418906D01*
X153609095Y-104418906D02*
X153632904Y-104442716D01*
X153632904Y-104442716D02*
X153656714Y-104490335D01*
X153656714Y-104490335D02*
X153656714Y-104680811D01*
X153394809Y-104228430D02*
X153394809Y-103895097D01*
X153394809Y-103895097D02*
X153894809Y-104109382D01*
%TO.C,R5*%
X148461902Y-108428809D02*
X148295236Y-108190714D01*
X148176188Y-108428809D02*
X148176188Y-107928809D01*
X148176188Y-107928809D02*
X148366664Y-107928809D01*
X148366664Y-107928809D02*
X148414283Y-107952619D01*
X148414283Y-107952619D02*
X148438093Y-107976428D01*
X148438093Y-107976428D02*
X148461902Y-108024047D01*
X148461902Y-108024047D02*
X148461902Y-108095476D01*
X148461902Y-108095476D02*
X148438093Y-108143095D01*
X148438093Y-108143095D02*
X148414283Y-108166904D01*
X148414283Y-108166904D02*
X148366664Y-108190714D01*
X148366664Y-108190714D02*
X148176188Y-108190714D01*
X148914283Y-107928809D02*
X148676188Y-107928809D01*
X148676188Y-107928809D02*
X148652379Y-108166904D01*
X148652379Y-108166904D02*
X148676188Y-108143095D01*
X148676188Y-108143095D02*
X148723807Y-108119285D01*
X148723807Y-108119285D02*
X148842855Y-108119285D01*
X148842855Y-108119285D02*
X148890474Y-108143095D01*
X148890474Y-108143095D02*
X148914283Y-108166904D01*
X148914283Y-108166904D02*
X148938093Y-108214523D01*
X148938093Y-108214523D02*
X148938093Y-108333571D01*
X148938093Y-108333571D02*
X148914283Y-108381190D01*
X148914283Y-108381190D02*
X148890474Y-108405000D01*
X148890474Y-108405000D02*
X148842855Y-108428809D01*
X148842855Y-108428809D02*
X148723807Y-108428809D01*
X148723807Y-108428809D02*
X148676188Y-108405000D01*
X148676188Y-108405000D02*
X148652379Y-108381190D01*
%TO.C,R2*%
X148588902Y-87854809D02*
X148422236Y-87616714D01*
X148303188Y-87854809D02*
X148303188Y-87354809D01*
X148303188Y-87354809D02*
X148493664Y-87354809D01*
X148493664Y-87354809D02*
X148541283Y-87378619D01*
X148541283Y-87378619D02*
X148565093Y-87402428D01*
X148565093Y-87402428D02*
X148588902Y-87450047D01*
X148588902Y-87450047D02*
X148588902Y-87521476D01*
X148588902Y-87521476D02*
X148565093Y-87569095D01*
X148565093Y-87569095D02*
X148541283Y-87592904D01*
X148541283Y-87592904D02*
X148493664Y-87616714D01*
X148493664Y-87616714D02*
X148303188Y-87616714D01*
X148779379Y-87402428D02*
X148803188Y-87378619D01*
X148803188Y-87378619D02*
X148850807Y-87354809D01*
X148850807Y-87354809D02*
X148969855Y-87354809D01*
X148969855Y-87354809D02*
X149017474Y-87378619D01*
X149017474Y-87378619D02*
X149041283Y-87402428D01*
X149041283Y-87402428D02*
X149065093Y-87450047D01*
X149065093Y-87450047D02*
X149065093Y-87497666D01*
X149065093Y-87497666D02*
X149041283Y-87569095D01*
X149041283Y-87569095D02*
X148755569Y-87854809D01*
X148755569Y-87854809D02*
X149065093Y-87854809D01*
%TO.C,C18*%
X139369190Y-102601192D02*
X139393000Y-102625001D01*
X139393000Y-102625001D02*
X139416809Y-102696430D01*
X139416809Y-102696430D02*
X139416809Y-102744049D01*
X139416809Y-102744049D02*
X139393000Y-102815477D01*
X139393000Y-102815477D02*
X139345380Y-102863096D01*
X139345380Y-102863096D02*
X139297761Y-102886906D01*
X139297761Y-102886906D02*
X139202523Y-102910715D01*
X139202523Y-102910715D02*
X139131095Y-102910715D01*
X139131095Y-102910715D02*
X139035857Y-102886906D01*
X139035857Y-102886906D02*
X138988238Y-102863096D01*
X138988238Y-102863096D02*
X138940619Y-102815477D01*
X138940619Y-102815477D02*
X138916809Y-102744049D01*
X138916809Y-102744049D02*
X138916809Y-102696430D01*
X138916809Y-102696430D02*
X138940619Y-102625001D01*
X138940619Y-102625001D02*
X138964428Y-102601192D01*
X139416809Y-102125001D02*
X139416809Y-102410715D01*
X139416809Y-102267858D02*
X138916809Y-102267858D01*
X138916809Y-102267858D02*
X138988238Y-102315477D01*
X138988238Y-102315477D02*
X139035857Y-102363096D01*
X139035857Y-102363096D02*
X139059666Y-102410715D01*
X139131095Y-101839287D02*
X139107285Y-101886906D01*
X139107285Y-101886906D02*
X139083476Y-101910716D01*
X139083476Y-101910716D02*
X139035857Y-101934525D01*
X139035857Y-101934525D02*
X139012047Y-101934525D01*
X139012047Y-101934525D02*
X138964428Y-101910716D01*
X138964428Y-101910716D02*
X138940619Y-101886906D01*
X138940619Y-101886906D02*
X138916809Y-101839287D01*
X138916809Y-101839287D02*
X138916809Y-101744049D01*
X138916809Y-101744049D02*
X138940619Y-101696430D01*
X138940619Y-101696430D02*
X138964428Y-101672621D01*
X138964428Y-101672621D02*
X139012047Y-101648811D01*
X139012047Y-101648811D02*
X139035857Y-101648811D01*
X139035857Y-101648811D02*
X139083476Y-101672621D01*
X139083476Y-101672621D02*
X139107285Y-101696430D01*
X139107285Y-101696430D02*
X139131095Y-101744049D01*
X139131095Y-101744049D02*
X139131095Y-101839287D01*
X139131095Y-101839287D02*
X139154904Y-101886906D01*
X139154904Y-101886906D02*
X139178714Y-101910716D01*
X139178714Y-101910716D02*
X139226333Y-101934525D01*
X139226333Y-101934525D02*
X139321571Y-101934525D01*
X139321571Y-101934525D02*
X139369190Y-101910716D01*
X139369190Y-101910716D02*
X139393000Y-101886906D01*
X139393000Y-101886906D02*
X139416809Y-101839287D01*
X139416809Y-101839287D02*
X139416809Y-101744049D01*
X139416809Y-101744049D02*
X139393000Y-101696430D01*
X139393000Y-101696430D02*
X139369190Y-101672621D01*
X139369190Y-101672621D02*
X139321571Y-101648811D01*
X139321571Y-101648811D02*
X139226333Y-101648811D01*
X139226333Y-101648811D02*
X139178714Y-101672621D01*
X139178714Y-101672621D02*
X139154904Y-101696430D01*
X139154904Y-101696430D02*
X139131095Y-101744049D01*
%TO.C,U4*%
X135591283Y-107293809D02*
X135591283Y-107698571D01*
X135591283Y-107698571D02*
X135615093Y-107746190D01*
X135615093Y-107746190D02*
X135638902Y-107770000D01*
X135638902Y-107770000D02*
X135686521Y-107793809D01*
X135686521Y-107793809D02*
X135781759Y-107793809D01*
X135781759Y-107793809D02*
X135829378Y-107770000D01*
X135829378Y-107770000D02*
X135853188Y-107746190D01*
X135853188Y-107746190D02*
X135876997Y-107698571D01*
X135876997Y-107698571D02*
X135876997Y-107293809D01*
X136329379Y-107460476D02*
X136329379Y-107793809D01*
X136210331Y-107270000D02*
X136091284Y-107627142D01*
X136091284Y-107627142D02*
X136400807Y-107627142D01*
D11*
%TO.C,RLED2*%
X152272000Y-109064359D02*
X152272000Y-109371641D01*
X151512000Y-109064359D02*
X151512000Y-109371641D01*
%TO.C,RLED1*%
X139828000Y-110895641D02*
X139828000Y-110588359D01*
X140588000Y-110895641D02*
X140588000Y-110588359D01*
%TO.C,C27*%
X148990164Y-107675000D02*
X149205836Y-107675000D01*
X148990164Y-106955000D02*
X149205836Y-106955000D01*
%TO.C,C8*%
X149000800Y-96018236D02*
X149000800Y-95802564D01*
X148280800Y-96018236D02*
X148280800Y-95802564D01*
%TO.C,C23*%
X138917000Y-83938164D02*
X138917000Y-84153836D01*
X138197000Y-83938164D02*
X138197000Y-84153836D01*
%TO.C,C9*%
X140991000Y-102215836D02*
X140991000Y-102000164D01*
X141711000Y-102215836D02*
X141711000Y-102000164D01*
%TO.C,C26*%
X151519836Y-111612000D02*
X151304164Y-111612000D01*
X151519836Y-110892000D02*
X151304164Y-110892000D01*
%TO.C,Y1*%
X148050000Y-112140000D02*
X148050000Y-108840000D01*
X148050000Y-108840000D02*
X144050000Y-108840000D01*
%TO.C,C25*%
X153903000Y-100956164D02*
X153903000Y-101171836D01*
X153183000Y-100956164D02*
X153183000Y-101171836D01*
%TO.C,C14*%
X145309000Y-93325836D02*
X145309000Y-93110164D01*
X146029000Y-93325836D02*
X146029000Y-93110164D01*
%TO.C,D4*%
D12*
X160410000Y-109466000D02*
X159510000Y-108566000D01*
X160410000Y-108566000D01*
X160410000Y-109466000D01*
G36*
X160410000Y-109466000D02*
G01*
X159510000Y-108566000D01*
X160410000Y-108566000D01*
X160410000Y-109466000D01*
G37*
D11*
%TO.C,C6*%
X148990164Y-105939000D02*
X149205836Y-105939000D01*
X148990164Y-106659000D02*
X149205836Y-106659000D01*
%TO.C,R6*%
X143003000Y-87275641D02*
X143003000Y-86968359D01*
X143763000Y-87275641D02*
X143763000Y-86968359D01*
%TO.C,J3*%
X150750000Y-82545000D02*
X150750000Y-80545000D01*
X150750000Y-78645000D02*
X150750000Y-76745000D01*
X150750000Y-76745000D02*
X141350000Y-76745000D01*
X141350000Y-82545000D02*
X141350000Y-80545000D01*
X141350000Y-78645000D02*
X141350000Y-76745000D01*
%TO.C,U5*%
X156210000Y-103850000D02*
X154535000Y-103850000D01*
X156210000Y-103850000D02*
X156860000Y-103850000D01*
X156210000Y-106970000D02*
X155560000Y-106970000D01*
X156210000Y-106970000D02*
X156860000Y-106970000D01*
%TO.C,C10*%
X150016800Y-96018236D02*
X150016800Y-95802564D01*
X149296800Y-96018236D02*
X149296800Y-95802564D01*
%TO.C,D1*%
D12*
X140090000Y-109466000D02*
X139190000Y-108566000D01*
X140090000Y-108566000D01*
X140090000Y-109466000D01*
G36*
X140090000Y-109466000D02*
G01*
X139190000Y-108566000D01*
X140090000Y-108566000D01*
X140090000Y-109466000D01*
G37*
D11*
%TO.C,C11*%
X151032800Y-96018236D02*
X151032800Y-95802564D01*
X150312800Y-96018236D02*
X150312800Y-95802564D01*
%TO.C,D3*%
X133890000Y-82505000D02*
X137890000Y-82505000D01*
X133890000Y-86405000D02*
X137890000Y-86392500D01*
X137890000Y-86392500D02*
X137890000Y-85317500D01*
%TO.C,C17*%
X153014000Y-105681164D02*
X153014000Y-105896836D01*
X152294000Y-105681164D02*
X152294000Y-105896836D01*
%TO.C,C2*%
X145141836Y-108564000D02*
X144926164Y-108564000D01*
X145141836Y-107844000D02*
X144926164Y-107844000D01*
%TO.C,C19*%
X131212000Y-110879836D02*
X131212000Y-110664164D01*
X131932000Y-110879836D02*
X131932000Y-110664164D01*
%TO.C,R1*%
X140869641Y-92963000D02*
X140562359Y-92963000D01*
X140869641Y-92203000D02*
X140562359Y-92203000D01*
%TO.C,C12*%
X151022164Y-98700000D02*
X151237836Y-98700000D01*
X151022164Y-99420000D02*
X151237836Y-99420000D01*
%TO.C,C15*%
X144293000Y-93325836D02*
X144293000Y-93110164D01*
X145013000Y-93325836D02*
X145013000Y-93110164D01*
%TO.C,C20*%
X138197000Y-98433836D02*
X138197000Y-98218164D01*
X138917000Y-98433836D02*
X138917000Y-98218164D01*
%TO.C,C16*%
X141077836Y-99547000D02*
X140862164Y-99547000D01*
X141077836Y-98827000D02*
X140862164Y-98827000D01*
%TO.C,C22*%
X155644964Y-102814800D02*
X155860636Y-102814800D01*
X155644964Y-103534800D02*
X155860636Y-103534800D01*
%TO.C,C3*%
X149077000Y-110128164D02*
X149077000Y-110343836D01*
X148357000Y-110128164D02*
X148357000Y-110343836D01*
%TO.C,R8*%
X138050000Y-104164641D02*
X138050000Y-103857359D01*
X138810000Y-104164641D02*
X138810000Y-103857359D01*
%TO.C,C4*%
X152372602Y-94241249D02*
X152372602Y-93718745D01*
X153842602Y-94241249D02*
X153842602Y-93718745D01*
%TO.C,C1*%
X156416853Y-91920999D02*
X155894349Y-91920999D01*
X156416853Y-90450999D02*
X155894349Y-90450999D01*
%TO.C,C21*%
X138703164Y-106066000D02*
X138918836Y-106066000D01*
X138703164Y-106786000D02*
X138918836Y-106786000D01*
%TO.C,C24*%
X153183000Y-84971836D02*
X153183000Y-84756164D01*
X153903000Y-84971836D02*
X153903000Y-84756164D01*
%TO.C,R9*%
X140608164Y-93239000D02*
X140823836Y-93239000D01*
X140608164Y-93959000D02*
X140823836Y-93959000D01*
%TO.C,D2*%
X133890000Y-97745000D02*
X137890000Y-97745000D01*
X133890000Y-101645000D02*
X137890000Y-101632500D01*
X137890000Y-101632500D02*
X137890000Y-100557500D01*
%TO.C,F1*%
X155607936Y-87990000D02*
X156812064Y-87990000D01*
X155607936Y-89810000D02*
X156812064Y-89810000D01*
%TO.C,C5*%
X142261000Y-93325836D02*
X142261000Y-93110164D01*
X142981000Y-93325836D02*
X142981000Y-93110164D01*
%TO.C,R4*%
X147448000Y-93064359D02*
X147448000Y-93371641D01*
X148208000Y-93064359D02*
X148208000Y-93371641D01*
%TO.C,D6*%
X158210000Y-101645000D02*
X154210000Y-101645000D01*
X158210000Y-97745000D02*
X154210000Y-97757500D01*
X154210000Y-97757500D02*
X154210000Y-98832500D01*
%TO.C,U3*%
X142440000Y-105210000D02*
X142440000Y-104560000D01*
X143090000Y-97990000D02*
X142440000Y-97990000D01*
X143090000Y-105210000D02*
X142440000Y-105210000D01*
X149010000Y-97990000D02*
X149660000Y-97990000D01*
X149010000Y-105210000D02*
X149660000Y-105210000D01*
X149660000Y-97990000D02*
X149660000Y-98640000D01*
X149660000Y-105210000D02*
X149660000Y-104560000D01*
%TO.C,U6*%
X156210000Y-95540000D02*
X158010000Y-95540000D01*
X156210000Y-95540000D02*
X155410000Y-95540000D01*
X156210000Y-92420000D02*
X157010000Y-92420000D01*
X156210000Y-92420000D02*
X155410000Y-92420000D01*
%TO.C,D7*%
X144892000Y-89444000D02*
X146192000Y-89444000D01*
X146192000Y-86324000D02*
X144192000Y-86324000D01*
%TO.C,D5*%
X158210000Y-86405000D02*
X154210000Y-86405000D01*
X158210000Y-82505000D02*
X154210000Y-82517500D01*
X154210000Y-82517500D02*
X154210000Y-83592500D01*
%TO.C,C7*%
X143277000Y-93325836D02*
X143277000Y-93110164D01*
X143997000Y-93325836D02*
X143997000Y-93110164D01*
%TO.C,SW1*%
X134890000Y-94800000D02*
X136890000Y-94800000D01*
X133590000Y-93750000D02*
X133140000Y-93300000D01*
X138190000Y-93750000D02*
X138640000Y-93300000D01*
X133140000Y-93300000D02*
X133140000Y-90800000D01*
X138640000Y-93300000D02*
X138640000Y-90800000D01*
X133590000Y-90350000D02*
X133140000Y-90800000D01*
X138190000Y-90350000D02*
X138640000Y-90800000D01*
X134890000Y-89300000D02*
X136890000Y-89300000D01*
%TO.C,R3*%
X146305000Y-93064359D02*
X146305000Y-93371641D01*
X147065000Y-93064359D02*
X147065000Y-93371641D01*
%TO.C,C13*%
X150389000Y-102215836D02*
X150389000Y-102000164D01*
X151109000Y-102215836D02*
X151109000Y-102000164D01*
%TO.C,R7*%
X153290000Y-105942641D02*
X153290000Y-105635359D01*
X154050000Y-105942641D02*
X154050000Y-105635359D01*
%TO.C,R5*%
X146912359Y-107824000D02*
X147219641Y-107824000D01*
X146912359Y-108584000D02*
X147219641Y-108584000D01*
%TO.C,R2*%
X147321000Y-87275641D02*
X147321000Y-86968359D01*
X148081000Y-87275641D02*
X148081000Y-86968359D01*
%TO.C,C18*%
X139806000Y-103905164D02*
X139806000Y-104120836D01*
X139086000Y-103905164D02*
X139086000Y-104120836D01*
%TO.C,U4*%
X135890000Y-106970000D02*
X137565000Y-106970000D01*
X135890000Y-106970000D02*
X135240000Y-106970000D01*
X135890000Y-103850000D02*
X136540000Y-103850000D01*
X135890000Y-103850000D02*
X135240000Y-103850000D01*
%TD*%
%LPC*%
D13*
%TO.C,RLED2*%
X151892000Y-108708000D03*
X151892000Y-109728000D03*
%TD*%
D14*
%TO.C,RLED1*%
X140208000Y-111252000D03*
X140208000Y-110232000D03*
%TD*%
D15*
%TO.C,C27*%
X148618000Y-107315000D03*
X149578000Y-107315000D03*
%TD*%
D16*
%TO.C,C8*%
X148640800Y-95430400D03*
X148640800Y-96390400D03*
%TD*%
D17*
%TO.C,C23*%
X138557000Y-83566000D03*
X138557000Y-84526000D03*
%TD*%
D16*
%TO.C,C9*%
X141351000Y-102588000D03*
X141351000Y-101628000D03*
%TD*%
D18*
%TO.C,C26*%
X151892000Y-111252000D03*
X150932000Y-111252000D03*
%TD*%
D19*
%TO.C,Y1*%
X147150000Y-109640000D03*
X144950000Y-109640000D03*
X144950000Y-111340000D03*
X147150000Y-111340000D03*
%TD*%
D17*
%TO.C,C25*%
X153543000Y-100584000D03*
X153543000Y-101544000D03*
%TD*%
D16*
%TO.C,C14*%
X145669000Y-93698000D03*
X145669000Y-92738000D03*
%TD*%
D20*
%TO.C,D4*%
X153610000Y-111216000D03*
X153610000Y-109716000D03*
X158810000Y-109716000D03*
X158810000Y-111216000D03*
%TD*%
D15*
%TO.C,C6*%
X148618000Y-106299000D03*
X149578000Y-106299000D03*
%TD*%
D14*
%TO.C,R6*%
X143383000Y-87632000D03*
X143383000Y-86612000D03*
%TD*%
D21*
%TO.C,J3*%
X148940000Y-83245000D03*
X143160000Y-83245000D03*
D22*
X149300000Y-84690000D03*
X148500000Y-84690000D03*
D23*
X147300000Y-84690000D03*
X146300000Y-84690000D03*
X145800000Y-84690000D03*
X144800000Y-84690000D03*
D22*
X143600000Y-84690000D03*
X142800000Y-84690000D03*
X142800000Y-84690000D03*
X143600000Y-84690000D03*
D23*
X144300000Y-84690000D03*
X145300000Y-84690000D03*
X146800000Y-84690000D03*
X147800000Y-84690000D03*
D22*
X148500000Y-84690000D03*
X149300000Y-84690000D03*
D24*
X150370000Y-83775000D03*
D25*
X150370000Y-79595000D03*
D24*
X141730000Y-83775000D03*
D25*
X141730000Y-79595000D03*
%TD*%
D26*
%TO.C,H2*%
X165100000Y-96520000D03*
%TD*%
D27*
%TO.C,U5*%
X155272500Y-104460000D03*
X155272500Y-106360000D03*
X157147500Y-105410000D03*
%TD*%
D16*
%TO.C,C10*%
X149656800Y-95430400D03*
X149656800Y-96390400D03*
%TD*%
D20*
%TO.C,D1*%
X133290000Y-111216000D03*
X133290000Y-109716000D03*
X138490000Y-109716000D03*
X138490000Y-111216000D03*
%TD*%
D16*
%TO.C,C11*%
X150672800Y-95430400D03*
X150672800Y-96390400D03*
%TD*%
D28*
%TO.C,D3*%
X137190000Y-85330000D03*
X137190000Y-83555000D03*
X134590000Y-83580000D03*
X134590000Y-85330000D03*
%TD*%
D17*
%TO.C,C17*%
X152654000Y-105309000D03*
X152654000Y-106269000D03*
%TD*%
D18*
%TO.C,C2*%
X145514000Y-108204000D03*
X144554000Y-108204000D03*
%TD*%
D16*
%TO.C,C19*%
X131572000Y-111252000D03*
X131572000Y-110292000D03*
%TD*%
D29*
%TO.C,IC1*%
X140459000Y-94754000D03*
X140459000Y-95254000D03*
X140459000Y-95754000D03*
X140459000Y-96254000D03*
X143259000Y-96254000D03*
X143259000Y-95754000D03*
X143259000Y-95254000D03*
X143259000Y-94754000D03*
D30*
X141859000Y-95504000D03*
%TD*%
D31*
%TO.C,R1*%
X141226000Y-92583000D03*
X140206000Y-92583000D03*
%TD*%
D26*
%TO.C,H4*%
X165100000Y-114300000D03*
%TD*%
D15*
%TO.C,C12*%
X150650000Y-99060000D03*
X151610000Y-99060000D03*
%TD*%
D16*
%TO.C,C15*%
X144653000Y-93698000D03*
X144653000Y-92738000D03*
%TD*%
%TO.C,C20*%
X138557000Y-98806000D03*
X138557000Y-97846000D03*
%TD*%
D18*
%TO.C,C16*%
X141450000Y-99187000D03*
X140490000Y-99187000D03*
%TD*%
D15*
%TO.C,C22*%
X155272800Y-103174800D03*
X156232800Y-103174800D03*
%TD*%
D17*
%TO.C,C3*%
X148717000Y-109756000D03*
X148717000Y-110716000D03*
%TD*%
D14*
%TO.C,R8*%
X138430000Y-104521000D03*
X138430000Y-103501000D03*
%TD*%
D32*
%TO.C,C4*%
X153107602Y-94929997D03*
X153107602Y-93029997D03*
%TD*%
D33*
%TO.C,C1*%
X157105601Y-91185999D03*
X155205601Y-91185999D03*
%TD*%
D15*
%TO.C,C21*%
X138331000Y-106426000D03*
X139291000Y-106426000D03*
%TD*%
D16*
%TO.C,C24*%
X153543000Y-85344000D03*
X153543000Y-84384000D03*
%TD*%
D15*
%TO.C,R9*%
X140236000Y-93599000D03*
X141196000Y-93599000D03*
%TD*%
D28*
%TO.C,D2*%
X137190000Y-100570000D03*
X137190000Y-98795000D03*
X134590000Y-98820000D03*
X134590000Y-100570000D03*
%TD*%
D34*
%TO.C,F1*%
X154810000Y-88900000D03*
X157610000Y-88900000D03*
%TD*%
D16*
%TO.C,C5*%
X142621000Y-93698000D03*
X142621000Y-92738000D03*
%TD*%
D13*
%TO.C,R4*%
X147828000Y-93728000D03*
X147828000Y-92708000D03*
%TD*%
D26*
%TO.C,H3*%
X127000000Y-114300000D03*
%TD*%
D28*
%TO.C,D6*%
X154910000Y-98820000D03*
X154910000Y-100595000D03*
X157510000Y-100570000D03*
X157510000Y-98820000D03*
%TD*%
D35*
%TO.C,U3*%
X142612500Y-99000000D03*
X142612500Y-99400000D03*
X142612500Y-99800000D03*
X142612500Y-100200000D03*
X142612500Y-100600000D03*
X142612500Y-101000000D03*
X142612500Y-101400000D03*
X142612500Y-101800000D03*
X142612500Y-102200000D03*
X142612500Y-102600000D03*
X142612500Y-103000000D03*
X142612500Y-103400000D03*
X142612500Y-103800000D03*
X142612500Y-104200000D03*
D36*
X143450000Y-105037500D03*
X143850000Y-105037500D03*
X144250000Y-105037500D03*
X144650000Y-105037500D03*
X145050000Y-105037500D03*
X145450000Y-105037500D03*
X145850000Y-105037500D03*
X146250000Y-105037500D03*
X146650000Y-105037500D03*
X147050000Y-105037500D03*
X147450000Y-105037500D03*
X147850000Y-105037500D03*
X148250000Y-105037500D03*
X148650000Y-105037500D03*
D35*
X149487500Y-104200000D03*
X149487500Y-103800000D03*
X149487500Y-103400000D03*
X149487500Y-103000000D03*
X149487500Y-102600000D03*
X149487500Y-102200000D03*
X149487500Y-101800000D03*
X149487500Y-101400000D03*
X149487500Y-101000000D03*
X149487500Y-100600000D03*
X149487500Y-100200000D03*
X149487500Y-99800000D03*
X149487500Y-99400000D03*
X149487500Y-99000000D03*
D36*
X148650000Y-98162500D03*
X148250000Y-98162500D03*
X147850000Y-98162500D03*
X147450000Y-98162500D03*
X147050000Y-98162500D03*
X146650000Y-98162500D03*
X146250000Y-98162500D03*
X145850000Y-98162500D03*
X145450000Y-98162500D03*
X145050000Y-98162500D03*
X144650000Y-98162500D03*
X144250000Y-98162500D03*
X143850000Y-98162500D03*
X143450000Y-98162500D03*
D37*
X146050000Y-101600000D03*
%TD*%
D38*
%TO.C,U6*%
X157347500Y-94930000D03*
X157347500Y-93980000D03*
X157347500Y-93030000D03*
X155072500Y-93030000D03*
X155072500Y-94930000D03*
%TD*%
D39*
%TO.C,D7*%
X144542000Y-87134000D03*
D40*
X144542000Y-88834000D03*
X146542000Y-88834000D03*
X146542000Y-86934000D03*
%TD*%
D26*
%TO.C,H1*%
X127000000Y-96520000D03*
%TD*%
D28*
%TO.C,D5*%
X154910000Y-83580000D03*
X154910000Y-85355000D03*
X157510000Y-85330000D03*
X157510000Y-83580000D03*
%TD*%
D16*
%TO.C,C7*%
X143637000Y-93698000D03*
X143637000Y-92738000D03*
%TD*%
D41*
%TO.C,SW1*%
X133990000Y-95200000D03*
X133990000Y-88900000D03*
X137790000Y-95200000D03*
X137790000Y-88900000D03*
%TD*%
D13*
%TO.C,R3*%
X146685000Y-93728000D03*
X146685000Y-92708000D03*
%TD*%
D16*
%TO.C,C13*%
X150749000Y-102588000D03*
X150749000Y-101628000D03*
%TD*%
D14*
%TO.C,R7*%
X153670000Y-106299000D03*
X153670000Y-105279000D03*
%TD*%
D42*
%TO.C,R5*%
X146556000Y-108204000D03*
X147576000Y-108204000D03*
%TD*%
D14*
%TO.C,R2*%
X147701000Y-87632000D03*
X147701000Y-86612000D03*
%TD*%
D17*
%TO.C,C18*%
X139446000Y-103533000D03*
X139446000Y-104493000D03*
%TD*%
D43*
%TO.C,U4*%
X136827500Y-106360000D03*
X136827500Y-104460000D03*
X134952500Y-105410000D03*
%TD*%
D44*
%TO.C,X*%
X140970000Y-105410000D03*
X130810000Y-105410000D03*
%TD*%
%TO.C,Z*%
X161290000Y-105410000D03*
X151130000Y-105410000D03*
%TD*%
D45*
%TO.C,J1*%
X163322000Y-89906000D03*
D46*
X163322000Y-87366000D03*
X163322000Y-84826000D03*
X163322000Y-82286000D03*
%TD*%
%LPD*%
M02*
