%TF.GenerationSoftware,KiCad,Pcbnew,7.0.3*%
%TF.CreationDate,2023-05-17T00:12:26+01:00*%
%TF.ProjectId,MoonPad,4d6f6f6e-5061-4642-9e6b-696361645f70,rev?*%
%TF.SameCoordinates,Original*%
%TF.FileFunction,Copper,L3,Inr*%
%TF.FilePolarity,Positive*%
%FSLAX46Y46*%
G04 Gerber Fmt 4.6, Leading zero omitted, Abs format (unit mm)*
G04 Created by KiCad (PCBNEW 7.0.3) date 2023-05-17 00:12:26*
%MOMM*%
%LPD*%
G01*
G04 APERTURE LIST*
%TA.AperFunction,ComponentPad*%
%ADD10O,1.000000X2.100000*%
%TD*%
%TA.AperFunction,ComponentPad*%
%ADD11O,1.000000X1.600000*%
%TD*%
%TA.AperFunction,ComponentPad*%
%ADD12C,0.600000*%
%TD*%
%TA.AperFunction,ComponentPad*%
%ADD13R,1.700000X1.700000*%
%TD*%
%TA.AperFunction,ComponentPad*%
%ADD14O,1.700000X1.700000*%
%TD*%
%TA.AperFunction,ViaPad*%
%ADD15C,0.700000*%
%TD*%
%TA.AperFunction,ViaPad*%
%ADD16C,0.450000*%
%TD*%
G04 APERTURE END LIST*
D10*
%TO.N,GND*%
%TO.C,J3*%
X150370000Y-83775000D03*
D11*
X150370000Y-79595000D03*
D10*
X141730000Y-83775000D03*
D11*
X141730000Y-79595000D03*
%TD*%
D12*
%TO.N,GND*%
%TO.C,U3*%
X144775000Y-100325000D03*
X144775000Y-101600000D03*
X144775000Y-102875000D03*
X146050000Y-100325000D03*
X146050000Y-101600000D03*
X146050000Y-102875000D03*
X147325000Y-100325000D03*
X147325000Y-101600000D03*
X147325000Y-102875000D03*
%TD*%
D13*
%TO.N,GND*%
%TO.C,J1*%
X163322000Y-89906000D03*
D14*
%TO.N,+3V3*%
X163322000Y-87366000D03*
%TO.N,/OLED_SCL*%
X163322000Y-84826000D03*
%TO.N,/OLED_SDA*%
X163322000Y-82286000D03*
%TD*%
D15*
%TO.N,GND*%
X142240000Y-109220000D03*
X152654000Y-108712000D03*
X137160000Y-91440000D03*
X134620000Y-91440000D03*
X152400000Y-96520000D03*
X149860000Y-88900000D03*
X132080000Y-101600000D03*
X149860000Y-111760000D03*
X142240000Y-111760000D03*
X160020000Y-101600000D03*
X160020000Y-99060000D03*
X160020000Y-83820000D03*
X165100000Y-81280000D03*
X142240000Y-81280000D03*
X139700000Y-81280000D03*
X160020000Y-81280000D03*
X144780000Y-81280000D03*
X154940000Y-81280000D03*
X157480000Y-81280000D03*
X147320000Y-81280000D03*
X149860000Y-81280000D03*
X152400000Y-81280000D03*
X137160000Y-81280000D03*
X134620000Y-81280000D03*
X132080000Y-81280000D03*
X132080000Y-83820000D03*
X132080000Y-86360000D03*
X132080000Y-88900000D03*
X132080000Y-91440000D03*
X132080000Y-93980000D03*
X132080000Y-96520000D03*
X132080000Y-99060000D03*
X162560000Y-114300000D03*
X160020000Y-114300000D03*
X157480000Y-114300000D03*
X154940000Y-114300000D03*
X152400000Y-114300000D03*
X149860000Y-114300000D03*
X147320000Y-114300000D03*
X144780000Y-114300000D03*
X142240000Y-114300000D03*
X139700000Y-114300000D03*
X137160000Y-114300000D03*
X134620000Y-114300000D03*
X132080000Y-114300000D03*
X129540000Y-114300000D03*
X165100000Y-111760000D03*
X162560000Y-111760000D03*
X129540000Y-111760000D03*
X127000000Y-111760000D03*
X165100000Y-109220000D03*
X162560000Y-109220000D03*
X129540000Y-109220000D03*
X127000000Y-109220000D03*
X165100000Y-106680000D03*
X162560000Y-106680000D03*
X129540000Y-106680000D03*
X127000000Y-106680000D03*
X165100000Y-104140000D03*
X162560000Y-104140000D03*
X129540000Y-104140000D03*
X127000000Y-104140000D03*
X165100000Y-101600000D03*
X162560000Y-101600000D03*
X129540000Y-101600000D03*
X127000000Y-101600000D03*
X165100000Y-99060000D03*
X162560000Y-99060000D03*
X129540000Y-99060000D03*
X127000000Y-99060000D03*
X162560000Y-96520000D03*
X129540000Y-96520000D03*
X165100000Y-93980000D03*
X129540000Y-93980000D03*
X127000000Y-93980000D03*
X129540000Y-91440000D03*
X127000000Y-91440000D03*
X129540000Y-88900000D03*
X127000000Y-88900000D03*
X129540000Y-86360000D03*
X127000000Y-86360000D03*
X129540000Y-83820000D03*
X127000000Y-83820000D03*
X129540000Y-81280000D03*
X127000000Y-81280000D03*
X165100000Y-78740000D03*
X162560000Y-78740000D03*
X160020000Y-78740000D03*
X157480000Y-78740000D03*
X154940000Y-78740000D03*
X152400000Y-78740000D03*
X149860000Y-78740000D03*
X147320000Y-78740000D03*
X144780000Y-78740000D03*
X142240000Y-78740000D03*
X139700000Y-78740000D03*
X137160000Y-78740000D03*
X134620000Y-78740000D03*
X132080000Y-78740000D03*
X129540000Y-78740000D03*
X127000000Y-78740000D03*
X149860000Y-91440000D03*
X139700000Y-86360000D03*
X142240000Y-88900000D03*
X139727774Y-102760906D03*
X144554000Y-107416600D03*
X149606000Y-108077000D03*
X150361766Y-106639174D03*
%TO.N,VBUS*%
X143600000Y-85736600D03*
X149098000Y-86360000D03*
%TO.N,GND*%
X150672800Y-94640400D03*
X152654000Y-91694000D03*
X158496002Y-93979996D03*
X140716000Y-101600000D03*
X133731000Y-105410000D03*
X151384000Y-101628000D03*
X143383000Y-88517000D03*
X147701000Y-88517000D03*
X133618000Y-85330000D03*
X158482000Y-83580000D03*
X134021102Y-90272001D03*
X130810000Y-110363000D03*
X152654000Y-90678000D03*
X148463000Y-111633000D03*
X153670000Y-90678000D03*
X133618000Y-100570000D03*
X144687289Y-106070887D03*
X144653000Y-91948000D03*
X153670000Y-91694000D03*
X139446000Y-105283000D03*
X134021102Y-93827998D03*
X149656800Y-94640400D03*
X145669000Y-91948000D03*
X142621000Y-91948000D03*
X157510000Y-97947000D03*
X139319000Y-84455000D03*
X140462000Y-96870700D03*
X153543002Y-102362000D03*
X138490000Y-108894135D03*
X144542000Y-88016098D03*
X156921200Y-103174800D03*
X140490000Y-99921000D03*
X151610000Y-99794000D03*
X138463100Y-97075125D03*
X158810000Y-108894135D03*
X148640800Y-94640400D03*
X152781000Y-84455000D03*
X152654000Y-107061000D03*
X151040097Y-112014000D03*
X143637000Y-91948000D03*
X158369000Y-105410000D03*
X139319000Y-107188000D03*
D16*
%TO.N,+1V1*%
X145392072Y-95460376D03*
X147253371Y-98977451D03*
D15*
%TO.N,ADC_X*%
X150426900Y-99998100D03*
X140208000Y-103533000D03*
D16*
%TO.N,/OLED_SCL*%
X150495000Y-103505000D03*
%TO.N,/OLED_SDA*%
X151003000Y-104002018D03*
D15*
%TO.N,+5V*%
X139319000Y-83566000D03*
X158496000Y-91694000D03*
X151892000Y-112014000D03*
X146542000Y-87614000D03*
X158496000Y-94995996D03*
X153543001Y-99822001D03*
X139319000Y-98806000D03*
X158496000Y-92710000D03*
X152781000Y-85344000D03*
X130810000Y-111252000D03*
X158496001Y-90678000D03*
%TD*%
%TA.AperFunction,Conductor*%
%TO.N,GND*%
G36*
X165101385Y-77335577D02*
G01*
X165396688Y-77352161D01*
X165402175Y-77352780D01*
X165692402Y-77402091D01*
X165697785Y-77403319D01*
X165980662Y-77484815D01*
X165985897Y-77486647D01*
X166111584Y-77538708D01*
X166257853Y-77599295D01*
X166262853Y-77601702D01*
X166520492Y-77744094D01*
X166525185Y-77747043D01*
X166765259Y-77917385D01*
X166769588Y-77920837D01*
X166989088Y-78116994D01*
X166993005Y-78120911D01*
X167189160Y-78340409D01*
X167192619Y-78344747D01*
X167362954Y-78584811D01*
X167365910Y-78589515D01*
X167508294Y-78847141D01*
X167510704Y-78852146D01*
X167623350Y-79124096D01*
X167625185Y-79129340D01*
X167706676Y-79412198D01*
X167707910Y-79417610D01*
X167721060Y-79494999D01*
X167757217Y-79707808D01*
X167757838Y-79713328D01*
X167774422Y-80008607D01*
X167774500Y-80011383D01*
X167774500Y-114298615D01*
X167774422Y-114301391D01*
X167757838Y-114596671D01*
X167757217Y-114602191D01*
X167707912Y-114892384D01*
X167706676Y-114897801D01*
X167625185Y-115180659D01*
X167623350Y-115185903D01*
X167510704Y-115457853D01*
X167508294Y-115462858D01*
X167365910Y-115720484D01*
X167362954Y-115725188D01*
X167192619Y-115965252D01*
X167189156Y-115969595D01*
X166993011Y-116189082D01*
X166989082Y-116193011D01*
X166769595Y-116389156D01*
X166765252Y-116392619D01*
X166525188Y-116562954D01*
X166520484Y-116565910D01*
X166262858Y-116708294D01*
X166257853Y-116710704D01*
X165985903Y-116823350D01*
X165980659Y-116825185D01*
X165697801Y-116906676D01*
X165692385Y-116907911D01*
X165559990Y-116930406D01*
X165402191Y-116957217D01*
X165396671Y-116957838D01*
X165144812Y-116971983D01*
X165101385Y-116974422D01*
X165098616Y-116974500D01*
X127001384Y-116974500D01*
X126998614Y-116974422D01*
X126953030Y-116971862D01*
X126703328Y-116957838D01*
X126697808Y-116957217D01*
X126407610Y-116907910D01*
X126402201Y-116906676D01*
X126317271Y-116882208D01*
X126119340Y-116825185D01*
X126114096Y-116823350D01*
X125842146Y-116710704D01*
X125837141Y-116708294D01*
X125579515Y-116565910D01*
X125574811Y-116562954D01*
X125334747Y-116392619D01*
X125330409Y-116389160D01*
X125110911Y-116193005D01*
X125106994Y-116189088D01*
X124910837Y-115969588D01*
X124907385Y-115965259D01*
X124737043Y-115725185D01*
X124734094Y-115720492D01*
X124591702Y-115462853D01*
X124589295Y-115457853D01*
X124539855Y-115338495D01*
X124476647Y-115185897D01*
X124474814Y-115180659D01*
X124472147Y-115171401D01*
X124393319Y-114897785D01*
X124392091Y-114892402D01*
X124342780Y-114602175D01*
X124342161Y-114596688D01*
X124325577Y-114301386D01*
X124325539Y-114300004D01*
X125644341Y-114300004D01*
X125664935Y-114535400D01*
X125726098Y-114763667D01*
X125825959Y-114977818D01*
X125825963Y-114977826D01*
X125825964Y-114977828D01*
X125825965Y-114977829D01*
X125961505Y-115171401D01*
X126128599Y-115338495D01*
X126322171Y-115474035D01*
X126322172Y-115474035D01*
X126322173Y-115474036D01*
X126322181Y-115474040D01*
X126536333Y-115573901D01*
X126536337Y-115573903D01*
X126764592Y-115635063D01*
X126764596Y-115635063D01*
X126764599Y-115635064D01*
X126941026Y-115650500D01*
X126941034Y-115650500D01*
X127058974Y-115650500D01*
X127235400Y-115635064D01*
X127235401Y-115635063D01*
X127235408Y-115635063D01*
X127463663Y-115573903D01*
X127677829Y-115474035D01*
X127871401Y-115338495D01*
X128038495Y-115171401D01*
X128174035Y-114977830D01*
X128273903Y-114763663D01*
X128335063Y-114535408D01*
X128355659Y-114300004D01*
X163744341Y-114300004D01*
X163764935Y-114535400D01*
X163826098Y-114763667D01*
X163925959Y-114977818D01*
X163925963Y-114977826D01*
X163925964Y-114977828D01*
X163925965Y-114977829D01*
X164061505Y-115171401D01*
X164228599Y-115338495D01*
X164422171Y-115474035D01*
X164422172Y-115474035D01*
X164422173Y-115474036D01*
X164422181Y-115474040D01*
X164636333Y-115573901D01*
X164636337Y-115573903D01*
X164864592Y-115635063D01*
X164864596Y-115635063D01*
X164864599Y-115635064D01*
X165041026Y-115650500D01*
X165041034Y-115650500D01*
X165158974Y-115650500D01*
X165335400Y-115635064D01*
X165335401Y-115635063D01*
X165335408Y-115635063D01*
X165563663Y-115573903D01*
X165777829Y-115474035D01*
X165971401Y-115338495D01*
X166138495Y-115171401D01*
X166274035Y-114977830D01*
X166373903Y-114763663D01*
X166435063Y-114535408D01*
X166439861Y-114480566D01*
X166455659Y-114300004D01*
X166455659Y-114299995D01*
X166435064Y-114064599D01*
X166435063Y-114064596D01*
X166435063Y-114064592D01*
X166373903Y-113836337D01*
X166274035Y-113622171D01*
X166138495Y-113428599D01*
X165971401Y-113261505D01*
X165971397Y-113261502D01*
X165971396Y-113261501D01*
X165777826Y-113125963D01*
X165777818Y-113125959D01*
X165563666Y-113026098D01*
X165563667Y-113026098D01*
X165487578Y-113005710D01*
X165335408Y-112964937D01*
X165335407Y-112964936D01*
X165335400Y-112964935D01*
X165158974Y-112949500D01*
X165158966Y-112949500D01*
X165041034Y-112949500D01*
X165041026Y-112949500D01*
X164864599Y-112964935D01*
X164636332Y-113026098D01*
X164422181Y-113125959D01*
X164422173Y-113125963D01*
X164228603Y-113261501D01*
X164061501Y-113428603D01*
X163925964Y-113622171D01*
X163826097Y-113836337D01*
X163764935Y-114064599D01*
X163744341Y-114299995D01*
X163744341Y-114300004D01*
X128355659Y-114300004D01*
X128355659Y-114300000D01*
X128335063Y-114064592D01*
X128273903Y-113836337D01*
X128174035Y-113622171D01*
X128038495Y-113428599D01*
X127871401Y-113261505D01*
X127871397Y-113261502D01*
X127871396Y-113261501D01*
X127677826Y-113125963D01*
X127677818Y-113125959D01*
X127463666Y-113026098D01*
X127463667Y-113026098D01*
X127387578Y-113005710D01*
X127235408Y-112964937D01*
X127235407Y-112964936D01*
X127235400Y-112964935D01*
X127058974Y-112949500D01*
X127058966Y-112949500D01*
X126941034Y-112949500D01*
X126941026Y-112949500D01*
X126764599Y-112964935D01*
X126536332Y-113026098D01*
X126322181Y-113125959D01*
X126322173Y-113125963D01*
X126128603Y-113261501D01*
X125961501Y-113428603D01*
X125825964Y-113622171D01*
X125726097Y-113836337D01*
X125664935Y-114064599D01*
X125644341Y-114299995D01*
X125644341Y-114300004D01*
X124325539Y-114300004D01*
X124325500Y-114298615D01*
X124325500Y-111252000D01*
X130254750Y-111252000D01*
X130273669Y-111395708D01*
X130273670Y-111395709D01*
X130302577Y-111465499D01*
X130329139Y-111529625D01*
X130417379Y-111644621D01*
X130532375Y-111732861D01*
X130666291Y-111788330D01*
X130810000Y-111807250D01*
X130953709Y-111788330D01*
X131087625Y-111732861D01*
X131202621Y-111644621D01*
X131229950Y-111609005D01*
X133586463Y-111609005D01*
X133604219Y-111790744D01*
X133604221Y-111790753D01*
X133654577Y-111966257D01*
X133654580Y-111966264D01*
X133735882Y-112129769D01*
X133845438Y-112275855D01*
X133845441Y-112275857D01*
X133845443Y-112275860D01*
X133979625Y-112399692D01*
X133979627Y-112399693D01*
X133979630Y-112399696D01*
X134134023Y-112497198D01*
X134303515Y-112565142D01*
X134303518Y-112565142D01*
X134303519Y-112565143D01*
X134323861Y-112569250D01*
X134482506Y-112601281D01*
X134644795Y-112604073D01*
X134665081Y-112604422D01*
X134665081Y-112604421D01*
X134665082Y-112604422D01*
X134845210Y-112574460D01*
X135016938Y-112512386D01*
X135035551Y-112501538D01*
X135036616Y-112501008D01*
X135038867Y-112499692D01*
X135038870Y-112499692D01*
X135072536Y-112480022D01*
X135122486Y-112466502D01*
X135161392Y-112466506D01*
X135161393Y-112466505D01*
X135164567Y-112466506D01*
X135164682Y-112466499D01*
X136615276Y-112466499D01*
X136615374Y-112466505D01*
X136618606Y-112466504D01*
X136618608Y-112466505D01*
X136657510Y-112466501D01*
X136707459Y-112480019D01*
X136736863Y-112497198D01*
X136743145Y-112500868D01*
X136744740Y-112501663D01*
X136757725Y-112509229D01*
X136763078Y-112512349D01*
X136840485Y-112540328D01*
X136934788Y-112574416D01*
X136934791Y-112574416D01*
X136934800Y-112574420D01*
X137114921Y-112604381D01*
X137297489Y-112601240D01*
X137476473Y-112565103D01*
X137645958Y-112497162D01*
X137800345Y-112399664D01*
X137917418Y-112291621D01*
X137934526Y-112275833D01*
X137934529Y-112275830D01*
X137934529Y-112275829D01*
X137934531Y-112275828D01*
X138044083Y-112129748D01*
X138101638Y-112014000D01*
X151336750Y-112014000D01*
X151355669Y-112157708D01*
X151355670Y-112157709D01*
X151404596Y-112275830D01*
X151411139Y-112291625D01*
X151499379Y-112406621D01*
X151614375Y-112494861D01*
X151748291Y-112550330D01*
X151891999Y-112569250D01*
X151891999Y-112569249D01*
X151892000Y-112569250D01*
X152035709Y-112550330D01*
X152169625Y-112494861D01*
X152284621Y-112406621D01*
X152372861Y-112291625D01*
X152428330Y-112157709D01*
X152447250Y-112014000D01*
X152440963Y-111966250D01*
X152428330Y-111870291D01*
X152372861Y-111736375D01*
X152284621Y-111621379D01*
X152268495Y-111609005D01*
X153906463Y-111609005D01*
X153924219Y-111790744D01*
X153924221Y-111790753D01*
X153974577Y-111966257D01*
X153974580Y-111966264D01*
X154055882Y-112129769D01*
X154165438Y-112275855D01*
X154165441Y-112275857D01*
X154165443Y-112275860D01*
X154299625Y-112399692D01*
X154299627Y-112399693D01*
X154299630Y-112399696D01*
X154454023Y-112497198D01*
X154623515Y-112565142D01*
X154623518Y-112565142D01*
X154623519Y-112565143D01*
X154643861Y-112569250D01*
X154802506Y-112601281D01*
X154964795Y-112604073D01*
X154985081Y-112604422D01*
X154985081Y-112604421D01*
X154985082Y-112604422D01*
X155165210Y-112574460D01*
X155336938Y-112512386D01*
X155355551Y-112501538D01*
X155356616Y-112501008D01*
X155358867Y-112499692D01*
X155358870Y-112499692D01*
X155392536Y-112480022D01*
X155442486Y-112466502D01*
X155481392Y-112466506D01*
X155481393Y-112466505D01*
X155484567Y-112466506D01*
X155484682Y-112466499D01*
X156935276Y-112466499D01*
X156935374Y-112466505D01*
X156938606Y-112466504D01*
X156938608Y-112466505D01*
X156977510Y-112466501D01*
X157027459Y-112480019D01*
X157056863Y-112497198D01*
X157063145Y-112500868D01*
X157064740Y-112501663D01*
X157077725Y-112509229D01*
X157083078Y-112512349D01*
X157160485Y-112540328D01*
X157254788Y-112574416D01*
X157254791Y-112574416D01*
X157254800Y-112574420D01*
X157434921Y-112604381D01*
X157617489Y-112601240D01*
X157796473Y-112565103D01*
X157965958Y-112497162D01*
X158120345Y-112399664D01*
X158237418Y-112291621D01*
X158254526Y-112275833D01*
X158254529Y-112275830D01*
X158254529Y-112275829D01*
X158254531Y-112275828D01*
X158364083Y-112129748D01*
X158445382Y-111966250D01*
X158495741Y-111790736D01*
X158513496Y-111609006D01*
X158498060Y-111427064D01*
X158449944Y-111250922D01*
X158449937Y-111250908D01*
X158446372Y-111243480D01*
X158440611Y-111231476D01*
X158440006Y-111229970D01*
X158420318Y-111189107D01*
X158410506Y-111146104D01*
X158410520Y-111103108D01*
X158410519Y-111103104D01*
X158410520Y-111100052D01*
X158410499Y-111099714D01*
X158410499Y-109785890D01*
X158420244Y-109743059D01*
X158424106Y-109735011D01*
X158424143Y-109735028D01*
X158424163Y-109734890D01*
X158439019Y-109704040D01*
X158439019Y-109704039D01*
X158440230Y-109701525D01*
X158440508Y-109700832D01*
X158440657Y-109700522D01*
X158449981Y-109681094D01*
X158498100Y-109504945D01*
X158513537Y-109322996D01*
X158495781Y-109141258D01*
X158445421Y-108965737D01*
X158364119Y-108802232D01*
X158254562Y-108656145D01*
X158254558Y-108656141D01*
X158254556Y-108656139D01*
X158120372Y-108532306D01*
X158120370Y-108532304D01*
X157965984Y-108434805D01*
X157965980Y-108434803D01*
X157965978Y-108434802D01*
X157796486Y-108366858D01*
X157796485Y-108366857D01*
X157796481Y-108366856D01*
X157617495Y-108330719D01*
X157617486Y-108330718D01*
X157434919Y-108327577D01*
X157254795Y-108357539D01*
X157254792Y-108357539D01*
X157254790Y-108357540D01*
X157254788Y-108357540D01*
X157254778Y-108357543D01*
X157083062Y-108419613D01*
X157064458Y-108430453D01*
X157063384Y-108430990D01*
X157027462Y-108451977D01*
X156977513Y-108465496D01*
X156935434Y-108465492D01*
X156935318Y-108465500D01*
X155442493Y-108465500D01*
X155392538Y-108451972D01*
X155357058Y-108431235D01*
X155355264Y-108430340D01*
X155336923Y-108419652D01*
X155336917Y-108419649D01*
X155165212Y-108357583D01*
X155165197Y-108357579D01*
X154985076Y-108327618D01*
X154802520Y-108330759D01*
X154802511Y-108330760D01*
X154623531Y-108366896D01*
X154623529Y-108366896D01*
X154623528Y-108366897D01*
X154454122Y-108434805D01*
X154454035Y-108434840D01*
X154299658Y-108532333D01*
X154165468Y-108656171D01*
X154165466Y-108656174D01*
X154055920Y-108802247D01*
X154055918Y-108802249D01*
X154055917Y-108802252D01*
X154014605Y-108885333D01*
X153974618Y-108965749D01*
X153974615Y-108965756D01*
X153924261Y-109141253D01*
X153924259Y-109141262D01*
X153906504Y-109322995D01*
X153921939Y-109504935D01*
X153970056Y-109681079D01*
X153979387Y-109700522D01*
X153979896Y-109701787D01*
X153980981Y-109704040D01*
X153999699Y-109742915D01*
X154009501Y-109785863D01*
X154009501Y-111146109D01*
X153999757Y-111188936D01*
X153996058Y-111196646D01*
X153979762Y-111230490D01*
X153979483Y-111231181D01*
X153973411Y-111243836D01*
X153970018Y-111250907D01*
X153955608Y-111303657D01*
X153921901Y-111427050D01*
X153921900Y-111427053D01*
X153921900Y-111427056D01*
X153917606Y-111477669D01*
X153906463Y-111609005D01*
X152268495Y-111609005D01*
X152169625Y-111533139D01*
X152169621Y-111533137D01*
X152035709Y-111477670D01*
X152035708Y-111477669D01*
X151892000Y-111458750D01*
X151748291Y-111477669D01*
X151748290Y-111477670D01*
X151614378Y-111533137D01*
X151614374Y-111533139D01*
X151499381Y-111621377D01*
X151499377Y-111621381D01*
X151411139Y-111736374D01*
X151411137Y-111736378D01*
X151355670Y-111870290D01*
X151355669Y-111870291D01*
X151336750Y-112013999D01*
X151336750Y-112014000D01*
X138101638Y-112014000D01*
X138125382Y-111966250D01*
X138175741Y-111790736D01*
X138193496Y-111609006D01*
X138178060Y-111427064D01*
X138129944Y-111250922D01*
X138129937Y-111250908D01*
X138126372Y-111243480D01*
X138120611Y-111231476D01*
X138120006Y-111229970D01*
X138100318Y-111189107D01*
X138090506Y-111146104D01*
X138090520Y-111103108D01*
X138090519Y-111103104D01*
X138090520Y-111100052D01*
X138090499Y-111099714D01*
X138090499Y-109785890D01*
X138100244Y-109743059D01*
X138104106Y-109735011D01*
X138104143Y-109735028D01*
X138104163Y-109734890D01*
X138119019Y-109704040D01*
X138119019Y-109704039D01*
X138120230Y-109701525D01*
X138120508Y-109700832D01*
X138120657Y-109700522D01*
X138129981Y-109681094D01*
X138178100Y-109504945D01*
X138193537Y-109322996D01*
X138175781Y-109141258D01*
X138125421Y-108965737D01*
X138044119Y-108802232D01*
X137934562Y-108656145D01*
X137934558Y-108656141D01*
X137934556Y-108656139D01*
X137800372Y-108532306D01*
X137800370Y-108532304D01*
X137645984Y-108434805D01*
X137645980Y-108434803D01*
X137645978Y-108434802D01*
X137476486Y-108366858D01*
X137476485Y-108366857D01*
X137476481Y-108366856D01*
X137297495Y-108330719D01*
X137297486Y-108330718D01*
X137114919Y-108327577D01*
X136934795Y-108357539D01*
X136934792Y-108357539D01*
X136934790Y-108357540D01*
X136934788Y-108357540D01*
X136934778Y-108357543D01*
X136763062Y-108419613D01*
X136744458Y-108430453D01*
X136743384Y-108430990D01*
X136707462Y-108451977D01*
X136657513Y-108465496D01*
X136615434Y-108465492D01*
X136615318Y-108465500D01*
X135122493Y-108465500D01*
X135072538Y-108451972D01*
X135037058Y-108431235D01*
X135035264Y-108430340D01*
X135016923Y-108419652D01*
X135016917Y-108419649D01*
X134845212Y-108357583D01*
X134845197Y-108357579D01*
X134665076Y-108327618D01*
X134482520Y-108330759D01*
X134482511Y-108330760D01*
X134303531Y-108366896D01*
X134303529Y-108366896D01*
X134303528Y-108366897D01*
X134134122Y-108434805D01*
X134134035Y-108434840D01*
X133979658Y-108532333D01*
X133845468Y-108656171D01*
X133845466Y-108656174D01*
X133735920Y-108802247D01*
X133735918Y-108802249D01*
X133735917Y-108802252D01*
X133694605Y-108885333D01*
X133654618Y-108965749D01*
X133654615Y-108965756D01*
X133604261Y-109141253D01*
X133604259Y-109141262D01*
X133586504Y-109322995D01*
X133601939Y-109504935D01*
X133650056Y-109681079D01*
X133659387Y-109700522D01*
X133659896Y-109701787D01*
X133660981Y-109704040D01*
X133679699Y-109742915D01*
X133689501Y-109785863D01*
X133689501Y-111146109D01*
X133679757Y-111188936D01*
X133676058Y-111196646D01*
X133659762Y-111230490D01*
X133659483Y-111231181D01*
X133653411Y-111243836D01*
X133650018Y-111250907D01*
X133635608Y-111303657D01*
X133601901Y-111427050D01*
X133601900Y-111427053D01*
X133601900Y-111427056D01*
X133597606Y-111477669D01*
X133586463Y-111609005D01*
X131229950Y-111609005D01*
X131290861Y-111529625D01*
X131346330Y-111395709D01*
X131365250Y-111252000D01*
X131365107Y-111250917D01*
X131346330Y-111108291D01*
X131290861Y-110974375D01*
X131202621Y-110859379D01*
X131087625Y-110771139D01*
X131087621Y-110771137D01*
X130953709Y-110715670D01*
X130953708Y-110715669D01*
X130810000Y-110696750D01*
X130666291Y-110715669D01*
X130666290Y-110715670D01*
X130532378Y-110771137D01*
X130532374Y-110771139D01*
X130417381Y-110859377D01*
X130417377Y-110859381D01*
X130329139Y-110974374D01*
X130329137Y-110974378D01*
X130273670Y-111108290D01*
X130273669Y-111108291D01*
X130254750Y-111251999D01*
X130254750Y-111252000D01*
X124325500Y-111252000D01*
X124325500Y-106680000D01*
X133858000Y-106680000D01*
X134366000Y-107188000D01*
X134366001Y-107188000D01*
X137413999Y-107188000D01*
X137414000Y-107188000D01*
X137922000Y-106680000D01*
X154178000Y-106680000D01*
X154686000Y-107188000D01*
X154686001Y-107188000D01*
X157733999Y-107188000D01*
X157734000Y-107188000D01*
X158242000Y-106680000D01*
X158242000Y-105357400D01*
X160185746Y-105357400D01*
X160195746Y-105567330D01*
X160195747Y-105567337D01*
X160245295Y-105771573D01*
X160245300Y-105771586D01*
X160332602Y-105962751D01*
X160332604Y-105962754D01*
X160454511Y-106133949D01*
X160454513Y-106133951D01*
X160454514Y-106133952D01*
X160606622Y-106278986D01*
X160783428Y-106392613D01*
X160978543Y-106470725D01*
X161184915Y-106510500D01*
X161184918Y-106510500D01*
X161342425Y-106510500D01*
X161499218Y-106495528D01*
X161700875Y-106436316D01*
X161887682Y-106340011D01*
X162052886Y-106210092D01*
X162190519Y-106051256D01*
X162295604Y-105869244D01*
X162364344Y-105670633D01*
X162394254Y-105462602D01*
X162384254Y-105252670D01*
X162334704Y-105048424D01*
X162290102Y-104950760D01*
X162247397Y-104857248D01*
X162247395Y-104857245D01*
X162125488Y-104686050D01*
X162045631Y-104609907D01*
X161973378Y-104541014D01*
X161796572Y-104427387D01*
X161796569Y-104427386D01*
X161796568Y-104427385D01*
X161687409Y-104383685D01*
X161601457Y-104349275D01*
X161395085Y-104309500D01*
X161237575Y-104309500D01*
X161080781Y-104324472D01*
X160879120Y-104383685D01*
X160692320Y-104479987D01*
X160692317Y-104479989D01*
X160527113Y-104609907D01*
X160389480Y-104768744D01*
X160284397Y-104950753D01*
X160284394Y-104950760D01*
X160215657Y-105149362D01*
X160215655Y-105149368D01*
X160185746Y-105357393D01*
X160185746Y-105357400D01*
X158242000Y-105357400D01*
X158242000Y-104140000D01*
X157734000Y-103632000D01*
X154686000Y-103632000D01*
X154178000Y-104140000D01*
X154178000Y-106680000D01*
X137922000Y-106680000D01*
X137922000Y-105357400D01*
X139865746Y-105357400D01*
X139875746Y-105567330D01*
X139875747Y-105567337D01*
X139925295Y-105771573D01*
X139925300Y-105771586D01*
X140012602Y-105962751D01*
X140012604Y-105962754D01*
X140134511Y-106133949D01*
X140134513Y-106133951D01*
X140134514Y-106133952D01*
X140286622Y-106278986D01*
X140463428Y-106392613D01*
X140658543Y-106470725D01*
X140864915Y-106510500D01*
X140864918Y-106510500D01*
X141022425Y-106510500D01*
X141179218Y-106495528D01*
X141380875Y-106436316D01*
X141567682Y-106340011D01*
X141732886Y-106210092D01*
X141870519Y-106051256D01*
X141975604Y-105869244D01*
X142044344Y-105670633D01*
X142074254Y-105462602D01*
X142069243Y-105357400D01*
X150025746Y-105357400D01*
X150035746Y-105567330D01*
X150035747Y-105567337D01*
X150085295Y-105771573D01*
X150085300Y-105771586D01*
X150172602Y-105962751D01*
X150172604Y-105962754D01*
X150294511Y-106133949D01*
X150294513Y-106133951D01*
X150294514Y-106133952D01*
X150446622Y-106278986D01*
X150623428Y-106392613D01*
X150818543Y-106470725D01*
X151024915Y-106510500D01*
X151024918Y-106510500D01*
X151182425Y-106510500D01*
X151339218Y-106495528D01*
X151540875Y-106436316D01*
X151727682Y-106340011D01*
X151892886Y-106210092D01*
X152030519Y-106051256D01*
X152135604Y-105869244D01*
X152204344Y-105670633D01*
X152234254Y-105462602D01*
X152224254Y-105252670D01*
X152174704Y-105048424D01*
X152130102Y-104950760D01*
X152087397Y-104857248D01*
X152087395Y-104857245D01*
X151965488Y-104686050D01*
X151885631Y-104609907D01*
X151813378Y-104541014D01*
X151636572Y-104427387D01*
X151636569Y-104427386D01*
X151636568Y-104427385D01*
X151482879Y-104365858D01*
X151441457Y-104349275D01*
X151441456Y-104349274D01*
X151441454Y-104349274D01*
X151436933Y-104347947D01*
X151437562Y-104345804D01*
X151391569Y-104320382D01*
X151365645Y-104264960D01*
X151375683Y-104207832D01*
X151410244Y-104140001D01*
X151412719Y-104135144D01*
X151433804Y-104002018D01*
X151412719Y-103868892D01*
X151351528Y-103748798D01*
X151256220Y-103653490D01*
X151256217Y-103653488D01*
X151136129Y-103592300D01*
X151136127Y-103592299D01*
X151005616Y-103571628D01*
X150951099Y-103543850D01*
X150923323Y-103489336D01*
X150904719Y-103371874D01*
X150843528Y-103251780D01*
X150748220Y-103156472D01*
X150748217Y-103156470D01*
X150628129Y-103095282D01*
X150628127Y-103095281D01*
X150495000Y-103074196D01*
X150361872Y-103095281D01*
X150361870Y-103095282D01*
X150241782Y-103156470D01*
X150146470Y-103251782D01*
X150085282Y-103371870D01*
X150085281Y-103371872D01*
X150064196Y-103504999D01*
X150064196Y-103505000D01*
X150085281Y-103638127D01*
X150085282Y-103638129D01*
X150104940Y-103676709D01*
X150146472Y-103758220D01*
X150241780Y-103853528D01*
X150361874Y-103914719D01*
X150492383Y-103935389D01*
X150546898Y-103963166D01*
X150574676Y-104017682D01*
X150593281Y-104135145D01*
X150593282Y-104135147D01*
X150630317Y-104207832D01*
X150654472Y-104255238D01*
X150665347Y-104266113D01*
X150693123Y-104320628D01*
X150683552Y-104381060D01*
X150640707Y-104424109D01*
X150532325Y-104479984D01*
X150532317Y-104479989D01*
X150367113Y-104609907D01*
X150229480Y-104768744D01*
X150124397Y-104950753D01*
X150124394Y-104950760D01*
X150055657Y-105149362D01*
X150055655Y-105149368D01*
X150025746Y-105357393D01*
X150025746Y-105357400D01*
X142069243Y-105357400D01*
X142064254Y-105252670D01*
X142014704Y-105048424D01*
X141970102Y-104950760D01*
X141927397Y-104857248D01*
X141927395Y-104857245D01*
X141805488Y-104686050D01*
X141725631Y-104609907D01*
X141653378Y-104541014D01*
X141476572Y-104427387D01*
X141476569Y-104427386D01*
X141476568Y-104427385D01*
X141367409Y-104383685D01*
X141281457Y-104349275D01*
X141075085Y-104309500D01*
X140917575Y-104309500D01*
X140760781Y-104324472D01*
X140559120Y-104383685D01*
X140372320Y-104479987D01*
X140372317Y-104479989D01*
X140207113Y-104609907D01*
X140069480Y-104768744D01*
X139964397Y-104950753D01*
X139964394Y-104950760D01*
X139895657Y-105149362D01*
X139895655Y-105149368D01*
X139865746Y-105357393D01*
X139865746Y-105357400D01*
X137922000Y-105357400D01*
X137922000Y-104140000D01*
X137414000Y-103632000D01*
X134366000Y-103632000D01*
X133858000Y-104140000D01*
X133858000Y-106680000D01*
X124325500Y-106680000D01*
X124325500Y-105357400D01*
X129705746Y-105357400D01*
X129715746Y-105567330D01*
X129715747Y-105567337D01*
X129765295Y-105771573D01*
X129765300Y-105771586D01*
X129852602Y-105962751D01*
X129852604Y-105962754D01*
X129974511Y-106133949D01*
X129974513Y-106133951D01*
X129974514Y-106133952D01*
X130126622Y-106278986D01*
X130303428Y-106392613D01*
X130498543Y-106470725D01*
X130704915Y-106510500D01*
X130704918Y-106510500D01*
X130862425Y-106510500D01*
X131019218Y-106495528D01*
X131220875Y-106436316D01*
X131407682Y-106340011D01*
X131572886Y-106210092D01*
X131710519Y-106051256D01*
X131815604Y-105869244D01*
X131884344Y-105670633D01*
X131914254Y-105462602D01*
X131904254Y-105252670D01*
X131854704Y-105048424D01*
X131810102Y-104950760D01*
X131767397Y-104857248D01*
X131767395Y-104857245D01*
X131645488Y-104686050D01*
X131565631Y-104609907D01*
X131493378Y-104541014D01*
X131316572Y-104427387D01*
X131316569Y-104427386D01*
X131316568Y-104427385D01*
X131207409Y-104383685D01*
X131121457Y-104349275D01*
X130915085Y-104309500D01*
X130757575Y-104309500D01*
X130600781Y-104324472D01*
X130399120Y-104383685D01*
X130212320Y-104479987D01*
X130212317Y-104479989D01*
X130047113Y-104609907D01*
X129909480Y-104768744D01*
X129804397Y-104950753D01*
X129804394Y-104950760D01*
X129735657Y-105149362D01*
X129735655Y-105149368D01*
X129705746Y-105357393D01*
X129705746Y-105357400D01*
X124325500Y-105357400D01*
X124325500Y-103533000D01*
X139652750Y-103533000D01*
X139671669Y-103676708D01*
X139671670Y-103676709D01*
X139701530Y-103748800D01*
X139727139Y-103810625D01*
X139815379Y-103925621D01*
X139930375Y-104013861D01*
X140064291Y-104069330D01*
X140208000Y-104088250D01*
X140351709Y-104069330D01*
X140485625Y-104013861D01*
X140600621Y-103925621D01*
X140688861Y-103810625D01*
X140744330Y-103676709D01*
X140763250Y-103533000D01*
X140744330Y-103389291D01*
X140688861Y-103255375D01*
X140600621Y-103140379D01*
X140485625Y-103052139D01*
X140485621Y-103052137D01*
X140351709Y-102996670D01*
X140351708Y-102996669D01*
X140208000Y-102977750D01*
X140064291Y-102996669D01*
X140064290Y-102996670D01*
X139930378Y-103052137D01*
X139930374Y-103052139D01*
X139815381Y-103140377D01*
X139815377Y-103140381D01*
X139727139Y-103255374D01*
X139727137Y-103255378D01*
X139671670Y-103389290D01*
X139671669Y-103389291D01*
X139652750Y-103532999D01*
X139652750Y-103533000D01*
X124325500Y-103533000D01*
X124325500Y-102875002D01*
X144269858Y-102875002D01*
X144290319Y-103017314D01*
X144350048Y-103148100D01*
X144354889Y-103153688D01*
X144354890Y-103153688D01*
X144602489Y-102906088D01*
X144606475Y-102938913D01*
X144655481Y-103009909D01*
X144731866Y-103050000D01*
X144741421Y-103050000D01*
X144499269Y-103292149D01*
X144565155Y-103334492D01*
X144703109Y-103374999D01*
X144703112Y-103375000D01*
X144846888Y-103375000D01*
X144846890Y-103374999D01*
X144984844Y-103334492D01*
X144984846Y-103334491D01*
X145050728Y-103292149D01*
X145050729Y-103292149D01*
X144806140Y-103047561D01*
X144858760Y-103034592D01*
X144923332Y-102977386D01*
X144949585Y-102908163D01*
X145195109Y-103153687D01*
X145199950Y-103148102D01*
X145199951Y-103148100D01*
X145259680Y-103017314D01*
X145280142Y-102875002D01*
X145544858Y-102875002D01*
X145565319Y-103017314D01*
X145625048Y-103148100D01*
X145629889Y-103153687D01*
X145877489Y-102906086D01*
X145881475Y-102938913D01*
X145930481Y-103009909D01*
X146006866Y-103050000D01*
X146016421Y-103050000D01*
X145774269Y-103292149D01*
X145840155Y-103334492D01*
X145978109Y-103374999D01*
X145978112Y-103375000D01*
X146121888Y-103375000D01*
X146121890Y-103374999D01*
X146259844Y-103334492D01*
X146259846Y-103334491D01*
X146325728Y-103292149D01*
X146325729Y-103292149D01*
X146081140Y-103047561D01*
X146133760Y-103034592D01*
X146198332Y-102977386D01*
X146224585Y-102908163D01*
X146470109Y-103153687D01*
X146474950Y-103148102D01*
X146474951Y-103148100D01*
X146534680Y-103017314D01*
X146555142Y-102875002D01*
X146819858Y-102875002D01*
X146840319Y-103017314D01*
X146900048Y-103148100D01*
X146904889Y-103153687D01*
X147152489Y-102906086D01*
X147156475Y-102938913D01*
X147205481Y-103009909D01*
X147281866Y-103050000D01*
X147291421Y-103050000D01*
X147049269Y-103292149D01*
X147115155Y-103334492D01*
X147253109Y-103374999D01*
X147253112Y-103375000D01*
X147396888Y-103375000D01*
X147396890Y-103374999D01*
X147534844Y-103334492D01*
X147534846Y-103334491D01*
X147600728Y-103292149D01*
X147600729Y-103292149D01*
X147356140Y-103047561D01*
X147408760Y-103034592D01*
X147473332Y-102977386D01*
X147499585Y-102908163D01*
X147745109Y-103153687D01*
X147749950Y-103148102D01*
X147749951Y-103148100D01*
X147809680Y-103017314D01*
X147830142Y-102875002D01*
X147830142Y-102874997D01*
X147809680Y-102732685D01*
X147749951Y-102601899D01*
X147745109Y-102596311D01*
X147497510Y-102843909D01*
X147493525Y-102811087D01*
X147444519Y-102740091D01*
X147368134Y-102700000D01*
X147358578Y-102700000D01*
X147600729Y-102457849D01*
X147534844Y-102415507D01*
X147396890Y-102375000D01*
X147253109Y-102375000D01*
X147115156Y-102415507D01*
X147115151Y-102415509D01*
X147049270Y-102457848D01*
X147293860Y-102702438D01*
X147241240Y-102715408D01*
X147176668Y-102772614D01*
X147150415Y-102841835D01*
X146904890Y-102596310D01*
X146900048Y-102601899D01*
X146900046Y-102601902D01*
X146840319Y-102732685D01*
X146819858Y-102874997D01*
X146819858Y-102875002D01*
X146555142Y-102875002D01*
X146555142Y-102874997D01*
X146534680Y-102732685D01*
X146474951Y-102601899D01*
X146470109Y-102596311D01*
X146222510Y-102843909D01*
X146218525Y-102811087D01*
X146169519Y-102740091D01*
X146093134Y-102700000D01*
X146083576Y-102700000D01*
X146325728Y-102457848D01*
X146259844Y-102415507D01*
X146121890Y-102375000D01*
X145978109Y-102375000D01*
X145840156Y-102415507D01*
X145840151Y-102415509D01*
X145774269Y-102457848D01*
X146018860Y-102702438D01*
X145966240Y-102715408D01*
X145901668Y-102772614D01*
X145875415Y-102841835D01*
X145629890Y-102596310D01*
X145625048Y-102601899D01*
X145625046Y-102601902D01*
X145565319Y-102732685D01*
X145544858Y-102874997D01*
X145544858Y-102875002D01*
X145280142Y-102875002D01*
X145280142Y-102874997D01*
X145259680Y-102732685D01*
X145199951Y-102601899D01*
X145195109Y-102596311D01*
X144947510Y-102843909D01*
X144943525Y-102811087D01*
X144894519Y-102740091D01*
X144818134Y-102700000D01*
X144808578Y-102700000D01*
X145050729Y-102457849D01*
X144984844Y-102415507D01*
X144846890Y-102375000D01*
X144703109Y-102375000D01*
X144565156Y-102415507D01*
X144565151Y-102415509D01*
X144499270Y-102457848D01*
X144743860Y-102702438D01*
X144691240Y-102715408D01*
X144626668Y-102772614D01*
X144600414Y-102841836D01*
X144354889Y-102596311D01*
X144350048Y-102601899D01*
X144350046Y-102601902D01*
X144290319Y-102732685D01*
X144269858Y-102874997D01*
X144269858Y-102875002D01*
X124325500Y-102875002D01*
X124325500Y-101600002D01*
X144269858Y-101600002D01*
X144290319Y-101742314D01*
X144350048Y-101873100D01*
X144354889Y-101878688D01*
X144602489Y-101631088D01*
X144606475Y-101663913D01*
X144655481Y-101734909D01*
X144731866Y-101775000D01*
X144741421Y-101775000D01*
X144499269Y-102017149D01*
X144565155Y-102059492D01*
X144703109Y-102099999D01*
X144703112Y-102100000D01*
X144846888Y-102100000D01*
X144846890Y-102099999D01*
X144984844Y-102059492D01*
X144984846Y-102059491D01*
X145050728Y-102017149D01*
X145050729Y-102017149D01*
X144806140Y-101772561D01*
X144858760Y-101759592D01*
X144923332Y-101702386D01*
X144949585Y-101633163D01*
X145195109Y-101878687D01*
X145199950Y-101873102D01*
X145199951Y-101873100D01*
X145259680Y-101742314D01*
X145280142Y-101600002D01*
X145544858Y-101600002D01*
X145565319Y-101742314D01*
X145625048Y-101873100D01*
X145629889Y-101878688D01*
X145629890Y-101878688D01*
X145877489Y-101631088D01*
X145881475Y-101663913D01*
X145930481Y-101734909D01*
X146006866Y-101775000D01*
X146016421Y-101775000D01*
X145774269Y-102017149D01*
X145840155Y-102059492D01*
X145978109Y-102099999D01*
X145978112Y-102100000D01*
X146121888Y-102100000D01*
X146121890Y-102099999D01*
X146259844Y-102059492D01*
X146259846Y-102059491D01*
X146325728Y-102017149D01*
X146325729Y-102017149D01*
X146081140Y-101772561D01*
X146133760Y-101759592D01*
X146198332Y-101702386D01*
X146224585Y-101633163D01*
X146470109Y-101878687D01*
X146474950Y-101873102D01*
X146474951Y-101873100D01*
X146534680Y-101742314D01*
X146555142Y-101600002D01*
X146819858Y-101600002D01*
X146840319Y-101742314D01*
X146900048Y-101873100D01*
X146904889Y-101878688D01*
X146904890Y-101878688D01*
X147152489Y-101631088D01*
X147156475Y-101663913D01*
X147205481Y-101734909D01*
X147281866Y-101775000D01*
X147291421Y-101775000D01*
X147049269Y-102017149D01*
X147115155Y-102059492D01*
X147253109Y-102099999D01*
X147253112Y-102100000D01*
X147396888Y-102100000D01*
X147396890Y-102099999D01*
X147534844Y-102059492D01*
X147534846Y-102059491D01*
X147600728Y-102017149D01*
X147600729Y-102017149D01*
X147356140Y-101772561D01*
X147408760Y-101759592D01*
X147473332Y-101702386D01*
X147499585Y-101633163D01*
X147745109Y-101878687D01*
X147749950Y-101873102D01*
X147749951Y-101873100D01*
X147809680Y-101742314D01*
X147830142Y-101600002D01*
X147830142Y-101599997D01*
X147809680Y-101457685D01*
X147749951Y-101326899D01*
X147745109Y-101321311D01*
X147497510Y-101568909D01*
X147493525Y-101536087D01*
X147444519Y-101465091D01*
X147368134Y-101425000D01*
X147358578Y-101425000D01*
X147600729Y-101182849D01*
X147534844Y-101140507D01*
X147396890Y-101100000D01*
X147253109Y-101100000D01*
X147115156Y-101140507D01*
X147115151Y-101140509D01*
X147049270Y-101182848D01*
X147293860Y-101427438D01*
X147241240Y-101440408D01*
X147176668Y-101497614D01*
X147150414Y-101566836D01*
X146904889Y-101321311D01*
X146900048Y-101326899D01*
X146900046Y-101326902D01*
X146840319Y-101457685D01*
X146819858Y-101599997D01*
X146819858Y-101600002D01*
X146555142Y-101600002D01*
X146555142Y-101599997D01*
X146534680Y-101457685D01*
X146474951Y-101326899D01*
X146470109Y-101321311D01*
X146222510Y-101568909D01*
X146218525Y-101536087D01*
X146169519Y-101465091D01*
X146093134Y-101425000D01*
X146083578Y-101425000D01*
X146325729Y-101182849D01*
X146259844Y-101140507D01*
X146121890Y-101100000D01*
X145978109Y-101100000D01*
X145840156Y-101140507D01*
X145840151Y-101140509D01*
X145774270Y-101182848D01*
X146018860Y-101427438D01*
X145966240Y-101440408D01*
X145901668Y-101497614D01*
X145875414Y-101566836D01*
X145629889Y-101321311D01*
X145625048Y-101326899D01*
X145625046Y-101326902D01*
X145565319Y-101457685D01*
X145544858Y-101599997D01*
X145544858Y-101600002D01*
X145280142Y-101600002D01*
X145280142Y-101599997D01*
X145259680Y-101457685D01*
X145199951Y-101326899D01*
X145195109Y-101321311D01*
X144947510Y-101568909D01*
X144943525Y-101536087D01*
X144894519Y-101465091D01*
X144818134Y-101425000D01*
X144808578Y-101425000D01*
X145050729Y-101182849D01*
X144984844Y-101140507D01*
X144846890Y-101100000D01*
X144703109Y-101100000D01*
X144565156Y-101140507D01*
X144565151Y-101140509D01*
X144499270Y-101182848D01*
X144743860Y-101427438D01*
X144691240Y-101440408D01*
X144626668Y-101497614D01*
X144600414Y-101566836D01*
X144354889Y-101321311D01*
X144350048Y-101326899D01*
X144350046Y-101326902D01*
X144290319Y-101457685D01*
X144269858Y-101599997D01*
X144269858Y-101600002D01*
X124325500Y-101600002D01*
X124325500Y-100325002D01*
X144269858Y-100325002D01*
X144290319Y-100467314D01*
X144350048Y-100598100D01*
X144354889Y-100603688D01*
X144602489Y-100356088D01*
X144606475Y-100388913D01*
X144655481Y-100459909D01*
X144731866Y-100500000D01*
X144741421Y-100500000D01*
X144499269Y-100742149D01*
X144565155Y-100784492D01*
X144703109Y-100824999D01*
X144703112Y-100825000D01*
X144846888Y-100825000D01*
X144846890Y-100824999D01*
X144984844Y-100784492D01*
X144984846Y-100784491D01*
X145050728Y-100742149D01*
X145050729Y-100742149D01*
X144806140Y-100497561D01*
X144858760Y-100484592D01*
X144923332Y-100427386D01*
X144949585Y-100358163D01*
X145195109Y-100603687D01*
X145199950Y-100598102D01*
X145199951Y-100598100D01*
X145259680Y-100467314D01*
X145280142Y-100325002D01*
X145544858Y-100325002D01*
X145565319Y-100467314D01*
X145625048Y-100598100D01*
X145629889Y-100603688D01*
X145629890Y-100603688D01*
X145877489Y-100356088D01*
X145881475Y-100388913D01*
X145930481Y-100459909D01*
X146006866Y-100500000D01*
X146016421Y-100500000D01*
X145774269Y-100742149D01*
X145840155Y-100784492D01*
X145978109Y-100824999D01*
X145978112Y-100825000D01*
X146121888Y-100825000D01*
X146121890Y-100824999D01*
X146259844Y-100784492D01*
X146259846Y-100784491D01*
X146325728Y-100742149D01*
X146325729Y-100742149D01*
X146081140Y-100497561D01*
X146133760Y-100484592D01*
X146198332Y-100427386D01*
X146224585Y-100358163D01*
X146470109Y-100603687D01*
X146474950Y-100598102D01*
X146474951Y-100598100D01*
X146534680Y-100467314D01*
X146555142Y-100325002D01*
X146819858Y-100325002D01*
X146840319Y-100467314D01*
X146900048Y-100598100D01*
X146904889Y-100603688D01*
X146904890Y-100603688D01*
X147152489Y-100356088D01*
X147156475Y-100388913D01*
X147205481Y-100459909D01*
X147281866Y-100500000D01*
X147291421Y-100500000D01*
X147049269Y-100742149D01*
X147115155Y-100784492D01*
X147253109Y-100824999D01*
X147253112Y-100825000D01*
X147396888Y-100825000D01*
X147396890Y-100824999D01*
X147534844Y-100784492D01*
X147534846Y-100784491D01*
X147600728Y-100742149D01*
X147600729Y-100742149D01*
X147356140Y-100497561D01*
X147408760Y-100484592D01*
X147473332Y-100427386D01*
X147499585Y-100358163D01*
X147745109Y-100603687D01*
X147749950Y-100598102D01*
X147749951Y-100598100D01*
X147809680Y-100467314D01*
X147830142Y-100325002D01*
X147830142Y-100324997D01*
X147809680Y-100182685D01*
X147749951Y-100051899D01*
X147745109Y-100046311D01*
X147497510Y-100293909D01*
X147493525Y-100261087D01*
X147444519Y-100190091D01*
X147368134Y-100150000D01*
X147358578Y-100150000D01*
X147510478Y-99998100D01*
X149871650Y-99998100D01*
X149890569Y-100141808D01*
X149890570Y-100141809D01*
X149920729Y-100214622D01*
X149946039Y-100275725D01*
X150034279Y-100390721D01*
X150149275Y-100478961D01*
X150283191Y-100534430D01*
X150426900Y-100553350D01*
X150570609Y-100534430D01*
X150704525Y-100478961D01*
X150819521Y-100390721D01*
X150907761Y-100275725D01*
X150963230Y-100141809D01*
X150982150Y-99998100D01*
X150963230Y-99854391D01*
X150949814Y-99822001D01*
X152987750Y-99822001D01*
X153006670Y-99965709D01*
X153006671Y-99965710D01*
X153040056Y-100046311D01*
X153062140Y-100099626D01*
X153150380Y-100214622D01*
X153265376Y-100302862D01*
X153399292Y-100358331D01*
X153543001Y-100377251D01*
X153686710Y-100358331D01*
X153820626Y-100302862D01*
X153935622Y-100214622D01*
X154023862Y-100099626D01*
X154079331Y-99965710D01*
X154098251Y-99822001D01*
X154079331Y-99678292D01*
X154023862Y-99544376D01*
X153935622Y-99429380D01*
X153820626Y-99341140D01*
X153820622Y-99341138D01*
X153686710Y-99285671D01*
X153686709Y-99285670D01*
X153543001Y-99266751D01*
X153399292Y-99285670D01*
X153399291Y-99285671D01*
X153265379Y-99341138D01*
X153265375Y-99341140D01*
X153150382Y-99429378D01*
X153150378Y-99429382D01*
X153062140Y-99544375D01*
X153062138Y-99544379D01*
X153006671Y-99678291D01*
X153006670Y-99678292D01*
X152987750Y-99822000D01*
X152987750Y-99822001D01*
X150949814Y-99822001D01*
X150907761Y-99720475D01*
X150819521Y-99605479D01*
X150704525Y-99517239D01*
X150704521Y-99517237D01*
X150570609Y-99461770D01*
X150570608Y-99461769D01*
X150426900Y-99442850D01*
X150283191Y-99461769D01*
X150283190Y-99461770D01*
X150149278Y-99517237D01*
X150149274Y-99517239D01*
X150034281Y-99605477D01*
X150034277Y-99605481D01*
X149946039Y-99720474D01*
X149946037Y-99720478D01*
X149890570Y-99854390D01*
X149890569Y-99854391D01*
X149871650Y-99998099D01*
X149871650Y-99998100D01*
X147510478Y-99998100D01*
X147600729Y-99907849D01*
X147534844Y-99865507D01*
X147396890Y-99825000D01*
X147253109Y-99825000D01*
X147115156Y-99865507D01*
X147115151Y-99865509D01*
X147049270Y-99907848D01*
X147293860Y-100152438D01*
X147241240Y-100165408D01*
X147176668Y-100222614D01*
X147150414Y-100291836D01*
X146904889Y-100046311D01*
X146900048Y-100051899D01*
X146900046Y-100051902D01*
X146840319Y-100182685D01*
X146819858Y-100324997D01*
X146819858Y-100325002D01*
X146555142Y-100325002D01*
X146555142Y-100324997D01*
X146534680Y-100182685D01*
X146474951Y-100051899D01*
X146470109Y-100046311D01*
X146222510Y-100293909D01*
X146218525Y-100261087D01*
X146169519Y-100190091D01*
X146093134Y-100150000D01*
X146083578Y-100150000D01*
X146325729Y-99907849D01*
X146259844Y-99865507D01*
X146121890Y-99825000D01*
X145978109Y-99825000D01*
X145840156Y-99865507D01*
X145840151Y-99865509D01*
X145774270Y-99907848D01*
X146018860Y-100152438D01*
X145966240Y-100165408D01*
X145901668Y-100222614D01*
X145875414Y-100291836D01*
X145629889Y-100046311D01*
X145625048Y-100051899D01*
X145625046Y-100051902D01*
X145565319Y-100182685D01*
X145544858Y-100324997D01*
X145544858Y-100325002D01*
X145280142Y-100325002D01*
X145280142Y-100324997D01*
X145259680Y-100182685D01*
X145199951Y-100051899D01*
X145195109Y-100046311D01*
X144947510Y-100293909D01*
X144943525Y-100261087D01*
X144894519Y-100190091D01*
X144818134Y-100150000D01*
X144808578Y-100150000D01*
X145050729Y-99907849D01*
X144984844Y-99865507D01*
X144846890Y-99825000D01*
X144703109Y-99825000D01*
X144565156Y-99865507D01*
X144565151Y-99865509D01*
X144499270Y-99907848D01*
X144743860Y-100152438D01*
X144691240Y-100165408D01*
X144626668Y-100222614D01*
X144600414Y-100291836D01*
X144354889Y-100046311D01*
X144350048Y-100051899D01*
X144350046Y-100051902D01*
X144290319Y-100182685D01*
X144269858Y-100324997D01*
X144269858Y-100325002D01*
X124325500Y-100325002D01*
X124325500Y-98806000D01*
X138763750Y-98806000D01*
X138782669Y-98949708D01*
X138782670Y-98949709D01*
X138794160Y-98977450D01*
X138838139Y-99083625D01*
X138926379Y-99198621D01*
X139041375Y-99286861D01*
X139175291Y-99342330D01*
X139318999Y-99361250D01*
X139318999Y-99361249D01*
X139319000Y-99361250D01*
X139462709Y-99342330D01*
X139596625Y-99286861D01*
X139711621Y-99198621D01*
X139799861Y-99083625D01*
X139843839Y-98977451D01*
X146822567Y-98977451D01*
X146843652Y-99110578D01*
X146843653Y-99110580D01*
X146888513Y-99198622D01*
X146904843Y-99230671D01*
X147000151Y-99325979D01*
X147120245Y-99387170D01*
X147253371Y-99408255D01*
X147386497Y-99387170D01*
X147506591Y-99325979D01*
X147601899Y-99230671D01*
X147663090Y-99110577D01*
X147684175Y-98977451D01*
X147663090Y-98844325D01*
X147601899Y-98724231D01*
X147506591Y-98628923D01*
X147506588Y-98628921D01*
X147386500Y-98567733D01*
X147386498Y-98567732D01*
X147253371Y-98546647D01*
X147120243Y-98567732D01*
X147120241Y-98567733D01*
X147000153Y-98628921D01*
X146904841Y-98724233D01*
X146843653Y-98844321D01*
X146843652Y-98844323D01*
X146822567Y-98977450D01*
X146822567Y-98977451D01*
X139843839Y-98977451D01*
X139855330Y-98949709D01*
X139874250Y-98806000D01*
X139855330Y-98662291D01*
X139799861Y-98528375D01*
X139711621Y-98413379D01*
X139596625Y-98325139D01*
X139596621Y-98325137D01*
X139462709Y-98269670D01*
X139462708Y-98269669D01*
X139319000Y-98250750D01*
X139175291Y-98269669D01*
X139175290Y-98269670D01*
X139041378Y-98325137D01*
X139041374Y-98325139D01*
X138926381Y-98413377D01*
X138926377Y-98413381D01*
X138838139Y-98528374D01*
X138838137Y-98528378D01*
X138782670Y-98662290D01*
X138782669Y-98662291D01*
X138763750Y-98805999D01*
X138763750Y-98806000D01*
X124325500Y-98806000D01*
X124325500Y-96520004D01*
X125644341Y-96520004D01*
X125664935Y-96755400D01*
X125726098Y-96983667D01*
X125825959Y-97197818D01*
X125825963Y-97197826D01*
X125825964Y-97197828D01*
X125825965Y-97197829D01*
X125961505Y-97391401D01*
X126128599Y-97558495D01*
X126322171Y-97694035D01*
X126322172Y-97694035D01*
X126322173Y-97694036D01*
X126322181Y-97694040D01*
X126536333Y-97793901D01*
X126536337Y-97793903D01*
X126764592Y-97855063D01*
X126764596Y-97855063D01*
X126764599Y-97855064D01*
X126941026Y-97870500D01*
X126941034Y-97870500D01*
X127058974Y-97870500D01*
X127235400Y-97855064D01*
X127235401Y-97855063D01*
X127235408Y-97855063D01*
X127463663Y-97793903D01*
X127677829Y-97694035D01*
X127871401Y-97558495D01*
X128038495Y-97391401D01*
X128174035Y-97197830D01*
X128273903Y-96983663D01*
X128335063Y-96755408D01*
X128355659Y-96520004D01*
X163744341Y-96520004D01*
X163764935Y-96755400D01*
X163826098Y-96983667D01*
X163925959Y-97197818D01*
X163925963Y-97197826D01*
X163925964Y-97197828D01*
X163925965Y-97197829D01*
X164061505Y-97391401D01*
X164228599Y-97558495D01*
X164422171Y-97694035D01*
X164422172Y-97694035D01*
X164422173Y-97694036D01*
X164422181Y-97694040D01*
X164636333Y-97793901D01*
X164636337Y-97793903D01*
X164864592Y-97855063D01*
X164864596Y-97855063D01*
X164864599Y-97855064D01*
X165041026Y-97870500D01*
X165041034Y-97870500D01*
X165158974Y-97870500D01*
X165335400Y-97855064D01*
X165335401Y-97855063D01*
X165335408Y-97855063D01*
X165563663Y-97793903D01*
X165777829Y-97694035D01*
X165971401Y-97558495D01*
X166138495Y-97391401D01*
X166274035Y-97197830D01*
X166373903Y-96983663D01*
X166435063Y-96755408D01*
X166455659Y-96520000D01*
X166435063Y-96284592D01*
X166373903Y-96056337D01*
X166373901Y-96056332D01*
X166274040Y-95842181D01*
X166274036Y-95842173D01*
X166138498Y-95648603D01*
X166138497Y-95648602D01*
X166138495Y-95648599D01*
X165971401Y-95481505D01*
X165971397Y-95481502D01*
X165971396Y-95481501D01*
X165777826Y-95345963D01*
X165777818Y-95345959D01*
X165563666Y-95246098D01*
X165563667Y-95246098D01*
X165418331Y-95207156D01*
X165335408Y-95184937D01*
X165335407Y-95184936D01*
X165335400Y-95184935D01*
X165158974Y-95169500D01*
X165158966Y-95169500D01*
X165041034Y-95169500D01*
X165041026Y-95169500D01*
X164864599Y-95184935D01*
X164636332Y-95246098D01*
X164422181Y-95345959D01*
X164422173Y-95345963D01*
X164228603Y-95481501D01*
X164061501Y-95648603D01*
X163925964Y-95842171D01*
X163826097Y-96056337D01*
X163764935Y-96284599D01*
X163744341Y-96519995D01*
X163744341Y-96520004D01*
X128355659Y-96520004D01*
X128355659Y-96520000D01*
X128335063Y-96284592D01*
X128273903Y-96056337D01*
X128273901Y-96056332D01*
X128174040Y-95842181D01*
X128174036Y-95842173D01*
X128038498Y-95648603D01*
X128038497Y-95648602D01*
X128038495Y-95648599D01*
X127871401Y-95481505D01*
X127871397Y-95481502D01*
X127871396Y-95481501D01*
X127841226Y-95460376D01*
X144961268Y-95460376D01*
X144982353Y-95593503D01*
X144982354Y-95593505D01*
X145010426Y-95648599D01*
X145043544Y-95713596D01*
X145138852Y-95808904D01*
X145258946Y-95870095D01*
X145392072Y-95891180D01*
X145525198Y-95870095D01*
X145645292Y-95808904D01*
X145740600Y-95713596D01*
X145801791Y-95593502D01*
X145822876Y-95460376D01*
X145801791Y-95327250D01*
X145740600Y-95207156D01*
X145645292Y-95111848D01*
X145645289Y-95111846D01*
X145525201Y-95050658D01*
X145525199Y-95050657D01*
X145392072Y-95029572D01*
X145258944Y-95050657D01*
X145258942Y-95050658D01*
X145138854Y-95111846D01*
X145043542Y-95207158D01*
X144982354Y-95327246D01*
X144982353Y-95327248D01*
X144961268Y-95460375D01*
X144961268Y-95460376D01*
X127841226Y-95460376D01*
X127677826Y-95345963D01*
X127677818Y-95345959D01*
X127463666Y-95246098D01*
X127463667Y-95246098D01*
X127318331Y-95207156D01*
X127235408Y-95184937D01*
X127235407Y-95184936D01*
X127235400Y-95184935D01*
X127058974Y-95169500D01*
X127058966Y-95169500D01*
X126941034Y-95169500D01*
X126941026Y-95169500D01*
X126764599Y-95184935D01*
X126536332Y-95246098D01*
X126322181Y-95345959D01*
X126322173Y-95345963D01*
X126128603Y-95481501D01*
X125961501Y-95648603D01*
X125825964Y-95842171D01*
X125726097Y-96056337D01*
X125664935Y-96284599D01*
X125644341Y-96519995D01*
X125644341Y-96520004D01*
X124325500Y-96520004D01*
X124325500Y-94995996D01*
X157940750Y-94995996D01*
X157959669Y-95139704D01*
X157959670Y-95139705D01*
X158003738Y-95246098D01*
X158015139Y-95273621D01*
X158103379Y-95388617D01*
X158218375Y-95476857D01*
X158352291Y-95532326D01*
X158496000Y-95551246D01*
X158639709Y-95532326D01*
X158773625Y-95476857D01*
X158888621Y-95388617D01*
X158976861Y-95273621D01*
X159032330Y-95139705D01*
X159051250Y-94995996D01*
X159032330Y-94852287D01*
X158976861Y-94718371D01*
X158888621Y-94603375D01*
X158773625Y-94515135D01*
X158773621Y-94515133D01*
X158639709Y-94459666D01*
X158639708Y-94459665D01*
X158496000Y-94440746D01*
X158352291Y-94459665D01*
X158352290Y-94459666D01*
X158218378Y-94515133D01*
X158218374Y-94515135D01*
X158103381Y-94603373D01*
X158103377Y-94603377D01*
X158015139Y-94718370D01*
X158015137Y-94718374D01*
X157959670Y-94852286D01*
X157959669Y-94852287D01*
X157940750Y-94995995D01*
X157940750Y-94995996D01*
X124325500Y-94995996D01*
X124325500Y-92710000D01*
X157940750Y-92710000D01*
X157959669Y-92853708D01*
X157959670Y-92853709D01*
X158015139Y-92987625D01*
X158103379Y-93102621D01*
X158218375Y-93190861D01*
X158352291Y-93246330D01*
X158495999Y-93265250D01*
X158495999Y-93265249D01*
X158496000Y-93265250D01*
X158639709Y-93246330D01*
X158773625Y-93190861D01*
X158888621Y-93102621D01*
X158976861Y-92987625D01*
X159032330Y-92853709D01*
X159051250Y-92710000D01*
X159032330Y-92566291D01*
X158976861Y-92432375D01*
X158888621Y-92317379D01*
X158888616Y-92317375D01*
X158888614Y-92317373D01*
X158840613Y-92280540D01*
X158805958Y-92230116D01*
X158807560Y-92168951D01*
X158840612Y-92123459D01*
X158888621Y-92086621D01*
X158976861Y-91971625D01*
X159032330Y-91837709D01*
X159051250Y-91694000D01*
X159032330Y-91550291D01*
X158976861Y-91416375D01*
X158888621Y-91301379D01*
X158840613Y-91264541D01*
X158805959Y-91214117D01*
X158807561Y-91152953D01*
X158840615Y-91107458D01*
X158888622Y-91070621D01*
X158976862Y-90955625D01*
X159032331Y-90821709D01*
X159038388Y-90775700D01*
X162272000Y-90775700D01*
X162283603Y-90834036D01*
X162327806Y-90900189D01*
X162327810Y-90900193D01*
X162393963Y-90944396D01*
X162452299Y-90955999D01*
X162452303Y-90956000D01*
X163221999Y-90956000D01*
X163222000Y-90955999D01*
X163222000Y-90396764D01*
X163286237Y-90406000D01*
X163357763Y-90406000D01*
X163422000Y-90396764D01*
X163422000Y-90955999D01*
X163422001Y-90956000D01*
X164191697Y-90956000D01*
X164191700Y-90955999D01*
X164250036Y-90944396D01*
X164316189Y-90900193D01*
X164316193Y-90900189D01*
X164360396Y-90834036D01*
X164371999Y-90775700D01*
X164372000Y-90775697D01*
X164372000Y-90006001D01*
X164371999Y-90006000D01*
X163813746Y-90006000D01*
X163822000Y-89977889D01*
X163822000Y-89834111D01*
X163813746Y-89806000D01*
X164371999Y-89806000D01*
X164372000Y-89805999D01*
X164372000Y-89036302D01*
X164371999Y-89036299D01*
X164360396Y-88977963D01*
X164316193Y-88911810D01*
X164316189Y-88911806D01*
X164250036Y-88867603D01*
X164191700Y-88856000D01*
X163422001Y-88856000D01*
X163422000Y-88856001D01*
X163422000Y-89415235D01*
X163357763Y-89406000D01*
X163286237Y-89406000D01*
X163222000Y-89415235D01*
X163222000Y-88856001D01*
X163221999Y-88856000D01*
X162452299Y-88856000D01*
X162393963Y-88867603D01*
X162327810Y-88911806D01*
X162327806Y-88911810D01*
X162283603Y-88977963D01*
X162272000Y-89036299D01*
X162272000Y-89805999D01*
X162272001Y-89806000D01*
X162830254Y-89806000D01*
X162822000Y-89834111D01*
X162822000Y-89977889D01*
X162830254Y-90006000D01*
X162272000Y-90006000D01*
X162272000Y-90775700D01*
X159038388Y-90775700D01*
X159051251Y-90678000D01*
X159032331Y-90534291D01*
X158976862Y-90400375D01*
X158888622Y-90285379D01*
X158773626Y-90197139D01*
X158773622Y-90197137D01*
X158639710Y-90141670D01*
X158639709Y-90141669D01*
X158496001Y-90122750D01*
X158352292Y-90141669D01*
X158352291Y-90141670D01*
X158218379Y-90197137D01*
X158218375Y-90197139D01*
X158103382Y-90285377D01*
X158103378Y-90285381D01*
X158015140Y-90400374D01*
X158015138Y-90400378D01*
X157959671Y-90534290D01*
X157959670Y-90534291D01*
X157940750Y-90677999D01*
X157940750Y-90678000D01*
X157959670Y-90821708D01*
X157959671Y-90821709D01*
X157992179Y-90900193D01*
X158015140Y-90955625D01*
X158103380Y-91070621D01*
X158151386Y-91107458D01*
X158186041Y-91157882D01*
X158184439Y-91219046D01*
X158151387Y-91264540D01*
X158103382Y-91301376D01*
X158103377Y-91301381D01*
X158015139Y-91416374D01*
X158015137Y-91416378D01*
X157959670Y-91550290D01*
X157959669Y-91550291D01*
X157940750Y-91693999D01*
X157940750Y-91694000D01*
X157959669Y-91837708D01*
X157959670Y-91837709D01*
X158015139Y-91971625D01*
X158103379Y-92086621D01*
X158151385Y-92123458D01*
X158186041Y-92173881D01*
X158184440Y-92235045D01*
X158151387Y-92280540D01*
X158103382Y-92317376D01*
X158103377Y-92317381D01*
X158015139Y-92432374D01*
X158015137Y-92432378D01*
X157959670Y-92566290D01*
X157959669Y-92566291D01*
X157940750Y-92709999D01*
X157940750Y-92710000D01*
X124325500Y-92710000D01*
X124325500Y-87614000D01*
X145986750Y-87614000D01*
X146005669Y-87757708D01*
X146005670Y-87757709D01*
X146061139Y-87891625D01*
X146149379Y-88006621D01*
X146264375Y-88094861D01*
X146398291Y-88150330D01*
X146541999Y-88169250D01*
X146541999Y-88169249D01*
X146542000Y-88169250D01*
X146685709Y-88150330D01*
X146819625Y-88094861D01*
X146934621Y-88006621D01*
X147022861Y-87891625D01*
X147078330Y-87757709D01*
X147097250Y-87614000D01*
X147078330Y-87470291D01*
X147035133Y-87366003D01*
X162266417Y-87366003D01*
X162286698Y-87571929D01*
X162286699Y-87571934D01*
X162346768Y-87769954D01*
X162444316Y-87952452D01*
X162561187Y-88094860D01*
X162575590Y-88112410D01*
X162575595Y-88112414D01*
X162735547Y-88243683D01*
X162735548Y-88243683D01*
X162735550Y-88243685D01*
X162918046Y-88341232D01*
X163055996Y-88383078D01*
X163116065Y-88401300D01*
X163116070Y-88401301D01*
X163321997Y-88421583D01*
X163322000Y-88421583D01*
X163322003Y-88421583D01*
X163527929Y-88401301D01*
X163527934Y-88401300D01*
X163527933Y-88401299D01*
X163725954Y-88341232D01*
X163908450Y-88243685D01*
X164068410Y-88112410D01*
X164199685Y-87952450D01*
X164297232Y-87769954D01*
X164357300Y-87571934D01*
X164357301Y-87571929D01*
X164377583Y-87366003D01*
X164377583Y-87365996D01*
X164357301Y-87160070D01*
X164357300Y-87160065D01*
X164326566Y-87058750D01*
X164297232Y-86962046D01*
X164199685Y-86779550D01*
X164068410Y-86619590D01*
X163927207Y-86503708D01*
X163908452Y-86488316D01*
X163725954Y-86390768D01*
X163527934Y-86330699D01*
X163527929Y-86330698D01*
X163322003Y-86310417D01*
X163321997Y-86310417D01*
X163116070Y-86330698D01*
X163116065Y-86330699D01*
X162918045Y-86390768D01*
X162735547Y-86488316D01*
X162575595Y-86619585D01*
X162575585Y-86619595D01*
X162444316Y-86779547D01*
X162346768Y-86962045D01*
X162286699Y-87160065D01*
X162286698Y-87160070D01*
X162266417Y-87365996D01*
X162266417Y-87366003D01*
X147035133Y-87366003D01*
X147022861Y-87336375D01*
X146934621Y-87221379D01*
X146819625Y-87133139D01*
X146819621Y-87133137D01*
X146685709Y-87077670D01*
X146685708Y-87077669D01*
X146542000Y-87058750D01*
X146398291Y-87077669D01*
X146398290Y-87077670D01*
X146264378Y-87133137D01*
X146264374Y-87133139D01*
X146149381Y-87221377D01*
X146149377Y-87221381D01*
X146061139Y-87336374D01*
X146061137Y-87336378D01*
X146005670Y-87470290D01*
X146005669Y-87470291D01*
X145986750Y-87613999D01*
X145986750Y-87614000D01*
X124325500Y-87614000D01*
X124325500Y-86360000D01*
X148542750Y-86360000D01*
X148561669Y-86503708D01*
X148561670Y-86503709D01*
X148609668Y-86619590D01*
X148617139Y-86637625D01*
X148705379Y-86752621D01*
X148820375Y-86840861D01*
X148954291Y-86896330D01*
X149098000Y-86915250D01*
X149241709Y-86896330D01*
X149375625Y-86840861D01*
X149490621Y-86752621D01*
X149578861Y-86637625D01*
X149634330Y-86503709D01*
X149653250Y-86360000D01*
X149634330Y-86216291D01*
X149578861Y-86082375D01*
X149490621Y-85967379D01*
X149375625Y-85879139D01*
X149375621Y-85879137D01*
X149241709Y-85823670D01*
X149241708Y-85823669D01*
X149098000Y-85804750D01*
X148954291Y-85823669D01*
X148954290Y-85823670D01*
X148820378Y-85879137D01*
X148820374Y-85879139D01*
X148705381Y-85967377D01*
X148705377Y-85967381D01*
X148617139Y-86082374D01*
X148617137Y-86082378D01*
X148561670Y-86216290D01*
X148561669Y-86216291D01*
X148542750Y-86359999D01*
X148542750Y-86360000D01*
X124325500Y-86360000D01*
X124325500Y-85736600D01*
X143044750Y-85736600D01*
X143063669Y-85880308D01*
X143063670Y-85880309D01*
X143071515Y-85899250D01*
X143119139Y-86014225D01*
X143207379Y-86129221D01*
X143322375Y-86217461D01*
X143456291Y-86272930D01*
X143600000Y-86291850D01*
X143743709Y-86272930D01*
X143877625Y-86217461D01*
X143992621Y-86129221D01*
X144080861Y-86014225D01*
X144136330Y-85880309D01*
X144155250Y-85736600D01*
X144136330Y-85592891D01*
X144080861Y-85458975D01*
X143992637Y-85344000D01*
X152225750Y-85344000D01*
X152244669Y-85487708D01*
X152244670Y-85487709D01*
X152288236Y-85592890D01*
X152300139Y-85621625D01*
X152388379Y-85736621D01*
X152503375Y-85824861D01*
X152637291Y-85880330D01*
X152780999Y-85899250D01*
X152780999Y-85899249D01*
X152781000Y-85899250D01*
X152924709Y-85880330D01*
X153058625Y-85824861D01*
X153173621Y-85736621D01*
X153261861Y-85621625D01*
X153317330Y-85487709D01*
X153336250Y-85344000D01*
X153336247Y-85343981D01*
X153317330Y-85200291D01*
X153261861Y-85066375D01*
X153173621Y-84951379D01*
X153058625Y-84863139D01*
X153058621Y-84863137D01*
X152968970Y-84826003D01*
X162266417Y-84826003D01*
X162286698Y-85031929D01*
X162286699Y-85031934D01*
X162346768Y-85229954D01*
X162444316Y-85412452D01*
X162482499Y-85458978D01*
X162575590Y-85572410D01*
X162575595Y-85572414D01*
X162735547Y-85703683D01*
X162735548Y-85703683D01*
X162735550Y-85703685D01*
X162918046Y-85801232D01*
X163055996Y-85843078D01*
X163116065Y-85861300D01*
X163116070Y-85861301D01*
X163321997Y-85881583D01*
X163322000Y-85881583D01*
X163322003Y-85881583D01*
X163527929Y-85861301D01*
X163527934Y-85861300D01*
X163527933Y-85861300D01*
X163725954Y-85801232D01*
X163908450Y-85703685D01*
X164068410Y-85572410D01*
X164199685Y-85412450D01*
X164297232Y-85229954D01*
X164357300Y-85031934D01*
X164357301Y-85031929D01*
X164377583Y-84826003D01*
X164377583Y-84825996D01*
X164357301Y-84620070D01*
X164357300Y-84620065D01*
X164318982Y-84493748D01*
X164297232Y-84422046D01*
X164199685Y-84239550D01*
X164068410Y-84079590D01*
X164028531Y-84046862D01*
X163908452Y-83948316D01*
X163725954Y-83850768D01*
X163527934Y-83790699D01*
X163527929Y-83790698D01*
X163322003Y-83770417D01*
X163321997Y-83770417D01*
X163116070Y-83790698D01*
X163116065Y-83790699D01*
X162918045Y-83850768D01*
X162735547Y-83948316D01*
X162575595Y-84079585D01*
X162575585Y-84079595D01*
X162444316Y-84239547D01*
X162346768Y-84422045D01*
X162286699Y-84620065D01*
X162286698Y-84620070D01*
X162266417Y-84825996D01*
X162266417Y-84826003D01*
X152968970Y-84826003D01*
X152924709Y-84807670D01*
X152924708Y-84807669D01*
X152781000Y-84788750D01*
X152637291Y-84807669D01*
X152637290Y-84807670D01*
X152503378Y-84863137D01*
X152503374Y-84863139D01*
X152388381Y-84951377D01*
X152388377Y-84951381D01*
X152300139Y-85066374D01*
X152300137Y-85066378D01*
X152244670Y-85200290D01*
X152244669Y-85200291D01*
X152225750Y-85343999D01*
X152225750Y-85344000D01*
X143992637Y-85344000D01*
X143992621Y-85343979D01*
X143877625Y-85255739D01*
X143877621Y-85255737D01*
X143743709Y-85200270D01*
X143743708Y-85200269D01*
X143600000Y-85181350D01*
X143456291Y-85200269D01*
X143456290Y-85200270D01*
X143322378Y-85255737D01*
X143322374Y-85255739D01*
X143207381Y-85343977D01*
X143207377Y-85343981D01*
X143119139Y-85458974D01*
X143119137Y-85458978D01*
X143063670Y-85592890D01*
X143063669Y-85592891D01*
X143044750Y-85736599D01*
X143044750Y-85736600D01*
X124325500Y-85736600D01*
X124325500Y-84367351D01*
X141030000Y-84367351D01*
X141045348Y-84493748D01*
X141045351Y-84493758D01*
X141105626Y-84652690D01*
X141105628Y-84652693D01*
X141202194Y-84792594D01*
X141202199Y-84792600D01*
X141329431Y-84905318D01*
X141479952Y-84984317D01*
X141479955Y-84984318D01*
X141629999Y-85021301D01*
X141630000Y-85021301D01*
X141630000Y-84608454D01*
X141701840Y-84628895D01*
X141813521Y-84618546D01*
X141830000Y-84610340D01*
X141830000Y-85021301D01*
X141980044Y-84984318D01*
X141980047Y-84984317D01*
X142130568Y-84905318D01*
X142130569Y-84905318D01*
X142257800Y-84792600D01*
X142257805Y-84792594D01*
X142354371Y-84652693D01*
X142354373Y-84652690D01*
X142414648Y-84493758D01*
X142414651Y-84493748D01*
X142429999Y-84367351D01*
X142430000Y-84367334D01*
X142430000Y-83875000D01*
X142030000Y-83875000D01*
X142030000Y-83675000D01*
X142429999Y-83675000D01*
X142430000Y-83674999D01*
X142430000Y-83484184D01*
X142448907Y-83425993D01*
X142498407Y-83390029D01*
X142559593Y-83390029D01*
X142609093Y-83425993D01*
X142620464Y-83446299D01*
X142657300Y-83535230D01*
X142657301Y-83535231D01*
X142657302Y-83535233D01*
X142749549Y-83655451D01*
X142869767Y-83747698D01*
X143009764Y-83805687D01*
X143122280Y-83820500D01*
X143122281Y-83820500D01*
X143197719Y-83820500D01*
X143197720Y-83820500D01*
X143310236Y-83805687D01*
X143450233Y-83747698D01*
X143570451Y-83655451D01*
X143662698Y-83535233D01*
X143720687Y-83395236D01*
X143740466Y-83245000D01*
X148359534Y-83245000D01*
X148378029Y-83385489D01*
X148379313Y-83395236D01*
X148437302Y-83535233D01*
X148529549Y-83655451D01*
X148649767Y-83747698D01*
X148789764Y-83805687D01*
X148902280Y-83820500D01*
X148902281Y-83820500D01*
X148977719Y-83820500D01*
X148977720Y-83820500D01*
X149090236Y-83805687D01*
X149230233Y-83747698D01*
X149350451Y-83655451D01*
X149442698Y-83535233D01*
X149479535Y-83446299D01*
X149519272Y-83399773D01*
X149578767Y-83385489D01*
X149635295Y-83408904D01*
X149667265Y-83461073D01*
X149670000Y-83484184D01*
X149670000Y-83674999D01*
X149670001Y-83675000D01*
X150070000Y-83675000D01*
X150070000Y-83875000D01*
X149670000Y-83875000D01*
X149670000Y-84367351D01*
X149685348Y-84493748D01*
X149685351Y-84493758D01*
X149745626Y-84652690D01*
X149745628Y-84652693D01*
X149842194Y-84792594D01*
X149842199Y-84792600D01*
X149969431Y-84905318D01*
X150119952Y-84984317D01*
X150119955Y-84984318D01*
X150269999Y-85021301D01*
X150270000Y-85021301D01*
X150270000Y-84608454D01*
X150341840Y-84628895D01*
X150453521Y-84618546D01*
X150470000Y-84610340D01*
X150470000Y-85021301D01*
X150620044Y-84984318D01*
X150620047Y-84984317D01*
X150770568Y-84905318D01*
X150770569Y-84905318D01*
X150897800Y-84792600D01*
X150897805Y-84792594D01*
X150994371Y-84652693D01*
X150994373Y-84652690D01*
X151054648Y-84493758D01*
X151054651Y-84493748D01*
X151069999Y-84367351D01*
X151070000Y-84367334D01*
X151070000Y-83875000D01*
X150670000Y-83875000D01*
X150670000Y-83675000D01*
X151069999Y-83675000D01*
X151070000Y-83674998D01*
X151070000Y-83182665D01*
X151069999Y-83182648D01*
X151054651Y-83056251D01*
X151054648Y-83056241D01*
X150994373Y-82897309D01*
X150994371Y-82897306D01*
X150897805Y-82757405D01*
X150897800Y-82757399D01*
X150770568Y-82644681D01*
X150620046Y-82565682D01*
X150470000Y-82528698D01*
X150470000Y-82941545D01*
X150398160Y-82921105D01*
X150286479Y-82931454D01*
X150270000Y-82939659D01*
X150270000Y-82528698D01*
X150119953Y-82565682D01*
X150119952Y-82565682D01*
X149969431Y-82644681D01*
X149969430Y-82644681D01*
X149842199Y-82757399D01*
X149842194Y-82757405D01*
X149745628Y-82897306D01*
X149745626Y-82897309D01*
X149685351Y-83056241D01*
X149685349Y-83056248D01*
X149685321Y-83056483D01*
X149685258Y-83056617D01*
X149683917Y-83062061D01*
X149682850Y-83061798D01*
X149659535Y-83111969D01*
X149606060Y-83141702D01*
X149545321Y-83134325D01*
X149500518Y-83092655D01*
X149495579Y-83082432D01*
X149465887Y-83010750D01*
X149442698Y-82954767D01*
X149350451Y-82834549D01*
X149230233Y-82742302D01*
X149090236Y-82684313D01*
X149090234Y-82684312D01*
X149090232Y-82684312D01*
X148977720Y-82669500D01*
X148902280Y-82669500D01*
X148902279Y-82669500D01*
X148789767Y-82684312D01*
X148789761Y-82684314D01*
X148649768Y-82742301D01*
X148529551Y-82834547D01*
X148529547Y-82834551D01*
X148437301Y-82954768D01*
X148379314Y-83094761D01*
X148379312Y-83094767D01*
X148359534Y-83244999D01*
X148359534Y-83245000D01*
X143740466Y-83245000D01*
X143720687Y-83094764D01*
X143662698Y-82954767D01*
X143570451Y-82834549D01*
X143450233Y-82742302D01*
X143310236Y-82684313D01*
X143310234Y-82684312D01*
X143310232Y-82684312D01*
X143197720Y-82669500D01*
X143122280Y-82669500D01*
X143122279Y-82669500D01*
X143009767Y-82684312D01*
X143009761Y-82684314D01*
X142869768Y-82742301D01*
X142749551Y-82834547D01*
X142749547Y-82834551D01*
X142657301Y-82954768D01*
X142604420Y-83082432D01*
X142564683Y-83128958D01*
X142505188Y-83143241D01*
X142448660Y-83119826D01*
X142416691Y-83067656D01*
X142414676Y-83056467D01*
X142414648Y-83056241D01*
X142354373Y-82897309D01*
X142354371Y-82897306D01*
X142257805Y-82757405D01*
X142257800Y-82757399D01*
X142130568Y-82644681D01*
X141980046Y-82565682D01*
X141830000Y-82528698D01*
X141830000Y-82941545D01*
X141758160Y-82921105D01*
X141646479Y-82931454D01*
X141630000Y-82939659D01*
X141630000Y-82528698D01*
X141479953Y-82565682D01*
X141479952Y-82565682D01*
X141329431Y-82644681D01*
X141329430Y-82644681D01*
X141202199Y-82757399D01*
X141202194Y-82757405D01*
X141105628Y-82897306D01*
X141105626Y-82897309D01*
X141045351Y-83056241D01*
X141045348Y-83056251D01*
X141030000Y-83182648D01*
X141030000Y-83674998D01*
X141030001Y-83675000D01*
X141430000Y-83675000D01*
X141430000Y-83875000D01*
X141030001Y-83875000D01*
X141030000Y-83875001D01*
X141030000Y-84367351D01*
X124325500Y-84367351D01*
X124325500Y-83566000D01*
X138763750Y-83566000D01*
X138782669Y-83709708D01*
X138782670Y-83709709D01*
X138816216Y-83790699D01*
X138838139Y-83843625D01*
X138926379Y-83958621D01*
X139041375Y-84046861D01*
X139175291Y-84102330D01*
X139319000Y-84121250D01*
X139462709Y-84102330D01*
X139596625Y-84046861D01*
X139711621Y-83958621D01*
X139799861Y-83843625D01*
X139855330Y-83709709D01*
X139874250Y-83566000D01*
X139855330Y-83422291D01*
X139799861Y-83288375D01*
X139711621Y-83173379D01*
X139596625Y-83085139D01*
X139596621Y-83085137D01*
X139462709Y-83029670D01*
X139462708Y-83029669D01*
X139319000Y-83010750D01*
X139175291Y-83029669D01*
X139175290Y-83029670D01*
X139041378Y-83085137D01*
X139041374Y-83085139D01*
X138926381Y-83173377D01*
X138926377Y-83173381D01*
X138838139Y-83288374D01*
X138838137Y-83288378D01*
X138782670Y-83422290D01*
X138782669Y-83422291D01*
X138763750Y-83565999D01*
X138763750Y-83566000D01*
X124325500Y-83566000D01*
X124325500Y-82286003D01*
X162266417Y-82286003D01*
X162286698Y-82491929D01*
X162286699Y-82491934D01*
X162346768Y-82689954D01*
X162444316Y-82872452D01*
X162573341Y-83029670D01*
X162575590Y-83032410D01*
X162575595Y-83032414D01*
X162735547Y-83163683D01*
X162735548Y-83163683D01*
X162735550Y-83163685D01*
X162918046Y-83261232D01*
X163055996Y-83303078D01*
X163116065Y-83321300D01*
X163116070Y-83321301D01*
X163321997Y-83341583D01*
X163322000Y-83341583D01*
X163322003Y-83341583D01*
X163527929Y-83321301D01*
X163527934Y-83321300D01*
X163527933Y-83321299D01*
X163725954Y-83261232D01*
X163908450Y-83163685D01*
X164068410Y-83032410D01*
X164199685Y-82872450D01*
X164297232Y-82689954D01*
X164357300Y-82491934D01*
X164357301Y-82491929D01*
X164377583Y-82286003D01*
X164377583Y-82285996D01*
X164357301Y-82080070D01*
X164357300Y-82080065D01*
X164339078Y-82019997D01*
X164297232Y-81882046D01*
X164199685Y-81699550D01*
X164068410Y-81539590D01*
X164068404Y-81539585D01*
X163908452Y-81408316D01*
X163725954Y-81310768D01*
X163527934Y-81250699D01*
X163527929Y-81250698D01*
X163322003Y-81230417D01*
X163321997Y-81230417D01*
X163116070Y-81250698D01*
X163116065Y-81250699D01*
X162918045Y-81310768D01*
X162735547Y-81408316D01*
X162575595Y-81539585D01*
X162575585Y-81539595D01*
X162444316Y-81699547D01*
X162346768Y-81882045D01*
X162286699Y-82080065D01*
X162286698Y-82080070D01*
X162266417Y-82285996D01*
X162266417Y-82286003D01*
X124325500Y-82286003D01*
X124325500Y-80011384D01*
X124325578Y-80008608D01*
X124327510Y-79974201D01*
X124329580Y-79937351D01*
X141030000Y-79937351D01*
X141045348Y-80063748D01*
X141045351Y-80063758D01*
X141105626Y-80222690D01*
X141105628Y-80222693D01*
X141202194Y-80362594D01*
X141202199Y-80362600D01*
X141329431Y-80475318D01*
X141479952Y-80554317D01*
X141479955Y-80554318D01*
X141629999Y-80591301D01*
X141630000Y-80591301D01*
X141630000Y-80178454D01*
X141701840Y-80198895D01*
X141813521Y-80188546D01*
X141830000Y-80180340D01*
X141830000Y-80591301D01*
X141980044Y-80554318D01*
X141980047Y-80554317D01*
X142130568Y-80475318D01*
X142130569Y-80475318D01*
X142257800Y-80362600D01*
X142257805Y-80362594D01*
X142354371Y-80222693D01*
X142354373Y-80222690D01*
X142414648Y-80063758D01*
X142414651Y-80063748D01*
X142429999Y-79937351D01*
X149670000Y-79937351D01*
X149685348Y-80063748D01*
X149685351Y-80063758D01*
X149745626Y-80222690D01*
X149745628Y-80222693D01*
X149842194Y-80362594D01*
X149842199Y-80362600D01*
X149969431Y-80475318D01*
X150119952Y-80554317D01*
X150119955Y-80554318D01*
X150269999Y-80591301D01*
X150270000Y-80591301D01*
X150270000Y-80178454D01*
X150341840Y-80198895D01*
X150453521Y-80188546D01*
X150470000Y-80180340D01*
X150470000Y-80591301D01*
X150620044Y-80554318D01*
X150620047Y-80554317D01*
X150770568Y-80475318D01*
X150770569Y-80475318D01*
X150897800Y-80362600D01*
X150897805Y-80362594D01*
X150994371Y-80222693D01*
X150994373Y-80222690D01*
X151054648Y-80063758D01*
X151054651Y-80063748D01*
X151069999Y-79937351D01*
X151070000Y-79937334D01*
X151070000Y-79695001D01*
X151069999Y-79695000D01*
X150670000Y-79695000D01*
X150670000Y-79495000D01*
X151069999Y-79495000D01*
X151070000Y-79494998D01*
X151070000Y-79252665D01*
X151069999Y-79252648D01*
X151054651Y-79126251D01*
X151054648Y-79126241D01*
X150994373Y-78967309D01*
X150994371Y-78967306D01*
X150897805Y-78827405D01*
X150897800Y-78827399D01*
X150770568Y-78714681D01*
X150620046Y-78635682D01*
X150470000Y-78598698D01*
X150470000Y-79011545D01*
X150398160Y-78991105D01*
X150286479Y-79001454D01*
X150270000Y-79009659D01*
X150270000Y-78598698D01*
X150119953Y-78635682D01*
X150119952Y-78635682D01*
X149969431Y-78714681D01*
X149969430Y-78714681D01*
X149842199Y-78827399D01*
X149842194Y-78827405D01*
X149745628Y-78967306D01*
X149745626Y-78967309D01*
X149685351Y-79126241D01*
X149685348Y-79126251D01*
X149670000Y-79252648D01*
X149670000Y-79494999D01*
X149670001Y-79495000D01*
X150070000Y-79495000D01*
X150070000Y-79695000D01*
X149670001Y-79695000D01*
X149670000Y-79695001D01*
X149670000Y-79937351D01*
X142429999Y-79937351D01*
X142430000Y-79937334D01*
X142430000Y-79695001D01*
X142429999Y-79695000D01*
X142030000Y-79695000D01*
X142030000Y-79495000D01*
X142429999Y-79495000D01*
X142430000Y-79494998D01*
X142430000Y-79252665D01*
X142429999Y-79252648D01*
X142414651Y-79126251D01*
X142414648Y-79126241D01*
X142354373Y-78967309D01*
X142354371Y-78967306D01*
X142257805Y-78827405D01*
X142257800Y-78827399D01*
X142130568Y-78714681D01*
X141980046Y-78635682D01*
X141830000Y-78598698D01*
X141830000Y-79011545D01*
X141758160Y-78991105D01*
X141646479Y-79001454D01*
X141630000Y-79009659D01*
X141630000Y-78598698D01*
X141479953Y-78635682D01*
X141479952Y-78635682D01*
X141329431Y-78714681D01*
X141329430Y-78714681D01*
X141202199Y-78827399D01*
X141202194Y-78827405D01*
X141105628Y-78967306D01*
X141105626Y-78967309D01*
X141045351Y-79126241D01*
X141045348Y-79126251D01*
X141030000Y-79252648D01*
X141030000Y-79494998D01*
X141030001Y-79495000D01*
X141430000Y-79495000D01*
X141430000Y-79695000D01*
X141030001Y-79695000D01*
X141030000Y-79695001D01*
X141030000Y-79937351D01*
X124329580Y-79937351D01*
X124342162Y-79713309D01*
X124342779Y-79707826D01*
X124392091Y-79417593D01*
X124393318Y-79412218D01*
X124474816Y-79129331D01*
X124476644Y-79124108D01*
X124589297Y-78852141D01*
X124591699Y-78847153D01*
X124734099Y-78589498D01*
X124737037Y-78584822D01*
X124907392Y-78344731D01*
X124910830Y-78340420D01*
X125107002Y-78120902D01*
X125110902Y-78117002D01*
X125330420Y-77920830D01*
X125334731Y-77917392D01*
X125574822Y-77747037D01*
X125579498Y-77744099D01*
X125837153Y-77601699D01*
X125842141Y-77599297D01*
X126114108Y-77486644D01*
X126119331Y-77484816D01*
X126402218Y-77403318D01*
X126407593Y-77402091D01*
X126697826Y-77352779D01*
X126703309Y-77352162D01*
X126998614Y-77335577D01*
X127001384Y-77335500D01*
X127065892Y-77335500D01*
X165034108Y-77335500D01*
X165098616Y-77335500D01*
X165101385Y-77335577D01*
G37*
%TD.AperFunction*%
%TD*%
M02*
