%TF.GenerationSoftware,KiCad,Pcbnew,7.0.1*%
%TF.CreationDate,2023-05-13T23:39:39+01:00*%
%TF.ProjectId,MoonPad,4d6f6f6e-5061-4642-9e6b-696361645f70,rev?*%
%TF.SameCoordinates,Original*%
%TF.FileFunction,Copper,L2,Inr*%
%TF.FilePolarity,Positive*%
%FSLAX46Y46*%
G04 Gerber Fmt 4.6, Leading zero omitted, Abs format (unit mm)*
G04 Created by KiCad (PCBNEW 7.0.1) date 2023-05-13 23:39:39*
%MOMM*%
%LPD*%
G01*
G04 APERTURE LIST*
%TA.AperFunction,ComponentPad*%
%ADD10O,1.000000X2.100000*%
%TD*%
%TA.AperFunction,ComponentPad*%
%ADD11O,1.000000X1.600000*%
%TD*%
%TA.AperFunction,ComponentPad*%
%ADD12C,0.600000*%
%TD*%
%TA.AperFunction,ComponentPad*%
%ADD13R,1.700000X1.700000*%
%TD*%
%TA.AperFunction,ComponentPad*%
%ADD14O,1.700000X1.700000*%
%TD*%
%TA.AperFunction,ViaPad*%
%ADD15C,0.700000*%
%TD*%
%TA.AperFunction,ViaPad*%
%ADD16C,0.500000*%
%TD*%
%TA.AperFunction,ViaPad*%
%ADD17C,0.450000*%
%TD*%
G04 APERTURE END LIST*
D10*
%TO.N,GND*%
%TO.C,J3*%
X150370000Y-83775000D03*
D11*
X150370000Y-79595000D03*
D10*
X141730000Y-83775000D03*
D11*
X141730000Y-79595000D03*
%TD*%
D12*
%TO.N,GND*%
%TO.C,U3*%
X144775000Y-100325000D03*
X144775000Y-101600000D03*
X144775000Y-102875000D03*
X146050000Y-100325000D03*
X146050000Y-101600000D03*
X146050000Y-102875000D03*
X147325000Y-100325000D03*
X147325000Y-101600000D03*
X147325000Y-102875000D03*
%TD*%
D13*
%TO.N,GND*%
%TO.C,J1*%
X163322000Y-89906000D03*
D14*
%TO.N,+3V3*%
X163322000Y-87366000D03*
%TO.N,/OLED_SCL*%
X163322000Y-84826000D03*
%TO.N,/OLED_SDA*%
X163322000Y-82286000D03*
%TD*%
D15*
%TO.N,VBUS*%
X143600000Y-85736600D03*
X149098000Y-86360000D03*
%TO.N,GND*%
X139065000Y-105156000D03*
X150114000Y-95123000D03*
X152654000Y-91694000D03*
X158496002Y-93979996D03*
X140716000Y-101600000D03*
X150217500Y-108053500D03*
X133731000Y-105410000D03*
X151384000Y-101628000D03*
X143383000Y-88517000D03*
X147701000Y-88517000D03*
X133618000Y-85330000D03*
X158482000Y-83580000D03*
X134021102Y-90272001D03*
X130810000Y-110363000D03*
X150495000Y-106807000D03*
X152654000Y-90678000D03*
X148463000Y-110363000D03*
X153670000Y-90678000D03*
X133618000Y-100570000D03*
X144687289Y-106070887D03*
X144653000Y-91948000D03*
X153670000Y-91694000D03*
X134021102Y-93827998D03*
X153035000Y-107061000D03*
X149098000Y-95123000D03*
X145669000Y-91948000D03*
X142621000Y-91948000D03*
X157510000Y-97947000D03*
X139319000Y-84455000D03*
X140462000Y-96870700D03*
X153543002Y-102362000D03*
X138490000Y-108894135D03*
X144542000Y-88016098D03*
X156921200Y-103174800D03*
X140490000Y-99921000D03*
X151610000Y-99794000D03*
X138463100Y-97075125D03*
X158810000Y-108894135D03*
X148082000Y-95123000D03*
X152781000Y-84455000D03*
X151040097Y-112014000D03*
X143637000Y-91948000D03*
X158369000Y-105410000D03*
X139319000Y-107188000D03*
%TO.N,+1V1*%
X145850000Y-95885000D03*
D16*
X147253371Y-98977451D03*
D15*
%TO.N,ADC_X*%
X150426900Y-99998100D03*
X139888000Y-103820000D03*
D17*
%TO.N,/OLED_SCL*%
X150495000Y-103505000D03*
%TO.N,/OLED_SDA*%
X151003000Y-104002018D03*
D15*
%TO.N,+5V*%
X139319000Y-83566000D03*
X158496000Y-91694000D03*
X151892000Y-112014000D03*
X146542000Y-87614000D03*
X158496000Y-94995996D03*
X153543001Y-99822001D03*
X139319000Y-98806000D03*
X158496000Y-92710000D03*
X152781000Y-85344000D03*
X130810000Y-111252000D03*
X158496001Y-90678000D03*
%TD*%
%TA.AperFunction,Conductor*%
%TO.N,GND*%
G36*
X165102777Y-77335655D02*
G01*
X165393902Y-77352005D01*
X165404925Y-77353247D01*
X165689661Y-77401625D01*
X165700455Y-77404088D01*
X165977994Y-77484046D01*
X165988465Y-77487710D01*
X166111584Y-77538708D01*
X166255287Y-77598232D01*
X166265289Y-77603049D01*
X166518053Y-77742746D01*
X166527453Y-77748652D01*
X166762992Y-77915777D01*
X166771661Y-77922690D01*
X166987019Y-78115145D01*
X166994854Y-78122980D01*
X167187305Y-78338333D01*
X167194226Y-78347012D01*
X167361346Y-78582545D01*
X167367253Y-78591946D01*
X167506950Y-78844710D01*
X167511767Y-78854712D01*
X167622287Y-79121530D01*
X167625954Y-79132009D01*
X167705907Y-79409529D01*
X167708377Y-79420353D01*
X167756751Y-79705069D01*
X167757994Y-79716101D01*
X167774344Y-80007222D01*
X167774500Y-80012773D01*
X167774500Y-114297227D01*
X167774344Y-114302778D01*
X167757994Y-114593898D01*
X167756751Y-114604930D01*
X167708377Y-114889646D01*
X167705907Y-114900470D01*
X167625954Y-115177990D01*
X167622287Y-115188469D01*
X167511767Y-115455287D01*
X167506950Y-115465289D01*
X167367253Y-115718053D01*
X167361346Y-115727454D01*
X167194226Y-115962987D01*
X167187305Y-115971666D01*
X166994862Y-116187011D01*
X166987011Y-116194862D01*
X166771666Y-116387305D01*
X166762987Y-116394226D01*
X166527454Y-116561346D01*
X166518053Y-116567253D01*
X166265289Y-116706950D01*
X166255287Y-116711767D01*
X165988469Y-116822287D01*
X165977990Y-116825954D01*
X165700470Y-116905907D01*
X165689646Y-116908377D01*
X165404930Y-116956751D01*
X165393898Y-116957994D01*
X165102778Y-116974344D01*
X165097227Y-116974500D01*
X127002773Y-116974500D01*
X126997222Y-116974344D01*
X126706101Y-116957994D01*
X126695069Y-116956751D01*
X126410353Y-116908377D01*
X126399531Y-116905907D01*
X126329936Y-116885857D01*
X126122009Y-116825954D01*
X126111530Y-116822287D01*
X125844712Y-116711767D01*
X125834710Y-116706950D01*
X125581946Y-116567253D01*
X125572545Y-116561346D01*
X125337012Y-116394226D01*
X125328333Y-116387305D01*
X125112980Y-116194854D01*
X125105145Y-116187019D01*
X124912690Y-115971661D01*
X124905777Y-115962992D01*
X124738652Y-115727453D01*
X124732746Y-115718053D01*
X124593049Y-115465289D01*
X124588232Y-115455287D01*
X124477712Y-115188469D01*
X124474045Y-115177990D01*
X124472146Y-115171397D01*
X124394088Y-114900455D01*
X124391625Y-114889661D01*
X124343247Y-114604925D01*
X124342005Y-114593898D01*
X124335640Y-114480566D01*
X124325655Y-114302777D01*
X124325577Y-114299999D01*
X125644340Y-114299999D01*
X125664936Y-114535405D01*
X125726098Y-114763667D01*
X125825963Y-114977826D01*
X125825964Y-114977827D01*
X125825965Y-114977829D01*
X125961505Y-115171401D01*
X126128599Y-115338495D01*
X126322171Y-115474035D01*
X126322172Y-115474035D01*
X126322173Y-115474036D01*
X126536332Y-115573901D01*
X126536333Y-115573901D01*
X126536337Y-115573903D01*
X126764592Y-115635063D01*
X126835168Y-115641237D01*
X126941031Y-115650500D01*
X126941034Y-115650500D01*
X127058966Y-115650500D01*
X127058969Y-115650500D01*
X127147186Y-115642781D01*
X127235408Y-115635063D01*
X127463663Y-115573903D01*
X127677829Y-115474035D01*
X127871401Y-115338495D01*
X128038495Y-115171401D01*
X128174035Y-114977830D01*
X128273903Y-114763663D01*
X128335063Y-114535408D01*
X128355659Y-114300000D01*
X163744340Y-114300000D01*
X163764936Y-114535405D01*
X163826098Y-114763667D01*
X163925963Y-114977826D01*
X163925964Y-114977827D01*
X163925965Y-114977829D01*
X164061505Y-115171401D01*
X164228599Y-115338495D01*
X164422171Y-115474035D01*
X164422172Y-115474035D01*
X164422173Y-115474036D01*
X164636332Y-115573901D01*
X164636333Y-115573901D01*
X164636337Y-115573903D01*
X164864592Y-115635063D01*
X164935168Y-115641237D01*
X165041031Y-115650500D01*
X165041034Y-115650500D01*
X165158966Y-115650500D01*
X165158969Y-115650500D01*
X165247186Y-115642781D01*
X165335408Y-115635063D01*
X165563663Y-115573903D01*
X165777829Y-115474035D01*
X165971401Y-115338495D01*
X166138495Y-115171401D01*
X166274035Y-114977830D01*
X166373903Y-114763663D01*
X166435063Y-114535408D01*
X166455659Y-114300000D01*
X166435063Y-114064592D01*
X166373903Y-113836337D01*
X166274035Y-113622171D01*
X166138495Y-113428599D01*
X165971401Y-113261505D01*
X165777829Y-113125965D01*
X165777828Y-113125964D01*
X165777826Y-113125963D01*
X165563667Y-113026098D01*
X165335405Y-112964936D01*
X165158969Y-112949500D01*
X165158966Y-112949500D01*
X165041034Y-112949500D01*
X165041031Y-112949500D01*
X164864594Y-112964936D01*
X164636332Y-113026098D01*
X164422173Y-113125963D01*
X164228602Y-113261502D01*
X164061502Y-113428602D01*
X163925963Y-113622172D01*
X163826098Y-113836332D01*
X163764936Y-114064594D01*
X163744340Y-114300000D01*
X128355659Y-114300000D01*
X128335063Y-114064592D01*
X128273903Y-113836337D01*
X128174035Y-113622171D01*
X128038495Y-113428599D01*
X127871401Y-113261505D01*
X127677829Y-113125965D01*
X127677828Y-113125964D01*
X127677826Y-113125963D01*
X127463667Y-113026098D01*
X127235405Y-112964936D01*
X127058969Y-112949500D01*
X127058966Y-112949500D01*
X126941034Y-112949500D01*
X126941031Y-112949500D01*
X126764594Y-112964936D01*
X126536332Y-113026098D01*
X126322173Y-113125963D01*
X126128602Y-113261502D01*
X125961502Y-113428602D01*
X125825963Y-113622172D01*
X125726098Y-113836332D01*
X125664936Y-114064594D01*
X125644340Y-114299999D01*
X124325577Y-114299999D01*
X124325500Y-114297227D01*
X124325500Y-111251999D01*
X130254750Y-111251999D01*
X130273669Y-111395709D01*
X130302586Y-111465519D01*
X130329139Y-111529625D01*
X130359301Y-111568933D01*
X130417378Y-111644621D01*
X130467306Y-111682932D01*
X130532375Y-111732861D01*
X130627067Y-111772083D01*
X130666290Y-111788330D01*
X130683008Y-111790531D01*
X130810000Y-111807250D01*
X130953709Y-111788330D01*
X131087625Y-111732861D01*
X131202621Y-111644621D01*
X131229949Y-111609006D01*
X133586463Y-111609006D01*
X133604219Y-111790742D01*
X133654579Y-111966263D01*
X133735883Y-112129771D01*
X133845438Y-112275856D01*
X133979626Y-112399693D01*
X133979628Y-112399694D01*
X133979630Y-112399696D01*
X134134023Y-112497198D01*
X134303515Y-112565142D01*
X134482506Y-112601281D01*
X134604223Y-112603374D01*
X134665081Y-112604422D01*
X134665081Y-112604421D01*
X134665082Y-112604422D01*
X134845210Y-112574460D01*
X135016938Y-112512386D01*
X135024771Y-112507820D01*
X135027289Y-112506354D01*
X135027921Y-112506089D01*
X135072535Y-112480023D01*
X135122486Y-112466502D01*
X135161392Y-112466506D01*
X135161395Y-112466504D01*
X135174449Y-112466506D01*
X135174511Y-112466499D01*
X136605329Y-112466499D01*
X136605381Y-112466505D01*
X136618604Y-112466503D01*
X136618608Y-112466505D01*
X136657512Y-112466501D01*
X136707459Y-112480019D01*
X136741130Y-112499691D01*
X136741132Y-112499691D01*
X136751944Y-112506008D01*
X136752842Y-112506384D01*
X136763079Y-112512350D01*
X136934799Y-112574420D01*
X137114921Y-112604381D01*
X137297489Y-112601240D01*
X137476473Y-112565103D01*
X137645958Y-112497162D01*
X137800345Y-112399664D01*
X137934531Y-112275828D01*
X138044083Y-112129748D01*
X138101639Y-112013999D01*
X151336750Y-112013999D01*
X151355669Y-112157709D01*
X151394892Y-112252401D01*
X151411139Y-112291625D01*
X151449450Y-112341552D01*
X151499378Y-112406621D01*
X151549306Y-112444932D01*
X151614375Y-112494861D01*
X151709067Y-112534083D01*
X151748290Y-112550330D01*
X151765008Y-112552531D01*
X151892000Y-112569250D01*
X152035709Y-112550330D01*
X152169625Y-112494861D01*
X152284621Y-112406621D01*
X152372861Y-112291625D01*
X152428330Y-112157709D01*
X152447250Y-112014000D01*
X152428330Y-111870291D01*
X152372861Y-111736375D01*
X152322932Y-111671306D01*
X152284621Y-111621378D01*
X152268497Y-111609006D01*
X153906463Y-111609006D01*
X153924219Y-111790742D01*
X153974579Y-111966263D01*
X154055883Y-112129771D01*
X154165438Y-112275856D01*
X154299626Y-112399693D01*
X154299628Y-112399694D01*
X154299630Y-112399696D01*
X154454023Y-112497198D01*
X154623515Y-112565142D01*
X154802506Y-112601281D01*
X154924223Y-112603374D01*
X154985081Y-112604422D01*
X154985081Y-112604421D01*
X154985082Y-112604422D01*
X155165210Y-112574460D01*
X155336938Y-112512386D01*
X155344771Y-112507820D01*
X155347289Y-112506354D01*
X155347921Y-112506089D01*
X155392535Y-112480023D01*
X155442486Y-112466502D01*
X155481392Y-112466506D01*
X155481395Y-112466504D01*
X155494449Y-112466506D01*
X155494511Y-112466499D01*
X156925329Y-112466499D01*
X156925381Y-112466505D01*
X156938604Y-112466503D01*
X156938608Y-112466505D01*
X156977512Y-112466501D01*
X157027459Y-112480019D01*
X157061130Y-112499691D01*
X157061132Y-112499691D01*
X157071944Y-112506008D01*
X157072842Y-112506384D01*
X157083079Y-112512350D01*
X157254799Y-112574420D01*
X157434921Y-112604381D01*
X157617489Y-112601240D01*
X157796473Y-112565103D01*
X157965958Y-112497162D01*
X158120345Y-112399664D01*
X158254531Y-112275828D01*
X158364083Y-112129748D01*
X158445382Y-111966250D01*
X158495741Y-111790736D01*
X158513496Y-111609006D01*
X158498060Y-111427064D01*
X158449944Y-111250922D01*
X158444685Y-111239964D01*
X158444396Y-111239082D01*
X158420318Y-111189107D01*
X158410506Y-111146104D01*
X158410520Y-111103108D01*
X158410519Y-111103104D01*
X158410523Y-111090126D01*
X158410499Y-111089937D01*
X158410499Y-109785890D01*
X158420244Y-109743059D01*
X158424106Y-109735011D01*
X158424143Y-109735029D01*
X158424163Y-109734890D01*
X158439019Y-109704040D01*
X158439019Y-109704037D01*
X158444556Y-109692540D01*
X158444704Y-109692089D01*
X158444726Y-109692043D01*
X158449981Y-109681094D01*
X158498100Y-109504945D01*
X158513537Y-109322996D01*
X158495781Y-109141258D01*
X158445421Y-108965737D01*
X158364119Y-108802232D01*
X158364117Y-108802229D01*
X158254561Y-108656143D01*
X158120370Y-108532304D01*
X157965982Y-108434804D01*
X157965979Y-108434803D01*
X157965978Y-108434802D01*
X157852983Y-108389505D01*
X157796484Y-108366857D01*
X157617492Y-108330718D01*
X157434919Y-108327577D01*
X157254789Y-108357539D01*
X157083061Y-108419613D01*
X157072514Y-108425759D01*
X157071887Y-108426023D01*
X157027461Y-108451978D01*
X156977514Y-108465496D01*
X156938967Y-108465493D01*
X156938607Y-108465493D01*
X156925550Y-108465492D01*
X156925489Y-108465500D01*
X155442493Y-108465500D01*
X155392538Y-108451972D01*
X155348286Y-108426108D01*
X155347272Y-108425683D01*
X155336920Y-108419650D01*
X155165201Y-108357579D01*
X154985079Y-108327618D01*
X154802514Y-108330759D01*
X154623528Y-108366896D01*
X154454038Y-108434838D01*
X154299659Y-108532333D01*
X154165467Y-108656172D01*
X154055918Y-108802249D01*
X153974617Y-108965749D01*
X153933439Y-109109267D01*
X153924259Y-109141264D01*
X153906504Y-109322994D01*
X153908112Y-109341949D01*
X153921940Y-109504937D01*
X153970057Y-109681080D01*
X153975318Y-109692043D01*
X153975561Y-109692784D01*
X153999700Y-109742917D01*
X154009501Y-109785865D01*
X154009501Y-111146109D01*
X153999753Y-111188946D01*
X153996029Y-111196705D01*
X153995977Y-111196814D01*
X153975590Y-111239157D01*
X153975443Y-111239600D01*
X153970018Y-111250904D01*
X153921900Y-111427054D01*
X153906463Y-111609006D01*
X152268497Y-111609006D01*
X152216035Y-111568751D01*
X152169625Y-111533139D01*
X152130401Y-111516892D01*
X152035709Y-111477669D01*
X151892000Y-111458750D01*
X151748290Y-111477669D01*
X151614375Y-111533139D01*
X151499378Y-111621378D01*
X151411139Y-111736375D01*
X151355669Y-111870290D01*
X151336750Y-112013999D01*
X138101639Y-112013999D01*
X138125382Y-111966250D01*
X138175741Y-111790736D01*
X138193496Y-111609006D01*
X138178060Y-111427064D01*
X138129944Y-111250922D01*
X138124685Y-111239964D01*
X138124396Y-111239082D01*
X138100318Y-111189107D01*
X138090506Y-111146104D01*
X138090520Y-111103108D01*
X138090519Y-111103104D01*
X138090523Y-111090126D01*
X138090499Y-111089937D01*
X138090499Y-109785890D01*
X138100244Y-109743059D01*
X138104106Y-109735011D01*
X138104143Y-109735029D01*
X138104163Y-109734890D01*
X138119019Y-109704040D01*
X138119019Y-109704037D01*
X138124556Y-109692540D01*
X138124704Y-109692089D01*
X138124726Y-109692043D01*
X138129981Y-109681094D01*
X138178100Y-109504945D01*
X138193537Y-109322996D01*
X138175781Y-109141258D01*
X138125421Y-108965737D01*
X138044119Y-108802232D01*
X138044117Y-108802229D01*
X137934561Y-108656143D01*
X137800370Y-108532304D01*
X137645982Y-108434804D01*
X137645979Y-108434803D01*
X137645978Y-108434802D01*
X137532983Y-108389505D01*
X137476484Y-108366857D01*
X137297492Y-108330718D01*
X137114919Y-108327577D01*
X136934789Y-108357539D01*
X136763061Y-108419613D01*
X136752514Y-108425759D01*
X136751887Y-108426023D01*
X136707461Y-108451978D01*
X136657514Y-108465496D01*
X136618967Y-108465493D01*
X136618607Y-108465493D01*
X136605550Y-108465492D01*
X136605489Y-108465500D01*
X135122493Y-108465500D01*
X135072538Y-108451972D01*
X135028286Y-108426108D01*
X135027272Y-108425683D01*
X135016920Y-108419650D01*
X134845201Y-108357579D01*
X134665079Y-108327618D01*
X134482514Y-108330759D01*
X134303528Y-108366896D01*
X134134038Y-108434838D01*
X133979659Y-108532333D01*
X133845467Y-108656172D01*
X133735918Y-108802249D01*
X133654617Y-108965749D01*
X133613439Y-109109267D01*
X133604259Y-109141264D01*
X133586504Y-109322994D01*
X133588112Y-109341949D01*
X133601940Y-109504937D01*
X133650057Y-109681080D01*
X133655318Y-109692043D01*
X133655561Y-109692784D01*
X133679700Y-109742917D01*
X133689501Y-109785865D01*
X133689501Y-111146109D01*
X133679753Y-111188946D01*
X133676029Y-111196705D01*
X133675977Y-111196814D01*
X133655590Y-111239157D01*
X133655443Y-111239600D01*
X133650018Y-111250904D01*
X133601900Y-111427054D01*
X133586463Y-111609006D01*
X131229949Y-111609006D01*
X131290861Y-111529625D01*
X131346330Y-111395709D01*
X131365250Y-111252000D01*
X131346330Y-111108291D01*
X131344183Y-111103108D01*
X131330083Y-111069067D01*
X131290861Y-110974375D01*
X131240932Y-110909306D01*
X131202621Y-110859378D01*
X131137552Y-110809450D01*
X131087625Y-110771139D01*
X131048401Y-110754892D01*
X130953709Y-110715669D01*
X130810000Y-110696750D01*
X130666290Y-110715669D01*
X130532375Y-110771139D01*
X130417378Y-110859378D01*
X130329139Y-110974375D01*
X130273669Y-111108290D01*
X130254750Y-111251999D01*
X124325500Y-111251999D01*
X124325500Y-106680000D01*
X133858000Y-106680000D01*
X134366000Y-107188000D01*
X137413999Y-107188000D01*
X137414000Y-107188000D01*
X137922000Y-106680000D01*
X154178000Y-106680000D01*
X154686000Y-107188000D01*
X157733999Y-107188000D01*
X157734000Y-107188000D01*
X158242000Y-106680000D01*
X158242000Y-105357395D01*
X160185745Y-105357395D01*
X160195746Y-105567332D01*
X160245294Y-105771574D01*
X160332604Y-105962754D01*
X160454510Y-106133948D01*
X160606622Y-106278986D01*
X160783431Y-106392615D01*
X160978539Y-106470724D01*
X160978541Y-106470724D01*
X160978543Y-106470725D01*
X161184915Y-106510500D01*
X161342422Y-106510500D01*
X161342425Y-106510500D01*
X161499218Y-106495528D01*
X161700875Y-106436316D01*
X161887682Y-106340011D01*
X162052886Y-106210092D01*
X162190519Y-106051256D01*
X162295604Y-105869244D01*
X162364344Y-105670633D01*
X162394254Y-105462602D01*
X162384254Y-105252670D01*
X162359193Y-105149367D01*
X162334705Y-105048425D01*
X162247395Y-104857245D01*
X162125489Y-104686051D01*
X161973377Y-104541013D01*
X161796568Y-104427384D01*
X161601460Y-104349275D01*
X161446678Y-104319443D01*
X161395085Y-104309500D01*
X161237575Y-104309500D01*
X161143499Y-104318483D01*
X161080780Y-104324472D01*
X160879124Y-104383683D01*
X160692317Y-104479989D01*
X160527112Y-104609908D01*
X160389483Y-104768740D01*
X160284395Y-104950758D01*
X160215655Y-105149369D01*
X160185745Y-105357395D01*
X158242000Y-105357395D01*
X158242000Y-104140000D01*
X157734000Y-103632000D01*
X154686000Y-103632000D01*
X154178000Y-104140000D01*
X154178000Y-106680000D01*
X137922000Y-106680000D01*
X137922000Y-105357395D01*
X139865745Y-105357395D01*
X139875746Y-105567332D01*
X139925294Y-105771574D01*
X140012604Y-105962754D01*
X140134510Y-106133948D01*
X140286622Y-106278986D01*
X140463431Y-106392615D01*
X140658539Y-106470724D01*
X140658541Y-106470724D01*
X140658543Y-106470725D01*
X140864915Y-106510500D01*
X141022422Y-106510500D01*
X141022425Y-106510500D01*
X141179218Y-106495528D01*
X141380875Y-106436316D01*
X141567682Y-106340011D01*
X141732886Y-106210092D01*
X141870519Y-106051256D01*
X141975604Y-105869244D01*
X142044344Y-105670633D01*
X142074254Y-105462602D01*
X142069243Y-105357395D01*
X150025745Y-105357395D01*
X150035746Y-105567332D01*
X150085294Y-105771574D01*
X150172604Y-105962754D01*
X150294510Y-106133948D01*
X150446622Y-106278986D01*
X150623431Y-106392615D01*
X150818539Y-106470724D01*
X150818541Y-106470724D01*
X150818543Y-106470725D01*
X151024915Y-106510500D01*
X151182422Y-106510500D01*
X151182425Y-106510500D01*
X151339218Y-106495528D01*
X151540875Y-106436316D01*
X151727682Y-106340011D01*
X151892886Y-106210092D01*
X152030519Y-106051256D01*
X152135604Y-105869244D01*
X152204344Y-105670633D01*
X152234254Y-105462602D01*
X152224254Y-105252670D01*
X152199193Y-105149367D01*
X152174705Y-105048425D01*
X152087395Y-104857245D01*
X151965489Y-104686051D01*
X151813377Y-104541013D01*
X151636569Y-104427385D01*
X151432681Y-104345761D01*
X151433525Y-104343650D01*
X151392345Y-104321201D01*
X151365944Y-104267171D01*
X151375683Y-104207831D01*
X151410244Y-104140001D01*
X151412719Y-104135144D01*
X151433804Y-104002018D01*
X151427736Y-103963709D01*
X151412719Y-103868893D01*
X151412719Y-103868892D01*
X151351528Y-103748798D01*
X151256220Y-103653490D01*
X151136126Y-103592299D01*
X151136125Y-103592298D01*
X151136124Y-103592298D01*
X151005616Y-103571628D01*
X150967183Y-103556875D01*
X150938074Y-103527766D01*
X150923323Y-103489335D01*
X150904719Y-103371874D01*
X150843528Y-103251780D01*
X150748220Y-103156472D01*
X150628126Y-103095281D01*
X150628125Y-103095280D01*
X150628124Y-103095280D01*
X150495000Y-103074195D01*
X150361875Y-103095280D01*
X150241781Y-103156471D01*
X150146471Y-103251781D01*
X150085280Y-103371875D01*
X150064195Y-103504999D01*
X150085280Y-103638124D01*
X150085280Y-103638125D01*
X150085281Y-103638126D01*
X150146472Y-103758220D01*
X150241780Y-103853528D01*
X150361874Y-103914719D01*
X150492385Y-103935389D01*
X150530815Y-103950141D01*
X150559924Y-103979251D01*
X150574677Y-104017683D01*
X150593280Y-104135142D01*
X150593280Y-104135143D01*
X150593281Y-104135144D01*
X150654472Y-104255238D01*
X150665348Y-104266114D01*
X150693099Y-104320474D01*
X150683695Y-104380781D01*
X150640707Y-104424111D01*
X150532317Y-104479989D01*
X150367112Y-104609908D01*
X150229483Y-104768740D01*
X150124395Y-104950758D01*
X150055655Y-105149369D01*
X150025745Y-105357395D01*
X142069243Y-105357395D01*
X142064254Y-105252670D01*
X142039193Y-105149367D01*
X142014705Y-105048425D01*
X141927395Y-104857245D01*
X141805489Y-104686051D01*
X141653377Y-104541013D01*
X141476568Y-104427384D01*
X141281460Y-104349275D01*
X141126678Y-104319443D01*
X141075085Y-104309500D01*
X140917575Y-104309500D01*
X140823499Y-104318483D01*
X140760780Y-104324472D01*
X140559124Y-104383683D01*
X140372317Y-104479989D01*
X140207112Y-104609908D01*
X140069483Y-104768740D01*
X139964395Y-104950758D01*
X139895655Y-105149369D01*
X139865745Y-105357395D01*
X137922000Y-105357395D01*
X137922000Y-104140000D01*
X137602000Y-103820000D01*
X139332750Y-103820000D01*
X139351669Y-103963709D01*
X139374026Y-104017683D01*
X139407139Y-104097625D01*
X139445450Y-104147552D01*
X139495378Y-104212621D01*
X139545306Y-104250932D01*
X139610375Y-104300861D01*
X139705067Y-104340083D01*
X139744290Y-104356330D01*
X139761008Y-104358531D01*
X139888000Y-104375250D01*
X140031709Y-104356330D01*
X140165625Y-104300861D01*
X140280621Y-104212621D01*
X140368861Y-104097625D01*
X140424330Y-103963709D01*
X140443250Y-103820000D01*
X140424330Y-103676291D01*
X140368861Y-103542375D01*
X140318932Y-103477306D01*
X140280621Y-103427378D01*
X140238460Y-103395027D01*
X144467103Y-103395027D01*
X144467104Y-103395028D01*
X144472409Y-103399098D01*
X144618367Y-103459556D01*
X144775000Y-103480176D01*
X144931632Y-103459556D01*
X145077589Y-103399099D01*
X145082894Y-103395027D01*
X145742103Y-103395027D01*
X145742104Y-103395028D01*
X145747409Y-103399098D01*
X145893367Y-103459556D01*
X146050000Y-103480176D01*
X146206632Y-103459556D01*
X146352589Y-103399099D01*
X146357894Y-103395027D01*
X147017103Y-103395027D01*
X147017104Y-103395028D01*
X147022409Y-103399098D01*
X147168367Y-103459556D01*
X147325000Y-103480176D01*
X147481632Y-103459556D01*
X147627589Y-103399099D01*
X147632894Y-103395027D01*
X147324999Y-103087132D01*
X147017103Y-103395027D01*
X146357894Y-103395027D01*
X146049999Y-103087132D01*
X145742103Y-103395027D01*
X145082894Y-103395027D01*
X144774999Y-103087132D01*
X144467103Y-103395027D01*
X140238460Y-103395027D01*
X140208286Y-103371874D01*
X140165625Y-103339139D01*
X140126401Y-103322892D01*
X140031709Y-103283669D01*
X139888000Y-103264750D01*
X139744290Y-103283669D01*
X139610375Y-103339139D01*
X139495378Y-103427378D01*
X139407139Y-103542375D01*
X139351669Y-103676290D01*
X139332750Y-103820000D01*
X137602000Y-103820000D01*
X137414000Y-103632000D01*
X134366000Y-103632000D01*
X133858000Y-104140000D01*
X133858000Y-106680000D01*
X124325500Y-106680000D01*
X124325500Y-105357395D01*
X129705745Y-105357395D01*
X129715746Y-105567332D01*
X129765294Y-105771574D01*
X129852604Y-105962754D01*
X129974510Y-106133948D01*
X130126622Y-106278986D01*
X130303431Y-106392615D01*
X130498539Y-106470724D01*
X130498541Y-106470724D01*
X130498543Y-106470725D01*
X130704915Y-106510500D01*
X130862422Y-106510500D01*
X130862425Y-106510500D01*
X131019218Y-106495528D01*
X131220875Y-106436316D01*
X131407682Y-106340011D01*
X131572886Y-106210092D01*
X131710519Y-106051256D01*
X131815604Y-105869244D01*
X131884344Y-105670633D01*
X131914254Y-105462602D01*
X131904254Y-105252670D01*
X131879193Y-105149367D01*
X131854705Y-105048425D01*
X131767395Y-104857245D01*
X131645489Y-104686051D01*
X131493377Y-104541013D01*
X131316568Y-104427384D01*
X131121460Y-104349275D01*
X130966678Y-104319443D01*
X130915085Y-104309500D01*
X130757575Y-104309500D01*
X130663499Y-104318483D01*
X130600780Y-104324472D01*
X130399124Y-104383683D01*
X130212317Y-104479989D01*
X130047112Y-104609908D01*
X129909483Y-104768740D01*
X129804395Y-104950758D01*
X129735655Y-105149369D01*
X129705745Y-105357395D01*
X124325500Y-105357395D01*
X124325500Y-102874999D01*
X144169823Y-102874999D01*
X144190443Y-103031632D01*
X144250901Y-103177589D01*
X144254971Y-103182895D01*
X144254972Y-103182895D01*
X144562867Y-102875000D01*
X144562866Y-102874999D01*
X144987132Y-102874999D01*
X145295027Y-103182894D01*
X145299099Y-103177589D01*
X145321036Y-103124628D01*
X145357498Y-103080198D01*
X145412500Y-103063513D01*
X145467502Y-103080198D01*
X145503964Y-103124628D01*
X145525901Y-103177589D01*
X145529971Y-103182895D01*
X145529972Y-103182895D01*
X145837867Y-102875000D01*
X145837866Y-102874999D01*
X146262132Y-102874999D01*
X146570027Y-103182894D01*
X146574099Y-103177589D01*
X146596036Y-103124628D01*
X146632498Y-103080198D01*
X146687500Y-103063513D01*
X146742502Y-103080198D01*
X146778964Y-103124628D01*
X146800901Y-103177589D01*
X146804971Y-103182895D01*
X146804972Y-103182895D01*
X147112867Y-102875000D01*
X147112866Y-102874999D01*
X147537132Y-102874999D01*
X147845027Y-103182894D01*
X147849099Y-103177589D01*
X147909556Y-103031632D01*
X147930176Y-102874999D01*
X147909556Y-102718367D01*
X147849099Y-102572412D01*
X147845025Y-102567105D01*
X147537132Y-102874999D01*
X147112866Y-102874999D01*
X146804972Y-102567105D01*
X146804971Y-102567105D01*
X146800901Y-102572409D01*
X146778964Y-102625372D01*
X146742501Y-102669802D01*
X146687500Y-102686486D01*
X146632499Y-102669801D01*
X146596036Y-102625372D01*
X146574099Y-102572411D01*
X146570025Y-102567105D01*
X146262132Y-102874999D01*
X145837866Y-102874999D01*
X145529972Y-102567105D01*
X145529971Y-102567105D01*
X145525901Y-102572409D01*
X145503964Y-102625372D01*
X145467501Y-102669802D01*
X145412500Y-102686486D01*
X145357499Y-102669801D01*
X145321036Y-102625372D01*
X145299099Y-102572411D01*
X145295025Y-102567105D01*
X144987132Y-102874999D01*
X144562866Y-102874999D01*
X144254972Y-102567105D01*
X144254971Y-102567105D01*
X144250901Y-102572410D01*
X144190443Y-102718367D01*
X144169823Y-102874999D01*
X124325500Y-102874999D01*
X124325500Y-102120027D01*
X144467103Y-102120027D01*
X144467104Y-102120028D01*
X144472409Y-102124098D01*
X144525371Y-102146036D01*
X144569801Y-102182498D01*
X144586486Y-102237500D01*
X144569802Y-102292501D01*
X144525372Y-102328964D01*
X144472409Y-102350901D01*
X144467105Y-102354971D01*
X144467105Y-102354972D01*
X144775000Y-102662867D01*
X145082895Y-102354972D01*
X145082895Y-102354971D01*
X145077589Y-102350901D01*
X145024628Y-102328964D01*
X144980198Y-102292502D01*
X144963513Y-102237500D01*
X144980198Y-102182498D01*
X145024628Y-102146036D01*
X145077589Y-102124099D01*
X145082894Y-102120027D01*
X145742103Y-102120027D01*
X145742104Y-102120028D01*
X145747409Y-102124098D01*
X145800371Y-102146036D01*
X145844801Y-102182498D01*
X145861486Y-102237500D01*
X145844802Y-102292501D01*
X145800372Y-102328964D01*
X145747409Y-102350901D01*
X145742105Y-102354971D01*
X145742105Y-102354972D01*
X146050000Y-102662867D01*
X146357895Y-102354972D01*
X146357895Y-102354971D01*
X146352589Y-102350901D01*
X146299628Y-102328964D01*
X146255198Y-102292502D01*
X146238513Y-102237500D01*
X146255198Y-102182498D01*
X146299628Y-102146036D01*
X146352589Y-102124099D01*
X146357894Y-102120027D01*
X147017103Y-102120027D01*
X147017104Y-102120028D01*
X147022409Y-102124098D01*
X147075371Y-102146036D01*
X147119801Y-102182498D01*
X147136486Y-102237500D01*
X147119802Y-102292501D01*
X147075372Y-102328964D01*
X147022409Y-102350901D01*
X147017105Y-102354971D01*
X147017105Y-102354972D01*
X147325000Y-102662867D01*
X147632895Y-102354972D01*
X147632895Y-102354971D01*
X147627589Y-102350901D01*
X147574628Y-102328964D01*
X147530198Y-102292502D01*
X147513513Y-102237500D01*
X147530198Y-102182498D01*
X147574628Y-102146036D01*
X147627589Y-102124099D01*
X147632894Y-102120027D01*
X147324999Y-101812132D01*
X147017103Y-102120027D01*
X146357894Y-102120027D01*
X146049999Y-101812132D01*
X145742103Y-102120027D01*
X145082894Y-102120027D01*
X144774999Y-101812132D01*
X144467103Y-102120027D01*
X124325500Y-102120027D01*
X124325500Y-101600000D01*
X144169823Y-101600000D01*
X144190443Y-101756632D01*
X144250901Y-101902589D01*
X144254971Y-101907895D01*
X144562867Y-101600000D01*
X144562866Y-101599999D01*
X144987132Y-101599999D01*
X145295027Y-101907894D01*
X145299099Y-101902589D01*
X145321036Y-101849628D01*
X145357498Y-101805198D01*
X145412500Y-101788513D01*
X145467502Y-101805198D01*
X145503964Y-101849628D01*
X145525901Y-101902589D01*
X145529971Y-101907895D01*
X145837867Y-101600000D01*
X145837866Y-101599999D01*
X146262132Y-101599999D01*
X146570027Y-101907894D01*
X146574099Y-101902589D01*
X146596036Y-101849628D01*
X146632498Y-101805198D01*
X146687500Y-101788513D01*
X146742502Y-101805198D01*
X146778964Y-101849628D01*
X146800901Y-101902589D01*
X146804971Y-101907895D01*
X147112867Y-101600000D01*
X147112866Y-101599999D01*
X147537132Y-101599999D01*
X147845027Y-101907894D01*
X147849099Y-101902589D01*
X147909556Y-101756632D01*
X147930176Y-101600000D01*
X147909556Y-101443367D01*
X147849099Y-101297412D01*
X147845025Y-101292105D01*
X147537132Y-101599999D01*
X147112866Y-101599999D01*
X146804972Y-101292105D01*
X146804971Y-101292105D01*
X146800901Y-101297409D01*
X146778964Y-101350372D01*
X146742501Y-101394802D01*
X146687500Y-101411486D01*
X146632499Y-101394801D01*
X146596036Y-101350372D01*
X146574099Y-101297411D01*
X146570025Y-101292105D01*
X146262132Y-101599999D01*
X145837866Y-101599999D01*
X145529972Y-101292105D01*
X145529971Y-101292105D01*
X145525901Y-101297409D01*
X145503964Y-101350372D01*
X145467501Y-101394802D01*
X145412500Y-101411486D01*
X145357499Y-101394801D01*
X145321036Y-101350372D01*
X145299099Y-101297411D01*
X145295025Y-101292105D01*
X144987132Y-101599999D01*
X144562866Y-101599999D01*
X144254972Y-101292105D01*
X144254971Y-101292105D01*
X144250901Y-101297410D01*
X144190443Y-101443367D01*
X144169823Y-101600000D01*
X124325500Y-101600000D01*
X124325500Y-100845027D01*
X144467103Y-100845027D01*
X144467104Y-100845028D01*
X144472409Y-100849098D01*
X144525371Y-100871036D01*
X144569801Y-100907498D01*
X144586486Y-100962500D01*
X144569802Y-101017501D01*
X144525372Y-101053964D01*
X144472409Y-101075901D01*
X144467105Y-101079971D01*
X144775000Y-101387867D01*
X145082895Y-101079972D01*
X145082895Y-101079971D01*
X145077589Y-101075901D01*
X145024628Y-101053964D01*
X144980198Y-101017502D01*
X144963513Y-100962500D01*
X144980198Y-100907498D01*
X145024628Y-100871036D01*
X145077589Y-100849099D01*
X145082894Y-100845027D01*
X145742103Y-100845027D01*
X145742104Y-100845028D01*
X145747409Y-100849098D01*
X145800371Y-100871036D01*
X145844801Y-100907498D01*
X145861486Y-100962500D01*
X145844802Y-101017501D01*
X145800372Y-101053964D01*
X145747409Y-101075901D01*
X145742105Y-101079971D01*
X146050000Y-101387867D01*
X146357895Y-101079972D01*
X146357895Y-101079971D01*
X146352589Y-101075901D01*
X146299628Y-101053964D01*
X146255198Y-101017502D01*
X146238513Y-100962500D01*
X146255198Y-100907498D01*
X146299628Y-100871036D01*
X146352589Y-100849099D01*
X146357894Y-100845027D01*
X147017103Y-100845027D01*
X147017104Y-100845028D01*
X147022409Y-100849098D01*
X147075371Y-100871036D01*
X147119801Y-100907498D01*
X147136486Y-100962500D01*
X147119802Y-101017501D01*
X147075372Y-101053964D01*
X147022409Y-101075901D01*
X147017105Y-101079971D01*
X147325000Y-101387867D01*
X147632895Y-101079972D01*
X147632895Y-101079971D01*
X147627589Y-101075901D01*
X147574628Y-101053964D01*
X147530198Y-101017502D01*
X147513513Y-100962500D01*
X147530198Y-100907498D01*
X147574628Y-100871036D01*
X147627589Y-100849099D01*
X147632894Y-100845027D01*
X147324999Y-100537132D01*
X147017103Y-100845027D01*
X146357894Y-100845027D01*
X146049999Y-100537132D01*
X145742103Y-100845027D01*
X145082894Y-100845027D01*
X144774999Y-100537132D01*
X144467103Y-100845027D01*
X124325500Y-100845027D01*
X124325500Y-100325000D01*
X144169823Y-100325000D01*
X144190443Y-100481632D01*
X144250901Y-100627589D01*
X144254971Y-100632895D01*
X144562867Y-100325000D01*
X144562866Y-100324999D01*
X144987132Y-100324999D01*
X145295027Y-100632894D01*
X145299099Y-100627589D01*
X145321036Y-100574628D01*
X145357498Y-100530198D01*
X145412500Y-100513513D01*
X145467502Y-100530198D01*
X145503964Y-100574628D01*
X145525901Y-100627589D01*
X145529971Y-100632895D01*
X145837867Y-100325000D01*
X145837866Y-100324999D01*
X146262132Y-100324999D01*
X146570027Y-100632894D01*
X146574099Y-100627589D01*
X146596036Y-100574628D01*
X146632498Y-100530198D01*
X146687500Y-100513513D01*
X146742502Y-100530198D01*
X146778964Y-100574628D01*
X146800901Y-100627589D01*
X146804971Y-100632895D01*
X147112867Y-100325000D01*
X147112866Y-100324999D01*
X147537132Y-100324999D01*
X147845027Y-100632894D01*
X147849099Y-100627589D01*
X147909556Y-100481632D01*
X147930176Y-100325000D01*
X147909556Y-100168367D01*
X147849099Y-100022412D01*
X147845025Y-100017105D01*
X147537132Y-100324999D01*
X147112866Y-100324999D01*
X146804972Y-100017105D01*
X146804971Y-100017105D01*
X146800901Y-100022409D01*
X146778964Y-100075372D01*
X146742501Y-100119802D01*
X146687500Y-100136486D01*
X146632499Y-100119801D01*
X146596036Y-100075372D01*
X146574099Y-100022411D01*
X146570025Y-100017105D01*
X146262132Y-100324999D01*
X145837866Y-100324999D01*
X145529972Y-100017105D01*
X145529971Y-100017105D01*
X145525901Y-100022409D01*
X145503964Y-100075372D01*
X145467501Y-100119802D01*
X145412500Y-100136486D01*
X145357499Y-100119801D01*
X145321036Y-100075372D01*
X145299099Y-100022411D01*
X145295025Y-100017105D01*
X144987132Y-100324999D01*
X144562866Y-100324999D01*
X144254972Y-100017105D01*
X144254971Y-100017105D01*
X144250901Y-100022410D01*
X144190443Y-100168367D01*
X144169823Y-100325000D01*
X124325500Y-100325000D01*
X124325500Y-99804972D01*
X144467105Y-99804972D01*
X144775000Y-100112867D01*
X145082895Y-99804972D01*
X145742105Y-99804972D01*
X146050000Y-100112867D01*
X146357895Y-99804972D01*
X147017105Y-99804972D01*
X147325000Y-100112867D01*
X147439767Y-99998100D01*
X149871650Y-99998100D01*
X149890569Y-100141809D01*
X149929792Y-100236501D01*
X149946039Y-100275725D01*
X149966862Y-100302862D01*
X150034278Y-100390721D01*
X150084206Y-100429032D01*
X150149275Y-100478961D01*
X150232692Y-100513513D01*
X150283190Y-100534430D01*
X150299908Y-100536631D01*
X150426900Y-100553350D01*
X150570609Y-100534430D01*
X150704525Y-100478961D01*
X150819521Y-100390721D01*
X150907761Y-100275725D01*
X150963230Y-100141809D01*
X150982150Y-99998100D01*
X150963230Y-99854391D01*
X150949813Y-99822000D01*
X152987751Y-99822000D01*
X153006670Y-99965710D01*
X153030157Y-100022411D01*
X153062140Y-100099626D01*
X153077621Y-100119801D01*
X153150379Y-100214622D01*
X153200307Y-100252933D01*
X153265376Y-100302862D01*
X153360068Y-100342084D01*
X153399291Y-100358331D01*
X153416009Y-100360532D01*
X153543001Y-100377251D01*
X153686710Y-100358331D01*
X153820626Y-100302862D01*
X153935622Y-100214622D01*
X154023862Y-100099626D01*
X154079331Y-99965710D01*
X154098251Y-99822001D01*
X154079331Y-99678292D01*
X154023862Y-99544376D01*
X153960475Y-99461769D01*
X153935622Y-99429379D01*
X153870553Y-99379451D01*
X153820626Y-99341140D01*
X153773012Y-99321418D01*
X153686710Y-99285670D01*
X153543001Y-99266751D01*
X153399291Y-99285670D01*
X153265376Y-99341140D01*
X153150379Y-99429379D01*
X153062140Y-99544376D01*
X153006670Y-99678291D01*
X152987751Y-99822000D01*
X150949813Y-99822000D01*
X150907761Y-99720475D01*
X150857832Y-99655406D01*
X150819521Y-99605478D01*
X150739890Y-99544376D01*
X150704525Y-99517239D01*
X150665301Y-99500992D01*
X150570609Y-99461769D01*
X150426900Y-99442850D01*
X150283190Y-99461769D01*
X150149275Y-99517239D01*
X150034278Y-99605478D01*
X149946039Y-99720475D01*
X149890569Y-99854390D01*
X149871650Y-99998100D01*
X147439767Y-99998100D01*
X147632895Y-99804972D01*
X147632895Y-99804971D01*
X147627589Y-99800901D01*
X147481632Y-99740443D01*
X147325000Y-99719823D01*
X147168367Y-99740443D01*
X147022410Y-99800901D01*
X147017105Y-99804971D01*
X147017105Y-99804972D01*
X146357895Y-99804972D01*
X146357895Y-99804971D01*
X146352589Y-99800901D01*
X146206632Y-99740443D01*
X146050000Y-99719823D01*
X145893367Y-99740443D01*
X145747410Y-99800901D01*
X145742105Y-99804971D01*
X145742105Y-99804972D01*
X145082895Y-99804972D01*
X145082895Y-99804971D01*
X145077589Y-99800901D01*
X144931632Y-99740443D01*
X144775000Y-99719823D01*
X144618367Y-99740443D01*
X144472410Y-99800901D01*
X144467105Y-99804971D01*
X144467105Y-99804972D01*
X124325500Y-99804972D01*
X124325500Y-98805999D01*
X138763750Y-98805999D01*
X138782669Y-98949709D01*
X138821892Y-99044401D01*
X138838139Y-99083625D01*
X138855061Y-99105678D01*
X138926378Y-99198621D01*
X138958820Y-99223514D01*
X139041375Y-99286861D01*
X139136067Y-99326083D01*
X139175290Y-99342330D01*
X139192008Y-99344531D01*
X139319000Y-99361250D01*
X139462709Y-99342330D01*
X139596625Y-99286861D01*
X139711621Y-99198621D01*
X139799861Y-99083625D01*
X139843839Y-98977450D01*
X146798237Y-98977450D01*
X146816673Y-99105678D01*
X146870487Y-99223513D01*
X146955320Y-99321416D01*
X146955322Y-99321418D01*
X147064302Y-99391455D01*
X147188599Y-99427951D01*
X147318143Y-99427951D01*
X147442440Y-99391455D01*
X147551420Y-99321418D01*
X147636253Y-99223514D01*
X147636252Y-99223514D01*
X147636254Y-99223513D01*
X147690068Y-99105678D01*
X147708504Y-98977451D01*
X147690068Y-98849223D01*
X147636254Y-98731388D01*
X147551421Y-98633485D01*
X147551420Y-98633484D01*
X147496930Y-98598465D01*
X147442439Y-98563446D01*
X147318143Y-98526951D01*
X147188599Y-98526951D01*
X147064302Y-98563446D01*
X146955320Y-98633485D01*
X146870487Y-98731388D01*
X146816673Y-98849223D01*
X146798237Y-98977450D01*
X139843839Y-98977450D01*
X139855330Y-98949709D01*
X139874250Y-98806000D01*
X139855330Y-98662291D01*
X139799861Y-98528375D01*
X139749932Y-98463306D01*
X139711621Y-98413378D01*
X139646552Y-98363450D01*
X139596625Y-98325139D01*
X139557401Y-98308892D01*
X139462709Y-98269669D01*
X139319000Y-98250750D01*
X139175290Y-98269669D01*
X139041375Y-98325139D01*
X138926378Y-98413378D01*
X138838139Y-98528375D01*
X138782669Y-98662290D01*
X138763750Y-98805999D01*
X124325500Y-98805999D01*
X124325500Y-96520000D01*
X125644340Y-96520000D01*
X125664936Y-96755405D01*
X125726098Y-96983667D01*
X125825963Y-97197826D01*
X125825964Y-97197827D01*
X125825965Y-97197829D01*
X125961505Y-97391401D01*
X126128599Y-97558495D01*
X126322171Y-97694035D01*
X126322172Y-97694035D01*
X126322173Y-97694036D01*
X126536332Y-97793901D01*
X126536333Y-97793901D01*
X126536337Y-97793903D01*
X126764592Y-97855063D01*
X126835168Y-97861237D01*
X126941031Y-97870500D01*
X126941034Y-97870500D01*
X127058966Y-97870500D01*
X127058969Y-97870500D01*
X127147186Y-97862781D01*
X127235408Y-97855063D01*
X127463663Y-97793903D01*
X127677829Y-97694035D01*
X127871401Y-97558495D01*
X128038495Y-97391401D01*
X128174035Y-97197830D01*
X128273903Y-96983663D01*
X128335063Y-96755408D01*
X128355659Y-96520000D01*
X128355659Y-96519999D01*
X163744340Y-96519999D01*
X163764936Y-96755405D01*
X163826098Y-96983667D01*
X163925963Y-97197826D01*
X163925964Y-97197827D01*
X163925965Y-97197829D01*
X164061505Y-97391401D01*
X164228599Y-97558495D01*
X164422171Y-97694035D01*
X164422172Y-97694035D01*
X164422173Y-97694036D01*
X164636332Y-97793901D01*
X164636333Y-97793901D01*
X164636337Y-97793903D01*
X164864592Y-97855063D01*
X164935168Y-97861237D01*
X165041031Y-97870500D01*
X165041034Y-97870500D01*
X165158966Y-97870500D01*
X165158969Y-97870500D01*
X165247186Y-97862781D01*
X165335408Y-97855063D01*
X165563663Y-97793903D01*
X165777829Y-97694035D01*
X165971401Y-97558495D01*
X166138495Y-97391401D01*
X166274035Y-97197830D01*
X166373903Y-96983663D01*
X166435063Y-96755408D01*
X166455659Y-96520000D01*
X166435063Y-96284592D01*
X166373903Y-96056337D01*
X166274035Y-95842171D01*
X166138495Y-95648599D01*
X165971401Y-95481505D01*
X165777829Y-95345965D01*
X165777828Y-95345964D01*
X165777826Y-95345963D01*
X165563667Y-95246098D01*
X165335405Y-95184936D01*
X165158969Y-95169500D01*
X165158966Y-95169500D01*
X165041034Y-95169500D01*
X165041031Y-95169500D01*
X164864594Y-95184936D01*
X164636332Y-95246098D01*
X164422173Y-95345963D01*
X164228602Y-95481502D01*
X164061502Y-95648602D01*
X163925963Y-95842172D01*
X163826098Y-96056332D01*
X163764936Y-96284594D01*
X163744340Y-96519999D01*
X128355659Y-96519999D01*
X128335063Y-96284592D01*
X128273903Y-96056337D01*
X128194007Y-95885000D01*
X145294750Y-95885000D01*
X145313669Y-96028709D01*
X145352892Y-96123401D01*
X145369139Y-96162625D01*
X145407450Y-96212552D01*
X145457378Y-96277621D01*
X145466466Y-96284594D01*
X145572375Y-96365861D01*
X145667067Y-96405083D01*
X145706290Y-96421330D01*
X145723008Y-96423531D01*
X145850000Y-96440250D01*
X145993709Y-96421330D01*
X146127625Y-96365861D01*
X146242621Y-96277621D01*
X146330861Y-96162625D01*
X146386330Y-96028709D01*
X146405250Y-95885000D01*
X146386330Y-95741291D01*
X146330861Y-95607375D01*
X146273274Y-95532326D01*
X146242621Y-95492378D01*
X146177552Y-95442450D01*
X146127625Y-95404139D01*
X146088401Y-95387892D01*
X145993709Y-95348669D01*
X145850000Y-95329750D01*
X145706290Y-95348669D01*
X145572375Y-95404139D01*
X145457378Y-95492378D01*
X145369139Y-95607375D01*
X145313669Y-95741290D01*
X145294750Y-95885000D01*
X128194007Y-95885000D01*
X128174035Y-95842171D01*
X128038495Y-95648599D01*
X127871401Y-95481505D01*
X127677829Y-95345965D01*
X127677828Y-95345964D01*
X127677826Y-95345963D01*
X127463667Y-95246098D01*
X127235405Y-95184936D01*
X127058969Y-95169500D01*
X127058966Y-95169500D01*
X126941034Y-95169500D01*
X126941031Y-95169500D01*
X126764594Y-95184936D01*
X126536332Y-95246098D01*
X126322173Y-95345963D01*
X126128602Y-95481502D01*
X125961502Y-95648602D01*
X125825963Y-95842172D01*
X125726098Y-96056332D01*
X125664936Y-96284594D01*
X125644340Y-96520000D01*
X124325500Y-96520000D01*
X124325500Y-94995995D01*
X157940750Y-94995995D01*
X157959669Y-95139705D01*
X157978405Y-95184937D01*
X158015139Y-95273621D01*
X158053450Y-95323548D01*
X158103378Y-95388617D01*
X158153306Y-95426928D01*
X158218375Y-95476857D01*
X158313067Y-95516079D01*
X158352290Y-95532326D01*
X158369008Y-95534527D01*
X158496000Y-95551246D01*
X158639709Y-95532326D01*
X158773625Y-95476857D01*
X158888621Y-95388617D01*
X158976861Y-95273621D01*
X159032330Y-95139705D01*
X159051250Y-94995996D01*
X159032330Y-94852287D01*
X158976861Y-94718371D01*
X158926932Y-94653302D01*
X158888621Y-94603374D01*
X158823552Y-94553446D01*
X158773625Y-94515135D01*
X158734401Y-94498888D01*
X158639709Y-94459665D01*
X158496000Y-94440746D01*
X158352290Y-94459665D01*
X158218375Y-94515135D01*
X158103378Y-94603374D01*
X158015139Y-94718371D01*
X157959669Y-94852286D01*
X157940750Y-94995995D01*
X124325500Y-94995995D01*
X124325500Y-92710000D01*
X157940750Y-92710000D01*
X157959669Y-92853709D01*
X157998892Y-92948401D01*
X158015139Y-92987625D01*
X158053450Y-93037552D01*
X158103378Y-93102621D01*
X158153306Y-93140932D01*
X158218375Y-93190861D01*
X158313067Y-93230083D01*
X158352290Y-93246330D01*
X158369008Y-93248531D01*
X158496000Y-93265250D01*
X158639709Y-93246330D01*
X158773625Y-93190861D01*
X158888621Y-93102621D01*
X158976861Y-92987625D01*
X159032330Y-92853709D01*
X159051250Y-92710000D01*
X159032330Y-92566291D01*
X158976861Y-92432375D01*
X158926932Y-92367306D01*
X158888621Y-92317378D01*
X158840615Y-92280542D01*
X158806464Y-92231770D01*
X158806464Y-92172230D01*
X158840615Y-92123458D01*
X158888621Y-92086621D01*
X158888623Y-92086619D01*
X158976861Y-91971625D01*
X159032330Y-91837709D01*
X159051250Y-91694000D01*
X159032330Y-91550291D01*
X158976861Y-91416375D01*
X158926932Y-91351306D01*
X158888621Y-91301378D01*
X158840615Y-91264542D01*
X158806464Y-91215770D01*
X158806464Y-91156230D01*
X158840613Y-91107459D01*
X158888622Y-91070621D01*
X158976862Y-90955625D01*
X159032331Y-90821709D01*
X159035085Y-90800790D01*
X162172001Y-90800790D01*
X162174910Y-90825874D01*
X162220212Y-90928476D01*
X162299523Y-91007787D01*
X162402126Y-91053090D01*
X162427205Y-91056000D01*
X163171999Y-91056000D01*
X163172000Y-91055999D01*
X163172000Y-91055998D01*
X163472000Y-91055998D01*
X163472001Y-91055999D01*
X164216790Y-91055999D01*
X164241874Y-91053089D01*
X164344476Y-91007787D01*
X164423787Y-90928476D01*
X164469090Y-90825873D01*
X164472000Y-90800795D01*
X164472000Y-90056001D01*
X164471999Y-90056000D01*
X163472001Y-90056000D01*
X163472000Y-90056001D01*
X163472000Y-91055998D01*
X163172000Y-91055998D01*
X163172000Y-90056001D01*
X163171999Y-90056000D01*
X162172002Y-90056000D01*
X162172001Y-90056001D01*
X162172001Y-90800790D01*
X159035085Y-90800790D01*
X159051251Y-90678000D01*
X159032331Y-90534291D01*
X158976862Y-90400375D01*
X158926933Y-90335306D01*
X158888622Y-90285378D01*
X158823553Y-90235450D01*
X158773626Y-90197139D01*
X158734402Y-90180892D01*
X158639710Y-90141669D01*
X158496001Y-90122750D01*
X158352291Y-90141669D01*
X158218376Y-90197139D01*
X158103379Y-90285378D01*
X158015140Y-90400375D01*
X157959670Y-90534290D01*
X157940751Y-90677999D01*
X157959670Y-90821709D01*
X157998893Y-90916401D01*
X158015140Y-90955625D01*
X158053451Y-91005552D01*
X158103379Y-91070621D01*
X158151385Y-91107457D01*
X158185536Y-91156229D01*
X158185536Y-91215768D01*
X158151386Y-91264540D01*
X158103379Y-91301377D01*
X158015139Y-91416375D01*
X157959669Y-91550290D01*
X157940750Y-91693999D01*
X157959669Y-91837709D01*
X157998892Y-91932401D01*
X158015139Y-91971625D01*
X158103379Y-92086621D01*
X158126371Y-92104263D01*
X158151385Y-92123458D01*
X158185535Y-92172230D01*
X158185535Y-92231770D01*
X158151385Y-92280542D01*
X158103377Y-92317380D01*
X158015139Y-92432375D01*
X157959669Y-92566290D01*
X157940750Y-92710000D01*
X124325500Y-92710000D01*
X124325500Y-89755999D01*
X162172000Y-89755999D01*
X162172001Y-89756000D01*
X163171999Y-89756000D01*
X163172000Y-89755999D01*
X163472000Y-89755999D01*
X163472001Y-89756000D01*
X164471998Y-89756000D01*
X164471999Y-89755999D01*
X164471999Y-89011210D01*
X164469089Y-88986125D01*
X164423787Y-88883523D01*
X164344476Y-88804212D01*
X164241873Y-88758909D01*
X164216795Y-88756000D01*
X163472001Y-88756000D01*
X163472000Y-88756001D01*
X163472000Y-89755999D01*
X163172000Y-89755999D01*
X163172000Y-88756002D01*
X163171999Y-88756001D01*
X162427210Y-88756001D01*
X162402125Y-88758910D01*
X162299523Y-88804212D01*
X162220212Y-88883523D01*
X162174909Y-88986126D01*
X162172000Y-89011205D01*
X162172000Y-89755999D01*
X124325500Y-89755999D01*
X124325500Y-87614000D01*
X145986750Y-87614000D01*
X146005669Y-87757709D01*
X146044892Y-87852401D01*
X146061139Y-87891625D01*
X146099450Y-87941552D01*
X146149378Y-88006621D01*
X146199306Y-88044932D01*
X146264375Y-88094861D01*
X146359067Y-88134083D01*
X146398290Y-88150330D01*
X146415008Y-88152531D01*
X146542000Y-88169250D01*
X146685709Y-88150330D01*
X146819625Y-88094861D01*
X146934621Y-88006621D01*
X147022861Y-87891625D01*
X147078330Y-87757709D01*
X147097250Y-87614000D01*
X147078330Y-87470291D01*
X147035132Y-87366000D01*
X162266416Y-87366000D01*
X162286699Y-87571933D01*
X162346767Y-87769952D01*
X162346768Y-87769954D01*
X162444315Y-87952450D01*
X162575590Y-88112410D01*
X162735550Y-88243685D01*
X162918046Y-88341232D01*
X163116066Y-88401300D01*
X163322000Y-88421583D01*
X163527934Y-88401300D01*
X163725954Y-88341232D01*
X163908450Y-88243685D01*
X164068410Y-88112410D01*
X164199685Y-87952450D01*
X164297232Y-87769954D01*
X164357300Y-87571934D01*
X164377583Y-87366000D01*
X164357300Y-87160066D01*
X164297232Y-86962046D01*
X164199685Y-86779550D01*
X164068410Y-86619590D01*
X163908450Y-86488315D01*
X163725954Y-86390768D01*
X163725953Y-86390767D01*
X163725952Y-86390767D01*
X163527933Y-86330699D01*
X163322000Y-86310416D01*
X163116066Y-86330699D01*
X162918047Y-86390767D01*
X162735549Y-86488315D01*
X162575590Y-86619590D01*
X162444315Y-86779549D01*
X162346767Y-86962047D01*
X162286699Y-87160066D01*
X162266416Y-87366000D01*
X147035132Y-87366000D01*
X147022861Y-87336375D01*
X146972932Y-87271306D01*
X146934621Y-87221378D01*
X146869552Y-87171450D01*
X146819625Y-87133139D01*
X146780401Y-87116892D01*
X146685709Y-87077669D01*
X146542000Y-87058750D01*
X146398290Y-87077669D01*
X146264375Y-87133139D01*
X146149378Y-87221378D01*
X146061139Y-87336375D01*
X146005669Y-87470290D01*
X145986750Y-87614000D01*
X124325500Y-87614000D01*
X124325500Y-86359999D01*
X148542750Y-86359999D01*
X148561669Y-86503709D01*
X148600892Y-86598401D01*
X148617139Y-86637625D01*
X148655450Y-86687552D01*
X148705378Y-86752621D01*
X148740472Y-86779549D01*
X148820375Y-86840861D01*
X148915067Y-86880083D01*
X148954290Y-86896330D01*
X148971008Y-86898531D01*
X149098000Y-86915250D01*
X149241709Y-86896330D01*
X149375625Y-86840861D01*
X149490621Y-86752621D01*
X149578861Y-86637625D01*
X149634330Y-86503709D01*
X149653250Y-86360000D01*
X149634330Y-86216291D01*
X149578861Y-86082375D01*
X149526567Y-86014224D01*
X149490621Y-85967378D01*
X149401834Y-85899250D01*
X149375625Y-85879139D01*
X149332557Y-85861300D01*
X149241709Y-85823669D01*
X149098000Y-85804750D01*
X148954290Y-85823669D01*
X148820375Y-85879139D01*
X148705378Y-85967378D01*
X148617139Y-86082375D01*
X148561669Y-86216290D01*
X148542750Y-86359999D01*
X124325500Y-86359999D01*
X124325500Y-85736600D01*
X143044750Y-85736600D01*
X143063669Y-85880309D01*
X143099735Y-85967378D01*
X143119139Y-86014225D01*
X143157450Y-86064152D01*
X143207378Y-86129221D01*
X143257306Y-86167532D01*
X143322375Y-86217461D01*
X143417067Y-86256683D01*
X143456290Y-86272930D01*
X143473008Y-86275131D01*
X143600000Y-86291850D01*
X143743709Y-86272930D01*
X143877625Y-86217461D01*
X143992621Y-86129221D01*
X144080861Y-86014225D01*
X144136330Y-85880309D01*
X144155250Y-85736600D01*
X144136330Y-85592891D01*
X144080861Y-85458975D01*
X144030932Y-85393906D01*
X143992637Y-85343999D01*
X152225750Y-85343999D01*
X152244669Y-85487709D01*
X152279753Y-85572409D01*
X152300139Y-85621625D01*
X152338450Y-85671552D01*
X152388378Y-85736621D01*
X152438306Y-85774932D01*
X152503375Y-85824861D01*
X152591348Y-85861300D01*
X152637290Y-85880330D01*
X152646808Y-85881583D01*
X152781000Y-85899250D01*
X152924709Y-85880330D01*
X153058625Y-85824861D01*
X153173621Y-85736621D01*
X153261861Y-85621625D01*
X153317330Y-85487709D01*
X153336250Y-85344000D01*
X153317330Y-85200291D01*
X153317321Y-85200270D01*
X153281240Y-85113161D01*
X153261861Y-85066375D01*
X153175957Y-84954423D01*
X153173621Y-84951378D01*
X153108552Y-84901450D01*
X153058625Y-84863139D01*
X153019401Y-84846892D01*
X152968961Y-84825999D01*
X162266416Y-84825999D01*
X162286699Y-85031933D01*
X162346767Y-85229952D01*
X162346768Y-85229954D01*
X162444315Y-85412450D01*
X162575590Y-85572410D01*
X162735550Y-85703685D01*
X162918046Y-85801232D01*
X163116066Y-85861300D01*
X163322000Y-85881583D01*
X163527934Y-85861300D01*
X163725954Y-85801232D01*
X163908450Y-85703685D01*
X164068410Y-85572410D01*
X164199685Y-85412450D01*
X164297232Y-85229954D01*
X164357300Y-85031934D01*
X164377583Y-84826000D01*
X164357300Y-84620066D01*
X164297232Y-84422046D01*
X164199685Y-84239550D01*
X164068410Y-84079590D01*
X163908450Y-83948315D01*
X163725954Y-83850768D01*
X163725953Y-83850767D01*
X163725952Y-83850767D01*
X163527933Y-83790699D01*
X163322000Y-83770416D01*
X163116066Y-83790699D01*
X162918047Y-83850767D01*
X162735549Y-83948315D01*
X162575590Y-84079590D01*
X162444315Y-84239549D01*
X162346767Y-84422047D01*
X162286699Y-84620066D01*
X162266416Y-84825999D01*
X152968961Y-84825999D01*
X152924709Y-84807669D01*
X152781000Y-84788750D01*
X152637290Y-84807669D01*
X152503375Y-84863139D01*
X152388378Y-84951378D01*
X152300139Y-85066375D01*
X152244669Y-85200290D01*
X152225750Y-85343999D01*
X143992637Y-85343999D01*
X143992621Y-85343978D01*
X143927552Y-85294050D01*
X143877625Y-85255739D01*
X143815369Y-85229952D01*
X143743709Y-85200269D01*
X143600000Y-85181350D01*
X143456290Y-85200269D01*
X143322375Y-85255739D01*
X143207378Y-85343978D01*
X143119139Y-85458975D01*
X143063669Y-85592890D01*
X143044750Y-85736600D01*
X124325500Y-85736600D01*
X124325500Y-84369922D01*
X140930000Y-84369922D01*
X140945123Y-84504146D01*
X141004663Y-84674300D01*
X141100576Y-84826946D01*
X141228053Y-84954423D01*
X141380696Y-85050335D01*
X141550860Y-85109877D01*
X141579999Y-85113161D01*
X141580000Y-85113161D01*
X141880000Y-85113161D01*
X141909139Y-85109877D01*
X142079303Y-85050335D01*
X142231946Y-84954423D01*
X142359423Y-84826946D01*
X142455336Y-84674300D01*
X142514876Y-84504146D01*
X142530000Y-84369922D01*
X149570000Y-84369922D01*
X149585123Y-84504146D01*
X149644663Y-84674300D01*
X149740576Y-84826946D01*
X149868053Y-84954423D01*
X150020696Y-85050335D01*
X150190860Y-85109877D01*
X150219999Y-85113161D01*
X150220000Y-85113161D01*
X150520000Y-85113161D01*
X150549139Y-85109877D01*
X150719303Y-85050335D01*
X150871946Y-84954423D01*
X150999423Y-84826946D01*
X151095336Y-84674300D01*
X151154876Y-84504146D01*
X151170000Y-84369922D01*
X151170000Y-83925001D01*
X151169999Y-83925000D01*
X150520001Y-83925000D01*
X150520000Y-83925001D01*
X150520000Y-85113161D01*
X150220000Y-85113161D01*
X150220000Y-83925001D01*
X150219999Y-83925000D01*
X149570001Y-83925000D01*
X149570000Y-83925001D01*
X149570000Y-84369922D01*
X142530000Y-84369922D01*
X142530000Y-83925001D01*
X142529999Y-83925000D01*
X141880001Y-83925000D01*
X141880000Y-83925001D01*
X141880000Y-85113161D01*
X141580000Y-85113161D01*
X141580000Y-83925001D01*
X141579999Y-83925000D01*
X140930001Y-83925000D01*
X140930000Y-83925001D01*
X140930000Y-84369922D01*
X124325500Y-84369922D01*
X124325500Y-83566000D01*
X138763750Y-83566000D01*
X138782669Y-83709709D01*
X138816217Y-83790699D01*
X138838139Y-83843625D01*
X138876450Y-83893552D01*
X138926378Y-83958621D01*
X138976306Y-83996932D01*
X139041375Y-84046861D01*
X139120391Y-84079590D01*
X139175290Y-84102330D01*
X139192008Y-84104531D01*
X139319000Y-84121250D01*
X139462709Y-84102330D01*
X139596625Y-84046861D01*
X139711621Y-83958621D01*
X139799861Y-83843625D01*
X139855330Y-83709709D01*
X139866482Y-83624999D01*
X140930000Y-83624999D01*
X140930001Y-83625000D01*
X141579999Y-83625000D01*
X141580000Y-83624999D01*
X141580000Y-82436839D01*
X141579999Y-82436838D01*
X141880000Y-82436838D01*
X141880000Y-83624999D01*
X141880001Y-83625000D01*
X142529999Y-83625000D01*
X142547031Y-83607967D01*
X142548528Y-83603309D01*
X142597178Y-83567228D01*
X142657739Y-83566237D01*
X142707542Y-83600707D01*
X142749548Y-83655451D01*
X142820259Y-83709709D01*
X142869767Y-83747698D01*
X143009763Y-83805686D01*
X143009764Y-83805687D01*
X143122279Y-83820500D01*
X143122280Y-83820500D01*
X143197720Y-83820500D01*
X143197721Y-83820500D01*
X143253977Y-83813093D01*
X143310236Y-83805687D01*
X143450233Y-83747698D01*
X143570451Y-83655451D01*
X143662698Y-83535233D01*
X143720687Y-83395236D01*
X143740466Y-83245000D01*
X148359534Y-83245000D01*
X148379312Y-83395235D01*
X148437302Y-83535233D01*
X148529548Y-83655451D01*
X148600259Y-83709709D01*
X148649767Y-83747698D01*
X148789763Y-83805686D01*
X148789764Y-83805687D01*
X148902279Y-83820500D01*
X148902280Y-83820500D01*
X148977720Y-83820500D01*
X148977721Y-83820500D01*
X149033977Y-83813093D01*
X149090236Y-83805687D01*
X149230233Y-83747698D01*
X149350451Y-83655451D01*
X149392457Y-83600707D01*
X149442261Y-83566237D01*
X149502822Y-83567228D01*
X149551472Y-83603309D01*
X149552968Y-83607967D01*
X149570001Y-83625000D01*
X150219999Y-83625000D01*
X150220000Y-83624999D01*
X150220000Y-82436839D01*
X150219999Y-82436838D01*
X150520000Y-82436838D01*
X150520000Y-83624999D01*
X150520001Y-83625000D01*
X151169999Y-83625000D01*
X151170000Y-83624999D01*
X151170000Y-83180078D01*
X151154876Y-83045853D01*
X151095336Y-82875699D01*
X150999423Y-82723053D01*
X150871946Y-82595576D01*
X150719303Y-82499664D01*
X150549139Y-82440122D01*
X150520000Y-82436838D01*
X150219999Y-82436838D01*
X150190860Y-82440122D01*
X150020696Y-82499664D01*
X149868053Y-82595576D01*
X149740576Y-82723053D01*
X149644663Y-82875698D01*
X149622838Y-82938071D01*
X149587797Y-82985310D01*
X149532141Y-83004334D01*
X149475516Y-82988427D01*
X149453983Y-82962535D01*
X149450632Y-82965107D01*
X149350451Y-82834548D01*
X149230233Y-82742302D01*
X149090235Y-82684312D01*
X148977721Y-82669500D01*
X148977720Y-82669500D01*
X148902280Y-82669500D01*
X148902279Y-82669500D01*
X148789764Y-82684312D01*
X148649766Y-82742302D01*
X148529548Y-82834548D01*
X148437302Y-82954766D01*
X148379312Y-83094764D01*
X148359534Y-83245000D01*
X143740466Y-83245000D01*
X143720687Y-83094764D01*
X143662698Y-82954767D01*
X143602026Y-82875698D01*
X143570451Y-82834548D01*
X143450233Y-82742302D01*
X143310235Y-82684312D01*
X143197721Y-82669500D01*
X143197720Y-82669500D01*
X143122280Y-82669500D01*
X143122279Y-82669500D01*
X143009764Y-82684312D01*
X142869766Y-82742302D01*
X142749548Y-82834548D01*
X142649368Y-82965107D01*
X142646025Y-82962541D01*
X142624383Y-82988492D01*
X142567778Y-83004332D01*
X142512169Y-82985286D01*
X142477160Y-82938069D01*
X142455335Y-82875696D01*
X142359423Y-82723053D01*
X142231946Y-82595576D01*
X142079303Y-82499664D01*
X141909139Y-82440122D01*
X141880000Y-82436838D01*
X141579999Y-82436838D01*
X141550860Y-82440122D01*
X141380696Y-82499664D01*
X141228053Y-82595576D01*
X141100576Y-82723053D01*
X141004663Y-82875699D01*
X140945123Y-83045853D01*
X140930000Y-83180078D01*
X140930000Y-83624999D01*
X139866482Y-83624999D01*
X139874250Y-83566000D01*
X139855330Y-83422291D01*
X139799861Y-83288375D01*
X139749932Y-83223306D01*
X139711621Y-83173378D01*
X139609168Y-83094764D01*
X139596625Y-83085139D01*
X139557401Y-83068892D01*
X139462709Y-83029669D01*
X139319000Y-83010750D01*
X139175290Y-83029669D01*
X139041375Y-83085139D01*
X138926378Y-83173378D01*
X138838139Y-83288375D01*
X138782669Y-83422290D01*
X138763750Y-83566000D01*
X124325500Y-83566000D01*
X124325500Y-82286000D01*
X162266416Y-82286000D01*
X162286699Y-82491933D01*
X162346767Y-82689952D01*
X162346768Y-82689954D01*
X162444315Y-82872450D01*
X162575590Y-83032410D01*
X162735550Y-83163685D01*
X162918046Y-83261232D01*
X163007526Y-83288375D01*
X163116066Y-83321300D01*
X163321999Y-83341583D01*
X163321999Y-83341582D01*
X163322000Y-83341583D01*
X163527934Y-83321300D01*
X163725954Y-83261232D01*
X163908450Y-83163685D01*
X164068410Y-83032410D01*
X164199685Y-82872450D01*
X164297232Y-82689954D01*
X164357300Y-82491934D01*
X164377583Y-82286000D01*
X164357300Y-82080066D01*
X164297232Y-81882046D01*
X164199685Y-81699550D01*
X164068410Y-81539590D01*
X163908450Y-81408315D01*
X163725954Y-81310768D01*
X163725953Y-81310767D01*
X163725952Y-81310767D01*
X163527933Y-81250699D01*
X163322000Y-81230416D01*
X163116066Y-81250699D01*
X162918047Y-81310767D01*
X162735549Y-81408315D01*
X162575590Y-81539590D01*
X162444315Y-81699549D01*
X162346767Y-81882047D01*
X162286699Y-82080066D01*
X162266416Y-82286000D01*
X124325500Y-82286000D01*
X124325500Y-80012773D01*
X124325656Y-80007222D01*
X124327510Y-79974201D01*
X124329435Y-79939922D01*
X140930000Y-79939922D01*
X140945123Y-80074146D01*
X141004663Y-80244300D01*
X141100576Y-80396946D01*
X141228053Y-80524423D01*
X141380696Y-80620335D01*
X141550860Y-80679877D01*
X141579999Y-80683161D01*
X141580000Y-80683161D01*
X141880000Y-80683161D01*
X141909139Y-80679877D01*
X142079303Y-80620335D01*
X142231946Y-80524423D01*
X142359423Y-80396946D01*
X142455336Y-80244300D01*
X142514876Y-80074146D01*
X142530000Y-79939922D01*
X149570000Y-79939922D01*
X149585123Y-80074146D01*
X149644663Y-80244300D01*
X149740576Y-80396946D01*
X149868053Y-80524423D01*
X150020696Y-80620335D01*
X150190860Y-80679877D01*
X150219999Y-80683161D01*
X150220000Y-80683161D01*
X150520000Y-80683161D01*
X150549139Y-80679877D01*
X150719303Y-80620335D01*
X150871946Y-80524423D01*
X150999423Y-80396946D01*
X151095336Y-80244300D01*
X151154876Y-80074146D01*
X151170000Y-79939922D01*
X151170000Y-79745001D01*
X151169999Y-79745000D01*
X150520001Y-79745000D01*
X150520000Y-79745001D01*
X150520000Y-80683161D01*
X150220000Y-80683161D01*
X150220000Y-79745001D01*
X150219999Y-79745000D01*
X149570001Y-79745000D01*
X149570000Y-79745001D01*
X149570000Y-79939922D01*
X142530000Y-79939922D01*
X142530000Y-79745001D01*
X142529999Y-79745000D01*
X141880001Y-79745000D01*
X141880000Y-79745001D01*
X141880000Y-80683161D01*
X141580000Y-80683161D01*
X141580000Y-79745001D01*
X141579999Y-79745000D01*
X140930001Y-79745000D01*
X140930000Y-79745001D01*
X140930000Y-79939922D01*
X124329435Y-79939922D01*
X124342005Y-79716095D01*
X124343248Y-79705069D01*
X124387435Y-79444999D01*
X140930000Y-79444999D01*
X140930001Y-79445000D01*
X141579999Y-79445000D01*
X141580000Y-79444999D01*
X141580000Y-78506839D01*
X141579999Y-78506838D01*
X141880000Y-78506838D01*
X141880000Y-79444999D01*
X141880001Y-79445000D01*
X142529999Y-79445000D01*
X142530000Y-79444999D01*
X149570000Y-79444999D01*
X149570001Y-79445000D01*
X150219999Y-79445000D01*
X150220000Y-79444999D01*
X150220000Y-78506839D01*
X150219999Y-78506838D01*
X150520000Y-78506838D01*
X150520000Y-79444999D01*
X150520001Y-79445000D01*
X151169999Y-79445000D01*
X151170000Y-79444999D01*
X151170000Y-79250078D01*
X151154876Y-79115853D01*
X151095336Y-78945699D01*
X150999423Y-78793053D01*
X150871946Y-78665576D01*
X150719303Y-78569664D01*
X150549139Y-78510122D01*
X150520000Y-78506838D01*
X150219999Y-78506838D01*
X150190860Y-78510122D01*
X150020696Y-78569664D01*
X149868053Y-78665576D01*
X149740576Y-78793053D01*
X149644663Y-78945699D01*
X149585123Y-79115853D01*
X149570000Y-79250078D01*
X149570000Y-79444999D01*
X142530000Y-79444999D01*
X142530000Y-79250078D01*
X142514876Y-79115853D01*
X142455336Y-78945699D01*
X142359423Y-78793053D01*
X142231946Y-78665576D01*
X142079303Y-78569664D01*
X141909139Y-78510122D01*
X141880000Y-78506838D01*
X141579999Y-78506838D01*
X141550860Y-78510122D01*
X141380696Y-78569664D01*
X141228053Y-78665576D01*
X141100576Y-78793053D01*
X141004663Y-78945699D01*
X140945123Y-79115853D01*
X140930000Y-79250078D01*
X140930000Y-79444999D01*
X124387435Y-79444999D01*
X124391626Y-79420334D01*
X124394087Y-79409548D01*
X124474048Y-79131999D01*
X124477708Y-79121540D01*
X124588235Y-78854705D01*
X124593049Y-78844710D01*
X124621599Y-78793053D01*
X124732751Y-78591937D01*
X124738647Y-78582554D01*
X124905784Y-78346998D01*
X124912683Y-78338346D01*
X125105154Y-78122970D01*
X125112970Y-78115154D01*
X125328346Y-77922683D01*
X125336998Y-77915784D01*
X125572554Y-77748647D01*
X125581937Y-77742751D01*
X125834716Y-77603046D01*
X125844705Y-77598235D01*
X126111540Y-77487708D01*
X126121999Y-77484048D01*
X126399548Y-77404087D01*
X126410334Y-77401626D01*
X126695076Y-77353247D01*
X126706095Y-77352005D01*
X126997222Y-77335655D01*
X127002773Y-77335500D01*
X127065892Y-77335500D01*
X165034108Y-77335500D01*
X165097227Y-77335500D01*
X165102777Y-77335655D01*
G37*
%TD.AperFunction*%
%TD*%
M02*
